<svg width="297" height="297" viewBox="0 0 297 297" fill="none" xmlns="http://www.w3.org/2000/svg">
<g clip-path="url(#clip0_1718_1403)">
<path d="M141.255 195.36C170.247 166.368 170.247 119.363 141.255 90.371C112.264 61.3792 65.2585 61.3792 36.2667 90.371C7.27495 119.363 7.27495 166.368 36.2667 195.36C65.2585 224.351 112.264 224.351 141.255 195.36Z" fill="#EA4B98" fill-opacity="0.34"/>
<path d="M263.855 266.172H56.3112C56.1931 266.172 56.0798 266.125 55.9962 266.042C55.9127 265.958 55.8657 265.845 55.8657 265.727C55.8657 265.609 55.9127 265.495 55.9962 265.412C56.0798 265.328 56.1931 265.281 56.3112 265.281H263.855C263.973 265.281 264.086 265.328 264.17 265.412C264.253 265.495 264.3 265.609 264.3 265.727C264.3 265.845 264.253 265.958 264.17 266.042C264.086 266.125 263.973 266.172 263.855 266.172Z" fill="#29275F"/>
<path d="M213.008 286.659C243.003 286.659 267.318 283.133 267.318 278.783C267.318 274.433 243.003 270.906 213.008 270.906C183.014 270.906 158.699 274.433 158.699 278.783C158.699 283.133 183.014 286.659 213.008 286.659Z" fill="#C7C7C7"/>
<path d="M175.996 50.4785H71.0365C63.6519 50.4785 57.6655 56.4649 57.6655 63.8495V225.613C57.6655 232.998 63.6519 238.984 71.0365 238.984H175.996C183.381 238.984 189.367 232.998 189.367 225.613V63.8495C189.367 56.4649 183.381 50.4785 175.996 50.4785Z" fill="white"/>
<path d="M145.257 61.3076C147.084 61.3076 148.565 59.8263 148.565 57.999C148.565 56.1717 147.084 54.6904 145.257 54.6904C143.43 54.6904 141.948 56.1717 141.948 57.999C141.948 59.8263 143.43 61.3076 145.257 61.3076Z" fill="#EA4B98"/>
<path d="M159.786 61.3076C161.613 61.3076 163.095 59.8263 163.095 57.999C163.095 56.1717 161.613 54.6904 159.786 54.6904C157.959 54.6904 156.478 56.1717 156.478 57.999C156.478 59.8263 157.959 61.3076 159.786 61.3076Z" fill="#EA4B98"/>
<path d="M174.321 61.3076C176.149 61.3076 177.63 59.8263 177.63 57.999C177.63 56.1717 176.149 54.6904 174.321 54.6904C172.494 54.6904 171.013 56.1717 171.013 57.999C171.013 59.8263 172.494 61.3076 174.321 61.3076Z" fill="#29275F"/>
<path d="M175.996 239.43H71.0423C67.3779 239.425 63.8648 237.968 61.2737 235.376C58.6825 232.785 57.2247 229.272 57.22 225.608V63.8556C57.2247 60.1911 58.6825 56.6781 61.2737 54.0869C63.8648 51.4957 67.3779 50.0379 71.0423 50.0332H175.996C179.66 50.0379 183.173 51.4959 185.763 54.0873C188.353 56.6786 189.809 60.1917 189.813 63.8556V225.608C189.809 229.272 188.353 232.785 185.763 235.376C183.173 237.967 179.66 239.425 175.996 239.43ZM71.0423 50.9242C67.6137 50.9273 64.3264 52.2908 61.902 54.7152C59.4775 57.1396 58.1141 60.4269 58.111 63.8556V225.608C58.1141 229.036 59.4775 232.324 61.902 234.748C64.3264 237.173 67.6137 238.536 71.0423 238.539H175.996C179.424 238.534 182.71 237.17 185.133 234.746C187.556 232.322 188.919 229.035 188.922 225.608V63.8556C188.919 60.428 187.556 57.1415 185.133 54.7173C182.71 52.293 179.424 50.9289 175.996 50.9242H71.0423Z" fill="#29275F"/>
<path d="M189.367 64.3012H57.6655C57.5473 64.3012 57.434 64.2542 57.3505 64.1707C57.2669 64.0871 57.22 63.9738 57.22 63.8557C57.22 63.7375 57.2669 63.6242 57.3505 63.5406C57.434 63.4571 57.5473 63.4102 57.6655 63.4102H189.367C189.485 63.4102 189.599 63.4571 189.682 63.5406C189.766 63.6242 189.813 63.7375 189.813 63.8557C189.813 63.9738 189.766 64.0871 189.682 64.1707C189.599 64.2542 189.485 64.3012 189.367 64.3012Z" fill="#29275F"/>
<path d="M103.065 80.7196L88.7615 74.6608L74.458 80.7196V46.9863H103.065V80.7196Z" fill="#EA4B98"/>
<path d="M179.56 88.6494H105.233V91.6966H179.56V88.6494Z" fill="#C7C7C7"/>
<path d="M179.56 96.7988H105.233V99.846H179.56V96.7988Z" fill="#C7C7C7"/>
<path d="M179.56 104.948H105.233V107.995H179.56V104.948Z" fill="#C7C7C7"/>
<path d="M179.56 113.104H105.233V116.152H179.56V113.104Z" fill="#C7C7C7"/>
<path d="M148.191 121.254H105.233V124.301H148.191V121.254Z" fill="#C7C7C7"/>
<path d="M131.001 137.084H67.4724V140.131H131.001V137.084Z" fill="#C7C7C7"/>
<path d="M131.001 145.239H67.4724V148.286H131.001V145.239Z" fill="#C7C7C7"/>
<path d="M131.001 153.389H67.4724V156.436H131.001V153.389Z" fill="#C7C7C7"/>
<path d="M131.001 161.539H67.4724V164.586H131.001V161.539Z" fill="#C7C7C7"/>
<path d="M113.216 169.694H67.4724V172.742H113.216V169.694Z" fill="#C7C7C7"/>
<path d="M179.103 73.7217H127.496V82.2278H179.103V73.7217Z" fill="#EA4B98"/>
<path d="M126.712 232.878C126.647 232.883 126.582 232.873 126.522 232.848L114.713 227.217C114.655 227.196 114.602 227.162 114.558 227.119C114.514 227.076 114.478 227.025 114.455 226.967C114.432 226.91 114.421 226.849 114.422 226.787C114.424 226.725 114.439 226.664 114.465 226.608C114.492 226.552 114.529 226.503 114.576 226.462C114.623 226.422 114.678 226.391 114.737 226.373C114.796 226.355 114.858 226.349 114.92 226.357C114.981 226.364 115.04 226.384 115.094 226.415L126.712 231.951L138.331 226.415C138.384 226.384 138.443 226.364 138.505 226.357C138.566 226.349 138.629 226.355 138.688 226.373C138.747 226.391 138.802 226.422 138.848 226.462C138.895 226.503 138.933 226.552 138.959 226.608C138.986 226.664 139 226.725 139.002 226.787C139.004 226.849 138.993 226.91 138.969 226.967C138.946 227.025 138.911 227.076 138.866 227.119C138.822 227.162 138.769 227.196 138.711 227.217L126.902 232.848C126.842 232.873 126.777 232.883 126.712 232.878Z" fill="#29275F"/>
<path d="M100.267 88.6494H67.4724V124.776H100.267V88.6494Z" fill="#EA4B98"/>
<path d="M88.0783 115.67H79.8514L78.408 120.463H70.9771L80.4395 92.9551H87.615L97.0774 120.463H89.5336L88.0783 115.67ZM86.0706 108.987L83.9678 102.073L81.8651 108.987H86.0706Z" fill="white"/>
<path d="M172.634 137.084H140.255V172.736H172.634V137.084Z" fill="#EA4B98"/>
<path d="M166.973 159.786C166.973 163.582 163.831 165.792 157.939 165.792H145.91V144.016H157.327C163.219 144.016 165.97 146.392 165.97 149.712C165.985 150.699 165.712 151.669 165.184 152.504C164.657 153.338 163.898 154.001 163 154.411C165.512 155.349 166.973 157.214 166.973 159.786ZM152.991 149.154V152.391H156.353C157.968 152.391 158.729 151.797 158.729 150.769C158.729 149.742 157.992 149.154 156.353 149.154H152.991ZM159.709 158.961C159.709 157.838 158.919 157.244 157.333 157.244H152.997V160.671H157.333C158.919 160.671 159.709 160.077 159.709 158.961Z" fill="white"/>
<path d="M172.628 183.636H68.5061V186.683H172.628V183.636Z" fill="#C7C7C7"/>
<path d="M172.628 191.785H68.5061V194.832H172.628V191.785Z" fill="#C7C7C7"/>
<path d="M172.628 199.935H68.5061V202.982H172.628V199.935Z" fill="#C7C7C7"/>
<path d="M123.516 208.364H68.5061V211.132H123.516V208.364Z" fill="#C7C7C7"/>
<path d="M275.319 99.2991L267.3 107.277L268.357 93.0205C269.094 94.6421 272.622 97.3567 274.345 98.616C274.939 99.0437 275.319 99.2991 275.319 99.2991Z" fill="#EA4B98"/>
<path d="M266.047 40.7129C264.755 41.385 263.341 41.7891 261.889 41.9009C263.34 41.7837 264.753 41.3799 266.047 40.7129Z" fill="white"/>
<path d="M259.62 42.0379C259.923 42.0379 260.214 42.0379 260.552 42.0379C260.891 42.0379 261.093 42.0379 261.372 41.9963L261.919 41.9429C263.37 41.8311 264.785 41.427 266.077 40.7549L270.864 59.4599C270.862 59.4697 270.862 59.4799 270.864 59.4896C270.709 60.1124 270.523 60.727 270.306 61.331C270.235 61.533 270.151 61.7468 270.074 61.9726C269.997 62.1983 269.902 62.4062 269.807 62.62C269.753 62.7809 269.687 62.9377 269.611 63.0893C269.403 63.5673 269.169 64.0333 268.91 64.4852C268.833 64.6218 268.744 64.7584 268.666 64.8891C268.589 65.0198 268.441 65.2514 268.322 65.4178C268.203 65.5841 268.084 65.7445 267.959 65.893C267.959 65.893 267.959 65.9286 267.93 65.9405H267.894L267.859 65.988L267.728 66.1603L267.526 66.3622L267.413 66.4632C267.395 66.4845 267.375 66.5043 267.354 66.5226L267.3 66.5701L267.164 66.683L267.063 66.7661C266.911 66.8832 266.753 66.9904 266.587 67.0869C266.504 67.1403 266.414 67.1823 266.32 67.2116C266.287 67.2324 266.251 67.2484 266.213 67.2592C266.184 67.2762 266.152 67.2882 266.118 67.2948C266.017 67.3373 265.911 67.3692 265.803 67.3898C265.715 67.4119 265.626 67.4278 265.536 67.4374C265.382 67.4522 265.227 67.4522 265.073 67.4374C264.913 67.4271 264.755 67.4073 264.597 67.378C264.454 67.349 264.313 67.3093 264.176 67.2592C263.9 67.1609 263.64 67.0228 263.404 66.8493C263.372 66.833 263.342 66.8131 263.314 66.7899L263.261 66.7424C263.164 66.674 263.073 66.5986 262.988 66.5167C262.931 66.4563 262.872 66.3988 262.81 66.3444L262.637 66.1424C262.516 66.0066 262.403 65.8638 262.299 65.7148C262.28 65.6952 262.264 65.6732 262.251 65.6494C262.188 65.5602 262.13 65.467 262.079 65.3702L262.008 65.2455L261.954 65.1564C261.794 64.8712 261.649 64.5778 261.521 64.2773C261.521 64.2238 261.491 64.1644 261.467 64.111C261.443 64.0575 261.39 63.9149 261.348 63.814C261.307 63.713 261.283 63.6001 261.247 63.4932C261.243 63.4696 261.243 63.4455 261.247 63.4219C261.245 63.3982 261.245 63.3743 261.247 63.3506C261.184 63.178 261.133 63.0014 261.093 62.822C261.068 62.7503 261.048 62.6769 261.033 62.6022C261.033 62.5309 261.033 62.4596 260.992 62.3884C260.994 62.3528 260.994 62.317 260.992 62.2814L260.962 62.1805C260.915 61.9429 260.867 61.729 260.837 61.5449C260.844 61.4777 260.844 61.4101 260.837 61.3429C260.837 61.3073 260.837 61.2716 260.837 61.236C260.837 61.2004 260.837 61.236 260.837 61.1885C260.837 61.141 260.837 61.1469 260.837 61.1231C260.84 61.0836 260.84 61.0439 260.837 61.0043C260.836 61.0241 260.836 61.044 260.837 61.0637C260.837 61.1113 260.796 61.1885 260.754 61.2895C260.754 61.331 260.719 61.3904 260.695 61.4439C260.63 61.6221 260.546 61.8419 260.439 62.0914C260.392 62.1745 260.356 62.2636 260.315 62.3527C260.255 62.4596 260.196 62.5725 260.137 62.6972C260.137 62.6972 260.137 62.7388 260.107 62.7566L260.065 62.8279C260.006 62.9586 259.929 63.0893 259.851 63.2318C259.792 63.3402 259.726 63.4453 259.655 63.5467L259.59 63.6417C259.572 63.6826 259.548 63.7207 259.519 63.7546C259.418 63.909 259.311 64.0575 259.198 64.2179L259.145 64.301C259.055 64.4292 258.957 64.5521 258.853 64.6693C258.352 65.3046 257.728 65.8319 257.018 66.2197L256.792 66.3325C256.598 66.4123 256.4 66.4817 256.198 66.5404C255.971 66.6031 255.738 66.6448 255.503 66.6652C255.274 66.683 255.044 66.683 254.814 66.6652C254.682 66.6608 254.55 66.6409 254.422 66.6058C254.171 66.5542 253.927 66.4704 253.698 66.3563C253.591 66.2986 253.488 66.2352 253.389 66.1662C253.265 66.0849 253.149 65.9914 253.044 65.887L252.973 65.8098C252.89 65.7266 252.812 65.6375 252.741 65.5603C252.685 65.4971 252.633 65.4296 252.587 65.3584C252.538 65.2954 252.492 65.23 252.45 65.1623L252.379 65.0554C252.354 65.0248 252.334 64.9908 252.319 64.9544C252.274 64.8824 252.234 64.8069 252.201 64.7287C252.136 64.6257 252.079 64.5186 252.028 64.408C251.981 64.2951 251.927 64.1822 251.886 64.0634C251.829 63.937 251.783 63.8058 251.749 63.6714C251.589 63.2448 251.464 62.8058 251.375 62.3587L251.327 62.0854C251.094 60.818 250.985 59.5309 251.001 58.2422C251.001 58.07 251.001 57.969 251.001 57.969L258.069 41.8775H258.337H258.61L259.145 41.9132C259.246 41.9132 259.352 41.9132 259.465 41.9132L259.62 42.0379Z" fill="white"/>
<path d="M261.984 65.2688L262.055 65.3935L261.978 65.2688L261.93 65.1797L261.984 65.2688Z" fill="white"/>
<path d="M261.443 64.1525C261.443 64.2059 261.479 64.2653 261.497 64.3188L261.437 64.1525C261.402 64.0515 261.366 63.9564 261.324 63.8555C261.36 63.9386 261.402 64.0396 261.443 64.1525Z" fill="white"/>
<path d="M261.223 63.5166C261.259 63.6235 261.289 63.7304 261.324 63.8374L261.217 63.5166C261.216 63.4929 261.216 63.4691 261.217 63.4453C261.215 63.4692 261.217 63.4934 261.223 63.5166Z" fill="white"/>
<path d="M261.407 74.7076C261.889 73.9473 263.593 74.3631 263.593 74.3631C263.493 74.1924 263.437 73.9994 263.431 73.8015C263.424 73.6037 263.467 73.4073 263.555 73.2303C263.644 73.0532 263.775 72.9011 263.937 72.7877C264.1 72.6744 264.288 72.6033 264.484 72.5811C265.506 72.3494 269.617 73.6206 269.83 73.6859L270.258 67.9301C271.446 67.5974 272.165 69.4448 272.236 70.5971C272.307 71.7495 277.618 82.7207 277.944 84.6393C278.271 86.5579 279.667 90.2645 279.257 91.6129C278.913 92.7236 275.545 97.143 274.375 98.6458C272.652 97.3865 269.124 94.672 268.387 93.0503C266.991 89.9378 268.553 86.4688 268.553 86.4688C268.553 86.4688 260.873 82.7741 260.326 82.3465C259.78 81.9188 260.119 80.8258 260.57 80.6476C261.021 80.4694 264.585 81.2416 264.77 81.301C264.609 81.2179 261.972 79.9586 261.33 79.6675C260.994 79.5473 260.711 79.3137 260.528 79.0068C260.346 78.6999 260.277 78.339 260.332 77.9865C260.386 77.0599 261.419 76.9648 261.419 76.9648C260.885 76.448 260.932 75.4739 261.407 74.7076Z" fill="white"/>
<path d="M260.903 62.3047C260.905 62.3403 260.905 62.376 260.903 62.4116C260.903 62.4829 260.903 62.5542 260.944 62.6254L260.897 62.4057L260.903 62.3047Z" fill="white"/>
<path d="M259.94 62.7146C260 62.5899 260.059 62.477 260.119 62.3701C260.054 62.4813 259.997 62.5963 259.946 62.7146L259.911 62.774C259.911 62.774 259.928 62.7325 259.94 62.7146Z" fill="white"/>
<path d="M259.394 63.6595L259.459 63.5645C259.459 63.6001 259.418 63.6298 259.4 63.6595H259.394Z" fill="white"/>
<path d="M259.281 278.206H254.879L255.402 270.906C256.175 271.077 256.888 271.45 257.469 271.987C258.984 273.692 259.281 278.206 259.281 278.206Z" fill="#B22522"/>
<path d="M266.047 40.7129C264.765 41.3906 263.362 41.8085 261.919 41.9425L261.372 41.9959C261.093 41.9959 260.826 42.0316 260.552 42.0375C260.279 42.0434 259.923 42.0375 259.62 42.0375H259.257C259.145 42.0375 259.038 42.0375 258.937 42.0375L258.402 42.0019H258.129H257.903L261.984 32.2424L264.176 31.6484L266.077 40.802L266.047 40.7129Z" fill="#29275F"/>
<path d="M253.513 66.4219C253.743 66.536 253.987 66.6198 254.238 66.6714C253.986 66.6223 253.742 66.5384 253.513 66.4219Z" fill="white"/>
<path d="M270.864 59.4897L269.813 73.6566C269.617 73.5912 265.506 72.3201 264.467 72.5517C264.27 72.574 264.082 72.645 263.92 72.7584C263.757 72.8718 263.626 73.0239 263.537 73.2009C263.449 73.378 263.406 73.5743 263.413 73.7722C263.419 73.97 263.475 74.163 263.576 74.3337C263.576 74.3337 261.871 73.9179 261.39 74.6783C260.908 75.4386 260.867 76.4187 261.39 76.9058C261.39 76.9058 260.356 77.0008 260.303 77.9274C260.247 78.28 260.317 78.6408 260.499 78.9477C260.681 79.2546 260.964 79.4883 261.301 79.6085C261.942 79.8995 264.579 81.1588 264.74 81.242C264.556 81.2004 260.974 80.4222 260.54 80.5886C260.107 80.7549 259.744 81.8657 260.297 82.2874C260.849 82.7091 268.524 86.4098 268.524 86.4098C268.524 86.4098 266.961 89.8787 268.357 92.9913L267.3 107.247L258.123 231.067L257.695 237.072L256.709 237.315C256.382 237.393 256.056 237.458 255.729 237.523C255.402 237.589 255.081 237.642 254.767 237.69C254.452 237.737 254.173 237.779 253.923 237.808L253.495 237.862C252.854 237.933 252.23 237.987 251.612 238.01H251.018C250.264 238.04 249.527 238.01 248.803 238.01C248.078 238.01 247.532 237.945 246.914 237.88L246.641 237.85C246.531 237.845 246.421 237.831 246.314 237.808C245.72 237.749 245.126 237.666 244.591 237.571L243.997 237.458L243.54 237.381L242.786 237.214C242.663 237.193 242.542 237.165 242.423 237.131C241.354 236.888 240.433 236.62 239.691 236.383L239.097 236.181L238.194 235.819C238.187 235.816 238.18 235.814 238.173 235.814C238.166 235.814 238.159 235.816 238.152 235.819C238.109 235.806 238.067 235.788 238.028 235.765L237.612 235.599L238.01 230.063C237.927 230.003 239.251 212.474 240.297 198.337C241.004 188.833 241.592 180.885 241.538 180.844L242.607 165.994L246.326 117.137L249.522 75.1059L250.799 58.3076C250.783 59.5962 250.892 60.8834 251.125 62.1508L251.173 62.424C251.261 62.8711 251.387 63.3102 251.547 63.7368C251.581 63.8712 251.627 64.0024 251.684 64.1288C251.725 64.2476 251.779 64.3605 251.826 64.4733C251.876 64.5832 251.931 64.6903 251.993 64.7941C252.028 64.8724 252.07 64.9479 252.117 65.0198C252.132 65.0561 252.152 65.0902 252.177 65.1208C252.201 65.1545 252.223 65.1903 252.242 65.2277C252.29 65.299 252.337 65.3584 252.385 65.4237C252.431 65.4949 252.482 65.5624 252.539 65.6257C252.61 65.7029 252.688 65.792 252.771 65.8752L252.842 65.9524C252.947 66.0567 253.063 66.1503 253.186 66.2316C253.286 66.3005 253.389 66.364 253.495 66.4217C253.724 66.5382 253.968 66.6221 254.22 66.6711C254.348 66.7063 254.48 66.7262 254.612 66.7305C254.841 66.7484 255.072 66.7484 255.301 66.7305C255.536 66.7102 255.769 66.6684 255.996 66.6058C256.198 66.5471 256.396 66.4777 256.59 66.3979L256.816 66.285C257.526 65.8973 258.15 65.37 258.651 64.7347C258.755 64.6175 258.852 64.4946 258.942 64.3664L258.996 64.2833C259.109 64.1229 259.216 63.9744 259.317 63.8199C259.347 63.7872 259.372 63.7489 259.388 63.7071C259.388 63.7071 259.429 63.6477 259.447 63.612C259.518 63.5107 259.584 63.4056 259.643 63.2972C259.72 63.1547 259.798 63.024 259.857 62.8933L259.899 62.822L259.934 62.7626C259.985 62.6443 260.042 62.5293 260.107 62.4181C260.148 62.3349 260.19 62.2458 260.225 62.1567C260.332 61.9073 260.415 61.6875 260.481 61.5093C260.504 61.4591 260.524 61.4075 260.54 61.3548C260.582 61.2539 260.606 61.1766 260.623 61.1291C260.622 61.1093 260.622 61.0895 260.623 61.0697C260.626 61.1093 260.626 61.1489 260.623 61.1885C260.626 61.2122 260.626 61.2361 260.623 61.2598C260.623 61.2598 260.623 61.2895 260.623 61.3014C260.623 61.3133 260.623 61.3727 260.623 61.4083C260.623 61.4439 260.623 61.5509 260.623 61.6103C260.653 61.7944 260.701 62.0082 260.748 62.2458L260.778 62.3468V62.4478L260.825 62.6676C260.84 62.7422 260.859 62.8157 260.885 62.8874C260.924 63.0668 260.976 63.2434 261.039 63.416C261.036 63.4397 261.036 63.4636 261.039 63.4873C261.038 63.511 261.038 63.5348 261.039 63.5586L261.146 63.8793C261.188 63.9803 261.223 64.0754 261.259 64.1763L261.318 64.3427C261.447 64.6431 261.592 64.9366 261.752 65.2218L261.799 65.3109L261.877 65.4356C261.928 65.5324 261.985 65.6256 262.049 65.7148C262.062 65.7386 262.078 65.7605 262.096 65.7801C262.201 65.9292 262.314 66.072 262.435 66.2078C262.489 66.278 262.547 66.3454 262.607 66.4098C262.67 66.4641 262.729 66.5216 262.786 66.582C262.871 66.664 262.962 66.7394 263.059 66.8078L263.112 66.8553C263.14 66.8785 263.169 66.8984 263.201 66.9147C263.437 67.0882 263.698 67.2263 263.974 67.3245C264.111 67.3747 264.252 67.4144 264.395 67.4433C264.552 67.4746 264.711 67.4965 264.87 67.5087C265.024 67.5267 265.18 67.5267 265.334 67.5087C265.424 67.4991 265.513 67.4832 265.601 67.4612C265.709 67.4405 265.815 67.4086 265.916 67.3661C265.949 67.3596 265.981 67.3475 266.011 67.3305C266.049 67.3197 266.085 67.3037 266.118 67.283C266.212 67.2536 266.302 67.2116 266.385 67.1582C266.55 67.0617 266.709 66.9545 266.86 66.8375C266.899 66.8164 266.933 66.7882 266.961 66.7543L267.098 66.6414L267.151 66.5939C267.212 66.5437 267.269 66.4901 267.324 66.4335L267.526 66.2316L267.656 66.0593L267.698 66.0118H267.734L267.769 65.9643C267.888 65.8158 268.013 65.6495 268.126 65.4891C268.238 65.3287 268.357 65.1446 268.47 64.9604C268.583 64.7763 268.636 64.6931 268.714 64.5565C268.973 64.1047 269.207 63.6386 269.415 63.1606C269.491 63.009 269.557 62.8522 269.611 62.6913C269.706 62.4775 269.801 62.2577 269.878 62.0439C269.955 61.83 270.044 61.6043 270.11 61.4024C270.395 60.7787 270.647 60.1403 270.864 59.4897Z" fill="#EA4B98"/>
<path d="M244.58 237.553C244.378 237.518 244.176 237.488 243.986 237.446L244.58 237.553Z" fill="white"/>
<path d="M239.061 236.163C238.711 236.044 238.414 235.937 238.182 235.842L239.061 236.163Z" fill="white"/>
<path d="M248.791 237.992C249.516 238.028 250.252 238.034 251.007 237.992H251.601C252.195 237.992 252.842 237.915 253.484 237.844L253.911 237.79C254.185 237.761 254.47 237.725 254.755 237.672C255.04 237.618 255.39 237.565 255.717 237.505C256.044 237.446 256.37 237.375 256.697 237.297L257.683 237.054L256.174 260.059C253.483 260.777 250.702 261.105 247.918 261.034C247.538 261.034 247.158 261.034 246.783 260.986C246.581 260.986 246.391 260.986 246.189 260.95C245.987 260.915 245.821 260.921 245.637 260.903C245.28 260.903 244.924 260.838 244.574 260.79C243.896 260.713 243.255 260.612 242.637 260.505L242.114 260.404C241.651 260.315 241.212 260.22 240.802 260.119C240.546 260.065 240.309 260.006 240.083 259.947L239.649 259.834C239.091 259.679 238.592 259.531 238.152 259.388L237.558 259.186C236.964 258.984 236.578 258.824 236.341 258.729L236.234 258.681L236.091 258.622L237.6 235.604L238.016 235.771C238.055 235.793 238.097 235.811 238.141 235.824C238.147 235.821 238.154 235.82 238.161 235.82C238.169 235.82 238.176 235.821 238.182 235.824C238.414 235.919 238.711 236.026 239.061 236.145L239.655 236.347C240.398 236.585 241.319 236.852 242.388 237.095C242.507 237.129 242.628 237.157 242.75 237.179L243.504 237.345L243.962 237.428C244.158 237.47 244.36 237.499 244.556 237.535C245.108 237.63 245.678 237.713 246.278 237.773C246.386 237.796 246.495 237.809 246.605 237.814L246.878 237.844C247.52 237.927 248.144 237.969 248.791 237.992Z" fill="#C7C7C7"/>
<path d="M238.194 259.377C238.634 259.519 239.133 259.668 239.691 259.822L240.125 259.935C240.35 259.994 240.588 260.054 240.843 260.107C241.253 260.208 241.693 260.303 242.156 260.392L242.679 260.493C243.273 260.606 243.938 260.701 244.615 260.778C244.966 260.826 245.322 260.862 245.678 260.891C245.863 260.891 246.041 260.933 246.231 260.939C246.421 260.945 246.617 260.939 246.825 260.974C247.199 260.974 247.579 261.016 247.959 261.022C250.744 261.093 253.525 260.765 256.216 260.048L255.42 270.906L254.897 278.206L254.844 278.937C244.294 281.806 234.761 277.505 234.761 277.505L234.838 276.418L235.527 266.825L236.121 258.616L236.264 258.676L236.37 258.723C236.608 258.818 237.018 258.979 237.588 259.181L238.194 259.377Z" fill="#EA4B98"/>
<path d="M235.509 266.819L234.82 276.413L227.621 273.33V265.014C229.539 265.875 232.688 267.021 235.509 266.819Z" fill="#B22522"/>
<path d="M220.825 43.9561L222.803 54.5827L223.611 58.8773C223.611 58.8773 219.792 66.3914 213.751 66.8072C207.71 67.223 204.401 58.2715 204.401 58.2715L204.514 57.6181C204.514 57.6181 216.953 61.0989 220.303 46.0232C220.536 45.3504 220.711 44.6588 220.825 43.9561Z" fill="white"/>
<path d="M191.114 266.873C187.116 266.618 185.013 265.091 183.986 263.974C183.663 263.636 183.393 263.252 183.184 262.834V203.101L184.419 144.824C187.573 146.683 196.697 151.198 210.739 151.251C225.227 151.293 233.252 144.539 235.687 142.109L240.279 198.308C239.234 212.445 237.903 229.974 237.992 230.033L237.594 235.569L236.085 258.575L235.491 266.784C232.67 266.986 229.522 265.84 227.603 265.002C226.504 264.509 225.821 264.111 225.821 264.111L219.703 212.391L210.407 161.931L206.213 199.834L203.243 263.832C202.705 264.137 202.152 264.415 201.586 264.663C199.412 265.673 195.391 267.146 191.114 266.873Z" fill="#29275F"/>
<path d="M211.214 54.5652C212.45 54.2266 218.259 51.9872 220.303 46.0234C216.953 61.0992 204.514 57.6183 204.514 57.6183L204.793 55.9908L205.102 54.2088C205.214 54.3198 205.333 54.423 205.459 54.5176C206.754 55.5096 209.349 55.076 211.214 54.5652Z" fill="#29275F"/>
<path d="M218.2 22.6498C219.929 24.1348 219.388 28.1027 219.602 30.5857C219.654 31.28 219.936 31.9371 220.405 32.4526C220.873 32.9681 221.5 33.3124 222.186 33.4309C222.652 33.333 223.133 33.333 223.599 33.4309C223.909 33.5139 224.207 33.6377 224.485 33.7992C225.134 34.1805 225.667 34.7333 226.023 35.3971C226.509 36.3554 226.683 37.4414 226.522 38.5037C226.305 40.0638 225.52 41.4892 224.318 42.5072C223.335 43.3446 222.113 43.8516 220.825 43.9566C220.711 44.6471 220.538 45.3267 220.309 45.9881C218.265 51.9281 212.456 54.1912 211.22 54.5298C209.355 55.0406 206.76 55.4743 205.465 54.4704C205.339 54.3758 205.22 54.2726 205.108 54.1615C203.457 52.6112 199.24 47.479 198.699 44.3665C198.283 42.0261 198.545 35.7238 198.746 32.1301C198.836 30.5738 198.907 29.5224 198.907 29.5224C198.907 29.044 198.935 28.5661 198.99 28.0909C199.02 27.8533 199.055 27.6216 199.097 27.3899C199.139 27.1583 199.18 26.9682 199.228 26.7662C199.255 26.6418 199.289 26.5189 199.329 26.398C199.407 26.0835 199.504 25.774 199.62 25.4713C199.649 25.3763 199.691 25.2812 199.727 25.1921C199.762 25.103 199.822 24.9545 199.869 24.8417C199.917 24.7288 199.982 24.5803 200.053 24.4556C200.071 24.392 200.099 24.3317 200.136 24.2774C200.134 24.2708 200.132 24.2637 200.132 24.2566C200.132 24.2494 200.134 24.2424 200.136 24.2358C200.146 24.2004 200.16 24.1664 200.178 24.1348L200.226 24.1705C200.252 24.1821 200.274 24.2006 200.291 24.2239L200.439 24.319L200.624 24.4496L200.867 24.5863L200.998 24.6575L201.301 24.8179C203.066 25.6141 204.999 25.9649 206.932 25.8396C211.636 25.703 216.483 21.1708 218.2 22.6498Z" fill="white"/>
<path d="M224.496 25.792C224.425 30.4073 224.467 33.0388 224.496 33.8228C224.219 33.6614 223.921 33.5375 223.611 33.4546C223.145 33.3567 222.664 33.3567 222.198 33.4546C221.511 33.336 220.884 32.9917 220.416 32.4762C219.948 31.9608 219.666 31.3037 219.614 30.6093C219.412 28.1264 219.94 24.1585 218.212 22.6735C216.483 21.1885 211.678 25.7266 207.009 25.9048C205.071 26.0247 203.133 25.6657 201.366 24.8594L201.063 24.699L200.932 24.6277L200.689 24.4911L200.505 24.3604L200.356 24.2654C200.34 24.2421 200.317 24.2236 200.291 24.2119L200.243 24.1763C200.225 24.2079 200.211 24.2419 200.202 24.2773C200.199 24.2838 200.198 24.2909 200.198 24.2981C200.198 24.3052 200.199 24.3123 200.202 24.3188C200.164 24.3732 200.136 24.4334 200.119 24.497C200.047 24.6218 199.994 24.7525 199.934 24.8831C199.875 25.0138 199.833 25.1148 199.792 25.2336C199.75 25.3524 199.715 25.4177 199.685 25.5128C199.569 25.8155 199.472 26.1249 199.394 26.4394C199.354 26.5604 199.32 26.6833 199.293 26.8077C199.245 27.0097 199.204 27.2235 199.162 27.4314C199.121 27.6393 199.085 27.8947 199.055 28.1323C199 28.6075 198.973 29.0855 198.972 29.5639C198.972 29.5639 198.901 30.6152 198.812 32.1715H198.544C191.345 31.0429 195.776 24.2832 195.776 24.2832C191.529 17.9809 196.127 17.1552 201.01 17.4819C205.892 17.8086 210.122 14.5119 214.481 14.0783C218.841 13.6447 220.38 18.1412 220.38 18.1412C223.403 17.767 224.568 20.1965 224.496 25.792Z" fill="#29275F"/>
<path d="M191.114 266.872C195.39 267.146 199.43 265.684 201.574 264.675V273.329L190.193 278.206H169.914C169.914 278.206 170.217 273.691 171.696 271.987C173.175 270.282 179.198 270.175 179.198 270.175L183.986 263.974C185.013 265.073 187.11 266.617 191.114 266.872Z" fill="#B22522"/>
<path d="M192.456 142.121C192.628 142.555 192.165 143.719 190.674 143.226C189.183 142.733 184.342 138.575 184.342 138.575L183.647 138.539C182.257 138.438 179.139 138.123 177.363 137.232C175.587 136.341 173.205 132.67 172.23 131.073C175.028 130.164 179.448 128.299 180.814 125.299L182.002 126.944C182.002 126.944 183.54 126.582 185.257 126.303C186.778 126.059 188.447 125.881 189.332 126.071C191.215 126.481 200.315 132.011 199.329 133.199C198.343 134.387 195.503 133.199 195.319 133.152C195.48 133.324 197.98 136.074 198.568 136.805C199.156 137.535 199.032 138.022 199.032 138.022C198.76 138.31 198.424 138.528 198.051 138.66C197.678 138.793 197.279 138.834 196.887 138.783C195.646 138.628 191.88 135.551 191.185 134.981C192.082 135.765 198.004 140.921 197.873 141.224C197.743 141.527 197.119 142.412 195.497 142.038C194.177 141.657 192.894 141.154 191.666 140.535C191.678 140.618 192.284 141.693 192.456 142.121Z" fill="white"/>
<path d="M190.674 143.225C192.189 143.718 192.652 142.554 192.456 142.121C192.26 141.687 191.684 140.618 191.648 140.558C192.876 141.177 194.159 141.68 195.48 142.061C197.107 142.441 197.719 141.568 197.856 141.247C197.992 140.927 192.064 135.789 191.167 135.005C191.862 135.599 195.628 138.652 196.87 138.806C197.258 138.854 197.652 138.81 198.02 138.678C198.389 138.546 198.721 138.33 198.99 138.046C198.99 138.046 199.145 137.588 198.527 136.828C197.909 136.068 195.438 133.347 195.278 133.175C195.462 133.246 198.325 134.41 199.287 133.223C200.249 132.035 191.173 126.481 189.29 126.094C188.405 125.904 186.736 126.094 185.215 126.326L183.558 94.7016L171.007 102.293C171.935 103.482 172.778 104.734 173.531 106.041C174.125 107.306 181.034 124.615 181.034 124.615C180.963 124.858 180.871 125.095 180.76 125.322C179.394 128.322 174.975 130.187 172.177 131.096C170.781 131.553 169.801 131.767 169.801 131.767C169.801 131.767 159.863 113.353 157.767 108.399C155.67 103.445 155.533 103.73 156.026 100.808C156.893 95.6045 175.123 68.3696 179.483 65.3164C183.843 62.2633 201.669 57.4222 201.669 57.4222C202.542 56.3114 204.788 56.0144 204.788 56.0144L204.514 57.6182L204.401 58.2716C204.401 58.2716 207.716 67.2291 213.751 66.8192C219.786 66.4094 223.611 58.8893 223.611 58.8893L222.804 54.5947H222.934C222.934 54.5947 225.904 56.3411 226.576 57.9924C226.576 57.9924 241.616 65.257 244.188 66.8608C246.136 68.0488 248.476 72.8483 249.534 75.1115L246.338 117.143C244.984 114.173 240.558 105.786 238.141 101.206L234.63 120.665L236.513 141.247C236.513 141.247 236.252 141.574 235.723 142.109C233.306 144.538 225.281 151.292 210.775 151.25C196.733 151.197 187.609 146.683 184.455 144.823C183.641 144.342 183.219 144.039 183.219 144.039L183.629 138.539L184.324 138.574C184.324 138.574 189.136 142.727 190.674 143.225Z" fill="#EA4B98"/>
<path d="M267.858 66.4571C267.756 66.4573 267.657 66.4216 267.579 66.3561C267.493 66.286 267.436 66.1863 267.419 66.0764C267.403 65.9665 267.428 65.8544 267.49 65.7621L267.526 65.7086C267.571 65.654 267.627 65.6091 267.691 65.5765C267.754 65.5438 267.823 65.5241 267.894 65.5186C267.975 65.5183 268.054 65.5403 268.123 65.5822C268.193 65.6241 268.249 65.6843 268.286 65.7562C268.329 65.8246 268.352 65.9039 268.352 65.9848C268.352 66.0658 268.329 66.1451 268.286 66.2135C268.261 66.2532 268.231 66.2892 268.197 66.3205C268.153 66.3656 268.1 66.401 268.042 66.4245C267.984 66.448 267.921 66.4591 267.858 66.4571Z" fill="#29275F"/>
<path d="M261.918 42.3882C261.808 42.3875 261.702 42.3467 261.62 42.2734C261.538 42.2001 261.486 42.0994 261.473 41.9902C261.463 41.8725 261.498 41.7555 261.573 41.6636C261.647 41.5717 261.754 41.5121 261.871 41.4972C263.256 41.373 264.602 40.9688 265.827 40.3092C265.931 40.2568 266.052 40.2474 266.163 40.2829C266.274 40.3185 266.366 40.3961 266.421 40.4992C266.476 40.6017 266.488 40.7217 266.454 40.833C266.421 40.9443 266.345 41.0379 266.243 41.0932C264.917 41.8132 263.457 42.252 261.954 42.3822L261.918 42.3882Z" fill="#29275F"/>
<path d="M265.227 67.9305H265.025C264.846 67.9188 264.667 67.895 264.491 67.8592C264.325 67.8263 264.162 67.7806 264.003 67.7226C263.692 67.6095 263.398 67.4535 263.13 67.2593C263.088 67.2362 263.048 67.2083 263.011 67.1761C262.911 67.0989 262.821 67.0217 262.726 66.9385L262.655 66.8732L262.56 66.7781L262.495 66.7187C262.406 66.6178 262.346 66.5524 262.293 66.4811C262.162 66.3352 262.039 66.1825 261.924 66.0238L261.871 65.9525C261.806 65.8574 261.746 65.7565 261.687 65.6495L261.568 65.4476C261.408 65.1684 261.277 64.8536 261.146 64.5982L261.045 64.313C261.002 64.2222 260.965 64.129 260.932 64.0339C260.897 63.9269 260.861 63.82 260.832 63.719L260.766 63.5587C260.764 63.5389 260.764 63.519 260.766 63.4993C260.719 63.3745 260.683 63.2438 260.647 63.1132L260.612 62.9706C260.592 62.9124 260.576 62.8529 260.564 62.7924C260.564 62.7092 260.529 62.6439 260.517 62.5904C260.463 62.6855 260.41 62.7924 260.35 62.9112C260.334 62.9507 260.314 62.9885 260.291 63.0241C260.232 63.1429 260.178 63.2498 260.113 63.3626L260.059 63.4577C259.976 63.6002 259.911 63.7131 259.834 63.826C259.836 63.8437 259.836 63.8617 259.834 63.8794C259.805 63.9442 259.767 64.0043 259.721 64.0576C259.644 64.1824 259.537 64.3309 259.424 64.4912L259.364 64.5803C259.264 64.7254 259.155 64.8643 259.038 64.9961C258.502 65.6734 257.833 66.2334 257.071 66.6415L256.84 66.7603C256.632 66.8554 256.418 66.9348 256.198 66.9979C255.94 67.0683 255.675 67.1141 255.408 67.1345C255.157 67.1551 254.905 67.1551 254.654 67.1345C254.498 67.122 254.343 67.0982 254.191 67.0633C253.908 67.0033 253.635 66.9075 253.377 66.7781C253.246 66.7069 253.121 66.6356 253.009 66.5584C252.879 66.4674 252.756 66.3682 252.64 66.2614L252.605 66.2317C252.589 66.2193 252.575 66.2054 252.563 66.1901L252.521 66.1485L252.319 65.9347L252.254 65.8634C252.184 65.7803 252.118 65.693 252.058 65.602C252.009 65.5416 251.963 65.4782 251.922 65.4119L251.868 65.3347C251.827 65.2786 251.791 65.2189 251.761 65.1565C251.731 65.1031 251.684 65.0199 251.642 64.9308C251.579 64.8233 251.521 64.7122 251.47 64.5982C251.417 64.4734 251.357 64.3546 251.316 64.2239L251.286 64.1527C251.238 64.041 251.198 63.9259 251.167 63.8081C251.005 63.3695 250.878 62.9186 250.787 62.4598L250.734 62.1687C250.497 60.8737 250.385 59.5588 250.401 58.2424C250.401 58.0701 250.401 57.9751 250.401 57.9751C250.4 57.9138 250.412 57.8531 250.437 57.7969L257.511 41.6995C257.547 41.6149 257.609 41.5441 257.688 41.4971C257.767 41.4501 257.859 41.4295 257.951 41.4381H258.212H258.515L258.984 41.5807H259.275H259.649C259.941 41.5807 260.243 41.5807 260.552 41.5807C260.861 41.5807 261.087 41.5807 261.36 41.545C261.532 41.545 261.699 41.545 261.871 41.4916C263.265 41.3726 264.62 40.9682 265.851 40.3036C265.912 40.2741 265.979 40.2588 266.047 40.2588C266.115 40.2588 266.182 40.2741 266.243 40.3036C266.305 40.33 266.361 40.3705 266.405 40.422C266.45 40.4736 266.482 40.5347 266.498 40.6006L271.333 59.3353C271.361 59.4244 271.361 59.5195 271.333 59.6086C271.28 59.8343 271.084 60.559 270.739 61.4678C270.692 61.5905 270.644 61.7212 270.597 61.8598L270.502 62.1152C270.425 62.335 270.33 62.5667 270.229 62.7865C270.17 62.9581 270.099 63.1249 270.015 63.2854C269.806 63.7649 269.572 64.2329 269.314 64.6873L269.201 64.8714C269.153 64.9486 269.106 65.0258 269.064 65.1031C268.94 65.305 268.821 65.4892 268.696 65.6614C268.577 65.8368 268.448 66.0054 268.31 66.1663C268.3 66.1917 268.283 66.2141 268.262 66.2317L268.209 66.2792L267.983 66.5524C267.935 66.6049 267.883 66.6545 267.829 66.7009L267.704 66.8138V66.8494L267.627 66.9088C267.627 66.9088 267.627 66.9088 267.597 66.9088C267.545 66.9568 267.49 67.0005 267.431 67.0395L267.377 67.093C267.213 67.2213 267.041 67.3384 266.861 67.4434L266.789 67.485C266.699 67.5346 266.606 67.5782 266.51 67.6157L266.409 67.6573L266.273 67.7107C266.151 67.7565 266.026 67.7923 265.898 67.8176C265.813 67.8406 265.725 67.8565 265.637 67.8652C265.459 67.9186 265.334 67.9305 265.227 67.9305ZM263.255 66.2079C263.328 66.2781 263.405 66.3436 263.487 66.4039L263.534 66.4396L263.594 66.493C263.809 66.6436 264.042 66.7654 264.289 66.8554C264.407 66.8992 264.528 66.9349 264.651 66.9623C264.782 66.9623 264.93 67.0039 265.073 67.0157C265.215 67.0276 265.334 67.0157 265.465 67.0157C265.595 67.0157 265.589 67.0157 265.649 66.9801C265.74 66.9639 265.83 66.938 265.916 66.9029H265.993L266.142 66.8316C266.205 66.8125 266.265 66.7845 266.32 66.7484H266.368C266.504 66.6656 266.635 66.5744 266.76 66.4752L266.855 66.398C266.888 66.3761 266.917 66.3502 266.944 66.3208L267.009 66.2673L267.057 66.2138L267.169 66.1129L267.294 65.9822L267.466 65.7802C267.489 65.7496 267.515 65.7217 267.544 65.6971L267.609 65.6198C267.698 65.507 267.811 65.3525 267.924 65.1981C268.037 65.0437 268.144 64.8714 268.251 64.6991C268.292 64.6279 268.34 64.5447 268.393 64.4615L268.494 64.2952C268.74 63.8613 268.964 63.4153 269.165 62.9587C269.237 62.8165 269.298 62.6697 269.349 62.5192C269.456 62.2756 269.545 62.0677 269.617 61.8658L269.712 61.6044L269.848 61.2302C270.054 60.6614 270.23 60.0825 270.377 59.4957L265.72 41.4203C264.52 41.9708 263.234 42.3104 261.919 42.4241C261.734 42.4537 261.547 42.4735 261.36 42.4835C261.075 42.4835 260.802 42.5192 260.523 42.5251C260.243 42.5311 259.881 42.5251 259.572 42.5251C259.447 42.5251 259.317 42.5251 259.192 42.5251H258.865L258.331 42.4895H258.099L251.262 58.1117C251.262 58.1592 251.262 58.2245 251.262 58.3077C251.248 59.5606 251.355 60.8119 251.583 62.044L251.63 62.3291C251.716 62.7473 251.833 63.1584 251.981 63.5587V63.6181C252.001 63.7015 252.029 63.783 252.064 63.8616L252.1 63.9507C252.141 64.0695 252.189 64.1705 252.236 64.2774C252.275 64.3682 252.32 64.4556 252.373 64.5388C252.432 64.6457 252.462 64.711 252.504 64.7764L252.551 64.8595C252.576 64.9029 252.604 64.9446 252.634 64.9843C252.663 65.0349 252.697 65.0826 252.735 65.1268C252.773 65.1902 252.817 65.2498 252.866 65.305L252.931 65.3822L253.086 65.5426L253.127 65.5901C253.148 65.6006 253.166 65.6147 253.181 65.6317C253.272 65.7173 253.37 65.7967 253.472 65.8693C253.558 65.9276 253.647 65.9811 253.739 66.0297C253.928 66.1237 254.127 66.1935 254.333 66.2376C254.438 66.265 254.546 66.2809 254.654 66.2851C254.862 66.2999 255.07 66.2999 255.278 66.2851C255.479 66.2657 255.677 66.2279 255.872 66.1723C256.044 66.1227 256.213 66.0611 256.377 65.9881L256.584 65.8871C257.24 65.5278 257.816 65.0387 258.277 64.4497C258.374 64.3395 258.465 64.2246 258.551 64.1051L258.954 64.313L258.586 64.0576C258.717 63.8735 258.818 63.725 258.913 63.5765L258.984 63.5587C258.996 63.5166 259.014 63.4765 259.038 63.4399L259.103 63.3389C259.168 63.2498 259.222 63.1547 259.281 63.0656L259.335 62.9647L259.483 62.6855C259.5 62.6432 259.522 62.6033 259.548 62.5667C259.548 62.5667 259.548 62.531 259.578 62.5013C259.608 62.4716 259.655 62.341 259.703 62.2519C259.7 62.2302 259.7 62.2082 259.703 62.1865L259.739 62.1093C259.739 62.0321 259.804 61.9667 259.834 61.9014C259.923 61.6935 260.006 61.4856 260.065 61.3074L260.119 61.1708L260.19 60.9688C260.19 60.9213 260.22 60.8797 260.238 60.8441C260.278 60.7613 260.343 60.6933 260.424 60.6496C260.505 60.6059 260.598 60.5888 260.689 60.6005C260.779 60.611 260.863 60.6484 260.931 60.7078C260.999 60.7672 261.047 60.8458 261.069 60.9332C261.082 60.984 261.092 61.0355 261.099 61.0876C261.098 61.0995 261.098 61.1114 261.099 61.1233V61.1589C261.096 61.1746 261.096 61.1907 261.099 61.2064C261.099 61.2064 261.099 61.2599 261.099 61.2896C261.103 61.3588 261.103 61.4283 261.099 61.4975C261.129 61.6757 261.17 61.8776 261.218 62.0915V62.1271C261.232 62.1679 261.244 62.2096 261.253 62.2519C261.253 62.2875 261.253 62.3231 261.253 62.3588V62.4182C261.25 62.4637 261.25 62.5093 261.253 62.5548V62.638C261.251 62.6755 261.251 62.7133 261.253 62.7508L261.301 62.935C261.328 63.0418 261.362 63.1469 261.402 63.2498V63.3211V63.3508V63.4102C261.431 63.5111 261.461 63.6062 261.497 63.7072C261.532 63.8081 261.562 63.8794 261.598 63.9626L261.687 64.2061C261.799 64.4684 261.926 64.7242 262.067 64.9724L262.192 65.1922C262.239 65.2813 262.293 65.3585 262.34 65.4357V65.4713C262.363 65.4966 262.383 65.5245 262.4 65.5545C262.486 65.6748 262.579 65.7898 262.679 65.899L262.833 66.0713L262.881 66.1247L263.255 66.2079ZM267.609 65.6317H267.579H267.615H267.609Z" fill="#29275F"/>
<path d="M262.055 65.839C261.981 65.8381 261.908 65.8193 261.843 65.7841C261.778 65.7489 261.722 65.6985 261.681 65.637L261.592 65.4885C261.593 65.4747 261.593 65.4608 261.592 65.4469C261.594 65.4332 261.594 65.4191 261.592 65.4054C261.562 65.355 261.542 65.2993 261.533 65.2413C261.525 65.1833 261.528 65.1243 261.542 65.0675C261.571 64.9527 261.644 64.8542 261.746 64.7935C261.848 64.7329 261.969 64.7151 262.084 64.744C262.199 64.773 262.297 64.8464 262.358 64.948L262.417 65.0311L262.489 65.1559C262.544 65.2558 262.559 65.3732 262.53 65.4837C262.501 65.5943 262.431 65.6895 262.334 65.7499C262.253 65.8086 262.155 65.8398 262.055 65.839Z" fill="#29275F"/>
<path d="M261.497 64.7466C261.404 64.747 261.314 64.7186 261.239 64.6653C261.163 64.6121 261.106 64.5367 261.075 64.4496L260.968 64.1645C260.968 64.111 260.932 64.0576 260.909 64.0041C260.868 63.893 260.873 63.7702 260.922 63.6628C260.972 63.5553 261.062 63.4719 261.173 63.4309C261.284 63.3899 261.407 63.3948 261.514 63.4443C261.622 63.4939 261.705 63.5842 261.746 63.6952L261.806 63.8497L261.847 63.9566C261.85 63.9723 261.85 63.9884 261.847 64.0041L261.895 64.1764C261.913 64.2317 261.92 64.2902 261.916 64.3484C261.912 64.4066 261.896 64.4633 261.869 64.5153C261.843 64.5673 261.806 64.6135 261.761 64.6511C261.717 64.6888 261.665 64.7172 261.61 64.7347C261.573 64.7448 261.535 64.7488 261.497 64.7466Z" fill="#29275F"/>
<path d="M261.324 64.2834C261.233 64.2834 261.143 64.2548 261.069 64.2015C260.994 64.1483 260.938 64.0731 260.909 63.9864L260.79 63.6419C260.792 63.6182 260.792 63.5943 260.79 63.5706C260.787 63.533 260.787 63.4953 260.79 63.4577C260.787 63.3475 260.825 63.2402 260.897 63.1565C260.969 63.0727 261.069 63.0186 261.178 63.0046C261.288 62.9906 261.398 63.0176 261.489 63.0804C261.58 63.1433 261.644 63.2375 261.669 63.3449V63.4043C261.699 63.5053 261.728 63.6003 261.764 63.7013C261.787 63.758 261.799 63.819 261.798 63.8804C261.797 63.9417 261.783 64.0022 261.757 64.058C261.731 64.1138 261.695 64.1636 261.649 64.2045C261.603 64.2453 261.549 64.2762 261.491 64.2953C261.435 64.3028 261.378 64.2987 261.324 64.2834Z" fill="#29275F"/>
<path d="M274.363 99.0619C274.265 99.0615 274.169 99.0303 274.09 98.9728C274.043 98.9368 274.004 98.8918 273.974 98.8406C273.945 98.7893 273.926 98.7327 273.919 98.6741C273.912 98.6156 273.917 98.5561 273.933 98.4993C273.949 98.4425 273.976 98.3894 274.012 98.3432C276.062 95.6939 278.556 92.3022 278.818 91.4528C279.079 90.6033 278.515 88.6907 278.081 87.0869C277.838 86.1899 277.606 85.3464 277.487 84.6812C277.327 83.7426 275.776 80.2202 274.404 77.1195C272.795 73.4664 271.809 71.1795 271.773 70.5855C271.725 69.8252 271.369 68.8035 270.864 68.4234C270.802 68.3764 270.731 68.3421 270.656 68.3224L270.258 73.6684C270.252 73.7363 270.23 73.8019 270.195 73.8604C270.16 73.9189 270.112 73.9688 270.055 74.0063C269.998 74.0439 269.933 74.0683 269.866 74.0777C269.798 74.087 269.729 74.0811 269.664 74.0604C267.639 73.4308 265.162 72.8309 264.562 72.9675C264.42 72.9879 264.284 73.0416 264.166 73.1242C264.049 73.2067 263.952 73.3158 263.885 73.4427C263.843 73.5532 263.827 73.6721 263.84 73.7898C263.852 73.9074 263.892 74.0205 263.956 74.1198C264.005 74.1926 264.032 74.2785 264.032 74.3664C264.032 74.4542 264.005 74.5401 263.956 74.6129C263.903 74.6825 263.831 74.7352 263.749 74.7647C263.667 74.7943 263.578 74.7993 263.493 74.7792C262.899 74.6366 261.99 74.6129 261.788 74.9277C261.414 75.5217 261.384 76.2761 261.717 76.5909C261.78 76.6492 261.826 76.7249 261.847 76.8086C261.869 76.8922 261.865 76.9803 261.838 77.0622C261.81 77.144 261.759 77.216 261.691 77.2694C261.623 77.3229 261.541 77.3554 261.455 77.3631C261.348 77.3631 260.802 77.4581 260.772 77.9571C260.722 78.2198 260.77 78.4915 260.905 78.722C261.041 78.9524 261.255 79.126 261.509 79.2104C262.174 79.5074 264.811 80.7726 264.966 80.8499C265.066 80.898 265.144 80.9818 265.185 81.0847C265.227 81.1876 265.229 81.3023 265.19 81.4063C265.151 81.5103 265.075 81.5962 264.977 81.6471C264.878 81.698 264.764 81.7102 264.657 81.6815C263.354 81.364 262.03 81.1436 260.695 81.0221C260.576 81.1771 260.504 81.3625 260.487 81.5567C260.476 81.625 260.479 81.6949 260.498 81.7616C260.516 81.8283 260.549 81.8901 260.594 81.9428C260.986 82.2398 265.797 84.598 268.738 86.0177C268.791 86.0419 268.84 86.0767 268.879 86.1199C268.919 86.1632 268.95 86.214 268.97 86.2694C268.99 86.3248 268.999 86.3836 268.996 86.4424C268.992 86.5012 268.977 86.5588 268.951 86.6117C268.951 86.6473 267.496 89.944 268.791 92.8249C268.839 92.9337 268.843 93.0571 268.8 93.1683C268.758 93.2796 268.674 93.3696 268.565 93.4189C268.512 93.4436 268.453 93.4574 268.394 93.4594C268.335 93.4614 268.276 93.4516 268.221 93.4306C268.166 93.4096 268.115 93.3777 268.072 93.337C268.029 93.2962 267.995 93.2473 267.971 93.1932C266.783 90.538 267.597 87.6868 267.971 86.6592C266.112 85.7622 260.552 83.0655 260.035 82.6616C259.856 82.5093 259.721 82.3113 259.645 82.0886C259.568 81.8659 259.553 81.6267 259.602 81.3963C259.626 81.1487 259.71 80.9107 259.848 80.7035C259.986 80.4963 260.173 80.3262 260.392 80.2083C260.755 80.1445 261.127 80.1445 261.491 80.2083L261.128 80.042C260.712 79.881 260.362 79.5852 260.134 79.2019C259.906 78.8186 259.813 78.3699 259.869 77.9274C259.88 77.6616 259.965 77.4041 260.114 77.1838C260.263 76.9635 260.47 76.789 260.713 76.68C260.592 76.3125 260.558 75.9223 260.611 75.5394C260.665 75.1564 260.805 74.7907 261.022 74.4703C261.431 73.8288 262.311 73.7634 262.958 73.811C262.941 73.5692 262.981 73.3269 263.077 73.1041C263.198 72.8476 263.379 72.6238 263.604 72.4512C263.829 72.2787 264.092 72.1624 264.372 72.1121C265.31 71.8983 268.126 72.7061 269.415 73.0625L269.795 67.865C269.802 67.7733 269.838 67.686 269.896 67.6149C269.954 67.5438 270.033 67.4922 270.122 67.467C270.336 67.4057 270.562 67.3947 270.781 67.4348C271.001 67.475 271.208 67.5653 271.387 67.6987C272.183 68.2927 272.605 69.5698 272.664 70.538C272.664 71.0192 274.095 74.1971 275.224 76.7513C276.679 80.0598 278.194 83.4753 278.366 84.5267C278.473 85.1207 278.699 85.9761 278.96 86.8493C279.471 88.7382 280 90.6865 279.685 91.7082C279.323 92.8962 276.121 97.1195 274.731 98.8837C274.689 98.941 274.633 98.9872 274.569 99.0183C274.505 99.0493 274.434 99.0643 274.363 99.0619Z" fill="#29275F"/>
<path d="M260.968 63.0715C260.871 63.0711 260.777 63.039 260.699 62.98C260.622 62.921 260.566 62.8384 260.54 62.7448C260.528 62.7039 260.518 62.6622 260.511 62.62L260.463 62.3943C260.44 62.2834 260.46 62.1678 260.52 62.0715C260.579 61.9752 260.674 61.9057 260.784 61.8775C260.893 61.8472 261.01 61.8598 261.111 61.9128C261.211 61.9658 261.288 62.0552 261.324 62.1626L261.36 62.3111V62.3705V62.424V62.519C261.387 62.6332 261.369 62.7534 261.309 62.8543C261.249 62.9552 261.153 63.0288 261.039 63.0596L260.968 63.0715Z" fill="#29275F"/>
<path d="M259.911 63.2196C259.831 63.2202 259.754 63.1997 259.685 63.1602C259.584 63.1038 259.509 63.0098 259.477 62.8986C259.444 62.7874 259.457 62.6679 259.513 62.5662V62.5127C259.535 62.4595 259.561 62.4079 259.59 62.3583C259.625 62.287 259.655 62.2157 259.691 62.1563C259.747 62.0552 259.841 61.9803 259.952 61.9481C260.064 61.9158 260.183 61.9287 260.285 61.9841C260.387 62.0395 260.463 62.1327 260.498 62.2436C260.532 62.3546 260.522 62.4746 260.469 62.5781L260.38 62.7503L260.309 62.8929C260.302 62.9188 260.289 62.943 260.273 62.9642L260.237 63.0236C260.201 63.0787 260.153 63.1249 260.096 63.1588C260.04 63.1928 259.976 63.2135 259.911 63.2196Z" fill="#29275F"/>
<path d="M259.388 64.1526C259.27 64.1526 259.156 64.1057 259.073 64.0222C258.989 63.9386 258.942 63.8253 258.942 63.7071C258.934 63.66 258.934 63.6117 258.942 63.5646C258.957 63.5208 258.977 63.479 259.002 63.4398C259.058 63.3389 259.151 63.2627 259.261 63.2265C259.371 63.1902 259.49 63.1964 259.596 63.2438C259.696 63.2873 259.777 63.3671 259.821 63.4674C259.865 63.5677 259.869 63.6809 259.833 63.7844C259.809 63.8374 259.781 63.8889 259.75 63.9388L259.709 63.9982C259.668 64.0441 259.619 64.0814 259.564 64.1079C259.509 64.1344 259.449 64.1496 259.388 64.1526Z" fill="#29275F"/>
<path d="M260.172 42.4895H259.626C259.499 42.4987 259.372 42.4987 259.246 42.4895H258.919L258.384 42.4539H258.135L257.873 42.4242C257.803 42.4183 257.735 42.3959 257.675 42.3587C257.615 42.3215 257.565 42.2707 257.529 42.2103C257.497 42.1489 257.48 42.0807 257.48 42.0113C257.48 41.942 257.497 41.8737 257.529 41.8123L261.61 32.0529C261.636 31.9912 261.676 31.9362 261.726 31.8919C261.776 31.8477 261.836 31.8154 261.901 31.7975L264.093 31.2035C264.151 31.1867 264.213 31.1823 264.273 31.1906C264.333 31.1988 264.391 31.2195 264.443 31.2513C264.495 31.2832 264.54 31.3254 264.575 31.3755C264.609 31.4255 264.633 31.4823 264.645 31.5421L266.546 40.6956C266.562 40.7689 266.559 40.845 266.537 40.9168C266.515 40.9885 266.475 41.0535 266.421 41.1055C266.382 41.1418 266.338 41.1718 266.29 41.1946L266.195 41.2302C264.87 41.8872 263.429 42.2787 261.954 42.3826C261.767 42.4118 261.579 42.4316 261.39 42.442C261.105 42.442 260.831 42.4776 260.552 42.4836L260.172 42.4895ZM258.556 41.5391H258.978H259.269H259.632C259.935 41.5391 260.226 41.5391 260.546 41.5391C260.867 41.5391 261.081 41.5391 261.354 41.5035C261.526 41.5035 261.693 41.5035 261.865 41.45C263.157 41.331 264.417 40.9788 265.583 40.4105L263.849 32.0648L262.322 32.4865L258.556 41.5391Z" fill="#29275F"/>
<path d="M254.232 67.1225H254.143C253.853 67.0657 253.573 66.9677 253.311 66.8314C253.237 66.7944 253.175 66.7377 253.131 66.6675C253.087 66.5973 253.063 66.5163 253.062 66.4335C253.064 66.3636 253.08 66.2948 253.11 66.2315C253.164 66.1285 253.256 66.0505 253.367 66.014C253.478 65.9774 253.598 65.9851 253.704 66.0355C253.892 66.1313 254.091 66.2031 254.298 66.2493C254.398 66.2761 254.486 66.3371 254.546 66.4218C254.606 66.5064 254.635 66.6094 254.627 66.713C254.619 66.8166 254.575 66.9142 254.503 66.989C254.431 67.0637 254.335 67.111 254.232 67.1225Z" fill="#29275F"/>
<path d="M250.074 238.468C249.646 238.468 249.207 238.468 248.773 238.468C248.126 238.468 247.484 238.396 246.86 238.337L246.581 238.301C246.462 238.296 246.343 238.282 246.225 238.26C245.684 238.206 245.114 238.129 244.508 238.022L243.914 237.909L243.665 237.868L243.469 237.832C243.19 237.779 242.934 237.719 242.685 237.66L242.31 237.577C241.407 237.369 240.475 237.113 239.56 236.816L238.966 236.626L238.449 236.436L238.051 236.294H238.004L237.855 236.234L237.463 236.074C237.384 236.039 237.317 235.981 237.269 235.908C237.222 235.836 237.196 235.751 237.196 235.664L237.6 230.092C237.558 229.498 237.683 227.782 238.063 222.549C238.39 218.034 238.835 212.017 239.287 205.952L239.851 198.367C239.853 198.308 239.866 198.25 239.89 198.197C239.915 198.143 239.949 198.095 239.992 198.055C240.036 198.015 240.086 197.984 240.142 197.964C240.197 197.945 240.256 197.936 240.315 197.939C240.371 197.939 240.426 197.95 240.478 197.972C240.53 197.993 240.577 198.025 240.617 198.064C240.657 198.104 240.688 198.151 240.71 198.203C240.731 198.255 240.742 198.311 240.742 198.367V198.397L240.178 205.982C239.328 217.41 238.449 229.231 238.455 230.027C238.458 230.059 238.458 230.09 238.455 230.122L238.075 235.337L238.188 235.385H238.277L238.402 235.438L238.752 235.563L239.228 235.735L239.822 235.931C240.718 236.222 241.604 236.472 242.518 236.674C242.643 236.71 242.756 236.733 242.869 236.757L243.617 236.917L243.819 236.953L244.063 236.995L244.657 237.107C245.251 237.208 245.791 237.286 246.344 237.345L246.647 237.381L246.926 237.41C247.549 237.476 248.173 237.517 248.803 237.541C249.539 237.577 250.276 237.583 250.983 237.541H251.577C252.171 237.541 252.812 237.47 253.43 237.393L253.852 237.345C254.125 237.315 254.398 237.28 254.672 237.226C254.945 237.173 255.313 237.119 255.634 237.06C255.955 237.001 256.275 236.929 256.596 236.858L257.267 236.692L257.671 231.013C257.683 230.896 257.739 230.789 257.827 230.712C257.915 230.635 258.029 230.594 258.146 230.597C258.264 230.606 258.372 230.661 258.449 230.75C258.526 230.839 258.564 230.955 258.556 231.072L258.135 237.078C258.126 237.177 258.086 237.27 258.019 237.344C257.953 237.418 257.864 237.469 257.766 237.488L256.798 237.725C256.465 237.802 256.133 237.874 255.8 237.933C255.467 237.993 255.147 238.058 254.82 238.105C254.493 238.153 254.226 238.195 253.965 238.23L253.525 238.278C252.895 238.355 252.248 238.408 251.618 238.432H251.024C250.71 238.462 250.395 238.468 250.074 238.468ZM238.141 235.539L238.081 235.801L238.141 235.652V235.539Z" fill="#29275F"/>
<path d="M246.314 117.565H246.278C246.22 117.561 246.163 117.545 246.11 117.518C246.058 117.491 246.011 117.455 245.973 117.41C245.935 117.365 245.906 117.313 245.888 117.257C245.87 117.201 245.864 117.143 245.868 117.084L250.341 58.278C250.356 58.1651 250.411 58.0613 250.496 57.9859C250.581 57.9105 250.691 57.8687 250.805 57.8682C250.921 57.8728 251.03 57.9226 251.11 58.0069C251.19 58.0913 251.234 58.2035 251.232 58.3196C251.218 59.5764 251.325 60.8317 251.553 62.0677L251.601 62.3529C251.686 62.7711 251.803 63.1822 251.951 63.5824V63.6418C251.972 63.7253 251.999 63.8068 252.034 63.8854L252.07 63.9745C252.111 64.0933 252.159 64.1943 252.206 64.3012C252.254 64.4081 252.296 64.4913 252.337 64.5685C252.379 64.6457 252.432 64.7348 252.474 64.8001L252.521 64.8833C252.547 64.9216 252.571 64.9612 252.593 65.0021L252.694 65.1328C252.731 65.1961 252.775 65.2558 252.824 65.311L252.89 65.3882L253.044 65.5486L253.097 65.602H253.133C253.224 65.6927 253.323 65.7743 253.43 65.8456C253.516 65.9038 253.605 65.9573 253.697 66.006C253.886 66.0997 254.086 66.1696 254.291 66.2139C254.4 66.2405 254.512 66.2564 254.624 66.2614C254.832 66.2761 255.04 66.2761 255.248 66.2614C255.449 66.242 255.648 66.2042 255.842 66.1485C256.014 66.0989 256.183 66.0374 256.347 65.9644L256.555 65.8634C257.211 65.5041 257.787 65.015 258.247 64.4259C258.344 64.3158 258.436 64.2008 258.521 64.0814L258.925 64.2893L258.556 64.0339C258.687 63.8497 258.788 63.7012 258.883 63.5527L258.984 63.5587C258.993 63.525 259.007 63.493 259.026 63.4636L259.073 63.4042L259.109 63.3448C259.174 63.2557 259.228 63.1607 259.287 63.0716L259.34 62.9706L259.489 62.6914C259.505 62.6492 259.527 62.6093 259.554 62.5726C259.552 62.5609 259.552 62.5488 259.554 62.537C259.602 62.4241 259.655 62.3172 259.703 62.2281V62.1806C259.739 62.1116 259.771 62.0402 259.798 61.9668C259.911 61.6995 259.994 61.4916 260.053 61.3193L260.107 61.2064C260.103 61.1889 260.103 61.1706 260.107 61.153L260.178 60.951C260.178 60.9035 260.208 60.8619 260.225 60.8263C260.266 60.7435 260.331 60.6755 260.412 60.6318C260.493 60.5881 260.586 60.571 260.677 60.5827C260.766 60.5932 260.851 60.6306 260.919 60.69C260.987 60.7494 261.035 60.828 261.057 60.9154C261.07 60.9643 261.08 61.0138 261.087 61.0639C261.089 61.0896 261.089 61.1154 261.087 61.1411V61.248V61.3965V61.4619C261.116 61.6341 261.158 61.8361 261.206 62.0559V62.0915C261.222 62.1417 261.234 62.1934 261.241 62.2459C261.244 62.2815 261.244 62.3173 261.241 62.3529L261.301 62.6023C261.298 62.6399 261.298 62.6776 261.301 62.7152L261.348 62.8993C261.376 63.0062 261.409 63.1113 261.449 63.2142V63.2854C261.449 63.2854 261.449 63.2854 261.449 63.3211C261.491 63.4636 261.52 63.5527 261.556 63.6478L261.752 64.1705C261.864 64.4328 261.991 64.6886 262.132 64.9368L262.18 65.0318L262.239 65.1268C262.304 65.2456 262.358 65.3229 262.405 65.4001V65.4357C262.429 65.4609 262.448 65.4889 262.465 65.5189C262.551 65.6392 262.644 65.7542 262.744 65.8634C262.803 65.9406 262.851 65.9941 262.893 66.0416L262.946 66.0891L263.047 66.1901C263.12 66.2603 263.197 66.3258 263.279 66.3861L263.326 66.4218L263.386 66.4752C263.6 66.6258 263.834 66.7476 264.081 66.8376C264.199 66.8814 264.32 66.9171 264.443 66.9445C264.574 66.9445 264.722 66.992 264.865 67.0039C264.989 67.0126 265.114 67.0126 265.239 67.0039C265.307 66.9959 265.374 66.984 265.441 66.9682C265.532 66.952 265.622 66.9262 265.708 66.891H265.785L265.934 66.8197C266 66.7961 266.063 66.7663 266.124 66.7306C266.269 66.65 266.406 66.5566 266.534 66.4515H266.569C266.599 66.4171 266.633 66.3871 266.67 66.3624C266.689 66.3518 266.705 66.3377 266.718 66.3208L266.783 66.2673H266.813C266.859 66.2288 266.903 66.1872 266.944 66.1426L267.086 65.9941L267.258 65.7921L267.615 66.0654L267.306 65.7446C267.325 65.7099 267.352 65.6796 267.383 65.6555C267.5 65.5151 267.609 65.3684 267.71 65.2159C267.829 65.0496 267.936 64.8833 268.042 64.711C268.084 64.6398 268.132 64.5566 268.185 64.4734L268.286 64.3071C268.532 63.8732 268.756 63.4272 268.957 62.9706C269.028 62.8284 269.09 62.6816 269.141 62.5311C269.248 62.2875 269.337 62.0796 269.409 61.8777C269.48 61.6757 269.575 61.444 269.634 61.2837C269.849 60.7 270.031 60.1051 270.181 59.5017C270.204 59.3908 270.268 59.2928 270.361 59.2277C270.454 59.1626 270.568 59.1352 270.68 59.1512C270.792 59.1674 270.894 59.2253 270.966 59.3133C271.037 59.4014 271.073 59.5132 271.066 59.6264L270.27 73.6864C270.264 73.7531 270.244 73.8179 270.212 73.8763C270.179 73.9347 270.134 73.9854 270.08 74.025C270.024 74.0626 269.96 74.0869 269.893 74.0962C269.826 74.1054 269.758 74.0994 269.694 74.0784C267.668 73.4488 265.191 72.8488 264.591 72.9855C264.449 73.0059 264.314 73.0596 264.196 73.1421C264.078 73.2247 263.982 73.3338 263.914 73.4607C263.872 73.5712 263.857 73.6901 263.869 73.8077C263.881 73.9254 263.921 74.0384 263.985 74.1378C264.035 74.2106 264.061 74.2965 264.061 74.3843C264.061 74.4722 264.035 74.5581 263.985 74.6308C263.933 74.7004 263.861 74.7532 263.778 74.7827C263.696 74.8122 263.607 74.8173 263.522 74.7972C262.928 74.6546 262.019 74.6308 261.817 74.9457C261.443 75.5397 261.413 76.294 261.746 76.6089C261.81 76.6672 261.855 76.7429 261.877 76.8265C261.898 76.9102 261.895 76.9983 261.867 77.0802C261.839 77.162 261.789 77.234 261.721 77.2874C261.653 77.3408 261.571 77.3734 261.485 77.3811C261.378 77.3811 260.831 77.4761 260.802 77.9751C260.752 78.2377 260.799 78.5095 260.935 78.7399C261.07 78.9704 261.285 79.1439 261.538 79.2284C262.203 79.5254 264.841 80.7906 264.995 80.8678C265.095 80.916 265.174 80.9998 265.215 81.1027C265.257 81.2056 265.258 81.3203 265.219 81.4243C265.181 81.5283 265.105 81.6142 265.006 81.665C264.908 81.7159 264.794 81.7282 264.686 81.6994C263.384 81.382 262.06 81.1616 260.724 81.0401C260.606 81.1951 260.534 81.3805 260.517 81.5747C260.505 81.643 260.509 81.7129 260.527 81.7796C260.546 81.8463 260.579 81.9081 260.623 81.9608C261.015 82.2578 265.827 84.616 268.767 86.0356C268.821 86.0599 268.869 86.0946 268.909 86.1379C268.949 86.1811 268.98 86.232 269 86.2874C269.02 86.3428 269.028 86.4016 269.025 86.4604C269.022 86.5192 269.007 86.5768 268.981 86.6296C268.981 86.6653 267.526 89.962 268.821 92.8429C268.85 92.9122 268.862 92.9876 268.856 93.0627L267.799 107.319C267.795 107.377 267.779 107.434 267.753 107.487C267.726 107.539 267.69 107.586 267.645 107.624C267.601 107.662 267.549 107.692 267.494 107.71C267.438 107.729 267.379 107.736 267.321 107.731C267.262 107.727 267.205 107.711 267.153 107.685C267.1 107.659 267.054 107.622 267.015 107.578C266.977 107.534 266.948 107.482 266.929 107.426C266.911 107.371 266.904 107.312 266.908 107.253L267.959 93.1102C266.837 90.4847 267.639 87.6988 268.013 86.6772C266.154 85.7802 260.594 83.0835 260.077 82.6795C259.897 82.5273 259.762 82.3293 259.686 82.1066C259.61 81.8839 259.595 81.6447 259.643 81.4143C259.667 81.1666 259.752 80.9287 259.89 80.7215C260.028 80.5143 260.214 80.3442 260.433 80.2263C260.797 80.1625 261.169 80.1625 261.532 80.2263L261.17 80.06C260.754 79.899 260.404 79.6032 260.176 79.2199C259.947 78.8366 259.854 78.3879 259.911 77.9454C259.921 77.6796 260.006 77.4221 260.155 77.2018C260.304 76.9815 260.512 76.807 260.754 76.698C260.634 76.3305 260.599 75.9403 260.653 75.5573C260.706 75.1744 260.846 74.8087 261.063 74.4883C261.473 73.8468 262.352 73.7814 262.999 73.8289C262.982 73.5872 263.023 73.3449 263.118 73.1221C263.24 72.8656 263.42 72.6418 263.646 72.4692C263.871 72.2967 264.134 72.1804 264.413 72.1301C265.352 71.9163 268.155 72.7241 269.444 73.0805L270.199 62.9825C270.155 63.0986 270.103 63.2117 270.044 63.3211C269.836 63.8006 269.602 64.2685 269.343 64.7229L269.23 64.9071C269.183 64.9843 269.135 65.0615 269.094 65.1387C268.969 65.3407 268.85 65.5248 268.726 65.6971C268.601 65.8693 268.482 66.0357 268.357 66.196L268.292 66.2673C268.292 66.2673 268.292 66.2673 268.256 66.303L268.215 66.3445L268.013 66.5881C267.964 66.6406 267.913 66.6902 267.858 66.7366C267.807 66.7943 267.752 66.8479 267.692 66.897L267.633 66.9445C267.633 66.9445 267.633 66.9445 267.603 66.9445L267.508 67.0276C267.459 67.0751 267.405 67.1169 267.348 67.1524C267.195 67.2729 267.034 67.382 266.866 67.4791L266.807 67.5147C266.714 67.5686 266.617 67.6143 266.516 67.6513L266.415 67.6929L266.278 67.7464C266.157 67.7922 266.032 67.828 265.904 67.8533C265.818 67.8763 265.731 67.8922 265.643 67.9008C265.455 67.9177 265.266 67.9177 265.078 67.9008C264.893 67.8888 264.708 67.863 264.526 67.8236C264.36 67.7907 264.198 67.745 264.039 67.687C263.728 67.5739 263.434 67.4179 263.166 67.2237C263.123 67.2006 263.083 67.1727 263.047 67.1405L262.774 66.9148L262.714 66.8613L262.596 66.7425L262.53 66.6831C262.453 66.6 262.376 66.5109 262.31 66.4277C262.245 66.3445 262.073 66.1485 261.96 65.9881L261.906 65.9169C261.841 65.8218 261.782 65.7208 261.722 65.6139L261.651 65.4951L261.99 65.1862L261.604 65.406C261.443 65.1328 261.312 64.8417 261.182 64.5625L261.152 64.4913C261.139 64.4691 261.129 64.4451 261.122 64.42L260.968 63.9982L260.849 63.6478C260.852 63.6201 260.852 63.5923 260.849 63.5646C260.847 63.5449 260.847 63.525 260.849 63.5052C260.802 63.3805 260.766 63.2498 260.73 63.1191L260.695 62.9766C260.675 62.9184 260.659 62.8588 260.647 62.7984L260.6 62.5964C260.546 62.6855 260.499 62.7924 260.445 62.8993C260.438 62.9252 260.426 62.9495 260.41 62.9706L260.38 63.0241C260.315 63.1488 260.261 63.2557 260.196 63.3686L260.142 63.4636C260.071 63.5943 260.006 63.6953 259.94 63.7963C259.925 63.8253 259.907 63.853 259.887 63.8794C259.854 63.955 259.81 64.0252 259.756 64.0873C259.685 64.2002 259.578 64.3487 259.465 64.5091L259.406 64.5982C259.305 64.7432 259.196 64.8821 259.079 65.014C258.543 65.6912 257.874 66.2513 257.113 66.6594L256.881 66.7782C256.674 66.8732 256.459 66.9526 256.24 67.0158C255.981 67.0862 255.717 67.1319 255.45 67.1524C255.199 67.1729 254.946 67.1729 254.695 67.1524C254.539 67.1398 254.385 67.116 254.232 67.0811C253.948 67.0262 253.674 66.9301 253.418 66.796C253.288 66.7247 253.163 66.6534 253.05 66.5762C252.925 66.491 252.808 66.3957 252.699 66.2911C252.666 66.2722 252.636 66.2481 252.61 66.2198L252.575 66.1842L252.373 65.9703L252.307 65.899C252.237 65.8159 252.171 65.7286 252.111 65.6377C252.076 65.5994 252.044 65.5576 252.016 65.5129C251.987 65.4791 251.963 65.441 251.945 65.4001L251.909 65.3466C251.871 65.2994 251.839 65.2475 251.814 65.1922C251.785 65.1387 251.737 65.0556 251.696 64.9724C251.638 64.8767 251.586 64.7775 251.541 64.6754C251.47 64.5091 251.41 64.3903 251.369 64.2596L251.339 64.1883C251.291 64.0767 251.251 63.9615 251.22 63.8438C251.125 63.5976 251.046 63.3456 250.983 63.0894L246.872 117.143C246.871 117.211 246.854 117.277 246.824 117.337C246.793 117.397 246.749 117.449 246.695 117.49C246.642 117.53 246.579 117.558 246.513 117.571C246.447 117.584 246.379 117.582 246.314 117.565ZM259.299 63.5646L259.394 63.6121L259.222 63.4874L259.299 63.5646Z" fill="#29275F"/>
<path d="M244.586 237.998H244.502L244.253 237.957L243.897 237.891C243.794 237.872 243.702 237.817 243.636 237.737C243.57 237.657 243.534 237.556 243.534 237.452C243.534 237.386 243.549 237.321 243.576 237.262C243.604 237.202 243.644 237.15 243.695 237.107C243.745 237.065 243.804 237.034 243.868 237.018C243.932 237.001 243.998 236.999 244.063 237.012L244.657 237.119C244.759 237.14 244.85 237.194 244.916 237.275C244.982 237.355 245.018 237.455 245.019 237.559C245.022 237.586 245.022 237.614 245.019 237.642C245 237.743 244.946 237.833 244.867 237.898C244.787 237.963 244.688 237.999 244.586 237.998Z" fill="#29275F"/>
<path d="M243.98 237.891H243.89L243.689 237.85L243.433 237.802C243.325 237.773 243.233 237.704 243.173 237.609C243.114 237.515 243.092 237.402 243.112 237.292C243.132 237.182 243.193 237.084 243.282 237.017C243.371 236.949 243.482 236.918 243.593 236.929L243.807 236.964L244.051 237.006C244.155 237.023 244.25 237.076 244.319 237.157C244.387 237.238 244.425 237.34 244.425 237.446C244.425 237.511 244.411 237.576 244.383 237.636C244.356 237.695 244.315 237.748 244.265 237.79C244.184 237.855 244.083 237.89 243.98 237.891Z" fill="#29275F"/>
<path d="M239.061 236.608C239.014 236.617 238.966 236.617 238.919 236.608C238.556 236.484 238.253 236.377 238.016 236.282C237.96 236.26 237.908 236.228 237.865 236.186C237.822 236.144 237.787 236.094 237.764 236.038C237.741 235.983 237.729 235.923 237.729 235.863C237.73 235.802 237.742 235.743 237.766 235.688C237.786 235.63 237.817 235.577 237.858 235.532C237.9 235.486 237.949 235.45 238.005 235.425C238.061 235.4 238.121 235.387 238.182 235.386C238.243 235.385 238.304 235.397 238.36 235.42L238.764 235.569L239.239 235.741C239.34 235.775 239.425 235.844 239.479 235.935C239.533 236.026 239.553 236.134 239.535 236.238C239.517 236.343 239.463 236.437 239.381 236.505C239.3 236.573 239.197 236.61 239.091 236.608H239.061Z" fill="#29275F"/>
<path d="M248.553 261.479H247.918C247.526 261.479 247.14 261.479 246.76 261.432C246.564 261.432 246.362 261.432 246.166 261.39C245.987 261.388 245.808 261.374 245.631 261.349C245.251 261.349 244.888 261.278 244.538 261.236C243.944 261.159 243.291 261.064 242.578 260.945C242.394 260.909 242.215 260.88 242.037 260.838C241.58 260.749 241.134 260.654 240.713 260.553C240.463 260.499 240.214 260.44 239.982 260.375L239.554 260.262C239.02 260.119 238.503 259.965 238.034 259.81L237.517 259.644L237.422 259.608C236.828 259.4 236.424 259.24 236.18 259.145L236.27 258.694L236.109 259.109C236.084 259.102 236.061 259.092 236.038 259.08L235.943 259.038C235.854 259.004 235.778 258.942 235.727 258.862C235.676 258.782 235.651 258.688 235.658 258.593L237.161 235.587C237.166 235.516 237.189 235.447 237.226 235.386C237.263 235.326 237.314 235.274 237.374 235.237C237.435 235.198 237.504 235.175 237.576 235.17C237.647 235.165 237.719 235.178 237.784 235.207L238.182 235.373H238.271C238.32 235.384 238.367 235.404 238.408 235.433C238.628 235.516 238.901 235.617 239.216 235.724L239.81 235.92C240.707 236.211 241.592 236.46 242.507 236.662C242.631 236.698 242.744 236.722 242.857 236.745L243.605 236.906L244.069 236.995L244.401 237.054L244.663 237.096C245.257 237.197 245.797 237.274 246.35 237.333L246.653 237.369L246.932 237.399C247.556 237.464 248.179 237.506 248.809 237.529C249.545 237.529 250.276 237.565 250.989 237.529H251.583C252.177 237.529 252.818 237.458 253.436 237.381L253.858 237.333C254.131 237.304 254.404 237.268 254.678 237.215C254.951 237.161 255.319 237.108 255.64 237.048C255.961 236.989 256.281 236.918 256.602 236.846C256.923 236.775 257.25 236.692 257.57 236.603C257.639 236.584 257.711 236.582 257.78 236.598C257.85 236.613 257.914 236.646 257.968 236.692C258.024 236.736 258.068 236.794 258.097 236.859C258.126 236.924 258.139 236.995 258.135 237.066L256.608 260.078C256.602 260.17 256.568 260.258 256.509 260.329C256.45 260.401 256.371 260.452 256.281 260.476C253.761 261.15 251.162 261.488 248.553 261.479ZM236.561 258.325C236.763 258.403 237.155 258.563 237.707 258.753L237.796 258.783L238.295 258.949C238.764 259.103 239.257 259.252 239.78 259.389L240.208 259.501C240.433 259.567 240.665 259.62 240.909 259.674C241.324 259.775 241.758 259.87 242.21 259.953C242.388 259.994 242.56 260.024 242.726 260.054C243.421 260.173 244.045 260.268 244.639 260.339L245.684 260.452C245.88 260.452 246.047 260.488 246.213 260.493L246.807 260.529C247.187 260.529 247.561 260.571 247.942 260.577C250.577 260.639 253.209 260.343 255.765 259.697L257.202 237.601L256.804 237.696C256.471 237.773 256.139 237.844 255.806 237.904C255.474 237.963 255.153 238.028 254.826 238.076C254.499 238.123 254.232 238.165 253.971 238.201L253.531 238.248C252.902 238.325 252.254 238.379 251.624 238.403H251.03C250.294 238.403 249.539 238.403 248.779 238.403C248.132 238.403 247.49 238.331 246.866 238.272L246.587 238.236C246.468 238.231 246.349 238.217 246.231 238.195C245.69 238.141 245.12 238.064 244.514 237.957L244.259 237.915L243.902 237.85L243.695 237.809L243.439 237.761C243.178 237.714 242.922 237.654 242.673 237.595L242.299 237.512C241.396 237.304 240.463 237.048 239.548 236.751L238.954 236.561C238.562 236.425 238.259 236.318 238.022 236.223L236.561 258.325ZM238.141 235.539L238.081 235.801L238.141 235.652V235.539Z" fill="#29275F"/>
<path d="M254.826 279.382C254.708 279.373 254.599 279.318 254.521 279.229C254.444 279.141 254.404 279.025 254.41 278.907L255.004 270.876L255.735 260.636C253.19 261.25 250.576 261.53 247.959 261.467C247.567 261.467 247.181 261.467 246.801 261.42C246.605 261.42 246.403 261.42 246.207 261.378C246.028 261.375 245.85 261.361 245.673 261.336C245.292 261.336 244.93 261.265 244.58 261.224C243.855 261.134 243.213 261.039 242.619 260.927C242.435 260.927 242.257 260.867 242.079 260.826C241.622 260.736 241.176 260.641 240.754 260.54C240.505 260.487 240.255 260.428 240.024 260.362L239.596 260.249C239.061 260.107 238.545 259.952 238.075 259.798L237.559 259.632L237.463 259.596L236.543 259.257L235.236 277.535C235.227 277.652 235.172 277.762 235.083 277.84C234.994 277.917 234.879 277.957 234.761 277.951C234.644 277.941 234.535 277.886 234.458 277.797C234.381 277.708 234.343 277.593 234.351 277.475L235.699 258.58C235.703 258.511 235.723 258.443 235.758 258.383C235.793 258.323 235.842 258.273 235.901 258.236C235.96 258.199 236.026 258.176 236.095 258.168C236.164 258.161 236.234 258.17 236.299 258.194L236.477 258.271C236.516 258.284 236.554 258.3 236.59 258.319C236.786 258.396 237.184 258.557 237.778 258.753L237.867 258.782L238.366 258.949C238.836 259.103 239.329 259.251 239.851 259.388L240.279 259.501C240.505 259.566 240.736 259.62 240.98 259.673C241.396 259.774 241.829 259.869 242.281 259.952C242.459 259.994 242.631 260.024 242.798 260.053C243.392 260.16 243.986 260.249 244.71 260.339L245.756 260.451C245.952 260.451 246.118 260.487 246.284 260.493L246.878 260.529C247.259 260.529 247.633 260.57 248.013 260.576C250.755 260.642 253.493 260.318 256.145 259.614C256.213 259.596 256.285 259.595 256.355 259.61C256.424 259.626 256.488 259.657 256.543 259.703C256.598 259.747 256.642 259.805 256.67 259.87C256.698 259.935 256.709 260.006 256.703 260.077L255.349 278.966C255.346 279.029 255.329 279.091 255.3 279.147C255.271 279.203 255.231 279.253 255.181 279.292C255.132 279.331 255.075 279.36 255.013 279.375C254.952 279.391 254.888 279.393 254.826 279.382Z" fill="#29275F"/>
<path d="M213.341 67.2771C207.33 67.2771 204.116 58.7948 203.98 58.4265C203.959 58.3507 203.959 58.2707 203.98 58.1948L204.093 57.5414C204.104 57.4808 204.128 57.4232 204.163 57.3722C204.198 57.3212 204.243 57.278 204.296 57.2451C204.348 57.2123 204.407 57.1905 204.468 57.1812C204.529 57.1719 204.591 57.1752 204.651 57.191C204.698 57.191 209.403 58.4681 213.65 55.9198C216.727 54.0725 218.824 50.7164 219.887 45.9287C219.886 45.9149 219.886 45.901 219.887 45.8872C220.107 45.2485 220.274 44.5929 220.386 43.927C220.402 43.823 220.454 43.7282 220.533 43.6595C220.613 43.5909 220.714 43.553 220.82 43.5527C220.923 43.5525 221.023 43.5887 221.102 43.655C221.182 43.7213 221.235 43.8133 221.253 43.9151L224.045 58.8067C224.065 58.9017 224.05 59.0006 224.003 59.0858C223.843 59.4066 220.006 66.8078 213.787 67.2593C213.64 67.2712 213.492 67.2771 213.341 67.2771ZM204.859 58.2127C205.257 59.2165 208.464 66.7069 213.721 66.3623C218.978 66.0178 222.631 59.7868 223.142 58.8007L220.766 46.0475V46.1188C219.649 51.15 217.41 54.7021 214.113 56.6801C211.321 58.2671 208.048 58.7883 204.9 58.1473L204.859 58.2127Z" fill="#29275F"/>
<path d="M207.567 58.4209C206.497 58.4313 205.429 58.3056 204.39 58.0467C204.283 58.0173 204.192 57.9491 204.134 57.8556C204.075 57.7621 204.054 57.6501 204.075 57.5418L204.669 54.1203C204.682 54.0401 204.717 53.965 204.769 53.9032C204.822 53.8413 204.89 53.795 204.968 53.7694C205.045 53.7437 205.127 53.7395 205.206 53.7574C205.286 53.7753 205.359 53.8145 205.417 53.8708C205.515 53.9714 205.62 54.0648 205.732 54.15C206.635 54.8509 208.536 54.845 211.078 54.15C211.143 54.15 217.677 52.273 219.863 45.8934C219.901 45.7864 219.978 45.6977 220.079 45.6456C220.179 45.5934 220.296 45.5817 220.406 45.6127C220.515 45.6438 220.608 45.7154 220.666 45.8128C220.724 45.9102 220.743 46.0261 220.719 46.137C219.602 51.1741 217.363 54.7262 214.066 56.7042C212.094 57.8521 209.849 58.4453 207.567 58.4209ZM205.025 57.2804C206.213 57.518 210.098 58.0407 213.632 55.9201C215.808 54.5529 217.506 52.5438 218.491 50.1702C216.601 52.4128 214.122 54.0832 211.333 54.9935C209.421 55.5222 206.89 55.932 205.393 54.9935L205.025 57.2804Z" fill="#29275F"/>
<path d="M207.763 55.5577C206.851 55.6157 205.945 55.3715 205.185 54.8627C205.078 54.7795 204.948 54.6607 204.793 54.5182C203.166 52.9857 198.853 47.7525 198.259 44.4796C197.832 42.0679 198.099 35.7181 198.301 32.1422C198.39 30.58 198.467 29.5286 198.467 29.5286C198.464 29.503 198.464 29.477 198.467 29.4514C198.468 28.9906 198.497 28.5303 198.556 28.0733C198.556 27.8298 198.622 27.5862 198.669 27.3427C198.717 27.0991 198.752 26.9031 198.806 26.6952C198.832 26.5537 198.87 26.4146 198.919 26.2794C198.994 25.9622 199.091 25.6506 199.21 25.3468C199.239 25.2577 199.281 25.1568 199.323 25.0558C199.364 24.9548 199.418 24.8182 199.471 24.6994C199.522 24.567 199.582 24.438 199.649 24.3133C199.672 24.2449 199.702 24.1792 199.738 24.1173V24.0876C199.755 24.0398 199.777 23.994 199.804 23.9509C199.843 23.8857 199.899 23.8318 199.966 23.7943C200.032 23.7569 200.108 23.7372 200.184 23.7371C200.282 23.7412 200.378 23.7698 200.463 23.8203C200.482 23.8308 200.498 23.845 200.511 23.8618C200.547 23.8815 200.581 23.9054 200.612 23.9331L200.903 24.1291L201.045 24.2123L201.253 24.337L201.526 24.4737C203.228 25.2362 205.089 25.5726 206.95 25.4538C209.112 25.3706 211.339 24.2658 213.305 23.3451C215.622 22.2283 217.404 21.3849 218.491 22.3115C219.946 23.5648 219.97 26.2081 219.988 28.5426C219.988 29.2732 219.988 29.9563 220.047 30.5503C220.08 31.1355 220.309 31.6927 220.697 32.1322C221.085 32.5717 221.609 32.8682 222.186 32.9738C222.689 32.8913 223.203 32.9074 223.7 33.0213C224.057 33.1148 224.398 33.2567 224.716 33.4431C225.436 33.8684 226.024 34.4853 226.415 35.2251C226.945 36.2652 227.136 37.4449 226.961 38.599C226.725 40.2708 225.879 41.7962 224.585 42.8817C223.621 43.6998 222.442 44.2235 221.188 44.3905C221.072 44.9944 220.915 45.5898 220.719 46.1725C220.718 46.1863 220.718 46.2002 220.719 46.2141C218.378 53.0332 211.393 55.0171 211.321 55.035C210.163 55.3628 208.967 55.5385 207.763 55.5577ZM199.34 29.7009C199.34 30.0038 199.257 30.9364 199.186 32.1957C199.026 35.0469 198.705 41.9254 199.127 44.3311C199.661 47.3545 203.879 52.4511 205.405 53.8767C205.506 53.9761 205.614 54.0693 205.726 54.1558C206.629 54.8568 208.53 54.8508 211.072 54.1558C211.137 54.1558 217.659 52.2788 219.851 45.9171C219.851 45.9032 219.851 45.8893 219.851 45.8755C220.071 45.2369 220.238 44.5813 220.35 43.9153C220.365 43.8162 220.413 43.7251 220.486 43.6571C220.56 43.589 220.654 43.5481 220.754 43.5411C221.962 43.4439 223.108 42.9655 224.027 42.1749C225.146 41.2287 225.876 39.9022 226.076 38.4505C226.227 37.4827 226.071 36.492 225.631 35.6171C225.314 35.026 224.842 34.533 224.265 34.1915C223.669 33.8229 222.954 33.6994 222.269 33.847C222.22 33.8559 222.169 33.8559 222.12 33.847C221.333 33.7162 220.612 33.3249 220.074 32.7357C219.535 32.1466 219.21 31.3937 219.15 30.5978C219.097 30.0038 219.097 29.2732 219.091 28.5247C219.091 26.3863 219.055 23.9569 217.903 22.9649C217.244 22.3709 215.527 23.2263 213.715 24.0994C211.672 25.0914 209.361 26.2141 207.009 26.3032C205.005 26.4288 203 26.0617 201.17 25.234C201.06 25.1865 200.953 25.133 200.849 25.0736L200.629 24.9489L200.445 24.8419L200.386 24.8004C200.35 24.8716 200.321 24.9489 200.291 25.0201C200.261 25.0914 200.19 25.2518 200.148 25.3587C200.107 25.4656 200.077 25.5369 200.047 25.6201C199.937 25.9113 199.844 26.2088 199.768 26.5111C199.728 26.6276 199.697 26.7467 199.673 26.8675C199.62 27.0813 199.578 27.2833 199.542 27.4615C199.507 27.6397 199.465 27.907 199.441 28.1327C199.385 28.5918 199.357 29.0541 199.358 29.5167C199.364 29.5787 199.358 29.6411 199.34 29.7009Z" fill="#29275F"/>
<path d="M191.333 143.79C191.052 143.786 190.774 143.738 190.508 143.648C189.04 143.167 184.995 139.751 184.134 139.015L183.588 138.985C181.942 138.866 178.925 138.528 177.137 137.631C175.349 136.734 173.008 133.271 171.82 131.305C171.765 131.205 171.75 131.087 171.779 130.977C171.808 130.866 171.878 130.771 171.975 130.711C172.074 130.653 172.191 130.637 172.302 130.664C172.413 130.692 172.509 130.762 172.569 130.859C174.481 134.019 176.329 136.259 177.523 136.853C179.239 137.714 182.37 138.041 183.635 138.112L184.318 138.147C184.418 138.153 184.514 138.19 184.591 138.254C185.91 139.395 189.605 142.412 190.775 142.816C190.944 142.902 191.133 142.94 191.321 142.925C191.51 142.911 191.691 142.844 191.844 142.733C191.904 142.678 191.951 142.611 191.981 142.536C192.012 142.461 192.026 142.38 192.022 142.3C191.898 141.973 191.428 141.171 191.31 140.91L191.268 140.779C191.227 140.696 191.213 140.602 191.228 140.51C191.243 140.419 191.286 140.334 191.351 140.268C191.417 140.203 191.502 140.161 191.593 140.146C191.685 140.131 191.779 140.145 191.862 140.185L191.921 140.215C193.096 140.816 194.328 141.299 195.598 141.658C196.661 141.907 197.154 141.533 197.38 141.278C197.042 140.886 195.759 139.597 191.024 135.463L190.923 135.373C190.833 135.295 190.777 135.183 190.769 135.063C190.761 134.944 190.8 134.826 190.879 134.735C190.958 134.644 191.069 134.589 191.189 134.58C191.309 134.572 191.427 134.612 191.517 134.69C194.196 136.888 196.269 138.308 196.994 138.397C197.291 138.437 197.594 138.411 197.88 138.322C198.166 138.233 198.43 138.082 198.651 137.88C198.594 137.605 198.463 137.35 198.271 137.144C197.784 136.55 195.895 134.441 195.266 133.758L195.034 133.502C194.963 133.428 194.921 133.331 194.914 133.228C194.906 133.125 194.935 133.023 194.994 132.939C195.054 132.855 195.141 132.795 195.24 132.767C195.339 132.74 195.445 132.748 195.539 132.79C196.287 133.098 198.342 133.734 199.002 133.003C198.865 131.815 191.28 126.968 189.284 126.535C187.977 126.42 186.659 126.5 185.375 126.772C183.694 127.046 182.168 127.402 182.15 127.408C182.064 127.427 181.975 127.421 181.893 127.391C181.81 127.36 181.739 127.306 181.687 127.236L180.499 125.59C180.436 125.498 180.411 125.385 180.429 125.275C180.446 125.164 180.505 125.065 180.594 124.996C180.687 124.935 180.799 124.911 180.909 124.928C181.019 124.946 181.119 125.004 181.188 125.091L182.209 126.499C182.744 126.38 183.932 126.125 185.209 125.905C187.211 125.584 188.636 125.507 189.444 125.679C191.262 126.071 199.121 130.758 199.81 132.695C199.869 132.833 199.89 132.985 199.87 133.135C199.85 133.284 199.79 133.426 199.697 133.544C199.037 134.364 197.79 134.328 196.756 134.138C197.57 135.041 198.586 136.175 198.942 136.615C199.667 137.518 199.536 138.136 199.483 138.254C199.463 138.308 199.435 138.358 199.4 138.403C199.079 138.746 198.681 139.007 198.239 139.166C197.797 139.325 197.323 139.377 196.857 139.318C196.756 139.303 196.657 139.279 196.56 139.246C198.497 141.058 198.42 141.23 198.307 141.498C197.974 142.222 197.024 142.935 195.414 142.561C194.486 142.319 193.582 141.995 192.711 141.593C192.794 141.765 192.86 141.913 192.907 142.026C192.975 142.259 192.979 142.506 192.92 142.741C192.86 142.976 192.739 143.19 192.569 143.363C192.406 143.52 192.212 143.639 191.998 143.713C191.785 143.787 191.558 143.813 191.333 143.79Z" fill="#29275F"/>
<path d="M256.014 132.272C255.956 132.269 255.899 132.254 255.846 132.229C255.793 132.204 255.746 132.168 255.708 132.125C255.669 132.081 255.639 132.03 255.621 131.975C255.602 131.919 255.594 131.861 255.598 131.803L259.851 62.0553C259.849 61.9932 259.86 61.9312 259.883 61.8734C259.906 61.8156 259.94 61.7633 259.985 61.7198C260.029 61.6763 260.082 61.6426 260.141 61.6209C260.199 61.5991 260.261 61.5898 260.323 61.5936C260.385 61.5973 260.446 61.614 260.501 61.6426C260.556 61.6712 260.605 61.7111 260.644 61.7596C260.683 61.8081 260.711 61.8643 260.727 61.9244C260.743 61.9846 260.746 62.0474 260.736 62.1088L256.436 131.868C256.426 131.975 256.378 132.075 256.3 132.149C256.223 132.223 256.121 132.267 256.014 132.272Z" fill="#29275F"/>
<path d="M248.791 238.438C248.733 238.435 248.675 238.42 248.622 238.395C248.569 238.37 248.522 238.334 248.483 238.291C248.444 238.247 248.413 238.196 248.394 238.141C248.374 238.086 248.366 238.027 248.369 237.968L253.793 145.53C253.795 145.471 253.809 145.414 253.834 145.36C253.859 145.307 253.894 145.259 253.938 145.22C253.982 145.181 254.033 145.151 254.089 145.131C254.144 145.112 254.203 145.104 254.262 145.108C254.379 145.116 254.489 145.169 254.568 145.257C254.647 145.345 254.688 145.46 254.684 145.578L249.237 238.028C249.228 238.14 249.177 238.244 249.094 238.32C249.012 238.396 248.903 238.438 248.791 238.438Z" fill="#29275F"/>
<path d="M249.896 250.003C241.426 250.003 236.87 247.627 236.638 247.52C236.533 247.465 236.455 247.37 236.419 247.257C236.384 247.144 236.396 247.022 236.451 246.917C236.506 246.812 236.6 246.734 236.713 246.699C236.827 246.664 236.949 246.675 237.054 246.73C237.125 246.766 244.152 250.395 256.84 248.613C256.9 248.599 256.962 248.598 257.023 248.61C257.083 248.621 257.141 248.646 257.191 248.68C257.242 248.715 257.285 248.76 257.318 248.813C257.35 248.865 257.371 248.924 257.38 248.985C257.389 249.046 257.384 249.108 257.368 249.167C257.351 249.227 257.323 249.282 257.284 249.33C257.244 249.377 257.196 249.416 257.141 249.444C257.086 249.472 257.026 249.489 256.965 249.492C254.623 249.829 252.261 249.999 249.896 250.003Z" fill="#29275F"/>
<path d="M171.03 102.715C170.965 102.716 170.9 102.702 170.84 102.674C170.78 102.646 170.728 102.605 170.686 102.555L168.102 99.442C168.063 99.3972 168.033 99.3451 168.014 99.2887C167.996 99.2323 167.988 99.1728 167.992 99.1135C167.996 99.0542 168.012 98.9963 168.038 98.9431C168.065 98.8899 168.102 98.8425 168.147 98.8035C168.191 98.7645 168.244 98.7347 168.3 98.7158C168.356 98.6969 168.416 98.6893 168.475 98.6935C168.534 98.6976 168.592 98.7134 168.645 98.7399C168.699 98.7664 168.746 98.8032 168.785 98.848L171.375 101.961C171.413 102.005 171.442 102.057 171.46 102.113C171.478 102.169 171.484 102.228 171.479 102.287C171.474 102.345 171.458 102.402 171.431 102.454C171.404 102.506 171.367 102.552 171.322 102.59C171.242 102.665 171.139 102.709 171.03 102.715Z" fill="#29275F"/>
<path d="M183.582 95.1235C183.464 95.1219 183.352 95.0745 183.268 94.9913C183.185 94.9081 183.138 94.7957 183.136 94.678V85.5363C183.136 85.4182 183.183 85.3048 183.267 85.2213C183.35 85.1378 183.464 85.0908 183.582 85.0908C183.7 85.0908 183.813 85.1378 183.897 85.2213C183.98 85.3048 184.027 85.4182 184.027 85.5363V94.6899C184.024 94.8059 183.976 94.9162 183.893 94.9972C183.809 95.0782 183.698 95.1235 183.582 95.1235Z" fill="#29275F"/>
<path d="M182.186 93.4659C182.112 93.4657 182.04 93.4471 181.976 93.4118C181.912 93.3765 181.857 93.3257 181.818 93.264L179.442 89.7C179.409 89.6512 179.387 89.5966 179.375 89.5391C179.364 89.4817 179.364 89.4226 179.376 89.3652C179.388 89.3079 179.41 89.2534 179.443 89.2048C179.476 89.1562 179.518 89.1146 179.566 89.0822C179.615 89.0498 179.67 89.0274 179.727 89.0161C179.785 89.0049 179.844 89.005 179.901 89.0166C179.958 89.0282 180.013 89.051 180.061 89.0836C180.11 89.1163 180.152 89.1582 180.184 89.2069L182.56 92.7709C182.604 92.8382 182.629 92.9162 182.632 92.9965C182.635 93.0768 182.617 93.1565 182.579 93.2271C182.54 93.2977 182.483 93.3567 182.414 93.3977C182.345 93.4387 182.266 93.4602 182.186 93.46V93.4659Z" fill="#29275F"/>
<path d="M238.117 101.628H238.022C237.907 101.602 237.806 101.532 237.742 101.434C237.678 101.335 237.654 101.215 237.677 101.099L240.439 87.6211C240.463 87.5053 240.532 87.4037 240.63 87.3385C240.729 87.2734 240.849 87.25 240.965 87.2736C241.081 87.2973 241.183 87.3659 241.248 87.4645C241.313 87.5631 241.336 87.6835 241.313 87.7993L238.551 101.277C238.529 101.376 238.474 101.465 238.395 101.529C238.317 101.592 238.218 101.627 238.117 101.628Z" fill="#29275F"/>
<path d="M240.261 100.595C240.177 100.595 240.094 100.57 240.024 100.523C239.931 100.459 239.865 100.363 239.84 100.253C239.815 100.143 239.831 100.028 239.887 99.9294L243.112 94.8982C243.176 94.7982 243.277 94.7276 243.393 94.702C243.509 94.6763 243.63 94.6978 243.73 94.7616C243.83 94.8254 243.901 94.9263 243.926 95.0422C243.952 95.158 243.931 95.2793 243.867 95.3794L240.635 100.387C240.596 100.451 240.541 100.504 240.476 100.54C240.41 100.577 240.336 100.595 240.261 100.595Z" fill="#29275F"/>
<path d="M191.642 141.004C191.583 141.003 191.525 140.991 191.471 140.967C191.417 140.944 191.368 140.91 191.327 140.867L187.11 136.495C187.027 136.412 186.98 136.299 186.98 136.18C186.98 136.062 187.027 135.949 187.11 135.866C187.194 135.782 187.307 135.735 187.425 135.735C187.543 135.735 187.656 135.782 187.74 135.866L191.963 140.237C192.046 140.321 192.093 140.434 192.093 140.552C192.093 140.67 192.046 140.784 191.963 140.867C191.878 140.953 191.763 141.002 191.642 141.004Z" fill="#29275F"/>
<path d="M195.301 133.651C195.197 133.65 195.095 133.612 195.016 133.544L192.302 131.239C192.257 131.2 192.221 131.153 192.195 131.1C192.168 131.047 192.153 130.989 192.149 130.93C192.145 130.871 192.153 130.812 192.172 130.756C192.191 130.7 192.221 130.648 192.26 130.604C192.299 130.559 192.346 130.523 192.399 130.497C192.452 130.47 192.51 130.455 192.569 130.451C192.628 130.447 192.687 130.455 192.743 130.474C192.799 130.493 192.851 130.523 192.896 130.562L195.604 132.867C195.674 132.926 195.723 133.005 195.746 133.093C195.769 133.182 195.764 133.275 195.732 133.36C195.701 133.446 195.643 133.52 195.568 133.571C195.493 133.623 195.404 133.651 195.313 133.651H195.301Z" fill="#29275F"/>
<path d="M191.167 135.432C191.063 135.432 190.963 135.396 190.882 135.331L189.243 133.953C189.152 133.875 189.096 133.763 189.088 133.643C189.08 133.524 189.119 133.405 189.198 133.315C189.277 133.224 189.388 133.169 189.508 133.16C189.628 133.152 189.746 133.191 189.837 133.27L191.47 134.648C191.539 134.707 191.588 134.786 191.611 134.874C191.634 134.961 191.63 135.054 191.599 135.139C191.568 135.224 191.512 135.298 191.438 135.351C191.364 135.403 191.276 135.432 191.185 135.432H191.167Z" fill="#29275F"/>
<path d="M269.676 83.6833C269.621 83.6947 269.565 83.6947 269.51 83.6833L264.591 81.7171C264.537 81.6953 264.487 81.6629 264.445 81.6218C264.403 81.5808 264.369 81.5318 264.346 81.4778C264.323 81.4237 264.311 81.3656 264.31 81.3068C264.309 81.248 264.32 81.1896 264.342 81.135C264.364 81.0804 264.396 81.0307 264.437 80.9886C264.478 80.9465 264.527 80.9129 264.581 80.8897C264.635 80.8666 264.693 80.8543 264.752 80.8535C264.811 80.8528 264.869 80.8637 264.924 80.8855L269.842 82.8576C269.899 82.8791 269.95 82.9118 269.993 82.9537C270.036 82.9955 270.071 83.0458 270.094 83.1013C270.117 83.1568 270.129 83.2165 270.129 83.2767C270.128 83.3369 270.116 83.3964 270.092 83.4516C270.052 83.5261 269.992 83.5875 269.918 83.6286C269.844 83.6697 269.76 83.6887 269.676 83.6833Z" fill="#29275F"/>
<path d="M269.676 80.5647C269.603 80.5645 269.532 80.5462 269.468 80.5112L266.997 79.2282C266.217 78.8226 265.397 78.5 264.55 78.2659L261.289 77.363C261.184 77.3241 261.098 77.2473 261.047 77.1479C260.997 77.0486 260.985 76.9338 261.015 76.8263C261.045 76.7188 261.114 76.6264 261.209 76.5674C261.303 76.5084 261.417 76.4871 261.526 76.5076L264.787 77.4046C265.694 77.656 266.572 78.0004 267.407 78.4322L269.884 79.7212C269.986 79.7766 270.062 79.8698 270.097 79.9807C270.131 80.0917 270.121 80.2117 270.068 80.3152C270.033 80.3892 269.977 80.4519 269.908 80.496C269.839 80.5401 269.758 80.5639 269.676 80.5647Z" fill="#29275F"/>
<path d="M270.864 78.5574C270.773 78.5583 270.684 78.5314 270.609 78.4802L268.601 77.1021C267.766 76.5308 266.864 76.064 265.916 75.7121L263.427 74.7795C263.369 74.7616 263.315 74.732 263.269 74.6925C263.222 74.6529 263.185 74.6043 263.158 74.5496C263.131 74.4949 263.116 74.4353 263.113 74.3745C263.11 74.3137 263.12 74.2529 263.141 74.196C263.163 74.139 263.196 74.0871 263.238 74.0434C263.281 73.9997 263.332 73.9652 263.388 73.9419C263.444 73.9187 263.505 73.9072 263.566 73.9083C263.626 73.9093 263.687 73.9228 263.742 73.9479L266.231 74.8746C267.245 75.2577 268.21 75.7602 269.106 76.3715L271.114 77.7436C271.211 77.811 271.279 77.9143 271.301 78.031C271.323 78.1478 271.299 78.2686 271.232 78.3673C271.191 78.4264 271.136 78.4747 271.072 78.5078C271.007 78.5409 270.936 78.5579 270.864 78.5574Z" fill="#29275F"/>
<path d="M272.094 76.5074C271.971 76.5069 271.853 76.4578 271.767 76.3708L269.492 73.9591C269.408 73.8756 269.362 73.7624 269.362 73.6443C269.362 73.5263 269.408 73.413 269.492 73.3295C269.575 73.2461 269.689 73.1992 269.807 73.1992C269.925 73.1992 270.038 73.2461 270.121 73.3295L272.397 75.7411C272.48 75.8247 272.527 75.9379 272.527 76.056C272.527 76.174 272.48 76.2873 272.397 76.3708C272.317 76.4532 272.208 76.502 272.094 76.5074Z" fill="#29275F"/>
<path d="M210.306 34.7018C210.354 34.9924 210.485 35.263 210.683 35.4811C210.881 35.6993 211.137 35.8558 211.422 35.9319C211.706 36.0081 212.007 36.0006 212.287 35.9103C212.568 35.8201 212.816 35.651 213.003 35.4232C213.19 35.1954 213.307 34.9187 213.34 34.626C213.374 34.3334 213.322 34.0373 213.192 33.7731C213.062 33.509 212.858 33.288 212.605 33.1367C212.352 32.9853 212.061 32.91 211.767 32.9198C211.339 32.9663 210.946 33.179 210.672 33.5122C210.399 33.8455 210.268 34.2726 210.306 34.7018Z" fill="#29275F"/>
<path d="M200.772 35.0045C200.821 35.2934 200.953 35.5621 201.15 35.7784C201.348 35.9947 201.604 36.1495 201.887 36.2243C202.171 36.2991 202.47 36.2907 202.748 36.2002C203.027 36.1097 203.274 35.9409 203.459 35.7139C203.645 35.4869 203.761 35.2113 203.794 34.9201C203.827 34.6289 203.775 34.3343 203.645 34.0716C203.515 33.8089 203.313 33.5891 203.061 33.4385C202.81 33.288 202.52 33.213 202.227 33.2225C201.798 33.266 201.404 33.4781 201.131 33.8123C200.858 34.1464 200.729 34.5752 200.772 35.0045Z" fill="#29275F"/>
<path d="M210.971 29.2725C212.269 29.3373 213.545 29.6351 214.737 30.1516C214.969 30.2794 215.141 30.4925 215.218 30.7456C215.296 30.9984 215.27 31.2719 215.147 31.5058C215.023 31.7397 214.812 31.9149 214.559 31.993C214.3 32.0599 214.027 32.0325 213.787 31.9158L213.591 31.8385C212.86 31.5638 212.098 31.3822 211.322 31.298H211.036C210.774 31.3011 210.519 31.2057 210.324 31.0307C210.133 30.8484 210.02 30.5993 210.009 30.3357C210.002 30.2026 210.021 30.0694 210.065 29.9437C210.11 29.818 210.179 29.7025 210.268 29.6036C210.358 29.5048 210.466 29.4246 210.587 29.3678C210.707 29.3109 210.838 29.2785 210.971 29.2725Z" fill="#29275F"/>
<path d="M203.742 29.504C202.451 29.6501 201.198 30.0284 200.041 30.6207C199.824 30.7547 199.666 30.9675 199.602 31.2147C199.54 31.4766 199.585 31.7521 199.727 31.981C199.862 32.1977 200.074 32.3549 200.321 32.4205C200.583 32.4659 200.853 32.422 201.087 32.2958L201.277 32.2008C201.99 31.8833 202.741 31.6559 203.51 31.5236L203.79 31.482C204.052 31.4667 204.3 31.3545 204.485 31.1672C204.663 30.9732 204.759 30.7177 204.752 30.4544C204.74 30.196 204.627 29.9524 204.439 29.7751C204.251 29.5978 204.001 29.5006 203.742 29.504Z" fill="#29275F"/>
<path d="M212.414 39.4777C212.384 39.9785 212.502 40.4772 212.755 40.9107C213.007 41.3442 213.383 41.693 213.834 41.913C214.285 42.133 214.791 42.2143 215.288 42.1466C215.785 42.079 216.251 41.8654 216.627 41.5328C217.003 41.2003 217.271 40.7638 217.399 40.2786C217.527 39.7933 217.507 39.2811 217.344 38.8068C217.18 38.3324 216.88 37.9172 216.48 37.6137C216.081 37.3102 215.6 37.132 215.099 37.1017C214.767 37.0808 214.434 37.1257 214.119 37.2339C213.804 37.3421 213.513 37.5114 213.264 37.7322C213.014 37.9529 212.811 38.2207 212.665 38.5203C212.519 38.8198 212.434 39.1452 212.414 39.4777Z" fill="#E58E8B"/>
<path d="M206.332 36.2344C206.332 36.2344 207.573 37.8441 207.122 39.4063C206.805 40.4025 206.214 41.2895 205.417 41.9665C205.417 41.9665 202.685 41.0874 202.982 38.9252C202.982 38.9252 202.982 37.9332 204.39 37.856C205.797 37.7788 206.332 36.2344 206.332 36.2344Z" fill="#E58E8B"/>
<path d="M206.249 42.6139C205.356 42.6184 204.492 42.3015 203.813 41.7214C203.135 41.1412 202.688 40.3363 202.554 39.4539C202.486 39.1637 202.495 38.8607 202.58 38.5751C202.666 38.2895 202.825 38.0313 203.041 37.8263C203.282 37.6516 203.561 37.5357 203.855 37.4877H203.986C204.633 37.3052 205.211 36.9355 205.649 36.425C206.086 35.9146 206.363 35.2861 206.445 34.6187C206.463 34.5064 206.523 34.4051 206.613 34.3357C206.703 34.2663 206.816 34.234 206.929 34.2454C207.042 34.2568 207.147 34.311 207.221 34.397C207.296 34.483 207.335 34.5942 207.33 34.7078C207.235 35.5584 206.886 36.3607 206.329 37.0102C205.772 37.6597 205.032 38.1263 204.205 38.349L204.063 38.3847C203.899 38.4086 203.741 38.4652 203.599 38.551C203.509 38.6602 203.448 38.79 203.42 38.9289C203.392 39.0677 203.398 39.2113 203.439 39.3469C203.549 40.042 203.914 40.671 204.464 41.1106C205.013 41.5502 205.707 41.7686 206.409 41.7229C206.468 41.7189 206.526 41.7265 206.582 41.7452C206.638 41.7639 206.689 41.7935 206.733 41.8321C206.777 41.8707 206.813 41.9177 206.839 41.9703C206.865 42.023 206.88 42.0802 206.884 42.1387C206.891 42.2566 206.851 42.3723 206.773 42.4611C206.696 42.5499 206.586 42.6048 206.468 42.6139H206.249Z" fill="#29275F"/>
<path d="M207.496 47.2355C207.438 47.2375 207.379 47.2279 207.325 47.2073C207.27 47.1867 207.22 47.1555 207.177 47.1155C207.091 47.0348 207.04 46.923 207.036 46.8049C207.032 46.6867 207.075 46.5718 207.156 46.4855C207.237 46.3992 207.348 46.3485 207.467 46.3445C208.375 46.2877 209.24 45.9375 209.932 45.3466C210.622 44.7554 211.1 43.9542 211.292 43.0656C211.304 43.0083 211.328 42.954 211.361 42.9058C211.395 42.8576 211.438 42.8165 211.487 42.7848C211.536 42.753 211.591 42.7314 211.649 42.721C211.707 42.7105 211.766 42.7116 211.824 42.7241C211.881 42.7366 211.935 42.7602 211.983 42.7937C212.032 42.8272 212.073 42.8698 212.104 42.9192C212.136 42.9685 212.158 43.0237 212.168 43.0814C212.179 43.1392 212.178 43.1984 212.165 43.2557C211.932 44.3349 211.351 45.3078 210.512 46.0255C209.673 46.7432 208.622 47.1662 207.52 47.2296L207.496 47.2355Z" fill="#29275F"/>
<path d="M221.645 41.6283C221.587 41.6276 221.529 41.6153 221.475 41.5922C221.421 41.5691 221.373 41.5356 221.332 41.4937C221.291 41.4517 221.259 41.4022 221.237 41.3478C221.216 41.2935 221.205 41.2354 221.206 41.1769C221.206 38.094 223.54 35.6586 223.641 35.5517C223.725 35.4697 223.838 35.4238 223.956 35.4238C224.073 35.4238 224.186 35.4697 224.271 35.5517C224.354 35.6352 224.401 35.7485 224.401 35.8665C224.401 35.9846 224.354 36.0978 224.271 36.1814C224.271 36.1814 222.103 38.4742 222.085 41.2007C222.08 41.3147 222.032 41.4226 221.95 41.5022C221.868 41.5817 221.759 41.6269 221.645 41.6283Z" fill="#29275F"/>
<path d="M246.51 20.0714C246.51 20.3865 246.385 20.6887 246.162 20.9114C245.939 21.1342 245.637 21.2594 245.322 21.2594H242.293V24.2888C242.33 24.4621 242.328 24.6416 242.287 24.814C242.246 24.9865 242.167 25.1477 242.056 25.2856C241.944 25.4235 241.803 25.5348 241.644 25.6113C241.484 25.6877 241.309 25.7274 241.131 25.7274C240.954 25.7274 240.779 25.6877 240.619 25.6113C240.459 25.5348 240.318 25.4235 240.207 25.2856C240.096 25.1477 240.016 24.9865 239.975 24.814C239.934 24.6416 239.933 24.4621 239.97 24.2888V21.2594H236.941C236.672 21.2049 236.431 21.0592 236.257 20.847C236.084 20.6348 235.989 20.3692 235.989 20.0952C235.989 19.8211 236.084 19.5555 236.257 19.3433C236.431 19.1312 236.672 18.9855 236.941 18.9309H239.976V15.8837C239.976 15.5737 240.097 15.2759 240.313 15.054C240.53 14.832 240.824 14.7035 241.134 14.6957C241.291 14.6916 241.448 14.7196 241.594 14.7778C241.74 14.8361 241.872 14.9234 241.983 15.0346C242.095 15.1457 242.182 15.2783 242.24 15.4243C242.298 15.5703 242.326 15.7266 242.322 15.8837V18.9072H245.322C245.633 18.9071 245.932 19.029 246.154 19.2467C246.376 19.4644 246.504 19.7605 246.51 20.0714Z" fill="#E58E8B"/>
<path d="M244.021 33.1162C242.002 33.1162 242.002 36.2525 244.021 36.2525C246.041 36.2525 246.041 33.1162 244.021 33.1162Z" fill="#E58E8B"/>
<path d="M258.39 20.3867C256.376 20.3867 256.37 23.523 258.39 23.523C260.41 23.523 260.439 20.3867 258.39 20.3867Z" fill="#E58E8B"/>
<path d="M49.9317 149.748C49.9317 150.063 49.8066 150.365 49.5838 150.588C49.361 150.811 49.0588 150.936 48.7437 150.936H45.7381V153.959C45.7381 154.274 45.6129 154.577 45.3901 154.799C45.1673 155.022 44.8652 155.147 44.5501 155.147C44.393 155.151 44.2367 155.124 44.0907 155.065C43.9447 155.007 43.8121 154.92 43.701 154.809C43.5898 154.697 43.5025 154.565 43.4442 154.419C43.386 154.273 43.358 154.117 43.3621 153.959V150.936H40.3921C40.1676 150.924 39.951 150.849 39.7674 150.72C39.5838 150.59 39.4408 150.411 39.3549 150.203C39.2691 149.995 39.2439 149.768 39.2824 149.546C39.3209 149.325 39.4215 149.119 39.5724 148.952C39.6792 148.843 39.8067 148.756 39.9475 148.697C40.0882 148.638 40.2394 148.607 40.3921 148.607H43.4215V145.531C43.433 145.306 43.508 145.089 43.6377 144.906C43.7674 144.722 43.9465 144.579 44.1543 144.493C44.362 144.408 44.5899 144.382 44.8114 144.421C45.0328 144.459 45.2388 144.56 45.4055 144.711C45.5124 144.819 45.5969 144.947 45.654 145.087C45.7111 145.228 45.7397 145.379 45.7381 145.531V148.56H48.7675C49.0784 148.566 49.3745 148.694 49.5922 148.916C49.8099 149.138 49.9318 149.437 49.9317 149.748Z" fill="#E58E8B"/>
<path d="M32.7473 159.192C30.7337 159.192 30.7277 162.329 32.7473 162.329C34.7669 162.329 34.7729 159.192 32.7473 159.192Z" fill="#E58E8B"/>
<path d="M34.452 136.205C32.4324 136.205 32.4324 139.341 34.452 139.341C36.4716 139.341 36.4716 136.205 34.452 136.205Z" fill="#E58E8B"/>
<path d="M175.895 37.2028C175.895 37.5128 175.774 37.8106 175.558 38.0325C175.341 38.2545 175.047 38.383 174.737 38.3908H171.708V41.4202C171.708 41.7353 171.582 42.0374 171.36 42.2602C171.137 42.483 170.835 42.6082 170.52 42.6082C170.367 42.6086 170.216 42.5783 170.075 42.5191C169.934 42.4599 169.806 42.3731 169.7 42.2637C169.485 42.0444 169.364 41.7507 169.361 41.444V38.4146H166.332C166.107 38.4041 165.889 38.3299 165.705 38.2006C165.521 38.0713 165.377 37.8922 165.29 37.6843C165.204 37.4763 165.178 37.2481 165.216 37.0261C165.254 36.8041 165.355 36.5976 165.506 36.4306C165.727 36.2147 166.023 36.0933 166.332 36.092H169.361V33.0626C169.324 32.8893 169.326 32.7099 169.367 32.5374C169.408 32.3649 169.487 32.2038 169.598 32.0658C169.709 31.9279 169.85 31.8166 170.01 31.7401C170.17 31.6637 170.345 31.624 170.523 31.624C170.7 31.624 170.875 31.6637 171.035 31.7401C171.195 31.8166 171.336 31.9279 171.447 32.0658C171.558 32.2038 171.637 32.3649 171.678 32.5374C171.719 32.7099 171.721 32.8893 171.684 33.0626V36.092H174.713C175.014 36.0929 175.304 36.2081 175.523 36.4143C175.743 36.6205 175.876 36.9023 175.895 37.2028Z" fill="#E58E8B"/>
<path d="M156.976 33.3359C154.957 33.3359 154.957 36.4723 156.976 36.4723C158.996 36.4723 158.996 33.3359 156.976 33.3359Z" fill="#E58E8B"/>
<path d="M178.949 22.3467C176.935 22.3467 176.929 25.4889 178.949 25.4889C180.968 25.4889 180.974 22.3467 178.949 22.3467Z" fill="#E58E8B"/>
<path d="M45.1975 74.3631C45.1975 74.6782 45.0723 74.9803 44.8495 75.2031C44.6267 75.4259 44.3245 75.5511 44.0095 75.5511H40.986V78.5805C41.0234 78.7538 41.0215 78.9332 40.9806 79.1057C40.9396 79.2782 40.8605 79.4393 40.7491 79.5773C40.6378 79.7152 40.497 79.8265 40.337 79.9029C40.1771 79.9794 40.002 80.0191 39.8247 80.0191C39.6475 80.0191 39.4724 79.9794 39.3125 79.9029C39.1525 79.8265 39.0117 79.7152 38.9003 79.5773C38.789 79.4393 38.7099 79.2782 38.6689 79.1057C38.6279 78.9332 38.6261 78.7538 38.6635 78.5805V75.5511H35.64C35.4667 75.5885 35.2872 75.5866 35.1148 75.5456C34.9423 75.5046 34.7812 75.4256 34.6432 75.3142C34.5053 75.2029 34.394 75.062 34.3175 74.9021C34.2411 74.7421 34.2014 74.5671 34.2014 74.3898C34.2014 74.2125 34.2411 74.0375 34.3175 73.8775C34.394 73.7176 34.5053 73.5768 34.6432 73.4654C34.7812 73.354 34.9423 73.275 35.1148 73.234C35.2872 73.193 35.4667 73.1911 35.64 73.2285H38.6694V70.1991C38.6694 69.8841 38.7946 69.5819 39.0174 69.3591C39.2402 69.1363 39.5423 69.0111 39.8574 69.0111C40.0145 69.007 40.1708 69.035 40.3168 69.0932C40.4628 69.1515 40.5954 69.2389 40.7065 69.35C40.8177 69.4611 40.905 69.5937 40.9633 69.7397C41.0216 69.8857 41.0495 70.042 41.0454 70.1991V73.2285H44.0748C44.3694 73.2445 44.6475 73.3695 44.855 73.5792C45.0626 73.7889 45.1846 74.0683 45.1975 74.3631Z" fill="#E58E8B"/>
<path d="M25.8391 70.7695C23.8255 70.7695 23.8195 73.9059 25.8391 73.9059C27.8587 73.9059 27.8647 70.7695 25.8391 70.7695Z" fill="#E58E8B"/>
</g>
<defs>
<clipPath id="clip0_1718_1403">
<rect width="297" height="297" fill="white"/>
</clipPath>
</defs>
</svg>
