<svg width="21" height="21" viewBox="0 0 21 21" fill="none" xmlns="http://www.w3.org/2000/svg">
<path opacity="0.94" fill-rule="evenodd" clip-rule="evenodd" d="M10.002 0.941406C10.336 0.941406 10.6701 0.941406 11.0042 0.941406C11.6333 1.07804 12.1987 1.34564 12.7003 1.7442C13.4274 2.38768 13.9992 3.14069 14.4156 4.00322C15.4679 3.89671 16.4894 4.0274 17.4802 4.39528C17.7538 4.52406 18.0172 4.6672 18.2704 4.82468C19.096 4.62091 19.6742 4.89473 20.005 5.64614C20.1624 6.27183 19.9761 6.77591 19.4461 7.15838C19.4668 7.7803 19.3576 8.38392 19.1184 8.96932C18.8826 9.50085 18.6064 10.0111 18.2897 10.5002C18.8133 11.2536 19.1795 12.075 19.3883 12.9646C19.4432 13.2581 19.4625 13.5505 19.4461 13.8421C20.1051 14.3731 20.2272 15.0017 19.8123 15.7277C19.4016 16.2068 18.8876 16.3562 18.2704 16.1758C17.4865 16.6879 16.6192 16.968 15.6684 17.0159C15.2444 17.0283 14.8204 17.0408 14.3964 17.0533C13.8884 18.1054 13.1431 18.9642 12.1606 19.6297C11.7917 19.8275 11.4062 19.9706 11.0042 20.0591C10.6701 20.0591 10.336 20.0591 10.002 20.0591C9.37286 19.9224 8.80748 19.6548 8.30586 19.2563C7.59027 18.6286 7.02489 17.8943 6.60977 17.0533C5.57794 17.1077 4.5757 16.9708 3.60307 16.6425C3.29782 16.5103 3.00871 16.3548 2.73575 16.1758C1.91322 16.381 1.33501 16.1072 1.00112 15.3543C0.844758 14.7632 1.0118 14.2778 1.50223 13.8981C1.57365 12.6512 1.9784 11.5186 2.71648 10.5002C1.97838 9.48184 1.57363 8.3492 1.50223 7.10237C0.897446 6.59881 0.781803 6.00138 1.15531 5.31009C1.56577 4.80422 2.09259 4.6424 2.73575 4.82468C3.54538 4.30607 4.43839 4.02602 5.4148 3.98455C5.80968 3.95398 6.20156 3.9602 6.5905 4.00322C7.09092 2.9213 7.8426 2.04383 8.84553 1.37081C9.21443 1.17298 9.5999 1.02985 10.002 0.941406ZM10.1176 1.61351C10.8283 1.54229 11.4708 1.71032 12.045 2.11759C12.7396 2.64694 13.2664 3.30037 13.6254 4.0779C12.5564 4.21543 11.5156 4.46436 10.5031 4.82468C9.49054 4.46436 8.44976 4.21543 7.38072 4.0779C7.77078 3.20493 8.37471 2.50171 9.19245 1.96823C9.48892 1.80846 9.7973 1.69022 10.1176 1.61351ZM5.45335 4.63798C5.73633 4.63177 6.019 4.63799 6.30139 4.65665C5.8951 5.63957 5.59956 6.65396 5.4148 7.69979C4.59178 8.36633 3.84011 9.10065 3.15978 9.9028C2.63834 9.12185 2.32353 8.26929 2.21536 7.34507C3.21722 7.25826 3.67336 6.72931 3.5838 5.75816C3.53438 5.58774 3.46371 5.42595 3.37179 5.27275C3.58466 5.12604 3.81594 5.00779 4.06564 4.91803C4.52482 4.78305 4.98739 4.68971 5.45335 4.63798ZM14.7047 4.67532C15.7192 4.57435 16.6829 4.75482 17.5958 5.21674C17.6134 5.2322 17.6263 5.25087 17.6343 5.27275C17.3111 5.82175 17.3304 6.35697 17.6922 6.87833C17.9789 7.17592 18.3323 7.32528 18.7522 7.3264C18.6848 8.26305 18.3828 9.12185 17.8464 9.9028C17.166 9.10065 16.4144 8.36633 15.5913 7.69979C15.4088 6.6559 15.1133 5.64775 14.7047 4.67532ZM6.30139 7.02769C6.44853 6.23292 6.69269 5.46747 7.0338 4.73133C7.88234 4.79115 8.70471 4.96541 9.50083 5.25408C8.37174 5.7508 7.30525 6.34199 6.30139 7.02769ZM14.7047 7.02769C13.7009 6.34199 12.6344 5.7508 11.5053 5.25408C12.3014 4.96541 13.1238 4.79115 13.9723 4.73133C14.3134 5.46736 14.5575 6.23281 14.7047 7.02769ZM2.13827 5.4221C2.75657 5.43775 2.99428 5.73646 2.8514 6.31824C2.55751 6.70392 2.21058 6.75369 1.81061 6.4676C1.51961 6.00023 1.62883 5.6517 2.13827 5.4221ZM18.5595 5.4221C18.9574 5.38133 19.2208 5.54312 19.3497 5.90751C19.394 6.27564 19.2334 6.51834 18.8679 6.63563C18.2484 6.63716 18.0107 6.34468 18.1547 5.75816C18.2499 5.59756 18.3848 5.48554 18.5595 5.4221ZM10.4645 5.57146C12.0653 6.18767 13.5365 7.00913 14.8782 8.03585C15.1609 9.67877 15.1609 11.3217 14.8782 12.9646C13.5456 13.9808 12.0873 14.8023 10.5031 15.429C8.91888 14.8023 7.46052 13.9808 6.12793 12.9646C5.91611 11.703 5.86469 10.4335 5.97374 9.15602C5.99371 8.77721 6.04509 8.40382 6.12793 8.03585C7.45604 7.02825 8.90157 6.20679 10.4645 5.57146ZM5.26061 8.70795C5.2859 8.74985 5.29874 8.79962 5.29916 8.85731C5.24566 9.40362 5.21994 9.95127 5.22206 10.5002C5.22862 11.099 5.24789 11.6964 5.27989 12.2925C4.65684 11.7453 4.0979 11.1479 3.60307 10.5002C4.0993 9.85755 4.65179 9.26012 5.26061 8.70795ZM15.707 8.70795C16.3414 9.24769 16.9068 9.84511 17.4031 10.5002C16.9082 11.1479 16.3493 11.7453 15.7262 12.2925C15.8097 11.0978 15.8033 9.90292 15.707 8.70795ZM8.84553 9.49207C9.04193 9.91651 9.23466 10.3459 9.42374 10.7803C9.05044 10.8113 8.67781 10.8051 8.30586 10.7616C8.48623 10.3376 8.66613 9.91445 8.84553 9.49207ZM3.1405 11.0977C3.8325 11.8924 4.59062 12.6268 5.4148 13.3007C5.59956 14.3465 5.8951 15.3609 6.30139 16.3438C5.27064 16.4279 4.30051 16.235 3.39106 15.7651C3.41851 15.6363 3.46991 15.5119 3.54525 15.3917C3.74001 14.6119 3.46375 14.0581 2.71648 13.7301C2.55178 13.6916 2.38474 13.6667 2.21536 13.6554C2.32857 12.7352 2.63695 11.8826 3.1405 11.0977ZM17.8271 11.0977C18.3799 11.8699 18.6882 12.7287 18.7522 13.6741C17.9124 13.7221 17.4627 14.1515 17.4031 14.9623C17.3933 15.2418 17.4704 15.4969 17.6343 15.7277C17.2492 15.9789 16.8252 16.1469 16.3623 16.2318C15.8148 16.3408 15.2623 16.3782 14.7047 16.3438C15.111 15.3609 15.4066 14.3465 15.5913 13.3007C16.4159 12.6389 17.1611 11.9046 17.8271 11.0977ZM6.30139 13.9728C7.30525 14.6585 8.37174 15.2497 9.50083 15.7464C8.70479 16.035 7.88246 16.2093 7.0338 16.2691C6.69273 15.5331 6.44861 14.7676 6.30139 13.9728ZM14.7047 13.9728C14.5575 14.7676 14.3134 15.5331 13.9723 16.2691C13.1238 16.2093 12.3014 16.0351 11.5053 15.7464C12.6344 15.2497 13.7009 14.6585 14.7047 13.9728ZM2.13827 14.3462C2.69078 14.3399 2.94133 14.6012 2.88994 15.1303C2.69361 15.5422 2.37881 15.6605 1.94553 15.485C1.5854 15.1965 1.54686 14.8729 1.82989 14.5142C1.93008 14.4472 2.03288 14.3912 2.13827 14.3462ZM18.5595 14.3462C19.0989 14.3273 19.3623 14.5762 19.3497 15.0929C19.1406 15.567 18.8001 15.6853 18.3282 15.4477C18.0198 15.124 18.0198 14.8005 18.3282 14.4768C18.414 14.4417 18.4911 14.3981 18.5595 14.3462ZM10.3874 16.1758C10.4656 16.1697 10.5427 16.176 10.6187 16.1945C11.5911 16.5544 12.5933 16.7971 13.6254 16.9226C13.3052 17.6476 12.8298 18.2637 12.1992 18.7709C11.0684 19.5923 9.93769 19.5923 8.80698 18.7709C8.17634 18.2637 7.7009 17.6476 7.38072 16.9226C8.42097 16.8014 9.4232 16.5525 10.3874 16.1758Z" fill="#868688"/>
</svg>
