<svg width="632" height="422" viewBox="0 0 632 422" fill="none" xmlns="http://www.w3.org/2000/svg">
<mask id="mask0_1203_428" style="mask-type:luminance" maskUnits="userSpaceOnUse" x="0" y="0" width="632" height="422">
<path d="M10.985 0H622C627.523 0 632 4.47716 632 10V411.38C632 416.903 627.523 421.38 622 421.38H10.985C5.46216 421.38 0.985046 416.903 0.985046 411.38V10C0.985046 4.47715 5.46216 0 10.985 0Z" fill="white"/>
</mask>
<g mask="url(#mask0_1203_428)">
<path d="M291.479 401.07C300.448 390.687 308.954 379.622 314.078 366.879C319.202 354.137 320.649 339.439 315.458 326.73C314.675 324.809 313.539 322.761 311.562 322.146C309.038 321.37 306.556 323.233 304.747 325.121C301.007 329.217 297.765 333.744 295.088 338.605C285.594 354.947 278.748 372.694 274.803 391.185C273.844 395.693 272.734 403.919 277.672 406.75C282.838 409.725 288.391 404.627 291.479 401.07Z" fill="#23276E"/>
<path d="M264.716 358.628C282.232 385.647 308.584 404.576 337.913 418.675C341.514 420.411 345.628 419.981 349.229 418.254C363.406 411.453 374.142 398.811 381.352 384.83C388.563 370.848 392.568 355.46 396.227 340.163C398.981 329.282 401.16 318.263 402.756 307.152C405.331 287.381 404.7 267.206 408.696 247.67C411.313 234.903 421.493 224.916 428.047 213.69C432.885 205.389 437.866 195.495 434.189 186.612C432.58 183.057 429.983 180.041 426.71 177.924C423.49 175.695 419.847 174.152 416.008 173.389C412.011 172.726 407.949 172.543 403.909 172.842C392.223 173.356 379.636 175.235 371.315 183.469C369.251 185.405 367.686 187.814 366.755 190.489C365.308 195.091 366.545 200.063 367.596 204.816C370.381 216.901 372.148 229.576 369.329 241.653C367.933 247.662 365.434 253.342 363.12 259.065C353.667 282.44 347.133 306.896 338.77 330.677C336.319 337.645 327.468 339.22 322.581 333.682C321.097 332 319.604 330.323 318.091 328.66C314.726 324.977 311.36 321.252 307.263 318.403C303.165 315.555 298.26 313.625 293.296 313.954C286.952 314.375 281.467 318.327 276.368 322.128C272.119 325.297 267.744 328.601 265.145 333.228C261.081 340.576 260.122 351.532 264.716 358.628Z" fill="#F0C49B"/>
<path d="M426.151 200.685C422.863 200.374 416.955 199.674 413.677 200.076C413.232 200.131 412.794 200.157 412.368 200.157C410.3 200.158 407.807 201.172 406.337 202.626C405.371 203.583 404.195 204.299 402.902 204.719C401.61 205.139 400.238 205.251 398.895 205.045C396.753 204.717 394.002 205.135 392.004 205.973C390.563 206.577 388.994 206.815 387.999 206.358C386.096 205.371 384.358 204.091 382.85 202.566C378.952 198.964 375.201 195.208 371.605 191.306C369.536 189.061 369.181 185.619 371.366 183.486C379.687 175.252 392.273 173.372 403.96 172.858C408 172.559 412.061 172.743 416.058 173.406C419.879 174.17 423.503 175.707 426.71 177.923C429.964 180.046 432.542 183.058 434.139 186.604C435.113 189.076 435.544 191.717 435.417 194.347C435.315 196.455 434.181 198.42 432.301 199.377C431.067 200.006 429.734 200.436 428.35 200.644C427.637 200.741 426.891 200.755 426.151 200.685Z" fill="#E0A988"/>
<path d="M371.34 183.469C379.661 175.235 392.248 173.356 403.934 172.842C407.974 172.543 412.036 172.726 416.033 173.389C419.864 174.155 423.497 175.698 426.71 177.924C429.964 180.046 432.542 183.059 434.139 186.604C434.356 187.136 434.546 187.678 434.708 188.228C435.366 190.464 434.726 192.929 433.003 194.5C431.251 196.097 429.072 197.102 426.095 196.726C425.229 196.621 424.381 196.403 423.571 196.077C421.53 195.274 418.361 194.853 416.26 195.485C415.937 195.582 415.606 195.654 415.267 195.697C414.339 195.827 413.392 195.719 412.517 195.383C411.245 194.895 409.506 194.998 408.747 196.129C408.327 196.756 407.911 197.385 407.535 198.032C406.694 199.481 405.852 200.939 404.422 201.732C403.285 202.309 401.992 202.501 400.737 202.279C399.608 202.085 398.567 201.544 397.758 200.732C396.949 199.92 396.411 198.876 396.219 197.745C395.776 195.345 393.13 195.341 393.285 197.776C393.393 199.468 393.669 201.153 394.115 202.804C394.207 203.144 393.878 203.464 393.528 203.509C393.438 203.521 393.445 203.568 393.399 203.646C392.267 205.553 389.894 207.225 387.991 206.35C386.087 205.362 384.35 204.083 382.841 202.557C378.943 198.955 375.191 195.198 371.594 191.295C369.525 189.05 369.163 185.61 371.34 183.469Z" fill="#C69075"/>
<path d="M265.17 333.185C267.77 328.558 272.145 325.255 276.394 322.086C281.492 318.285 286.978 314.333 293.322 313.911C298.286 313.583 303.199 315.521 307.288 318.361C308.373 319.158 309.428 319.993 310.451 320.865C313.948 323.844 314.164 328.971 311.845 332.936C304.589 345.347 299.713 359.128 295.996 373.355C294.083 380.68 285.231 383.672 280.052 378.151C274.382 372.108 269.238 365.577 264.682 358.628C260.122 351.532 261.081 340.576 265.17 333.185Z" fill="#E0A988"/>
<path d="M404.136 104.797C404.561 100.093 404.561 95.3598 404.136 90.6555C404.016 88.8318 403.462 87.0633 402.521 85.4978C402.037 84.7271 401.346 84.1082 400.528 83.7118C399.71 83.3154 398.797 83.1575 397.893 83.2561C395.125 83.7786 393.973 87.057 393.426 89.8212C388.756 113.36 390.245 138.246 381.739 160.681C379.493 166.622 376.54 172.378 375.581 178.657C374.621 184.935 376.127 192.141 381.234 195.874C386.072 199.431 392.921 199.018 398.415 196.607C400.154 195.914 401.737 194.876 403.068 193.557C405.592 190.919 406.324 187.101 406.669 183.444C407.32 176.597 406.9 169.69 405.423 162.973C404.313 157.916 401.402 153.517 401.57 148.292C402.024 133.822 403.278 119.284 404.136 104.797Z" fill="#F0C49B"/>
<path d="M380.266 164.3C380.905 162.737 381.889 161.32 383.266 160.344C386.796 157.843 390.826 156.053 395.109 155.667C396.177 155.574 397.372 155.523 398.137 154.765C398.672 154.115 399.001 153.32 399.08 152.481C400.061 147.424 401.049 142.393 402.041 137.387C401.839 141.028 401.677 144.68 401.553 148.343C401.385 153.568 404.296 157.942 405.407 163.024C406.884 169.741 407.304 176.648 406.652 183.495C406.307 187.11 405.55 190.928 403.051 193.608C401.72 194.927 400.138 195.965 398.398 196.659C392.904 199.069 386.056 199.482 381.218 195.925C376.111 192.158 374.605 184.969 375.564 178.708C376.327 173.71 378.341 169.015 380.266 164.3Z" fill="#E0A988"/>
<path d="M376.2 175.567C376.642 173.783 377.697 172.213 379.071 170.992C379.174 170.901 379.278 170.809 379.384 170.718C380.917 169.281 382.611 168.025 384.432 166.976C385.567 166.376 386.764 165.935 387.997 165.63C393.518 164.265 398.952 160.949 400.216 155.405C400.498 153.989 402.454 154.139 402.93 155.501C403.789 157.958 404.836 160.389 405.407 163.007C406.884 169.723 407.304 176.63 406.652 183.477C406.307 187.093 405.55 190.91 403.051 193.59C401.72 194.91 400.138 195.947 398.398 196.641C392.904 199.051 386.056 199.464 381.218 195.908C376.111 192.141 374.605 184.952 375.564 178.69C375.732 177.64 375.944 176.598 376.2 175.567Z" fill="#C69075"/>
<path d="M399.745 106.289C397.734 106.084 395.706 106.403 393.855 107.216" stroke="#BA7A5D" stroke-linecap="round" stroke-linejoin="round"/>
<path d="M399.45 109.23C398.672 108.937 397.836 108.828 397.009 108.911C396.181 108.995 395.384 109.268 394.679 109.711" stroke="#BA7A5D" stroke-linecap="round" stroke-linejoin="round"/>
<path d="M398.617 127.147C397.306 126.995 395.98 127.055 394.688 127.324" stroke="#BA7A5D" stroke-linecap="round" stroke-linejoin="round"/>
<path d="M398.617 129.33L394.149 129.692" stroke="#BA7A5D" stroke-linecap="round" stroke-linejoin="round"/>
<path d="M398.609 156.088C396.204 155.654 393.735 155.737 391.364 156.332" stroke="#BA7A5D" stroke-linecap="round" stroke-linejoin="round"/>
<path d="M317.99 350.529C318.051 348.982 318.136 347.436 318.246 345.892C318.684 339.737 326.089 337.581 330.177 342.204C331.804 344.044 332.422 346.568 331.87 348.961C331.548 350.352 331.239 351.757 330.943 353.171C328.814 363.321 317.893 364.649 317.923 354.277C317.926 353.031 317.949 351.781 317.99 350.529Z" fill="#E0A988"/>
<path d="M388.933 253.511C389.075 250.566 402.028 236.565 404.975 236.672C405.924 236.707 406.874 236.725 407.824 236.726C410.013 236.73 411.515 239.114 410.694 241.142C409.839 243.251 409.165 245.432 408.68 247.662C404.683 267.198 405.314 287.373 402.74 307.144C401.144 318.255 398.964 329.274 396.211 340.155C395.399 343.554 394.57 346.957 393.691 350.348C392.423 355.235 386.792 353.719 387.166 348.684C389.69 317.047 387.393 285.207 388.933 253.511Z" fill="#E0A988"/>
<path d="M437.033 173.795C439.288 175.092 440.104 178.093 439.557 180.638C439.01 183.183 437.42 185.366 435.763 187.38C434.069 189.55 432.087 191.478 429.873 193.111C428.875 193.861 427.727 194.387 426.508 194.653C425.901 194.778 425.274 194.767 424.672 194.622C424.07 194.476 423.507 194.199 423.025 193.81C421.207 192.192 421.721 189.259 422.553 186.967C424.421 181.834 429.234 169.294 437.033 173.795Z" fill="#F0C49B"/>
<path d="M422.562 186.942C423.302 184.905 424.51 181.687 426.193 178.838C428.316 175.242 431.249 177.681 429.241 181.343C427.965 183.669 426.495 185.887 424.846 187.972C423.756 189.348 421.899 188.567 422.562 186.942Z" fill="#E0A988"/>
<path d="M423.218 160.226C424.358 160.16 425.498 160.353 426.553 160.791C427.608 161.229 428.55 161.9 429.309 162.754C430.773 164.617 430.916 167.204 430.63 169.555C429.966 174.966 427.408 179.947 424.505 184.556C422.545 187.683 420.181 190.869 416.706 192.099C414.956 192.714 412.819 192.706 411.439 191.467C409.756 189.942 409.756 187.295 410.093 185.028C410.835 179.409 412.195 173.889 414.148 168.569C416.083 163.277 417 160.344 423.218 160.226Z" fill="#F0C49B"/>
<path d="M411.439 191.467C409.756 189.942 409.756 187.296 410.093 185.029C410.835 179.409 412.195 173.889 414.148 168.569C415.738 164.23 419.125 166.009 418.268 170.549C416.91 177.74 414.686 184.752 411.637 191.428C411.602 191.505 411.501 191.525 411.439 191.467Z" fill="#E0A988"/>
<path d="M416.799 164.381C416.858 168.552 415.612 172.623 414.376 176.609C412.138 183.798 409.807 191.088 405.592 197.316C404.925 198.449 404.003 199.41 402.9 200.122C402.345 200.474 401.7 200.656 401.044 200.646C400.656 200.64 400.274 200.566 399.914 200.431C399.416 200.243 398.992 199.894 398.677 199.465C398.279 198.923 398.007 198.296 397.885 197.628C395.689 189.2 400.409 180.688 401.166 172.042C401.629 166.791 400.611 161.431 401.562 156.24C401.696 155.183 402.089 154.175 402.706 153.307C403.274 152.69 403.984 152.222 404.775 151.944C405.566 151.666 406.413 151.587 407.241 151.714C413.551 152.38 416.723 158.54 416.799 164.381Z" fill="#F0C49B"/>
<path d="M399.324 194.602C400.047 192.917 400.821 191.088 402.268 189.925C403.715 188.762 406.071 188.484 407.316 189.849C407.649 190.267 407.895 190.749 408.04 191.264C408.326 192.283 407.92 193.336 407.404 194.261C406.821 195.305 406.194 196.324 405.524 197.316C404.858 198.449 403.936 199.41 402.832 200.122C402.278 200.474 401.633 200.656 400.976 200.646C400.477 200.638 399.987 200.518 399.543 200.299C399.263 200.161 399.015 199.962 398.811 199.726C397.926 198.706 398.183 197.223 398.722 195.984L399.324 194.602Z" fill="white"/>
<path d="M365.072 195.065C363.819 192.326 364.34 189.031 365.762 186.368C367.319 183.777 369.311 181.476 371.652 179.567C374.501 176.999 377.446 174.536 380.486 172.176C382.17 170.573 384.21 169.394 386.437 168.736C388.665 168.079 391.017 167.96 393.3 168.392C399.24 168.828 405.153 169.59 411.01 170.676C412.693 170.988 414.502 171.417 415.545 172.766C416.706 174.283 416.479 176.508 415.545 178.168C413.635 181.539 409.555 183.005 405.769 183.966C403.153 184.626 400.514 185.188 397.857 185.65C394.676 186.203 391.635 188.15 391.673 191.378C391.697 193.336 392.102 195.354 392.517 197.299C393.258 200.726 393.992 204.156 394.722 207.589C395.434 210.288 395.771 213.073 395.723 215.865C395.538 218.646 394.494 221.494 392.357 223.256C389.194 225.834 384.348 225.396 380.898 223.205C377.449 221.014 375.126 217.457 373.175 213.867C369.775 207.69 367.992 201.453 365.072 195.065Z" fill="#F0C49B"/>
<path d="M401.57 175.682C400.997 174.855 400.626 173.905 400.489 172.907C400.351 171.91 400.451 170.894 400.779 169.943C400.928 169.481 401.393 169.208 401.874 169.269C404.921 169.655 407.961 170.124 410.993 170.676C412.676 170.988 414.485 171.418 415.528 172.766C415.965 173.423 416.231 174.179 416.301 174.965C416.432 176.42 415.046 177.391 413.593 177.544C412.199 177.692 410.802 177.807 409.403 177.89C406.585 178.05 403.337 177.924 401.57 175.682Z" fill="white"/>
<path d="M387.629 186.351C387.707 185.2 388.152 184.104 388.899 183.225C390.313 181.699 392.635 181.607 394.705 181.539C401.666 181.254 408.548 179.966 415.141 177.717C415.415 177.624 415.665 177.896 415.528 178.151C413.618 181.522 409.538 182.989 405.752 183.95C403.136 184.61 400.497 185.172 397.84 185.634C394.659 186.187 391.618 188.134 391.657 191.362C391.68 193.32 392.085 195.338 392.5 197.282C393.241 200.709 393.976 204.139 394.705 207.572C394.94 208.668 395.176 209.78 395.361 210.893C393.586 205.263 391.154 199.793 389.093 194.231C388.176 191.72 387.326 189.065 387.629 186.351Z" fill="#E0A988"/>
<path d="M4.41466 456.094C2.1702 455.03 0.519592 453.047 -0.234573 450.68C-19.4346 390.427 0.568695 327.218 -7.90817 264.138C-8.48869 259.84 -9.00194 255.205 -6.9238 251.395C-4.10527 246.204 2.33112 244.476 8.08597 243.069C31.788 237.285 53.9936 229.582 75.7005 218.59C77.3631 217.748 79.2223 217.385 81.0853 217.435C95.9288 217.83 110.657 212.75 125.556 213.336C134.743 213.699 143.939 215.966 152.656 218.907L233.594 246.187C236.572 247.19 239.837 248.437 241.275 251.244C242.302 253.249 242.117 255.634 241.932 257.876C240.998 267.391 239.298 276.813 237.59 286.218L219.619 385.47C216.91 400.395 214.184 415.397 209.211 429.732C206.797 436.651 199.713 440.022 193.714 444.236C176.045 456.793 155.348 464.538 134.121 468.735C101.931 475.174 35.9149 471.028 4.41466 456.094Z" fill="#EA4B98"/>
<g style="mix-blend-mode:multiply" opacity="0.5">
<path d="M202.068 368.741C201.673 359.766 199.216 351.043 197.55 342.203C194.74 327.353 194.185 311.863 197.862 297.216C201.538 282.569 209.641 268.748 221.891 259.89C227.402 256.062 233.385 252.969 239.689 250.687C240.283 250.472 240.964 250.664 241.25 251.227C242.277 253.233 242.092 255.618 241.907 257.859C240.973 267.374 239.273 276.796 237.565 286.201L219.594 385.453C216.885 400.379 214.159 415.38 209.186 429.715C206.797 436.651 199.713 440.022 193.714 444.236C187.624 448.539 180.951 441.207 184.32 434.555C191.168 421.033 196.292 406.664 199.544 391.783C201.227 384.215 202.439 376.478 202.068 368.741Z" fill="#23276E"/>
</g>
<g opacity="0.5">
<path d="M78.8524 234.389C77.2104 233.316 75.6231 232.166 74.0957 230.942C69.7447 227.457 71.1338 220.903 76.1035 218.377C77.4946 217.67 79.0625 217.359 80.6221 217.412C95.6225 217.928 110.502 212.736 125.556 213.328C134.743 213.69 143.939 215.957 152.656 218.899C157.125 220.42 158.302 226.133 154.502 228.934C142.084 238.085 127.363 244.092 112.077 244.181C100.289 244.213 88.7451 240.811 78.8524 234.389Z" fill="white"/>
</g>
<g style="mix-blend-mode:multiply" opacity="0.5">
<path d="M64.1472 372.106C55.3373 366.125 63.4383 360.048 72.3741 365.84C81.2517 371.594 78.9178 381.207 69.8497 375.758C68.362 374.864 66.892 373.936 65.441 372.972C65.0072 372.686 64.5759 372.397 64.1472 372.106Z" fill="#23276E"/>
</g>
<path d="M234.38 249.355C236.993 247.916 240.036 249.182 242.133 251.303C250.733 260.003 259.604 268.433 268.746 276.594C281.929 288.332 292.66 300.997 304.809 314.426C308.546 318.557 308.229 324.925 304.775 329.296C297.562 338.427 292.836 349.225 288.181 360.247C283.537 371.262 278.842 382.42 277.134 394.252C276.671 397.499 270.482 401.8 267.795 399.921C258.417 393.367 249.646 385.809 240.72 378.712C230.026 370.2 219.047 361.359 212.459 349.375C208.252 341.723 206.023 333.085 205.122 324.387C202.787 300.764 209.832 277.169 224.734 258.711C227.404 255.398 230.597 251.438 234.38 249.355Z" fill="#EA4B98"/>
<path opacity="0.5" d="M272.019 378.054C275.283 365.176 280.836 352.99 287.104 341.275C291.395 333.253 296.123 325.321 302.059 318.474C303.767 316.504 306.773 316.558 308.541 318.475C310.251 320.331 310.131 323.232 308.402 325.07C299.067 334.992 293.58 347.456 288.189 360.221C283.545 371.236 278.85 382.394 277.142 394.226C277.012 395.143 276.903 396.079 276.835 397.018C276.651 399.592 272.262 402.928 270.122 401.485C269.445 401.029 269.042 400.259 269.061 399.443C269.226 392.225 270.218 385.048 272.019 378.054Z" fill="white"/>
<path d="M79.1495 227.747C75.4372 224.855 75.2567 219.598 76.6439 215.101C76.832 214.492 76.9989 213.875 77.1442 213.252C82.9789 192.183 79.7822 169.139 71.5891 148.624C70.0511 144.773 72.923 140.471 77.0516 140.859C77.1215 140.86 77.1912 140.863 77.2604 140.87C77.8749 140.932 78.4286 141.329 78.7016 141.883C78.7632 142.009 78.8137 142.14 78.8521 142.275C80.3209 145.88 82.5444 149.127 85.3726 151.798C88.5697 154.824 92.4568 157.023 96.3607 159.046C112.402 167.463 129.61 173.429 147.414 176.744C150.846 177.365 154.092 181.54 153.313 184.94C151.002 195.028 151.101 205.527 153.606 215.575C154.694 219.937 153.382 224.718 149.546 227.062C144.726 230.007 139.646 232.511 134.365 234.541C129.231 236.619 123.862 238.059 118.379 238.83C104.356 240.613 90.209 236.36 79.1495 227.747Z" fill="#F0C49B"/>
<path d="M119.38 200.181C108.182 198.083 96.8654 194.181 88.7295 186.2C84.7461 182.287 81.6977 177.587 78.9928 172.672C78.5093 171.793 78.1776 170.841 77.9754 169.858C76.4819 162.602 74.3539 155.496 71.6184 148.622C70.0871 144.775 72.9538 140.471 77.0768 140.859C77.1467 140.86 77.2164 140.863 77.2855 140.87C77.9 140.932 78.4537 141.329 78.7268 141.883C78.7884 142.009 78.8389 142.14 78.8773 142.275C80.3387 145.878 82.5535 149.125 85.3726 151.798C88.5697 154.824 92.4567 157.023 96.3606 159.046C112.402 167.463 129.61 173.429 147.414 176.744C150.843 177.365 154.087 181.541 153.308 184.938C152.657 187.78 152.196 190.663 151.931 193.566C151.502 198.242 147.998 202.28 143.303 202.316C135.285 202.377 127.274 201.664 119.38 200.181Z" fill="#E0A988"/>
<path d="M73.5915 139.661C69.4936 141.048 64.9074 139.736 62.5836 136.087C57.5357 128.16 53.459 118.944 51.4995 110.098C47.9322 94.0013 52.6942 79.1519 60.7544 64.8755C64.2965 58.6306 68.4612 52.5627 74.216 48.3742C78.0556 45.5797 82.6143 43.6029 87.205 43.2876C91.3542 43.0025 95.7246 41.9235 99.168 39.5911C104.396 36.0502 111.058 33.9095 116.915 33.2045C124.966 32.2353 133.178 33.7607 140.792 36.5756C148.476 39.4404 155.718 43.3754 162.306 48.2647C171.258 54.973 178.51 64.6058 180.454 75.7471C182.646 88.1904 178.168 100.583 174.698 112.913C173.728 116.36 171.106 119.169 167.601 119.902C159.66 121.564 151.532 122.098 143.426 123.018C119.853 125.657 96.2241 132 73.5915 139.661Z" fill="#512E21"/>
<path d="M97.0337 34.7471V34.7471C95.7705 36.9523 88.9055 38.3556 86.8841 36.8152C86.782 36.7374 86.6792 36.6604 86.5757 36.5843" stroke="#512E21" stroke-width="1.5" stroke-linecap="round" stroke-linejoin="round"/>
<path d="M175.414 108.817C175.414 111.901 175.154 114.986 175.28 118.087C175.423 121.501 176.045 124.872 176.264 128.285C176.988 139.552 173.261 150.576 169.584 161.245C167.985 165.889 166.37 170.566 163.846 174.729C161.322 178.893 157.788 182.693 153.278 184.615C150.163 185.809 146.862 186.445 143.527 186.494C129.72 187.177 116.326 182.685 103.453 177.645C97.8332 175.446 92.213 172.757 88.0819 168.375C83.791 163.807 81.4605 157.781 79.4917 151.831C74.1912 135.819 70.8342 118.795 73.2909 102.109C74.0818 96.757 75.4616 91.4982 76.0253 86.0961C76.5217 81.3598 76.3871 76.5055 77.6407 71.904C79.9881 63.2826 87.0975 56.4984 95.3091 52.9503C103.521 49.4023 112.666 48.7365 121.568 49.3517C129.325 49.849 137.133 51.2648 144.133 54.6696C154.453 59.6957 162.327 68.7405 167.997 78.8244C169.318 81.1736 170.273 84.0294 170.976 86.6313C172.541 92.4274 175.378 102.966 175.414 108.817Z" fill="#F0C49B"/>
<path d="M120.886 106.668C120.886 109.55 122.182 111.893 123.781 111.893C125.379 111.893 126.675 109.55 126.675 106.668C126.675 103.786 125.379 101.435 123.781 101.435C122.182 101.435 120.886 103.761 120.886 106.668Z" fill="#331810"/>
<path d="M160.717 111.862C158.149 107.412 152.853 108.811 154.927 113.512C155.985 115.745 157.237 117.88 158.671 119.891C159.858 121.619 161.061 123.321 162.306 125.007C162.94 125.718 163.36 126.595 163.518 127.535C163.619 128.959 162.517 130.139 161.49 131.134L161.015 131.595C159.361 133.201 160.636 135.061 162.365 133.536C164.586 131.673 166.934 129.541 167.346 126.676C167.724 124.012 166.311 121.459 164.948 119.133C163.5 116.675 162.101 114.262 160.717 111.862Z" fill="#E0A988"/>
<path d="M165.949 132.768C165.375 130.192 167.663 127.337 171.49 125.323C173.648 124.187 176.105 125.809 176.264 128.243C176.274 128.406 176.283 128.57 176.291 128.734C176.534 133.599 171.876 138.161 167.866 135.394C166.856 134.697 166.179 133.812 165.949 132.768Z" fill="#E89F87"/>
<path d="M129.325 95.122C126.898 94.1561 124.249 93.8897 121.678 94.3529C119.107 94.816 116.717 95.9903 114.778 97.743" stroke="#331810" stroke-width="1.5" stroke-linecap="round" stroke-linejoin="round"/>
<path d="M73.2907 102.075C74.0816 96.7238 75.4614 91.465 76.0251 86.0629C76.5215 81.3266 76.3869 76.4723 77.6405 71.8708C79.9879 63.2494 87.0973 56.4651 95.3089 52.9171C103.521 49.3691 112.666 48.7033 121.568 49.3185C129.325 49.8158 137.133 51.2316 144.133 54.6364C155.305 60.1098 163.609 70.2609 169.356 81.3406C169.755 82.1096 170.025 83.0311 170.239 83.8706C170.814 86.1296 172.196 90.9579 173.386 96.0423C173.814 97.8697 171.738 98.3944 170.915 96.7079C170.123 95.0869 167.13 96.1297 166.977 97.9272C166.853 99.3823 165.008 99.7036 164.237 98.4634C161.045 93.3313 157.38 88.515 153.291 84.077C151.791 82.4496 148.935 84.2227 149.279 86.4085C149.606 88.4801 146.691 89.4836 145.131 88.0814C141.886 85.1637 137.916 82.9801 133.851 81.3266C127.533 78.7562 120.819 77.2729 114.424 74.9048C107.017 71.9856 98.0138 78.1122 96.8704 85.9917C96.5192 88.412 96.035 90.8161 95.4183 93.1927C93.0797 101.779 89.795 110.077 85.6249 117.936C81.9145 125.244 72.6154 123.153 72.4709 114.958C72.3951 110.659 72.6444 106.357 73.2907 102.075Z" fill="#E0A988"/>
<path d="M157.477 98.7043C159.905 97.7376 162.554 97.4699 165.126 97.9316C167.698 98.3932 170.09 99.5657 172.032 101.317" stroke="#331810" stroke-width="1.5" stroke-linecap="round" stroke-linejoin="round"/>
<path d="M162.416 154.782C156.577 152.417 150.264 151.467 143.99 152.009C139.026 152.439 133.65 153.695 129.325 151.242" stroke="#331810" stroke-width="1.5" stroke-linecap="round" stroke-linejoin="round"/>
<path d="M154.793 147.306C153.619 146.783 152.294 146.717 151.074 147.12" stroke="#BA7A5D" stroke-width="1.5" stroke-linecap="round" stroke-linejoin="round"/>
<path d="M153.909 160.032C152.302 159.962 150.718 159.623 149.223 159.029" stroke="#BA7A5D" stroke-width="1.5" stroke-linecap="round" stroke-linejoin="round"/>
<path d="M160.64 109.441C160.64 112.332 161.927 114.674 163.526 114.674C165.124 114.674 166.42 112.332 166.42 109.441C166.42 106.55 165.124 104.216 163.526 104.216C161.927 104.216 160.64 106.55 160.64 109.441Z" fill="#331810"/>
<path d="M109.245 136.646C102.255 135.09 97.2496 130.849 98.0651 127.173C98.8807 123.498 105.208 121.779 112.198 123.335C119.188 124.891 124.194 129.133 123.378 132.808C122.562 136.484 116.235 138.202 109.245 136.646Z" fill="#E89F87"/>
<path opacity="0.3" d="M168.642 101.831C176.924 102.72 183.606 104.17 183.934 105.11C183.951 105.157 183.989 105.202 184.038 105.202C184.088 105.202 184.126 105.245 184.121 105.294L183.18 114.118C183.055 116.241 182.501 118.316 181.552 120.218C180.602 122.12 179.277 123.808 177.656 125.182C176.035 126.555 174.153 127.584 172.123 128.207C170.094 128.83 167.959 129.033 165.848 128.804C163.738 128.576 161.695 127.92 159.845 126.877C157.995 125.834 156.376 124.426 155.086 122.737C153.796 121.049 152.861 119.116 152.339 117.054C151.818 114.993 151.719 112.848 152.05 110.747L153.009 101.822C153.077 100.946 160.093 100.912 168.642 101.831Z" fill="white"/>
<g opacity="0.43">
<path opacity="0.5" d="M165.89 128.1C161.759 127.654 157.973 125.585 155.364 122.345C152.755 119.106 151.536 114.962 151.974 110.823L152.933 101.898C152.933 101.195 154.186 101.8 154.565 102.392C159.181 109.606 163.656 116.9 167.99 124.274C169.037 126.054 167.945 128.308 165.89 128.1Z" fill="white"/>
<path opacity="0.5" d="M168.641 101.831C169.933 101.979 171.081 102.728 171.725 103.858C174.525 108.772 177.161 113.789 179.635 118.911C180.291 120.27 180.207 121.908 179.193 123.026C177.543 124.844 174.747 124.097 173.529 121.966C170.783 117.162 167.968 112.4 165.083 107.681C163.413 104.949 165.458 101.489 168.641 101.831Z" fill="white"/>
</g>
<path d="M168.642 101.831C176.924 102.72 183.606 104.17 183.934 105.11C183.951 105.157 183.989 105.202 184.038 105.202V105.202C184.088 105.202 184.126 105.245 184.121 105.294L183.18 114.118C183.055 116.241 182.501 118.316 181.552 120.218C180.602 122.12 179.277 123.808 177.656 125.182C176.035 126.555 174.153 127.584 172.123 128.207C170.094 128.83 167.959 129.033 165.848 128.804C163.738 128.576 161.695 127.92 159.845 126.877C157.995 125.834 156.376 124.426 155.086 122.737C153.796 121.049 152.861 119.116 152.339 117.054C151.818 114.993 151.719 112.848 152.05 110.747L153.009 101.822C153.077 100.946 160.093 100.912 168.642 101.831Z" stroke="#23276E" stroke-width="2" stroke-linecap="round" stroke-linejoin="round"/>
<path d="M151.033 128.923C152.63 133.154 158.246 134.292 161.49 131.142C162.516 130.148 163.618 128.968 163.517 127.543C163.36 126.603 162.94 125.727 162.306 125.015C161.061 123.33 159.858 121.644 158.671 119.9C157.237 117.888 155.984 115.753 154.927 113.52C153.878 111.142 153.236 108.622 153.013 106.063C152.826 103.913 150.402 102.883 149.728 104.932C147.919 110.368 147.969 116.284 148.996 121.914C149.44 124.353 150.177 126.658 151.033 128.923Z" fill="#F0C49B"/>
<path d="M149.593 128.985C152.538 128.091 155.727 129.524 158.781 129.103C160.336 128.821 161.818 128.233 163.142 127.374C163.297 127.274 163.506 127.359 163.517 127.543C163.618 128.968 162.516 130.148 161.49 131.142L156.89 135.607C156.145 136.33 154.835 135.979 154.167 135.184C153.668 134.592 153.046 134.116 152.345 133.79C151.643 133.464 150.879 133.296 150.106 133.297C149.333 133.298 148.569 133.469 147.868 133.797C146.691 134.558 145.345 133.49 145.946 132.223C146.106 131.886 146.296 131.562 146.516 131.256C147.279 130.195 148.355 129.4 149.593 128.985Z" fill="#E0A988"/>
<path d="M153.413 99.2437C152.42 104.041 152.95 109.03 154.927 113.512C155.984 115.745 157.237 117.88 158.671 119.891C159.858 121.619 161.061 123.321 162.306 125.007C162.94 125.718 163.36 126.595 163.517 127.535C163.618 128.959 162.516 130.139 161.49 131.134L154.608 137.817" stroke="#331810" stroke-width="1.5" stroke-linecap="round" stroke-linejoin="round"/>
<path d="M75.7223 62.0274C78.137 58.6564 80.6021 55.1673 83.9339 52.6559C87.0469 50.313 90.7489 48.914 94.3919 47.5488C98.8408 45.7471 103.438 44.3371 108.131 43.335C111.625 42.7256 115.169 42.4434 118.715 42.4922C127.659 42.5428 136.67 43.9418 144.924 47.3886C153.177 50.8355 160.657 56.4062 165.68 63.8141C170.512 70.9774 172.742 79.3568 173.031 87.9359C173.062 88.8686 170.071 89.2701 169.558 88.4901C167.697 85.6584 165.573 83.0088 163.215 80.5766C159.967 77.0201 156.576 73.6322 153.329 70.0758C155.351 72.5254 157.153 75.132 158.721 77.8644C160.49 80.9482 155.833 82.9973 153.396 80.4087C150.038 76.8415 146.299 73.5809 142.337 70.6664C140.805 69.5397 138.589 72.2913 139.687 73.844C140.789 75.4019 137.828 77.4698 136.317 76.3054C133.826 74.3869 131.147 72.6994 128.345 71.2751C127.279 70.7336 126.694 72.0895 127.692 72.7475C128.62 73.3596 127.893 74.7227 126.832 74.3917C117.237 71.3999 107.164 69.5498 98.4346 64.9501C96.4499 63.9044 93.8585 65.3323 93.8122 67.5752C93.6404 75.8881 92.3877 84.1384 90.0896 92.118C89.8465 92.9619 88.065 92.5811 88.0363 91.7034C88.0076 90.827 86.9671 90.9382 86.9197 91.8137C86.5245 99.1119 84.8438 106.383 83.0252 113.495C81.8137 118.265 80.5012 123.153 77.4807 127.055C76.3785 128.488 74.6622 129.87 72.9542 129.322C72.4486 129.109 71.9929 128.794 71.6162 128.394C71.2395 127.995 70.9501 127.522 70.7667 127.004C70.0761 125.116 69.7368 123.116 69.7655 121.105C68.8821 101.367 64.2715 78.1579 75.7223 62.0274Z" fill="#512E21"/>
<g style="mix-blend-mode:multiply" opacity="0.5">
<path d="M155.222 72.4692C153.164 69.8147 155.404 66.4243 158.015 68.537C160.057 70.1892 161.943 72.0459 163.639 74.0862C168.798 80.2904 171.974 87.9057 172.754 95.942C172.755 95.9519 172.755 95.962 172.754 95.9719C172.736 96.1642 172.38 96.1562 172.354 95.9647C171.997 93.2979 171.045 90.736 169.558 88.4732C167.699 85.6398 165.575 82.9901 163.215 80.5597C159.967 77.0032 156.576 73.6153 153.329 70.0589C153.985 70.8426 154.616 71.6517 155.222 72.4692Z" fill="#512E21"/>
</g>
<g style="mix-blend-mode:multiply" opacity="0.5">
<path d="M124.989 58.791C124.997 58.791 125.004 58.7918 125.011 58.7933C127.436 59.2932 129.825 59.9569 132.16 60.7799C136.426 62.0946 140.187 64.6735 143.746 67.3703C146.204 69.1798 148.54 71.1505 150.737 73.2697C157.461 79.8863 161.842 88.3613 165.482 97.1155C165.491 97.1352 165.496 97.1555 165.5 97.1765C165.55 97.4893 165.105 97.6112 164.975 97.3224C158.449 82.8407 145.268 71.115 131.156 63.5951C131.018 63.5217 130.888 63.4351 130.767 63.3362C128.89 61.7983 126.941 60.3497 124.927 58.9953C124.836 58.9339 124.879 58.791 124.989 58.791Z" fill="#512E21"/>
</g>
<g style="mix-blend-mode:multiply" opacity="0.5">
<path d="M140.061 76.666C142.303 79.3953 144.318 82.3041 146.085 85.3633C146.243 85.7243 145.747 85.9882 145.514 85.6703C139.223 77.0916 129.69 70.7126 119.43 67.7869C119.263 67.7391 119.097 67.6801 118.938 67.6102C114.658 65.7359 115.652 61.6978 120.079 63.1919C121.334 63.6157 122.573 64.0949 123.792 64.6289C130.047 67.3699 135.607 71.4835 140.061 76.666Z" fill="#512E21"/>
</g>
<g style="mix-blend-mode:multiply" opacity="0.5">
<path d="M75.1082 113.419C79.0205 108.303 81.3426 102.109 82.6804 95.7969C83.5103 91.8807 83.9582 87.9094 84.281 83.9212C84.4156 82.2584 86.4221 82.0311 86.7357 83.6695C87.7285 93.6815 85.4989 103.736 83.0085 113.503C81.797 118.273 80.4845 123.161 77.464 127.063C76.3619 128.496 74.6455 129.878 72.9376 129.33C72.4319 129.118 71.9762 128.802 71.5995 128.403C71.2228 128.004 70.9334 127.53 70.75 127.013C70.0594 125.124 69.72 123.125 69.7488 121.113C69.7488 119.913 70.183 118.758 71.0435 117.921C72.4934 116.51 73.8512 115.006 75.1082 113.419Z" fill="#512E21"/>
</g>
<g style="mix-blend-mode:multiply" opacity="0.5">
<path d="M91.6122 63.436C91.4979 61.0574 94.4422 59.4463 96.4608 60.7096C97.2394 61.1968 98.0307 61.6632 98.8331 62.1115C101.448 63.5726 100.487 66.0988 97.857 64.6643C96.1029 63.7074 93.8356 64.9937 93.8069 66.9917C93.6464 78.1833 91.5219 89.2727 87.5182 99.7494C90.5148 87.8356 92.1987 75.6444 91.6122 63.436Z" fill="#512E21"/>
</g>
<path opacity="0.2" d="M80.5349 65.5664C81.595 73.3872 81.7465 81.4272 79.8787 89.0879C78.0109 96.7486 73.9892 104.047 67.8221 108.943C72.9964 103.642 73.9555 95.6361 74.6454 88.262C73.5853 93.3859 71.8942 98.4762 68.899 102.766C66.9288 105.587 65.3554 103.289 67.2496 100.416C70.3565 95.7032 72.5241 90.3623 73.4824 84.8316C73.7327 83.3872 75.6346 83.165 75.8186 84.6193C76.016 86.1789 78.8465 86.9388 79.2778 85.427C81.0829 79.0998 81.4069 72.4623 80.5349 65.5664Z" fill="white"/>
<path opacity="0.2" d="M64.9392 83.7529C64.1474 86.2713 66.5751 87.6813 67.4603 85.194C68.1149 83.3545 68.6647 81.4837 69.1083 79.5906C69.7953 76.6593 67.1141 76.2903 66.2964 79.1879C65.8643 80.7191 65.4145 82.2413 64.9392 83.7529Z" fill="white"/>
<path opacity="0.2" d="M156.93 52.4532C150.236 47.8254 142.742 44.5754 134.992 42.03C134.054 41.7221 133.48 43.3295 134.307 43.8693C135.089 44.3806 134.477 45.1326 133.644 44.7089C130.15 42.9328 126.474 41.5625 122.688 40.6187C120.178 39.9928 119.747 42.4575 122.209 43.2545C130.166 45.8299 137.96 48.8389 145.233 52.838C146.333 53.4425 147.44 52.1224 146.546 51.2426C145.603 50.3149 146.782 48.4609 147.933 49.1128C153.287 52.1448 158.295 55.7413 162.71 60.0465C169.735 66.8981 175.204 75.4269 177.61 84.9164C175.986 78.4777 174.867 72.6626 171.191 66.9403C167.437 61.2169 162.59 56.2935 156.93 52.4532Z" fill="white"/>
<path opacity="0.2" d="M113.642 52.5629C114.908 53.577 113.719 55.8415 112.208 55.2501C109.609 54.2323 107.027 53.1736 104.463 52.0741C102.962 51.428 103.513 50.4508 105.031 51.0557L114.122 54.6782C113.642 54.4872 113.14 54.2006 112.63 53.8447C108.9 51.245 110.036 49.7937 113.642 52.5629Z" fill="white"/>
<path opacity="0.2" d="M128.744 52.1247C134.684 55.3272 140.473 59.3303 143.99 65.1032C142.61 62.8446 138.63 60.8894 136.418 59.5241C133.641 57.7796 130.764 56.1531 127.92 54.5687C122.382 51.5185 117.256 47.7716 112.666 43.4189C117.142 47.2451 123.587 49.3351 128.744 52.1247Z" fill="white"/>
<path opacity="0.3" d="M125.026 96.5975C133.306 97.4865 139.987 98.9437 140.318 99.877C140.335 99.9236 140.373 99.9685 140.423 99.9685C140.472 99.9685 140.511 100.011 140.505 100.06L139.564 108.885C139.44 111.008 138.886 113.083 137.936 114.985C136.986 116.886 135.661 118.575 134.04 119.948C132.42 121.322 130.537 122.351 128.508 122.974C126.478 123.596 124.343 123.8 122.232 123.571C120.122 123.342 118.08 122.687 116.23 121.644C114.38 120.601 112.761 119.193 111.47 117.504C110.18 115.816 109.246 113.882 108.724 111.821C108.202 109.76 108.103 107.614 108.434 105.514L109.393 96.5975C109.461 95.7126 116.478 95.6873 125.026 96.5975Z" fill="white"/>
<g opacity="0.43">
<path opacity="0.5" d="M125.026 96.5967C125.375 96.6391 125.683 96.8453 125.854 97.1524C129.259 103.26 132.384 109.519 135.229 115.929C135.64 116.856 135.489 117.95 134.753 118.647C133.605 119.733 131.811 119.228 131.102 117.815C128.273 112.177 125.292 106.619 122.157 101.14C120.927 98.9916 122.564 96.3329 125.026 96.5967Z" fill="white"/>
<path opacity="0.5" d="M108.4 105.598C108.642 103.334 111.598 102.685 112.736 104.655C116.149 110.561 119.382 116.568 122.437 122.679C122.482 122.768 122.417 122.874 122.316 122.874C118.185 122.429 114.399 120.359 111.79 117.12C109.181 113.88 107.962 109.736 108.4 105.598Z" fill="white"/>
</g>
<path d="M125.026 96.5975C133.306 97.4865 139.987 98.9437 140.318 99.877C140.335 99.9236 140.373 99.9685 140.423 99.9685V99.9685C140.472 99.9685 140.511 100.011 140.505 100.06L139.564 108.885C139.44 111.008 138.886 113.083 137.936 114.985C136.986 116.886 135.661 118.575 134.04 119.948C132.42 121.322 130.537 122.351 128.508 122.974C126.478 123.596 124.343 123.8 122.232 123.571C120.122 123.342 118.08 122.687 116.23 121.644C114.38 120.601 112.761 119.193 111.47 117.504C110.18 115.816 109.246 113.882 108.724 111.821C108.202 109.76 108.103 107.614 108.434 105.514L109.393 96.5975C109.461 95.7126 116.478 95.6873 125.026 96.5975Z" stroke="#23276E" stroke-width="2" stroke-linecap="round" stroke-linejoin="round"/>
<path d="M154.187 102.648C152.38 100.759 150.02 99.496 147.448 99.0414C144.876 98.5868 142.227 98.9644 139.884 100.119" stroke="#23276E" stroke-width="2" stroke-linecap="round" stroke-linejoin="round"/>
<path d="M109.36 96.6733L60.0818 119.681" stroke="#23276E" stroke-width="2" stroke-linecap="round" stroke-linejoin="round"/>
<path d="M69.1344 119.849C66.8375 118.163 63.6152 117.498 61.1584 118.897C60.1526 119.553 59.3238 120.448 58.7456 121.502C58.1674 122.556 57.8576 123.737 57.8435 124.939C57.8409 127.345 58.3605 129.724 59.3663 131.909C60.4355 134.549 61.7392 137.087 63.2618 139.494C64.9445 142.224 67.1152 144.896 70.102 146.118C73.0888 147.34 77.0684 146.607 78.6165 143.775C79.7271 141.752 79.3737 139.275 78.8436 137.033C77.3208 130.645 74.6621 123.869 69.1344 119.849Z" fill="#F0C49B"/>
<path d="M68.9157 124.467C68.2148 123.904 67.3704 123.549 66.4782 123.442C65.586 123.334 64.6817 123.479 63.8676 123.86C63.2306 124.276 62.7061 124.842 62.3406 125.51C61.9751 126.178 61.7799 126.925 61.7727 127.687C61.7721 129.211 62.0992 130.717 62.7318 132.103C63.4133 133.772 64.2381 135.38 65.197 136.906C66.2907 138.592 67.6369 140.328 69.5299 141.12C71.423 141.912 73.9386 141.424 74.923 139.637C75.6213 138.356 75.3941 136.788 75.0576 135.373C74.1069 131.294 72.4242 127.012 68.9157 124.467Z" fill="#E0A988"/>
</g>
<g opacity="0.5">
<path d="M206.319 99.3106C203.098 97.5609 201.092 94.1891 201.092 90.5235V51.5765C201.092 47.9104 203.098 44.5382 206.32 42.7887L243.125 22.8014C246.101 21.1852 249.693 21.1851 252.669 22.801L289.481 42.7888C292.703 44.5383 294.71 47.9106 294.71 51.577V90.523C294.71 94.1888 292.704 97.5608 289.483 99.3105L252.67 119.305C249.693 120.922 246.1 120.922 243.124 119.305L206.319 99.3106Z" fill="white"/>
</g>
<path d="M214.454 94.8941C211.234 93.1443 209.228 89.7727 209.228 86.1074V55.9916C209.228 52.3257 211.234 48.9537 214.456 47.2041L243.125 31.6334C246.101 30.0169 249.693 30.0168 252.669 31.6329L281.346 47.2042C284.568 48.9537 286.574 52.326 286.574 55.9923V86.1067C286.574 89.7724 284.568 93.1442 281.347 94.894L252.671 110.472C249.694 112.089 246.1 112.089 243.123 110.471L214.454 94.8941Z" stroke="white" stroke-width="2" stroke-miterlimit="10" stroke-linecap="round"/>
<path d="M247.897 23.0919C246.303 23.0919 245.011 21.7977 245.011 20.2012C245.011 18.6047 246.303 17.3105 247.897 17.3105C249.49 17.3105 250.782 18.6047 250.782 20.2012C250.782 21.7977 249.49 23.0919 247.897 23.0919Z" fill="white"/>
<path d="M247.897 125.083C246.303 125.083 245.011 123.788 245.011 122.192C245.011 120.595 246.303 119.301 247.897 119.301C249.49 119.301 250.782 120.595 250.782 122.192C250.782 123.788 249.49 125.083 247.897 125.083Z" fill="white"/>
<path d="M201.092 49.0064C199.499 49.0064 198.207 47.7122 198.207 46.1158C198.207 44.5193 199.499 43.2251 201.092 43.2251C202.686 43.2251 203.978 44.5193 203.978 46.1158C203.978 47.7122 202.686 49.0064 201.092 49.0064Z" fill="white"/>
<path d="M201.092 99.3365C199.499 99.3365 198.207 98.0423 198.207 96.4458C198.207 94.8494 199.499 93.5552 201.092 93.5552C202.686 93.5552 203.978 94.8494 203.978 96.4458C203.978 98.0423 202.686 99.3365 201.092 99.3365Z" fill="white"/>
<path d="M291.824 46.1158C291.824 46.6875 291.993 47.2464 292.31 47.7217C292.627 48.1971 293.078 48.5676 293.605 48.7864C294.133 49.0052 294.713 49.0624 295.273 48.9509C295.832 48.8394 296.347 48.564 296.75 48.1598C297.154 47.7555 297.429 47.2404 297.54 46.6797C297.651 46.119 297.594 45.5378 297.376 45.0096C297.157 44.4814 296.787 44.0299 296.313 43.7123C295.838 43.3946 295.28 43.2251 294.71 43.2251C293.944 43.2251 293.21 43.5297 292.669 44.0718C292.128 44.6139 291.824 45.3491 291.824 46.1158Z" fill="white"/>
<path d="M291.824 96.4374C291.822 97.0095 291.99 97.5692 292.306 98.0457C292.622 98.5222 293.072 98.894 293.599 99.1141C294.127 99.3341 294.707 99.3926 295.267 99.282C295.828 99.1714 296.343 98.8968 296.747 98.4929C297.152 98.0889 297.427 97.5739 297.539 97.0129C297.651 96.4519 297.595 95.8703 297.377 95.3416C297.158 94.8129 296.789 94.3609 296.314 94.0429C295.839 93.7249 295.281 93.5552 294.71 93.5552C294.331 93.5541 293.956 93.6278 293.606 93.7722C293.256 93.9165 292.938 94.1286 292.67 94.3964C292.401 94.6641 292.189 94.9823 292.044 95.3325C291.898 95.6827 291.824 96.0582 291.824 96.4374Z" fill="white"/>
<g opacity="0.5">
<path d="M224.796 214.305C221.574 212.555 219.568 209.183 219.568 205.517V166.571C219.568 162.905 221.575 159.532 224.797 157.783L261.609 137.795C264.585 136.179 268.177 136.179 271.153 137.796L307.958 157.783C311.18 159.532 313.186 162.905 313.186 166.571V205.518C313.186 209.183 311.18 212.555 307.959 214.305L271.154 234.299C268.178 235.916 264.585 235.916 261.608 234.299L224.796 214.305Z" fill="white"/>
</g>
<path d="M232.931 209.889C229.71 208.139 227.704 204.767 227.704 201.101V170.987C227.704 167.321 229.711 163.948 232.933 162.199L261.609 146.628C264.585 145.011 268.177 145.012 271.154 146.628L299.823 162.199C303.044 163.948 305.05 167.32 305.05 170.986V201.102C305.05 204.767 303.045 208.139 299.824 209.889L271.155 225.466C268.178 227.083 264.585 227.083 261.608 225.466L232.931 209.889Z" stroke="white" stroke-width="2" stroke-miterlimit="10" stroke-linecap="round"/>
<path d="M263.487 135.196C263.487 135.768 263.656 136.326 263.973 136.802C264.291 137.277 264.741 137.648 265.269 137.866C265.796 138.085 266.376 138.143 266.936 138.031C267.496 137.919 268.01 137.644 268.414 137.24C268.817 136.836 269.092 136.321 269.203 135.76C269.315 135.199 269.258 134.618 269.039 134.09C268.821 133.561 268.451 133.11 267.976 132.792C267.502 132.475 266.944 132.305 266.373 132.305C265.994 132.304 265.618 132.378 265.267 132.523C264.917 132.668 264.598 132.881 264.33 133.149C264.062 133.418 263.849 133.737 263.705 134.088C263.56 134.44 263.486 134.816 263.487 135.196Z" fill="white"/>
<path d="M263.487 237.187C263.487 237.759 263.656 238.318 263.973 238.793C264.291 239.268 264.741 239.639 265.269 239.858C265.796 240.076 266.376 240.134 266.936 240.022C267.496 239.911 268.01 239.635 268.414 239.231C268.817 238.827 269.092 238.312 269.203 237.751C269.315 237.19 269.258 236.609 269.039 236.081C268.821 235.553 268.451 235.101 267.976 234.784C267.502 234.466 266.944 234.296 266.373 234.296C265.994 234.295 265.618 234.369 265.267 234.514C264.917 234.659 264.598 234.872 264.33 235.141C264.062 235.409 263.849 235.728 263.705 236.08C263.56 236.431 263.486 236.807 263.487 237.187Z" fill="white"/>
<path d="M219.569 164.002C217.975 164.002 216.683 162.707 216.683 161.111C216.683 159.514 217.975 158.22 219.569 158.22C221.163 158.22 222.455 159.514 222.455 161.111C222.455 162.707 221.163 164.002 219.569 164.002Z" fill="white"/>
<path d="M216.691 211.44C216.691 212.012 216.861 212.571 217.178 213.047C217.496 213.522 217.947 213.893 218.475 214.111C219.002 214.33 219.583 214.387 220.143 214.274C220.703 214.162 221.217 213.886 221.621 213.481C222.024 213.076 222.298 212.56 222.408 211.999C222.519 211.437 222.46 210.856 222.241 210.328C222.021 209.8 221.65 209.349 221.174 209.032C220.699 208.716 220.14 208.548 219.569 208.549C219.19 208.549 218.815 208.624 218.466 208.77C218.116 208.915 217.798 209.128 217.531 209.397C217.264 209.665 217.052 209.984 216.908 210.334C216.764 210.685 216.69 211.061 216.691 211.44Z" fill="white"/>
<path d="M313.186 164.002C311.592 164.002 310.3 162.707 310.3 161.111C310.3 159.514 311.592 158.22 313.186 158.22C314.78 158.22 316.072 159.514 316.072 161.111C316.072 162.707 314.78 164.002 313.186 164.002Z" fill="white"/>
<path d="M310.3 211.44C310.3 212.012 310.469 212.571 310.786 213.046C311.104 213.521 311.554 213.892 312.082 214.111C312.609 214.329 313.189 214.387 313.749 214.275C314.309 214.164 314.823 213.888 315.227 213.484C315.63 213.08 315.905 212.565 316.016 212.004C316.128 211.443 316.071 210.862 315.852 210.334C315.634 209.806 315.264 209.354 314.789 209.036C314.315 208.719 313.757 208.549 313.186 208.549C312.421 208.549 311.687 208.854 311.145 209.396C310.604 209.938 310.3 210.673 310.3 211.44Z" fill="white"/>
<g opacity="0.5">
<path d="M492.094 122.562C488.872 120.812 486.867 117.44 486.867 113.774V58.1837C486.867 54.5173 488.873 51.1449 492.095 49.3955L544.229 21.0894C547.205 19.4736 550.796 19.4737 553.772 21.0897L605.898 49.3954C609.12 51.1449 611.126 54.5171 611.126 58.1833V113.774C611.126 117.44 609.12 120.812 605.899 122.562L553.773 150.874C550.797 152.491 547.204 152.491 544.228 150.875L492.094 122.562Z" fill="white"/>
</g>
<path d="M502.896 116.696C499.675 114.946 497.67 111.575 497.67 107.909V64.0483C497.67 60.3824 499.675 57.0103 502.897 55.2607L544.228 32.8133C547.204 31.1967 550.797 31.1967 553.773 32.8133L595.104 55.2607C598.326 57.0103 600.332 60.3824 600.332 64.0483V107.909C600.332 111.575 598.326 114.946 595.105 116.696L553.774 139.15C550.797 140.768 547.204 140.768 544.227 139.15L502.896 116.696Z" stroke="white" stroke-width="2" stroke-miterlimit="10" stroke-linecap="round"/>
<path d="M549 22.3254C546.886 22.3254 545.172 20.6086 545.172 18.4908C545.172 16.373 546.886 14.6562 549 14.6562C551.115 14.6562 552.829 16.373 552.829 18.4908C552.829 20.6086 551.115 22.3254 549 22.3254Z" fill="white"/>
<path d="M549 157.689C546.886 157.689 545.172 155.972 545.172 153.855C545.172 151.737 546.886 150.02 549 150.02C551.115 150.02 552.829 151.737 552.829 153.855C552.829 155.972 551.115 157.689 549 157.689Z" fill="white"/>
<path d="M486.866 56.718C484.752 56.718 483.038 55.0012 483.038 52.8834C483.038 50.7656 484.752 49.0488 486.866 49.0488C488.981 49.0488 490.695 50.7656 490.695 52.8834C490.695 55.0012 488.981 56.718 486.866 56.718Z" fill="white"/>
<path d="M486.866 123.515C484.752 123.515 483.038 121.799 483.038 119.681C483.038 117.563 484.752 115.846 486.866 115.846C488.981 115.846 490.695 117.563 490.695 119.681C490.695 121.799 488.981 123.515 486.866 123.515Z" fill="white"/>
<path d="M611.126 56.718C609.012 56.718 607.298 55.0012 607.298 52.8834C607.298 50.7656 609.012 49.0488 611.126 49.0488C613.24 49.0488 614.954 50.7656 614.954 52.8834C614.954 55.0012 613.24 56.718 611.126 56.718Z" fill="white"/>
<path d="M611.126 123.515C609.012 123.515 607.298 121.799 607.298 119.681C607.298 117.563 609.012 115.846 611.126 115.846C613.24 115.846 614.954 117.563 614.954 119.681C614.954 121.799 613.24 123.515 611.126 123.515Z" fill="white"/>
<g opacity="0.5">
<path d="M474.778 280.512C471.557 278.763 469.551 275.391 469.551 271.725V216.142C469.551 212.476 471.557 209.104 474.778 207.354L526.904 179.042C529.88 177.425 533.473 177.425 536.45 179.042L588.575 207.354C591.797 209.104 593.802 212.476 593.802 216.142V271.725C593.802 275.391 591.797 278.763 588.575 280.512L536.45 308.825C533.473 310.442 529.88 310.442 526.904 308.825L474.778 280.512Z" fill="white"/>
</g>
<path d="M485.573 274.655C482.352 272.905 480.346 269.533 480.346 265.867V221.999C480.346 218.333 482.352 214.961 485.573 213.211L526.904 190.764C529.881 189.147 533.473 189.147 536.45 190.764L577.781 213.211C581.002 214.961 583.008 218.333 583.008 221.999V265.867C583.008 269.533 581.002 272.905 577.781 274.655L536.45 297.102C533.473 298.719 529.881 298.719 526.904 297.102L485.573 274.655Z" stroke="white" stroke-width="2" stroke-miterlimit="10" stroke-linecap="round"/>
<path d="M531.677 180.283C529.563 180.283 527.849 178.567 527.849 176.449C527.849 174.331 529.563 172.614 531.677 172.614C533.791 172.614 535.505 174.331 535.505 176.449C535.505 178.567 533.791 180.283 531.677 180.283Z" fill="white"/>
<path d="M531.677 315.648C529.563 315.648 527.849 313.931 527.849 311.813C527.849 309.695 529.563 307.979 531.677 307.979C533.791 307.979 535.505 309.695 535.505 311.813C535.505 313.931 533.791 315.648 531.677 315.648Z" fill="white"/>
<path d="M465.723 210.834C465.723 211.592 465.948 212.333 466.368 212.964C466.789 213.595 467.387 214.086 468.087 214.376C468.786 214.666 469.556 214.742 470.298 214.594C471.041 214.447 471.723 214.081 472.258 213.545C472.794 213.009 473.158 212.326 473.306 211.582C473.454 210.838 473.378 210.067 473.088 209.366C472.798 208.665 472.308 208.067 471.678 207.645C471.049 207.224 470.309 206.999 469.551 206.999C469.048 206.998 468.55 207.096 468.085 207.289C467.62 207.481 467.198 207.763 466.842 208.12C466.486 208.476 466.204 208.899 466.012 209.365C465.82 209.831 465.722 210.33 465.723 210.834Z" fill="white"/>
<path d="M469.551 281.474C467.437 281.474 465.723 279.757 465.723 277.639C465.723 275.521 467.437 273.805 469.551 273.805C471.666 273.805 473.38 275.521 473.38 277.639C473.38 279.757 471.666 281.474 469.551 281.474Z" fill="white"/>
<path d="M589.932 210.834C589.932 211.592 590.157 212.333 590.577 212.964C590.998 213.595 591.596 214.086 592.295 214.376C592.995 214.666 593.765 214.742 594.507 214.594C595.25 214.447 595.932 214.081 596.467 213.545C597.003 213.009 597.367 212.326 597.515 211.582C597.663 210.838 597.587 210.067 597.297 209.366C597.007 208.665 596.517 208.067 595.887 207.645C595.258 207.224 594.518 206.999 593.76 206.999C592.745 206.999 591.771 207.403 591.054 208.122C590.336 208.841 589.932 209.817 589.932 210.834Z" fill="white"/>
<path d="M593.803 281.474C591.688 281.474 589.974 279.757 589.974 277.639C589.974 275.521 591.688 273.805 593.803 273.805C595.917 273.805 597.631 275.521 597.631 277.639C597.631 279.757 595.917 281.474 593.803 281.474Z" fill="white"/>
<g opacity="0.5">
<path d="M425.064 387.845C421.842 386.096 419.836 382.724 419.836 379.057V336.951C419.836 333.285 421.842 329.913 425.063 328.163L464.778 306.593C467.755 304.976 471.348 304.976 474.324 306.593L514.032 328.163C517.253 329.913 519.259 333.285 519.259 336.951V379.058C519.259 382.724 517.252 386.096 514.031 387.846L474.323 409.409C471.347 411.025 467.755 411.025 464.779 409.409L425.064 387.845Z" fill="white"/>
</g>
<path d="M433.704 383.152C430.482 381.402 428.476 378.03 428.476 374.364V341.646C428.476 337.98 430.482 334.608 433.704 332.858L464.779 315.981C467.755 314.365 471.348 314.365 474.324 315.981L505.399 332.858C508.62 334.608 510.626 337.98 510.626 341.646V374.364C510.626 378.03 508.62 381.402 505.399 383.152L474.324 400.029C471.348 401.645 467.755 401.645 464.779 400.029L433.704 383.152Z" stroke="white" stroke-width="2" stroke-miterlimit="10" stroke-linecap="round"/>
<path d="M469.551 307.068C467.86 307.068 466.489 305.694 466.489 304C466.489 302.306 467.86 300.933 469.551 300.933C471.243 300.933 472.614 302.306 472.614 304C472.614 305.694 471.243 307.068 469.551 307.068Z" fill="white"/>
<path d="M469.551 415.389C467.86 415.389 466.489 414.015 466.489 412.321C466.489 410.627 467.86 409.253 469.551 409.253C471.243 409.253 472.614 410.627 472.614 412.321C472.614 414.015 471.243 415.389 469.551 415.389Z" fill="white"/>
<path d="M416.773 331.517C416.773 332.124 416.953 332.717 417.29 333.221C417.626 333.726 418.104 334.119 418.664 334.351C419.224 334.583 419.839 334.644 420.433 334.526C421.027 334.407 421.573 334.115 422.001 333.686C422.43 333.257 422.721 332.71 422.84 332.115C422.958 331.52 422.897 330.903 422.665 330.343C422.434 329.782 422.041 329.303 421.537 328.966C421.034 328.629 420.442 328.449 419.836 328.449C419.024 328.449 418.245 328.772 417.67 329.348C417.096 329.923 416.773 330.703 416.773 331.517Z" fill="white"/>
<path d="M416.773 384.965C416.773 385.571 416.953 386.164 417.29 386.669C417.626 387.173 418.104 387.567 418.664 387.799C419.224 388.031 419.839 388.092 420.433 387.973C421.027 387.855 421.573 387.563 422.001 387.134C422.43 386.705 422.721 386.158 422.84 385.563C422.958 384.968 422.897 384.351 422.665 383.791C422.434 383.23 422.041 382.751 421.537 382.414C421.034 382.077 420.442 381.897 419.836 381.897C419.024 381.897 418.245 382.22 417.67 382.795C417.096 383.371 416.773 384.151 416.773 384.965Z" fill="white"/>
<path d="M516.196 331.517C516.196 332.124 516.376 332.717 516.712 333.221C517.049 333.726 517.527 334.119 518.087 334.351C518.646 334.583 519.262 334.644 519.856 334.526C520.45 334.407 520.996 334.115 521.424 333.686C521.852 333.257 522.144 332.71 522.262 332.115C522.38 331.52 522.32 330.903 522.088 330.343C521.856 329.782 521.464 329.303 520.96 328.966C520.456 328.629 519.864 328.449 519.259 328.449C518.446 328.449 517.667 328.772 517.093 329.348C516.519 329.923 516.196 330.703 516.196 331.517Z" fill="white"/>
<path d="M516.196 384.965C516.201 385.571 516.385 386.161 516.724 386.662C517.064 387.164 517.544 387.553 518.104 387.781C518.664 388.009 519.279 388.067 519.871 387.945C520.464 387.824 521.007 387.53 521.433 387.1C521.859 386.67 522.148 386.123 522.264 385.529C522.38 384.935 522.318 384.319 522.086 383.76C521.853 383.201 521.46 382.723 520.957 382.387C520.454 382.051 519.863 381.872 519.259 381.872C518.854 381.872 518.454 381.952 518.081 382.108C517.708 382.264 517.369 382.492 517.084 382.779C516.799 383.067 516.574 383.408 516.422 383.783C516.27 384.158 516.193 384.56 516.196 384.965Z" fill="white"/>
<path d="M390.329 223.157C390.323 223.196 390.271 223.204 390.233 223.19C390.155 223.162 390.156 223.072 390.239 223.084C390.294 223.092 390.335 223.116 390.329 223.157Z" fill="#F0C49B"/>
<g style="mix-blend-mode:multiply" opacity="0.5">
<path d="M496.196 246.094C498.379 242.526 500.597 238.532 501.646 234.484C502.144 232.56 503.001 230.762 504.316 229.265C508.5 224.501 519.027 220.345 524.656 217.427C526.428 216.508 528.352 215.882 530.322 215.612C536.666 214.744 543.271 217.348 547.78 221.908C549.677 223.918 551.242 226.189 552.438 228.635C554.936 233.743 561.288 238.287 565.272 242.345C567.759 245.018 569.115 248.552 569.058 252.205C569.146 254.423 568.559 256.615 567.376 258.492C565.188 261.686 561.015 262.874 557.153 262.958L507.025 262.571C501.742 262.571 496.416 260.101 494.767 255.062C493.817 252.158 494.52 248.834 496.196 246.094Z" fill="#C6C6C6"/>
</g>
<path d="M279.288 185.888C279.293 182.645 278.613 179.448 277.303 176.505C276.692 175.131 277.198 173.467 278.47 172.664V172.664C279.557 171.977 281.011 172.046 281.81 173.054C284.691 176.685 286.278 181.206 286.271 185.888V185.888C286.266 187.381 284.779 188.327 283.331 187.963C282.372 187.722 281.408 187.504 280.438 187.309C279.766 187.174 279.288 186.574 279.288 185.888V185.888Z" stroke="#23276E" stroke-width="2" stroke-linecap="round" stroke-linejoin="round"/>
<path d="M252.953 185.887V185.887C252.953 186.516 252.501 187.053 251.884 187.172C250.597 187.421 249.317 187.709 248.046 188.034C246.541 188.419 244.99 187.441 244.994 185.887V185.887C244.991 183.073 245.564 180.288 246.677 177.703C247.452 175.903 248.478 174.226 249.721 172.722C250.648 171.6 252.295 171.582 253.508 172.386V172.386C254.92 173.322 255.478 175.196 254.811 176.753C253.578 179.628 252.941 182.736 252.953 185.887Z" stroke="#23276E" stroke-width="2" stroke-linecap="round" stroke-linejoin="round"/>
<path d="M266.234 181.097C266.227 178.417 268.425 176.293 271.045 175.73C271.194 175.698 271.342 175.664 271.49 175.629C274.139 175.004 277.143 175.811 278.03 178.383C278.864 180.797 279.292 183.345 279.288 185.921V185.921C279.288 186.544 278.723 187.014 278.109 186.911C275.773 186.52 273.42 186.244 271.058 186.083C268.401 185.901 266.241 183.761 266.234 181.097V181.097Z" stroke="#23276E" stroke-width="2" stroke-linecap="round" stroke-linejoin="round"/>
<path d="M265.835 185.871C261.888 185.866 257.948 186.176 254.051 186.796C253.491 186.886 252.979 186.456 252.979 185.888V185.888C252.973 183.32 253.399 180.781 254.227 178.375C255.13 175.749 258.206 174.945 260.905 175.598C261.164 175.661 261.423 175.719 261.684 175.772C264.158 176.28 266.222 178.283 266.222 180.808V185.524C266.222 185.732 266.041 185.894 265.835 185.871V185.871Z" stroke="#23276E" stroke-width="2" stroke-linecap="round" stroke-linejoin="round"/>
<path d="M266.183 165.029C266.201 165.021 266.222 165.035 266.222 165.055V165.055C266.222 165.075 266.201 165.088 266.183 165.081V165.081C266.16 165.071 266.16 165.039 266.183 165.029V165.029Z" stroke="#23276E" stroke-width="2" stroke-linecap="round" stroke-linejoin="round"/>
<path d="M274.826 172.253C273.321 170.217 274.711 167.172 276.838 168.544C277.306 168.846 277.762 169.167 278.205 169.506C279.394 170.418 279.28 172.188 277.993 172.956C277.954 172.98 277.914 173.004 277.874 173.027C276.839 173.637 275.54 173.218 274.826 172.253V172.253Z" stroke="#23276E" stroke-width="2" stroke-linecap="round" stroke-linejoin="round"/>
<path d="M257.561 172.05C256.78 173.089 255.375 173.529 254.265 172.852C254.191 172.807 254.117 172.761 254.044 172.715C252.618 171.823 252.556 169.829 253.94 168.872C257.359 166.507 261.437 165.22 265.641 165.223V165.223C265.674 165.223 265.685 165.268 265.655 165.283C262.465 166.889 259.698 169.208 257.561 172.05Z" stroke="#23276E" stroke-width="2" stroke-linecap="round" stroke-linejoin="round"/>
<path d="M266.222 165.192C266.222 165.149 266.267 165.121 266.305 165.142V165.142C266.358 165.169 266.338 165.249 266.278 165.249V165.249C266.247 165.249 266.222 165.223 266.222 165.192V165.192Z" stroke="#23276E" stroke-width="2" stroke-linecap="round" stroke-linejoin="round"/>
<path d="M266.107 165.268C266.008 165.255 265.987 165.121 266.076 165.077L266.081 165.075C266.106 165.062 266.136 165.061 266.162 165.072V165.072C266.198 165.087 266.222 165.123 266.222 165.162V165.168C266.222 165.229 266.168 165.276 266.107 165.268V165.268Z" stroke="#23276E" stroke-width="2" stroke-linecap="round" stroke-linejoin="round"/>
<path d="M272.752 169.82C274.742 171.853 273.761 175.121 270.978 175.71V175.71C268.388 176.259 266.221 174.061 266.221 171.414V165.514C266.221 165.386 266.325 165.282 266.453 165.282V165.282C266.489 165.282 266.524 165.29 266.556 165.306C268.869 166.461 270.96 167.989 272.752 169.82Z" stroke="#23276E" stroke-width="2" stroke-linecap="round" stroke-linejoin="round"/>
<path d="M266.222 171.352C266.222 174.052 264.011 176.295 261.371 175.726V175.726C258.544 175.117 257.558 171.791 259.589 169.733C261.362 167.937 263.424 166.435 265.7 165.295C265.75 165.27 265.805 165.257 265.86 165.257V165.257C266.06 165.257 266.222 165.419 266.222 165.619V171.352Z" stroke="#23276E" stroke-width="2" stroke-linecap="round" stroke-linejoin="round"/>
<path d="M278.715 191.042C279.188 188.974 281.114 187.411 283.173 187.923V187.923C284.852 188.341 285.928 189.994 285.447 191.656C284.456 195.081 282.59 198.198 280.026 200.692C279.318 201.38 278.233 201.422 277.371 200.944V200.944C276.072 200.224 275.591 198.512 276.321 197.22C277.415 195.286 278.221 193.204 278.715 191.042Z" stroke="#23276E" stroke-width="2" stroke-linecap="round" stroke-linejoin="round"/>
<path d="M255.805 196.96C256.609 198.43 256.075 200.361 254.63 201.207V201.207C253.664 201.771 252.432 201.765 251.614 201.003C249.018 198.582 247.095 195.536 246.021 192.168C245.422 190.288 246.646 188.393 248.561 187.918V187.918C250.899 187.337 253.079 189.125 253.661 191.463C254.137 193.378 254.857 195.226 255.805 196.96Z" stroke="#23276E" stroke-width="2" stroke-linecap="round" stroke-linejoin="round"/>
<path d="M265.835 185.862C266.051 185.872 266.222 186.05 266.222 186.267V193.037C266.222 195.804 263.952 197.991 261.251 198.589V198.589C259.032 199.08 256.568 198.491 255.525 196.472C255.132 195.711 254.782 194.929 254.476 194.13C252.975 190.207 256.081 186.373 260.27 186.064C262.121 185.927 263.977 185.86 265.835 185.862V185.862Z" stroke="#23276E" stroke-width="2" stroke-linecap="round" stroke-linejoin="round"/>
<path d="M266.222 191.968C266.222 188.608 268.955 185.859 272.303 186.147C272.605 186.173 272.906 186.201 273.207 186.23C276.692 186.574 279.24 189.754 278.149 193.081C277.764 194.253 277.285 195.394 276.716 196.491C275.691 198.468 273.281 199.051 271.106 198.575V198.575C268.451 197.994 266.222 195.844 266.222 193.125V191.968Z" stroke="#23276E" stroke-width="2" stroke-linecap="round" stroke-linejoin="round"/>
<path d="M266.222 206.732C266.222 206.746 266.207 206.755 266.194 206.749V206.749C266.176 206.74 266.182 206.712 266.202 206.712V206.712C266.213 206.712 266.222 206.721 266.222 206.732V206.732Z" stroke="#23276E" stroke-width="2" stroke-linecap="round" stroke-linejoin="round"/>
<path d="M273.759 200.873C274.342 200.192 275.294 199.906 276.103 200.292C276.146 200.312 276.19 200.333 276.233 200.354C277.549 200.991 277.651 202.748 276.406 203.513C276.065 203.723 275.718 203.922 275.367 204.111C273.483 205.122 272.368 202.497 273.759 200.873V200.873Z" stroke="#23276E" stroke-width="2" stroke-linecap="round" stroke-linejoin="round"/>
<path d="M265.655 206.517C265.685 206.532 265.674 206.577 265.641 206.577V206.577C262.181 206.584 258.794 205.713 255.787 204.07C254.343 203.281 254.393 201.298 255.861 200.556C255.933 200.52 256.005 200.484 256.077 200.449C256.944 200.021 257.97 200.321 258.606 201.05C260.576 203.31 262.969 205.168 265.655 206.517Z" stroke="#23276E" stroke-width="2" stroke-linecap="round" stroke-linejoin="round"/>
<path d="M266.157 206.573C266.193 206.576 266.222 206.606 266.222 206.643V206.643C266.222 206.681 266.19 206.712 266.152 206.712H266.137C266.126 206.712 266.116 206.71 266.106 206.705V206.705C266.036 206.671 266.065 206.566 266.142 206.572L266.157 206.573Z" stroke="#23276E" stroke-width="2" stroke-linecap="round" stroke-linejoin="round"/>
<path d="M266.273 206.654C266.247 206.662 266.222 206.643 266.222 206.617V206.617C266.222 206.595 266.239 206.578 266.261 206.578V206.578C266.305 206.578 266.315 206.64 266.273 206.654V206.654Z" stroke="#23276E" stroke-width="2" stroke-linecap="round" stroke-linejoin="round"/>
<path d="M269.982 198.359C272.432 198.767 273.242 201.653 271.368 203.283C269.91 204.55 268.294 205.633 266.556 206.503C266.524 206.519 266.489 206.527 266.453 206.527V206.527C266.325 206.527 266.222 206.424 266.222 206.296V201.826C266.222 199.74 267.924 198.016 269.982 198.359V198.359Z" stroke="#23276E" stroke-width="2" stroke-linecap="round" stroke-linejoin="round"/>
<path d="M261.011 203.396C259.093 201.743 259.91 198.799 262.407 198.377V198.377C264.508 198.022 266.247 199.784 266.247 201.915V206.216C266.247 206.416 266.085 206.577 265.886 206.577V206.577C265.83 206.577 265.775 206.565 265.725 206.54C264.026 205.686 262.443 204.629 261.011 203.396Z" stroke="#23276E" stroke-width="2" stroke-linecap="round" stroke-linejoin="round"/>
<path opacity="0.5" d="M449.637 340.003H489.466C493.523 340.003 496.811 343.297 496.811 347.361V371.961C496.811 376.024 493.523 379.318 489.466 379.318H449.637C445.58 379.318 442.292 376.024 442.292 371.961V347.361C442.292 343.297 445.58 340.003 449.637 340.003Z" fill="#C6C6C6"/>
<path d="M452.11 342.473H486.993C490.524 342.473 493.387 345.341 493.387 348.878V370.444C493.387 373.982 490.524 376.849 486.993 376.849H452.11C448.579 376.849 445.716 373.982 445.716 370.444V348.878C445.716 345.341 448.579 342.473 452.11 342.473Z" fill="white"/>
<g style="mix-blend-mode:multiply" opacity="0.5">
<path d="M511.107 71.0251C510.776 66.3444 514.21 62.3912 518.756 61.2256C523.12 60.1065 527.429 58.7767 531.669 57.2405C535.065 55.9647 538.4 54.3948 541.502 52.4724C546.431 49.4185 553.192 49.4113 558.122 52.4633C561.226 54.3848 564.562 55.9555 567.973 57.2405C572.212 58.7768 576.522 60.1066 580.886 61.2257C585.431 62.3912 588.866 66.3442 588.533 71.0245C587.762 81.8573 584.864 92.5783 579.466 101.966C573.079 113.053 563.045 122.194 551.089 126.609C550.937 126.665 550.904 126.67 550.762 126.747C550.269 127.014 549.391 127.014 548.898 126.748C548.754 126.67 548.721 126.665 548.568 126.608C536.604 122.193 526.571 113.053 520.193 101.966C514.772 92.5878 511.875 81.8752 511.107 71.0251Z" fill="#C6C6C6"/>
</g>
<path d="M518.104 75.2078C517.671 70.5209 521.14 66.5604 525.687 65.3453C528.793 64.5154 531.864 63.5548 534.891 62.4655C537.125 61.6226 539.318 60.6314 541.405 59.4658C546.44 56.6541 553.204 56.6205 558.236 59.4364C560.325 60.6049 562.517 61.6059 564.751 62.4655C567.787 63.566 570.866 64.537 573.982 65.3762C578.516 66.5977 581.973 70.5495 581.542 75.2254C580.766 83.6512 578.409 91.9231 574.199 99.2184C568.948 108.339 560.689 115.854 550.825 119.487C550.703 119.532 550.677 119.536 550.562 119.597C550.158 119.814 549.443 119.817 549.039 119.599C548.921 119.536 548.895 119.531 548.77 119.485C538.933 115.851 530.676 108.338 525.4 99.2184C521.226 91.8981 518.882 83.6272 518.104 75.2078Z" fill="white"/>
<path d="M534.706 90.501C534.706 84.9781 539.183 80.501 544.706 80.501H554.019C559.541 80.501 564.019 84.9781 564.019 90.501V103.525C564.019 104.781 557.456 105.809 549.362 105.809C541.268 105.809 534.706 104.781 534.706 103.525V90.501Z" fill="#23276E"/>
<path d="M534.706 80.5002C534.706 81.7643 541.268 82.7841 549.362 82.7841C557.456 82.7841 564.019 81.7643 564.019 80.5002C564.019 79.236 557.456 78.2163 549.362 78.2163C541.268 78.2163 534.706 79.236 534.706 80.5002Z" fill="#EA4B98"/>
<path d="M554.284 80.4415C554.284 80.8628 555.588 81.1999 557.195 81.1999C558.802 81.1999 560.106 80.8628 560.106 80.4415C560.106 80.0201 558.802 79.6914 557.195 79.6914C555.588 79.6914 554.284 80.0285 554.284 80.4415Z" fill="#23276E"/>
<path d="M540.873 81.2084C539.265 81.2084 537.962 80.8688 537.962 80.4499C537.962 80.031 539.265 79.6914 540.873 79.6914C542.481 79.6914 543.784 80.031 543.784 80.4499C543.784 80.8688 542.481 81.2084 540.873 81.2084Z" fill="#23276E"/>
<g style="mix-blend-mode:multiply">
<path d="M547.44 94.09C547.633 93.0769 547.105 92.0653 546.795 91.0817C546.624 90.5411 546.628 89.9604 546.806 89.4223C546.984 88.8841 547.327 88.4158 547.786 88.0838C548.245 87.7519 548.796 87.5732 549.362 87.5732C549.928 87.5732 550.48 87.7519 550.939 88.0838C551.397 88.4158 551.74 88.8841 551.918 89.4223C552.096 89.9604 552.1 90.5411 551.93 91.0817C551.619 92.0686 551.078 93.0758 551.251 94.0959L551.811 97.3893C551.858 97.6358 551.85 97.8899 551.787 98.1329C551.724 98.376 551.608 98.6019 551.447 98.7942C551.286 98.9864 551.083 99.1401 550.855 99.2441C550.627 99.3481 550.379 99.3996 550.128 99.395H548.496C548.245 99.3996 547.996 99.3481 547.768 99.2441C547.54 99.1401 547.338 98.9864 547.177 98.7942C547.015 98.6019 546.899 98.376 546.836 98.1329C546.773 97.8899 546.765 97.6358 546.813 97.3893L547.44 94.09Z" fill="#B2713B"/>
</g>
<g style="mix-blend-mode:multiply" opacity="0.46">
<path d="M549.362 88.9114C549.724 88.9114 550.071 89.0552 550.326 89.3113C550.582 89.5673 550.725 89.9146 550.725 90.2767C550.725 90.489 550.675 90.6983 550.579 90.8873C550.482 91.0763 550.342 91.2396 550.17 91.3638C549.974 91.5124 549.824 91.7123 549.735 91.9413C549.646 92.1704 549.622 92.4197 549.665 92.6617L550.507 97.6255C550.515 97.6793 550.512 97.7343 550.497 97.7868C550.483 97.8392 550.457 97.8879 550.422 97.9295C550.386 97.9711 550.343 98.0046 550.294 98.0278C550.244 98.0509 550.191 98.0632 550.136 98.0638H548.504C548.45 98.0632 548.396 98.0509 548.347 98.0278C548.298 98.0046 548.254 97.9711 548.219 97.9295C548.184 97.8879 548.158 97.8392 548.143 97.7868C548.129 97.7343 548.126 97.6793 548.134 97.6255L548.975 92.6617C549.019 92.4197 548.995 92.1704 548.906 91.9413C548.817 91.7123 548.666 91.5124 548.471 91.3638C548.299 91.2396 548.159 91.0763 548.062 90.8873C547.965 90.6983 547.915 90.489 547.915 90.2767C547.914 90.0897 547.951 89.9044 548.024 89.7324C548.097 89.5605 548.205 89.4055 548.341 89.2773C548.477 89.1491 548.638 89.0505 548.814 88.9875C548.989 88.9245 549.176 88.8986 549.362 88.9114Z" fill="#B2713B"/>
</g>
<path d="M548.933 62.8442H549.236C551.799 62.9209 554.23 63.9942 556.016 65.8364C557.802 67.6787 558.801 70.1452 558.802 72.713V79.2622C558.802 80.2752 558.082 81.1758 557.069 81.1659C556.085 81.1709 555.386 80.2965 555.386 79.3126V72.713C555.385 71.0403 554.73 69.4346 553.562 68.2393C552.393 67.044 550.805 66.3538 549.135 66.3164C545.147 66.3923 542.505 69.2239 542.505 72.713V79.2669C542.505 80.275 541.784 81.1658 540.776 81.1658C539.768 81.1658 539.047 80.275 539.047 79.2669V72.713C538.988 67.353 542.337 62.9791 548.933 62.8442Z" fill="#C6C6C6"/>
<g style="mix-blend-mode:multiply" opacity="0.5">
<path d="M539.876 80.1636C540.343 80.1636 540.722 79.785 540.722 79.318V72.6209C540.722 70.4553 541.574 68.3771 543.094 66.8372C544.614 65.2973 546.679 64.4199 548.841 64.3955H548.933C551.095 64.4199 553.16 65.2973 554.68 66.8372C556.2 68.3771 557.052 70.4553 557.052 72.6209V79.297C557.052 79.7756 557.44 80.1636 557.919 80.1636C558.055 80.1636 558.189 80.1636 558.323 80.1636C558.579 80.1636 558.786 80.3706 558.786 80.626C558.786 80.847 558.629 81.0384 558.411 81.0714C557.961 81.1391 557.507 81.1709 557.052 81.1665C556.068 81.1715 555.37 80.2971 555.37 79.3132V72.7136C555.37 69.233 552.198 66.3929 548.731 66.317C547.063 66.3566 545.477 67.0477 544.31 68.2428C543.144 69.4379 542.49 71.0423 542.489 72.7136V79.2675C542.489 80.2756 541.768 81.1664 540.76 81.1664C540.308 81.1664 539.856 81.1339 539.408 81.0689C539.188 81.0371 539.031 80.8456 539.031 80.624C539.031 80.3697 539.237 80.1636 539.491 80.1636C539.617 80.1636 539.746 80.1636 539.876 80.1636Z" fill="#C6C6C6"/>
</g>
<g opacity="0.5">
<path d="M337.444 151.064C334.223 149.314 332.217 145.942 332.217 142.276V86.6852C332.217 83.0191 334.224 79.6468 337.445 77.8973L389.571 49.5918C392.547 47.9757 396.139 47.9757 399.115 49.5918L451.241 77.8973C454.462 79.6468 456.469 83.0191 456.469 86.6852V142.276C456.469 145.942 454.463 149.314 451.241 151.064L399.116 179.376C396.139 180.993 392.547 180.993 389.57 179.376L337.444 151.064Z" fill="white"/>
</g>
<path d="M348.239 145.198C345.018 143.449 343.012 140.077 343.012 136.411V92.5507C343.012 88.8848 345.018 85.5127 348.239 83.7631L389.57 61.3157C392.547 59.6992 396.139 59.6992 399.116 61.3157L440.447 83.7631C443.668 85.5127 445.674 88.8848 445.674 92.5507V136.411C445.674 140.077 443.668 143.449 440.447 145.198L399.116 167.646C396.139 169.262 392.547 169.262 389.57 167.646L348.239 145.198Z" stroke="white" stroke-width="2" stroke-miterlimit="10" stroke-linecap="round"/>
<path d="M394.343 50.8264C392.229 50.8264 390.515 49.1096 390.515 46.9918C390.515 44.874 392.229 43.1572 394.343 43.1572C396.457 43.1572 398.171 44.874 398.171 46.9918C398.171 49.1096 396.457 50.8264 394.343 50.8264Z" fill="white"/>
<path d="M394.343 186.192C392.229 186.192 390.515 184.475 390.515 182.357C390.515 180.239 392.229 178.522 394.343 178.522C396.457 178.522 398.171 180.239 398.171 182.357C398.171 184.475 396.457 186.192 394.343 186.192Z" fill="white"/>
<path d="M332.218 85.2199C330.103 85.2199 328.389 83.5031 328.389 81.3853C328.389 79.2676 330.103 77.5508 332.218 77.5508C334.332 77.5508 336.046 79.2676 336.046 81.3853C336.046 83.5031 334.332 85.2199 332.218 85.2199Z" fill="white"/>
<path d="M332.218 152.018C330.103 152.018 328.389 150.301 328.389 148.183C328.389 146.065 330.103 144.349 332.218 144.349C334.332 144.349 336.046 146.065 336.046 148.183C336.046 150.301 334.332 152.018 332.218 152.018Z" fill="white"/>
<path d="M456.468 85.2199C454.354 85.2199 452.64 83.5031 452.64 81.3853C452.64 79.2676 454.354 77.5508 456.468 77.5508C458.583 77.5508 460.297 79.2676 460.297 81.3853C460.297 83.5031 458.583 85.2199 456.468 85.2199Z" fill="white"/>
<path d="M456.468 152.018C454.354 152.018 452.64 150.301 452.64 148.183C452.64 146.065 454.354 144.349 456.468 144.349C458.583 144.349 460.297 146.065 460.297 148.183C460.297 150.301 458.583 152.018 456.468 152.018Z" fill="white"/>
<g opacity="0.5">
<path d="M346.85 294.139C343.629 292.39 341.624 289.018 341.624 285.352V239.983C341.624 236.317 343.629 232.945 346.85 231.195L389.57 207.99C392.547 206.373 396.139 206.373 399.116 207.99L441.843 231.195C445.065 232.945 447.07 236.317 447.07 239.983V285.352C447.07 289.017 445.065 292.39 441.843 294.139L399.116 317.345C396.139 318.961 392.547 318.961 389.57 317.345L346.85 294.139Z" fill="white"/>
</g>
<path d="M356.013 289.167C352.792 287.417 350.786 284.045 350.786 280.379V244.955C350.786 241.29 352.792 237.917 356.013 236.168L389.571 217.942C392.547 216.326 396.139 216.326 399.115 217.942L432.68 236.168C435.902 237.918 437.908 241.29 437.908 244.956V280.379C437.908 284.045 435.902 287.417 432.68 289.167L399.115 307.393C396.139 309.009 392.547 309.009 389.571 307.392L356.013 289.167Z" stroke="white" stroke-width="2" stroke-miterlimit="10" stroke-linecap="round"/>
<path d="M394.343 208.651C392.549 208.651 391.095 207.194 391.095 205.398C391.095 203.601 392.549 202.145 394.343 202.145C396.137 202.145 397.591 203.601 397.591 205.398C397.591 207.194 396.137 208.651 394.343 208.651Z" fill="white"/>
<path d="M394.343 323.519C392.549 323.519 391.095 322.062 391.095 320.266C391.095 318.469 392.549 317.013 394.343 317.013C396.137 317.013 397.591 318.469 397.591 320.266C397.591 322.062 396.137 323.519 394.343 323.519Z" fill="white"/>
<path d="M341.624 237.835C339.83 237.835 338.376 236.379 338.376 234.582C338.376 232.786 339.83 231.329 341.624 231.329C343.418 231.329 344.872 232.786 344.872 234.582C344.872 236.379 343.418 237.835 341.624 237.835Z" fill="white"/>
<path d="M338.368 291.266C338.368 291.91 338.558 292.539 338.915 293.074C339.272 293.608 339.779 294.025 340.372 294.272C340.966 294.518 341.619 294.582 342.249 294.457C342.879 294.331 343.457 294.021 343.912 293.566C344.366 293.112 344.675 292.532 344.8 291.901C344.926 291.27 344.861 290.616 344.616 290.021C344.37 289.427 343.953 288.919 343.419 288.561C342.885 288.204 342.257 288.013 341.615 288.013C340.754 288.013 339.928 288.356 339.319 288.966C338.71 289.576 338.368 290.403 338.368 291.266Z" fill="white"/>
<path d="M447.071 237.835C445.277 237.835 443.823 236.379 443.823 234.582C443.823 232.786 445.277 231.329 447.071 231.329C448.864 231.329 450.318 232.786 450.318 234.582C450.318 236.379 448.864 237.835 447.071 237.835Z" fill="white"/>
<path d="M443.823 291.266C443.823 291.91 444.013 292.539 444.37 293.074C444.727 293.608 445.234 294.025 445.828 294.272C446.421 294.518 447.074 294.582 447.704 294.457C448.334 294.331 448.913 294.021 449.367 293.566C449.821 293.112 450.131 292.532 450.256 291.901C450.381 291.27 450.317 290.616 450.071 290.021C449.825 289.427 449.409 288.919 448.875 288.561C448.341 288.204 447.713 288.013 447.071 288.013C446.209 288.013 445.383 288.356 444.774 288.966C444.165 289.576 443.823 290.403 443.823 291.266Z" fill="white"/>
<path d="M501.648 248.188C503.335 244.123 505.775 239.656 508.016 235.868C508.356 235.292 508.767 234.75 509.255 234.254C512.974 230.474 521.446 227.56 526.332 225.499C527.664 224.937 529.091 224.552 530.55 224.377C533.018 224.094 535.518 224.318 537.897 225.035C540.276 225.752 542.485 226.947 544.388 228.547C546.29 230.147 547.848 232.119 548.965 234.342C549.417 235.241 549.793 236.174 550.091 237.131C550.788 239.372 553.008 241.027 555.272 241.644C556.703 242.034 558.025 242.746 559.139 243.727C560.123 244.635 560.907 245.739 561.44 246.968C561.973 248.197 562.244 249.525 562.235 250.865C562.297 252.495 561.808 254.099 560.847 255.416C559.055 257.725 555.639 258.585 552.475 258.652L511.451 258.365C507.118 258.365 502.768 256.579 501.413 252.93C500.852 251.416 501.002 249.745 501.648 248.188Z" fill="white"/>
<path d="M525.989 240.87C527.053 240.87 527.916 240.007 527.916 238.943V231.692C527.915 231.434 527.965 231.177 528.063 230.938C528.161 230.699 528.305 230.482 528.487 230.298C528.669 230.115 528.886 229.97 529.124 229.87C529.363 229.771 529.618 229.72 529.876 229.72H533.334C533.847 229.733 534.334 229.947 534.691 230.316C535.048 230.685 535.247 231.179 535.244 231.692V238.943C535.244 240.007 536.107 240.87 537.171 240.87C537.572 240.872 537.966 240.979 538.312 241.18C538.659 241.382 538.948 241.671 539.148 242.019C539.349 242.366 539.456 242.761 539.457 243.162C539.458 243.564 539.355 243.959 539.157 244.308L536.346 249.18L533.536 254.051C533.337 254.401 533.049 254.692 532.701 254.895C532.353 255.098 531.957 255.205 531.555 255.205C531.152 255.205 530.757 255.098 530.409 254.895C530.061 254.692 529.773 254.401 529.574 254.051L526.763 249.18L523.953 244.308C523.75 243.956 523.644 243.556 523.646 243.149C523.649 242.741 523.759 242.342 523.966 241.992C524.174 241.642 524.47 241.354 524.826 241.156C525.182 240.959 525.583 240.86 525.989 240.87Z" fill="#23276E"/>
<path d="M445.716 348.87C445.716 348.029 445.881 347.197 446.203 346.42C446.524 345.643 446.995 344.938 447.589 344.344C448.183 343.75 448.888 343.279 449.664 342.958C450.44 342.637 451.271 342.472 452.11 342.473H486.993C488.687 342.473 490.312 343.147 491.511 344.346C492.71 345.545 493.385 347.172 493.387 348.87C493.387 349.051 493.24 349.198 493.058 349.198H446.045C445.863 349.198 445.716 349.051 445.716 348.87Z" fill="#23276E"/>
<path d="M373.468 260.841C373.796 260.754 374.145 260.826 374.485 260.826C374.915 260.826 375.347 260.826 375.774 260.826C375.87 260.815 375.961 260.781 376.04 260.726C376.119 260.672 376.184 260.599 376.229 260.514C376.557 259.711 376.874 258.903 377.203 258.06C377.629 256.972 377.332 255.753 376.506 254.927C376.366 254.818 376.253 254.679 376.176 254.519C376.098 254.36 376.057 254.185 376.057 254.008C376.057 253.831 376.098 253.656 376.176 253.497C376.253 253.337 376.366 253.198 376.506 253.089C378.019 251.535 379.531 250.039 381.057 248.533C381.315 248.279 381.534 247.966 381.858 247.803C382.021 247.722 382.201 247.679 382.383 247.679C382.565 247.679 382.745 247.722 382.908 247.803C383.016 247.858 383.114 247.928 383.2 248.012C383.288 248.098 383.376 248.205 383.462 248.293C384.178 249.026 385.232 249.279 386.187 248.908C387.008 248.588 387.792 248.274 388.557 247.943C388.729 247.869 388.913 247.791 389.012 247.632C389.061 247.551 389.092 247.461 389.101 247.367C389.143 246.786 389.101 246.196 389.101 245.614C389.084 245.443 389.105 245.271 389.163 245.109C389.221 244.948 389.314 244.802 389.436 244.681C389.558 244.56 389.705 244.469 389.867 244.413C390.029 244.357 390.202 244.339 390.372 244.358H397.414C397.585 244.338 397.758 244.357 397.921 244.413C398.083 244.47 398.231 244.562 398.353 244.684C398.476 244.805 398.569 244.953 398.626 245.115C398.683 245.278 398.703 245.451 398.684 245.623C398.684 246.204 398.684 246.786 398.684 247.367C398.694 247.461 398.725 247.551 398.774 247.632C398.873 247.791 399.058 247.866 399.232 247.935C400.029 248.254 400.829 248.567 401.654 248.897C402.574 249.264 403.611 249.05 404.296 248.334C404.378 248.248 404.462 248.141 404.545 248.056C404.636 247.961 404.742 247.881 404.86 247.821C405.03 247.733 405.219 247.687 405.411 247.687C405.603 247.687 405.792 247.733 405.962 247.821C406.301 247.996 406.527 248.329 406.796 248.599L410.851 252.66C411.114 252.923 411.436 253.146 411.605 253.477C411.69 253.644 411.734 253.829 411.734 254.016C411.734 254.204 411.69 254.388 411.605 254.555C411.549 254.665 411.478 254.764 411.392 254.851C411.302 254.943 411.188 255.035 411.096 255.125C410.372 255.834 410.123 256.877 410.488 257.822C410.813 258.664 411.126 259.468 411.457 260.263C411.529 260.436 411.605 260.62 411.764 260.719C411.844 260.769 411.934 260.8 412.028 260.809C412.609 260.809 413.189 260.809 413.778 260.809C413.948 260.79 414.12 260.81 414.282 260.867C414.443 260.924 414.589 261.016 414.71 261.138C414.83 261.26 414.922 261.407 414.978 261.569C415.033 261.731 415.052 261.903 415.032 262.073C415.032 264.427 415.032 266.779 415.032 269.127C415.052 269.298 415.033 269.47 414.977 269.633C414.921 269.795 414.83 269.942 414.71 270.065C414.589 270.187 414.443 270.28 414.282 270.338C414.121 270.396 413.949 270.417 413.778 270.4C413.198 270.4 412.609 270.4 412.028 270.4C411.936 270.41 411.846 270.44 411.767 270.488C411.608 270.584 411.53 270.764 411.461 270.936C411.13 271.755 410.809 272.581 410.472 273.443C410.119 274.348 410.343 275.357 411.045 276.028C411.141 276.12 411.263 276.215 411.359 276.307C411.453 276.397 411.532 276.501 411.593 276.617C411.685 276.791 411.733 276.986 411.733 277.184C411.733 277.382 411.685 277.576 411.593 277.751C411.409 278.098 411.065 278.327 410.788 278.605C409.462 279.942 408.132 281.274 406.797 282.603C406.527 282.872 406.301 283.205 405.962 283.38C405.792 283.468 405.603 283.514 405.411 283.514C405.219 283.514 405.03 283.468 404.86 283.38C404.75 283.323 404.65 283.25 404.563 283.163C404.466 283.067 404.37 282.947 404.275 282.849C403.573 282.129 402.536 281.882 401.601 282.25C400.784 282.571 400 282.883 399.223 283.21C399.038 283.288 398.84 283.368 398.73 283.536C398.675 283.621 398.639 283.716 398.625 283.816C398.625 284.415 398.625 285.022 398.625 285.628C398.637 285.789 398.613 285.951 398.557 286.102C398.5 286.252 398.412 286.389 398.298 286.503C398.184 286.617 398.046 286.704 397.895 286.76C397.744 286.815 397.583 286.838 397.422 286.825H390.262C390.101 286.838 389.939 286.815 389.787 286.759C389.636 286.703 389.498 286.615 389.384 286.5C389.269 286.386 389.181 286.248 389.125 286.096C389.069 285.944 389.047 285.781 389.059 285.62C389.059 285.022 389.059 284.415 389.059 283.816C389.046 283.715 389.01 283.618 388.953 283.533C388.896 283.448 388.82 283.378 388.731 283.328C387.938 283.003 387.139 282.687 386.305 282.356C385.231 281.929 384.014 282.209 383.212 283.041C383.102 283.186 382.96 283.304 382.797 283.384C382.635 283.465 382.455 283.507 382.274 283.507C382.092 283.507 381.913 283.465 381.75 283.384C381.587 283.304 381.446 283.186 381.336 283.041C379.828 281.538 378.327 280.043 376.833 278.535C376.571 278.27 376.248 278.045 376.08 277.712C375.995 277.545 375.951 277.359 375.951 277.171C375.951 276.983 375.995 276.798 376.08 276.63C376.137 276.517 376.212 276.414 376.301 276.325C376.387 276.239 376.492 276.154 376.579 276.069C377.316 275.356 377.561 274.293 377.187 273.338C376.835 272.439 376.489 271.573 376.119 270.703C376.069 270.614 375.999 270.538 375.914 270.481C375.829 270.424 375.733 270.387 375.631 270.374C375.034 270.374 374.428 270.374 373.831 270.374C373.67 270.385 373.509 270.36 373.358 270.302C373.207 270.245 373.071 270.155 372.957 270.04C372.844 269.925 372.757 269.787 372.701 269.635C372.646 269.484 372.624 269.322 372.636 269.161C372.636 266.767 372.636 264.382 372.636 261.989C372.626 261.818 372.656 261.647 372.722 261.489C372.789 261.331 372.891 261.191 373.02 261.078C373.149 260.966 373.302 260.885 373.468 260.841ZM402.698 265.882C402.742 264.148 402.272 262.44 401.347 260.973C400.422 259.506 399.084 258.347 397.501 257.642C395.918 256.937 394.163 256.718 392.456 257.012C390.749 257.306 389.168 258.101 387.911 259.296C386.655 260.49 385.781 262.031 385.399 263.723C385.017 265.415 385.145 267.183 385.765 268.803C386.386 270.422 387.473 271.821 388.887 272.822C390.301 273.824 391.981 274.383 393.712 274.428C396.037 274.482 398.29 273.611 399.974 272.004C401.659 270.397 402.638 268.186 402.698 265.857V265.882Z" fill="#23276E"/>
<path opacity="0.1" d="M373.468 260.841C373.796 260.754 374.145 260.826 374.485 260.826C374.915 260.826 375.347 260.826 375.774 260.826C375.87 260.815 375.961 260.781 376.04 260.726C376.119 260.672 376.184 260.599 376.229 260.514C376.557 259.711 376.874 258.903 377.203 258.06C377.629 256.972 377.332 255.753 376.506 254.927C376.366 254.818 376.253 254.679 376.176 254.519C376.098 254.36 376.057 254.185 376.057 254.008C376.057 253.831 376.098 253.656 376.176 253.497C376.253 253.337 376.366 253.198 376.506 253.089C378.019 251.535 379.531 250.039 381.057 248.533C381.315 248.279 381.534 247.966 381.858 247.803C382.021 247.722 382.201 247.679 382.383 247.679C382.565 247.679 382.745 247.722 382.908 247.803C383.016 247.858 383.114 247.928 383.2 248.012C383.288 248.098 383.376 248.205 383.462 248.293C384.178 249.026 385.232 249.279 386.187 248.908C387.008 248.588 387.792 248.274 388.557 247.943C388.729 247.869 388.913 247.791 389.012 247.632C389.061 247.551 389.092 247.461 389.101 247.367C389.143 246.786 389.101 246.196 389.101 245.614C389.084 245.443 389.105 245.271 389.163 245.109C389.221 244.948 389.314 244.802 389.436 244.681C389.558 244.56 389.705 244.469 389.867 244.413C390.029 244.357 390.202 244.339 390.372 244.358H397.414C397.585 244.338 397.758 244.357 397.921 244.413C398.083 244.47 398.231 244.562 398.353 244.684C398.476 244.805 398.569 244.953 398.626 245.115C398.683 245.278 398.703 245.451 398.684 245.623C398.684 246.204 398.684 246.786 398.684 247.367C398.694 247.461 398.725 247.551 398.774 247.632C398.873 247.791 399.058 247.866 399.232 247.935C400.029 248.254 400.829 248.567 401.654 248.897C402.574 249.264 403.611 249.05 404.296 248.334C404.378 248.248 404.462 248.141 404.545 248.056C404.636 247.961 404.742 247.881 404.86 247.821C405.03 247.733 405.219 247.687 405.411 247.687C405.603 247.687 405.792 247.733 405.962 247.821C406.301 247.996 406.527 248.329 406.796 248.599L410.851 252.66C411.114 252.923 411.436 253.146 411.605 253.477C411.69 253.644 411.734 253.829 411.734 254.016C411.734 254.204 411.69 254.388 411.605 254.555C411.549 254.665 411.478 254.764 411.392 254.851C411.302 254.943 411.188 255.035 411.096 255.125C410.372 255.834 410.123 256.877 410.488 257.822C410.813 258.664 411.126 259.468 411.457 260.263C411.529 260.436 411.605 260.62 411.764 260.719C411.844 260.769 411.934 260.8 412.028 260.809C412.609 260.809 413.189 260.809 413.778 260.809C413.948 260.79 414.12 260.81 414.282 260.867C414.443 260.924 414.589 261.016 414.71 261.138C414.83 261.26 414.922 261.407 414.978 261.569C415.033 261.731 415.052 261.903 415.032 262.073C415.032 264.427 415.032 266.779 415.032 269.127C415.052 269.298 415.033 269.47 414.977 269.633C414.921 269.795 414.83 269.942 414.71 270.065C414.589 270.187 414.443 270.28 414.282 270.338C414.121 270.396 413.949 270.417 413.778 270.4C413.198 270.4 412.609 270.4 412.028 270.4C411.936 270.41 411.846 270.44 411.767 270.488C411.608 270.584 411.53 270.764 411.461 270.936C411.13 271.755 410.809 272.581 410.472 273.443C410.119 274.348 410.343 275.357 411.045 276.028C411.141 276.12 411.263 276.215 411.359 276.307C411.453 276.397 411.532 276.501 411.593 276.617C411.685 276.791 411.733 276.986 411.733 277.184C411.733 277.382 411.685 277.576 411.593 277.751C411.409 278.098 411.065 278.327 410.788 278.605C409.462 279.942 408.132 281.274 406.797 282.603C406.527 282.872 406.301 283.205 405.962 283.38C405.792 283.468 405.603 283.514 405.411 283.514C405.219 283.514 405.03 283.468 404.86 283.38C404.75 283.323 404.65 283.25 404.563 283.163C404.466 283.067 404.37 282.947 404.275 282.849C403.573 282.129 402.536 281.882 401.601 282.25C400.784 282.571 400 282.883 399.223 283.21C399.038 283.288 398.84 283.368 398.73 283.536C398.675 283.621 398.639 283.716 398.625 283.816C398.625 284.415 398.625 285.022 398.625 285.628C398.637 285.789 398.613 285.951 398.557 286.102C398.5 286.252 398.412 286.389 398.298 286.503C398.184 286.617 398.046 286.704 397.895 286.76C397.744 286.815 397.583 286.838 397.422 286.825H390.262C390.101 286.838 389.939 286.815 389.787 286.759C389.636 286.703 389.498 286.615 389.384 286.5C389.269 286.386 389.181 286.248 389.125 286.096C389.069 285.944 389.047 285.781 389.059 285.62C389.059 285.022 389.059 284.415 389.059 283.816C389.046 283.715 389.01 283.618 388.953 283.533C388.896 283.448 388.82 283.378 388.731 283.328C387.938 283.003 387.139 282.687 386.305 282.356C385.231 281.929 384.014 282.209 383.212 283.041C383.102 283.186 382.96 283.304 382.797 283.384C382.635 283.465 382.455 283.507 382.274 283.507C382.092 283.507 381.913 283.465 381.75 283.384C381.587 283.304 381.446 283.186 381.336 283.041C379.828 281.538 378.327 280.043 376.833 278.535C376.571 278.27 376.248 278.045 376.08 277.712C375.995 277.545 375.951 277.359 375.951 277.171C375.951 276.983 375.995 276.798 376.08 276.63C376.137 276.517 376.212 276.414 376.301 276.325C376.387 276.239 376.492 276.154 376.579 276.069C377.316 275.356 377.561 274.293 377.187 273.338C376.835 272.439 376.489 271.573 376.119 270.703C376.069 270.614 375.999 270.538 375.914 270.481C375.829 270.424 375.733 270.387 375.631 270.374C375.034 270.374 374.428 270.374 373.831 270.374C373.67 270.385 373.509 270.36 373.358 270.302C373.207 270.245 373.071 270.155 372.957 270.04C372.844 269.925 372.757 269.787 372.701 269.635C372.646 269.484 372.624 269.322 372.636 269.161C372.636 266.767 372.636 264.382 372.636 261.989C372.626 261.818 372.656 261.647 372.722 261.489C372.789 261.331 372.891 261.191 373.02 261.078C373.149 260.966 373.302 260.885 373.468 260.841ZM402.698 265.882C402.742 264.148 402.272 262.44 401.347 260.973C400.422 259.506 399.084 258.347 397.501 257.642C395.918 256.937 394.163 256.718 392.456 257.012C390.749 257.306 389.168 258.101 387.911 259.296C386.655 260.49 385.781 262.031 385.399 263.723C385.017 265.415 385.145 267.183 385.765 268.803C386.386 270.422 387.473 271.821 388.887 272.822C390.301 273.824 391.981 274.383 393.712 274.428C396.037 274.482 398.29 273.611 399.974 272.004C401.659 270.397 402.638 268.186 402.698 265.857V265.882Z" fill="white"/>
<path opacity="0.5" d="M393.947 253.418C396.359 253.418 398.716 254.134 400.72 255.476C402.725 256.818 404.288 258.725 405.211 260.956C406.133 263.188 406.375 265.643 405.904 268.012C405.434 270.381 404.273 272.557 402.568 274.265C400.863 275.972 398.691 277.135 396.326 277.607C393.961 278.078 391.51 277.836 389.282 276.912C387.054 275.987 385.15 274.422 383.811 272.414C382.471 270.406 381.756 268.045 381.756 265.63C381.755 264.026 382.07 262.437 382.682 260.955C383.294 259.473 384.192 258.126 385.324 256.992C386.457 255.858 387.801 254.959 389.281 254.345C390.76 253.732 392.346 253.417 393.947 253.418ZM393.712 274.403C395.444 274.449 397.15 273.979 398.615 273.054C400.081 272.129 401.239 270.789 401.944 269.204C402.65 267.618 402.87 265.86 402.577 264.149C402.284 262.439 401.491 260.854 400.299 259.595C399.107 258.336 397.569 257.46 395.879 257.076C394.19 256.693 392.424 256.82 390.807 257.442C389.19 258.063 387.793 259.151 386.792 260.568C385.792 261.985 385.234 263.667 385.189 265.402C385.134 267.726 386 269.977 387.597 271.663C389.194 273.349 391.392 274.334 393.712 274.403Z" fill="white"/>
<path d="M248.778 79.3949C240.782 76.7397 236.448 68.0939 239.099 60.0841C241.75 52.0742 250.381 47.7334 258.378 50.3886C266.374 53.0438 270.708 61.6896 268.057 69.6995C265.406 77.7093 256.775 82.0501 248.778 79.3949Z" fill="#23276E"/>
<path d="M233.358 89.3746L255.074 69.2073C255.414 68.891 255.689 68.5105 255.883 68.0876C256.077 67.6647 256.185 67.2077 256.202 66.7428C256.22 66.2778 256.145 65.8141 255.983 65.378C255.821 64.9419 255.575 64.5421 255.259 64.2013C254.943 63.8602 254.563 63.5847 254.141 63.3907C253.719 63.1967 253.263 63.088 252.798 63.0708C252.334 63.0536 251.871 63.1282 251.436 63.2904C251.001 63.4525 250.601 63.6991 250.261 64.0159L228.554 84.1916C228.214 84.508 227.939 84.8885 227.745 85.3114C227.551 85.7343 227.443 86.1913 227.426 86.6562C227.408 87.1211 227.483 87.5849 227.645 88.021C227.807 88.4571 228.053 88.8569 228.369 89.1976C229.008 89.883 229.892 90.2865 230.827 90.3197C231.763 90.3529 232.673 90.013 233.358 89.3746Z" fill="#23276E"/>
<path d="M249.876 76.1315C243.704 74.088 240.354 67.4194 242.394 61.2368C244.434 55.0542 251.092 51.6988 257.264 53.7423C263.436 55.7858 266.786 62.4544 264.746 68.637C262.706 74.8196 256.048 78.175 249.876 76.1315Z" fill="white"/>
<path d="M547.44 94.09C547.633 93.0769 547.105 92.0653 546.795 91.0817C546.624 90.5411 546.628 89.9604 546.806 89.4223C546.984 88.8841 547.327 88.4158 547.786 88.0838C548.245 87.7519 548.796 87.5732 549.362 87.5732C549.928 87.5732 550.48 87.7519 550.939 88.0838C551.397 88.4158 551.74 88.8841 551.918 89.4223C552.096 89.9604 552.1 90.5411 551.93 91.0817C551.619 92.0686 551.078 93.0758 551.251 94.0959L551.811 97.3893C551.858 97.6358 551.85 97.8899 551.787 98.1329C551.724 98.376 551.608 98.6019 551.447 98.7942C551.286 98.9864 551.083 99.1401 550.855 99.2441C550.627 99.3481 550.379 99.3996 550.128 99.395H548.496C548.245 99.3996 547.996 99.3481 547.768 99.2441C547.54 99.1401 547.338 98.9864 547.177 98.7942C547.015 98.6019 546.899 98.376 546.836 98.1329C546.773 97.8899 546.765 97.6358 546.813 97.3893L547.44 94.09Z" fill="white"/>
<path d="M298.793 130.493C296.277 129.127 294.71 126.494 294.71 123.631C294.71 120.771 296.274 118.139 298.788 116.772L299.171 116.564C301.715 115.181 304.785 115.18 307.329 116.562L307.719 116.774C310.233 118.14 311.798 120.771 311.798 123.631C311.798 126.494 310.23 129.127 307.714 130.492L307.323 130.703C304.782 132.081 301.717 132.08 299.177 130.702L298.793 130.493Z" fill="white"/>
<path d="M355.708 39.7617C353.193 38.3957 351.627 35.7632 351.627 32.9015C351.627 30.0397 353.193 27.4073 355.708 26.0413L356.095 25.8309C358.64 24.4485 361.711 24.4485 364.256 25.8309L364.643 26.0413C367.158 27.4073 368.724 30.0397 368.724 32.9015C368.724 35.7632 367.158 38.3957 364.643 39.7617L364.256 39.9721C361.711 41.3544 358.64 41.3544 356.095 39.9721L355.708 39.7617Z" fill="white"/>
<path d="M493.202 163.192C490.687 161.826 489.121 159.194 489.121 156.332C489.121 153.47 490.687 150.838 493.202 149.472L493.59 149.261C496.134 147.879 499.205 147.88 501.748 149.263L502.13 149.47C504.644 150.837 506.209 153.47 506.209 156.332C506.209 159.194 504.644 161.827 502.13 163.194L501.748 163.402C499.205 164.785 496.134 164.785 493.59 163.403L493.202 163.192Z" fill="white"/>
<path d="M549 18.4902H543.952" stroke="white" stroke-width="2" stroke-linecap="round" stroke-linejoin="round"/>
<path d="M534.353 18.4902H404.826" stroke="white" stroke-width="2" stroke-linecap="round" stroke-linejoin="round" stroke-dasharray="11.4 11.4"/>
<path d="M400.031 18.4985V18.4985C397.243 18.4985 394.982 20.7671 394.982 23.5551V23.5551" stroke="white" stroke-width="2" stroke-linecap="round" stroke-linejoin="round"/>
<path d="M394.982 29.6816V38.8762" stroke="white" stroke-width="2" stroke-linecap="round" stroke-linejoin="round" stroke-dasharray="7.27 7.27"/>
<path d="M394.982 41.9355V46.9921" stroke="white" stroke-width="2" stroke-linecap="round" stroke-linejoin="round"/>
<path d="M332.218 81.3852V76.3286" stroke="white" stroke-width="2" stroke-linecap="round" stroke-linejoin="round"/>
<path d="M332.218 67.9519V55.3779" stroke="white" stroke-width="2" stroke-linecap="round" stroke-linejoin="round" stroke-dasharray="9.94 9.94"/>
<path d="M332.218 51.1894V51.1894C332.218 48.4014 329.957 46.1328 327.169 46.1328V46.1328" stroke="white" stroke-width="2" stroke-linecap="round" stroke-linejoin="round"/>
<path d="M318.032 46.1328H304.327" stroke="white" stroke-width="2" stroke-linecap="round" stroke-linejoin="round" stroke-dasharray="10.86 10.86"/>
<path d="M299.758 46.1328H294.71" stroke="white" stroke-width="2" stroke-linecap="round" stroke-linejoin="round"/>
<path d="M593.802 210.842V205.785" stroke="white" stroke-width="2" stroke-linecap="round" stroke-linejoin="round"/>
<path d="M593.802 196.405V163.597" stroke="white" stroke-width="2" stroke-linecap="round" stroke-linejoin="round" stroke-dasharray="11.12 11.12"/>
<path d="M593.802 158.911V158.911C593.802 156.123 591.542 153.854 588.754 153.854V153.854" stroke="white" stroke-width="2" stroke-linecap="round" stroke-linejoin="round"/>
<path d="M577.186 153.854H559.829" stroke="white" stroke-width="2" stroke-linecap="round" stroke-linejoin="round" stroke-dasharray="13.75 13.75"/>
<path d="M554.049 153.854H549" stroke="white" stroke-width="2" stroke-linecap="round" stroke-linejoin="round"/>
<path d="M469.551 210.842V205.785" stroke="white" stroke-width="2" stroke-linecap="round" stroke-linejoin="round"/>
<path d="M469.551 196.852V165.594" stroke="white" stroke-width="2" stroke-linecap="round" stroke-linejoin="round" stroke-dasharray="10.6 10.6"/>
<path d="M469.551 161.127V161.127C469.551 157.995 467.91 155.083 465.227 153.467V153.467" stroke="white" stroke-width="2" stroke-linecap="round" stroke-linejoin="round"/>
<path d="M460.793 150.795L456.468 148.183" stroke="white" stroke-width="2" stroke-linecap="round" stroke-linejoin="round"/>
<path d="M341.624 291.266H336.575" stroke="white" stroke-width="2" stroke-linecap="round" stroke-linejoin="round"/>
<path d="M330.459 291.266H321.288" stroke="white" stroke-width="2" stroke-linecap="round" stroke-linejoin="round" stroke-dasharray="7.27 7.27"/>
<path d="M318.234 291.267V291.267C315.446 291.267 313.186 288.998 313.186 286.21V286.21" stroke="white" stroke-width="2" stroke-linecap="round" stroke-linejoin="round"/>
<path d="M313.186 276.249V221.478" stroke="white" stroke-width="2" stroke-linecap="round" stroke-linejoin="round" stroke-dasharray="11.82 11.82"/>
<path d="M313.186 216.497V211.44" stroke="white" stroke-width="2" stroke-linecap="round" stroke-linejoin="round"/>
<path d="M266.381 135.204H211.092C205.57 135.204 201.092 130.727 201.092 125.204V96.4458" stroke="white" stroke-width="2" stroke-linecap="round" stroke-linejoin="round" stroke-dasharray="12 12"/>
<path d="M593.802 277.639V374.973C593.802 380.496 589.325 384.973 583.802 384.973H519.258" stroke="white" stroke-width="2" stroke-linecap="round" stroke-linejoin="round" stroke-dasharray="12 12"/>
<path d="M384.074 126.214C384.394 126.821 384.554 127.365 384.554 127.845C384.585 128.293 384.458 128.692 384.17 129.044C383.882 129.364 383.402 129.7 382.73 130.052C381.707 130.532 380.907 130.66 380.331 130.436C379.787 130.212 379.276 129.588 378.796 128.565L368.096 105.966L357.445 128.565C356.965 129.556 356.437 130.148 355.861 130.34C355.286 130.564 354.486 130.452 353.462 130.004C352.823 129.684 352.343 129.348 352.023 128.996C351.735 128.644 351.607 128.229 351.639 127.749C351.703 127.237 351.911 126.629 352.263 125.926L365.457 98.4331C365.713 97.9213 366.081 97.5215 366.561 97.2336C367.073 96.9137 367.601 96.7538 368.144 96.7538C368.528 96.7538 368.88 96.8178 369.2 96.9457C369.52 97.0737 369.808 97.2656 370.064 97.5215C370.351 97.7774 370.591 98.0972 370.783 98.4811L384.074 126.214ZM359.556 121.559L361.859 116.618H374.382L376.685 121.559H359.556ZM390.698 130.244C389.802 130.244 389.146 130.116 388.73 129.86C388.315 129.604 388.059 129.252 387.963 128.804C387.867 128.325 387.819 127.829 387.819 127.317V99.6326C387.819 99.1208 387.867 98.657 387.963 98.2412C388.091 97.7934 388.363 97.4415 388.778 97.1856C389.194 96.8977 389.85 96.7538 390.746 96.7538H400.917C402.325 96.7538 403.7 96.9937 405.044 97.4735C406.387 97.9533 407.587 98.673 408.642 99.6326C409.73 100.592 410.577 101.776 411.185 103.183C411.825 104.591 412.145 106.238 412.145 108.125C412.145 109.98 411.825 111.612 411.185 113.019C410.577 114.394 409.73 115.562 408.642 116.522C407.555 117.481 406.339 118.201 404.996 118.681C403.684 119.16 402.309 119.4 400.869 119.4H393.624V127.365C393.624 127.877 393.56 128.357 393.432 128.804C393.336 129.252 393.081 129.604 392.665 129.86C392.281 130.116 391.625 130.244 390.698 130.244ZM393.624 113.547H400.917C401.909 113.547 402.805 113.355 403.604 112.971C404.436 112.555 405.108 111.947 405.619 111.148C406.131 110.316 406.387 109.277 406.387 108.029C406.387 106.91 406.147 105.95 405.667 105.15C405.22 104.319 404.58 103.679 403.748 103.231C402.948 102.783 401.989 102.559 400.869 102.559H393.624V113.547ZM419.132 130.292C418.236 130.292 417.581 130.148 417.165 129.86C416.749 129.604 416.493 129.252 416.397 128.804C416.301 128.357 416.253 127.861 416.253 127.317V99.6326C416.253 99.1208 416.301 98.641 416.397 98.1932C416.525 97.7454 416.781 97.3935 417.165 97.1376C417.581 96.8817 418.252 96.7538 419.18 96.7538C420.076 96.7538 420.715 96.8817 421.099 97.1376C421.515 97.3935 421.771 97.7454 421.867 98.1932C421.995 98.641 422.059 99.1368 422.059 99.6806V127.365C422.059 127.909 421.995 128.405 421.867 128.852C421.771 129.268 421.515 129.604 421.099 129.86C420.683 130.148 420.028 130.292 419.132 130.292Z" fill="#23276E"/>
</svg>
