<svg width="50" height="50" viewBox="0 0 50 50" fill="none" xmlns="http://www.w3.org/2000/svg">
<g clip-path="url(#clip0_1319_10)">
<path opacity="0.99" fill-rule="evenodd" clip-rule="evenodd" d="M22.7051 -0.0488281C24.2024 -0.0488281 25.6999 -0.0488281 27.1973 -0.0488281C29.9797 0.239909 32.649 0.956055 35.2051 2.09961C28.4017 2.22981 21.5983 2.22981 14.7949 2.09961C17.3122 0.941336 19.9489 0.225189 22.7051 -0.0488281Z" fill="#28F29A"/>
<path opacity="0.997" fill-rule="evenodd" clip-rule="evenodd" d="M4.15039 -0.0488281C5.48503 -0.0488281 6.81966 -0.0488281 8.1543 -0.0488281C8.1543 0.797526 8.1543 1.64388 8.1543 2.49023C8.12175 2.49023 8.08919 2.49023 8.05664 2.49023C8.05664 2.39258 8.05664 2.29492 8.05664 2.19727C6.75456 2.19727 5.45247 2.19727 4.15039 2.19727C4.15039 1.44856 4.15039 0.69987 4.15039 -0.0488281Z" fill="#28F29A"/>
<path opacity="0.991" fill-rule="evenodd" clip-rule="evenodd" d="M14.7949 2.09961C21.5983 2.22981 28.4017 2.22981 35.2051 2.09961C36.5752 2.66015 37.8447 3.3763 39.0137 4.24805C35.6767 4.21565 32.3563 4.24821 29.0527 4.3457C26.2286 3.73287 23.3966 3.73287 20.5566 4.3457C17.3507 4.24821 14.128 4.21566 10.8887 4.24805C12.1001 3.38161 13.4021 2.66547 14.7949 2.09961Z" fill="#27EF9E"/>
<path opacity="0.997" fill-rule="evenodd" clip-rule="evenodd" d="M4.15039 2.19727C5.45247 2.19727 6.75456 2.19727 8.05664 2.19727C8.05664 2.29492 8.05664 2.39258 8.05664 2.49023C8.05664 3.07617 8.05664 3.66211 8.05664 4.24805C6.75456 4.24805 5.45247 4.24805 4.15039 4.24805C4.15039 3.56445 4.15039 2.88086 4.15039 2.19727Z" fill="#27EF9E"/>
<path opacity="0.946" fill-rule="evenodd" clip-rule="evenodd" d="M8.05664 2.49023C8.08919 2.49023 8.12175 2.49023 8.1543 2.49023C8.1543 3.75977 8.1543 5.0293 8.1543 6.29883C8.05629 6.05027 8.02373 5.72475 8.05664 5.32227C6.75456 5.32227 5.45247 5.32227 4.15039 5.32227C4.15039 4.96419 4.15039 4.60612 4.15039 4.24805C5.45247 4.24805 6.75456 4.24805 8.05664 4.24805C8.05664 3.66211 8.05664 3.07617 8.05664 2.49023Z" fill="#26ECA1"/>
<path opacity="0.989" fill-rule="evenodd" clip-rule="evenodd" d="M10.8887 4.24795C14.128 4.21557 17.3507 4.24812 20.5566 4.34561C19.3672 4.64302 18.1953 5.0011 17.041 5.41983C14.5345 5.35472 12.028 5.28962 9.52148 5.22451C9.94775 4.86424 10.4034 4.53872 10.8887 4.24795Z" fill="#26ECA1"/>
<path opacity="0.988" fill-rule="evenodd" clip-rule="evenodd" d="M29.0527 4.34561C32.3563 4.24812 35.6767 4.21556 39.0137 4.24796C39.5577 4.53563 40.046 4.89371 40.4785 5.32218C37.92 5.29097 35.3483 5.32353 32.7637 5.41983C31.5723 4.91033 30.3353 4.55225 29.0527 4.34561Z" fill="#26ECA1"/>
<path opacity="0.992" fill-rule="evenodd" clip-rule="evenodd" d="M9.52148 5.22461C12.028 5.28972 14.5345 5.35481 17.041 5.41992C15.2952 6.16251 13.6677 7.10652 12.1582 8.25195C9.5057 8.1545 6.83644 8.12195 4.15039 8.1543C4.15039 7.21028 4.15039 6.26628 4.15039 5.32227C5.45247 5.32227 6.75456 5.32227 8.05664 5.32227C8.02373 5.72475 8.05629 6.05027 8.1543 6.29883C8.61003 5.94075 9.06575 5.58269 9.52148 5.22461Z" fill="#24E9A5"/>
<path opacity="0.987" fill-rule="evenodd" clip-rule="evenodd" d="M32.7637 5.42014C35.3483 5.32384 37.92 5.29129 40.4785 5.32249C41.5785 6.16179 42.5876 7.10581 43.5059 8.15452C41.5527 8.15452 39.5996 8.15452 37.6465 8.15452C36.139 7.04232 34.5113 6.13087 32.7637 5.42014Z" fill="#24E9A5"/>
<path opacity="0.996" fill-rule="evenodd" clip-rule="evenodd" d="M4.15039 8.15418C6.83644 8.12184 9.5057 8.15439 12.1582 8.25184C11.5924 8.70332 11.039 9.17532 10.498 9.66785C12.9393 9.71668 15.3807 9.73295 17.8223 9.71668C17.8223 10.1724 17.8223 10.6281 17.8223 11.0839C13.2649 11.0839 8.70769 11.0839 4.15039 11.0839C4.15039 10.1073 4.15039 9.13074 4.15039 8.15418Z" fill="#21E3AB"/>
<path opacity="0.981" fill-rule="evenodd" clip-rule="evenodd" d="M37.6465 8.1543C39.5996 8.1543 41.5527 8.1543 43.5059 8.1543C44.3799 9.05573 45.1611 10.0323 45.8496 11.084C44.1819 11.0529 42.5218 11.0854 40.8691 11.1816C39.8858 10.068 38.8116 9.05882 37.6465 8.1543Z" fill="#22E4AB"/>
<path opacity="0.999" fill-rule="evenodd" clip-rule="evenodd" d="M17.8223 9.7168C17.9524 11.0188 17.9524 12.321 17.8223 13.623C17.8223 13.2324 17.8223 12.8418 17.8223 12.4512C13.2649 12.4512 8.70769 12.4512 4.15039 12.4512C4.15039 11.9954 4.15039 11.5397 4.15039 11.084C8.70769 11.084 13.2649 11.084 17.8223 11.084C17.8223 10.6282 17.8223 10.1726 17.8223 9.7168Z" fill="#20E0B0"/>
<path opacity="0.985" fill-rule="evenodd" clip-rule="evenodd" d="M45.8496 11.0841C46.1101 11.5073 46.3704 11.9305 46.6309 12.3537C45.076 12.4498 43.5135 12.4823 41.9434 12.4513C41.5515 12.0592 41.1935 11.6361 40.8691 11.1818C42.5218 11.0856 44.1819 11.0531 45.8496 11.0841Z" fill="#20E0B0"/>
<path opacity="0.988" fill-rule="evenodd" clip-rule="evenodd" d="M46.6309 12.3535C47.1381 13.2377 47.5938 14.1492 47.998 15.0879C46.5562 15.1515 45.1239 15.2166 43.7012 15.2832C43.116 14.3396 42.5301 13.3957 41.9434 12.4512C43.5135 12.4821 45.076 12.4496 46.6309 12.3535Z" fill="#1EDCB3"/>
<path opacity="0.999" fill-rule="evenodd" clip-rule="evenodd" d="M4.15039 12.4512C8.70769 12.4512 13.2649 12.4512 17.8223 12.4512C17.8223 12.8418 17.8223 13.2324 17.8223 13.623C13.2649 13.623 8.70769 13.623 4.15039 13.623C4.15039 13.2324 4.15039 12.8418 4.15039 12.4512Z" fill="#1FDEB2"/>
<path opacity="0.985" fill-rule="evenodd" clip-rule="evenodd" d="M47.998 15.0879C48.3485 15.8789 48.6415 16.6927 48.877 17.5293C47.4772 17.5293 46.0774 17.5293 44.6777 17.5293C44.3291 16.7986 44.0036 16.05 43.7012 15.2832C45.1239 15.2166 46.5562 15.1515 47.998 15.0879Z" fill="#1CD8B9"/>
<path opacity="0.979" fill-rule="evenodd" clip-rule="evenodd" d="M24.9512 18.6037C22.3628 18.636 19.7911 18.6035 17.2363 18.506C19.0177 17.0826 21.0033 16.7408 23.1934 17.4806C23.8685 17.7355 24.4544 18.1099 24.9512 18.6037Z" fill="#1AD5BC"/>
<path fill-rule="evenodd" clip-rule="evenodd" d="M34.7168 18.6035C33.4147 18.6035 32.1126 18.6035 30.8105 18.6035C30.8105 18.1152 30.8105 17.627 30.8105 17.1387C32.1126 17.1387 33.4147 17.1387 34.7168 17.1387C34.7168 17.627 34.7168 18.1152 34.7168 18.6035Z" fill="#1AD5BC"/>
<path opacity="0.989" fill-rule="evenodd" clip-rule="evenodd" d="M44.6777 17.5293C46.0774 17.5293 47.4772 17.5293 48.877 17.5293C48.9896 17.8176 49.0873 18.1105 49.1699 18.4082C47.8267 18.5991 46.4595 18.6643 45.0684 18.6035C44.902 18.2677 44.7717 17.9097 44.6777 17.5293Z" fill="#1AD5BC"/>
<path opacity="0.987" fill-rule="evenodd" clip-rule="evenodd" d="M49.1699 18.4082C49.3467 19.0827 49.4769 19.7663 49.5605 20.459C48.2259 20.459 46.8913 20.459 45.5566 20.459C45.3505 19.8627 45.1877 19.2442 45.0684 18.6035C46.4595 18.6643 47.8267 18.5991 49.1699 18.4082Z" fill="#19D2BF"/>
<path opacity="0.993" fill-rule="evenodd" clip-rule="evenodd" d="M17.2363 18.5059C19.7911 18.6033 22.3628 18.6358 24.9512 18.6035C25.5735 19.0996 26.0292 19.7181 26.3184 20.459C22.8027 20.459 19.2871 20.459 15.7715 20.459C16.0699 19.6674 16.5582 19.0163 17.2363 18.5059Z" fill="#19D2BF"/>
<path fill-rule="evenodd" clip-rule="evenodd" d="M30.8105 18.6035C32.1126 18.6035 33.4147 18.6035 34.7168 18.6035C34.7168 19.222 34.7168 19.8405 34.7168 20.459C33.4147 20.459 32.1126 20.459 30.8105 20.459C30.8105 19.8405 30.8105 19.222 30.8105 18.6035Z" fill="#19D2BF"/>
<path opacity="0.988" fill-rule="evenodd" clip-rule="evenodd" d="M15.7715 20.459C19.2871 20.459 22.8027 20.459 26.3184 20.459C26.617 20.9663 26.8123 21.5197 26.9043 22.1191C25.5198 22.087 24.1526 22.1195 22.8027 22.2168C22.0674 21.0793 21.0908 20.8352 19.873 21.4844C19.6519 21.6561 19.4891 21.8677 19.3848 22.1191C17.9773 22.15 16.5776 22.1174 15.1855 22.0215C15.2861 21.4585 15.4814 20.9377 15.7715 20.459Z" fill="#18D0C3"/>
<path fill-rule="evenodd" clip-rule="evenodd" d="M30.8105 20.459C32.1126 20.459 33.4147 20.459 34.7168 20.459C34.7168 21.0124 34.7168 21.5657 34.7168 22.1191C33.4147 22.1191 32.1126 22.1191 30.8105 22.1191C30.8105 21.5657 30.8105 21.0124 30.8105 20.459Z" fill="#18CFC3"/>
<path opacity="0.993" fill-rule="evenodd" clip-rule="evenodd" d="M45.5566 20.459C46.8913 20.459 48.2259 20.459 49.5605 20.459C49.705 21.0245 49.8026 21.6104 49.8535 22.2168C48.5266 22.121 47.192 22.0884 45.8496 22.1191C45.7012 21.5871 45.6035 21.0338 45.5566 20.459Z" fill="#18CFC3"/>
<path opacity="0.995" fill-rule="evenodd" clip-rule="evenodd" d="M15.1855 22.0215C16.5776 22.1174 17.9773 22.15 19.3848 22.1191C19.2038 22.5522 19.1062 23.008 19.0918 23.4863C17.7897 23.4863 16.4876 23.4863 15.1855 23.4863C15.1855 22.998 15.1855 22.5098 15.1855 22.0215Z" fill="#16CDC6"/>
<path opacity="0.993" fill-rule="evenodd" clip-rule="evenodd" d="M26.9043 22.1189C26.9043 22.5747 26.9043 23.0303 26.9043 23.4861C25.6022 23.4861 24.3001 23.4861 22.998 23.4861C22.9645 23.057 22.8994 22.6338 22.8027 22.2166C24.1526 22.1193 25.5198 22.0868 26.9043 22.1189Z" fill="#16CDC6"/>
<path fill-rule="evenodd" clip-rule="evenodd" d="M30.8105 22.1191C32.1126 22.1191 33.4147 22.1191 34.7168 22.1191C34.7168 22.5749 34.7168 23.0306 34.7168 23.4863C33.4147 23.4863 32.1126 23.4863 30.8105 23.4863C30.8105 23.0306 30.8105 22.5749 30.8105 22.1191Z" fill="#16CDC6"/>
<path opacity="0.983" fill-rule="evenodd" clip-rule="evenodd" d="M45.8496 22.1191C47.192 22.0883 48.5266 22.121 49.8535 22.2168C49.8258 22.4038 49.8583 22.5665 49.9512 22.705C49.9512 22.998 49.9512 23.291 49.9512 23.584C48.6568 23.4882 47.3548 23.4556 46.0449 23.4863C46.0681 23.6124 46.0355 23.71 45.9473 23.7793C45.9219 23.2254 45.8894 22.6719 45.8496 22.1191Z" fill="#16CDC6"/>
<path fill-rule="evenodd" clip-rule="evenodd" d="M15.1855 23.4863C16.4876 23.4863 17.7897 23.4863 19.0918 23.4863C19.0918 23.9746 19.0918 24.4629 19.0918 24.9512C20.3938 24.9512 21.696 24.9512 22.998 24.9512C22.998 24.4629 22.998 23.9746 22.998 23.4863C24.3001 23.4863 25.6022 23.4863 26.9043 23.4863C26.9043 24.3652 26.9043 25.2441 26.9043 26.123C22.998 26.123 19.0918 26.123 15.1855 26.123C15.1855 25.2441 15.1855 24.3652 15.1855 23.4863Z" fill="#15C9CA"/>
<path fill-rule="evenodd" clip-rule="evenodd" d="M30.8105 23.4863C32.1126 23.4863 33.4147 23.4863 34.7168 23.4863C34.7168 24.3652 34.7168 25.2441 34.7168 26.123C33.4147 26.123 32.1126 26.123 30.8105 26.123C30.8105 25.2441 30.8105 24.3652 30.8105 23.4863Z" fill="#15C9CA"/>
<path opacity="0.991" fill-rule="evenodd" clip-rule="evenodd" d="M49.9512 23.5839C49.9512 24.3977 49.9512 25.2116 49.9512 26.0253C48.6001 26.1869 47.2655 26.1544 45.9473 25.9277C45.9473 25.2116 45.9473 24.4953 45.9473 23.7792C46.0355 23.71 46.0681 23.6123 46.0449 23.4863C47.3548 23.4556 48.6568 23.4881 49.9512 23.5839Z" fill="#15C9CA"/>
<path opacity="0.991" fill-rule="evenodd" clip-rule="evenodd" d="M-0.0488281 24.9512C1.28581 24.9512 2.62044 24.9512 3.95508 24.9512C3.95508 25.3093 3.95508 25.6673 3.95508 26.0254C2.62815 26.1212 1.29352 26.1538 -0.0488281 26.123C-0.0488281 25.7324 -0.0488281 25.3418 -0.0488281 24.9512Z" fill="#14C8CB"/>
<path fill-rule="evenodd" clip-rule="evenodd" d="M15.1855 26.123C19.0918 26.123 22.998 26.123 26.9043 26.123C26.9043 26.3835 26.9043 26.6438 26.9043 26.9043C22.998 26.9043 19.0918 26.9043 15.1855 26.9043C15.1855 26.6438 15.1855 26.3835 15.1855 26.123Z" fill="#13C6CD"/>
<path opacity="0.987" fill-rule="evenodd" clip-rule="evenodd" d="M3.95508 26.0254C3.97471 26.6122 4.00726 27.1981 4.05273 27.7832C2.76795 27.8805 1.46587 27.913 0.146484 27.8809C0.146484 27.9785 0.146484 28.0762 0.146484 28.1738C0.0813802 27.8483 0.0162761 27.5228 -0.0488281 27.1973C-0.0488281 26.8392 -0.0488281 26.4812 -0.0488281 26.123C1.29352 26.1538 2.62815 26.1212 3.95508 26.0254Z" fill="#13C5CF"/>
<path fill-rule="evenodd" clip-rule="evenodd" d="M15.1855 26.9043C19.0918 26.9043 22.998 26.9043 26.9043 26.9043C26.9043 27.2298 26.9043 27.5554 26.9043 27.8809C22.998 27.8809 19.0918 27.8809 15.1855 27.8809C15.1855 27.5554 15.1855 27.2298 15.1855 26.9043Z" fill="#13C5CF"/>
<path fill-rule="evenodd" clip-rule="evenodd" d="M30.8105 26.123C32.1126 26.123 33.4147 26.123 34.7168 26.123C34.7168 26.709 34.7168 27.2949 34.7168 27.8809C33.4147 27.8809 32.1126 27.8809 30.8105 27.8809C30.8105 27.2949 30.8105 26.709 30.8105 26.123Z" fill="#13C5CE"/>
<path opacity="0.987" fill-rule="evenodd" clip-rule="evenodd" d="M45.9473 25.9277C47.2655 26.1545 48.6001 26.187 49.9512 26.0254C49.9512 26.416 49.9512 26.8066 49.9512 27.1973C49.8562 27.4363 49.8236 27.6968 49.8535 27.9785C48.5093 27.915 47.1746 27.8499 45.8496 27.7832C45.8887 27.1651 45.9212 26.5467 45.9473 25.9277Z" fill="#13C5CF"/>
<path opacity="0.991" fill-rule="evenodd" clip-rule="evenodd" d="M4.05273 27.7832C4.21402 28.5527 4.37678 29.334 4.54102 30.127C3.19773 29.936 1.83055 29.8709 0.439453 29.9316C0.259329 29.3718 0.161673 28.7858 0.146484 28.1738C0.146484 28.0762 0.146484 27.9785 0.146484 27.8809C1.46587 27.913 2.76795 27.8805 4.05273 27.7832Z" fill="#11C2D2"/>
<path fill-rule="evenodd" clip-rule="evenodd" d="M15.1855 27.8809C19.0918 27.8809 22.998 27.8809 26.9043 27.8809C26.9043 28.5645 26.9043 29.248 26.9043 29.9316C25.6022 29.9316 24.3001 29.9316 22.998 29.9316C22.998 29.5735 22.998 29.2155 22.998 28.8574C21.696 28.8574 20.3938 28.8574 19.0918 28.8574C19.0918 29.2155 19.0918 29.5735 19.0918 29.9316C17.7897 29.9316 16.4876 29.9316 15.1855 29.9316C15.1855 29.248 15.1855 28.5645 15.1855 27.8809Z" fill="#11C2D2"/>
<path fill-rule="evenodd" clip-rule="evenodd" d="M30.8105 27.8809C32.1126 27.8809 33.4147 27.8809 34.7168 27.8809C34.7168 28.5645 34.7168 29.248 34.7168 29.9316C33.4147 29.9316 32.1126 29.9316 30.8105 29.9316C30.8105 29.248 30.8105 28.5645 30.8105 27.8809Z" fill="#11C2D2"/>
<path opacity="0.99" fill-rule="evenodd" clip-rule="evenodd" d="M45.8496 27.7832C47.1746 27.8499 48.5093 27.915 49.8535 27.9785C49.7432 28.6424 49.613 29.2935 49.4629 29.9316C48.0957 29.9316 46.7285 29.9316 45.3613 29.9316C45.546 29.211 45.7088 28.4949 45.8496 27.7832Z" fill="#11C2D2"/>
<path opacity="0.987" fill-rule="evenodd" clip-rule="evenodd" d="M0.439453 29.9317C1.83055 29.8709 3.19773 29.936 4.54102 30.127C4.80776 31.1226 5.13329 32.0991 5.51758 33.0567C4.09293 32.9607 2.66064 32.9281 1.2207 32.959C0.853668 31.9792 0.593251 30.97 0.439453 29.9317Z" fill="#0FBED7"/>
<path fill-rule="evenodd" clip-rule="evenodd" d="M15.1855 29.9316C16.4876 29.9316 17.7897 29.9316 19.0918 29.9316C19.0918 30.8757 19.0918 31.8196 19.0918 32.7637C17.7897 32.7637 16.4876 32.7637 15.1855 32.7637C15.1855 31.8196 15.1855 30.8757 15.1855 29.9316Z" fill="#0FBED7"/>
<path fill-rule="evenodd" clip-rule="evenodd" d="M22.998 29.9316C24.3001 29.9316 25.6022 29.9316 26.9043 29.9316C26.9043 30.8757 26.9043 31.8196 26.9043 32.7637C25.6022 32.7637 24.3001 32.7637 22.998 32.7637C22.998 31.8196 22.998 30.8757 22.998 29.9316Z" fill="#0FBED7"/>
<path fill-rule="evenodd" clip-rule="evenodd" d="M30.8105 29.9316C32.1126 29.9316 33.4147 29.9316 34.7168 29.9316C34.7168 30.8757 34.7168 31.8196 34.7168 32.7637C33.4147 32.7637 32.1126 32.7637 30.8105 32.7637C30.8105 31.8196 30.8105 30.8757 30.8105 29.9316Z" fill="#0FBED7"/>
<path opacity="0.983" fill-rule="evenodd" clip-rule="evenodd" d="M45.3613 29.9316C46.7285 29.9316 48.0957 29.9316 49.4629 29.9316C49.309 30.9704 49.0485 31.9796 48.6816 32.959C47.2896 32.8631 45.8898 32.8305 44.4824 32.8613C44.8541 31.9091 45.1471 30.9325 45.3613 29.9316Z" fill="#0FBED7"/>
<path opacity="0.982" fill-rule="evenodd" clip-rule="evenodd" d="M1.2207 32.959C2.66064 32.9282 4.09293 32.9607 5.51758 33.0567C5.79161 33.735 6.11713 34.386 6.49414 35.0098C5.01972 35.0735 3.55487 35.1385 2.09961 35.2051C1.72948 34.4957 1.43651 33.747 1.2207 32.959Z" fill="#0DB9DD"/>
<path opacity="0.99" fill-rule="evenodd" clip-rule="evenodd" d="M44.4824 32.8614C45.8898 32.8305 47.2896 32.8631 48.6816 32.959C48.4631 33.714 48.1701 34.4302 47.8027 35.1074C46.3303 35.1383 44.8654 35.1058 43.4082 35.0098C43.8045 34.307 44.1625 33.5908 44.4824 32.8614Z" fill="#0DB9DC"/>
<path opacity="0.994" fill-rule="evenodd" clip-rule="evenodd" d="M6.49414 35.0098C6.74827 35.5236 7.04124 36.0119 7.37305 36.4746C5.80298 36.5056 4.24048 36.473 2.68555 36.377C2.44064 36.0174 2.24533 35.6268 2.09961 35.2051C3.55487 35.1385 5.01972 35.0734 6.49414 35.0098Z" fill="#0BB6E0"/>
<path opacity="0.999" fill-rule="evenodd" clip-rule="evenodd" d="M43.4081 35.0098C44.8653 35.1058 46.3302 35.1383 47.8026 35.1074C47.6608 35.5862 47.4655 36.042 47.2167 36.4746C45.8495 36.4746 44.4823 36.4746 43.1151 36.4746C43.0533 35.9481 43.151 35.4599 43.4081 35.0098Z" fill="#0BB6E0"/>
<path opacity="0.983" fill-rule="evenodd" clip-rule="evenodd" d="M2.68555 36.377C4.24048 36.473 5.80298 36.5056 7.37305 36.4746C8.00912 37.421 8.69271 38.3324 9.42383 39.209C7.78075 39.3063 6.1206 39.3389 4.44336 39.3066C3.74167 38.4073 3.15573 37.4308 2.68555 36.377Z" fill="#0AB3E4"/>
<path opacity="0.999" fill-rule="evenodd" clip-rule="evenodd" d="M43.1152 36.4746C44.4824 36.4746 45.8496 36.4746 47.2168 36.4746C47.1692 36.5696 47.1204 36.6673 47.0703 36.7676C47.0215 37.6133 47.0053 38.4597 47.0215 39.3066C45.7194 39.3066 44.4173 39.3066 43.1152 39.3066C43.1152 38.3626 43.1152 37.4187 43.1152 36.4746Z" fill="#0AB2E4"/>
<path opacity="0.985" fill-rule="evenodd" clip-rule="evenodd" d="M9.42383 39.209C9.87959 39.5996 10.3027 40.0228 10.6934 40.4785C8.91852 40.4463 7.1607 40.4788 5.41992 40.5762C5.02266 40.211 4.69713 39.7879 4.44336 39.3066C6.1206 39.3389 7.78075 39.3063 9.42383 39.209Z" fill="#08AFE8"/>
<path fill-rule="evenodd" clip-rule="evenodd" d="M43.1152 39.3066C44.4173 39.3066 45.7194 39.3066 47.0215 39.3066C47.0215 39.6973 47.0215 40.0879 47.0215 40.4785C45.7194 40.4785 44.4173 40.4785 43.1152 40.4785C43.1152 40.0879 43.1152 39.6973 43.1152 39.3066Z" fill="#08AFE8"/>
<path opacity="0.988" fill-rule="evenodd" clip-rule="evenodd" d="M10.6934 40.4783C11.4444 41.0673 12.1932 41.6532 12.9395 42.2361C10.9368 42.2039 8.95115 42.2364 6.98242 42.3338C6.35561 41.8375 5.83478 41.2516 5.41992 40.576C7.1607 40.4786 8.91852 40.4461 10.6934 40.4783Z" fill="#07ADEB"/>
<path fill-rule="evenodd" clip-rule="evenodd" d="M43.1152 40.4785C44.4173 40.4785 45.7194 40.4785 47.0215 40.4785C47.0215 41.0645 47.0215 41.6504 47.0215 42.2363C45.7194 42.2363 44.4173 42.2363 43.1152 42.2363C43.1152 41.6504 43.1152 41.0645 43.1152 40.4785Z" fill="#07ADEB"/>
<path opacity="0.991" fill-rule="evenodd" clip-rule="evenodd" d="M12.9395 42.2361C13.8219 42.8401 14.7334 43.3934 15.6738 43.8963C13.3301 43.8963 10.9863 43.8963 8.64258 43.8963C8.02967 43.4464 7.47629 42.9255 6.98242 42.3338C8.95115 42.2364 10.9368 42.2039 12.9395 42.2361Z" fill="#05AAEF"/>
<path opacity="0.997" fill-rule="evenodd" clip-rule="evenodd" d="M43.1152 42.2363C44.4173 42.2363 45.7194 42.2363 47.0215 42.2363C47.0215 42.7897 47.0215 43.3431 47.0215 43.8965C42.7571 43.8965 38.4929 43.8965 34.2285 43.8965C34.6136 43.6057 35.0368 43.3615 35.498 43.1641C38.0369 43.1152 40.576 43.0989 43.1152 43.1152C43.1152 42.8223 43.1152 42.5293 43.1152 42.2363Z" fill="#05A9EF"/>
<path opacity="0.986" fill-rule="evenodd" clip-rule="evenodd" d="M8.64258 43.8965C10.9863 43.8965 13.3301 43.8965 15.6738 43.8965C16.7477 44.3408 17.8219 44.764 18.8965 45.166C16.0486 45.2635 13.1841 45.296 10.3027 45.2637C9.69008 44.8788 9.13669 44.423 8.64258 43.8965Z" fill="#04A7F2"/>
<path opacity="0.995" fill-rule="evenodd" clip-rule="evenodd" d="M34.2285 43.8965C38.4929 43.8965 42.7571 43.8965 47.0215 43.8965C47.0215 44.3522 47.0215 44.8079 47.0215 45.2637C41.6013 45.2961 36.1977 45.2636 30.8105 45.166C31.9709 44.8009 33.1103 44.3777 34.2285 43.8965Z" fill="#04A7F2"/>
<path opacity="0.991" fill-rule="evenodd" clip-rule="evenodd" d="M18.8965 45.166C22.8746 46.2772 26.846 46.2772 30.8105 45.166C36.1977 45.2636 41.6013 45.2961 47.0215 45.2637C47.0215 45.8496 47.0215 46.4355 47.0215 47.0215C43.6033 47.0052 40.1854 47.0215 36.7676 47.0703C36.5165 47.2123 36.2561 47.3262 35.9863 47.4121C28.6456 47.3796 21.3214 47.4122 14.0137 47.5098C12.7082 46.8578 11.4713 46.1091 10.3027 45.2637C13.1841 45.296 16.0486 45.2635 18.8965 45.166Z" fill="#03A4F5"/>
<path opacity="0.994" fill-rule="evenodd" clip-rule="evenodd" d="M14.0137 47.5097C21.3214 47.4122 28.6456 47.3796 35.9863 47.4121C35.3424 47.7825 34.6588 48.0755 33.9355 48.291C27.8648 48.1934 21.7775 48.1609 15.6738 48.1933C15.0963 48.0225 14.543 47.7947 14.0137 47.5097Z" fill="#02A1F8"/>
<path opacity="0.97" fill-rule="evenodd" clip-rule="evenodd" d="M15.6738 48.1933C21.7775 48.1609 27.8648 48.1934 33.9355 48.2909C31.7343 49.1673 29.4557 49.7207 27.0996 49.9511C25.6348 49.9511 24.1699 49.9511 22.7051 49.9511C20.2787 49.7026 17.935 49.1166 15.6738 48.1933Z" fill="#019FFB"/>
</g>
<defs>
<clipPath id="clip0_1319_10">
<rect width="50" height="50" fill="white"/>
</clipPath>
</defs>
</svg>
