<svg width="20" height="20" viewBox="0 0 20 20" fill="none" xmlns="http://www.w3.org/2000/svg">
<g clip-path="url(#clip0_1659_44)">
<path opacity="0.978" fill-rule="evenodd" clip-rule="evenodd" d="M9.62884 0.449219C13.3338 0.455395 16.1788 2.00487 18.164 5.09766C19.9595 8.35281 19.9595 11.608 18.164 14.8633C16.2591 17.8315 13.5312 19.381 9.98041 19.5117C5.96634 19.3388 3.06922 17.4637 1.289 13.8867C-0.0927345 10.488 0.258828 7.28488 2.34369 4.27734C4.19521 1.91591 6.62361 0.639871 9.62884 0.449219ZM9.78509 1.85547C12.7487 1.89492 15.0729 3.11888 16.7577 5.52734C18.12 7.70117 18.4325 10.0189 17.6952 12.4805C17.288 13.6866 16.6435 14.7413 15.7617 15.6445C14.9587 14.1749 13.7217 13.3481 12.0507 13.1641C10.6705 13.138 9.29029 13.138 7.91009 13.1641C6.23908 13.3481 5.00212 14.1749 4.19916 15.6445C2.06127 13.336 1.40371 10.6538 2.2265 7.59766C3.13178 4.92152 4.92216 3.13117 7.59759 2.22656C8.3188 2.02174 9.04794 1.89805 9.78509 1.85547Z" fill="#64748B"/>
<path opacity="0.987" fill-rule="evenodd" clip-rule="evenodd" d="M9.70707 4.47258C11.4952 4.45133 12.7386 5.25863 13.4375 6.89445C13.9145 8.45699 13.5694 9.80465 12.4024 10.9374C11.2148 11.8688 9.9127 12.0641 8.49613 11.5234C7.23457 10.9216 6.51192 9.92555 6.32817 8.53508C6.235 6.98308 6.84047 5.79168 8.14457 4.96086C8.63973 4.69805 9.16059 4.53527 9.70707 4.47258Z" fill="#64748B"/>
</g>
<defs>
<clipPath id="clip0_1659_44">
<rect width="20" height="20" fill="white"/>
</clipPath>
</defs>
</svg>
