<svg width="89" height="40" viewBox="0 0 89 40" fill="none" xmlns="http://www.w3.org/2000/svg">
<path d="M16.25 29.1875C16.25 28.0208 16.6458 27.0417 17.4375 26.25C18.2708 25.4167 19.2708 25 20.4375 25H30L28.375 20.375C27.7083 18.6667 27.0417 17.0625 26.375 15.5625C25.75 14.0208 25.0208 12.625 24.1875 11.375C23.4375 10.125 22.5833 9.45833 21.625 9.375C20.625 9.45833 19.7292 10.125 18.9375 11.375C18.1458 12.625 17.4167 14.0208 16.75 15.5625C16.125 17.0625 15.4792 18.6667 14.8125 20.375L8.875 36.625C8.45833 37.5 7.91667 38.2292 7.25 38.8125C6.625 39.3542 5.66667 39.625 4.375 39.625C3.16667 39.625 2.16667 39.2083 1.375 38.375C0.625 37.5417 0.291667 36.5417 0.375 35.375C0.416667 34.8333 0.541667 34.3333 0.75 33.875L7.625 16.125C9.54167 11.4583 11.4583 7.6875 13.375 4.8125C15.25 1.97917 18 0.541667 21.625 0.5C25.2083 0.541667 27.9375 1.97917 29.8125 4.8125C31.7292 7.60417 33.6458 11.375 35.5625 16.125L42.4375 33.875C42.6458 34.3333 42.7708 34.8333 42.8125 35.375C42.8958 36.5417 42.5417 37.5417 41.75 38.375C41 39.2083 40.0208 39.625 38.8125 39.625C37.4375 39.625 36.4167 39.3542 35.75 38.8125C35.125 38.2292 34.6042 37.5 34.1875 36.625L33 33.375H20.4375C19.2708 33.375 18.2917 32.9583 17.5 32.125C16.6667 31.3333 16.25 30.3542 16.25 29.1875ZM47.75 34.6875C47.75 33.5208 48.1458 32.5417 48.9375 31.75C49.7708 30.9167 50.7708 30.5 51.9375 30.5H63.9375V10.375H51.9375C50.7708 10.375 49.7917 9.95833 49 9.125C48.1667 8.33333 47.75 7.35417 47.75 6.1875C47.75 5.02083 48.1458 4.04167 48.9375 3.25C49.7708 2.41667 50.7708 2 51.9375 2H84.3125C85.4792 2 86.4792 2.39583 87.3125 3.1875C88.1042 4.02083 88.5 5.02083 88.5 6.1875C88.5 7.35417 88.0833 8.35417 87.25 9.1875C86.4583 9.97917 85.4792 10.375 84.3125 10.375H72.375V30.5H84.3125C85.4792 30.5 86.4792 30.8958 87.3125 31.6875C88.1042 32.5208 88.5 33.5208 88.5 34.6875C88.5 35.8542 88.0833 36.8542 87.25 37.6875C86.4583 38.4792 85.4792 38.875 84.3125 38.875H51.9375C50.7708 38.875 49.7917 38.4583 49 37.625C48.1667 36.8333 47.75 35.8542 47.75 34.6875Z" fill="url(#paint0_linear_732_14)"/>
<defs>
<linearGradient id="paint0_linear_732_14" x1="44" y1="5.5" x2="44.5" y2="48" gradientUnits="userSpaceOnUse">
<stop stop-color="#9C4CDB"/>
<stop offset="0.485" stop-color="#EA4B98"/>
<stop offset="1" stop-color="#F6722B"/>
</linearGradient>
</defs>
</svg>
