<svg width="25" height="25" viewBox="0 0 25 25" fill="none" xmlns="http://www.w3.org/2000/svg">
<path d="M12.5007 16.5078L5.54224 12.4193L8.3859 10.7469L7.11478 10L3 12.4193L12.5007 18L22 12.4193L17.8852 10L16.6168 10.7469L19.4591 12.4193L12.5007 16.5078Z" fill="#EA4B98"/>
<path d="M12.5007 20.6943L5.54224 17.1169L8.3859 15.6535L7.11478 15L3 17.1169L12.5007 22L22 17.1169L17.8852 15L16.6168 15.6535L19.4591 17.1169L12.5007 20.6943Z" fill="#EA4B98"/>
<path d="M12.5007 3L3 8.00073L12.5007 13L22 7.99927L12.5007 3ZM12.5007 4.33712L19.4591 8.00073L12.5007 11.6643L5.54224 8.00073L12.5007 4.33712Z" fill="#EA4B98"/>
</svg>
