<svg width="25" height="25" viewBox="0 0 25 25" fill="none" xmlns="http://www.w3.org/2000/svg">
<g clip-path="url(#clip0_2633_457)">
<path opacity="0.99" fill-rule="evenodd" clip-rule="evenodd" d="M11.3535 -0.0244141C12.1022 -0.0244141 12.8509 -0.0244141 13.5996 -0.0244141C14.9908 0.119955 16.3255 0.478027 17.6035 1.0498C14.2018 1.11491 10.8001 1.11491 7.39844 1.0498C8.65708 0.470668 9.97544 0.112595 11.3535 -0.0244141Z" fill="#28F29A"/>
<path opacity="0.997" fill-rule="evenodd" clip-rule="evenodd" d="M2.07422 -0.0244141C2.74154 -0.0244141 3.40885 -0.0244141 4.07617 -0.0244141C4.07617 0.398763 4.07617 0.821938 4.07617 1.24512C4.0599 1.24512 4.04362 1.24512 4.02734 1.24512C4.02734 1.19629 4.02734 1.14746 4.02734 1.09863C3.3763 1.09863 2.72526 1.09863 2.07422 1.09863C2.07422 0.724282 2.07422 0.349935 2.07422 -0.0244141Z" fill="#28F29A"/>
<path opacity="0.991" fill-rule="evenodd" clip-rule="evenodd" d="M7.39844 1.0498C10.8001 1.11491 14.2018 1.11491 17.6035 1.0498C18.2886 1.33007 18.9233 1.68815 19.5078 2.12402C17.8393 2.10783 16.1792 2.12411 14.5273 2.17285C13.1153 1.86644 11.6993 1.86644 10.2793 2.17285C8.67632 2.12411 7.06499 2.10783 5.44531 2.12402C6.05103 1.69081 6.70205 1.33273 7.39844 1.0498Z" fill="#27EF9E"/>
<path opacity="0.997" fill-rule="evenodd" clip-rule="evenodd" d="M2.07422 1.09863C2.72526 1.09863 3.3763 1.09863 4.02734 1.09863C4.02734 1.14746 4.02734 1.19629 4.02734 1.24512C4.02734 1.53809 4.02734 1.83105 4.02734 2.12402C3.3763 2.12402 2.72526 2.12402 2.07422 2.12402C2.07422 1.78223 2.07422 1.44043 2.07422 1.09863Z" fill="#27EF9E"/>
<path opacity="0.946" fill-rule="evenodd" clip-rule="evenodd" d="M4.02734 1.24512C4.04362 1.24512 4.0599 1.24512 4.07617 1.24512C4.07617 1.87988 4.07617 2.51465 4.07617 3.14941C4.02717 3.02514 4.01089 2.86237 4.02734 2.66113C3.3763 2.66113 2.72526 2.66113 2.07422 2.66113C2.07422 2.48209 2.07422 2.30306 2.07422 2.12402C2.72526 2.12402 3.3763 2.12402 4.02734 2.12402C4.02734 1.83105 4.02734 1.53809 4.02734 1.24512Z" fill="#26ECA1"/>
<path opacity="0.989" fill-rule="evenodd" clip-rule="evenodd" d="M5.44531 2.12422C7.06499 2.10803 8.67632 2.1243 10.2793 2.17305C9.68457 2.32175 9.09863 2.50079 8.52148 2.71016C7.26821 2.6776 6.01499 2.64506 4.76172 2.6125C4.97485 2.43236 5.20269 2.26961 5.44531 2.12422Z" fill="#26ECA1"/>
<path opacity="0.988" fill-rule="evenodd" clip-rule="evenodd" d="M14.5273 2.17305C16.1792 2.12431 17.8393 2.10803 19.5078 2.12422C19.7798 2.26806 20.024 2.4471 20.2402 2.66133C18.961 2.64573 17.6751 2.66201 16.3828 2.71016C15.7871 2.45541 15.1686 2.27637 14.5273 2.17305Z" fill="#26ECA1"/>
<path opacity="0.992" fill-rule="evenodd" clip-rule="evenodd" d="M4.75977 2.6123C6.01304 2.64486 7.26626 2.67741 8.51953 2.70996C7.64663 3.08125 6.83286 3.55326 6.07812 4.12598C4.75187 4.07725 3.41724 4.06098 2.07422 4.07715C2.07422 3.60514 2.07422 3.13314 2.07422 2.66113C2.72526 2.66113 3.3763 2.66113 4.02734 2.66113C4.01089 2.86237 4.02717 3.02514 4.07617 3.14941C4.30404 2.97038 4.5319 2.79134 4.75977 2.6123Z" fill="#24E9A5"/>
<path opacity="0.987" fill-rule="evenodd" clip-rule="evenodd" d="M16.3828 2.70983C17.6751 2.66168 18.961 2.6454 20.2402 2.661C20.7902 3.08065 21.2948 3.55266 21.7539 4.07701C20.7773 4.07701 19.8008 4.07701 18.8242 4.07701C18.0705 3.52092 17.2566 3.06519 16.3828 2.70983Z" fill="#24E9A5"/>
<path opacity="0.996" fill-rule="evenodd" clip-rule="evenodd" d="M2.07422 4.07733C3.41724 4.06116 4.75187 4.07744 6.07812 4.12616C5.79521 4.3519 5.51851 4.58791 5.24805 4.83417C6.46865 4.85858 7.68936 4.86672 8.91016 4.85858C8.91016 5.08647 8.91016 5.3143 8.91016 5.54218C6.63149 5.54218 4.35287 5.54218 2.07422 5.54218C2.07422 5.0539 2.07422 4.56562 2.07422 4.07733Z" fill="#21E3AB"/>
<path opacity="0.981" fill-rule="evenodd" clip-rule="evenodd" d="M18.8242 4.07715C19.8008 4.07715 20.7773 4.07715 21.7539 4.07715C22.1909 4.52787 22.5815 5.01616 22.9258 5.54199C22.0919 5.52646 21.2619 5.54272 20.4355 5.59082C19.9439 5.03398 19.4068 4.52941 18.8242 4.07715Z" fill="#22E4AB"/>
<path opacity="0.999" fill-rule="evenodd" clip-rule="evenodd" d="M8.91016 4.8584C8.97524 5.50942 8.97524 6.1605 8.91016 6.81152C8.91016 6.61621 8.91016 6.4209 8.91016 6.22559C6.63149 6.22559 4.35287 6.22559 2.07422 6.22559C2.07422 5.99771 2.07422 5.76987 2.07422 5.54199C4.35287 5.54199 6.63149 5.54199 8.91016 5.54199C8.91016 5.31411 8.91016 5.08628 8.91016 4.8584Z" fill="#20E0B0"/>
<path opacity="0.985" fill-rule="evenodd" clip-rule="evenodd" d="M22.9238 5.54182C23.0541 5.75339 23.1842 5.96501 23.3145 6.17659C22.537 6.22463 21.7558 6.24089 20.9707 6.22541C20.7748 6.02937 20.5958 5.8178 20.4336 5.59065C21.2599 5.54255 22.09 5.52629 22.9238 5.54182Z" fill="#20E0B0"/>
<path opacity="0.988" fill-rule="evenodd" clip-rule="evenodd" d="M23.3164 6.17676C23.57 6.61885 23.7979 7.07461 24 7.54395C23.2791 7.57573 22.5629 7.6083 21.8516 7.6416C21.559 7.16982 21.266 6.69785 20.9727 6.22559C21.7577 6.24106 22.539 6.2248 23.3164 6.17676Z" fill="#1EDCB3"/>
<path opacity="0.999" fill-rule="evenodd" clip-rule="evenodd" d="M2.07422 6.22559C4.35287 6.22559 6.63149 6.22559 8.91016 6.22559C8.91016 6.4209 8.91016 6.61621 8.91016 6.81152C6.63149 6.81152 4.35287 6.81152 2.07422 6.81152C2.07422 6.61621 2.07422 6.4209 2.07422 6.22559Z" fill="#1FDEB2"/>
<path opacity="0.985" fill-rule="evenodd" clip-rule="evenodd" d="M24 7.54395C24.1752 7.93945 24.3217 8.34634 24.4395 8.76465C23.7396 8.76465 23.0397 8.76465 22.3398 8.76465C22.1655 8.39932 22.0028 8.025 21.8516 7.6416C22.5629 7.6083 23.2791 7.57573 24 7.54395Z" fill="#1CD8B9"/>
<path opacity="0.979" fill-rule="evenodd" clip-rule="evenodd" d="M12.4746 9.30159C11.1804 9.31775 9.89458 9.30149 8.61719 9.25276C9.50786 8.54104 10.5007 8.37014 11.5957 8.74006C11.9333 8.8675 12.2262 9.05471 12.4746 9.30159Z" fill="#1AD5BC"/>
<path fill-rule="evenodd" clip-rule="evenodd" d="M17.3594 9.30176C16.7083 9.30176 16.0573 9.30176 15.4062 9.30176C15.4062 9.05762 15.4062 8.81348 15.4062 8.56934C16.0573 8.56934 16.7083 8.56934 17.3594 8.56934C17.3594 8.81348 17.3594 9.05762 17.3594 9.30176Z" fill="#1AD5BC"/>
<path opacity="0.989" fill-rule="evenodd" clip-rule="evenodd" d="M22.3398 8.76465C23.0397 8.76465 23.7396 8.76465 24.4395 8.76465C24.4958 8.90879 24.5446 9.05527 24.5859 9.2041C23.9143 9.29956 23.2307 9.33213 22.5352 9.30176C22.452 9.13384 22.3868 8.95483 22.3398 8.76465Z" fill="#1AD5BC"/>
<path opacity="0.987" fill-rule="evenodd" clip-rule="evenodd" d="M24.5859 9.2041C24.6743 9.54136 24.7394 9.88315 24.7812 10.2295C24.1139 10.2295 23.4466 10.2295 22.7793 10.2295C22.6762 9.93135 22.5948 9.62212 22.5352 9.30176C23.2307 9.33213 23.9143 9.29956 24.5859 9.2041Z" fill="#19D2BF"/>
<path opacity="0.993" fill-rule="evenodd" clip-rule="evenodd" d="M8.61914 9.25293C9.89653 9.30166 11.1824 9.31792 12.4766 9.30176C12.7877 9.5498 13.0156 9.85903 13.1602 10.2295C11.4023 10.2295 9.64453 10.2295 7.88672 10.2295C8.03594 9.83369 8.28008 9.50815 8.61914 9.25293Z" fill="#19D2BF"/>
<path fill-rule="evenodd" clip-rule="evenodd" d="M15.4062 9.30176C16.0573 9.30176 16.7083 9.30176 17.3594 9.30176C17.3594 9.61099 17.3594 9.92026 17.3594 10.2295C16.7083 10.2295 16.0573 10.2295 15.4062 10.2295C15.4062 9.92026 15.4062 9.61099 15.4062 9.30176Z" fill="#19D2BF"/>
<path opacity="0.988" fill-rule="evenodd" clip-rule="evenodd" d="M7.88672 10.2295C9.64453 10.2295 11.4023 10.2295 13.1602 10.2295C13.3095 10.4832 13.4071 10.7599 13.4531 11.0596C12.7609 11.0435 12.0773 11.0598 11.4023 11.1084C11.0347 10.5396 10.5464 10.4176 9.9375 10.7422C9.8269 10.828 9.74551 10.9338 9.69336 11.0596C8.98965 11.075 8.28979 11.0587 7.59375 11.0107C7.64404 10.7292 7.7417 10.4688 7.88672 10.2295Z" fill="#18D0C3"/>
<path fill-rule="evenodd" clip-rule="evenodd" d="M15.4062 10.2295C16.0573 10.2295 16.7083 10.2295 17.3594 10.2295C17.3594 10.5062 17.3594 10.7829 17.3594 11.0596C16.7083 11.0596 16.0573 11.0596 15.4062 11.0596C15.4062 10.7829 15.4062 10.5062 15.4062 10.2295Z" fill="#18CFC3"/>
<path opacity="0.993" fill-rule="evenodd" clip-rule="evenodd" d="M22.7773 10.2295C23.4447 10.2295 24.112 10.2295 24.7793 10.2295C24.8515 10.5123 24.9003 10.8052 24.9258 11.1084C24.2623 11.0605 23.595 11.0442 22.9238 11.0596C22.8496 10.7936 22.8008 10.5169 22.7773 10.2295Z" fill="#18CFC3"/>
<path opacity="0.995" fill-rule="evenodd" clip-rule="evenodd" d="M7.59375 11.0107C8.28979 11.0587 8.98965 11.075 9.69336 11.0596C9.60288 11.2761 9.55405 11.504 9.54688 11.7432C8.89585 11.7432 8.24478 11.7432 7.59375 11.7432C7.59375 11.499 7.59375 11.2549 7.59375 11.0107Z" fill="#16CDC6"/>
<path opacity="0.993" fill-rule="evenodd" clip-rule="evenodd" d="M13.4531 11.0597C13.4531 11.2876 13.4531 11.5154 13.4531 11.7433C12.8021 11.7433 12.151 11.7433 11.5 11.7433C11.4832 11.5287 11.4507 11.3171 11.4023 11.1085C12.0773 11.0599 12.7609 11.0436 13.4531 11.0597Z" fill="#16CDC6"/>
<path fill-rule="evenodd" clip-rule="evenodd" d="M15.4062 11.0596C16.0573 11.0596 16.7083 11.0596 17.3594 11.0596C17.3594 11.2875 17.3594 11.5153 17.3594 11.7432C16.7083 11.7432 16.0573 11.7432 15.4062 11.7432C15.4062 11.5153 15.4062 11.2875 15.4062 11.0596Z" fill="#16CDC6"/>
<path opacity="0.983" fill-rule="evenodd" clip-rule="evenodd" d="M22.9258 11.0598C23.597 11.0444 24.2643 11.0607 24.9277 11.1086C24.9139 11.2021 24.9301 11.2835 24.9766 11.3528C24.9766 11.4993 24.9766 11.6457 24.9766 11.7922C24.3294 11.7443 23.6784 11.7281 23.0234 11.7434C23.035 11.8064 23.0187 11.8553 22.9746 11.8899C22.9619 11.6129 22.9457 11.3362 22.9258 11.0598Z" fill="#16CDC6"/>
<path fill-rule="evenodd" clip-rule="evenodd" d="M7.59375 11.7432C8.24478 11.7432 8.89585 11.7432 9.54688 11.7432C9.54688 11.9873 9.54688 12.2314 9.54688 12.4756C10.1979 12.4756 10.849 12.4756 11.5 12.4756C11.5 12.2314 11.5 11.9873 11.5 11.7432C12.151 11.7432 12.8021 11.7432 13.4531 11.7432C13.4531 12.1826 13.4531 12.6221 13.4531 13.0615C11.5 13.0615 9.54688 13.0615 7.59375 13.0615C7.59375 12.6221 7.59375 12.1826 7.59375 11.7432Z" fill="#15C9CA"/>
<path fill-rule="evenodd" clip-rule="evenodd" d="M15.4062 11.7432C16.0573 11.7432 16.7083 11.7432 17.3594 11.7432C17.3594 12.1826 17.3594 12.6221 17.3594 13.0615C16.7083 13.0615 16.0573 13.0615 15.4062 13.0615C15.4062 12.6221 15.4062 12.1826 15.4062 11.7432Z" fill="#15C9CA"/>
<path opacity="0.991" fill-rule="evenodd" clip-rule="evenodd" d="M24.9746 11.7922C24.9746 12.1991 24.9746 12.606 24.9746 13.0129C24.2991 13.0937 23.6318 13.0775 22.9727 12.9641C22.9727 12.606 22.9727 12.2479 22.9727 11.8899C23.0168 11.8552 23.0331 11.8064 23.0215 11.7434C23.6764 11.728 24.3274 11.7443 24.9746 11.7922Z" fill="#15C9CA"/>
<path opacity="0.991" fill-rule="evenodd" clip-rule="evenodd" d="M-0.0234375 12.4756C0.643882 12.4756 1.3112 12.4756 1.97852 12.4756C1.97852 12.6546 1.97852 12.8336 1.97852 13.0127C1.31505 13.0606 0.647734 13.0769 -0.0234375 13.0615C-0.0234375 12.8662 -0.0234375 12.6709 -0.0234375 12.4756Z" fill="#14C8CB"/>
<path fill-rule="evenodd" clip-rule="evenodd" d="M7.59375 13.0615C9.54688 13.0615 11.5 13.0615 13.4531 13.0615C13.4531 13.1917 13.4531 13.3219 13.4531 13.4521C11.5 13.4521 9.54688 13.4521 7.59375 13.4521C7.59375 13.3219 7.59375 13.1917 7.59375 13.0615Z" fill="#13C6CD"/>
<path opacity="0.987" fill-rule="evenodd" clip-rule="evenodd" d="M1.97852 13.0127C1.98833 13.3061 2.0046 13.5991 2.02734 13.8916C1.38495 13.9402 0.733911 13.9565 0.0742188 13.9404C0.0742188 13.9893 0.0742188 14.0381 0.0742188 14.0869C0.0416666 13.9242 0.0091146 13.7614 -0.0234375 13.5986C-0.0234375 13.4196 -0.0234375 13.2406 -0.0234375 13.0615C0.647734 13.0769 1.31505 13.0606 1.97852 13.0127Z" fill="#13C5CF"/>
<path fill-rule="evenodd" clip-rule="evenodd" d="M7.59375 13.4521C9.54688 13.4521 11.5 13.4521 13.4531 13.4521C13.4531 13.6149 13.4531 13.7777 13.4531 13.9404C11.5 13.9404 9.54688 13.9404 7.59375 13.9404C7.59375 13.7777 7.59375 13.6149 7.59375 13.4521Z" fill="#13C5CF"/>
<path fill-rule="evenodd" clip-rule="evenodd" d="M15.4062 13.0615C16.0573 13.0615 16.7083 13.0615 17.3594 13.0615C17.3594 13.3545 17.3594 13.6475 17.3594 13.9404C16.7083 13.9404 16.0573 13.9404 15.4062 13.9404C15.4062 13.6475 15.4062 13.3545 15.4062 13.0615Z" fill="#13C5CE"/>
<path opacity="0.987" fill-rule="evenodd" clip-rule="evenodd" d="M22.9746 12.9639C23.6337 13.0772 24.301 13.0935 24.9766 13.0127C24.9766 13.208 24.9766 13.4033 24.9766 13.5986C24.9291 13.7182 24.9128 13.8484 24.9277 13.9893C24.2556 13.9575 23.5883 13.925 22.9258 13.8916C22.9453 13.5826 22.9616 13.2733 22.9746 12.9639Z" fill="#13C5CF"/>
<path opacity="0.991" fill-rule="evenodd" clip-rule="evenodd" d="M2.02734 13.8916C2.10799 14.2764 2.18937 14.667 2.27148 15.0635C1.59984 14.968 0.91625 14.9354 0.220703 14.9658C0.130641 14.6859 0.081813 14.3929 0.0742188 14.0869C0.0742188 14.0381 0.0742188 13.9893 0.0742188 13.9404C0.733911 13.9565 1.38495 13.9402 2.02734 13.8916Z" fill="#11C2D2"/>
<path fill-rule="evenodd" clip-rule="evenodd" d="M7.59375 13.9404C9.54688 13.9404 11.5 13.9404 13.4531 13.9404C13.4531 14.2822 13.4531 14.624 13.4531 14.9658C12.8021 14.9658 12.151 14.9658 11.5 14.9658C11.5 14.7868 11.5 14.6078 11.5 14.4287C10.849 14.4287 10.1979 14.4287 9.54688 14.4287C9.54688 14.6078 9.54688 14.7868 9.54688 14.9658C8.89585 14.9658 8.24478 14.9658 7.59375 14.9658C7.59375 14.624 7.59375 14.2822 7.59375 13.9404Z" fill="#11C2D2"/>
<path fill-rule="evenodd" clip-rule="evenodd" d="M15.4062 13.9404C16.0573 13.9404 16.7083 13.9404 17.3594 13.9404C17.3594 14.2822 17.3594 14.624 17.3594 14.9658C16.7083 14.9658 16.0573 14.9658 15.4062 14.9658C15.4062 14.624 15.4062 14.2822 15.4062 13.9404Z" fill="#11C2D2"/>
<path opacity="0.99" fill-rule="evenodd" clip-rule="evenodd" d="M22.9238 13.8916C23.5863 13.925 24.2537 13.9575 24.9258 13.9893C24.8706 14.3212 24.8055 14.6467 24.7305 14.9658C24.0469 14.9658 23.3633 14.9658 22.6797 14.9658C22.772 14.6055 22.8534 14.2475 22.9238 13.8916Z" fill="#11C2D2"/>
<path opacity="0.987" fill-rule="evenodd" clip-rule="evenodd" d="M0.21875 14.9656C0.914297 14.9352 1.59789 14.9678 2.26953 15.0632C2.40291 15.561 2.56567 16.0493 2.75781 16.5281C2.04549 16.4801 1.32935 16.4638 0.609375 16.4793C0.425857 15.9894 0.295649 15.4848 0.21875 14.9656Z" fill="#0FBED7"/>
<path fill-rule="evenodd" clip-rule="evenodd" d="M7.59375 14.9658C8.24478 14.9658 8.89585 14.9658 9.54688 14.9658C9.54688 15.4378 9.54688 15.9098 9.54688 16.3818C8.89585 16.3818 8.24478 16.3818 7.59375 16.3818C7.59375 15.9098 7.59375 15.4378 7.59375 14.9658Z" fill="#0FBED7"/>
<path fill-rule="evenodd" clip-rule="evenodd" d="M11.5 14.9658C12.151 14.9658 12.8021 14.9658 13.4531 14.9658C13.4531 15.4378 13.4531 15.9098 13.4531 16.3818C12.8021 16.3818 12.151 16.3818 11.5 16.3818C11.5 15.9098 11.5 15.4378 11.5 14.9658Z" fill="#0FBED7"/>
<path fill-rule="evenodd" clip-rule="evenodd" d="M15.4062 14.9658C16.0573 14.9658 16.7083 14.9658 17.3594 14.9658C17.3594 15.4378 17.3594 15.9098 17.3594 16.3818C16.7083 16.3818 16.0573 16.3818 15.4062 16.3818C15.4062 15.9098 15.4062 15.4378 15.4062 14.9658Z" fill="#0FBED7"/>
<path opacity="0.983" fill-rule="evenodd" clip-rule="evenodd" d="M22.6816 14.9658C23.3652 14.9658 24.0488 14.9658 24.7324 14.9658C24.6555 15.4852 24.5252 15.9898 24.3418 16.4795C23.6458 16.4315 22.9459 16.4152 22.2422 16.4307C22.428 15.9545 22.5745 15.4663 22.6816 14.9658Z" fill="#0FBED7"/>
<path opacity="0.982" fill-rule="evenodd" clip-rule="evenodd" d="M0.609375 16.4793C1.32935 16.4638 2.04549 16.4801 2.75781 16.5281C2.89483 16.8673 3.05759 17.1927 3.24609 17.5047C2.50888 17.5365 1.77646 17.569 1.04883 17.6023C0.863765 17.2476 0.71728 16.8733 0.609375 16.4793Z" fill="#0DB9DD"/>
<path opacity="0.99" fill-rule="evenodd" clip-rule="evenodd" d="M22.2402 16.4304C22.9439 16.415 23.6438 16.4313 24.3398 16.4793C24.2306 16.8568 24.0841 17.2149 23.9004 17.5535C23.1642 17.5689 22.4317 17.5526 21.7031 17.5047C21.9013 17.1532 22.0803 16.7952 22.2402 16.4304Z" fill="#0DB9DC"/>
<path opacity="0.994" fill-rule="evenodd" clip-rule="evenodd" d="M3.24805 17.5049C3.37511 17.7618 3.5216 18.006 3.6875 18.2373C2.90247 18.2528 2.12122 18.2365 1.34375 18.1885C1.2213 18.0087 1.12364 17.8134 1.05078 17.6025C1.77841 17.5692 2.51083 17.5367 3.24805 17.5049Z" fill="#0BB6E0"/>
<path opacity="0.999" fill-rule="evenodd" clip-rule="evenodd" d="M21.7023 17.5049C22.431 17.5529 23.1634 17.5691 23.8996 17.5537C23.8287 17.7931 23.7311 18.021 23.6066 18.2373C22.923 18.2373 22.2395 18.2373 21.5559 18.2373C21.525 17.9741 21.5738 17.7299 21.7023 17.5049Z" fill="#0BB6E0"/>
<path opacity="0.983" fill-rule="evenodd" clip-rule="evenodd" d="M1.34375 18.1885C2.12122 18.2365 2.90247 18.2528 3.6875 18.2373C4.00554 18.7105 4.34733 19.1662 4.71289 19.6045C3.89135 19.6532 3.06127 19.6694 2.22266 19.6533C1.87181 19.2037 1.57884 18.7154 1.34375 18.1885Z" fill="#0AB3E4"/>
<path opacity="0.999" fill-rule="evenodd" clip-rule="evenodd" d="M21.5586 18.2373C22.2422 18.2373 22.9258 18.2373 23.6094 18.2373C23.5856 18.2848 23.5612 18.3336 23.5361 18.3838C23.5117 18.8066 23.5036 19.2298 23.5117 19.6533C22.8607 19.6533 22.2096 19.6533 21.5586 19.6533C21.5586 19.1813 21.5586 18.7093 21.5586 18.2373Z" fill="#0AB2E4"/>
<path opacity="0.985" fill-rule="evenodd" clip-rule="evenodd" d="M4.71289 19.6045C4.94077 19.7998 5.15234 20.0114 5.34766 20.2393C4.46023 20.2231 3.58133 20.2394 2.71094 20.2881C2.5123 20.1055 2.34954 19.8939 2.22266 19.6533C3.06127 19.6694 3.89135 19.6532 4.71289 19.6045Z" fill="#08AFE8"/>
<path fill-rule="evenodd" clip-rule="evenodd" d="M21.5586 19.6533C22.2096 19.6533 22.8607 19.6533 23.5117 19.6533C23.5117 19.8486 23.5117 20.0439 23.5117 20.2393C22.8607 20.2393 22.2096 20.2393 21.5586 20.2393C21.5586 20.0439 21.5586 19.8486 21.5586 19.6533Z" fill="#08AFE8"/>
<path opacity="0.988" fill-rule="evenodd" clip-rule="evenodd" d="M5.34766 20.2394C5.72319 20.5339 6.09756 20.8269 6.4707 21.1183C5.46938 21.1022 4.47655 21.1185 3.49219 21.1671C3.17878 20.919 2.91836 20.626 2.71094 20.2882C3.58133 20.2396 4.46023 20.2233 5.34766 20.2394Z" fill="#07ADEB"/>
<path fill-rule="evenodd" clip-rule="evenodd" d="M21.5586 20.2393C22.2096 20.2393 22.8607 20.2393 23.5117 20.2393C23.5117 20.5322 23.5117 20.8252 23.5117 21.1182C22.8607 21.1182 22.2096 21.1182 21.5586 21.1182C21.5586 20.8252 21.5586 20.5322 21.5586 20.2393Z" fill="#07ADEB"/>
<path opacity="0.991" fill-rule="evenodd" clip-rule="evenodd" d="M6.4707 21.1183C6.91191 21.4203 7.36768 21.6969 7.83789 21.9484C6.66602 21.9484 5.49414 21.9484 4.32227 21.9484C4.01581 21.7234 3.73912 21.463 3.49219 21.1671C4.47655 21.1185 5.46938 21.1022 6.4707 21.1183Z" fill="#05AAEF"/>
<path opacity="0.997" fill-rule="evenodd" clip-rule="evenodd" d="M21.5566 21.1182C22.2077 21.1182 22.8587 21.1182 23.5098 21.1182C23.5098 21.3949 23.5098 21.6715 23.5098 21.9482C21.3776 21.9482 19.2455 21.9482 17.1133 21.9482C17.3058 21.8028 17.5174 21.6808 17.748 21.582C19.0175 21.5576 20.287 21.5495 21.5566 21.5576C21.5566 21.4111 21.5566 21.2646 21.5566 21.1182Z" fill="#05A9EF"/>
<path opacity="0.986" fill-rule="evenodd" clip-rule="evenodd" d="M4.32031 21.9482C5.49219 21.9482 6.66406 21.9482 7.83594 21.9482C8.37285 22.1704 8.90996 22.382 9.44727 22.583C8.02334 22.6317 6.59106 22.648 5.15039 22.6318C4.84406 22.4394 4.56737 22.2115 4.32031 21.9482Z" fill="#04A7F2"/>
<path opacity="0.995" fill-rule="evenodd" clip-rule="evenodd" d="M17.1152 21.9482C19.2474 21.9482 21.3795 21.9482 23.5117 21.9482C23.5117 22.1761 23.5117 22.404 23.5117 22.6318C20.8016 22.648 18.0998 22.6318 15.4062 22.583C15.9864 22.4004 16.5561 22.1889 17.1152 21.9482Z" fill="#04A7F2"/>
<path opacity="0.991" fill-rule="evenodd" clip-rule="evenodd" d="M9.44922 22.583C11.4383 23.1386 13.424 23.1386 15.4062 22.583C18.0998 22.6318 20.8016 22.648 23.5117 22.6318C23.5117 22.9248 23.5117 23.2178 23.5117 23.5107C21.8026 23.5026 20.0937 23.5107 18.3848 23.5352C18.2592 23.6062 18.129 23.6631 17.9941 23.7061C14.3238 23.6898 10.6617 23.7061 7.00781 23.7549C6.35508 23.4289 5.73662 23.0545 5.15234 22.6318C6.59302 22.648 8.02529 22.6317 9.44922 22.583Z" fill="#03A4F5"/>
<path opacity="0.994" fill-rule="evenodd" clip-rule="evenodd" d="M7.00781 23.7551C10.6617 23.7063 14.3238 23.69 17.9941 23.7063C17.6722 23.8915 17.3304 24.038 16.9688 24.1457C13.9334 24.097 10.8897 24.0807 7.83789 24.0969C7.54912 24.0115 7.27246 23.8976 7.00781 23.7551Z" fill="#02A1F8"/>
<path opacity="0.97" fill-rule="evenodd" clip-rule="evenodd" d="M7.83594 24.0969C10.8878 24.0807 13.9314 24.0969 16.9668 24.1457C15.8662 24.5839 14.7269 24.8606 13.5488 24.9758C12.8164 24.9758 12.084 24.9758 11.3516 24.9758C10.1384 24.8515 8.9665 24.5586 7.83594 24.0969Z" fill="#019FFB"/>
</g>
<defs>
<clipPath id="clip0_2633_457">
<rect width="25" height="25" fill="white"/>
</clipPath>
</defs>
</svg>
