<svg width="30" height="30" viewBox="0 0 30 30" fill="none" xmlns="http://www.w3.org/2000/svg">
<g clip-path="url(#clip0_2135_2)">
<path opacity="0.84" fill-rule="evenodd" clip-rule="evenodd" d="M5.68359 -0.0585938C5.80078 -0.0585938 5.91797 -0.0585938 6.03516 -0.0585938C7.11169 0.58783 8.18591 1.25189 9.25781 1.93359C10.3297 1.25189 11.4039 0.58783 12.4805 -0.0585938C12.5977 -0.0585938 12.7148 -0.0585938 12.832 -0.0585938C12.797 0.363922 12.6604 0.754548 12.4219 1.11328C11.8746 1.89486 11.3863 2.71518 10.957 3.57422C11.4844 4.47266 12.0117 5.37109 12.5391 6.26953C12.76 6.55243 12.8381 6.86494 12.7734 7.20703C11.5848 6.61273 10.4129 5.98773 9.25781 5.33203C8.11297 5.97278 6.96063 6.59777 5.80078 7.20703C5.6739 7.10566 5.65437 6.98848 5.74219 6.85547C6.25679 5.70887 6.86225 4.61511 7.55859 3.57422C6.82282 2.41199 6.19782 1.20104 5.68359 -0.0585938Z" fill="#EA4B98"/>
<path opacity="0.839" fill-rule="evenodd" clip-rule="evenodd" d="M22.6758 -0.0585938C22.832 -0.0585938 22.9883 -0.0585938 23.1445 -0.0585938C24.1382 0.653726 25.1929 1.27873 26.3086 1.81641C27.4344 1.23526 28.5281 0.610264 29.5898 -0.0585938C29.707 -0.0585938 29.8242 -0.0585938 29.9414 -0.0585938C29.9414 0.0585938 29.9414 0.175781 29.9414 0.292969C29.2725 1.3547 28.6475 2.44845 28.0664 3.57422C28.6041 4.68991 29.2291 5.7446 29.9414 6.73828C29.9414 6.89453 29.9414 7.05079 29.9414 7.20703C28.7177 6.61468 27.5068 5.98968 26.3086 5.33203C25.1327 6.04387 23.9217 6.66888 22.6758 7.20703C23.2139 5.96107 23.839 4.75014 24.5508 3.57422C23.8931 2.376 23.2682 1.16506 22.6758 -0.0585938Z" fill="#EA4B98"/>
<path opacity="0.941" fill-rule="evenodd" clip-rule="evenodd" d="M5.44922 29.9417C5.01953 29.9417 4.58985 29.9417 4.16016 29.9417C2.71485 28.5745 1.3086 27.1683 -0.0585938 25.723C-0.0585938 25.2933 -0.0585938 24.8637 -0.0585938 24.4339C5.65511 18.6779 11.3973 12.9357 17.168 7.20737C17.8023 6.88773 18.4274 6.90726 19.043 7.26597C20.2705 8.45458 21.462 9.68505 22.6172 10.9574C22.9739 11.5338 22.9934 12.1198 22.6758 12.7152C16.9474 18.4859 11.2052 24.228 5.44922 29.9417ZM17.8711 9.08237C18.917 9.9327 19.8936 10.8702 20.8008 11.8949C19.767 12.8311 18.7904 13.8272 17.8711 14.8832C17.7539 14.9417 17.6367 15.0003 17.5195 15.0589C16.582 14.1996 15.6836 13.3011 14.8242 12.3636C15.8439 11.2692 16.8595 10.1754 17.8711 9.08237Z" fill="#EA4B98"/>
<path opacity="0.84" fill-rule="evenodd" clip-rule="evenodd" d="M29.9414 17.0508C29.9414 17.168 29.9414 17.2852 29.9414 17.4024C29.295 18.4789 28.6309 19.5531 27.9492 20.625C28.6309 21.6969 29.295 22.7712 29.9414 23.8477C29.9414 23.9649 29.9414 24.0821 29.9414 24.1992C28.6818 23.685 27.4709 23.0601 26.3086 22.3242C25.2677 23.0206 24.1739 23.6261 23.0273 24.1407C22.8943 24.2284 22.7771 24.209 22.6758 24.0821C23.285 22.9223 23.91 21.7698 24.5508 20.625C23.8951 19.4699 23.27 18.298 22.6758 17.1094C22.832 17.0312 22.9883 17.0312 23.1445 17.1094C24.2143 17.6915 25.269 18.2969 26.3086 18.9258C27.1677 18.4966 27.988 18.0082 28.7695 17.461C29.1282 17.2225 29.5189 17.0858 29.9414 17.0508Z" fill="#EA4B98"/>
</g>
<defs>
<clipPath id="clip0_2135_2">
<rect width="30" height="30" fill="white"/>
</clipPath>
</defs>
</svg>
