<svg width="50" height="50" viewBox="0 0 50 50" fill="none" xmlns="http://www.w3.org/2000/svg">
<g clip-path="url(#clip0_732_415)">
<path opacity="0.995" fill-rule="evenodd" clip-rule="evenodd" d="M22.7051 -0.0488281C24.2024 -0.0488281 25.6999 -0.0488281 27.1973 -0.0488281C36.3627 1.12753 43.1172 5.78248 47.4609 13.916C48.8007 16.713 49.6308 19.6427 49.9512 22.7051C49.9512 24.2024 49.9512 25.6999 49.9512 27.1973C49.3522 33.1794 46.9435 38.29 42.7246 42.5293C42.7714 37.2196 42.7226 31.9136 42.5781 26.6113C41.8371 24.9464 40.5514 24.2628 38.7207 24.5605C38.7369 23.8762 38.7207 23.1926 38.6719 22.5098C38.2717 21.8185 37.6695 21.5255 36.8652 21.6309C36.8652 20.8821 36.8652 20.1335 36.8652 19.3848C37.4932 19.608 37.8838 19.3964 38.0371 18.75C37.8782 18.1646 37.4876 17.8879 36.8652 17.9199C36.8652 17.7571 36.8652 17.5944 36.8652 17.4316C37.389 17.4934 37.6819 17.2654 37.7441 16.748C37.6819 16.2307 37.389 16.0027 36.8652 16.0645C36.8652 15.9017 36.8652 15.739 36.8652 15.5762C37.4623 15.5802 37.8529 15.3035 38.0371 14.7461C37.8581 14.0706 37.4349 13.859 36.7676 14.1113C36.6842 13.5221 36.3586 13.1152 35.791 12.8906C34.815 12.8418 33.8385 12.8256 32.8613 12.8418C32.0149 12.8418 31.1687 12.8418 30.3223 12.8418C30.6372 10.5291 30.9627 8.21795 31.2988 5.9082C31.3807 5.87483 31.4133 5.80973 31.3965 5.71289C32.2721 5.92207 32.679 5.59655 32.6172 4.73633C32.5358 4.58984 32.4219 4.47591 32.2754 4.39453C25.0976 4.37821 17.9361 4.32938 10.791 4.24805C14.406 1.82777 18.3773 0.395484 22.7051 -0.0488281Z" fill="#F07FB6" fill-opacity="0.54"/>
<path opacity="0.987" fill-rule="evenodd" clip-rule="evenodd" d="M10.7909 4.24829C17.936 4.32963 25.0975 4.37845 32.2753 4.39477C32.4218 4.47615 32.5357 4.59009 32.6171 4.73657C32.6789 5.59679 32.272 5.92231 31.3964 5.71313C21.6469 5.68063 11.9139 5.71319 2.19717 5.81079C1.24889 5.95278 0.841989 5.56216 0.97647 4.63891C1.05785 4.49243 1.17178 4.37849 1.31827 4.29712C4.47565 4.24829 7.6332 4.23202 10.7909 4.24829Z" fill="#F07FB6"/>
<path fill-rule="evenodd" clip-rule="evenodd" d="M2.19727 5.811C11.914 5.71341 21.647 5.68085 31.3965 5.71335C31.4133 5.81018 31.3807 5.87529 31.2988 5.90866C23.3074 5.81107 15.2996 5.77852 7.27539 5.811C5.58269 5.811 3.88997 5.811 2.19727 5.811Z" fill="#8C9BA6"/>
<path opacity="0.999" fill-rule="evenodd" clip-rule="evenodd" d="M2.19727 5.81055C3.88997 5.81055 5.58269 5.81055 7.27539 5.81055C8.19823 12.4597 9.19106 19.1003 10.2539 25.7324C10.7512 27.7058 11.7439 29.3659 13.2324 30.7129C13.1463 31.1435 13.2766 31.4853 13.623 31.7383C14.045 31.787 14.4682 31.8033 14.8926 31.7871C16.9358 32.9628 19.1168 33.2721 21.4355 32.7148C21.9888 32.525 22.5422 32.3459 23.0957 32.1777C23.0957 33.6101 23.0957 35.0423 23.0957 36.4746C17.6921 36.4746 12.2884 36.4746 6.88477 36.4746C5.73919 28.4942 4.55104 20.5189 3.32031 12.5488C3.28295 12.4945 3.23412 12.462 3.17383 12.4512C2.89047 10.2303 2.56494 8.01675 2.19727 5.81055Z" fill="#EA4B98"/>
<path fill-rule="evenodd" clip-rule="evenodd" d="M7.27539 5.811C15.2996 5.77851 23.3074 5.81106 31.2988 5.90865C30.9627 8.2184 30.6372 10.5296 30.3223 12.8422C29.6464 12.9649 29.2232 13.3555 29.0527 14.0141C28.9553 16.5364 28.9228 19.0754 28.9551 21.6313C27.9954 21.5078 27.377 21.8984 27.0996 22.8032C27.0029 23.3706 26.9704 23.9565 27.002 24.561C24.9876 24.3219 23.7018 25.1682 23.1445 27.1001C23.0957 28.7924 23.0794 30.4851 23.0957 32.1782C22.5422 32.3463 21.9888 32.5255 21.4355 32.7153C19.1168 33.2725 16.9358 32.9632 14.8926 31.7876C16.5856 31.8039 18.2783 31.7876 19.9707 31.7387C20.4084 31.3769 20.4735 30.9538 20.166 30.4692C17.9937 30.3086 15.8127 30.276 13.623 30.3715C13.4424 30.4389 13.3121 30.5528 13.2324 30.7133C11.7439 29.3664 10.7512 27.7062 10.2539 25.7329C9.19106 19.1007 8.19823 12.4601 7.27539 5.811Z" fill="#EA4B98"/>
<path fill-rule="evenodd" clip-rule="evenodd" d="M13.5253 8.05688C15.7065 8.04061 17.8875 8.05688 20.0683 8.10571C20.3509 8.38976 20.4322 8.73156 20.3124 9.1311C20.1938 9.28235 20.0474 9.39629 19.8729 9.4729C17.8222 9.538 15.7714 9.538 13.7206 9.4729C13.2593 9.23508 13.1128 8.86073 13.2811 8.34985C13.3832 8.26456 13.4645 8.1669 13.5253 8.05688Z" fill="white"/>
<path fill-rule="evenodd" clip-rule="evenodd" d="M16.6504 11.3768C16.8163 11.3612 16.9791 11.3774 17.1387 11.4257C17.4281 11.813 17.7536 12.1711 18.1153 12.4999C18.8521 12.9331 19.6008 12.9493 20.3613 12.5487C20.5759 12.5827 20.7549 12.6804 20.8985 12.8417C20.7622 14.3796 21.4295 15.3398 22.9004 15.7225C23.0936 15.9664 23.1424 16.2432 23.0469 16.5526C22.0762 17.5873 22.0762 18.6289 23.0469 19.6776C23.1206 19.9703 23.0393 20.2144 22.8028 20.41C21.308 20.7757 20.6081 21.736 20.7031 23.2909C20.5627 23.4099 20.3999 23.475 20.2149 23.4862C18.8282 22.885 17.7377 23.2268 16.9434 24.5116C16.7414 24.5787 16.5461 24.5624 16.3574 24.4628C15.6775 23.2655 14.7009 22.8912 13.4278 23.3397C13.1215 23.4414 12.8774 23.3599 12.6953 23.0956C12.8239 21.5665 12.1567 20.6061 10.6934 20.2147C10.5617 20.061 10.4967 19.882 10.4981 19.6776C10.7205 19.3046 10.9322 18.914 11.1328 18.5057C11.3977 17.6397 11.2024 16.891 10.5469 16.2597C10.4331 15.8511 10.5796 15.5744 10.9863 15.4296C12.3198 15.0932 12.922 14.2307 12.793 12.8417C12.903 12.5909 13.0984 12.4606 13.3789 12.4511C14.7855 13.0619 15.8759 12.7038 16.6504 11.3768Z" fill="#F081B7"/>
<path opacity="0.992" fill-rule="evenodd" clip-rule="evenodd" d="M3.17383 12.4512C3.23412 12.462 3.28295 12.4945 3.32031 12.5488C4.55103 20.5189 5.73919 28.4942 6.88477 36.4746C6.88477 36.5071 6.88477 36.5397 6.88477 36.5723C6.24055 36.4051 5.84992 36.6329 5.71289 37.2559C5.7225 37.4938 5.82016 37.6892 6.00586 37.8418C6.32399 37.9313 6.64951 37.964 6.98242 37.9395C6.98242 39.4043 6.98242 40.8691 6.98242 42.334C2.87657 38.1252 0.532817 33.0796 -0.0488281 27.1973C-0.0488281 25.6999 -0.0488281 24.2024 -0.0488281 22.7051C0.335576 19.0775 1.40979 15.6596 3.17383 12.4512Z" fill="#F07FB6" fill-opacity="0.54"/>
<path fill-rule="evenodd" clip-rule="evenodd" d="M30.3223 12.8418C31.1687 12.8418 32.0149 12.8418 32.8613 12.8418C32.3834 13.0102 32.0416 13.3356 31.8359 13.8184C31.7871 16.4224 31.7708 19.0265 31.7871 21.6309C30.8757 21.6309 29.9642 21.6309 29.0527 21.6309C29.0527 19.0918 29.0527 16.5527 29.0527 14.0137C29.2232 13.3551 29.6464 12.9645 30.3223 12.8418Z" fill="#F07FB6"/>
<path fill-rule="evenodd" clip-rule="evenodd" d="M32.8613 12.842C33.8385 12.8258 34.8151 12.842 35.791 12.8908C36.3586 13.1155 36.6842 13.5223 36.7676 14.1115C36.2318 14.6393 36.2643 15.1276 36.8652 15.5764C36.8652 15.7392 36.8652 15.9019 36.8652 16.0647C36.0395 16.2161 35.8767 16.6393 36.377 17.3342C36.5304 17.4132 36.6932 17.4458 36.8652 17.4319C36.8652 17.5947 36.8652 17.7573 36.8652 17.9201C36.2568 18.3612 36.2243 18.8494 36.7676 19.385C36.7676 20.1337 36.7676 20.8823 36.7676 21.6311C35.1074 21.6311 33.4473 21.6311 31.7871 21.6311C31.7708 19.0267 31.7871 16.4226 31.836 13.8186C32.0416 13.3359 32.3834 13.0104 32.8613 12.842Z" fill="#EA4B98"/>
<path fill-rule="evenodd" clip-rule="evenodd" d="M15.8691 14.4041C18.9949 14.2259 20.476 15.6908 20.3125 18.7987C19.595 20.9245 18.1139 21.8197 15.8691 21.4842C13.8149 20.7141 12.9523 19.233 13.2812 17.0409C13.7061 15.7209 14.5687 14.842 15.8691 14.4041Z" fill="#EA4B98"/>
<path fill-rule="evenodd" clip-rule="evenodd" d="M34.5214 15.7711C35.4982 15.7225 35.9052 16.1781 35.7421 17.1383C35.4744 17.6187 35.0675 17.7977 34.5214 17.6754C33.9818 17.3903 33.8028 16.9509 33.9843 16.357C34.1171 16.1106 34.2961 15.9153 34.5214 15.7711Z" fill="#F07FB6"/>
<path fill-rule="evenodd" clip-rule="evenodd" d="M16.3575 15.7715C18.1312 15.771 18.9938 16.6499 18.9454 18.4082C18.544 19.675 17.6814 20.2447 16.3575 20.1172C15.0911 19.717 14.5214 18.8544 14.6485 17.5293C14.9105 16.6326 15.4802 16.0467 16.3575 15.7715Z" fill="#F081B7"/>
<path fill-rule="evenodd" clip-rule="evenodd" d="M29.0527 14.0137C29.0527 16.5527 29.0527 19.0918 29.0527 21.6309C29.9642 21.6309 30.8757 21.6309 31.7871 21.6309C33.4473 21.6309 35.1074 21.6309 36.7676 21.6309C36.7676 20.8821 36.7676 20.1335 36.7676 19.3848C36.8001 19.3848 36.8327 19.3848 36.8652 19.3848C36.8652 20.1335 36.8652 20.8821 36.8652 21.6309C37.6695 21.5255 38.2717 21.8185 38.6719 22.5098C38.7207 23.1926 38.7369 23.8762 38.7207 24.5605C35.3027 24.5605 31.8848 24.5605 28.4668 24.5605C28.011 24.5605 27.5554 24.5605 27.0996 24.5605C27.0996 23.9746 27.0996 23.3887 27.0996 22.8027C27.377 21.8979 27.9954 21.5073 28.9551 21.6309C28.9228 19.075 28.9553 16.5359 29.0527 14.0137Z" fill="#F07FB6"/>
<path opacity="0.998" fill-rule="evenodd" clip-rule="evenodd" d="M27.0996 22.8027C27.0996 23.3887 27.0996 23.9746 27.0996 24.5605C27.5554 24.5605 28.011 24.5605 28.4668 24.5605C28.4668 28.011 28.4668 31.4616 28.4668 34.9121C28.4668 35.1074 28.4668 35.3027 28.4668 35.498C28.1398 38.1634 28.9536 40.4095 30.9082 42.2363C30.6012 42.7916 30.6663 43.2961 31.1035 43.75C31.7203 44.0054 32.2086 43.8589 32.5684 43.3105C33.0185 43.4605 33.4742 43.5908 33.9355 43.7012C34.2788 43.9084 34.6368 43.9409 35.0098 43.7988C35.6196 43.9156 36.2382 43.8831 36.8652 43.7012C36.5938 43.3545 36.5123 42.9639 36.6211 42.5293C36.9495 41.9449 37.4216 41.7984 38.0371 42.0898C38.476 42.4016 38.6225 42.8084 38.4766 43.3105C40.7904 42.1986 42.1576 40.3758 42.5781 37.8418C42.627 39.4365 42.6433 41.0315 42.627 42.627C38.3728 46.9021 33.2295 49.3436 27.1973 49.9512C26.6113 49.9512 26.0254 49.9512 25.4395 49.9512C24.2101 49.5353 23.4613 48.689 23.1934 47.4121C23.1934 43.7988 23.1934 40.1855 23.1934 36.5723C17.7571 36.5723 12.321 36.5723 6.88477 36.5723C6.88477 36.5397 6.88477 36.5071 6.88477 36.4746C12.2884 36.4746 17.6921 36.4746 23.0957 36.4746C23.0957 35.0423 23.0957 33.6101 23.0957 32.1777C23.0794 30.4847 23.0957 28.792 23.1445 27.0996C23.7018 25.1678 24.9876 24.3215 27.002 24.5605C26.9704 23.9561 27.0029 23.3701 27.0996 22.8027Z" fill="#F07FB6"/>
<path fill-rule="evenodd" clip-rule="evenodd" d="M28.4668 24.5609C31.8847 24.5609 35.3027 24.5609 38.7207 24.5609C40.5513 24.2632 41.8371 24.9468 42.5781 26.6117C42.7225 31.9139 42.7714 37.22 42.7246 42.5297C42.7246 42.5948 42.6921 42.6273 42.6269 42.6273C42.6432 41.0319 42.6269 39.4369 42.5781 37.8422C42.1576 40.3762 40.7904 42.199 38.4765 43.3109C38.6224 42.8088 38.4759 42.4019 38.0371 42.0902C37.4216 41.7988 36.9495 41.9453 36.6211 42.5297C36.5123 42.9642 36.5937 43.3549 36.8652 43.7015C36.2382 43.8835 35.6196 43.916 35.0097 43.7992C35.7312 43.2683 35.7637 42.6987 35.1074 42.0902C34.0385 41.7915 33.5665 42.1983 33.6914 43.3109C33.756 43.4558 33.8375 43.586 33.9355 43.7015C33.4742 43.5912 33.0184 43.4609 32.5683 43.3109C32.596 42.0406 32.0425 41.6825 30.9082 42.2367C28.9536 40.4098 28.1398 38.1638 28.4668 35.4984C28.4161 37.8233 29.4577 39.4347 31.5918 40.3324C33.9001 40.9196 35.7393 40.2523 37.1093 38.3305C37.7951 37.0178 37.9253 35.6506 37.5 34.2289C36.9133 33.1198 36.2785 32.0456 35.5957 31.0062C34.9295 29.9347 34.2621 28.8605 33.5937 27.7836C33.2682 27.393 32.9426 27.393 32.6172 27.7836C31.9162 28.9257 31.2164 30.0649 30.5175 31.2015C29.6791 32.3581 28.9955 33.595 28.4668 34.9125C28.4668 31.462 28.4668 28.0114 28.4668 24.5609Z" fill="#EA4B98"/>
<path fill-rule="evenodd" clip-rule="evenodd" d="M12.3534 27.1975C15.3158 27.1812 18.278 27.1975 21.2401 27.2464C21.6499 27.5375 21.7312 27.9118 21.4843 28.3694C21.3617 28.4388 21.2479 28.5202 21.1425 28.6135C18.2453 28.6787 15.3482 28.6787 12.4511 28.6135C11.8427 28.1726 11.8102 27.7006 12.3534 27.1975Z" fill="white"/>
<path fill-rule="evenodd" clip-rule="evenodd" d="M35.5956 31.0059C35.8077 33.5572 34.6359 34.6151 32.08 34.1797C30.9215 33.5191 30.4007 32.5264 30.5175 31.2012C31.2163 30.0646 31.9161 28.9253 32.6171 27.7832C32.9426 27.3926 33.2682 27.3926 33.5937 27.7832C34.262 28.8602 34.9294 29.9344 35.5956 31.0059Z" fill="#F07FB6"/>
<path fill-rule="evenodd" clip-rule="evenodd" d="M14.8927 31.7868C14.4682 31.803 14.0451 31.7867 13.6231 31.738C13.2766 31.485 13.1464 31.1432 13.2325 30.7126C13.3122 30.5521 13.4425 30.4382 13.6231 30.3708C15.8128 30.2753 17.9937 30.3078 20.1661 30.4685C20.4736 30.953 20.4085 31.3762 19.9708 31.738C18.2784 31.7868 16.5857 31.8031 14.8927 31.7868Z" fill="white"/>
<path fill-rule="evenodd" clip-rule="evenodd" d="M35.5958 31.0059C36.2786 32.0452 36.9133 33.1194 37.5001 34.2285C37.9253 35.6502 37.7952 37.0174 37.1094 38.3301C35.7394 40.252 33.9002 40.9192 31.5919 40.332C29.4578 39.4343 28.4162 37.8229 28.4669 35.498C28.4669 35.3027 28.4669 35.1074 28.4669 34.9121C28.9956 33.5946 29.6792 32.3577 30.5176 31.2012C30.4008 32.5264 30.9216 33.5191 32.0801 34.1797C34.636 34.6151 35.8079 33.5572 35.5958 31.0059Z" fill="#F07FB6"/>
<path fill-rule="evenodd" clip-rule="evenodd" d="M6.88477 36.5726C12.321 36.5726 17.7571 36.5726 23.1934 36.5726C23.1934 40.1859 23.1934 43.7992 23.1934 47.4124C23.0959 44.3041 23.0633 41.1791 23.0957 38.0374C21.8913 38.0374 20.6868 38.0374 19.4824 38.0374C15.3316 38.0442 11.165 38.0117 6.98242 37.9398C6.64951 37.9643 6.32399 37.9317 6.00586 37.8421C5.82016 37.6895 5.7225 37.4942 5.71289 37.2562C5.84992 36.6332 6.24055 36.4054 6.88477 36.5726Z" fill="#F07FB6"/>
<path fill-rule="evenodd" clip-rule="evenodd" d="M18.5059 49.1699C14.0403 47.9967 10.2317 45.7506 7.08008 42.4316C7.08008 40.9668 7.08008 39.502 7.08008 38.0371C8.67513 38.0371 10.2702 38.0371 11.8652 38.0371C11.7629 39.6893 11.9094 41.3168 12.3047 42.9199C12.829 44.2913 13.6591 45.4469 14.7949 46.3867C15.9946 47.3763 17.2315 48.304 18.5059 49.1699Z" fill="#F07FB6"/>
<path opacity="0.998" fill-rule="evenodd" clip-rule="evenodd" d="M6.98242 37.9395C11.165 38.0113 15.3316 38.0438 19.4824 38.0371C20.6868 38.0371 21.8913 38.0371 23.0957 38.0371C23.0633 41.1788 23.0959 44.3038 23.1934 47.4121C23.4613 48.689 24.2101 49.5353 25.4395 49.9512C24.528 49.9512 23.6165 49.9512 22.7051 49.9512C21.3004 49.7825 19.9007 49.5222 18.5059 49.1699C17.2315 48.304 15.9946 47.3763 14.7949 46.3867C13.6591 45.4469 12.829 44.2913 12.3047 42.9199C11.9094 41.3168 11.7629 39.6893 11.8652 38.0371C10.2702 38.0371 8.67513 38.0371 7.08008 38.0371C7.08008 39.502 7.08008 40.9668 7.08008 42.4316C7.01497 42.4316 6.98242 42.3991 6.98242 42.334C6.98242 40.8691 6.98242 39.4043 6.98242 37.9395Z" fill="#EA4B98"/>
<path fill-rule="evenodd" clip-rule="evenodd" d="M19.4824 38.0371C19.7884 39.917 19.0722 41.2028 17.3339 41.8945C15.6316 42.111 14.5086 41.4111 13.9648 39.7949C13.9161 39.2099 13.8998 38.6239 13.916 38.0371C15.7714 38.0371 17.6269 38.0371 19.4824 38.0371Z" fill="#F07FB6"/>
</g>
<defs>
<clipPath id="clip0_732_415">
<rect width="50" height="50" fill="white"/>
</clipPath>
</defs>
</svg>
