<svg width="162.000000" height="61.000000" viewBox="0 0 162 61" fill="none" xmlns="http://www.w3.org/2000/svg" xmlns:xlink="http://www.w3.org/1999/xlink">
	<desc>
			Created with Pixso.
	</desc>
	<defs>
		<linearGradient id="paint_linear_2694_1214_0" x1="0.000000" y1="30.000000" x2="161.000000" y2="30.000000" gradientUnits="userSpaceOnUse">
			<stop stop-color="#A04CD7"/>
			<stop offset="0.250000" stop-color="#A64CD1"/>
			<stop offset="0.500000" stop-color="#AD4CCB"/>
			<stop offset="1.000000" stop-color="#B54CC4"/>
		</linearGradient>
	</defs>
	<path d="M142.08 0L3 0C1.34 0 0 1.34 0 3L0 57C0 58.65 1.34 60 3 60L142.05 60C143.14 60 144.14 59.41 144.67 58.47L160.15 30.99C160.67 30.06 160.67 28.93 160.13 28.01L144.67 1.48C144.14 0.56 143.15 0 142.08 0Z" fill="url(#paint_linear_2694_1214_0)" fill-opacity="1.000000" fill-rule="nonzero"/>
	<path d="M142.08 0C143.15 0 144.14 0.56 144.67 1.48L160.13 28.01C160.67 28.93 160.67 30.06 160.15 30.99L144.67 58.47C144.14 59.41 143.14 60 142.05 60L3 60C1.34 60 0 58.65 0 57L0 3C0 1.34 1.34 0 3 0L142.08 0Z" stroke="#C7CED8" stroke-opacity="1.000000" stroke-width="1.000000"/>
</svg>
