<svg width="142.000000" height="57.000000" viewBox="0 0 142 57" fill="none" xmlns="http://www.w3.org/2000/svg" xmlns:xlink="http://www.w3.org/1999/xlink">
	<desc>
			Created with Pixso.
	</desc>
	<defs/>
	<path d="M1.03 4.64L14.95 25.91C15.59 26.9 15.6 28.17 14.97 29.16L0.91 51.39C-0.36 53.39 1.08 56 3.44 56L138 56C139.65 56 141 54.65 141 53L141 27.53L141 3C141 1.34 139.65 0 138 0L3.54 0C1.16 0 -0.27 2.64 1.03 4.64Z" fill="#FFFFFF" fill-opacity="1.000000" fill-rule="evenodd"/>
	<path d="M14.95 25.91C15.59 26.9 15.6 28.17 14.97 29.16L0.91 51.39C-0.36 53.39 1.08 56 3.44 56L138 56C139.65 56 141 54.65 141 53L141 27.53L141 3C141 1.34 139.65 0 138 0L3.54 0C1.16 0 -0.27 2.64 1.03 4.64L14.95 25.91Z" stroke="#C7CED8" stroke-opacity="1.000000" stroke-width="1.000000"/>
</svg>
