<svg width="160.000000" height="61.000000" viewBox="0 0 160 61" fill="none" xmlns="http://www.w3.org/2000/svg" xmlns:xlink="http://www.w3.org/1999/xlink">
	<desc>
			Created with Pixso.
	</desc>
	<defs/>
	<path d="M14.37 28.01L0.63 4.51C-0.53 2.51 0.91 0 3.22 0L139.93 0C141 0 141.98 0.56 142.52 1.47L158.12 28C158.66 28.92 158.67 30.07 158.14 31L142.51 58.48C141.98 59.42 140.98 60 139.9 60L3.14 60C0.84 60 -0.6 57.52 0.53 55.52L14.39 31C14.92 30.07 14.91 28.93 14.37 28.01Z" fill="#FFFFFF" fill-opacity="1.000000" fill-rule="nonzero"/>
	<path d="M14.37 28.01C14.91 28.93 14.92 30.07 14.39 31L0.53 55.52C-0.6 57.52 0.84 60 3.14 60L139.9 60C140.98 60 141.98 59.42 142.51 58.48L158.14 31C158.67 30.07 158.66 28.92 158.12 28L142.52 1.47C141.98 0.56 141 0 139.93 0L3.22 0C0.91 0 -0.53 2.51 0.63 4.51L14.37 28.01Z" stroke="#C7CED8" stroke-opacity="1.000000" stroke-width="1.000000"/>
</svg>
