<svg width="34" height="34" viewBox="0 0 34 34" fill="none" xmlns="http://www.w3.org/2000/svg">
<g clip-path="url(#clip0_1562_110)">
<path opacity="0.995" fill-rule="evenodd" clip-rule="evenodd" d="M33.555 -0.0146484C33.6347 -0.0146484 33.7142 -0.0146484 33.7939 -0.0146484C33.8835 0.0675839 33.9487 0.17552 33.9893 0.309161C33.9893 6.45174 33.9893 12.5943 33.9893 18.7369C32.9999 17.0737 31.7115 16.3132 30.1246 16.4555C29.0962 16.5342 28.17 16.9856 27.3456 17.8096C26.2114 19.0851 25.6397 20.7286 25.6304 22.7403C25.6299 25.1685 26.3825 27.0181 27.8884 28.2892C29.0158 29.1118 30.21 29.3669 31.4707 29.0546C32.4341 28.799 33.2734 28.225 33.9893 27.3325C33.9893 29.4423 33.9893 31.5518 33.9893 33.6615C33.9497 33.7978 33.8846 33.9059 33.7939 33.9854C22.5908 33.9854 11.3877 33.9854 0.18466 33.9854C0.0978146 33.9265 0.0326805 33.8382 -0.0107422 33.7204C-0.0107422 33.6224 -0.0107422 33.5241 -0.0107422 33.426C0.0558401 33.2621 0.149923 33.1296 0.271506 33.0286C4.34182 29.0063 8.40908 24.9784 12.4733 20.9447C12.4914 23.5841 12.5022 26.2237 12.5059 28.8633C12.5239 28.8878 12.5421 28.9123 12.5601 28.9369C14.2826 28.9565 16.005 28.9565 17.7274 28.9369C18.5003 28.8766 19.1264 28.4399 19.6055 27.6269C20.1975 26.3301 20.1975 25.0348 19.6055 23.7412C19.3655 23.2964 19.058 22.9677 18.6827 22.755C18.6265 22.6451 18.6265 22.5372 18.6827 22.4312C19.3738 21.947 19.761 21.1768 19.8443 20.1204C19.9234 18.7993 19.5507 17.7936 18.7262 17.1031C18.3876 16.8558 18.0258 16.7086 17.6406 16.6615C17.3656 16.6517 17.0906 16.6419 16.8156 16.6321C22.3891 11.0682 27.9689 5.51926 33.555 -0.0146484ZM21.9612 16.6468C22.5619 16.6419 23.1627 16.6468 23.7632 16.6615C23.7893 16.6881 23.8073 16.7224 23.8175 16.7646C23.832 20.7877 23.832 24.8107 23.8175 28.8338C23.8066 28.8878 23.7812 28.9221 23.7415 28.9369C23.1553 28.9565 22.5691 28.9565 21.9829 28.9369C21.9575 28.9221 21.9394 28.8976 21.9286 28.8633C21.914 24.8206 21.914 20.7778 21.9286 16.7351C21.9397 16.7049 21.9505 16.6755 21.9612 16.6468Z" fill="#EA4B98"/>
<path opacity="0.988" fill-rule="evenodd" clip-rule="evenodd" d="M33.9891 19.3551C33.9891 20.2873 33.9891 21.2195 33.9891 22.1517C32.6936 22.1468 31.3983 22.1517 30.1028 22.1664C30.0718 22.1801 30.0464 22.2046 30.0268 22.24C29.991 22.9145 29.9838 23.5915 30.0051 24.2712C30.0177 24.3154 30.0359 24.3546 30.0594 24.3889C30.811 24.4133 31.5638 24.428 32.3174 24.4331C32.3571 24.4478 32.3825 24.4821 32.3934 24.5361C32.4079 24.9973 32.4079 25.4585 32.3934 25.9196C31.9342 26.449 31.4022 26.7581 30.7976 26.8469C29.4365 26.9917 28.4558 26.241 27.8557 24.595C27.4447 23.1878 27.5098 21.8239 28.0511 20.5032C28.7161 19.1866 29.6388 18.6126 30.8193 18.7811C31.5483 18.9515 32.1346 19.4372 32.5779 20.2383C32.6068 20.2579 32.6359 20.2775 32.6647 20.2971C33.1035 19.9752 33.5449 19.6612 33.9891 19.3551Z" fill="#EA4B98"/>
<path opacity="0.986" fill-rule="evenodd" clip-rule="evenodd" d="M14.5358 18.9135C15.3392 18.9085 16.1425 18.9135 16.9458 18.9282C17.552 18.9946 17.8705 19.4362 17.9011 20.2529C17.884 20.9631 17.6162 21.385 17.0977 21.5187C16.2293 21.5383 15.3608 21.5383 14.4924 21.5187C14.4613 21.505 14.436 21.4804 14.4164 21.4451C14.4019 20.6405 14.4019 19.8358 14.4164 19.0312C14.4489 18.9733 14.4887 18.934 14.5358 18.9135Z" fill="#EA4B98"/>
<path opacity="0.983" fill-rule="evenodd" clip-rule="evenodd" d="M14.4924 23.8295C15.3608 23.8246 16.2293 23.8295 17.0977 23.8442C17.7123 23.9513 18.0452 24.4223 18.0965 25.2572C18.0707 26.0244 17.7812 26.4855 17.228 26.6407C16.7473 26.6735 16.266 26.6882 15.7842 26.6849C15.345 26.6893 14.9072 26.6746 14.4707 26.6407C14.4526 26.6162 14.4345 26.5917 14.4164 26.5671C14.4019 25.6938 14.4019 24.8205 14.4164 23.9472C14.4463 23.9118 14.4716 23.8725 14.4924 23.8295Z" fill="#EA4B98"/>
</g>
<defs>
<clipPath id="clip0_1562_110">
<rect width="34" height="34" fill="white"/>
</clipPath>
</defs>
</svg>
