<svg width="31" height="26" viewBox="0 0 31 26" fill="none" xmlns="http://www.w3.org/2000/svg">
<g clip-path="url(#clip0_3535_24)">
<path opacity="0.995" fill-rule="evenodd" clip-rule="evenodd" d="M30.6058 -0.0108643C30.6763 -0.0108643 30.7467 -0.0108643 30.8172 -0.0108643C30.8965 0.049786 30.9542 0.129394 30.9901 0.227961C30.9901 4.75841 30.9901 9.28883 30.9901 13.8193C30.1145 12.5926 28.9744 12.0317 27.5701 12.1366C26.66 12.1947 25.8403 12.5276 25.1108 13.1354C24.1071 14.0761 23.6012 15.2883 23.5929 16.772C23.5925 18.5629 24.2585 19.9271 25.5911 20.8646C26.5889 21.4713 27.6456 21.6594 28.7613 21.4291C29.6138 21.2406 30.3566 20.8172 30.9901 20.159C30.9901 21.715 30.9901 23.2709 30.9901 24.8269C30.9551 24.9275 30.8975 25.0071 30.8172 25.0658C20.903 25.0658 10.9889 25.0658 1.07478 25.0658C0.997923 25.0223 0.940282 24.9572 0.901855 24.8704C0.901855 24.7981 0.901855 24.7255 0.901855 24.6532C0.960777 24.5323 1.04404 24.4346 1.15163 24.3601C4.75365 21.3935 8.35296 18.4227 11.9496 15.4476C11.9656 17.3944 11.9752 19.3412 11.9784 21.288C11.9944 21.3061 12.0104 21.3242 12.0264 21.3423C13.5507 21.3567 15.075 21.3567 16.5992 21.3423C17.2832 21.2978 17.8372 20.9758 18.2612 20.3761C18.7851 19.4196 18.7851 18.4643 18.2612 17.5102C18.0489 17.1821 17.7767 16.9397 17.4446 16.7829C17.3949 16.7018 17.3949 16.6222 17.4446 16.5441C18.0561 16.1869 18.3988 15.6188 18.4725 14.8397C18.5426 13.8653 18.2127 13.1235 17.483 12.6143C17.1834 12.4319 16.8632 12.3233 16.5224 12.2886C16.279 12.2814 16.0356 12.2741 15.7923 12.2669C20.7245 8.16325 25.6624 4.07066 30.6058 -0.0108643ZM20.3458 12.2778C20.8775 12.2741 21.4091 12.2778 21.9406 12.2886C21.9636 12.3082 21.9796 12.3335 21.9886 12.3646C22.0015 15.3318 22.0015 18.299 21.9886 21.2663C21.979 21.3061 21.9565 21.3314 21.9214 21.3423C21.4026 21.3567 20.8838 21.3567 20.3651 21.3423C20.3426 21.3314 20.3266 21.3133 20.317 21.288C20.3042 18.3063 20.3042 15.3246 20.317 12.3429C20.3268 12.3206 20.3364 12.2989 20.3458 12.2778Z" fill="white"/>
<path opacity="0.988" fill-rule="evenodd" clip-rule="evenodd" d="M30.9904 14.2752C30.9904 14.9627 30.9904 15.6503 30.9904 16.3378C29.8439 16.3342 28.6977 16.3378 27.5512 16.3486C27.5237 16.3587 27.5012 16.3768 27.484 16.4029C27.4523 16.9004 27.4459 17.3997 27.4647 17.901C27.4759 17.9336 27.492 17.9626 27.5128 17.9879C28.1779 18.0058 28.8441 18.0167 29.511 18.0204C29.5461 18.0313 29.5686 18.0566 29.5782 18.0964C29.5911 18.4366 29.5911 18.7767 29.5782 19.1168C29.1719 19.5073 28.7011 19.7353 28.166 19.8008C26.9615 19.9075 26.0937 19.3539 25.5626 18.1398C25.1989 17.102 25.2565 16.0961 25.7355 15.122C26.324 14.1509 27.1406 13.7276 28.1852 13.8518C28.8304 13.9775 29.3492 14.3357 29.7415 14.9266C29.7671 14.941 29.7928 14.9555 29.8184 14.97C30.2067 14.7325 30.5973 14.5009 30.9904 14.2752Z" fill="white"/>
<path opacity="0.986" fill-rule="evenodd" clip-rule="evenodd" d="M13.775 13.9496C14.4859 13.946 15.1968 13.9496 15.9076 13.9605C16.4442 14.0094 16.726 14.3351 16.753 14.9375C16.7379 15.4613 16.501 15.7725 16.0421 15.8711C15.2736 15.8855 14.5051 15.8855 13.7365 15.8711C13.709 15.861 13.6866 15.8429 13.6693 15.8168C13.6565 15.2233 13.6565 14.6299 13.6693 14.0364C13.6981 13.9937 13.7333 13.9648 13.775 13.9496Z" fill="white"/>
<path opacity="0.983" fill-rule="evenodd" clip-rule="evenodd" d="M13.7365 17.5753C14.5051 17.5717 15.2736 17.5753 16.0421 17.5862C16.586 17.6652 16.8806 18.0125 16.926 18.6283C16.9031 19.1942 16.6469 19.5343 16.1574 19.6488C15.732 19.673 15.3061 19.6838 14.8797 19.6813C14.4911 19.6846 14.1036 19.6737 13.7173 19.6488C13.7013 19.6307 13.6853 19.6126 13.6693 19.5945C13.6565 18.9504 13.6565 18.3063 13.6693 17.6622C13.6957 17.636 13.7181 17.6071 13.7365 17.5753Z" fill="white"/>
</g>
<defs>
<clipPath id="clip0_3535_24">
<rect width="30.0882" height="25.0766" fill="white" transform="translate(0.911621)"/>
</clipPath>
</defs>
</svg>
