<svg width="30" height="30" viewBox="0 0 30 30" fill="none" xmlns="http://www.w3.org/2000/svg">
<path opacity="0.988" fill-rule="evenodd" clip-rule="evenodd" d="M3.13496 1.14233C9.48266 1.13257 15.8303 1.14233 22.1779 1.17163C23.7098 1.53162 24.657 2.47889 25.0197 4.01343C25.0588 4.63843 25.0588 5.26343 25.0197 5.88843C24.7568 6.30146 24.3955 6.40892 23.9357 6.21069C23.8257 6.12028 23.7378 6.01288 23.6721 5.88843C23.6022 5.32493 23.5631 4.75853 23.5549 4.18921C23.3107 3.39819 22.7932 2.88062 22.0021 2.63648C16.691 2.54001 11.3785 2.52048 6.06465 2.57788C6.14422 2.75794 6.2126 2.94349 6.26973 3.13452C6.2699 10.6978 6.30899 18.2564 6.38691 25.8103C7.0608 26.323 7.76393 26.7917 8.49629 27.2166C9.50574 26.7265 10.5116 26.2284 11.5139 25.7224C12.0467 25.5683 12.5545 25.6268 13.0373 25.8982C13.6641 26.3481 14.3086 26.768 14.9709 27.158C15.6913 26.6998 16.4139 26.2409 17.1389 25.781C17.4791 25.6452 17.8307 25.6062 18.1936 25.6638C19.2876 26.1571 20.3716 26.6747 21.4455 27.2166C22.1779 26.7917 22.881 26.323 23.5549 25.8103C23.5618 25.2794 23.6009 24.7521 23.6721 24.2283C23.9745 23.7235 24.3749 23.6357 24.8732 23.9646C24.9295 24.0477 24.9783 24.1356 25.0197 24.2283C25.0746 24.9356 25.0551 25.6387 24.9611 26.3376C24.8431 26.6317 24.6575 26.8758 24.4045 27.0701C23.7404 27.5193 23.0763 27.9685 22.4123 28.4177C21.9282 28.6837 21.4204 28.7423 20.8889 28.5935C19.8866 28.0875 18.8807 27.5894 17.8713 27.0994C17.1444 27.5361 16.4315 27.995 15.7326 28.4763C15.2248 28.6716 14.717 28.6716 14.2092 28.4763C13.5103 27.995 12.7974 27.5361 12.0705 27.0994C11.0611 27.5894 10.0552 28.0875 9.05293 28.5935C8.52014 28.7477 8.01231 28.6891 7.52949 28.4177C6.89504 27.9735 6.25051 27.5438 5.5959 27.1287C5.2554 26.886 5.03079 26.5638 4.92207 26.1619C4.89277 22.6658 4.88301 19.1698 4.89277 15.6736C4.30651 15.6833 3.72057 15.6736 3.13496 15.6443C2.08952 15.3801 1.43523 14.7258 1.17207 13.6814C1.10588 11.925 1.07659 10.1672 1.08418 8.40796C1.07659 6.64874 1.10588 4.89095 1.17207 3.13452C1.44589 2.08926 2.10018 1.4252 3.13496 1.14233ZM3.36934 2.60718C4.04584 2.50096 4.52435 2.75486 4.80488 3.3689C4.83418 7.00165 4.84395 10.6345 4.83418 14.2673C4.46257 14.2771 4.09148 14.2673 3.7209 14.238C3.02754 14.1697 2.64668 13.7888 2.57832 13.0955C2.53926 9.97048 2.53926 6.84544 2.57832 3.72046C2.61335 3.18001 2.87703 2.80891 3.36934 2.60718Z" fill="#5C5C5C"/>
<path opacity="0.958" fill-rule="evenodd" clip-rule="evenodd" d="M8.99427 4.83374C10.4788 4.82398 11.9632 4.83374 13.4474 4.86304C13.9613 5.02138 14.1468 5.36317 14.004 5.88843C13.9161 6.05442 13.7892 6.18139 13.6232 6.26929C12.0216 6.30837 10.42 6.30837 8.81849 6.26929C8.43353 6.05513 8.30656 5.73285 8.43763 5.30249C8.56607 5.06566 8.75163 4.90941 8.99427 4.83374Z" fill="#5C5C5C"/>
<path opacity="0.982" fill-rule="evenodd" clip-rule="evenodd" d="M19.5996 6.76781C23.1096 6.53548 25.8146 7.88314 27.7148 10.8108C28.8688 12.8921 29.1227 15.0796 28.4766 17.3733C27.3301 20.6664 25.0352 22.5902 21.5918 23.1448C18.0802 23.4055 15.3751 22.0676 13.4766 19.1311C11.9531 16.3577 11.9531 13.5842 13.4766 10.8108C14.9002 8.53136 16.9412 7.18371 19.5996 6.76781ZM20.5371 8.17406C23.4138 8.30894 25.4939 9.6566 26.7773 12.217C27.8644 15.0104 27.4054 17.5104 25.4004 19.717C23.1829 21.7719 20.6634 22.2503 17.8418 21.1526C15.3112 19.879 13.9635 17.8184 13.7988 14.9709C13.9635 12.1235 15.3112 10.0629 17.8418 8.78929C18.7118 8.42214 19.6103 8.21707 20.5371 8.17406Z" fill="#5C5C5C"/>
<path opacity="0.981" fill-rule="evenodd" clip-rule="evenodd" d="M8.81809 7.29469C9.79485 7.2849 10.7714 7.29469 11.7478 7.32398C12.1327 7.53814 12.2597 7.86041 12.1286 8.29078C12.0407 8.45678 11.9138 8.58375 11.7478 8.67164C10.7712 8.71072 9.79467 8.71072 8.81809 8.67164C8.40506 8.40873 8.2976 8.04738 8.49582 7.58765C8.59719 7.47621 8.70459 7.37853 8.81809 7.29469Z" fill="#5C5C5C"/>
<path opacity="0.984" fill-rule="evenodd" clip-rule="evenodd" d="M20.3027 9.34534C21.1161 9.29993 21.4677 9.69058 21.3574 10.5172C22.2704 10.8344 22.8759 11.4497 23.1738 12.3629C23.1311 12.6641 22.9749 12.879 22.7051 13.0075C22.3756 13.0822 22.0728 13.0334 21.7968 12.861C21.4032 11.9452 20.7685 11.7011 19.8926 12.1285C19.3698 12.6981 19.3503 13.2841 19.834 13.8864C20.2444 14.1342 20.6936 14.2514 21.1816 14.2379C22.8117 14.7926 23.4465 15.9156 23.0859 17.6071C22.7869 18.4725 22.201 19.0389 21.3281 19.3063C21.3222 19.6254 21.2831 19.9379 21.2109 20.2438C20.9683 20.5198 20.6656 20.6077 20.3027 20.5075C20.1783 20.4417 20.0709 20.3538 19.9804 20.2438C19.8824 19.9263 19.814 19.6041 19.7754 19.277C19.0472 19.0568 18.4906 18.6174 18.1054 17.9586C17.8403 17.2383 18.0845 16.8282 18.8379 16.7282C19.0003 16.759 19.1565 16.8078 19.3066 16.8746C19.475 17.0842 19.6214 17.3089 19.7461 17.5485C20.3125 18.0172 20.8789 18.0172 21.4453 17.5485C21.8343 16.9525 21.7854 16.3959 21.2988 15.8785C21.1816 15.82 21.0644 15.7614 20.9472 15.7028C19.8627 15.6732 18.9935 15.2338 18.3398 14.3844C17.701 13.0273 17.9451 11.8652 19.0722 10.8981C19.3172 10.7317 19.5808 10.6047 19.8633 10.5172C19.8828 10.2633 19.9023 10.0094 19.9218 9.7555C20.0211 9.58804 20.1481 9.45134 20.3027 9.34534Z" fill="#5C5C5C"/>
<path opacity="0.975" fill-rule="evenodd" clip-rule="evenodd" d="M9.34528 21.0645C10.2281 21.0717 10.4917 21.4818 10.1363 22.2949C9.66538 22.6429 9.25523 22.5843 8.90583 22.1191C8.75191 21.64 8.89839 21.2884 9.34528 21.0645Z" fill="#5C5C5C"/>
<path opacity="0.944" fill-rule="evenodd" clip-rule="evenodd" d="M11.6897 21.0652C12.4437 21.0281 12.7464 21.3796 12.5979 22.1198C12.2993 22.5425 11.9185 22.6304 11.4554 22.3835C11.2302 22.1234 11.1619 21.8207 11.2503 21.4753C11.3524 21.2851 11.4988 21.1484 11.6897 21.0652Z" fill="#5C5C5C"/>
</svg>
