<svg width="41" height="41" viewBox="0 0 41 41" fill="none" xmlns="http://www.w3.org/2000/svg">
<g clip-path="url(#clip0_348_2421)">
<path opacity="0.996" fill-rule="evenodd" clip-rule="evenodd" d="M18.6191 -0.0400391C19.8469 -0.0400391 21.0748 -0.0400391 22.3027 -0.0400391C29.4812 0.831844 34.8865 4.38198 38.5185 10.6104C39.8554 13.1305 40.6695 15.7997 40.9609 18.6182C40.9609 19.846 40.9609 21.0739 40.9609 22.3018C40.6636 25.3024 39.756 28.1051 38.2382 30.71C38.2646 29.5747 38.2379 28.4536 38.1581 27.3467C37.2239 27.3467 36.2897 27.3467 35.3554 27.3467C35.3554 26.4392 35.3554 25.5315 35.3554 24.624C32.7395 24.624 30.1237 24.624 27.5077 24.624C27.4944 21.2607 27.5077 17.8974 27.5478 14.5342C27.6052 14.4906 27.6452 14.4372 27.6679 14.374C28.0133 14.0555 28.3603 13.7352 28.7089 13.4131C28.9508 13.6284 29.191 13.842 29.4296 14.0537C29.6134 14.2777 29.8136 14.4913 30.0302 14.6943C30.4585 14.2527 30.8989 13.8256 31.3515 13.4131C31.7809 13.8293 32.2213 14.2297 32.6728 14.6143C33.1498 14.2175 33.6035 13.7904 34.0341 13.333C34.0875 11.0107 34.0875 8.68848 34.0341 6.36621C33.7152 5.0998 32.9278 4.29902 31.6718 3.96387C31.4372 3.89988 31.1969 3.87319 30.9511 3.88379C25.5458 3.8193 20.1272 3.8193 14.6952 3.88379C13.8406 3.87046 12.9864 3.88381 12.1327 3.92383C10.8294 4.2929 10.0152 5.13372 9.69032 6.44629C9.65029 12.719 9.63691 18.9918 9.65029 25.2646C7.50107 25.2116 6.4734 26.2527 6.56727 28.3877C6.87746 29.4856 7.58482 30.1529 8.68935 30.3896C10.3838 30.4695 12.0921 30.4962 13.8144 30.4697C13.8144 31.9912 13.8144 33.5127 13.8144 35.0342C14.7486 35.0342 15.6828 35.0342 16.6171 35.0342C16.6968 35.9274 16.7234 36.835 16.6972 37.7568C21.5684 37.8368 26.4532 37.8635 31.3515 37.8369C28.5862 39.5951 25.5699 40.6361 22.3027 40.96C21.0748 40.96 19.8469 40.96 18.6191 40.96C15.9959 40.6642 13.4868 39.9435 11.0917 38.7979C11.8874 37.67 12.1945 36.4155 12.0126 35.0342C11.2375 32.4238 9.48909 31.236 6.76747 31.4707C5.73492 31.7194 4.85406 32.2132 4.12489 32.9521C1.76198 29.7879 0.373955 26.2378 -0.0391846 22.3018C-0.0391846 21.0739 -0.0391846 19.846 -0.0391846 18.6182C0.832668 11.4397 4.3828 6.03447 10.6112 2.40234C13.1314 1.06546 15.8006 0.251333 18.6191 -0.0400391Z" fill="#FDD403"/>
<path fill-rule="evenodd" clip-rule="evenodd" d="M14.6944 3.88378C13.4329 4.30469 12.6187 5.15885 12.252 6.44628C12.212 7.40685 12.1986 8.36776 12.212 9.32909C12.212 9.88964 12.212 10.4502 12.212 11.0107C12.212 11.9717 12.212 12.9326 12.212 13.8935C12.212 14.4541 12.212 15.0146 12.212 15.5752C12.212 16.5895 12.212 17.6038 12.212 18.6182C12.212 19.1787 12.212 19.7393 12.212 20.2998C12.212 22.8356 12.212 25.3714 12.212 27.9072C11.3578 27.9072 10.5037 27.9072 9.64949 27.9072C9.64949 27.6403 9.64949 27.3733 9.64949 27.1064C9.64949 26.4925 9.64949 25.8786 9.64949 25.2646C9.63611 18.9918 9.64949 12.719 9.68953 6.44628C10.0144 5.13371 10.8286 4.29289 12.1319 3.92382C12.9856 3.8838 13.8398 3.87045 14.6944 3.88378Z" fill="#E1F9FE"/>
<path fill-rule="evenodd" clip-rule="evenodd" d="M30.9503 3.88381C29.27 3.89001 28.1623 4.69079 27.6271 6.28616C27.5605 8.99568 27.5739 11.6916 27.6671 14.374C27.6444 14.4372 27.6044 14.4906 27.547 14.5342C27.5069 17.8974 27.4936 21.2607 27.5069 24.624C22.9425 24.624 18.378 24.624 13.8136 24.624C13.8136 25.7185 13.8136 26.8128 13.8136 27.9073C13.2797 27.9073 12.7459 27.9073 12.212 27.9073C12.212 25.3714 12.212 22.8357 12.212 20.2998C14.641 20.2998 17.0701 20.2998 19.4991 20.2998C19.4991 19.7393 19.4991 19.1787 19.4991 18.6182C17.0701 18.6182 14.641 18.6182 12.212 18.6182C12.212 17.6038 12.212 16.5896 12.212 15.5752C14.641 15.5752 17.0701 15.5752 19.4991 15.5752C19.4991 15.0147 19.4991 14.4541 19.4991 13.8936C17.0701 13.8936 14.641 13.8936 12.212 13.8936C12.212 12.9326 12.212 11.9717 12.212 11.0108C14.641 11.0108 17.0701 11.0108 19.4991 11.0108C19.4991 10.4502 19.4991 9.88967 19.4991 9.32913C17.0701 9.32913 14.641 9.32913 12.212 9.32913C12.1986 8.36779 12.212 7.40688 12.252 6.44631C12.6187 5.15888 13.4329 4.30472 14.6944 3.88381C20.1264 3.81933 25.545 3.81933 30.9503 3.88381Z" fill="#FEFEFE"/>
<path fill-rule="evenodd" clip-rule="evenodd" d="M30.9503 3.88385C31.1962 3.87326 31.4364 3.89995 31.671 3.96393C30.5421 4.46587 29.8348 5.32004 29.549 6.52643C29.5355 9.04913 29.4955 11.5582 29.4288 14.0538C29.1902 13.842 28.95 13.6285 28.7081 13.4131C28.3595 13.7352 28.0125 14.0555 27.6671 14.3741C27.5739 11.6916 27.5605 8.99572 27.6271 6.28619C28.1623 4.69083 29.27 3.89005 30.9503 3.88385Z" fill="#94DEFE"/>
<path fill-rule="evenodd" clip-rule="evenodd" d="M31.671 3.96387C32.9271 4.29902 33.7145 5.0998 34.0333 6.36621C34.0867 8.68848 34.0867 11.0107 34.0333 13.333C33.6028 13.7904 33.149 14.2175 32.672 14.6143C32.2205 14.2297 31.7801 13.8293 31.3507 13.4131C30.8981 13.8256 30.4577 14.2527 30.0294 14.6943C29.8128 14.4913 29.6126 14.2777 29.4288 14.0537C29.4955 11.5582 29.5355 9.04907 29.549 6.52637C29.8347 5.31998 30.5421 4.46581 31.671 3.96387Z" fill="#AFE5FE"/>
<path fill-rule="evenodd" clip-rule="evenodd" d="M12.212 9.3291C14.641 9.3291 17.0701 9.3291 19.4991 9.3291C19.4991 9.88965 19.4991 10.4502 19.4991 11.0107C17.0701 11.0107 14.641 11.0107 12.212 11.0107C12.212 10.4502 12.212 9.88965 12.212 9.3291Z" fill="#6EE1FF"/>
<path fill-rule="evenodd" clip-rule="evenodd" d="M22.462 9.3291C23.3162 9.3291 24.1703 9.3291 25.0245 9.3291C25.0245 9.88965 25.0245 10.4502 25.0245 11.0107C24.1703 11.0107 23.3162 11.0107 22.462 11.0107C22.462 10.4502 22.462 9.88965 22.462 9.3291Z" fill="#FE6570"/>
<path fill-rule="evenodd" clip-rule="evenodd" d="M12.212 13.8936C14.641 13.8936 17.0701 13.8936 19.4991 13.8936C19.4991 14.4541 19.4991 15.0146 19.4991 15.5752C17.0701 15.5752 14.641 15.5752 12.212 15.5752C12.212 15.0146 12.212 14.4541 12.212 13.8936Z" fill="#6EE1FF"/>
<path fill-rule="evenodd" clip-rule="evenodd" d="M22.462 13.8936C23.3162 13.8936 24.1703 13.8936 25.0245 13.8936C25.0245 14.4541 25.0245 15.0146 25.0245 15.5752C24.1703 15.5752 23.3162 15.5752 22.462 15.5752C22.462 15.0146 22.462 14.4541 22.462 13.8936Z" fill="#FE6670"/>
<path fill-rule="evenodd" clip-rule="evenodd" d="M12.212 18.6182C14.641 18.6182 17.0701 18.6182 19.4991 18.6182C19.4991 19.1787 19.4991 19.7393 19.4991 20.2998C17.0701 20.2998 14.641 20.2998 12.212 20.2998C12.212 19.7393 12.212 19.1787 12.212 18.6182Z" fill="#6EE1FF"/>
<path fill-rule="evenodd" clip-rule="evenodd" d="M22.462 18.6182C23.3162 18.6182 24.1703 18.6182 25.0245 18.6182C25.0245 19.1787 25.0245 19.7393 25.0245 20.2998C24.1703 20.2998 23.3162 20.2998 22.462 20.2998C22.462 19.7393 22.462 19.1787 22.462 18.6182Z" fill="#FE6570"/>
<path fill-rule="evenodd" clip-rule="evenodd" d="M27.5069 24.624C30.1228 24.624 32.7387 24.624 35.3546 24.624C35.3546 25.5315 35.3546 26.4392 35.3546 27.3467C34.367 27.3467 33.3793 27.3467 32.3917 27.3467C32.0263 26.9361 31.8395 26.4557 31.8312 25.9053C26.9464 25.9053 22.0616 25.9053 17.1768 25.9053C17.1465 26.4507 16.9596 26.9312 16.6163 27.3467C16.1773 27.7127 15.6702 27.9263 15.0948 27.9873C15.0948 29.2419 15.0948 30.4964 15.0948 31.751C15.6883 31.7677 16.1955 31.9812 16.6163 32.3916C16.6163 33.2725 16.6163 34.1533 16.6163 35.0342C15.682 35.0342 14.7478 35.0342 13.8135 35.0342C13.8135 33.5127 13.8135 31.9912 13.8135 30.4697C12.0913 30.4962 10.383 30.4695 8.68854 30.3896C10.3968 30.3896 12.1052 30.3896 13.8135 30.3896C13.8135 29.8558 13.8135 29.322 13.8135 28.7881C13.8135 28.4944 13.8135 28.2009 13.8135 27.9072C13.8135 26.8128 13.8135 25.7185 13.8135 24.624C18.378 24.624 22.9425 24.624 27.5069 24.624Z" fill="#3E772B"/>
<path fill-rule="evenodd" clip-rule="evenodd" d="M9.64951 25.2646C9.64951 25.8786 9.64951 26.4925 9.64951 27.1064C8.9811 27.1869 8.72749 27.5606 8.88877 28.2275C8.97862 28.3976 9.09874 28.5444 9.24912 28.6679C10.7652 28.785 12.2867 28.8251 13.8136 28.7881C13.8136 29.3219 13.8136 29.8557 13.8136 30.3896C12.1053 30.3896 10.3969 30.3896 8.68857 30.3896C7.58405 30.1528 6.87669 29.4855 6.5665 28.3877C6.47263 26.2526 7.5003 25.2116 9.64951 25.2646Z" fill="#0491C7"/>
<path fill-rule="evenodd" clip-rule="evenodd" d="M32.3918 27.3467C30.63 27.3467 28.8683 27.3467 27.1066 27.3467C25.9604 26.3112 24.6525 26.0576 23.1828 26.5859C22.7762 26.7667 22.4292 27.0203 22.1417 27.3467C20.2999 27.3467 18.4581 27.3467 16.6163 27.3467C16.9596 26.9312 17.1465 26.4507 17.1769 25.9053C22.0617 25.9053 26.9464 25.9053 31.8312 25.9053C31.8395 26.4557 32.0264 26.9361 32.3918 27.3467Z" fill="#5C903E"/>
<path fill-rule="evenodd" clip-rule="evenodd" d="M27.1066 27.3467C25.4516 27.3467 23.7967 27.3467 22.1417 27.3467C22.4292 27.0203 22.7762 26.7667 23.1827 26.586C24.6525 26.0576 25.9604 26.3112 27.1066 27.3467Z" fill="#3D772A"/>
<path fill-rule="evenodd" clip-rule="evenodd" d="M9.6495 27.1064C9.6495 27.3733 9.6495 27.6403 9.6495 27.9072C10.5037 27.9072 11.3578 27.9072 12.212 27.9072C12.7459 27.9072 13.2797 27.9072 13.8136 27.9072C13.8136 28.2009 13.8136 28.4944 13.8136 28.7881C12.2866 28.8251 10.7652 28.785 9.24911 28.668C9.09872 28.5444 8.9786 28.3976 8.88876 28.2275C8.72748 27.5606 8.98109 27.1869 9.6495 27.1064Z" fill="#0275AB"/>
<path fill-rule="evenodd" clip-rule="evenodd" d="M16.6163 27.3467C16.6163 27.9606 16.6163 28.5745 16.6163 29.1885C16.4027 29.1885 16.1892 29.1885 15.9756 29.1885C15.9756 29.6423 15.9756 30.096 15.9756 30.5498C16.1892 30.5498 16.4027 30.5498 16.6163 30.5498C16.6163 31.1638 16.6163 31.7776 16.6163 32.3916C16.1955 31.9812 15.6883 31.7677 15.0948 31.751C15.0948 30.4964 15.0948 29.2419 15.0948 27.9873C15.6701 27.9263 16.1773 27.7127 16.6163 27.3467Z" fill="#5C903E"/>
<path fill-rule="evenodd" clip-rule="evenodd" d="M16.6163 27.3467C18.4581 27.3467 20.2999 27.3467 22.1417 27.3467C23.7967 27.3467 25.4515 27.3467 27.1065 27.3467C28.8682 27.3467 30.63 27.3467 32.3917 27.3467C33.3793 27.3467 34.367 27.3467 35.3546 27.3467C36.2889 27.3467 37.2231 27.3467 38.1573 27.3467C38.1573 30.8167 38.1573 34.2868 38.1573 37.7568C31.0037 37.7568 23.85 37.7568 16.6964 37.7568C16.7226 36.835 16.696 35.9274 16.6163 35.0342C16.6163 34.1533 16.6163 33.2725 16.6163 32.3916C16.6163 31.7776 16.6163 31.1638 16.6163 30.5498C16.4027 30.5498 16.1892 30.5498 15.9756 30.5498C15.9756 30.096 15.9756 29.6423 15.9756 29.1885C16.1892 29.1885 16.4027 29.1885 16.6163 29.1885C16.6163 28.5745 16.6163 27.9606 16.6163 27.3467Z" fill="#6EAA4F"/>
<path fill-rule="evenodd" clip-rule="evenodd" d="M34.6339 36.4756C29.7319 36.5282 24.8472 36.4748 19.9796 36.3154C19.7384 35.1935 19.0444 34.5797 17.8976 34.4736C17.8976 33.219 17.8976 31.9645 17.8976 30.71C19.1529 30.5757 19.8469 29.8817 19.9796 28.6279C24.8644 28.6279 29.7492 28.6279 34.6339 28.6279C34.8024 29.9976 35.5765 30.6916 36.9562 30.71C36.9562 31.9645 36.9562 33.219 36.9562 34.4736C35.6125 34.4828 34.8385 35.1501 34.6339 36.4756Z" fill="#96D629"/>
<path fill-rule="evenodd" clip-rule="evenodd" d="M26.8663 29.0283C28.9307 28.945 30.2787 29.8792 30.9103 31.831C31.1432 33.999 30.2223 35.4004 28.1476 36.0352C26.5057 36.2751 25.2379 35.7012 24.3439 34.3135C23.5073 32.5216 23.841 30.9868 25.3448 29.709C25.8215 29.3952 26.3287 29.1683 26.8663 29.0283Z" fill="#6EAA4F"/>
<path fill-rule="evenodd" clip-rule="evenodd" d="M27.1867 30.2295C27.3468 30.2295 27.507 30.2295 27.6671 30.2295C27.6671 30.4163 27.6671 30.6032 27.6671 30.79C27.9739 30.7833 28.2676 30.8367 28.548 30.9502C28.548 31.2438 28.548 31.5374 28.548 31.8311C28.3344 31.8311 28.1209 31.8311 27.9074 31.8311C27.9074 31.6709 27.9074 31.5107 27.9074 31.3506C27.8273 31.3506 27.7472 31.3506 27.6671 31.3506C27.6538 31.672 27.6672 31.9923 27.7072 32.3115C28.6589 32.6169 28.8858 33.2041 28.3878 34.0732C28.1958 34.2894 27.9556 34.3962 27.6671 34.3936C27.6671 34.6071 27.6671 34.8206 27.6671 35.0342C27.507 35.0342 27.3468 35.0342 27.1867 35.0342C27.1867 34.8474 27.1867 34.6605 27.1867 34.4736C26.8571 34.4703 26.5367 34.417 26.2257 34.3135C26.2257 33.9932 26.2257 33.6729 26.2257 33.3525C26.4125 33.3525 26.5994 33.3525 26.7863 33.3525C26.7733 33.5149 26.7867 33.675 26.8263 33.833C26.9349 33.9035 27.055 33.9302 27.1867 33.9131C27.1867 33.5394 27.1867 33.1657 27.1867 32.792C26.3012 32.6368 26.021 32.1296 26.3458 31.2705C26.5399 30.9556 26.8202 30.7955 27.1867 30.79C27.1867 30.6032 27.1867 30.4163 27.1867 30.2295Z" fill="#94D42B"/>
<path fill-rule="evenodd" clip-rule="evenodd" d="M11.0909 38.7978C9.35839 40.5665 7.38309 40.8735 5.16509 39.7187C3.34916 38.4091 2.72189 36.6606 3.28325 34.4736C3.48209 33.9153 3.76237 33.4081 4.12407 32.9521C4.85325 32.2132 5.73411 31.7194 6.76665 31.4707C9.48827 31.236 11.2367 32.4238 12.0118 35.0342C12.1936 36.4155 11.8866 37.67 11.0909 38.7978Z" fill="#FAF48A"/>
<path fill-rule="evenodd" clip-rule="evenodd" d="M27.1039 31.3506C27.1938 31.602 27.207 31.8689 27.1433 32.1514C26.8957 31.8958 26.8826 31.6289 27.1039 31.3506Z" fill="#6FAB4F"/>
<path fill-rule="evenodd" clip-rule="evenodd" d="M18.8585 31.9111C20.2198 31.9111 21.5811 31.9111 22.9425 31.9111C22.9425 32.3649 22.9425 32.8187 22.9425 33.2725C21.5811 33.2725 20.2198 33.2725 18.8585 33.2725C18.8585 32.8187 18.8585 32.3649 18.8585 31.9111Z" fill="#8BC727"/>
<path fill-rule="evenodd" clip-rule="evenodd" d="M31.9913 31.9111C33.3527 31.9111 34.714 31.9111 36.0753 31.9111C36.0753 32.3649 36.0753 32.8187 36.0753 33.2725C34.714 33.2725 33.3527 33.2725 31.9913 33.2725C31.9913 32.8187 31.9913 32.3649 31.9913 31.9111Z" fill="#8BC727"/>
<path fill-rule="evenodd" clip-rule="evenodd" d="M11.0909 35.7549C10.6199 34.1106 9.52551 33.1764 7.80767 32.9521C7.80767 33.1657 7.80767 33.3792 7.80767 33.5928C8.16874 33.6096 8.51572 33.6897 8.84868 33.833C8.95543 34.18 8.95543 34.527 8.84868 34.874C8.64176 34.9455 8.42819 34.9722 8.20806 34.9541C8.23312 34.7341 8.20646 34.5205 8.12798 34.3135C8.029 34.2537 7.92222 34.2271 7.80767 34.2334C7.79437 34.6613 7.80772 35.0884 7.84771 35.5146C8.98113 35.8065 9.35486 36.5005 8.9688 37.5967C8.66795 37.9673 8.28093 38.1808 7.80767 38.2373C7.80767 38.4775 7.80767 38.7178 7.80767 38.958C7.64751 38.958 7.48735 38.958 7.3272 38.958C7.34939 38.7219 7.3227 38.4951 7.24712 38.2773C6.83574 38.2713 6.44869 38.1779 6.08598 37.9971C6.04601 37.6243 6.03267 37.2507 6.04595 36.876C6.28618 36.876 6.52641 36.876 6.76665 36.876C6.6303 37.3781 6.81715 37.6184 7.3272 37.5967C7.35353 37.1397 7.32683 36.686 7.24712 36.2353C6.12368 35.9214 5.79002 35.2274 6.24614 34.1533C6.51456 33.8522 6.84821 33.6654 7.24712 33.5928C7.3256 33.3857 7.35229 33.1721 7.3272 32.9521C5.69191 33.1861 4.63754 34.0937 4.16411 35.6748C4.12487 35.5713 4.11152 35.4644 4.12407 35.3545C4.65805 33.1806 6.04607 32.2064 8.28814 32.4316C9.99452 32.8962 10.9288 34.004 11.0909 35.7549Z" fill="#FED33E"/>
<path fill-rule="evenodd" clip-rule="evenodd" d="M11.0909 35.7549C10.9862 37.9952 9.81164 39.2231 7.56745 39.4385C5.16245 39.1169 4.01467 37.7556 4.12409 35.3545C4.11154 35.4644 4.12489 35.5713 4.16412 35.6748C4.63756 34.0937 5.69193 33.1861 7.32722 32.9521C7.35231 33.1721 7.32561 33.3857 7.24714 33.5928C6.84823 33.6654 6.51457 33.8522 6.24616 34.1533C5.79003 35.2274 6.1237 35.9214 7.24714 36.2354C7.32685 36.686 7.35355 37.1398 7.32722 37.5967C6.81717 37.6184 6.63032 37.3781 6.76667 36.876C6.52643 36.876 6.2862 36.876 6.04596 36.876C6.03269 37.2507 6.04603 37.6243 6.086 37.9971C6.44871 38.1779 6.83576 38.2713 7.24714 38.2773C7.32272 38.4951 7.34941 38.7219 7.32722 38.958C7.48737 38.958 7.64753 38.958 7.80769 38.958C7.80769 38.7178 7.80769 38.4775 7.80769 38.2373C8.28095 38.1808 8.66797 37.9673 8.96882 37.5967C9.35488 36.5005 8.98115 35.8065 7.84772 35.5146C7.80773 35.0884 7.79439 34.6613 7.80769 34.2334C7.92224 34.2271 8.02902 34.2537 8.128 34.3135C8.20648 34.5206 8.23314 34.7341 8.20808 34.9541C8.42821 34.9722 8.64178 34.9455 8.8487 34.874C8.95545 34.527 8.95545 34.18 8.8487 33.833C8.51574 33.6897 8.16876 33.6096 7.80769 33.5928C7.80769 33.3792 7.80769 33.1657 7.80769 32.9521C9.52552 33.1764 10.62 34.1106 11.0909 35.7549Z" fill="#FDE359"/>
<path fill-rule="evenodd" clip-rule="evenodd" d="M27.587 33.0322C27.8847 33.1386 27.9772 33.3521 27.8645 33.6729C27.8099 33.7415 27.7438 33.7948 27.6663 33.833C27.588 33.5713 27.5616 33.3043 27.587 33.0322Z" fill="#72AE4C"/>
<path fill-rule="evenodd" clip-rule="evenodd" d="M19.9796 36.3154C24.8472 36.4748 29.7319 36.5282 34.6339 36.4756C29.7627 36.5556 24.8779 36.5822 19.9796 36.5557C19.9796 36.4756 19.9796 36.3955 19.9796 36.3154Z" fill="#88C637"/>
<path opacity="0.635" fill-rule="evenodd" clip-rule="evenodd" d="M38.1574 27.3467C38.2371 28.4536 38.2638 29.5747 38.2375 30.71C38.2375 33.0856 38.2375 35.4612 38.2375 37.8369C35.9419 37.8369 33.6463 37.8369 31.3507 37.8369C26.4524 37.8635 21.5677 37.8368 16.6964 37.7568C23.85 37.7568 31.0038 37.7568 38.1574 37.7568C38.1574 34.2868 38.1574 30.8167 38.1574 27.3467Z" fill="#92BC39"/>
</g>
<defs>
<clipPath id="clip0_348_2421">
<rect width="41.0001" height="41" fill="white"/>
</clipPath>
</defs>
</svg>
