<svg width="249" height="249" viewBox="0 0 249 249" fill="none" xmlns="http://www.w3.org/2000/svg">
<path opacity="0.974" fill-rule="evenodd" clip-rule="evenodd" d="M123.77 30.3945C129.029 30.6152 134.054 31.831 138.846 34.042C160.464 43.6352 182.024 53.3619 203.527 63.2217C205.512 64.5367 207.295 66.0769 208.877 67.8418C197.278 73.2357 185.606 78.5041 173.861 83.6475C172.889 83.9718 171.916 83.9718 170.943 83.6475C143.267 70.6601 115.627 57.6104 88.0245 44.498C87.7371 44.0197 87.8995 43.6956 88.5108 43.5254C96.6685 39.8112 104.855 36.1637 113.07 32.583C116.612 31.3773 120.179 30.6478 123.77 30.3945Z" fill="#C8CFD8"/>
<path opacity="0.969" fill-rule="evenodd" clip-rule="evenodd" d="M68.3282 52.2812C97.0342 65.256 125.566 78.63 153.922 92.4033C146.684 95.7789 139.389 99.0213 132.037 102.13C127.538 103.494 122.999 103.655 118.42 102.616C92.2638 91.5245 66.2453 80.0958 40.3643 68.3301C39.7528 68.1599 39.5907 67.8355 39.878 67.3574C41.5356 65.9213 43.2378 64.543 44.9844 63.2236C52.7949 59.5188 60.5761 55.8713 68.3282 52.2812Z" fill="#C8CFD8"/>
<path opacity="0.993" fill-rule="evenodd" clip-rule="evenodd" d="M31.8535 81.4609C57.5098 92.5818 83.1227 103.848 108.693 115.261C111.229 116.242 113.822 116.971 116.475 117.449C116.556 150.682 116.475 183.914 116.231 217.146C92.4038 206.733 68.6545 196.114 44.9844 185.292C37.4555 180.186 32.8354 173.134 31.124 164.137C30.7998 137.551 30.7998 110.965 31.124 84.3789C31.2774 83.3644 31.5205 82.3918 31.8535 81.4609Z" fill="#C8CFD8"/>
<path opacity="0.991" fill-rule="evenodd" clip-rule="evenodd" d="M215.2 81.4604C215.843 81.3777 216.411 81.5397 216.903 81.9467C217.064 82.7574 217.227 83.5677 217.389 84.3784C217.713 110.964 217.713 137.55 217.389 164.136C215.677 173.134 211.057 180.186 203.529 185.291C179.858 196.114 156.109 206.732 132.281 217.146C132.038 183.914 131.957 150.681 132.038 117.449C134.691 116.971 137.284 116.241 139.82 115.26C147.905 111.566 156.01 107.918 164.136 104.318C164.403 111.478 164.808 118.611 165.352 125.716C168.276 130.916 172.247 131.888 177.267 128.634C178.299 127.685 179.028 126.55 179.455 125.23C179.617 115.99 179.78 106.749 179.942 97.5092C191.76 92.2063 203.513 86.8567 215.2 81.4604Z" fill="#C8CFD8"/>
</svg>
