<svg width="34.000000" height="34.000000" viewBox="0 0 34 34" fill="none" xmlns="http://www.w3.org/2000/svg" xmlns:xlink="http://www.w3.org/1999/xlink">
	<desc>
			Created with Pixso.
	</desc>
	<defs>
		<clipPath id="clip549_2372">
			<rect id="6408debe8f29907cce913c7c_62f57e5c44a9e531596a4346_calendly_brand_mark_color 1" width="34.000000" height="34.000000" fill="white" fill-opacity="0"/>
		</clipPath>
	</defs>
	<rect id="6408debe8f29907cce913c7c_62f57e5c44a9e531596a4346_calendly_brand_mark_color 1" width="34.000000" height="34.000000" fill="#FFFFFF" fill-opacity="0"/>
	<g clip-path="url(#clip549_2372)">
		<g opacity="0.891000">
			<path id="Vector" d="M14.87 -0.05C16.46 -0.05 18.05 -0.05 19.64 -0.05C26.71 1.22 31.48 5.16 33.95 11.77C33.95 12.28 33.95 12.79 33.95 13.3C33.56 13.87 33.04 14.31 32.39 14.62C31.57 15.06 30.71 15.35 29.79 15.51C29.84 15.99 29.89 16.47 29.96 16.95C29.89 17.43 29.84 17.91 29.79 18.4C31.09 18.62 32.28 19.12 33.34 19.89C33.6 20.09 33.8 20.33 33.95 20.61C33.95 21.12 33.95 21.63 33.95 22.14C31.48 28.75 26.71 32.69 19.64 33.95C18.05 33.95 16.46 33.95 14.87 33.95C9.07 32.96 4.72 29.95 1.82 24.94C0.89 23.16 0.27 21.29 -0.05 19.33C-0.05 17.75 -0.05 16.16 -0.05 14.57C0.98 8.89 4.04 4.63 9.15 1.78C10.96 0.87 12.87 0.26 14.87 -0.05ZM29.27 13.55C29.08 13.09 28.86 12.64 28.62 12.19C27.89 10.96 27.14 9.74 26.36 8.54C24.87 6.66 22.92 5.52 20.51 5.1C18.4 4.93 16.29 4.93 14.18 5.1C11.87 5.47 9.97 6.53 8.5 8.28C7.32 10 6.25 11.78 5.29 13.64C4.42 15.85 4.42 18.06 5.29 20.27C6.25 22.12 7.32 23.91 8.5 25.62C9.97 27.37 11.87 28.44 14.18 28.81C16.29 28.98 18.4 28.98 20.51 28.81C22.92 28.39 24.87 27.24 26.36 25.37C27.14 24.16 27.89 22.95 28.62 21.71C28.86 21.27 29.08 20.81 29.27 20.35C30.22 20.56 31.12 20.92 31.96 21.41C29.73 27.48 25.37 30.99 18.86 31.96C12.66 32.29 7.78 29.98 4.25 25.03C1.18 19.64 1.18 14.26 4.25 8.88C7.78 3.92 12.66 1.61 18.86 1.95C25.37 2.91 29.73 6.43 31.96 12.49C31.12 12.99 30.22 13.34 29.27 13.55Z" fill="#EA4B98" fill-opacity="1.000000" fill-rule="evenodd"/>
		</g>
		<g opacity="0.968000">
			<path id="Vector" d="M29.27 13.55C29.27 13.61 29.27 13.67 29.27 13.72C27.41 14.03 25.7 13.67 24.15 12.66C23.14 11.69 22.02 10.88 20.77 10.24C20.58 10.05 20.35 9.97 20.07 9.98C20.06 9.93 20.04 9.89 19.99 9.86C19.76 9.81 19.53 9.8 19.29 9.81C18.08 9.71 16.87 9.71 15.65 9.81C15.25 9.86 14.87 9.97 14.52 10.15C12.81 10.73 11.6 11.83 10.88 13.47C10.76 13.64 10.7 13.84 10.71 14.06C10.63 14.09 10.61 14.15 10.62 14.23C10.5 14.4 10.44 14.6 10.45 14.83C10.35 16.1 10.34 17.38 10.4 18.65C10.49 19.11 10.59 19.57 10.71 20.01C10.73 20.22 10.82 20.39 10.97 20.52C11.74 22.33 13.1 23.46 15.04 23.92C15.22 24.04 15.42 24.1 15.65 24.09C17.14 24.25 18.61 24.2 20.07 23.92C20.44 23.91 20.76 23.79 21.03 23.58C21.44 23.37 21.85 23.12 22.24 22.86C23.03 22.18 23.84 21.52 24.67 20.91C25.15 20.61 25.68 20.43 26.23 20.35C27.24 20.28 28.25 20.25 29.27 20.27C29.27 20.3 29.27 20.32 29.27 20.35C29.08 20.81 28.86 21.27 28.62 21.71C27.89 22.95 27.14 24.16 26.36 25.37C24.87 27.24 22.92 28.39 20.51 28.81C18.4 28.98 16.29 28.98 14.18 28.81C11.87 28.44 9.97 27.37 8.5 25.62C7.32 23.91 6.25 22.12 5.29 20.27C4.42 18.06 4.42 15.85 5.29 13.64C6.25 11.78 7.32 10 8.5 8.28C9.97 6.53 11.87 5.47 14.18 5.1C16.29 4.93 18.4 4.93 20.51 5.1C22.92 5.52 24.87 6.66 26.36 8.54C27.14 9.74 27.89 10.96 28.62 12.19C28.86 12.64 29.08 13.09 29.27 13.55Z" fill="#EA4B98" fill-opacity="1.000000" fill-rule="evenodd"/>
		</g>
		<path id="Vector" d="M19.29 9.81C19.53 9.91 19.79 9.97 20.07 9.98C20.29 10.1 20.52 10.18 20.77 10.24C22.02 10.88 23.14 11.69 24.15 12.66C25.7 13.67 27.41 14.03 29.27 13.72C29.49 14.27 29.64 14.83 29.7 15.42C28.81 15.49 27.91 15.52 27.01 15.51C26.54 15.49 26.08 15.44 25.62 15.34C25.45 15.22 25.25 15.16 25.02 15.17C24.37 14.96 23.76 14.66 23.2 14.27C22.51 13.74 21.84 13.17 21.2 12.58C20.55 12.1 19.83 11.79 19.03 11.64C17.92 11.57 16.82 11.58 15.74 11.68C15.51 11.67 15.3 11.73 15.13 11.85C12.96 12.81 12 14.47 12.27 16.83C12.01 18.7 12.59 20.25 14 21.5C14.36 21.73 14.73 21.91 15.13 22.05C15.3 22.17 15.51 22.23 15.74 22.22C16.82 22.32 17.92 22.34 19.03 22.27C19.69 22.16 20.29 21.93 20.85 21.58C21.76 20.76 22.72 19.99 23.72 19.29C24.1 19.06 24.5 18.91 24.93 18.82C25.18 18.77 25.41 18.68 25.62 18.57C26.08 18.47 26.54 18.41 27.01 18.4C27.91 18.38 28.81 18.41 29.7 18.48C29.58 19.06 29.44 19.62 29.27 20.18C28.34 20.17 27.42 20.18 26.49 20.23C26.39 20.24 26.3 20.29 26.23 20.35C25.67 20.43 25.15 20.61 24.67 20.9C23.84 21.52 23.03 22.18 22.24 22.86C21.85 23.12 21.44 23.37 21.03 23.58C20.69 23.66 20.37 23.78 20.07 23.92C18.61 24.2 17.14 24.25 15.65 24.09C15.48 23.97 15.27 23.91 15.04 23.92C13.1 23.46 11.74 22.33 10.97 20.52C10.94 20.31 10.86 20.14 10.71 20.01C10.59 19.56 10.49 19.11 10.4 18.65C10.34 17.38 10.35 16.1 10.45 14.83C10.57 14.66 10.63 14.46 10.62 14.23C10.6 14.15 10.63 14.09 10.71 14.06C10.83 13.89 10.89 13.69 10.88 13.47C11.6 11.83 12.81 10.73 14.52 10.15C14.93 10.1 15.3 9.99 15.65 9.81C16.87 9.71 18.08 9.71 19.29 9.81Z" fill="#FFFFFF" fill-opacity="1.000000" fill-rule="evenodd"/>
		<path id="Vector" d="M19.29 9.81C19.53 9.8 19.76 9.81 19.99 9.86C20.04 9.89 20.06 9.93 20.07 9.98C19.79 9.97 19.53 9.91 19.29 9.81Z" fill="#148FFA" fill-opacity="1.000000" fill-rule="evenodd"/>
		<g opacity="0.996000">
			<path id="Vector" d="M20.07 9.98C20.35 9.97 20.58 10.05 20.77 10.24C20.52 10.18 20.29 10.1 20.07 9.98Z" fill="#129EF8" fill-opacity="1.000000" fill-rule="evenodd"/>
		</g>
		<path id="Vector" d="M15.65 9.81C15.3 9.99 14.93 10.1 14.52 10.15C14.87 9.97 15.25 9.86 15.65 9.81Z" fill="#16C9F3" fill-opacity="1.000000" fill-rule="evenodd"/>
		<path id="Vector" d="M15.74 11.68C15.56 11.8 15.36 11.86 15.13 11.85C15.31 11.73 15.51 11.68 15.74 11.68Z" fill="#1192FA" fill-opacity="1.000000" fill-rule="evenodd"/>
		<g opacity="0.996000">
			<path id="Vector" d="M10.88 13.47C10.89 13.69 10.83 13.89 10.71 14.06C10.7 13.84 10.76 13.64 10.88 13.47Z" fill="#14BBF5" fill-opacity="1.000000" fill-rule="evenodd"/>
		</g>
		<g opacity="0.996000">
			<path id="Vector" d="M10.62 14.23C10.63 14.46 10.57 14.66 10.45 14.83C10.44 14.6 10.5 14.4 10.62 14.23Z" fill="#0D99F8" fill-opacity="1.000000" fill-rule="evenodd"/>
		</g>
		<g opacity="0.996000">
			<path id="Vector" d="M25.02 15.17C25.25 15.16 25.45 15.22 25.63 15.34C25.4 15.35 25.19 15.29 25.02 15.17Z" fill="#11A6F7" fill-opacity="1.000000" fill-rule="evenodd"/>
		</g>
		<g opacity="0.996000">
			<path id="Vector" d="M29.7 15.42C29.64 15.49 29.55 15.53 29.44 15.55C28.62 15.62 27.81 15.61 27.01 15.51C27.91 15.52 28.81 15.49 29.7 15.42Z" fill="#13A0F8" fill-opacity="1.000000" fill-rule="evenodd"/>
		</g>
		<g opacity="0.985000">
			<path id="Vector" d="M27.01 18.4C27.81 18.3 28.62 18.29 29.44 18.36C29.55 18.37 29.64 18.42 29.7 18.48C28.81 18.41 27.91 18.38 27.01 18.4Z" fill="#10AFF6" fill-opacity="1.000000" fill-rule="evenodd"/>
		</g>
		<g opacity="0.996000">
			<path id="Vector" d="M25.63 18.57C25.41 18.68 25.18 18.77 24.93 18.82C25.11 18.64 25.35 18.55 25.63 18.57Z" fill="#11ADF6" fill-opacity="1.000000" fill-rule="evenodd"/>
		</g>
		<g opacity="0.996000">
			<path id="Vector" d="M10.71 20.01C10.86 20.14 10.94 20.31 10.97 20.52C10.82 20.39 10.73 20.22 10.71 20.01Z" fill="#14B2F6" fill-opacity="1.000000" fill-rule="evenodd"/>
		</g>
		<path id="Vector" d="M29.27 20.18C29.27 20.21 29.27 20.24 29.27 20.27C28.25 20.25 27.24 20.27 26.23 20.35C26.3 20.29 26.39 20.24 26.49 20.23C27.42 20.18 28.34 20.17 29.27 20.18Z" fill="#0D87FB" fill-opacity="1.000000" fill-rule="evenodd"/>
		<path id="Vector" d="M15.13 22.05C15.36 22.04 15.56 22.1 15.74 22.22C15.51 22.23 15.31 22.17 15.13 22.05Z" fill="#1295F9" fill-opacity="1.000000" fill-rule="evenodd"/>
		<path id="Vector" d="M21.03 23.58C20.76 23.79 20.44 23.91 20.07 23.92C20.37 23.78 20.69 23.66 21.03 23.58Z" fill="#1397F9" fill-opacity="1.000000" fill-rule="evenodd"/>
		<g opacity="0.996000">
			<path id="Vector" d="M15.04 23.92C15.27 23.91 15.48 23.97 15.65 24.09C15.42 24.1 15.22 24.04 15.04 23.92Z" fill="#11A8F7" fill-opacity="1.000000" fill-rule="evenodd"/>
		</g>
	</g>
</svg>
