<svg width="50" height="50" viewBox="0 0 50 50" fill="none" xmlns="http://www.w3.org/2000/svg">
<g clip-path="url(#clip0_732_558)">
<path opacity="0.977" fill-rule="evenodd" clip-rule="evenodd" d="M9.22852 -0.0488281C12.2233 -0.0488281 15.2181 -0.0488281 18.2129 -0.0488281C18.4058 0.0631231 18.5522 0.225884 18.6523 0.439453C18.7175 3.69466 18.7175 6.94987 18.6523 10.2051C18.571 10.4167 18.4245 10.5632 18.2129 10.6445C15.2181 10.7097 12.2233 10.7097 9.22852 10.6445C8.46355 10.0098 7.76367 9.30989 7.12891 8.54492C7.0638 6.39648 7.0638 4.24805 7.12891 2.09961C7.78309 1.33158 8.48296 0.615437 9.22852 -0.0488281ZM10.2051 1.80664C11.1171 1.79038 12.0286 1.80666 12.9395 1.85547C13.4702 2.02826 13.8445 2.37006 14.0625 2.88086C14.2189 4.37293 14.2515 5.87033 14.1602 7.37305C14.0014 7.955 13.6596 8.39445 13.1348 8.69141C12.198 8.84636 11.2541 8.87892 10.3027 8.78906C9.72999 8.64151 9.32309 8.29972 9.08203 7.76367C8.92376 6.20774 8.89121 4.64524 8.98438 3.07617C9.21672 2.46974 9.62363 2.04655 10.2051 1.80664Z" fill="#EA4B98"/>
<path opacity="0.958" fill-rule="evenodd" clip-rule="evenodd" d="M20.459 1.70919C20.9483 1.69299 21.4366 1.70926 21.9238 1.75802C22.3764 2.11271 22.7995 2.50334 23.1934 2.92989C23.5151 3.16759 23.8732 3.33035 24.2676 3.41817C29.6712 3.45072 35.0749 3.48328 40.4785 3.51583C41.2812 4.09551 42.0624 4.69772 42.8223 5.32247C42.0573 5.94035 41.2761 6.54257 40.4785 7.12911C39.8601 7.19422 39.2415 7.19422 38.623 7.12911C38.2649 6.77103 37.9069 6.41297 37.5488 6.05489C36.9485 5.64544 36.3301 5.61288 35.6934 5.95723C35.2408 6.31193 34.8177 6.70256 34.4238 7.12911C33.7402 7.19422 33.0566 7.19422 32.373 7.12911C32.0149 6.77103 31.6569 6.41297 31.2988 6.05489C30.6985 5.64544 30.0801 5.61288 29.4434 5.95723C28.9908 6.31193 28.5677 6.70256 28.1738 7.12911C26.8392 7.16166 25.5046 7.19422 24.1699 7.22676C23.383 7.52434 22.7319 8.01262 22.2168 8.69161C21.6564 8.91569 21.0705 8.99708 20.459 8.93575C20.459 6.52689 20.459 4.11804 20.459 1.70919Z" fill="#EA4B98"/>
<path opacity="0.991" fill-rule="evenodd" clip-rule="evenodd" d="M10.1074 15.967C20.1377 15.9191 30.1638 15.9679 40.1855 16.1135C41.0359 16.3518 41.6056 16.8889 41.8945 17.7248C42.6824 20.1047 43.48 22.4811 44.2871 24.8538C31.3965 24.9839 18.5059 24.9839 5.61523 24.8538C6.46226 22.2638 7.35744 19.6922 8.30078 17.1389C8.75504 16.5134 9.35725 16.1228 10.1074 15.967Z" fill="#EA4B98"/>
<path opacity="0.936" fill-rule="evenodd" clip-rule="evenodd" d="M-0.0488281 24.4629C-0.0488281 24.1699 -0.0488281 23.877 -0.0488281 23.584C0.139972 23.3793 0.367836 23.2328 0.634766 23.1446C1.38347 23.0794 2.13216 23.0794 2.88086 23.1446C3.1819 23.2213 3.3935 23.4003 3.51562 23.6817C3.56436 24.1036 3.58063 24.5268 3.56445 24.9512C2.52228 24.9675 1.48062 24.9512 0.439453 24.9024C0.225884 24.8023 0.0631231 24.6558 -0.0488281 24.4629Z" fill="#EA4B98"/>
<path opacity="0.936" fill-rule="evenodd" clip-rule="evenodd" d="M49.9511 23.584C49.9511 23.877 49.9511 24.1699 49.9511 24.4629C49.8392 24.6558 49.6764 24.8023 49.4628 24.9024C48.4217 24.9512 47.38 24.9675 46.3378 24.9512C46.3216 24.5268 46.3379 24.1036 46.3867 23.6817C46.5088 23.4003 46.7204 23.2213 47.0214 23.1446C47.7702 23.0794 48.5188 23.0794 49.2675 23.1446C49.5344 23.2328 49.7624 23.3793 49.9511 23.584Z" fill="#EA4B98"/>
<path opacity="0.971" fill-rule="evenodd" clip-rule="evenodd" d="M49.9512 31.4942C49.9512 35.6934 49.9512 39.8926 49.9512 44.0918C49.7864 44.4021 49.526 44.5811 49.1699 44.6289C33.0241 44.6941 16.8782 44.6941 0.732422 44.6289C0.376358 44.5811 0.115942 44.4021 -0.0488281 44.0918C-0.0488281 39.8926 -0.0488281 35.6934 -0.0488281 31.4942C1.49131 29.9051 3.05381 28.3264 4.63867 26.7578C18.1804 26.6927 31.722 26.6927 45.2637 26.7578C46.8485 28.3264 48.411 29.9051 49.9512 31.4942ZM2.97852 32.1778C4.70408 32.1615 6.42935 32.1778 8.1543 32.2266C9.55294 33.179 10.8713 34.2369 12.1094 35.4004C12.7156 36.9055 12.2437 37.8658 10.6934 38.2813C8.25195 38.3464 5.81055 38.3464 3.36914 38.2813C2.61195 38.1875 2.10739 37.7806 1.85547 37.0606C1.79036 35.8562 1.79036 34.6517 1.85547 33.4473C2.07744 32.8838 2.45179 32.4607 2.97852 32.1778ZM14.6973 32.1778C21.5333 32.1615 28.3692 32.1778 35.2051 32.2266C36.414 32.8251 36.7558 33.7529 36.2305 35.0098C35.0299 36.1784 33.7441 37.2364 32.373 38.1836C27.5915 38.3441 22.8063 38.3766 18.0176 38.2813C17.5323 38.2176 17.1092 38.0223 16.748 37.6953C15.9668 37.0443 15.1855 36.3933 14.4043 35.7422C13.2642 34.8218 13.134 33.7801 14.0137 32.6172C14.2479 32.4684 14.4757 32.3219 14.6973 32.1778ZM41.748 32.1778C43.4736 32.1615 45.1988 32.1778 46.9238 32.2266C47.4695 32.4791 47.8438 32.8861 48.0469 33.4473C48.112 34.6192 48.112 35.791 48.0469 36.9629C47.8457 37.7499 47.3412 38.1894 46.5332 38.2813C44.0918 38.3464 41.6504 38.3464 39.209 38.2813C37.7933 37.9059 37.2887 37.0107 37.6953 35.5957C38.9277 34.3058 40.2786 33.1664 41.748 32.1778ZM3.27148 41.0645C5.51781 41.0482 7.76391 41.0645 10.0098 41.1133C10.5828 41.4102 10.7293 41.8496 10.4492 42.4317C10.361 42.5489 10.2472 42.6304 10.1074 42.6758C7.79622 42.7409 5.48503 42.7409 3.17383 42.6758C2.50561 42.0949 2.53815 41.5578 3.27148 41.0645ZM16.6504 41.0645C22.1844 41.0482 27.7182 41.0645 33.252 41.1133C33.9903 41.5845 34.0229 42.1054 33.3496 42.6758C27.7507 42.7409 22.1517 42.7409 16.5527 42.6758C15.8858 42.0902 15.9184 41.5531 16.6504 41.0645ZM39.8926 41.0645C42.1389 41.0482 44.385 41.0645 46.6309 41.1133C47.3705 41.5893 47.4031 42.1102 46.7285 42.6758C44.4173 42.7409 42.1062 42.7409 39.7949 42.6758C39.3032 42.3816 39.1893 41.9746 39.4531 41.4551C39.5896 41.3018 39.736 41.1715 39.8926 41.0645Z" fill="#EA4B98"/>
<path opacity="0.959" fill-rule="evenodd" clip-rule="evenodd" d="M3.4668 33.8381C4.89946 33.8218 6.33175 33.8381 7.76367 33.887C8.62466 34.6265 9.50356 35.3426 10.4004 36.0354C10.6062 36.1589 10.7038 36.3379 10.6934 36.5725C8.2845 36.5725 5.87565 36.5725 3.4668 36.5725C3.4668 35.6611 3.4668 34.7496 3.4668 33.8381Z" fill="#EA4B98"/>
<path opacity="0.968" fill-rule="evenodd" clip-rule="evenodd" d="M15.0879 33.8379C21.6634 33.8379 28.239 33.8379 34.8145 33.8379C34.7568 34.142 34.594 34.3861 34.3262 34.5703C33.545 35.2214 32.7637 35.8724 31.9825 36.5234C27.295 36.5886 22.6075 36.5886 17.92 36.5234C16.9922 35.7259 16.0645 34.9284 15.1368 34.1309C15.0896 34.0383 15.0734 33.9406 15.0879 33.8379Z" fill="#EA4B98"/>
<path opacity="0.957" fill-rule="evenodd" clip-rule="evenodd" d="M42.1387 33.8379C43.571 33.8379 45.0032 33.8379 46.4356 33.8379C46.4356 34.7493 46.4356 35.6608 46.4356 36.5723C44.0267 36.5723 41.6179 36.5723 39.209 36.5723C39.1986 36.3376 39.2962 36.1586 39.502 36.0352C40.4239 35.3475 41.3028 34.615 42.1387 33.8379Z" fill="#EA4B98"/>
<path opacity="0.977" fill-rule="evenodd" clip-rule="evenodd" d="M9.32616 49.9512C6.94986 49.9512 4.57355 49.9512 2.19726 49.9512C2.00438 49.8393 1.8579 49.6765 1.7578 49.4629C1.70899 48.4218 1.69271 47.3801 1.70897 46.3379C4.4108 46.3379 7.11262 46.3379 9.81444 46.3379C9.83065 47.3476 9.81444 48.3566 9.76562 49.3652C9.66998 49.6063 9.5235 49.8016 9.32616 49.9512Z" fill="#EA4B98"/>
<path opacity="0.977" fill-rule="evenodd" clip-rule="evenodd" d="M47.7051 49.9512C45.3288 49.9512 42.9524 49.9512 40.5761 49.9512C40.3788 49.8016 40.2323 49.6063 40.1367 49.3652C40.0879 48.3566 40.0717 47.3476 40.0879 46.3379C42.7897 46.3379 45.4915 46.3379 48.1933 46.3379C48.2096 47.3801 48.1933 48.4218 48.1445 49.4629C48.0444 49.6765 47.8979 49.8393 47.7051 49.9512Z" fill="#EA4B98"/>
</g>
<defs>
<clipPath id="clip0_732_558">
<rect width="50" height="50" fill="white"/>
</clipPath>
</defs>
</svg>
