<svg width="50" height="50" viewBox="0 0 50 50" fill="none" xmlns="http://www.w3.org/2000/svg">
<path opacity="0.987" fill-rule="evenodd" clip-rule="evenodd" d="M28.6621 2.49048C33.838 2.4742 39.0138 2.49048 44.1895 2.53931C45.9636 2.8811 47.0215 3.93904 47.3633 5.71314C47.4284 8.57772 47.4284 11.4423 47.3633 14.3069C47.0327 16.0372 46.0073 17.0952 44.2871 17.4807C42.4642 17.5132 40.6413 17.5459 38.8184 17.5784C37.8093 18.5875 36.8001 19.5966 35.791 20.6057C35.0423 21.1917 34.2937 21.1917 33.5449 20.6057C32.5359 19.5966 31.5267 18.5875 30.5176 17.5784C29.1304 17.7466 27.8609 17.4537 26.709 16.6995C26.0967 16.1196 25.6898 15.4197 25.4883 14.5999C25.4232 11.5725 25.4232 8.54517 25.4883 5.51782C25.9321 3.85312 26.9901 2.84401 28.6621 2.49048Z" fill="#EA4B98"/>
<path opacity="0.988" fill-rule="evenodd" clip-rule="evenodd" d="M5.51759 12.939C7.90701 12.7759 9.35559 13.8501 9.86329 16.1616C9.97198 17.8652 9.28838 19.1348 7.81251 19.9702C7.76368 22.8346 7.74741 25.6992 7.76368 28.564C8.0892 28.564 8.41473 28.564 8.74025 28.564C8.63548 27.4191 8.78196 26.3123 9.1797 25.2437C9.75008 24.3474 10.5476 23.7451 11.5723 23.437C15.332 23.4207 19.0918 23.4045 22.8516 23.3882C26.7459 23.3731 30.6359 23.4219 34.5215 23.5347C35.8079 24.04 36.6055 24.9678 36.9141 26.3179C36.9629 27.0658 36.9791 27.8146 36.9629 28.564C39.2518 28.4946 40.6353 29.5689 41.1133 31.7866C41.1784 34.521 41.1784 37.2554 41.1133 39.9898C40.6324 42.2108 39.249 43.2851 36.9629 43.2124C37.0356 45.4985 35.9613 46.8819 33.7402 47.3628C30.1107 47.3791 26.4812 47.3953 22.8516 47.4116C19.0556 47.4265 15.2633 47.3776 11.4746 47.2651C9.58018 46.5894 8.66871 45.2384 8.74025 43.2124C6.6675 43.2916 5.31658 42.3477 4.68751 40.3804C4.65496 33.577 4.6224 26.7736 4.58986 19.9702C2.78232 18.8923 2.16383 17.3298 2.73439 15.2827C3.29192 14.0575 4.21965 13.2763 5.51759 12.939ZM17.334 29.1499C19.3924 29.3606 20.0598 30.4348 19.3359 32.3726C18.2278 33.5441 17.121 33.5441 16.0156 32.3726C15.283 30.8096 15.7225 29.7354 17.334 29.1499ZM27.7832 29.1499C29.5165 29.2656 30.2489 30.1771 29.9805 31.8843C29.183 33.3003 28.0925 33.577 26.709 32.7144C25.8692 31.7934 25.8203 30.8331 26.5625 29.8335C26.9276 29.5131 27.3345 29.2852 27.7832 29.1499ZM17.2363 35.8882C17.5311 35.8721 17.824 35.8884 18.1152 35.937C18.671 36.2801 19.1918 36.6707 19.6777 37.1089C22.4258 38.5767 24.9322 38.2511 27.1973 36.1323C28.2028 35.6538 28.9678 35.898 29.4922 36.8648C29.5694 37.297 29.5368 37.7201 29.3945 38.1343C26.715 40.8672 23.5412 41.6647 19.8731 40.5269C18.5279 40.0419 17.3724 39.277 16.4063 38.2319C15.9416 37.1775 16.2183 36.3963 17.2363 35.8882Z" fill="#EA4B98"/>
</svg>
