<svg width="50" height="50" viewBox="0 0 50 50" fill="none" xmlns="http://www.w3.org/2000/svg">
<path opacity="0.987" fill-rule="evenodd" clip-rule="evenodd" d="M28.6602 2.48999C33.8361 2.47371 39.0118 2.48999 44.1875 2.53882C45.9616 2.88062 47.0196 3.93856 47.3614 5.71265C47.4265 8.57723 47.4265 11.4418 47.3614 14.3064C47.0308 16.0367 46.0054 17.0947 44.2852 17.4802C42.4622 17.5127 40.6394 17.5454 38.8164 17.5779C37.8073 18.587 36.7982 19.5961 35.7891 20.6052C35.0404 21.1912 34.2917 21.1912 33.543 20.6052C32.5339 19.5961 31.5247 18.587 30.5156 17.5779C29.1284 17.7461 27.8589 17.4532 26.7071 16.699C26.0948 16.1191 25.6878 15.4192 25.4864 14.5994C25.4212 11.572 25.4212 8.54468 25.4864 5.51734C25.9301 3.85263 26.9881 2.84352 28.6602 2.48999Z" fill="#EA4B98"/>
<path opacity="0.988" fill-rule="evenodd" clip-rule="evenodd" d="M5.51588 12.9395C7.9053 12.7764 9.35388 13.8506 9.86158 16.1621C9.97027 17.8657 9.28667 19.1353 7.8108 19.9707C7.76197 22.8351 7.7457 25.6997 7.76197 28.5645C8.08749 28.5645 8.41302 28.5645 8.73854 28.5645C8.63377 27.4196 8.78026 26.3128 9.17799 25.2441C9.74837 24.3479 10.5459 23.7456 11.5706 23.4375C15.3303 23.4212 19.0901 23.405 22.8499 23.3887C26.7442 23.3735 30.6342 23.4224 34.5198 23.5352C35.8062 24.0405 36.6038 24.9683 36.9124 26.3184C36.9612 27.0663 36.9774 27.815 36.9612 28.5645C39.2501 28.4951 40.6336 29.5693 41.1116 31.7871C41.1767 34.5215 41.1767 37.2559 41.1116 39.9902C40.6307 42.2113 39.2473 43.2856 36.9612 43.2129C37.0338 45.499 35.9596 46.8824 33.7385 47.3633C30.1089 47.3796 26.4795 47.3958 22.8499 47.4121C19.0539 47.427 15.2616 47.3781 11.4729 47.2656C9.57847 46.5899 8.667 45.2389 8.73854 43.2129C6.66579 43.2921 5.31487 42.3482 4.6858 40.3809C4.65325 33.5775 4.6207 26.7741 4.58815 19.9707C2.78061 18.8928 2.16212 17.3303 2.73268 15.2832C3.29021 14.058 4.21794 13.2768 5.51588 12.9395ZM17.3323 29.1504C19.3907 29.361 20.0581 30.4353 19.3342 32.3731C18.2261 33.5446 17.1193 33.5446 16.0139 32.3731C15.2813 30.8101 15.7208 29.7358 17.3323 29.1504ZM27.7815 29.1504C29.5148 29.2661 30.2472 30.1775 29.9788 31.8848C29.1813 33.3008 28.0908 33.5774 26.7073 32.7149C25.8674 31.7939 25.8186 30.8336 26.5608 29.834C26.9259 29.5136 27.3328 29.2857 27.7815 29.1504ZM17.2346 35.8887C17.5294 35.8726 17.8223 35.8889 18.1135 35.9375C18.6693 36.2806 19.1901 36.6712 19.676 37.1094C22.4241 38.5772 24.9305 38.2516 27.1956 36.1328C28.2011 35.6543 28.9661 35.8984 29.4905 36.8652C29.5677 37.2975 29.5351 37.7206 29.3928 38.1348C26.7133 40.8677 23.5395 41.6651 19.8713 40.5274C18.5262 40.0424 17.3707 39.2775 16.4046 38.2324C15.9399 37.178 16.2166 36.3968 17.2346 35.8887Z" fill="#EA4B98"/>
</svg>
