<svg width="40.000000" height="40.000000" viewBox="0 0 40 40" fill="none" xmlns="http://www.w3.org/2000/svg" xmlns:xlink="http://www.w3.org/1999/xlink">
	<desc>
			Created with Pixso.
	</desc>
	<defs>
		<clipPath id="clip560_415">
			<rect id="chat-bubble_13446658 1" width="40.000000" height="40.000000" fill="white" fill-opacity="0"/>
		</clipPath>
	</defs>
	<rect id="chat-bubble_13446658 1" width="40.000000" height="40.000000" fill="#FFFFFF" fill-opacity="0"/>
	<g clip-path="url(#clip560_415)">
		<g opacity="0.998000">
			<path id="Vector" d="M39.96 5.27C39.96 11.86 39.96 18.45 39.96 25.03C39.68 25.72 39.18 26.17 38.47 26.4C37.2 26.44 35.92 26.45 34.64 26.44C34.58 21.14 34.54 15.83 34.53 10.5C34.23 9.71 33.67 9.23 32.85 9.06C23.65 9.02 14.46 9.01 5.27 9.02C5.23 7.74 5.27 6.46 5.39 5.19C5.61 4.52 6.07 4.09 6.75 3.9C17.35 3.85 27.95 3.85 38.55 3.9C39.22 4.16 39.68 4.62 39.96 5.27Z" fill="#EA4B98" fill-opacity="1.000000" fill-rule="evenodd"/>
		</g>
		<g opacity="0.997000">
			<path id="Vector" d="M5.27 9.02C14.46 9.01 23.65 9.02 32.85 9.06C33.67 9.23 34.23 9.71 34.53 10.5C34.54 15.83 34.58 21.14 34.64 26.44C34.68 27.72 34.64 29 34.53 30.27C34.3 30.91 33.88 31.34 33.24 31.56C26.7 31.67 20.17 31.71 13.63 31.67C13.2 33.09 12.74 34.49 12.26 35.89C12.04 36.05 11.79 36.09 11.52 36.01C9.32 34.56 7.1 33.13 4.88 31.71C3.68 31.71 2.48 31.66 1.28 31.56C0.61 31.31 0.17 30.86 -0.04 30.19C-0.04 23.63 -0.04 17.07 -0.04 10.5C0.16 9.87 0.58 9.41 1.21 9.14C2.56 9.02 3.91 8.98 5.27 9.02Z" fill="#A250DD" fill-opacity="1.000000" fill-rule="evenodd"/>
		</g>
		<path id="Vector" d="M5.35 14.8C13.32 14.79 21.28 14.8 29.25 14.84C29.41 15.03 29.45 15.26 29.37 15.5C29.3 15.6 29.21 15.66 29.1 15.7C21.21 15.75 13.32 15.75 5.42 15.7C5.05 15.43 5.02 15.13 5.35 14.8Z" fill="#F9FCFF" fill-opacity="1.000000" fill-rule="evenodd"/>
		<path id="Vector" d="M5.35 19.88C13.29 19.86 21.23 19.88 29.17 19.92C29.36 19.98 29.44 20.11 29.41 20.31C29.43 20.55 29.33 20.7 29.1 20.78C21.21 20.83 13.32 20.83 5.42 20.78C5.05 20.51 5.02 20.21 5.35 19.88Z" fill="#FBFDFF" fill-opacity="1.000000" fill-rule="evenodd"/>
		<path id="Vector" d="M5.35 24.96C13.29 24.94 21.23 24.96 29.17 25C29.49 25.28 29.49 25.57 29.17 25.85C21.23 25.91 13.29 25.91 5.35 25.85C5.04 25.56 5.04 25.26 5.35 24.96Z" fill="#FEFEFF" fill-opacity="1.000000" fill-rule="evenodd"/>
	</g>
</svg>
