<svg width="25" height="25" viewBox="0 0 25 25" fill="none" xmlns="http://www.w3.org/2000/svg">
<g clip-path="url(#clip0_2603_3609)">
<path opacity="0.996" fill-rule="evenodd" clip-rule="evenodd" d="M14.1855 1.34267C11.3885 4.05837 8.62153 6.80903 5.88477 9.59462C4.90801 9.32216 4.2163 9.64765 3.80957 10.5712C3.66194 11.2104 3.81656 11.7639 4.27344 12.2313C4.23736 12.2249 4.2048 12.2331 4.17578 12.2558C2.99407 13.4456 1.80592 14.6256 0.611328 15.7958C0.583408 15.2073 0.526441 14.6214 0.44043 14.038C0.281148 13.1852 0.126526 12.3389 -0.0234375 11.4989C-0.0234375 10.8479 -0.0234375 10.1968 -0.0234375 9.5458C0.481595 5.6475 2.5161 2.87243 6.08008 1.2206C8.80513 0.119649 11.5069 0.160339 14.1855 1.34267Z" fill="#61E0FB"/>
<path opacity="0.999" fill-rule="evenodd" clip-rule="evenodd" d="M14.1836 1.34277C14.427 1.43191 14.6548 1.54584 14.8672 1.68457C14.8158 1.67727 14.767 1.68541 14.7207 1.70898C11.9602 4.46132 9.20957 7.22012 6.46875 9.98535C6.28672 9.83599 6.09141 9.70576 5.88281 9.59473C8.61958 6.80913 11.3865 4.05847 14.1836 1.34277Z" fill="#5FDFFA"/>
<path opacity="0.999" fill-rule="evenodd" clip-rule="evenodd" d="M14.8672 1.68472C15.1667 1.80998 15.4433 1.97274 15.6973 2.173C12.8791 5.03999 10.0308 7.87202 7.15234 10.6691C6.99136 10.5326 6.83672 10.3861 6.68848 10.2296C6.66899 10.2408 6.66089 10.2571 6.66406 10.2785C6.58145 10.1952 6.51636 10.0976 6.46875 9.9855C9.20957 7.22026 11.9602 4.46147 14.7207 1.70913C14.767 1.68556 14.8158 1.67742 14.8672 1.68472Z" fill="#5ADCFA"/>
<path opacity="0.999" fill-rule="evenodd" clip-rule="evenodd" d="M15.6973 2.17285C16.0425 2.41033 16.3681 2.67075 16.6738 2.9541C14.4562 5.09844 12.259 7.27129 10.082 9.47266C10.1268 9.48623 10.1593 9.51064 10.1797 9.5459C9.21284 9.35088 8.55366 9.70894 8.20215 10.6201C8.14585 11.0233 8.18657 11.414 8.32422 11.792C8.08291 11.6161 7.85508 11.4208 7.64062 11.2061C7.47788 11.027 7.31509 10.848 7.15234 10.6689C10.0308 7.87187 12.8791 5.03984 15.6973 2.17285Z" fill="#55D8F9"/>
<path opacity="0.999" fill-rule="evenodd" clip-rule="evenodd" d="M16.6738 2.9541C17.0156 3.19824 17.3086 3.49121 17.5527 3.83301C15.4043 5.96519 13.2559 8.09731 11.1074 10.2295C11.0907 10.1886 11.0582 10.1723 11.0098 10.1807C10.7947 9.88623 10.5181 9.67466 10.1797 9.5459C10.1593 9.51064 10.1268 9.48623 10.082 9.47266C12.259 7.27129 14.4563 5.09844 16.6738 2.9541Z" fill="#4DD3F9"/>
<path opacity="0.998" fill-rule="evenodd" clip-rule="evenodd" d="M17.5547 3.83301C17.8018 4.06391 18.0134 4.32433 18.1895 4.61426C16.0834 6.6959 13.9838 8.78735 11.8906 10.8887C11.8616 10.9113 11.8291 10.9195 11.793 10.9131C11.5488 10.7015 11.3209 10.4736 11.1094 10.2295C13.2578 8.09731 15.4062 5.96519 17.5547 3.83301Z" fill="#47D0F9"/>
<path opacity="0.998" fill-rule="evenodd" clip-rule="evenodd" d="M18.1895 4.61426C18.4587 4.91699 18.6703 5.25879 18.8242 5.63965C17.5157 6.97261 16.1974 8.29907 14.8691 9.61914C14.8963 9.63784 14.9125 9.66226 14.918 9.69238C13.8979 9.26284 13.1411 9.53955 12.6475 10.5225C12.5147 11.0208 12.5717 11.4928 12.8184 11.9385C12.6393 11.7757 12.4603 11.6129 12.2812 11.4502C12.1185 11.2711 11.9557 11.0921 11.793 10.9131C11.8291 10.9195 11.8616 10.9113 11.8906 10.8887C13.9838 8.78735 16.0834 6.6959 18.1895 4.61426Z" fill="#43CCF8"/>
<path opacity="0.997" fill-rule="evenodd" clip-rule="evenodd" d="M18.8223 5.63965C19.0033 5.87144 19.1335 6.13188 19.2129 6.4209C17.942 7.67549 16.6725 8.92876 15.4043 10.1807C15.2578 10.0016 15.0951 9.83887 14.916 9.69238C14.9106 9.66226 14.8943 9.63784 14.8672 9.61914C16.1954 8.29907 17.5138 6.97261 18.8223 5.63965Z" fill="#3CC8F8"/>
<path opacity="0.996" fill-rule="evenodd" clip-rule="evenodd" d="M19.2148 6.4209C19.5129 7.02207 19.7245 7.65684 19.8496 8.3252C19.8195 8.31978 19.7951 8.30352 19.7764 8.27637C18.7468 9.33037 17.697 10.3558 16.627 11.3525C16.2706 11.0207 15.9207 10.6789 15.5771 10.3271C15.5545 10.3562 15.5463 10.3887 15.5527 10.4248C15.4923 10.3533 15.4435 10.2719 15.4062 10.1807C16.6745 8.92876 17.944 7.67549 19.2148 6.4209Z" fill="#35C4F7"/>
<path opacity="0.999" fill-rule="evenodd" clip-rule="evenodd" d="M19.8477 8.3252C19.886 8.4167 19.9186 8.51436 19.9453 8.61816C19.9239 8.61499 19.9076 8.6231 19.8965 8.64258C19.9602 8.9728 20.009 9.30649 20.043 9.64355C20.0055 9.6063 19.9811 9.55747 19.9697 9.49707C19.1054 10.3695 18.2346 11.2322 17.3574 12.085C17.1729 11.8963 16.9776 11.7172 16.7715 11.5479C16.7227 11.4828 16.6738 11.4176 16.625 11.3525C17.6951 10.3558 18.7449 9.33037 19.7744 8.27637C19.7931 8.30352 19.8175 8.31978 19.8477 8.3252Z" fill="#2EBFF6"/>
<path fill-rule="evenodd" clip-rule="evenodd" d="M19.9473 8.61835C20.3125 8.76024 20.6543 8.93924 20.9727 9.15545C21.0119 9.20052 21.02 9.24935 20.9971 9.30194C20.7024 9.60482 20.4013 9.89779 20.0938 10.1808C20.0975 9.99945 20.0813 9.82044 20.0449 9.64374C20.011 9.30668 19.9622 8.97298 19.8984 8.64276C19.9096 8.62328 19.9259 8.61517 19.9473 8.61835Z" fill="#3DBF92"/>
<path fill-rule="evenodd" clip-rule="evenodd" d="M5.88318 9.59458C6.09178 9.70561 6.28709 9.83584 6.46912 9.9852C6.51673 10.0973 6.58182 10.1949 6.66443 10.2782C7.01648 11.108 6.83743 11.7998 6.12732 12.3534C5.61644 12.6148 5.09559 12.6392 4.56482 12.4266C4.48158 12.344 4.38393 12.2789 4.27186 12.2313C3.81498 11.7638 3.66036 11.2104 3.80799 10.5711C4.21472 9.6476 4.90643 9.32211 5.88318 9.59458Z" fill="#FEFEFE"/>
<path fill-rule="evenodd" clip-rule="evenodd" d="M10.1817 9.54571C10.5201 9.67447 10.7968 9.88605 11.0118 10.1805C11.4108 10.9847 11.2806 11.6927 10.6212 12.3045C10.0862 12.6098 9.53285 12.6505 8.96103 12.4266C8.73515 12.2821 8.53984 12.1031 8.37509 11.8895C8.38349 11.841 8.36718 11.8085 8.32626 11.7918C8.18862 11.4138 8.14789 11.0232 8.20419 10.6199C8.55571 9.70875 9.21488 9.3507 10.1817 9.54571Z" fill="#FEFEFE"/>
<path fill-rule="evenodd" clip-rule="evenodd" d="M14.9183 9.69252C15.0973 9.839 15.2601 10.0017 15.4066 10.1808C15.4438 10.272 15.4926 10.3534 15.553 10.4249C15.8205 11.379 15.5112 12.0708 14.6253 12.5001C14.1664 12.6286 13.7269 12.5879 13.3069 12.3781C13.1138 12.2663 12.951 12.1199 12.8187 11.9386C12.572 11.4929 12.515 11.0209 12.6478 10.5226C13.1414 9.53969 13.8983 9.26298 14.9183 9.69252Z" fill="#FEFEFE"/>
<path fill-rule="evenodd" clip-rule="evenodd" d="M20.0449 9.64355C20.0812 9.82026 20.0975 9.99927 20.0938 10.1807C20.1055 10.4603 20.0892 10.737 20.0449 11.0107C19.4119 11.6194 18.7853 12.2378 18.165 12.8662C17.8732 12.6313 17.6046 12.3709 17.3594 12.085C18.2366 11.2322 19.1074 10.3695 19.9717 9.49707C19.983 9.55747 20.0074 9.6063 20.0449 9.64355Z" fill="#29BCF5"/>
<path fill-rule="evenodd" clip-rule="evenodd" d="M20.9707 9.15527C21.2462 9.29307 21.5066 9.45581 21.752 9.64355C21.7942 9.72383 21.8187 9.80522 21.8252 9.8877C21.2375 10.4835 20.6435 11.0694 20.043 11.6455C20.043 11.4339 20.043 11.2223 20.043 11.0107C20.0873 10.737 20.1035 10.4603 20.0918 10.1807C20.3993 9.89761 20.7004 9.60464 20.9951 9.30176C21.0181 9.24917 21.0099 9.20034 20.9707 9.15527Z" fill="#55CC9E"/>
<path fill-rule="evenodd" clip-rule="evenodd" d="M21.7539 9.64355C21.9798 9.78799 22.1751 9.96699 22.3398 10.1807C21.5423 11.0273 20.7285 11.8249 19.8984 12.5732C19.9172 12.253 19.966 11.9437 20.0449 11.6455C20.6454 11.0694 21.2395 10.4835 21.8271 9.8877C21.8206 9.80522 21.7962 9.72383 21.7539 9.64355Z" fill="#64D4A6"/>
<path fill-rule="evenodd" clip-rule="evenodd" d="M22.3379 10.1807C22.5332 10.2783 22.6797 10.4248 22.7773 10.6201C22.7731 10.6687 22.7895 10.7094 22.8262 10.7422C21.7234 11.8694 20.6004 12.9681 19.457 14.0381C19.5844 13.6884 19.6821 13.3303 19.75 12.9639C19.7867 12.8298 19.8355 12.6996 19.8965 12.5732C20.7266 11.8249 21.5404 11.0273 22.3379 10.1807Z" fill="#70DBAC"/>
<path fill-rule="evenodd" clip-rule="evenodd" d="M16.627 11.3525C16.6758 11.4176 16.7246 11.4828 16.7734 11.5479C16.0924 12.3103 15.3763 13.0427 14.625 13.7451C14.5599 13.6963 14.4948 13.6475 14.4297 13.5986C14.1367 13.2731 13.8275 12.9639 13.502 12.6709C13.4307 12.575 13.3493 12.4855 13.2578 12.4023C13.2689 12.3829 13.2853 12.3748 13.3066 12.3779C13.7266 12.5878 14.1661 12.6285 14.625 12.5C15.5109 12.0707 15.8202 11.3789 15.5527 10.4248C15.5463 10.3887 15.5545 10.3562 15.5771 10.3271C15.9207 10.6789 16.2706 11.0207 16.627 11.3525Z" fill="#25B3F1"/>
<path fill-rule="evenodd" clip-rule="evenodd" d="M11.0117 10.1809C11.0602 10.1725 11.0927 10.1888 11.1094 10.2297C11.3209 10.4738 11.5488 10.7017 11.793 10.9133C11.9557 11.0923 12.1185 11.2713 12.2813 11.4504C12.2452 11.444 12.2126 11.4521 12.1836 11.4748C11.534 12.1733 10.8667 12.8569 10.1816 13.5256C10.1354 13.5492 10.0865 13.5573 10.0352 13.55C9.62749 13.1919 9.26943 12.8175 8.96094 12.4269C9.53276 12.6509 10.0861 12.6101 10.6211 12.3049C11.2805 11.6931 11.4107 10.9851 11.0117 10.1809Z" fill="#30BAF2"/>
<path fill-rule="evenodd" clip-rule="evenodd" d="M20.0449 11.0107C20.0449 11.2223 20.0449 11.4339 20.0449 11.6455C19.966 11.9437 19.9172 12.253 19.8984 12.5732C19.8375 12.6996 19.7886 12.8298 19.752 12.9639C19.7583 12.9278 19.7502 12.8952 19.7275 12.8662C17.2518 15.3174 14.8185 17.7751 12.4277 20.2393C12.4277 20.2555 12.4277 20.2718 12.4277 20.2881C12.1648 20.3244 11.9044 20.3732 11.6465 20.4346C11.2747 20.4938 10.9003 20.5264 10.5234 20.5322C12.3203 18.711 14.1269 16.8962 15.9434 15.0879C15.6894 14.8257 15.429 14.5734 15.1621 14.3311C14.9831 14.1357 14.8041 13.9404 14.625 13.7451C15.3763 13.0427 16.0924 12.3103 16.7734 11.5479C16.9796 11.7172 17.1749 11.8963 17.3594 12.085C17.6046 12.3709 17.8732 12.6313 18.165 12.8662C18.7853 12.2378 19.4119 11.6194 20.0449 11.0107Z" fill="#22B7F5"/>
<path fill-rule="evenodd" clip-rule="evenodd" d="M7.15234 10.6689C7.31509 10.848 7.47788 11.027 7.64062 11.2061C6.93823 11.9573 6.20581 12.6734 5.44336 13.3545C5.28062 13.208 5.11782 13.0615 4.95508 12.915C4.81857 12.7541 4.67209 12.5994 4.51562 12.4512C4.52678 12.4317 4.54306 12.4236 4.56445 12.4268C5.09521 12.6394 5.61606 12.6149 6.12695 12.3535C6.83706 11.7999 7.01611 11.1082 6.66406 10.2783C6.66089 10.2569 6.66899 10.2406 6.68848 10.2295C6.83672 10.3859 6.99136 10.5324 7.15234 10.6689Z" fill="#3BC0F3"/>
<path fill-rule="evenodd" clip-rule="evenodd" d="M22.7793 10.6201C23.0297 10.8603 23.2576 11.1207 23.4629 11.4014C19.6076 15.2322 15.7665 19.0652 11.9395 22.9004C11.9104 22.923 11.8779 22.9312 11.8418 22.9248C11.6802 22.828 11.5337 22.7141 11.4023 22.583C11.4669 22.5747 11.5239 22.591 11.5732 22.6318C12.558 21.6471 13.5426 20.6625 14.5273 19.6777C14.491 19.627 14.4422 19.6026 14.3809 19.6045C16.7675 18.3894 18.4603 16.5339 19.459 14.0381C20.6023 12.9681 21.7254 11.8694 22.8281 10.7422C22.7914 10.7094 22.7751 10.6687 22.7793 10.6201Z" fill="#7EE2B3"/>
<path fill-rule="evenodd" clip-rule="evenodd" d="M7.64258 11.2061C7.85703 11.4208 8.08486 11.6161 8.32617 11.792C8.36709 11.8087 8.3834 11.8412 8.375 11.8896C8.3708 11.9383 8.38711 11.979 8.42383 12.0117C7.71162 12.7484 6.9792 13.4564 6.22656 14.1357C6.08008 14.0055 5.93359 13.8753 5.78711 13.7451C5.67319 13.6149 5.55923 13.4847 5.44531 13.3545C6.20776 12.6734 6.94019 11.9573 7.64258 11.2061Z" fill="#3BC4F4"/>
<path opacity="0.998" fill-rule="evenodd" clip-rule="evenodd" d="M23.4609 11.4014C23.5793 11.5522 23.677 11.7149 23.7539 11.8896C19.9151 15.647 16.1065 19.4394 12.3281 23.2666C12.1464 23.1761 11.9837 23.0622 11.8398 22.9248C11.8759 22.9312 11.9085 22.923 11.9375 22.9004C15.7645 19.0652 19.6057 15.2322 23.4609 11.4014Z" fill="#85E6B6"/>
<path fill-rule="evenodd" clip-rule="evenodd" d="M12.2812 11.4504C12.4603 11.6131 12.6393 11.7759 12.8184 11.9386C12.9507 12.1199 13.1135 12.2664 13.3066 12.3781C13.2853 12.3749 13.2689 12.383 13.2578 12.4025C13.3493 12.4857 13.4307 12.5752 13.502 12.6711C12.812 13.3855 12.1121 14.0935 11.4023 14.7951C11.3698 14.8276 11.3373 14.8276 11.3047 14.7951C11.2458 14.7279 11.1808 14.671 11.1094 14.6242C10.8815 14.4126 10.6537 14.201 10.4258 13.9894C10.2956 13.8429 10.1654 13.6964 10.0352 13.55C10.0865 13.5572 10.1354 13.5491 10.1816 13.5255C10.8667 12.8568 11.534 12.1733 12.1836 11.4748C12.2126 11.4521 12.2452 11.444 12.2812 11.4504Z" fill="#30BFF5"/>
<path opacity="0.998" fill-rule="evenodd" clip-rule="evenodd" d="M8.37305 11.8896C8.53779 12.1033 8.73311 12.2823 8.95898 12.4268C9.26748 12.8173 9.62554 13.1917 10.0332 13.5498C10.1634 13.6963 10.2936 13.8428 10.4238 13.9893C10.4302 14.0253 10.4221 14.0579 10.3994 14.0869C8.46089 16.0173 6.53218 17.9542 4.61328 19.8975C3.89713 19.8975 3.18099 19.8975 2.46484 19.8975C2.61823 19.8574 2.781 19.833 2.95312 19.8242C4.43424 18.3431 5.91538 16.862 7.39648 15.3809C7.17656 15.104 6.93242 14.8517 6.66406 14.624C6.51758 14.4613 6.37109 14.2985 6.22461 14.1357C6.97725 13.4564 7.70967 12.7484 8.42187 12.0117C8.38516 11.979 8.36885 11.9383 8.37305 11.8896Z" fill="#41CBF8"/>
<path opacity="0.998" fill-rule="evenodd" clip-rule="evenodd" d="M4.27148 12.2316C4.38355 12.2792 4.48121 12.3443 4.56445 12.4269C4.54306 12.4237 4.52678 12.4318 4.51562 12.4513C4.67209 12.5996 4.81857 12.7542 4.95508 12.9152C3.53906 14.3638 2.10677 15.7961 0.658203 17.2121C0.65979 16.7393 0.643516 16.2673 0.609375 15.7961C1.80397 14.6259 2.99212 13.4459 4.17383 12.256C4.20285 12.2334 4.23541 12.2252 4.27148 12.2316Z" fill="#5ADCFA"/>
<path opacity="0.998" fill-rule="evenodd" clip-rule="evenodd" d="M13.5 12.6709C13.8255 12.9639 14.1348 13.2731 14.4277 13.5986C12.2322 15.8186 10.0268 18.0322 7.81152 20.2393C7.78887 20.2683 7.78071 20.3008 7.78711 20.3369C7.22188 20.2141 6.65225 20.1165 6.07812 20.0439C7.79355 18.3041 9.5188 16.5707 11.2539 14.8438C11.1738 14.7886 11.125 14.7154 11.1074 14.624C11.1788 14.6708 11.2439 14.7277 11.3027 14.7949C11.3353 14.8275 11.3678 14.8275 11.4004 14.7949C12.1101 14.0934 12.81 13.3854 13.5 12.6709Z" fill="#34C3F7"/>
<path fill-rule="evenodd" clip-rule="evenodd" d="M23.7539 11.8896C24.095 12.4227 24.3717 12.9924 24.584 13.5986C24.5479 13.5922 24.5153 13.6004 24.4863 13.623C21.0097 17.1078 17.5266 20.5828 14.0371 24.0479C13.424 23.8796 12.8543 23.6192 12.3281 23.2666C16.1065 19.4394 19.9151 15.647 23.7539 11.8896Z" fill="#8DEABB"/>
<path opacity="0.998" fill-rule="evenodd" clip-rule="evenodd" d="M4.95703 12.915C5.11978 13.0615 5.28257 13.208 5.44531 13.3545C5.55923 13.4847 5.67319 13.6149 5.78711 13.7451C4.11238 15.4443 2.42781 17.137 0.733398 18.8232C0.724077 18.9311 0.699663 19.0287 0.660156 19.1162C0.660156 18.4814 0.660156 17.8467 0.660156 17.2119C2.10873 15.7959 3.54102 14.3636 4.95703 12.915Z" fill="#54D8F9"/>
<path fill-rule="evenodd" clip-rule="evenodd" d="M19.75 12.9639C19.6821 13.3303 19.5844 13.6884 19.457 14.0381C18.4583 16.5339 16.7656 18.3894 14.3789 19.6045C13.7539 19.8942 13.1029 20.1058 12.4258 20.2393C14.8165 17.7751 17.2498 15.3174 19.7256 12.8662C19.7482 12.8952 19.7564 12.9278 19.75 12.9639Z" fill="#1CB4F4"/>
<path opacity="0.998" fill-rule="evenodd" clip-rule="evenodd" d="M14.4279 13.5986C14.493 13.6475 14.5581 13.6963 14.6232 13.7451C14.8023 13.9404 14.9813 14.1357 15.1603 14.3311C13.077 16.3818 11.0099 18.4489 8.95914 20.5322C8.5628 20.4985 8.17218 20.4334 7.78727 20.3369C7.78087 20.3008 7.78902 20.2683 7.81168 20.2393C10.0269 18.0322 12.2323 15.8186 14.4279 13.5986Z" fill="#2EBFF7"/>
<path opacity="0.998" fill-rule="evenodd" clip-rule="evenodd" d="M24.5859 13.5988C24.7232 14.0663 24.8371 14.5383 24.9277 15.0148C21.74 18.1212 18.5825 21.2624 15.4551 24.4386C14.9648 24.3609 14.4928 24.2307 14.0391 24.048C17.5286 20.5829 21.0117 17.108 24.4883 13.6232C24.5173 13.6005 24.5499 13.5924 24.5859 13.5988Z" fill="#8BE9B9"/>
<path opacity="0.997" fill-rule="evenodd" clip-rule="evenodd" d="M10.4238 13.9893C10.6517 14.2008 10.8795 14.4125 11.1074 14.624C11.125 14.7154 11.1738 14.7886 11.2539 14.8438C9.5188 16.5707 7.79356 18.3041 6.07813 20.0439C5.59048 19.9859 5.1022 19.9371 4.61328 19.8975C6.53218 17.9542 8.46089 16.0173 10.3994 14.0869C10.4221 14.0579 10.4302 14.0253 10.4238 13.9893Z" fill="#3BC8F8"/>
<path opacity="0.998" fill-rule="evenodd" clip-rule="evenodd" d="M5.78711 13.7451C5.9336 13.8753 6.08008 14.0055 6.22656 14.1357C6.37305 14.2985 6.51953 14.4613 6.66602 14.624C6.67241 14.6601 6.66426 14.6927 6.6416 14.7217C4.91465 16.4405 3.19752 18.1658 1.49023 19.8975C0.959356 19.9036 0.682661 19.6432 0.660156 19.1162C0.699663 19.0287 0.724077 18.9311 0.733398 18.8232C2.42781 17.137 4.11238 15.4443 5.78711 13.7451Z" fill="#4DD3F9"/>
<path opacity="0.998" fill-rule="evenodd" clip-rule="evenodd" d="M15.1621 14.3311C15.429 14.5734 15.6894 14.8257 15.9434 15.0879C14.1269 16.8962 12.3203 18.711 10.5234 20.5322C10.2497 20.5765 9.973 20.5928 9.69336 20.5811C9.4479 20.5809 9.20376 20.5646 8.96094 20.5322C11.0117 18.4489 13.0788 16.3818 15.1621 14.3311Z" fill="#28BCF5"/>
<path opacity="0.997" fill-rule="evenodd" clip-rule="evenodd" d="M6.66406 14.624C6.93242 14.8517 7.17656 15.104 7.39648 15.3809C5.91538 16.862 4.43424 18.3431 2.95313 19.8242C2.781 19.833 2.61823 19.8574 2.46484 19.8975C2.13932 19.8975 1.8138 19.8975 1.48828 19.8975C3.19557 18.1658 4.9127 16.4405 6.63965 14.7217C6.6623 14.6927 6.67046 14.6601 6.66406 14.624Z" fill="#47D0F8"/>
<path opacity="0.997" fill-rule="evenodd" clip-rule="evenodd" d="M24.9258 15.0146C24.911 15.1396 24.9273 15.2536 24.9746 15.3564C24.9746 15.5355 24.9746 15.7145 24.9746 15.8936C22.0937 18.7418 19.2292 21.6064 16.3809 24.4873C16.0705 24.4885 15.7612 24.4722 15.4531 24.4385C18.5805 21.2623 21.738 18.121 24.9258 15.0146Z" fill="#88E8B6"/>
<path opacity="0.997" fill-rule="evenodd" clip-rule="evenodd" d="M24.9766 15.8936C24.9766 16.2842 24.9766 16.6748 24.9766 17.0654C24.9464 17.06 24.922 17.0438 24.9033 17.0166C22.409 19.4865 19.9432 21.9767 17.5059 24.4873C17.1292 24.5236 16.7549 24.5236 16.3828 24.4873C19.2311 21.6064 22.0957 18.7418 24.9766 15.8936Z" fill="#84E7B4"/>
<path opacity="0.995" fill-rule="evenodd" clip-rule="evenodd" d="M24.9746 17.0654C24.9746 17.098 24.9746 17.1305 24.9746 17.1631C24.8167 17.9364 24.6703 18.7177 24.5352 19.5068C23.0052 21.0042 21.4916 22.5179 19.9941 24.0479C19.1667 24.2017 18.3366 24.3482 17.5039 24.4873C19.9412 21.9767 22.407 19.4865 24.9014 17.0166C24.9201 17.0437 24.9445 17.06 24.9746 17.0654Z" fill="#80E5B1"/>
<path opacity="0.999" fill-rule="evenodd" clip-rule="evenodd" d="M14.3809 19.6046C14.4422 19.6027 14.491 19.6271 14.5273 19.6778C13.5426 20.6626 12.558 21.6472 11.5732 22.6319C11.5239 22.5911 11.4669 22.5748 11.4023 22.5831C11.1438 22.406 10.916 22.1944 10.7188 21.9483C10.7845 21.9741 10.8497 21.9823 10.9141 21.9728C11.4674 21.4194 12.0208 20.866 12.5742 20.3126C12.5279 20.289 12.4791 20.2809 12.4277 20.2882C12.4277 20.2719 12.4277 20.2556 12.4277 20.2394C13.1048 20.1059 13.7559 19.8943 14.3809 19.6046Z" fill="#76DEAF"/>
<path opacity="0.988" fill-rule="evenodd" clip-rule="evenodd" d="M24.5371 19.5068C24.4584 20.3021 24.4259 21.0997 24.4395 21.8994C23.835 22.5773 23.2002 23.2365 22.5352 23.877C22.3953 23.8859 22.2651 23.9103 22.1445 23.9502C21.4263 23.9425 20.7102 23.975 19.9961 24.0479C21.4935 22.5179 23.0072 21.0042 24.5371 19.5068Z" fill="#7AE3AC"/>
<path fill-rule="evenodd" clip-rule="evenodd" d="M12.4277 20.2882C12.4791 20.2809 12.5279 20.2891 12.5742 20.3126C12.0208 20.866 11.4674 21.4194 10.9141 21.9728C10.8497 21.9823 10.7845 21.9742 10.7187 21.9484C10.61 21.8455 10.5124 21.7316 10.4258 21.6066C10.4928 21.6142 10.558 21.6061 10.6211 21.5822C10.9922 21.2195 11.334 20.8371 11.6465 20.4347C11.9044 20.3734 12.1648 20.3246 12.4277 20.2882Z" fill="#68D6A8"/>
<path fill-rule="evenodd" clip-rule="evenodd" d="M11.6445 20.4346C11.332 20.8369 10.9902 21.2194 10.6191 21.582C10.556 21.606 10.4909 21.6141 10.4238 21.6064C10.1232 21.3057 9.87905 20.9639 9.69141 20.5811C9.97104 20.5928 10.2478 20.5765 10.5215 20.5322C10.8984 20.5264 11.2728 20.4938 11.6445 20.4346Z" fill="#5BCFA1"/>
<path opacity="0.95" fill-rule="evenodd" clip-rule="evenodd" d="M24.4395 21.8994C24.4476 22.4368 24.4395 22.9739 24.415 23.5107C24.3632 23.6603 24.2737 23.7823 24.1465 23.877C23.4828 23.9476 22.8154 23.972 22.1445 23.9502C22.2651 23.9103 22.3953 23.8859 22.5352 23.877C23.2002 23.2365 23.835 22.5773 24.4395 21.8994Z" fill="#74E1A7"/>
</g>
<defs>
<clipPath id="clip0_2603_3609">
<rect width="25" height="25" fill="white"/>
</clipPath>
</defs>
</svg>
