<svg width="312" height="233" viewBox="0 0 312 233" fill="none" xmlns="http://www.w3.org/2000/svg">
<g clip-path="url(#clip0_2865_1239)">
<path d="M312 204.76H0V204.916H312V204.76Z" fill="#EBEBEB"/>
<path d="M280.738 214.822H260.071V214.979H280.738V214.822Z" fill="#EBEBEB"/>
<path d="M206.681 216.523H201.259V216.68H206.681V216.523Z" fill="#EBEBEB"/>
<path d="M259.447 209.02H247.472V209.176H259.447V209.02Z" fill="#EBEBEB"/>
<path d="M59.6857 210.07H32.7351V210.227H59.6857V210.07Z" fill="#EBEBEB"/>
<path d="M69.1953 210.07H65.2454V210.227H69.1953V210.07Z" fill="#EBEBEB"/>
<path d="M140.494 212.709H82.0374V212.865H140.494V212.709Z" fill="#EBEBEB"/>
<path d="M147.888 176.871H27.3998C26.4559 176.87 25.5513 176.493 24.8844 175.823C24.2176 175.154 23.843 174.247 23.843 173.301V3.57055C23.8512 2.63009 24.2294 1.73085 24.8954 1.06816C25.5613 0.405477 26.4613 0.0328611 27.3998 0.03125H147.888C148.833 0.03125 149.739 0.407434 150.407 1.07705C151.076 1.74666 151.451 2.65485 151.451 3.60182V173.301C151.451 174.248 151.076 175.156 150.407 175.826C149.739 176.495 148.833 176.871 147.888 176.871ZM27.3998 0.156314C26.4973 0.157971 25.6323 0.518414 24.9947 1.15853C24.3571 1.79864 23.999 2.66612 23.999 3.57055V173.301C23.999 174.205 24.3571 175.073 24.9947 175.713C25.6323 176.353 26.4973 176.713 27.3998 176.715H147.888C148.791 176.713 149.657 176.353 150.295 175.713C150.934 175.073 151.293 174.206 151.295 173.301V3.57055C151.293 2.66555 150.934 1.79808 150.295 1.15815C149.657 0.518211 148.791 0.157967 147.888 0.156314H27.3998Z" fill="#EBEBEB"/>
<path d="M282.866 176.871H162.371C161.427 176.87 160.521 176.493 159.854 175.824C159.186 175.155 158.81 174.247 158.808 173.301V3.57055C158.818 2.62952 159.197 1.73029 159.864 1.06777C160.531 0.405259 161.432 0.0328435 162.371 0.03125H282.866C283.803 0.0345045 284.701 0.407848 285.366 1.07036C286.031 1.73287 286.408 2.63117 286.416 3.57055V173.301C286.416 174.246 286.042 175.152 285.377 175.821C284.711 176.49 283.808 176.868 282.866 176.871ZM162.371 0.156314C161.468 0.157967 160.602 0.518211 159.964 1.15815C159.325 1.79808 158.966 2.66555 158.964 3.57055V173.301C158.966 174.206 159.325 175.073 159.964 175.713C160.602 176.353 161.468 176.713 162.371 176.715H282.866C283.769 176.713 284.634 176.353 285.273 175.713C285.911 175.073 286.271 174.206 286.273 173.301V3.57055C286.271 2.66555 285.911 1.79808 285.273 1.15815C284.634 0.518211 283.769 0.157967 282.866 0.156314H162.371Z" fill="#EBEBEB"/>
<path d="M232.852 46.9355H224.01V74.5184H232.852V46.9355Z" fill="#E6E6E6"/>
<path d="M256.82 74.5196H227.479L223.049 42.2344H252.389L256.82 74.5196Z" fill="#F0F0F0"/>
<path d="M259.996 74.5196H229.694L225.264 42.2344H255.565L259.996 74.5196Z" fill="#F5F5F5"/>
<path d="M231.885 71.9744L228.153 44.7793H253.375L257.113 71.9744H231.885Z" fill="white"/>
<path d="M236.87 63.7381L235.466 53.5329C235.425 53.2635 235.442 52.9883 235.517 52.7264C235.593 52.4645 235.724 52.2221 235.902 52.0162C236.08 51.8102 236.301 51.6457 236.549 51.534C236.797 51.4222 237.067 51.366 237.338 51.3693H246.505C246.964 51.3658 247.408 51.5313 247.753 51.8345C248.099 52.1377 248.32 52.5574 248.377 53.0139L249.775 63.2253C249.816 63.4942 249.797 63.7687 249.722 64.0299C249.646 64.291 249.515 64.5326 249.337 64.7378C249.159 64.943 248.938 65.107 248.691 65.2183C248.443 65.3297 248.174 65.3857 247.903 65.3827H238.749C238.289 65.3877 237.843 65.2228 237.496 64.9195C237.15 64.6161 236.927 64.1956 236.87 63.7381Z" fill="#F5F5F5"/>
<path d="M177.809 16.7148H45.6519V98.4127H177.809V16.7148Z" fill="#E6E6E6"/>
<path d="M181.203 16.7148H47.2368V98.4127H181.203V16.7148Z" fill="#F0F0F0"/>
<path d="M177.809 98.4121H45.6519V104.734H177.809V98.4121Z" fill="#E6E6E6"/>
<path d="M186.857 98.4121H52.8901V104.734H186.857V98.4121Z" fill="#F0F0F0"/>
<path d="M176.448 93.6548V21.4805L51.9917 21.4805V93.6548L176.448 93.6548Z" fill="#FAFAFA"/>
<path d="M61.127 93.6548L89.026 21.4805H102.192L74.2934 93.6548H61.127Z" fill="white"/>
<path d="M77.1265 93.6548L105.026 21.4805H110.155L82.2558 93.6548H77.1265Z" fill="white"/>
<path d="M125.936 93.6548L153.835 21.4805H158.964L131.071 93.6548H125.936Z" fill="white"/>
<path d="M176.442 93.6469V21.4727H175.837V93.6469H176.442Z" fill="#E6E6E6"/>
<path d="M277.992 74.5195H250.012V204.761H277.992V74.5195Z" fill="#E6E6E6"/>
<path d="M275.178 204.761H277.992V196.738H272.226L275.178 204.761Z" fill="#F0F0F0"/>
<path d="M228.964 74.5195H200.984V204.761H228.964V74.5195Z" fill="#E6E6E6"/>
<path d="M277.992 74.5195H226.506V199.84H277.992V74.5195Z" fill="#F0F0F0"/>
<path d="M229.32 204.761H226.506V196.738H232.272L229.32 204.761Z" fill="#F0F0F0"/>
<path d="M275.808 76.8145H228.69V135.932H275.808V76.8145Z" fill="#E6E6E6"/>
<path d="M257.35 81.4158H247.148C244.954 81.4157 242.784 80.9675 240.769 80.0988C238.754 79.2301 236.937 77.9591 235.429 76.3633H269.069C267.561 77.96 265.744 79.2316 263.729 80.1004C261.714 80.9691 259.544 81.4168 257.35 81.4158Z" fill="#F0F0F0"/>
<path d="M275.808 138.326H228.69V197.444H275.808V138.326Z" fill="#E6E6E6"/>
<path d="M257.35 142.93H247.148C244.954 142.929 242.784 142.481 240.769 141.613C238.754 140.744 236.937 139.473 235.429 137.877H269.069C267.561 139.474 265.744 140.745 263.729 141.614C261.714 142.483 259.544 142.93 257.35 142.93Z" fill="#F0F0F0"/>
<path d="M80.8081 115.646H127.371L134.123 143.198H87.5535L80.8081 115.646Z" fill="#E6E6E6"/>
<path d="M87.5535 143.197L87.7469 144.723H134.31L134.123 143.197H87.5535Z" fill="#E6E6E6"/>
<path d="M82.2432 115.646H128.806L135.558 143.198H88.9886L82.2432 115.646Z" fill="#F0F0F0"/>
<path d="M89.9745 141.94L83.8406 116.902H127.82L133.954 141.94H89.9745Z" fill="white"/>
<path d="M101.125 143.197L101.313 144.723H152.587L152.4 143.197H101.125Z" fill="#F0F0F0"/>
<path d="M164.287 144.725H158.708V204.755H164.287V144.725Z" fill="#E6E6E6"/>
<path d="M166.053 144.725H162.177V204.755H166.053V144.725Z" fill="#F0F0F0"/>
<path d="M95.3658 151.596H167.257V144.723H95.3658V151.596Z" fill="#F0F0F0"/>
<path d="M92.8637 151.596H87.2852V204.754H92.8637V151.596Z" fill="#E6E6E6"/>
<path d="M94.6233 151.596H90.7483V204.754H94.6233V151.596Z" fill="#F0F0F0"/>
<path d="M57.5515 151.596H51.9729V204.754H57.5515V151.596Z" fill="#E6E6E6"/>
<path d="M59.3174 151.596H55.4424V204.754H59.3174V151.596Z" fill="#F0F0F0"/>
<path d="M128.981 151.596H123.402V204.754H128.981V151.596Z" fill="#E6E6E6"/>
<path d="M130.741 151.596H126.865V204.754H130.741V151.596Z" fill="#F0F0F0"/>
<path d="M95.3596 144.725H51.9729V151.597H95.3596V144.725Z" fill="#E6E6E6"/>
<path d="M182.42 204.76H181.066L177.216 185.601L176.536 182.243L172.268 161.363H156.044L147.264 204.76H145.891L154.852 160.563C154.88 160.416 154.957 160.284 155.071 160.187C155.184 160.091 155.327 160.036 155.476 160.031H172.848C172.998 160.03 173.144 160.082 173.259 160.18C173.374 160.278 173.449 160.414 173.472 160.563L177.216 178.897L177.84 182.249L182.42 204.76Z" fill="#F0F0F0"/>
<path d="M208.472 204.76H207.112L198.313 161.363H182.089L177.84 182.248L177.216 185.6L173.328 204.76H171.974L176.536 182.248L177.21 178.903L180.954 160.569C180.983 160.423 181.061 160.291 181.174 160.194C181.287 160.098 181.429 160.043 181.578 160.037H198.894C199.043 160.041 199.185 160.097 199.299 160.193C199.412 160.29 199.489 160.422 199.518 160.569L208.472 204.76Z" fill="#F0F0F0"/>
<path d="M168.48 160.694H198.295C203.986 160.694 207.143 156.817 208.753 150.427L209.539 146.775C209.805 145.67 209.816 144.52 209.574 143.41C209.331 142.3 208.839 141.26 208.137 140.368C207.435 139.477 206.539 138.756 205.518 138.262C204.498 137.767 203.378 137.511 202.245 137.514H183.525C179.656 137.514 178.632 138.439 175.956 144.28C173.279 150.12 168.48 160.694 168.48 160.694Z" fill="#F0F0F0"/>
<path d="M184.735 160.695H152.961C152.565 160.695 152.186 160.537 151.906 160.257C151.627 159.977 151.47 159.597 151.47 159.2V159.063C151.47 158.526 151.575 157.994 151.78 157.498C151.985 157.002 152.286 156.551 152.665 156.171C153.044 155.791 153.494 155.49 153.989 155.285C154.484 155.079 155.015 154.973 155.551 154.973H184.735V160.701V160.695Z" fill="#F0F0F0"/>
<path d="M156 233.001C222.82 233.001 276.987 229.832 276.987 225.922C276.987 222.013 222.82 218.844 156 218.844C89.1806 218.844 35.0127 222.013 35.0127 225.922C35.0127 229.832 89.1806 233.001 156 233.001Z" fill="#F5F5F5"/>
<path d="M180.105 34.217H89.4191C88.4502 34.2103 87.4903 34.4027 86.5984 34.7821C85.7065 35.1615 84.9017 35.7199 84.2334 36.423C83.5651 37.1261 83.0477 37.9588 82.7129 38.87C82.3781 39.7811 82.2331 40.7513 82.2868 41.7208L90.7919 218.417C90.9131 220.43 91.7897 222.322 93.2459 223.714C94.702 225.106 96.6297 225.895 98.6418 225.921H189.328C190.296 225.928 191.256 225.735 192.148 225.356C193.039 224.976 193.844 224.418 194.511 223.715C195.179 223.011 195.696 222.179 196.03 221.267C196.364 220.356 196.508 219.386 196.454 218.417L187.955 41.7208C187.834 39.7079 186.957 37.8154 185.501 36.4235C184.045 35.0316 182.117 34.2433 180.105 34.217Z" fill="black"/>
<path d="M183.456 34.217H92.745C91.7764 34.2103 90.8167 34.4026 89.9251 34.7821C89.0336 35.1616 88.2291 35.7201 87.5613 36.4233C86.8936 37.1265 86.3767 37.9593 86.0426 38.8704C85.7085 39.7816 85.5643 40.7516 85.6189 41.7208L94.1178 218.417C94.239 220.43 95.1156 222.322 96.5718 223.714C98.0279 225.106 99.9556 225.895 101.968 225.921H192.654C193.622 225.928 194.582 225.735 195.474 225.356C196.365 224.976 197.17 224.418 197.837 223.715C198.505 223.011 199.022 222.179 199.356 221.267C199.69 220.356 199.834 219.386 199.78 218.417L191.281 41.7208C191.16 39.7121 190.287 37.8232 188.836 36.4319C187.385 35.0406 185.464 34.2496 183.456 34.217Z" fill="#263238"/>
<path d="M101.712 220.918C101.044 220.901 100.406 220.635 99.9229 220.173C99.4395 219.71 99.1453 219.084 99.0974 218.416L90.611 41.72C90.5959 41.3975 90.6461 41.0753 90.7587 40.7728C90.8712 40.4703 91.0439 40.1938 91.2661 39.96C91.4883 39.7262 91.7555 39.54 92.0515 39.4126C92.3476 39.2852 92.6663 39.2192 92.9885 39.2188H183.674C184.343 39.2329 184.983 39.4974 185.467 39.9604C185.951 40.4233 186.244 41.0511 186.289 41.72L194.788 218.416C194.803 218.738 194.753 219.06 194.641 219.362C194.529 219.664 194.357 219.94 194.135 220.174C193.913 220.408 193.647 220.594 193.352 220.722C193.056 220.85 192.738 220.916 192.417 220.918H101.712Z" fill="#EA4B98"/>
<path opacity="0.1" d="M101.668 219.668C101.335 219.657 101.017 219.524 100.775 219.293C100.534 219.062 100.385 218.751 100.358 218.418L91.859 41.7213C91.8531 41.5608 91.8793 41.4007 91.9361 41.2504C91.9928 41.1001 92.0789 40.9627 92.1893 40.8462C92.2998 40.7297 92.4323 40.6365 92.5791 40.572C92.726 40.5075 92.8842 40.4731 93.0445 40.4707H183.73C184.064 40.4805 184.383 40.6136 184.625 40.8445C184.867 41.0753 185.015 41.3876 185.041 41.7213L193.54 218.418C193.546 218.578 193.519 218.738 193.463 218.889C193.406 219.039 193.32 219.176 193.209 219.293C193.099 219.409 192.966 219.502 192.82 219.567C192.673 219.631 192.514 219.666 192.354 219.668H101.668Z" fill="black"/>
<g opacity="0.3">
<path d="M129.037 209.512H111.072C110.579 209.506 110.106 209.314 109.749 208.972C109.393 208.631 109.179 208.167 109.15 207.674L107.84 180.341C107.823 180.099 107.857 179.857 107.939 179.629C108.02 179.401 108.148 179.192 108.314 179.016C108.479 178.84 108.68 178.7 108.902 178.605C109.124 178.51 109.364 178.463 109.606 178.465H127.602C128.094 178.469 128.566 178.661 128.922 179.001C129.277 179.341 129.491 179.805 129.517 180.297L130.809 207.636C130.825 207.878 130.79 208.12 130.708 208.348C130.626 208.576 130.497 208.785 130.331 208.961C130.165 209.137 129.964 209.277 129.741 209.372C129.519 209.466 129.279 209.514 129.037 209.512ZM109.581 179.103C109.425 179.102 109.271 179.133 109.127 179.193C108.983 179.253 108.853 179.341 108.745 179.453C108.638 179.568 108.556 179.703 108.503 179.85C108.449 179.997 108.425 180.153 108.433 180.31L109.749 207.636C109.767 207.971 109.91 208.286 110.151 208.518C110.392 208.751 110.713 208.882 111.047 208.887H129.037C129.193 208.888 129.348 208.857 129.492 208.795C129.636 208.734 129.766 208.644 129.874 208.53C129.981 208.416 130.065 208.281 130.118 208.134C130.172 207.987 130.195 207.83 130.185 207.674L128.869 180.341C128.853 180.007 128.71 179.691 128.47 179.459C128.23 179.226 127.911 179.095 127.577 179.09L109.581 179.103Z" fill="#FAFAFA"/>
<path d="M127.34 185.45H110.448C110.365 185.45 110.286 185.417 110.227 185.358C110.169 185.299 110.136 185.22 110.136 185.137C110.136 185.054 110.169 184.974 110.227 184.916C110.286 184.857 110.365 184.824 110.448 184.824H127.358C127.441 184.824 127.52 184.857 127.579 184.916C127.638 184.974 127.67 185.054 127.67 185.137C127.67 185.22 127.638 185.299 127.579 185.358C127.52 185.417 127.441 185.45 127.358 185.45H127.34Z" fill="#FAFAFA"/>
<path d="M127.515 188.983H110.598C110.516 188.981 110.437 188.948 110.379 188.889C110.321 188.831 110.287 188.753 110.286 188.67C110.286 188.587 110.319 188.508 110.377 188.449C110.436 188.39 110.515 188.357 110.598 188.357H127.515C127.597 188.357 127.677 188.39 127.735 188.449C127.794 188.508 127.827 188.587 127.827 188.67C127.825 188.753 127.792 188.831 127.733 188.889C127.675 188.948 127.597 188.981 127.515 188.983Z" fill="#FAFAFA"/>
<path d="M127.683 192.516H110.766C110.684 192.514 110.606 192.481 110.548 192.423C110.489 192.364 110.456 192.286 110.454 192.203C110.454 192.12 110.487 192.041 110.546 191.982C110.604 191.924 110.684 191.891 110.766 191.891H127.683C127.766 191.891 127.845 191.924 127.904 191.982C127.962 192.041 127.995 192.12 127.995 192.203C127.995 192.286 127.962 192.366 127.904 192.424C127.845 192.483 127.766 192.516 127.683 192.516Z" fill="#FAFAFA"/>
<path d="M127.851 196.049H110.941C110.858 196.049 110.779 196.016 110.72 195.958C110.662 195.899 110.629 195.819 110.629 195.736C110.629 195.654 110.662 195.574 110.72 195.515C110.779 195.457 110.858 195.424 110.941 195.424H127.851C127.934 195.424 128.013 195.457 128.072 195.515C128.13 195.574 128.163 195.654 128.163 195.736C128.163 195.819 128.13 195.899 128.072 195.958C128.013 196.016 127.934 196.049 127.851 196.049Z" fill="#FAFAFA"/>
<path d="M128.02 199.582H111.109C111.027 199.582 110.947 199.549 110.889 199.491C110.83 199.432 110.797 199.353 110.797 199.27C110.797 199.187 110.83 199.107 110.889 199.049C110.947 198.99 111.027 198.957 111.109 198.957H128.02C128.103 198.957 128.182 198.99 128.24 199.049C128.299 199.107 128.332 199.187 128.332 199.27C128.332 199.353 128.299 199.432 128.24 199.491C128.182 199.549 128.103 199.582 128.02 199.582Z" fill="#FAFAFA"/>
<path d="M124.725 203.116H111.278C111.195 203.116 111.116 203.083 111.057 203.024C110.999 202.965 110.966 202.886 110.966 202.803C110.966 202.72 110.999 202.64 111.057 202.582C111.116 202.523 111.195 202.49 111.278 202.49H124.725C124.808 202.49 124.887 202.523 124.946 202.582C125.004 202.64 125.037 202.72 125.037 202.803C125.036 202.885 125.002 202.964 124.944 203.022C124.886 203.081 124.808 203.114 124.725 203.116Z" fill="#FAFAFA"/>
</g>
<g opacity="0.3">
<path d="M140.363 109.229L128.026 111.205C127.55 110.029 126.921 108.921 126.154 107.91C125.416 107.133 124.542 106.498 123.577 106.034L124.039 115.726C130.899 117.536 135.514 119.445 137.885 121.454C139.397 122.717 140.624 124.287 141.484 126.06C142.345 127.833 142.82 129.77 142.877 131.741C143.042 134.048 142.619 136.359 141.648 138.457C140.724 140.414 139.395 142.151 137.748 143.553C136.214 144.87 134.441 145.876 132.525 146.517C130.277 147.195 127.946 147.561 125.599 147.605L125.68 149.312C125.699 149.628 125.652 149.945 125.544 150.242C125.436 150.539 125.267 150.811 125.05 151.04C124.832 151.27 124.569 151.452 124.278 151.575C123.988 151.698 123.674 151.76 123.359 151.757C122.702 151.751 122.073 151.494 121.598 151.04C121.123 150.587 120.838 149.969 120.8 149.312L120.719 147.605C117.98 147.429 115.276 146.895 112.676 146.017C110.683 145.296 108.841 144.212 107.241 142.822C105.78 141.572 104.543 140.081 103.584 138.413C102.622 136.619 101.922 134.697 101.506 132.704L114.928 131.134C115.436 133.34 116.06 134.934 116.8 135.918C117.731 137.061 118.926 137.958 120.282 138.532L119.714 126.701C116.39 125.872 113.136 124.784 109.98 123.449C107.938 122.429 106.184 120.914 104.876 119.041C103.347 116.876 102.501 114.301 102.448 111.649C102.303 109.82 102.557 107.98 103.193 106.259C103.829 104.538 104.831 102.976 106.13 101.682C108.776 99.0096 112.832 97.5297 118.298 97.242L118.254 96.3728C118.235 96.0569 118.282 95.7404 118.39 95.4431C118.499 95.1458 118.667 94.874 118.885 94.6447C119.102 94.4154 119.365 94.2334 119.656 94.1101C119.947 93.9867 120.26 93.9247 120.576 93.9278C121.232 93.9347 121.861 94.1909 122.336 94.6448C122.811 95.0987 123.096 95.7163 123.134 96.3728L123.178 97.242C128.17 97.5547 132.041 98.7386 134.79 100.794C137.556 102.884 139.523 105.861 140.363 109.229ZM118.71 105.884C117.597 106.17 116.593 106.776 115.821 107.629C115.295 108.335 115.041 109.207 115.103 110.086C115.136 111.029 115.478 111.934 116.077 112.662C116.91 113.538 117.964 114.172 119.128 114.495L118.71 105.884ZM125.181 138.851C127.053 138.434 128.405 137.734 129.237 136.75C129.636 136.307 129.944 135.79 130.143 135.227C130.343 134.665 130.429 134.069 130.397 133.473C130.334 132.387 129.892 131.358 129.149 130.565C128.363 129.684 126.865 128.858 124.669 128.102L125.181 138.851Z" fill="#FAFAFA"/>
</g>
<path opacity="0.2" d="M172.973 57.2852H111.197L117.218 182.418C117.512 187.544 119.737 192.367 123.444 195.912C127.151 199.458 132.063 201.46 137.186 201.515H198.962L192.947 76.3824C192.656 71.254 190.431 66.4281 186.722 62.8822C183.013 59.3363 178.098 57.3356 172.973 57.2852Z" fill="black"/>
<path d="M188.105 57.2852H111.215C116.339 57.3386 121.252 59.3406 124.959 62.886C128.666 66.4314 130.891 71.2555 131.183 76.3824L136.094 178.247C136.388 183.373 138.613 188.196 142.32 191.742C146.027 195.287 150.939 197.289 156.062 197.344H194.831C197.3 197.37 199.747 196.886 202.021 195.924C204.295 194.961 206.347 193.54 208.049 191.749C209.752 189.958 211.069 187.835 211.917 185.512C212.766 183.189 213.129 180.716 212.983 178.247L208.079 76.3824C207.788 71.254 205.563 66.4281 201.854 62.8822C198.145 59.3363 193.23 57.3356 188.105 57.2852Z" fill="#FAFAFA"/>
<path d="M174.208 178.246C174.355 180.714 173.993 183.186 173.146 185.508C172.298 187.83 170.983 189.952 169.283 191.744C167.582 193.535 165.532 194.956 163.26 195.919C160.987 196.883 158.542 197.367 156.075 197.343H232.958C235.425 197.367 237.871 196.883 240.143 195.919C242.416 194.956 244.466 193.535 246.168 191.744C247.869 189.953 249.184 187.83 250.032 185.508C250.88 183.186 251.243 180.714 251.097 178.246H174.208Z" fill="#E6E6E6"/>
<path d="M198.931 120.511H144.593C144.212 120.507 143.847 120.358 143.571 120.094C143.296 119.831 143.13 119.472 143.108 119.091C143.098 118.908 143.125 118.725 143.188 118.552C143.252 118.38 143.349 118.223 143.476 118.09C143.602 117.957 143.754 117.851 143.923 117.779C144.091 117.707 144.273 117.671 144.456 117.672H198.794C199.179 117.67 199.55 117.816 199.831 118.08C200.112 118.344 200.282 118.706 200.304 119.091C200.314 119.277 200.286 119.462 200.222 119.636C200.157 119.81 200.057 119.969 199.928 120.102C199.799 120.236 199.644 120.341 199.472 120.411C199.301 120.482 199.116 120.515 198.931 120.511Z" fill="#EA4B98"/>
<path d="M199.355 129.372H145.017C144.637 129.368 144.271 129.219 143.996 128.956C143.72 128.692 143.554 128.334 143.532 127.953C143.522 127.769 143.549 127.586 143.613 127.414C143.676 127.241 143.774 127.084 143.9 126.951C144.026 126.818 144.178 126.712 144.347 126.64C144.516 126.569 144.697 126.532 144.88 126.533H199.224C199.604 126.539 199.968 126.688 200.242 126.952C200.516 127.215 200.681 127.573 200.703 127.953C200.713 128.136 200.686 128.319 200.623 128.492C200.56 128.664 200.462 128.822 200.336 128.955C200.209 129.088 200.057 129.193 199.889 129.265C199.72 129.337 199.539 129.373 199.355 129.372Z" fill="#EA4B98"/>
<path d="M199.786 138.226H145.442C145.061 138.222 144.696 138.073 144.42 137.809C144.144 137.546 143.979 137.187 143.957 136.806C143.946 136.623 143.974 136.439 144.037 136.267C144.1 136.095 144.198 135.937 144.324 135.804C144.451 135.671 144.603 135.566 144.771 135.494C144.94 135.422 145.121 135.386 145.305 135.387H199.68C200.061 135.391 200.426 135.54 200.702 135.803C200.977 136.067 201.143 136.425 201.165 136.806C201.175 136.992 201.147 137.178 201.082 137.353C201.017 137.527 200.916 137.686 200.787 137.82C200.657 137.953 200.501 138.058 200.329 138.128C200.157 138.198 199.972 138.231 199.786 138.226Z" fill="#EA4B98"/>
<path d="M200.21 147.099H145.872C145.492 147.093 145.128 146.944 144.852 146.681C144.577 146.418 144.411 146.06 144.387 145.679C144.377 145.496 144.404 145.313 144.468 145.14C144.531 144.968 144.629 144.81 144.755 144.677C144.881 144.544 145.033 144.439 145.202 144.367C145.371 144.295 145.552 144.259 145.735 144.26H200.073C200.454 144.264 200.819 144.413 201.095 144.676C201.371 144.94 201.536 145.298 201.558 145.679C201.568 145.863 201.541 146.046 201.478 146.218C201.415 146.391 201.317 146.548 201.191 146.681C201.064 146.814 200.912 146.92 200.744 146.992C200.575 147.063 200.394 147.1 200.21 147.099Z" fill="#EA4B98"/>
<path d="M179.032 155.96H146.297C145.916 155.956 145.551 155.807 145.275 155.544C144.999 155.28 144.834 154.922 144.812 154.541C144.801 154.357 144.829 154.174 144.892 154.002C144.955 153.829 145.053 153.672 145.179 153.539C145.306 153.406 145.458 153.3 145.626 153.228C145.795 153.156 145.976 153.12 146.159 153.121H178.895C179.275 153.125 179.641 153.274 179.916 153.538C180.192 153.801 180.358 154.159 180.38 154.541C180.39 154.724 180.363 154.907 180.299 155.08C180.236 155.252 180.138 155.409 180.012 155.542C179.886 155.675 179.734 155.781 179.565 155.853C179.396 155.925 179.215 155.961 179.032 155.96Z" fill="#EA4B98"/>
<path d="M182.807 102.138C189.237 95.5368 188.846 84.7041 181.934 77.9421C175.022 71.18 164.205 71.0492 157.775 77.6499C151.345 84.2506 151.736 95.0833 158.649 101.845C165.561 108.607 176.377 108.738 182.807 102.138Z" fill="#EA4B98"/>
<path d="M184.38 89.8899C184.497 92.2136 184.023 94.5292 183 96.6183C181.892 98.8584 180.176 100.74 178.049 102.047C175.922 103.355 173.471 104.035 170.976 104.01C168.395 103.99 165.863 103.298 163.629 102.003C161.396 100.707 159.536 98.8514 158.234 96.6183C157.019 94.5756 156.322 92.2652 156.206 89.8899C156.098 88.065 156.366 86.2374 156.993 84.5206C157.619 82.8038 158.592 81.2345 159.849 79.9103C161.107 78.5861 162.623 77.5352 164.303 76.823C165.983 76.1107 167.792 75.7524 169.616 75.7702C173.402 75.8173 177.03 77.3 179.769 79.9197C182.508 82.5395 184.156 86.1019 184.38 89.8899Z" fill="white"/>
<path opacity="0.4" d="M183 96.6175C181.892 98.8576 180.176 100.739 178.049 102.047C175.922 103.354 173.471 104.034 170.976 104.009C168.395 103.989 165.863 103.298 163.629 102.002C161.396 100.706 159.536 98.8507 158.234 96.6175C161.825 94.1481 166.084 92.8389 170.439 92.8656C174.9 92.874 179.263 94.1771 183 96.6175Z" fill="#EA4B98"/>
<path opacity="0.4" d="M174.653 89.5495C177.017 87.1228 176.875 83.1412 174.335 80.6563C171.795 78.1715 167.819 78.1245 165.455 80.5513C163.091 82.978 163.234 86.9596 165.774 89.4445C168.314 91.9293 172.289 91.9763 174.653 89.5495Z" fill="#EA4B98"/>
</g>
<defs>
<clipPath id="clip0_2865_1239">
<rect width="312" height="233" fill="white"/>
</clipPath>
</defs>
</svg>
