<svg width="24" height="24" viewBox="0 0 24 24" fill="none" xmlns="http://www.w3.org/2000/svg">
<circle cx="12" cy="12" r="12" fill="#F3E3F1"/>
<g clip-path="url(#clip0_2606_5144)">
<path opacity="0.993" fill-rule="evenodd" clip-rule="evenodd" d="M18.9863 11.084C18.9863 11.4486 18.9863 11.8132 18.9863 12.1777C18.7156 14.1204 17.7677 15.638 16.1426 16.7305C14.2592 17.8981 12.2358 18.2262 10.0723 17.7149C9.74988 17.6317 9.43543 17.5269 9.12891 17.4004C8.39779 17.8 7.62761 18.1053 6.81836 18.3164C6.29528 18.4563 5.76664 18.5702 5.23242 18.6582C5.13016 18.6467 5.04813 18.6011 4.98633 18.5215C4.98633 18.4395 4.98633 18.3574 4.98633 18.2754C5.16011 18.1197 5.30139 17.9374 5.41016 17.7285C5.80619 16.8695 6.02494 15.9672 6.06641 15.0215C5.46861 14.1633 5.10859 13.2154 4.98633 12.1777C4.98633 11.8132 4.98633 11.4486 4.98633 11.084C5.20638 9.39968 5.972 8.01882 7.2832 6.94142C9.07635 5.5794 11.0907 5.0781 13.3262 5.43752C15.4331 5.82373 17.06 6.91292 18.207 8.70509C18.6296 9.44854 18.8893 10.2415 18.9863 11.084ZM8.51367 10.7285C9.0854 10.6766 9.45454 10.9227 9.62109 11.4668C9.67748 11.9968 9.45416 12.3477 8.95117 12.5195C8.3644 12.6066 7.98616 12.3651 7.81641 11.7949C7.78163 11.2608 8.01405 10.9053 8.51367 10.7285ZM11.7949 10.7285C12.4375 10.6968 12.8112 10.9975 12.916 11.6309C12.8521 12.1869 12.5423 12.4968 11.9863 12.5606C11.4304 12.4968 11.1205 12.1869 11.0566 11.6309C11.1152 11.1717 11.3613 10.8709 11.7949 10.7285ZM15.0488 10.7285C15.7904 10.6999 16.1595 11.0554 16.1562 11.7949C16.0186 12.3065 15.6859 12.5571 15.1582 12.5469C14.576 12.4205 14.3071 12.0604 14.3516 11.4668C14.4494 11.0911 14.6818 10.845 15.0488 10.7285Z" fill="#EA4B98"/>
</g>
<defs>
<clipPath id="clip0_2606_5144">
<rect width="14" height="14" fill="white" transform="translate(5 5)"/>
</clipPath>
</defs>
</svg>
