<svg width="25.000000" height="27.000000" viewBox="0 0 25 27" fill="none" xmlns="http://www.w3.org/2000/svg" xmlns:xlink="http://www.w3.org/1999/xlink">
	<desc>
			Created with Pixso.
	</desc>
	<defs>
		<clipPath id="clip1718_2036">
			<rect id="check 1" rx="7.000000" width="25.000000" height="26.041666" fill="white" fill-opacity="0"/>
		</clipPath>
	</defs>
	<rect id="check 1" rx="7.000000" width="25.000000" height="26.041666" fill="#FFFFFF" fill-opacity="0"/>
	<g clip-path="url(#clip1718_2036)">
		<path id="Vector" d="M2.31 -0.03C9.09 -0.03 15.86 -0.03 22.63 -0.03C23.88 0.29 24.66 1.1 24.97 2.41C24.97 9.46 24.97 16.52 24.97 23.57C24.66 24.88 23.88 25.69 22.63 26.01C15.86 26.01 9.09 26.01 2.31 26.01C1.06 25.69 0.28 24.87 -0.03 23.57C-0.03 16.52 -0.03 9.46 -0.03 2.41C0.28 1.11 1.06 0.29 2.31 -0.03Z" fill="#4CAF50" fill-opacity="1.000000" fill-rule="evenodd"/>
		<path id="Vector" d="M17.84 8.36C18.71 8.34 19.13 8.79 19.09 9.68C19.05 9.85 18.98 10 18.89 10.14C16.57 12.56 14.25 14.97 11.93 17.39C11.51 17.69 11.09 17.69 10.66 17.39C9.47 16.14 8.27 14.9 7.08 13.65C6.7 12.9 6.87 12.34 7.59 11.95C7.92 11.88 8.22 11.93 8.52 12.1C9.44 13.07 10.36 14.03 11.3 14.97C13.37 12.84 15.44 10.69 17.5 8.54C17.62 8.48 17.73 8.42 17.84 8.36Z" fill="#F9F9F9" fill-opacity="1.000000" fill-rule="evenodd"/>
	</g>
</svg>
