<svg width="107" height="107" viewBox="0 0 107 107" fill="none" xmlns="http://www.w3.org/2000/svg">
<g clip-path="url(#clip0_2643_908)">
<path d="M83.1332 83.9031C99.4983 67.538 99.4983 41.0049 83.1332 24.6398C66.7681 8.27473 40.235 8.27473 23.8699 24.6398C7.50482 41.0049 7.50482 67.538 23.8699 83.9031C40.235 100.268 66.7681 100.268 83.1332 83.9031Z" fill="url(#paint0_linear_2643_908)"/>
<path d="M53.5174 95.3629C72.2054 95.3629 87.355 93.7178 87.355 91.6885C87.355 89.6592 72.2054 88.0142 53.5174 88.0142C34.8293 88.0142 19.6797 89.6592 19.6797 91.6885C19.6797 93.7178 34.8293 95.3629 53.5174 95.3629Z" fill="#BDDDFF"/>
<path d="M68.6962 72.2527C68.2682 57.6793 73.5155 43.596 81.5362 33.9253" stroke="#091A50" stroke-width="1.14" stroke-miterlimit="10"/>
<path d="M73.5862 43.3522C74.3481 35.7702 68.5401 39.971 79.9634 33.5082C81.776 32.4853 79.5354 33.9876 77.0894 39.5944C76.2056 41.7044 73.0234 47.6558 71.4013 53.1855C69.0131 61.1356 71.4227 56.1195 70.4683 48.3021C70.1644 44.7111 69.287 41.3406 71.8379 38.6293C73.0491 40.245 73.6055 42.3079 73.5862 43.3522Z" fill="#0E336A"/>
<path d="M85.9458 32.0786C86.3738 31.1221 86.4359 29.6947 86.4701 28.4021C88.914 27.223 91.238 26.9726 92.3744 27.2101C88.3212 29.6005 87.2191 32.5409 85.0556 35.7701C78.9544 44.4521 72.8148 48.5417 69.9258 58.5975C72.1107 49.9348 72.986 48.5395 76.4571 40.2684C78.3381 35.7273 81.409 31.0664 85.7853 28.7488C86.0933 29.8318 86.1482 30.9711 85.9458 32.0786Z" fill="#0E3E86"/>
<path d="M29.5349 88.3822C28.6254 73.644 21.7281 70.2093 17.3711 66.5264" stroke="#091A50" stroke-width="0.8" stroke-miterlimit="10"/>
<path d="M20.309 70.7268C19.7355 70.6326 18.5627 70.7867 17.3943 71.418C17.1589 70.4015 17.2766 68.8928 16.793 67.2129C19.361 68.9078 20.6835 68.7687 25.2224 73.986C22.7272 71.4308 18.4836 74.0031 17.5398 71.8802C18.261 71.3602 19.5086 70.6883 20.309 70.7268Z" fill="#0E336A"/>
<path d="M16.9218 64.187C16.391 64.1014 15.6998 64.3389 14.9401 64.6449C14.4479 63.4572 14.358 62.2032 14.4672 61.5483C15.3424 62.6376 16.3033 63.0185 17.3241 63.4315C22.811 65.6272 22.2461 70.0848 25.608 74.4247C19.5005 67.337 17.0138 69.0062 15.0792 64.9574C15.6227 64.5565 16.2547 64.2923 16.9218 64.187Z" fill="#0E3E86"/>
<path d="M29.5322 88.3818C29.9025 75.6231 25.3143 63.2988 18.293 54.833" stroke="#091A50" stroke-miterlimit="10"/>
<path d="M25.2556 63.0914C24.5901 56.4574 29.6726 60.1318 19.6745 54.4758C18.0888 53.5813 20.0512 54.9038 22.189 59.8022C22.9637 61.6491 25.7478 66.8642 27.1688 71.6985C29.2596 78.6578 27.1495 74.2665 27.9863 67.4185C28.2516 64.2748 29.0199 61.3259 26.7857 58.9505C25.72 60.3715 25.2342 62.1776 25.2556 63.0914Z" fill="#0E336A"/>
<path d="M14.4307 53.2241C14.0627 52.3874 14.0027 51.1376 13.9706 50.0141C11.8306 48.9826 9.79765 48.7643 8.80469 48.9719C12.3507 51.0648 13.3179 53.6393 15.2097 56.4619C20.5597 64.0611 25.9247 67.6391 28.452 76.441C26.5389 68.8589 25.7749 67.6413 22.7361 60.391C21.0883 56.417 18.4026 52.3446 14.572 50.3094C14.3018 51.2573 14.2535 52.2546 14.4307 53.2241Z" fill="#0E3E86"/>
<path d="M80.1357 56.2325V87.07C80.1365 87.4382 80.0621 87.8028 79.9171 88.1413C79.7721 88.4798 79.5596 88.7852 79.2925 89.0387C79.286 89.0464 79.2788 89.0536 79.2711 89.0602C78.7675 89.533 78.1023 89.7955 77.4115 89.7942H29.5953C28.9045 89.7955 28.2393 89.533 27.7357 89.0602L27.7143 89.0387C27.4472 88.7852 27.2347 88.4798 27.0897 88.1413C26.9447 87.8028 26.8703 87.4382 26.8711 87.07V56.2325C26.8713 55.3836 27.056 54.5448 27.4126 53.7743C27.7692 53.0039 28.2891 52.3202 28.9362 51.7706L50.4753 33.4843C51.3209 32.7663 52.3941 32.3721 53.5034 32.3721C54.6127 32.3721 55.6859 32.7663 56.5315 33.4843L78.0706 51.7706C78.7177 52.3202 79.2376 53.0039 79.5942 53.7743C79.9508 54.5448 80.1356 55.3836 80.1357 56.2325Z" fill="#EA4B98"/>
<path d="M45.7851 14.8667C45.3224 15.0979 44.9591 15.4889 44.7623 15.9673C44.5656 16.4457 44.5489 16.9792 44.7151 17.469C44.852 17.8639 45.1025 18.2096 45.4354 18.4624C45.7682 18.7153 46.1683 18.864 46.5855 18.8899C46.7932 18.9075 46.9922 18.9813 47.1611 19.1035C47.3301 19.2256 47.4625 19.3915 47.5442 19.5833L52.5646 30.9531C52.9482 31.8121 53.0362 32.774 52.8147 33.6883C52.5932 34.6025 52.0747 35.4175 51.3406 36.0057C51.5188 36.1881 51.686 36.3811 51.8413 36.5835C52.6991 35.9107 53.3086 34.9716 53.5736 33.9142C53.8386 32.8568 53.7442 31.7412 53.3051 30.7434L48.2418 19.2751C48.156 19.0818 48.1244 18.8687 48.1504 18.6587C48.1764 18.4487 48.2591 18.2498 48.3895 18.0832C48.6826 17.7046 48.8391 17.2381 48.8337 16.7594C48.8282 16.2806 48.6611 15.8178 48.3595 15.446C48.0578 15.0742 47.6394 14.8153 47.1721 14.7113C46.7047 14.6073 46.216 14.6644 45.7851 14.8732V14.8667ZM47.2703 18.019C47.024 18.1276 46.7511 18.1608 46.486 18.1143C46.2209 18.0679 45.9755 17.9439 45.7809 17.758C45.5862 17.5721 45.4511 17.3326 45.3925 17.0699C45.3339 16.8072 45.3546 16.5331 45.4518 16.2821C45.549 16.0311 45.7184 15.8146 45.9387 15.6599C46.159 15.5052 46.4201 15.4193 46.6892 15.4131C46.9583 15.4068 47.2232 15.4804 47.4504 15.6247C47.6776 15.7689 47.857 15.9773 47.9658 16.2235C48.1106 16.554 48.1187 16.9283 47.9884 17.2647C47.8581 17.6011 47.5999 17.8723 47.2703 18.019Z" fill="#091A50"/>
<path d="M46.4169 16.1378L45.6144 14.4558C45.1201 13.4286 44.5166 10.1565 45.9419 8.03576C47.3671 5.91502 50.4894 5.56406 53.8877 8.67776C59.8347 14.1112 64.4465 21.567 69.1437 22.1897C73.0428 22.7076 74.8597 19.6346 74.6029 17.4432C74.376 15.5022 72.4993 13.4842 69.0603 14.0406C63.6011 14.9223 61.5917 22.3866 66.9203 26.5232C71.9985 30.4737 85.8572 28.7552 85.8572 0.48584" stroke="#091A50" stroke-width="2" stroke-miterlimit="10"/>
<g style="mix-blend-mode:multiply" opacity="0.5">
<path d="M68.3867 30.9659L32.9961 37.3911L40.1105 76.5781L75.5011 70.1529L68.3867 30.9659Z" fill="#808080"/>
</g>
<path d="M67.6992 29.3658L32.3086 35.791L39.423 74.978L74.8136 68.5528L67.6992 29.3658Z" fill="white"/>
<path d="M64.4247 49.8908L42.7648 53.8691C42.3316 53.9487 42.045 54.3643 42.1245 54.7975L42.5352 57.0332C42.6147 57.4663 43.0304 57.753 43.4636 57.6734L65.1235 53.6951C65.5566 53.6155 65.8433 53.1999 65.7637 52.7667L65.3531 50.5311C65.2736 50.0979 64.8579 49.8112 64.4247 49.8908Z" fill="white"/>
<path d="M64.3933 49.971L42.6469 53.919C42.2119 53.998 41.9234 54.4146 42.0023 54.8495L42.4098 57.094C42.4888 57.529 42.9054 57.8175 43.3403 57.7386L65.0867 53.7905C65.5216 53.7115 65.8102 53.2949 65.7313 52.86L65.3238 50.6155C65.2448 50.1806 64.8282 49.892 64.3933 49.971Z" fill="#E7ECF3"/>
<path d="M65.6511 55.9251L43.9047 59.8731C43.4698 59.9521 43.1812 60.3687 43.2602 60.8036L43.6677 63.0481C43.7466 63.4831 44.1632 63.7716 44.5981 63.6927L66.3446 59.7446C66.7795 59.6656 67.068 59.2491 66.9891 58.8141L66.5816 56.5696C66.5026 56.1347 66.086 55.8461 65.6511 55.9251Z" fill="white"/>
<path d="M65.4363 55.7122L43.6898 59.6603C43.2549 59.7392 42.9664 60.1558 43.0453 60.5907L43.4528 62.8353C43.5318 63.2702 43.9483 63.5587 44.3833 63.4798L66.1297 59.5317C66.5646 59.4527 66.8532 59.0362 66.7742 58.6012L66.3667 56.3567C66.2878 55.9218 65.8712 55.6332 65.4363 55.7122Z" fill="#E7ECF3"/>
<g style="mix-blend-mode:multiply" opacity="0.5">
<path d="M66.6941 61.6663L44.9476 65.6144C44.5127 65.6933 44.2242 66.1099 44.3031 66.5448L44.7106 68.7894C44.7896 69.2243 45.2062 69.5128 45.6411 69.4339L67.3875 65.4858C67.8224 65.4068 68.111 64.9903 68.032 64.5553L67.6245 62.3108C67.5456 61.8759 67.129 61.5873 66.6941 61.6663Z" fill="#000007"/>
</g>
<path d="M66.4792 61.4514L44.7328 65.3995C44.2979 65.4785 44.0093 65.895 44.0883 66.33L44.4958 68.5745C44.5747 69.0094 44.9913 69.298 45.4262 69.219L67.1727 65.271C67.6076 65.192 67.8962 64.7754 67.8172 64.3405L67.4097 62.096C67.3307 61.661 66.9142 61.3725 66.4792 61.4514Z" fill="#0E3E86"/>
<path d="M58.1292 46.539C59.3514 43.2333 57.6624 39.5627 54.3567 38.3405C51.0509 37.1184 47.3804 38.8074 46.1582 42.1131C44.9361 45.4188 46.6251 49.0894 49.9308 50.3116C53.2365 51.5337 56.9071 49.8447 58.1292 46.539Z" fill="#0E3E86"/>
<path d="M57.6557 46.1033C58.6376 43.0596 56.9662 39.7961 53.9225 38.8142C50.8788 37.8323 47.6153 39.5037 46.6334 42.5474C45.6515 45.5912 47.3229 48.8546 50.3666 49.8365C53.4103 50.8184 56.6738 49.147 57.6557 46.1033Z" fill="#E7ECF3"/>
<path d="M52.4539 46.0614C53.8749 45.8034 54.7746 44.2047 54.4634 42.4906C54.1522 40.7766 52.748 39.5962 51.3269 39.8542C49.9059 40.1121 49.0062 41.7108 49.3174 43.4249C49.6286 45.139 51.0328 46.3194 52.4539 46.0614Z" fill="#EA4B98"/>
<path d="M52.5368 46.5086C51.1675 46.7374 49.8685 47.2753 48.7383 48.0815C49.3322 48.5585 50.0216 48.9025 50.7599 49.0901C51.4982 49.2778 52.2682 49.3048 53.0178 49.1692C53.7674 49.0337 54.4792 48.7389 55.1051 48.3046C55.7309 47.8703 56.2563 47.3068 56.6456 46.652C55.3047 46.2923 53.8995 46.2432 52.5368 46.5086Z" fill="#EA4B98"/>
<path d="M55.9376 77.9614L54.0955 67.8147L55.6405 67.5342L57.244 76.3664L59.1984 76.0116L59.437 77.3261L55.9376 77.9614ZM60.8554 93.4373C60.4403 93.5126 60.081 93.5124 59.7774 93.4365C59.4731 93.3567 59.2163 93.2108 59.0071 92.9987C58.801 92.782 58.6297 92.5054 58.4932 92.1689C58.3598 91.8279 58.2523 91.4325 58.1706 90.9829L57.5835 87.7486C57.4851 87.2067 57.4674 86.7156 57.5304 86.2754C57.5965 85.8307 57.7678 85.4621 58.0443 85.1697C58.32 84.8735 58.7212 84.6776 59.2477 84.582C59.6474 84.5095 59.9959 84.5157 60.2932 84.6007C60.5944 84.6849 60.8503 84.837 61.0609 85.0568C61.2747 85.2721 61.4507 85.5419 61.589 85.8661C61.7272 86.1904 61.8334 86.5562 61.9073 86.9636L62.4945 90.1979C62.5747 90.6399 62.612 91.042 62.6063 91.4043C62.6045 91.7659 62.5436 92.0867 62.4237 92.3665C62.3069 92.6418 62.1221 92.8699 61.8691 93.0508C61.6161 93.2317 61.2782 93.3605 60.8554 93.4373ZM60.6314 92.2035C60.8044 92.1721 60.9256 92.0965 60.9952 91.9767C61.064 91.8531 61.0967 91.6943 61.0933 91.5004C61.0899 91.3064 61.0658 91.0865 61.0211 90.8405L60.3188 86.9721C60.2714 86.7108 60.2133 86.4891 60.1445 86.307C60.0757 86.125 59.9877 85.9901 59.8805 85.9024C59.7732 85.8146 59.637 85.7858 59.4717 85.8158C59.2987 85.8472 59.1756 85.9231 59.1022 86.0437C59.0326 86.1635 58.9976 86.3207 58.9972 86.5153C59.0007 86.7092 59.0261 86.9368 59.0736 87.1982L59.7759 91.0666C59.8205 91.3126 59.8753 91.5269 59.9403 91.7097C60.0091 91.8917 60.0974 92.0285 60.2054 92.1201C60.3164 92.2071 60.4585 92.2349 60.6314 92.2035ZM63.8321 110.391C63.3569 110.485 62.9431 110.513 62.5906 110.474C62.2387 110.438 61.9062 110.334 61.5928 110.16L61.9542 109.1C62.1816 109.194 62.4218 109.26 62.6747 109.297C62.9322 109.338 63.2009 109.331 63.4808 109.276C63.7722 109.219 63.9766 109.077 64.094 108.849C64.2115 108.621 64.2399 108.34 64.1792 108.006L64.0546 107.32C64.007 107.626 63.8892 107.852 63.7012 107.997C63.517 108.142 63.2789 108.241 62.9868 108.294C62.5794 108.368 62.2389 108.318 61.9654 108.145C61.6957 107.972 61.479 107.708 61.3152 107.352C61.1515 106.997 61.0267 106.583 60.9409 106.11L60.4353 103.326C60.3439 102.822 60.3126 102.365 60.3413 101.955C60.3694 101.541 60.4839 101.199 60.6849 100.928C60.8858 100.657 61.1981 100.486 61.6215 100.413C61.9175 100.359 62.1751 100.39 62.3945 100.505C62.6178 100.619 62.7933 100.809 62.9211 101.076L62.7819 100.309L64.3096 100.032L65.686 107.613C65.7481 107.955 65.7669 108.277 65.7423 108.579C65.7171 108.878 65.6349 109.147 65.4958 109.386C65.3574 109.63 65.1526 109.836 64.8814 110.004C64.611 110.176 64.2612 110.305 63.8321 110.391ZM63.3818 107.025C63.5201 107 63.6262 106.939 63.6999 106.842C63.773 106.741 63.8125 106.587 63.8185 106.38C63.8238 106.168 63.7936 105.882 63.7281 105.521L63.2141 102.69C63.1451 102.31 63.0438 102.014 62.9104 101.804C62.777 101.594 62.5892 101.511 62.3471 101.555C62.1626 101.589 62.0359 101.667 61.9671 101.791C61.8982 101.915 61.8674 102.073 61.8747 102.266C61.8813 102.456 61.9066 102.671 61.9505 102.914L62.4676 105.762C62.545 106.188 62.6468 106.519 62.7729 106.754C62.8982 106.986 63.1012 107.076 63.3818 107.025ZM64.5349 125.185L62.9649 116.537L64.4927 116.26L66.0627 124.908L64.5349 125.185ZM62.8147 115.743L62.574 114.417L64.1133 114.137L64.354 115.463L62.8147 115.743ZM67.3642 140.933L65.7942 132.285L67.322 132.008L67.502 133C67.5251 132.69 67.6401 132.405 67.847 132.145C68.0533 131.881 68.3351 131.717 68.6925 131.652C69.1922 131.561 69.5972 131.66 69.9078 131.949C70.2176 132.235 70.4297 132.692 70.5442 133.323L71.7803 140.131L70.2525 140.409L69.0332 133.692C68.9878 133.442 68.8946 133.257 68.7534 133.136C68.6162 133.014 68.4495 132.97 68.2535 133.006C68.0959 133.035 67.9694 133.103 67.874 133.212C67.7818 133.316 67.7227 133.45 67.6968 133.613C67.6702 133.773 67.6754 133.955 67.7124 134.158L68.892 140.656L67.3642 140.933Z" fill="#F2FFFF"/>
<path d="M51.7898 36.1468C52.0616 36.5299 52.1943 36.9022 52.0851 36.9793C51.976 37.0563 51.6678 36.8102 51.396 36.4271C51.1243 36.0441 50.9916 35.6717 51.1007 35.5947C51.2099 35.5176 51.5244 35.7637 51.7898 36.1468Z" fill="#091A50"/>
<path d="M50.5833 36.4697C49.689 36.8894 48.6741 36.976 47.7216 36.7139C46.769 36.4518 45.9413 35.8583 45.3874 35.0402C45.2704 34.8571 45.1975 34.6492 45.1745 34.4331C45.1515 34.217 45.1789 33.9984 45.2547 33.7947C45.3182 33.6076 45.3285 33.4066 45.2847 33.214C45.2409 33.0213 45.1446 32.8446 45.0065 32.7033L42.7017 30.3493C42.6785 30.3312 42.65 30.321 42.6206 30.3203C42.5911 30.3197 42.5622 30.3285 42.5381 30.3456C42.5141 30.3627 42.4962 30.387 42.4871 30.4151C42.478 30.4431 42.4783 30.4734 42.4877 30.5013L43.1297 31.9693L44.2917 34.6015C45.3617 37.0433 48.1908 38.2652 50.6625 37.2615C51.0856 37.0893 51.4825 36.8588 51.8417 36.5767C51.6864 36.3744 51.5192 36.1814 51.3409 35.9989C51.1062 36.1829 50.8522 36.3408 50.5833 36.4697Z" fill="#091A50"/>
<g style="mix-blend-mode:multiply">
<path d="M26.8711 58.4414L50.8198 68.5593C51.669 68.9184 52.5815 69.1033 53.5034 69.1033C54.4253 69.1033 55.3378 68.9184 56.187 68.5593L80.1357 58.4414V78.0502H26.8711V58.4414Z" fill="#BDDDFF"/>
</g>
<path d="M50.4753 71.7497L27.7357 91.0546L27.7143 91.0333C27.4472 90.7797 27.2347 90.4743 27.0897 90.1358C26.9447 89.7973 26.8703 89.4327 26.8711 89.0645V58.2271L49.7092 71.311L50.4753 71.7497Z" fill="#6ABFD2"/>
<path d="M80.1355 58.2271V89.0645C80.1362 89.4327 80.0618 89.7973 79.9169 90.1358C79.7719 90.4743 79.5594 90.7797 79.2923 91.0333C79.2857 91.0409 79.2786 91.0481 79.2709 91.0546L56.5312 71.7497L57.2974 71.3217L80.1355 58.2271Z" fill="#6ABFD2"/>
<path d="M80.1355 58.4414V89.2788C80.1362 89.6471 80.0618 90.0116 79.9169 90.3501C79.7719 90.6887 79.5594 90.994 79.2923 91.2476C79.2857 91.2553 79.2786 91.2624 79.2709 91.269L56.5312 71.9641L57.2974 71.5361L80.1355 58.4414Z" fill="#EA4B98"/>
<path d="M50.4753 71.9641L27.7357 91.269L27.7143 91.2476C27.4472 90.994 27.2347 90.6887 27.0897 90.3501C26.9447 90.0116 26.8703 89.6471 26.8711 89.2788V58.4414L49.7092 71.5254L50.4753 71.9641Z" fill="#EA4B98"/>
<g style="mix-blend-mode:multiply">
<path d="M50.472 71.9641L27.7323 91.269L27.7109 91.2476L49.7059 71.5254L50.472 71.9641Z" fill="#BDDDFF"/>
</g>
<g style="mix-blend-mode:multiply">
<path d="M79.2923 91.2477C79.2857 91.2553 79.2786 91.2625 79.2709 91.2691L56.5312 71.9641L57.2974 71.5361L79.2923 91.2477Z" fill="#BDDDFF"/>
</g>
<path d="M79.2699 91.0549C78.7662 91.5277 78.101 91.7903 77.4102 91.7889H29.594C28.9032 91.7903 28.238 91.5277 27.7344 91.0549L50.474 71.75C51.3196 71.0319 52.3928 70.6377 53.5021 70.6377C54.6114 70.6377 55.6847 71.0319 56.5302 71.75L79.2699 91.0549Z" fill="#6ABFD2"/>
<path d="M79.2699 91.2688C78.7662 91.7416 78.101 92.0042 77.4102 92.0028H29.594C28.9032 92.0042 28.238 91.7416 27.7344 91.2688L50.474 71.9638C51.3196 71.2458 52.3928 70.8516 53.5021 70.8516C54.6114 70.8516 55.6847 71.2458 56.5302 71.9638L79.2699 91.2688Z" fill="#EA4B98"/>
<path d="M40.9765 59.5328C30.1096 54.3562 13.4304 39.7271 13.6188 33.1252C13.7343 29.1641 25.3609 31.8412 33.4031 34.4691" stroke="#091A50" stroke-width="1.07" stroke-miterlimit="10" stroke-dasharray="3.2 3.2"/>
<path d="M39.9692 58.6747C29.8642 52.1306 15.2137 35.4729 16.2645 28.9523C16.6775 26.3672 21.7001 27.3066 27.2619 29.2925" stroke="#091A50" stroke-width="1.07" stroke-miterlimit="10" stroke-dasharray="3.2 3.2"/>
<path d="M68.0547 75.97C78.9216 70.789 95.6029 56.1643 95.4124 49.5624C95.3161 46.1705 86.7711 47.6535 79.2683 49.7957" stroke="#091A50" stroke-width="1.07" stroke-miterlimit="10" stroke-dasharray="3.2 3.2"/>
<path d="M69.0625 75.1142C79.1697 68.5701 93.818 51.9123 92.7758 45.3917C92.3628 42.8066 87.3424 43.7461 81.7805 45.732" stroke="#091A50" stroke-width="1.07" stroke-miterlimit="10" stroke-dasharray="3.2 3.2"/>
</g>
<defs>
<linearGradient id="paint0_linear_2643_908" x1="53.5021" y1="92.2599" x2="53.5021" y2="-34.443" gradientUnits="userSpaceOnUse">
<stop stop-color="white"/>
<stop offset="0.25" stop-color="#FBFDFF"/>
<stop offset="0.49" stop-color="#F0F7FF"/>
<stop offset="0.72" stop-color="#DCEDFF"/>
<stop offset="0.95" stop-color="#C1DFFF"/>
<stop offset="0.98" stop-color="#BDDDFF"/>
</linearGradient>
<clipPath id="clip0_2643_908">
<rect width="107" height="107" fill="white"/>
</clipPath>
</defs>
</svg>
