<svg width="20" height="20" viewBox="0 0 20 20" fill="none" xmlns="http://www.w3.org/2000/svg">
<g clip-path="url(#clip0_2071_9)">
<path d="M4.94925 6.96956L6.96956 8.98986L3.9391 12.0203C2.82331 13.1361 2.82331 14.9451 3.9391 16.0609C5.05488 17.1767 6.86392 17.1767 7.97971 16.0609L11.0102 13.0305L13.0305 15.0508L10 18.0812C7.76845 20.3128 4.15036 20.3128 1.91879 18.0812C-0.312775 15.8497 -0.312775 12.2316 1.91879 10L4.94925 6.96956ZM6.96956 4.94925L10 1.91879C12.2316 -0.312775 15.8497 -0.312775 18.0812 1.91879C20.3128 4.15036 20.3128 7.76845 18.0812 10L15.0508 13.0305L13.0305 11.0102L16.0609 7.97971C17.1767 6.86392 17.1767 5.05488 16.0609 3.9391C14.9451 2.82331 13.1361 2.82331 12.0203 3.9391L8.98986 6.96956L6.96956 4.94925ZM6.96956 11.0102L11.0102 6.96956C11.5681 6.41166 12.4726 6.41166 13.0305 6.96956C13.5884 7.52745 13.5884 8.43197 13.0305 8.98986L8.98986 13.0305C8.43197 13.5884 7.52745 13.5884 6.96956 13.0305C6.41166 12.4726 6.41166 11.5681 6.96956 11.0102Z" fill="white"/>
</g>
<defs>
<clipPath id="clip0_2071_9">
<rect width="20" height="20" fill="white"/>
</clipPath>
</defs>
</svg>
