<svg width="30.000000" height="30.000000" viewBox="0 0 30 30" fill="none" xmlns="http://www.w3.org/2000/svg" xmlns:xlink="http://www.w3.org/1999/xlink">
	<desc>
			Created with Pixso.
	</desc>
	<defs>
		<clipPath id="clip1718_2057">
			<rect id="shopify-color-svgrepo-com 1" width="18.837210" height="18.837210" transform="translate(5.581055 5.581055)" fill="white" fill-opacity="0"/>
		</clipPath>
	</defs>
	<rect id="Rectangle 40361" rx="6.000000" width="30.000000" height="30.000000" fill="#FFFFFF" fill-opacity="0"/>
	<rect id="Rectangle 40361" x="0.500000" y="0.500000" rx="6.000000" width="29.000000" height="29.000000" stroke="#FFFFFF" stroke-opacity="1.000000" stroke-width="1.000000"/>
	<rect id="shopify-color-svgrepo-com 1" width="18.837210" height="18.837210" transform="translate(5.581055 5.581055)" fill="#FFFFFF" fill-opacity="0"/>
	<g clip-path="url(#clip1718_2057)">
		<path id="Shopify" d="M18.86 8.32C19.17 8.63 19.52 8.98 19.52 8.98C19.52 8.98 20.96 9.08 21.03 9.09C21.09 9.1 21.18 9.15 21.19 9.24C21.2 9.34 23.24 23.15 23.24 23.15L18.25 24.24L18.86 8.32ZM18.09 7.8C18.06 7.8 18.02 7.81 18 7.82C17.99 7.82 17.78 7.88 17.44 7.99C17.11 7.02 16.52 6.14 15.48 6.14C15.45 6.14 15.42 6.14 15.39 6.14C15.09 5.75 14.73 5.58 14.41 5.58C12 5.58 10.84 8.61 10.48 10.16C9.54 10.45 8.87 10.66 8.79 10.68C8.26 10.85 8.25 10.87 8.18 11.36C8.13 11.74 6.75 22.4 6.75 22.4L17.44 24.41L17.45 24.41L18.09 7.8ZM15.31 8.55C15.31 8.58 15.31 8.62 15.31 8.65C14.72 8.84 14.08 9.04 13.44 9.23C13.8 7.84 14.48 7.17 15.07 6.91C15.21 7.29 15.31 7.82 15.31 8.55ZM14.35 6.23C14.45 6.23 14.56 6.26 14.66 6.33C13.88 6.7 13.05 7.62 12.7 9.46C12.19 9.62 11.69 9.78 11.22 9.92C11.64 8.52 12.61 6.23 14.35 6.23ZM14.76 14.44C14.76 14.44 14.14 14.11 13.37 14.11C12.25 14.11 12.19 14.82 12.19 15C12.19 15.97 14.72 16.34 14.72 18.63C14.72 20.42 13.58 21.58 12.06 21.58C10.22 21.58 9.28 20.43 9.28 20.43L9.77 18.8C9.77 18.8 10.74 19.63 11.55 19.63C12.08 19.63 12.3 19.21 12.3 18.91C12.3 17.63 10.22 17.58 10.22 15.49C10.22 13.73 11.48 12.03 14.02 12.03C14.99 12.03 15.48 12.31 15.48 12.31L14.76 14.44ZM15.94 8.46C15.94 8.39 15.94 8.33 15.94 8.26C15.94 7.66 15.86 7.18 15.73 6.79C16.26 6.86 16.62 7.47 16.85 8.17C16.58 8.26 16.28 8.35 15.94 8.46Z" fill="#FFFFFF" fill-opacity="1.000000" fill-rule="evenodd"/>
	</g>
</svg>
