<svg width="31" height="31" viewBox="0 0 31 31" fill="none" xmlns="http://www.w3.org/2000/svg">
<g clip-path="url(#clip0_1724_64)">
<path fill-rule="evenodd" clip-rule="evenodd" d="M2.87598 -0.0302734C11.2718 -0.0302734 19.6676 -0.0302734 28.0635 -0.0302734C29.6159 0.351576 30.5846 1.32033 30.9697 2.87598C30.9697 11.2718 30.9697 19.6676 30.9697 28.0635C30.5846 29.6191 29.6159 30.5879 28.0635 30.9697C19.6676 30.9697 11.2718 30.9697 2.87598 30.9697C1.32033 30.5846 0.351576 29.6159 -0.0302734 28.0635C-0.0302734 19.6676 -0.0302734 11.2718 -0.0302734 2.87598C0.351576 1.32355 1.32033 0.354803 2.87598 -0.0302734Z" fill="white"/>
<path fill-rule="evenodd" clip-rule="evenodd" d="M22.1298 9.95992C23.2094 9.93958 23.724 10.4643 23.6737 11.5341C23.6278 11.733 23.5471 11.9147 23.4315 12.0791C20.5556 14.955 17.6796 17.831 14.8036 20.707C14.277 21.065 13.7523 21.065 13.2294 20.707C11.746 19.2236 10.2626 17.7402 8.77919 16.2568C8.30904 15.3665 8.52096 14.6903 9.41493 14.2285C9.8215 14.1529 10.2049 14.2135 10.5653 14.4101C11.7064 15.5614 12.8568 16.7016 14.0165 17.831C16.5889 15.2889 19.1521 12.7358 21.7059 10.1718C21.8528 10.0984 21.9941 10.0278 22.1298 9.95992Z" fill="#9C9C9C"/>
</g>
<defs>
<clipPath id="clip0_1724_64">
<rect width="31" height="31" rx="7" fill="white"/>
</clipPath>
</defs>
</svg>
