<svg width="328" height="205" viewBox="0 0 328 205" fill="none" xmlns="http://www.w3.org/2000/svg">
<g clip-path="url(#clip0_2683_301)">
<path d="M328 0H0V205H328V0Z" fill="white"/>
<path d="M35.3928 175.004C35.4062 175.014 293.848 174.972 293.848 174.972C302.355 156.823 302.341 147.956 303.309 137.553C308.656 80.0517 265.35 71.2162 252.663 68.8187C213.816 61.4776 231.497 25.1537 130.27 31.9699C120.992 32.5942 99.1181 37.6372 91.5772 40.9038C86.2902 43.1937 66.3683 53.4386 60.5197 70.7682C58.6747 76.2376 58.2309 82.4133 60.0923 89.2664C66.6799 113.519 49.505 112.124 36.9549 123.684C20.2075 139.108 21.9582 164.334 35.3928 175.004Z" fill="#EA4B98" fill-opacity="0.13"/>
<path d="M189.341 174.988H189.376C189.425 174.988 189.474 174.978 189.52 174.959C189.566 174.94 189.607 174.911 189.642 174.876C189.677 174.84 189.704 174.798 189.722 174.752C189.74 174.706 189.749 174.656 189.748 174.607L189.184 150.171L187.523 149.977L188.939 174.609C188.945 174.711 188.99 174.808 189.065 174.878C189.139 174.949 189.238 174.988 189.341 174.988Z" fill="#B0D4FF"/>
<path d="M199.017 174.988H199.052C199.102 174.988 199.151 174.978 199.197 174.959C199.242 174.939 199.284 174.911 199.319 174.876C199.353 174.84 199.38 174.798 199.399 174.752C199.417 174.706 199.426 174.656 199.424 174.607L198.861 150.171L197.199 149.977L198.616 174.609C198.622 174.711 198.667 174.807 198.741 174.878C198.815 174.948 198.914 174.988 199.017 174.988Z" fill="#95C0F4"/>
<path d="M172.309 174.988H172.275C172.225 174.988 172.176 174.978 172.13 174.959C172.084 174.94 172.043 174.911 172.008 174.876C171.973 174.84 171.946 174.798 171.928 174.752C171.91 174.706 171.901 174.656 171.902 174.607L172.466 150.171L174.127 149.977L172.71 174.609C172.704 174.711 172.659 174.807 172.585 174.878C172.51 174.948 172.412 174.988 172.309 174.988Z" fill="#B0D4FF"/>
<path d="M200.119 148.654V131.91C200.119 130.496 199.557 129.141 198.558 128.141C197.558 127.142 196.202 126.58 194.789 126.58H182.725C181.311 126.581 179.956 127.143 178.957 128.143C177.958 129.142 177.396 130.497 177.395 131.91V149.295L200.119 148.654Z" fill="#B0D4FF"/>
<path d="M198.515 151.299H175.221V148.656H200.117V149.697C200.117 150.122 199.948 150.53 199.648 150.83C199.348 151.131 198.94 151.299 198.515 151.299Z" fill="#95C0F4"/>
<path d="M172.432 151.299H190.053C190.708 151.299 191.238 150.769 191.238 150.114V149.841C191.238 149.186 190.708 148.656 190.053 148.656H172.432C171.777 148.656 171.247 149.186 171.247 149.841V150.114C171.247 150.769 171.777 151.299 172.432 151.299Z" fill="#CAE5FF"/>
<path d="M213.038 60.522H143.488V120.56H213.038V60.522Z" fill="#EA4B98"/>
<path d="M211.686 61.5225H144.812V119.363H211.686V61.5225Z" fill="#F4A6CC"/>
<path d="M168.185 86.6883H153.531V68.39L156.016 66.1504H168.185V86.6883Z" fill="white"/>
<path d="M153.531 68.39H155.936L156.016 66.1504L153.531 68.39Z" fill="#B0D4FF"/>
<path d="M163.203 67.9307H158.512V68.1541H163.203V67.9307Z" fill="#B0D4FF"/>
<path d="M164.311 68.6011H157.41V68.8245H164.311V68.6011Z" fill="#B0D4FF"/>
<path d="M166.724 72.9062H155.266V73.1932H166.724V72.9062Z" fill="#B0D4FF"/>
<path d="M166.724 73.7783H155.266V74.0653H166.724V73.7783Z" fill="#B0D4FF"/>
<path d="M166.724 74.6519H155.266V74.9389H166.724V74.6519Z" fill="#B0D4FF"/>
<path d="M166.724 75.5239H155.266V75.8109H166.724V75.5239Z" fill="#B0D4FF"/>
<path d="M166.724 84.8599H155.266V85.1469H166.724V84.8599Z" fill="#B0D4FF"/>
<path d="M185.108 112.076H170.453V93.7772L172.939 91.5376H185.108V112.076Z" fill="white"/>
<path d="M170.453 93.7772H172.859L172.939 91.5376L170.453 93.7772Z" fill="#B0D4FF"/>
<path d="M180.126 93.3179H175.434V93.5413H180.126V93.3179Z" fill="#B0D4FF"/>
<path d="M181.229 93.9883H174.328V94.2117H181.229V93.9883Z" fill="#B0D4FF"/>
<path d="M183.646 98.2935H172.188V98.5805H183.646V98.2935Z" fill="#B0D4FF"/>
<path d="M183.646 99.1655H172.188V99.4525H183.646V99.1655Z" fill="#B0D4FF"/>
<path d="M183.646 100.038H172.188V100.325H183.646V100.038Z" fill="#B0D4FF"/>
<path d="M183.646 100.911H172.188V101.198H183.646V100.911Z" fill="#B0D4FF"/>
<path d="M183.646 103.596H172.188V103.883H183.646V103.596Z" fill="#B0D4FF"/>
<path d="M183.646 104.468H172.188V104.755H183.646V104.468Z" fill="#B0D4FF"/>
<path d="M183.646 105.479H172.188V105.766H183.646V105.479Z" fill="#B0D4FF"/>
<path d="M193.373 66.1504H185.281V73.2844H193.373V66.1504Z" fill="#B0D4FF"/>
<path d="M188.973 66.9992C188.973 66.929 188.993 66.8605 189.032 66.8021C189.071 66.7438 189.127 66.6984 189.192 66.6715C189.256 66.6447 189.328 66.6377 189.396 66.6513C189.465 66.665 189.528 66.6988 189.578 66.7484C189.628 66.798 189.661 66.8612 189.675 66.93C189.689 66.9988 189.682 67.0701 189.655 67.1349C189.628 67.1997 189.583 67.2551 189.524 67.2941C189.466 67.333 189.397 67.3538 189.327 67.3538C189.281 67.354 189.235 67.3449 189.191 67.3271C189.148 67.3093 189.109 67.2832 189.076 67.2503C189.043 67.2173 189.017 67.1782 188.999 67.1351C188.982 67.092 188.973 67.0458 188.973 66.9992Z" fill="#FFA412"/>
<path d="M193.111 75.5366L185.039 76.0996L185.535 83.2163L193.607 82.6533L193.111 75.5366Z" fill="white"/>
<path d="M188.817 77.1201C188.813 77.0503 188.829 76.9807 188.863 76.9201C188.898 76.8595 188.95 76.8106 189.013 76.7795C189.076 76.7484 189.146 76.7366 189.215 76.7456C189.285 76.7545 189.35 76.7839 189.402 76.8298C189.455 76.8758 189.493 76.9363 189.511 77.0038C189.53 77.0713 189.528 77.1427 189.505 77.2089C189.483 77.2752 189.442 77.3334 189.386 77.3761C189.331 77.4189 189.264 77.4443 189.194 77.4491C189.101 77.4553 189.009 77.4241 188.938 77.3625C188.867 77.3008 188.824 77.2136 188.817 77.1201Z" fill="#B0D4FF"/>
<path d="M166.224 101.817L158.152 102.38L158.649 109.497L166.72 108.934L166.224 101.817Z" fill="white"/>
<path d="M161.927 103.401C161.922 103.331 161.938 103.261 161.973 103.201C162.008 103.14 162.06 103.091 162.122 103.06C162.185 103.029 162.255 103.017 162.325 103.026C162.394 103.035 162.459 103.065 162.512 103.111C162.565 103.157 162.602 103.217 162.621 103.285C162.639 103.352 162.637 103.423 162.615 103.49C162.592 103.556 162.551 103.614 162.496 103.657C162.44 103.7 162.374 103.725 162.304 103.73C162.21 103.736 162.118 103.705 162.047 103.643C161.977 103.582 161.933 103.494 161.927 103.401Z" fill="#B0D4FF"/>
<path d="M156.075 106.919L147.984 107.002L148.058 114.136L156.149 114.053L156.075 106.919Z" fill="white"/>
<path d="M151.684 108.263C151.683 108.192 151.703 108.124 151.741 108.065C151.78 108.006 151.834 107.96 151.899 107.932C151.964 107.905 152.035 107.897 152.104 107.91C152.173 107.923 152.236 107.956 152.286 108.005C152.337 108.054 152.371 108.117 152.385 108.186C152.4 108.255 152.393 108.326 152.367 108.391C152.341 108.456 152.296 108.512 152.238 108.552C152.18 108.591 152.112 108.612 152.041 108.613C151.995 108.614 151.949 108.605 151.905 108.588C151.862 108.57 151.823 108.545 151.79 108.512C151.756 108.48 151.73 108.441 151.712 108.398C151.694 108.355 151.684 108.309 151.684 108.263Z" fill="#B0D4FF"/>
<path d="M205.371 81.2493L197.406 79.8262L196.152 86.849L204.117 88.2721L205.371 81.2493Z" fill="#EEF6FF"/>
<path d="M200.911 81.4435C200.922 81.3837 200.95 81.3283 200.992 81.2844C201.034 81.2406 201.088 81.2102 201.148 81.1971C201.207 81.1841 201.269 81.1889 201.326 81.211C201.382 81.2331 201.431 81.2715 201.466 81.3214C201.501 81.3713 201.52 81.4303 201.521 81.4911C201.522 81.5519 201.506 81.6117 201.473 81.6629C201.44 81.7142 201.393 81.7546 201.337 81.779C201.282 81.8035 201.22 81.8108 201.16 81.8002C201.12 81.7932 201.082 81.7784 201.048 81.7566C201.014 81.7349 200.985 81.7066 200.962 81.6735C200.939 81.6404 200.922 81.603 200.913 81.5635C200.905 81.5241 200.904 81.4833 200.911 81.4435Z" fill="#78ACEA"/>
<path d="M180.513 75.3746L172.469 76.2456L173.237 83.3381L181.281 82.4671L180.513 75.3746Z" fill="#EEF6FF"/>
<path d="M176.287 76.8135C176.28 76.7531 176.292 76.6922 176.32 76.6383C176.348 76.5845 176.392 76.5402 176.445 76.511C176.498 76.4818 176.559 76.469 176.619 76.4743C176.68 76.4796 176.738 76.5027 176.785 76.5407C176.832 76.5787 176.867 76.6298 176.886 76.6877C176.904 76.7456 176.905 76.8077 176.888 76.866C176.871 76.9244 176.837 76.9765 176.791 77.0156C176.745 77.0548 176.688 77.0794 176.627 77.0862C176.587 77.0908 176.546 77.0873 176.507 77.076C176.468 77.0648 176.432 77.046 176.4 77.0206C176.369 76.9953 176.342 76.9639 176.323 76.9284C176.304 76.8929 176.291 76.8538 176.287 76.8135Z" fill="#78ACEA"/>
<path d="M159.511 92.237L151.598 93.9248L153.086 100.902L160.999 99.2141L159.511 92.237Z" fill="#BAE8E3"/>
<path d="M155.585 94.2909C155.534 94.2577 155.494 94.2101 155.47 94.1542C155.446 94.0983 155.439 94.0366 155.451 93.9769C155.462 93.9172 155.49 93.8621 155.533 93.8187C155.575 93.7752 155.63 93.7453 155.689 93.7327C155.749 93.7202 155.81 93.7255 155.867 93.748C155.923 93.7706 155.972 93.8093 156.006 93.8594C156.041 93.9094 156.059 93.9686 156.06 94.0293C156.061 94.0901 156.044 94.1497 156.011 94.2007C155.989 94.2347 155.96 94.264 155.927 94.287C155.894 94.3099 155.856 94.326 155.816 94.3344C155.777 94.3428 155.736 94.3433 155.696 94.3358C155.656 94.3283 155.618 94.3131 155.585 94.2909Z" fill="#FFA412"/>
<path d="M180.724 73.2834H173.023V68.1092L175.155 66.1504H180.724V73.2834Z" fill="white"/>
<path d="M172.98 68.1092H175.084L175.153 66.1504L172.98 68.1092Z" fill="#B0D4FF"/>
<path d="M176.902 66.8103C176.902 66.7602 176.917 66.7113 176.945 66.6696C176.973 66.628 177.012 66.5956 177.059 66.5764C177.105 66.5572 177.156 66.5522 177.205 66.562C177.254 66.5718 177.299 66.5959 177.335 66.6313C177.37 66.6667 177.394 66.7118 177.404 66.7609C177.414 66.81 177.409 66.8609 177.389 66.9072C177.37 66.9534 177.338 66.993 177.296 67.0208C177.255 67.0486 177.206 67.0635 177.156 67.0635C177.122 67.0636 177.089 67.0572 177.058 67.0445C177.028 67.0318 177 67.0132 176.976 66.9896C176.953 66.9661 176.934 66.9381 176.921 66.9073C176.909 66.8766 176.902 66.8436 176.902 66.8103Z" fill="#B0D4FF"/>
<path d="M203.225 115.643H195.523V110.468L197.655 108.509H203.225V115.643Z" fill="white"/>
<path d="M195.484 110.468H197.588L197.657 108.509L195.484 110.468Z" fill="#B0D4FF"/>
<path d="M199.402 109.169C199.402 109.119 199.417 109.07 199.445 109.028C199.473 108.986 199.512 108.954 199.559 108.935C199.605 108.916 199.656 108.911 199.705 108.92C199.754 108.93 199.799 108.954 199.835 108.99C199.87 109.025 199.894 109.07 199.904 109.119C199.914 109.168 199.909 109.219 199.889 109.266C199.87 109.312 199.838 109.351 199.796 109.379C199.755 109.407 199.706 109.422 199.656 109.422C199.588 109.422 199.524 109.395 199.477 109.347C199.429 109.3 199.403 109.236 199.402 109.169Z" fill="#B0D4FF"/>
<path d="M206.74 105.373H199.039V100.199L201.171 98.2393H206.74V105.373Z" fill="white"/>
<path d="M198.996 100.199H201.1L201.17 98.2393L198.996 100.199Z" fill="#B0D4FF"/>
<path d="M202.918 98.8992C202.918 98.8491 202.933 98.8002 202.961 98.7585C202.988 98.7169 203.028 98.6844 203.074 98.6653C203.121 98.6461 203.171 98.6411 203.221 98.6509C203.27 98.6606 203.315 98.6847 203.35 98.7201C203.386 98.7556 203.41 98.8007 203.419 98.8498C203.429 98.8989 203.424 98.9498 203.405 98.9961C203.386 99.0423 203.353 99.0819 203.312 99.1097C203.27 99.1375 203.221 99.1523 203.171 99.1523C203.104 99.1523 203.04 99.1257 202.992 99.0782C202.945 99.0307 202.918 98.9663 202.918 98.8992Z" fill="#B0D4FF"/>
<path d="M196.577 105.373H188.875V100.199L191.007 98.2393H196.577V105.373Z" fill="#BAE8E3"/>
<path d="M188.832 100.199H190.935L191.005 98.2393L188.832 100.199Z" fill="#A1D6CE"/>
<path d="M192.754 98.8992C192.754 98.8491 192.769 98.8002 192.797 98.7585C192.824 98.7169 192.864 98.6844 192.91 98.6653C192.956 98.6461 193.007 98.6411 193.056 98.6509C193.106 98.6606 193.151 98.6847 193.186 98.7201C193.222 98.7556 193.246 98.8007 193.255 98.8498C193.265 98.8989 193.26 98.9498 193.241 98.9961C193.222 99.0423 193.189 99.0819 193.148 99.1097C193.106 99.1375 193.057 99.1523 193.007 99.1523C192.94 99.1521 192.876 99.1253 192.828 99.0779C192.781 99.0305 192.754 98.9662 192.754 98.8992Z" fill="#F99746"/>
<path d="M208.912 71.4977H201.211V66.3235L203.343 64.3647H208.912V71.4977Z" fill="#BAE8E3"/>
<path d="M201.168 66.3235H203.271L203.341 64.3647L201.168 66.3235Z" fill="#A1D6CE"/>
<path d="M205.09 65.0242C205.09 64.9741 205.105 64.9252 205.133 64.8835C205.16 64.8419 205.2 64.8094 205.246 64.7903C205.292 64.7711 205.343 64.7661 205.392 64.7759C205.442 64.7856 205.487 64.8097 205.522 64.8451C205.557 64.8806 205.582 64.9257 205.591 64.9748C205.601 65.0239 205.596 65.0748 205.577 65.1211C205.558 65.1673 205.525 65.2069 205.484 65.2347C205.442 65.2625 205.393 65.2773 205.343 65.2773C205.276 65.2771 205.212 65.2503 205.164 65.2029C205.117 65.1555 205.09 65.0912 205.09 65.0242Z" fill="#F99746"/>
<path d="M132.751 42.4854H118.102C117.426 42.4854 116.879 43.0328 116.879 43.7082V57.847C116.879 58.5224 117.426 59.0698 118.102 59.0698H132.751C133.426 59.0698 133.974 58.5224 133.974 57.847V43.7082C133.974 43.0328 133.426 42.4854 132.751 42.4854Z" fill="#EA4B98" fill-opacity="0.18"/>
<path d="M132.118 43.2036H118.738C118.121 43.2036 117.621 43.7038 117.621 44.3209V57.2338C117.621 57.8509 118.121 58.3511 118.738 58.3511H132.118C132.735 58.3511 133.235 57.8509 133.235 57.2338V44.3209C133.235 43.7038 132.735 43.2036 132.118 43.2036Z" fill="#EA4B98" fill-opacity="0.64"/>
<path d="M125.074 44.7175C125.074 44.6473 125.095 44.5786 125.133 44.5202C125.172 44.4617 125.228 44.4161 125.292 44.3891C125.357 44.3621 125.429 44.3549 125.497 44.3685C125.566 44.3821 125.63 44.4158 125.679 44.4653C125.729 44.5149 125.763 44.5781 125.777 44.6469C125.79 44.7157 125.783 44.7871 125.757 44.8519C125.73 44.9168 125.684 44.9723 125.626 45.0113C125.568 45.0503 125.499 45.0711 125.429 45.0711C125.335 45.0711 125.245 45.0339 125.178 44.9676C125.112 44.9013 125.074 44.8114 125.074 44.7175Z" fill="#B7D3F3"/>
<path d="M127.932 45.2178C127.966 45.1564 128.017 45.1065 128.08 45.0744C128.142 45.0423 128.212 45.0295 128.282 45.0375C128.352 45.0455 128.418 45.074 128.471 45.1194C128.525 45.1648 128.564 45.2251 128.583 45.2926C128.602 45.3601 128.601 45.4317 128.579 45.4985C128.558 45.5653 128.517 45.6243 128.462 45.6678C128.407 45.7114 128.34 45.7377 128.27 45.7433C128.2 45.7489 128.13 45.7337 128.069 45.6995C128.028 45.677 127.992 45.6466 127.963 45.6102C127.935 45.5737 127.913 45.5319 127.9 45.4872C127.888 45.4424 127.884 45.3956 127.889 45.3493C127.894 45.3031 127.909 45.2584 127.932 45.2178Z" fill="#B7D3F3"/>
<path d="M130.378 47.1622C130.437 47.1237 130.506 47.1034 130.576 47.104C130.646 47.1046 130.715 47.126 130.773 47.1655C130.831 47.2051 130.876 47.2609 130.902 47.326C130.928 47.3911 130.935 47.4626 130.92 47.5313C130.906 47.6 130.871 47.6629 130.821 47.712C130.771 47.7611 130.707 47.7943 130.638 47.8072C130.569 47.8202 130.498 47.8123 130.434 47.7847C130.369 47.7571 130.314 47.711 130.276 47.6522C130.225 47.5735 130.207 47.4779 130.226 47.3861C130.245 47.2944 130.3 47.2139 130.378 47.1622Z" fill="#B7D3F3"/>
<path d="M131.592 50.1729C131.662 50.1727 131.731 50.1933 131.789 50.2321C131.848 50.271 131.893 50.3263 131.92 50.3911C131.947 50.4559 131.954 50.5272 131.941 50.5961C131.927 50.6649 131.894 50.7282 131.844 50.7779C131.795 50.8276 131.731 50.8615 131.662 50.8753C131.594 50.889 131.522 50.8821 131.457 50.8553C131.393 50.8284 131.337 50.783 131.298 50.7246C131.259 50.6663 131.238 50.5977 131.238 50.5275C131.238 50.4336 131.276 50.3436 131.342 50.2771C131.408 50.2106 131.498 50.1731 131.592 50.1729Z" fill="#B7D3F3"/>
<path d="M130.971 53.6657C131.02 53.7152 131.054 53.7782 131.068 53.8468C131.081 53.9154 131.074 53.9864 131.048 54.0511C131.021 54.1157 130.975 54.1709 130.917 54.2097C130.859 54.2486 130.791 54.2693 130.721 54.2693C130.651 54.2693 130.583 54.2486 130.524 54.2097C130.466 54.1709 130.421 54.1157 130.394 54.0511C130.367 53.9864 130.36 53.9154 130.374 53.8468C130.388 53.7782 130.421 53.7152 130.471 53.6657C130.537 53.5996 130.627 53.5625 130.721 53.5625C130.815 53.5625 130.904 53.5996 130.971 53.6657Z" fill="#B7D3F3"/>
<path d="M128.749 55.8961C128.798 55.9456 128.832 56.0087 128.845 56.0772C128.859 56.1458 128.852 56.2168 128.825 56.2813C128.798 56.3458 128.753 56.401 128.694 56.4398C128.636 56.4785 128.568 56.4992 128.498 56.4992C128.428 56.4992 128.36 56.4785 128.302 56.4398C128.244 56.401 128.198 56.3458 128.172 56.2813C128.145 56.2168 128.138 56.1458 128.151 56.0772C128.165 56.0087 128.198 55.9456 128.248 55.8961C128.28 55.8631 128.319 55.8369 128.362 55.8191C128.405 55.8012 128.452 55.792 128.498 55.792C128.545 55.792 128.591 55.8012 128.634 55.8191C128.677 55.8369 128.716 55.8631 128.749 55.8961Z" fill="#B7D3F3"/>
<path d="M125.074 57.0451C125.074 56.9749 125.095 56.9063 125.133 56.8478C125.172 56.7894 125.228 56.7437 125.292 56.7167C125.357 56.6897 125.429 56.6826 125.497 56.6961C125.566 56.7097 125.63 56.7434 125.679 56.793C125.729 56.8425 125.763 56.9057 125.777 56.9745C125.79 57.0434 125.783 57.1147 125.757 57.1796C125.73 57.2444 125.684 57.2999 125.626 57.3389C125.568 57.3779 125.499 57.3988 125.429 57.3988C125.335 57.3988 125.245 57.3615 125.178 57.2952C125.112 57.229 125.074 57.139 125.074 57.0451Z" fill="#B7D3F3"/>
<path d="M122.915 45.2177C122.881 45.1563 122.83 45.1064 122.767 45.0742C122.705 45.042 122.634 45.029 122.565 45.0369C122.495 45.0448 122.429 45.0732 122.376 45.1185C122.322 45.1638 122.283 45.224 122.264 45.2914C122.244 45.3588 122.245 45.4305 122.267 45.4973C122.288 45.5642 122.329 45.6232 122.384 45.6668C122.439 45.7105 122.505 45.7369 122.575 45.7427C122.645 45.7486 122.715 45.7335 122.777 45.6995C122.817 45.677 122.853 45.6467 122.882 45.6103C122.911 45.5739 122.933 45.5321 122.946 45.4873C122.959 45.4426 122.963 45.3957 122.957 45.3494C122.952 45.3032 122.938 45.2584 122.915 45.2177Z" fill="#B7D3F3"/>
<path d="M120.465 47.1625C120.406 47.1243 120.338 47.1043 120.268 47.105C120.198 47.1057 120.13 47.1272 120.072 47.1666C120.014 47.2061 119.97 47.2617 119.944 47.3266C119.917 47.3914 119.911 47.4626 119.925 47.531C119.94 47.5995 119.974 47.6621 120.024 47.7111C120.074 47.76 120.137 47.7931 120.206 47.8061C120.275 47.8191 120.346 47.8114 120.41 47.7841C120.474 47.7567 120.529 47.7109 120.567 47.6524C120.593 47.6135 120.61 47.57 120.619 47.5243C120.628 47.4786 120.627 47.4317 120.618 47.3862C120.608 47.3407 120.59 47.2975 120.564 47.2591C120.537 47.2207 120.504 47.1879 120.465 47.1625Z" fill="#B7D3F3"/>
<path d="M119.253 50.1729C119.183 50.1729 119.114 50.1937 119.056 50.2326C118.998 50.2716 118.952 50.327 118.925 50.3918C118.899 50.4566 118.892 50.5279 118.905 50.5967C118.919 50.6655 118.953 50.7287 119.002 50.7783C119.052 50.8279 119.115 50.8617 119.184 50.8753C119.253 50.889 119.324 50.882 119.389 50.8552C119.454 50.8283 119.509 50.7829 119.548 50.7245C119.587 50.6662 119.608 50.5976 119.608 50.5275C119.608 50.4809 119.599 50.4347 119.581 50.3916C119.563 50.3485 119.537 50.3094 119.504 50.2764C119.471 50.2435 119.432 50.2173 119.389 50.1996C119.346 50.1818 119.3 50.1727 119.253 50.1729Z" fill="#B7D3F3"/>
<path d="M119.874 53.6657C119.824 53.7153 119.79 53.7785 119.776 53.8473C119.763 53.9161 119.77 53.9874 119.796 54.0523C119.823 54.1171 119.869 54.1725 119.927 54.2115C119.985 54.2505 120.054 54.2713 120.124 54.2713C120.194 54.2713 120.263 54.2505 120.321 54.2115C120.38 54.1725 120.425 54.1171 120.452 54.0523C120.479 53.9874 120.486 53.9161 120.472 53.8473C120.458 53.7785 120.424 53.7153 120.375 53.6657C120.308 53.5993 120.218 53.562 120.124 53.562C120.03 53.562 119.94 53.5993 119.874 53.6657Z" fill="#B7D3F3"/>
<path d="M122.096 55.8961C122.046 55.9456 122.013 56.0086 121.999 56.0772C121.985 56.1458 121.992 56.2169 122.019 56.2815C122.046 56.3461 122.091 56.4013 122.149 56.4401C122.208 56.479 122.276 56.4997 122.346 56.4997C122.416 56.4997 122.484 56.479 122.542 56.4401C122.6 56.4013 122.646 56.3461 122.673 56.2815C122.699 56.2169 122.706 56.1458 122.693 56.0772C122.679 56.0086 122.645 55.9456 122.596 55.8961C122.563 55.8633 122.524 55.8372 122.481 55.8194C122.438 55.8016 122.392 55.7925 122.346 55.7925C122.299 55.7925 122.253 55.8016 122.21 55.8194C122.168 55.8372 122.129 55.8633 122.096 55.8961Z" fill="#B7D3F3"/>
<path d="M125.332 50.5315C125.332 50.4612 125.352 50.3925 125.391 50.334C125.43 50.2756 125.486 50.2299 125.55 50.203C125.615 50.176 125.687 50.1689 125.756 50.1825C125.825 50.1962 125.888 50.23 125.937 50.2797C125.987 50.3293 126.021 50.3926 126.035 50.4615C126.048 50.5304 126.041 50.6018 126.014 50.6666C125.987 50.7315 125.942 50.7868 125.883 50.8257C125.825 50.8646 125.756 50.8853 125.686 50.8851C125.592 50.8851 125.502 50.8478 125.436 50.7815C125.369 50.7152 125.332 50.6252 125.332 50.5315Z" fill="#B7D3F3"/>
<path d="M125.733 46.1035H125.637V50.5274H125.733V46.1035Z" fill="#B7D3F3"/>
<path d="M127.9 48.5658L125.555 50.4072L125.734 50.6354L128.079 48.7939L127.9 48.5658Z" fill="#B7D3F3"/>
<path d="M222.935 174.114C222.865 175.065 221.522 175.075 219.999 174.898C218.476 174.721 218.881 175.103 216.748 175.137C214.615 175.17 213.878 174.461 213.775 174.157C213.683 173.886 214.71 173.659 215.809 173.391C215.947 173.358 216.086 173.323 216.224 173.289C217.463 172.973 218.284 172.045 219.344 171.239C220.349 170.472 221.643 167.696 221.643 167.696L224.557 167.564C224.557 167.564 223.327 170.053 222.869 171.126C222.599 171.756 222.713 172.532 222.831 173.127C222.909 173.45 222.944 173.782 222.935 174.114Z" fill="#FFB27D"/>
<path d="M219.999 174.898C218.476 174.722 218.881 175.103 216.748 175.137C214.615 175.17 213.878 174.461 213.775 174.157C213.683 173.886 214.71 173.659 215.809 173.391L215.822 173.412C216.796 173.877 217.877 174.071 218.952 173.972C220.387 173.829 221.844 173.231 222.831 173.124C222.909 173.448 222.944 173.781 222.934 174.114C222.865 175.069 221.522 175.075 219.999 174.898Z" fill="#233862"/>
<path d="M243.059 174.311C242.989 175.262 241.647 175.274 240.124 175.099C238.601 174.924 239.006 175.304 236.873 175.341C234.74 175.378 234.003 174.668 233.9 174.364C233.808 174.093 234.834 173.865 235.933 173.596L236.349 173.494C237.587 173.177 238.407 172.249 239.466 171.438C240.47 170.67 239.466 166.123 239.466 166.123L242.671 165.815C242.671 165.815 242.517 169.644 242.52 171.384C242.52 172.071 242.836 172.731 242.954 173.332C243.032 173.652 243.067 173.981 243.059 174.311Z" fill="#FFB27D"/>
<path d="M240.124 175.099C238.6 174.923 239.006 175.304 236.873 175.341C234.74 175.377 234.003 174.668 233.9 174.364C233.808 174.093 234.834 173.865 235.933 173.596L235.946 173.615C236.92 174.081 238.002 174.273 239.077 174.173C240.512 174.029 241.968 173.429 242.955 173.321C243.033 173.645 243.068 173.978 243.058 174.31C242.989 175.262 241.647 175.274 240.124 175.099Z" fill="#233862"/>
<path d="M233.705 95.7208C233.153 93.4525 233.953 92.3957 234.674 91.833C235.016 90.9976 235.406 90.398 235.802 90.1684C236.53 89.7584 237.403 89.7092 238.014 89.7461C237.88 89.6337 237.719 89.5575 237.547 89.5247C237.926 89.4683 238.77 89.8435 238.77 89.8435C244.036 87.815 244.864 95.5681 244.753 97.369C244.642 99.17 244.658 101.292 247.398 102.71C252.625 105.418 245.66 115.625 245.66 115.625C245.793 114.17 239.077 106.487 235.573 104.187C234.72 102.932 234.417 100.714 234.394 100.538C234.541 102.297 234.842 103.284 235.112 103.84C233.518 102.368 233.281 98.8389 233.705 95.7208Z" fill="#A9453D"/>
<path d="M235.785 104.3C235.768 104.307 237.478 105.195 238.758 104.843C239.967 104.514 240.758 102.946 240.741 102.942C240.229 102.839 240.081 102.136 240.091 99.1123L239.861 99.1574L235.966 99.9282C235.966 99.9282 236.055 101.158 236.057 102.308C236.066 103.277 236.008 104.196 235.785 104.3Z" fill="#FFB27D"/>
<path d="M235.973 99.9285C235.973 99.9285 236.062 101.159 236.064 102.309C238.243 102.247 239.394 100.259 239.867 99.1577L235.973 99.9285Z" fill="#ED975D"/>
<path d="M220.135 169.236C220.09 169.375 220.079 169.523 220.1 169.668C220.122 169.813 220.177 169.951 220.261 170.071C220.344 170.191 220.455 170.291 220.583 170.362C220.711 170.433 220.854 170.473 221 170.48L222.521 170.551L224.13 170.6C224.329 170.606 224.526 170.566 224.707 170.484C224.887 170.401 225.047 170.278 225.172 170.124C226.456 168.549 230.411 163.297 232.809 155.666C232.877 155.451 232.948 155.234 233.022 155.016C234.607 150.397 237.89 144.6 239.621 139.353C239.896 138.516 240.144 137.73 240.365 136.985C240.436 136.747 240.506 136.512 240.57 136.282C241.845 131.851 242.21 128.942 242.555 125.834L230.06 125.936C230.06 125.936 227.431 146.38 220.135 169.236Z" fill="#2A4E96"/>
<path d="M231.808 118.753C231.839 124.698 230.936 127.251 230.936 127.251C230.936 127.251 236.285 129.969 242.644 127.968C242.719 127.945 247.909 126.76 247.909 126.76C247.806 126.519 246.856 122.512 246.752 122.292C245.41 119.408 244.395 118.145 244.231 117.258C243.936 115.604 243.93 113.891 244.076 112.277C244.328 109.624 244.845 107.003 245.619 104.454C243.886 104.059 242.264 103.366 240.46 102.691C240.05 103.203 238.778 103.747 237.677 103.723C236.411 103.694 236 103.152 236.066 102.561C234.716 103.312 233.64 104.021 233.64 104.021C232.492 106.014 230.166 107.949 229.997 111.006C229.956 111.757 231.807 118.592 231.808 118.753Z" fill="white"/>
<path d="M242.554 119.417C243.099 120.189 244.147 124.888 246.757 125.479C245.414 122.13 244.399 120.662 244.235 119.637C243.94 117.715 243.934 115.727 244.08 113.851C243.209 112.322 242.558 111.274 242.558 111.274C242.49 111.027 241.171 106.954 240.749 110.594C240.327 114.235 241.943 118.551 242.554 119.417Z" fill="#5F9AA8"/>
<path d="M235.244 101.021C235.244 101.021 240.398 101.106 240.402 97.8959C240.406 94.6856 241.073 92.5341 237.782 92.3435C234.491 92.1528 233.85 93.3777 233.589 94.4499C233.327 95.522 233.903 100.917 235.244 101.021Z" fill="#FFB27D"/>
<path d="M235.441 92.2642C235.441 92.2642 236.853 96.0311 239.019 96.5887C241.184 97.1463 242.123 96.5651 242.123 96.5651C242.123 96.5651 240.462 95.2449 240.117 92.9418C240.112 92.9418 236.5 90.4715 235.441 92.2642Z" fill="#A9453D"/>
<path d="M235.786 92.5707C235.786 92.5707 234.732 93.4112 234.475 94.2292C234.217 95.0471 234.103 96.7302 233.612 96.6728C233.612 96.6728 232.549 94.1103 233.743 92.664C235.01 91.1286 235.786 92.5707 235.786 92.5707Z" fill="#A9453D"/>
<path d="M227.134 122.881L224.699 130.303L226.088 130.859L230.113 124.303L227.134 122.881Z" fill="#FFB27D"/>
<path d="M233.7 103.583C233.7 103.583 230.83 104.723 229.999 106.499C229.168 108.274 227.91 120.187 227.409 121.411C226.907 122.635 226.531 123.603 226.531 123.603C226.531 123.603 227.979 124.823 229.434 124.912C230.89 125.001 233.7 103.583 233.7 103.583Z" fill="#F99746"/>
<path d="M236.066 102.561C236.066 102.561 233.085 109.927 232.996 111.419C232.908 112.91 232.646 135.8 232.646 135.8C232.646 135.8 232.821 136.853 230.801 136.415C228.781 135.978 228.258 135.539 228.258 135.539C228.258 135.539 230.187 121.419 229.661 116.507C229.135 111.595 233.699 103.584 233.699 103.584L236.066 102.561Z" fill="#F99746"/>
<path d="M222.52 170.551L224.262 170.604C224.416 170.609 224.569 170.579 224.71 170.515C224.85 170.452 224.975 170.357 225.073 170.238C226.247 168.816 230.343 163.491 232.803 155.666C232.872 155.451 232.943 155.234 233.017 155.016C234.601 150.397 237.884 144.6 239.616 139.353C239.89 138.516 240.138 137.73 240.36 136.985C240.43 136.747 240.5 136.512 240.565 136.282L238.72 134.886C238.72 134.886 233.195 143.831 231.485 152.25C230.009 159.563 224.064 168.362 222.52 170.551Z" fill="#1E3D70"/>
<path d="M238.538 153.031C238.507 156.904 238.692 165.536 239.162 169.757C239.183 169.944 239.272 170.116 239.412 170.241C239.552 170.366 239.733 170.435 239.921 170.435H241.224C241.774 170.435 242.185 170.435 242.454 170.427C242.57 170.425 242.681 170.383 242.769 170.308C242.858 170.233 242.917 170.13 242.938 170.017C244.235 163.419 245.163 157.938 245.842 153.207C246.41 149.242 246.915 145.844 247.304 142.918C247.695 139.974 247.967 137.509 248.064 135.425C248.079 135.097 248.09 134.778 248.097 134.469C248.103 134.161 248.104 133.854 248.097 133.56L237.301 132.508C237.445 139.685 238.555 150.654 238.538 153.031Z" fill="#2A4E96"/>
<path d="M241.223 170.438C241.717 170.438 242.099 170.438 242.37 170.431C242.509 170.429 242.643 170.379 242.75 170.29C242.857 170.2 242.93 170.077 242.957 169.94C244.244 163.38 245.168 157.926 245.844 153.21C246.412 149.245 246.918 145.847 247.306 142.921C247.698 139.977 247.969 137.512 248.067 135.428L244.105 137.759C244.105 137.759 246.634 138.651 245.669 145.405C244.705 152.158 242.565 169.482 241.223 170.438Z" fill="#1E3D70"/>
<path d="M240.715 135.362C240.715 135.362 241.475 138.109 244.107 137.759C246.738 137.408 250.479 135.83 250.479 135.83C250.479 135.83 249.352 132.276 247.957 127.609C246.264 121.958 244.164 114.673 243.181 110.082C242.904 108.794 242.715 107.724 242.644 106.948L240.464 102.71C240.464 102.71 237.208 110.015 237.033 111.857C236.858 113.699 240.715 135.362 240.715 135.362Z" fill="#F99746"/>
<path d="M243.341 111.582L240.463 102.71C240.471 102.71 244.102 103.79 245.928 104.714C245.928 104.714 247.07 106.186 247.773 109.581C247.773 109.581 248.519 117.733 246.851 120.715C246.851 120.715 241.588 121.768 233.168 118.87V116.941C233.168 116.941 242.378 117.423 244.263 117.642L243.341 111.582Z" fill="#FFB27D"/>
<path d="M240.83 115.721C240.947 118.703 241.65 124.491 247.903 127.59L247.953 127.614C246.261 121.964 244.16 114.678 243.177 110.087C242.03 111.796 240.77 114.074 240.83 115.721Z" fill="#ED7D2B"/>
<path d="M240.465 102.71C240.465 102.71 245.806 103.086 247.092 105.952C248.379 108.818 248.788 118.347 247.151 121.154C247.151 121.154 244.896 121.795 240.909 121.051L240.763 121.024C240.763 121.024 239.491 117.91 240.631 117.296C240.631 117.296 243.993 117.471 243.642 116.36C243.292 115.249 240.465 102.71 240.465 102.71Z" fill="#F99746"/>
<path d="M227.07 118.137L227.227 118.642L235.991 115.915C236.025 115.873 236.048 115.823 236.059 115.769C236.069 115.715 236.066 115.66 236.05 115.608C236.039 115.557 236.012 115.51 235.973 115.475C235.934 115.44 235.885 115.418 235.833 115.412L227.07 118.137Z" fill="#A9453D"/>
<path d="M226.438 118.614L227.071 118.136L227.228 118.642L226.438 118.614Z" fill="#A9453D"/>
<path d="M225.046 130.1C225.046 130.1 222.823 131.33 222.531 132.265C222.239 133.2 222.44 135.161 222.792 135.135C223.145 135.109 223.672 133.029 223.964 132.88C224.256 132.731 224.666 132.296 224.666 132.617C224.666 132.939 224.374 133.524 224.521 133.612C224.667 133.7 225.136 132.792 225.456 132.617C225.777 132.443 225.914 130.995 226.226 130.606C226.539 130.218 225.046 130.1 225.046 130.1Z" fill="#FFB27D"/>
<path d="M233.172 116.944C233.172 116.944 231.184 115.714 230.35 115.908C229.516 116.102 227.391 117.636 228.413 117.969C229.435 118.302 230.263 117.953 230.657 118.195C231.05 118.437 231.34 118.879 233.172 118.873C235.004 118.867 233.172 116.944 233.172 116.944Z" fill="#FFB27D"/>
<path d="M76.8182 103.789C76.4851 103.147 84.0895 100.832 84.2095 107.172C84.2095 107.172 98.457 106.821 91.653 98.8816C89.2955 96.1326 89.5405 93.8591 89.6112 91.7445C89.6819 89.63 88.1444 83.4789 82.8718 84.098C82.8718 84.098 81.4912 83.5363 79.7671 84.4301C75.8475 86.4678 67.0694 106.128 76.8182 103.789Z" fill="#163560"/>
<path d="M100.109 110.882C100.109 110.882 101.032 109.47 101.783 109.447C102.535 109.423 103.915 109.037 103.804 109.308C103.694 109.58 102.836 109.616 102.753 109.779C102.67 109.942 104.026 110.189 104.413 110.222C104.801 110.254 105.714 110.222 105.686 110.415C105.659 110.609 104.04 111.412 102.898 111.301C101.757 111.19 100.344 111.633 100.344 111.633L100.109 110.882Z" fill="#FFB27D"/>
<path d="M86.6992 111.338C87.1044 112.096 87.579 112.813 88.1168 113.483C89.2187 114.862 90.9181 116.455 93.0511 116.772C94.07 116.922 95.0663 116.703 95.9826 116.296C98.5728 115.146 100.521 112.504 100.521 112.504C100.977 111.258 100.23 110.414 100.23 110.414C100.23 110.414 95.0027 111.591 94.5015 111.336C94.0003 111.082 91.0965 102.714 90.4015 101.662C89.7066 100.611 87.3511 100.063 87.3511 100.063L86.6992 111.338Z" fill="#B0D0FF"/>
<path d="M88.1173 113.483C89.2192 114.863 90.9186 116.455 93.0517 116.772C94.0705 116.922 95.0668 116.703 95.9832 116.297C95.8807 116.31 93.2936 116.629 92.2624 114.784C91.2108 112.902 90.073 109.913 88.5109 110.909C87.8365 111.339 87.8662 112.408 88.1173 113.483Z" fill="#98BAF4"/>
<path d="M67.1801 167.806C67.1801 167.806 65.5842 169.262 65.8958 170.297C66.2074 171.333 67.6475 172.022 67.8433 173.288C68.0391 174.554 68.816 175.243 69.5171 175.243H72.8586C72.8586 175.243 73.3711 174.352 72.1278 174.085C70.8845 173.817 70.413 172.33 70.4878 170.949C70.5626 169.569 70.371 167.729 70.371 167.729L67.7234 167.114L67.1801 167.806Z" fill="#233862"/>
<path d="M80.6902 168.425C80.6902 168.425 80.1162 174.595 80.8163 174.941L89.7851 174.922C89.7851 174.922 89.7851 173.887 88.3449 173.657C86.9048 173.428 84.3741 172.584 83.9456 170.705C83.5172 168.827 80.6902 168.425 80.6902 168.425Z" fill="#233862"/>
<path d="M74.3019 124.151C76.1469 120.012 77.2744 118.821 77.0612 117.54C76.9003 116.584 77.5491 99.7131 77.5491 99.7131C77.7685 99.6455 78.2072 99.584 78.447 99.5307C78.8188 99.45 79.1641 99.2766 79.4509 99.0266C79.7376 98.7766 79.9565 98.4581 80.087 98.1008C80.4007 97.2213 80.6508 95.9227 80.6446 94.2939L80.8814 94.3411L84.8563 95.1283C84.8563 95.1283 84.7661 96.3788 84.7631 97.5575V97.5873C84.7598 98.0851 84.9192 98.5704 85.2171 98.9693C85.515 99.3682 85.935 99.6589 86.4133 99.7972C86.9145 99.9427 87.3522 100.067 87.3522 100.067C87.3522 100.067 88.8118 104.233 89.0947 108.515C89.3776 112.796 86.44 114.656 89.1162 123.21C91.8499 131.948 73.2872 126.438 74.3019 124.151Z" fill="#FFB27D"/>
<path d="M84.8617 95.128C84.8617 95.128 84.7715 96.3785 84.7684 97.5573C82.5441 97.4947 81.3685 95.4652 80.8867 94.3408L84.8617 95.128Z" fill="#E8945B"/>
<path d="M85.6028 96.2463C85.6028 96.2463 80.3394 96.3334 80.3363 93.0555C80.3332 89.7775 79.6506 87.5799 83.0105 87.3862C86.3705 87.1925 87.0244 88.443 87.292 89.5387C87.5595 90.6344 86.9711 96.1366 85.6028 96.2463Z" fill="#FFB27D"/>
<path d="M85.4094 87.3031C85.4094 87.3031 83.9682 91.1489 81.7563 91.7178C79.5443 92.2867 78.5859 91.6942 78.5859 91.6942C78.5859 91.6942 80.2823 90.3463 80.6359 87.994C80.6339 87.994 84.3218 85.4725 85.4094 87.3031Z" fill="#163560"/>
<path d="M85.0508 87.6148C85.0508 87.6148 86.1199 88.0146 86.5596 88.7936C87.0903 89.7042 87.338 90.7521 87.2709 91.804C87.2709 91.804 88.3564 89.1892 87.1367 87.7112C85.8421 86.1429 85.0508 87.6148 85.0508 87.6148Z" fill="#163560"/>
<path d="M84.457 94.2099C84.5924 94.3629 84.7612 94.4825 84.9504 94.5595C85.1396 94.6365 85.3439 94.6687 85.5476 94.6538C85.718 94.6441 85.8827 94.5895 86.0251 94.4955C86.1675 94.4015 86.2825 94.2715 86.3584 94.1187C86.3584 94.1187 85.2822 93.8594 84.457 94.2099Z" fill="#EBF3FA"/>
<path d="M73.7944 107.176C73.7144 108.557 73.7144 109.941 73.7944 111.321C73.8836 112.82 75.3995 114.828 75.6148 115.319C76.1539 116.564 76.7628 116.767 76.7628 116.767L81.4716 117.921L83.128 118.331L88.3494 116.772C88.3494 116.772 90.7274 110.134 89.7721 106.397C88.8168 102.66 87.3582 100.066 87.3582 100.066C87.3582 100.066 83.0973 104.237 77.55 99.7119L73.7944 107.176Z" fill="#B0D0FF"/>
<path d="M75.1719 111.929C75.2611 113.428 75.3984 114.824 75.6136 115.32C76.1528 116.565 76.7617 116.768 76.7617 116.768L81.4705 117.922L83.5205 117.321C83.5205 117.321 76.693 116.286 77.4494 110.412L75.1719 111.929Z" fill="#F2CCAA"/>
<path d="M88.0146 117.78C88.0146 117.78 90.5997 125.828 90.7657 128.568C90.9318 131.308 85.8232 167.494 85.6182 168.757C85.4245 169.947 83.9464 170.705 83.9464 170.705C83.9464 170.705 83.2668 171.105 82.2962 170.832C80.9503 170.451 80.525 169.996 80.525 169.996C80.525 169.996 78.5129 144.19 79.7583 134.971C80.5164 129.27 80.9371 123.53 81.018 117.78H88.0146Z" fill="#ED7D2B"/>
<path d="M77.0602 117.54C77.0602 117.54 73.116 122.832 72.748 126.409C72.3801 129.987 72.171 142.552 71.3879 146.04C70.6048 149.528 67.7266 156.239 67.7266 167.116C67.7266 167.116 68.0259 167.739 68.9494 168.072C69.302 168.191 69.6609 168.29 70.0246 168.369C70.3948 168.454 70.7827 168.411 71.1258 168.249C71.4689 168.086 71.7472 167.812 71.9157 167.472C73.8632 163.553 80.0604 150.918 80.3781 148.295C80.6026 146.439 82.5593 134.15 86.8285 126.944C87.8535 125.214 86.2001 118.334 86.2001 118.334L77.0602 117.54Z" fill="#F99746"/>
<path d="M84.5742 94.299C84.5742 94.299 84.6644 94.6855 85.6259 94.626C85.6259 94.626 86.4325 94.5758 86.4079 94.1514C86.4049 94.1504 85.6259 93.848 84.5742 94.299Z" fill="white"/>
<path d="M88.4269 116.542C88.4269 116.542 87.3886 117.362 85.3263 117.404C82.8663 117.454 76.7603 116.776 76.7603 116.776C76.5922 117.278 76.5044 117.804 76.5 118.333C76.5 118.333 83.9538 120.214 88.2731 118.608C88.2731 118.604 88.8297 117.556 88.4269 116.542Z" fill="#233862"/>
<path d="M84.7969 118.25C84.7969 117.549 85.3012 116.978 85.9244 116.978C86.5476 116.978 87.0519 117.549 87.0519 118.25C87.0519 118.951 86.5476 119.522 85.9244 119.522C85.3012 119.522 84.7969 118.951 84.7969 118.25ZM85.1689 118.25C85.1689 118.746 85.5062 119.15 85.9213 119.15C86.3364 119.15 86.6726 118.746 86.6726 118.25C86.6726 117.754 86.3354 117.35 85.9213 117.35C85.5072 117.35 85.1689 117.754 85.1689 118.25Z" fill="white"/>
<path d="M69.4399 118.174L77.0352 124.858L86.1841 114.461L78.5889 107.778L69.4399 118.174Z" fill="#B5453C"/>
<path d="M78.4841 118.018C78.4841 118.018 81.2823 118.345 81.2731 119.009C81.2639 119.673 80.5761 121.037 80.2307 121.099C79.8852 121.16 77.9531 119.254 77.9531 119.254L78.4841 118.018Z" fill="#FFB27D"/>
<path d="M77.5477 99.7119C77.5477 99.7119 73.8116 99.9743 72.3797 103.455C70.9477 106.936 68.2305 112.783 68.2305 113.765C68.2305 114.747 69.7485 117.78 77.8993 119.522C77.8993 119.522 78.7429 118.635 78.6916 117.934C78.6916 117.934 73.6035 113.564 73.6168 113.052C73.6435 112.087 74.4512 110.811 78.9192 106.343C80.1328 105.127 77.5477 99.7119 77.5477 99.7119Z" fill="#B0D0FF"/>
<path d="M118.826 175.053H118.79C118.741 175.053 118.692 175.043 118.646 175.023C118.6 175.004 118.559 174.976 118.524 174.941C118.489 174.905 118.462 174.863 118.444 174.817C118.426 174.771 118.417 174.722 118.418 174.672L118.982 150.235L120.643 150.042L119.227 174.674C119.221 174.777 119.176 174.873 119.101 174.943C119.027 175.013 118.928 175.052 118.826 175.053Z" fill="#B0D4FF"/>
<path d="M109.146 175.053H109.11C109.061 175.053 109.012 175.043 108.966 175.023C108.92 175.004 108.879 174.976 108.844 174.941C108.81 174.905 108.783 174.863 108.764 174.817C108.746 174.771 108.737 174.722 108.738 174.672L109.303 150.235L110.964 150.042L109.547 174.674C109.541 174.777 109.496 174.873 109.422 174.943C109.347 175.013 109.249 175.052 109.146 175.053Z" fill="#95C0F4"/>
<path d="M135.852 175.053H135.888C135.938 175.053 135.987 175.043 136.033 175.023C136.078 175.004 136.119 174.976 136.154 174.941C136.189 174.905 136.216 174.863 136.234 174.817C136.252 174.771 136.261 174.722 136.259 174.672L135.696 150.235L134.035 150.042L135.452 174.674C135.457 174.777 135.502 174.873 135.577 174.943C135.651 175.014 135.75 175.053 135.852 175.053Z" fill="#B0D4FF"/>
<path d="M108.047 148.72V131.975C108.048 130.561 108.611 129.205 109.611 128.206C110.612 127.206 111.968 126.645 113.382 126.645H125.446C126.86 126.645 128.217 127.206 129.217 128.206C130.217 129.205 130.78 130.561 130.781 131.975V149.36L108.047 148.72Z" fill="#B0D4FF"/>
<path d="M108.047 148.72H132.944V151.364H109.649C109.224 151.364 108.817 151.195 108.516 150.894C108.216 150.594 108.047 150.187 108.047 149.762V148.72Z" fill="#95C0F4"/>
<path d="M135.732 148.72H118.111C117.456 148.72 116.926 149.251 116.926 149.905V150.179C116.926 150.833 117.456 151.364 118.111 151.364H135.732C136.387 151.364 136.917 150.833 136.917 150.179V149.905C136.917 149.251 136.387 148.72 135.732 148.72Z" fill="#B0D4FF"/>
<path d="M135.047 144.548C133.319 147.556 131.145 148.717 131.145 148.717H122.102C122.102 148.717 136.365 142.253 135.047 144.548Z" fill="#233862"/>
<path d="M128.104 167.822C127.996 167.941 127.924 168.089 127.898 168.247C127.872 168.406 127.892 168.569 127.956 168.716C128.172 169.313 128.884 169.978 129.711 170.643C129.814 170.728 129.916 170.806 129.993 170.878L130.057 170.934C130.073 170.95 130.09 170.965 130.106 170.978C130.878 171.69 130.587 171.853 131.974 173.297C133.555 174.937 134.639 174.972 134.953 174.822C135.216 174.694 134.683 173.822 134.093 172.841C134.065 172.793 134.037 172.745 134.007 172.698C133.928 172.567 133.85 172.435 133.772 172.304C133.082 171.124 133.26 170.569 133.423 168.819C133.556 167.391 135.643 160.844 135.643 160.844L132.613 160.321C132.613 160.321 131.701 165.535 130.695 166.338C130.157 166.766 129.556 166.772 129.039 167.088C129.002 167.111 128.966 167.133 128.937 167.157C128.63 167.34 128.35 167.564 128.104 167.822Z" fill="#FFB27D"/>
<path d="M128.104 167.822C127.996 167.941 127.924 168.088 127.898 168.247C127.872 168.406 127.892 168.568 127.956 168.716C128.22 169.311 128.915 169.974 129.715 170.637C129.817 170.723 129.911 170.803 129.993 170.878L130.057 170.934C130.073 170.949 130.09 170.965 130.106 170.978C130.878 171.689 130.587 171.852 131.974 173.297C133.555 174.937 134.639 174.971 134.953 174.822C135.216 174.694 134.683 173.821 134.093 172.84C132.987 172.409 132.015 171.692 131.275 170.764C130.322 169.548 129.688 167.988 129.039 167.083C129.002 167.106 128.966 167.128 128.937 167.152C128.63 167.336 128.35 167.562 128.104 167.822Z" fill="#233862"/>
<path d="M152.536 165.929C152.724 166.865 154.056 166.709 155.547 166.344C157.037 165.979 156.681 166.413 158.802 166.179C160.923 165.945 161.57 165.154 161.629 164.838C161.687 164.558 160.639 164.46 159.516 164.326C159.374 164.31 159.233 164.293 159.09 164.276C157.822 164.117 156.893 163.298 155.741 162.625C154.649 161.989 153.02 159.395 153.02 159.395L150.113 159.624C150.113 159.624 151.638 161.942 152.229 162.949C152.575 163.542 152.557 164.326 152.514 164.931C152.476 165.263 152.484 165.599 152.536 165.929Z" fill="#FFB27D"/>
<path d="M155.548 166.344C157.038 165.981 156.683 166.413 158.804 166.179C160.924 165.946 161.571 165.154 161.631 164.839C161.688 164.559 160.64 164.46 159.517 164.326L159.507 164.349C158.598 164.931 157.549 165.257 156.471 165.292C155.036 165.327 153.509 164.915 152.515 164.931C152.478 165.262 152.486 165.596 152.538 165.925C152.725 166.869 154.058 166.709 155.548 166.344Z" fill="#233862"/>
<path d="M141.396 147.339L138.683 154.652L135.13 164.204C134.497 164.251 133.86 164.193 133.245 164.032C132.396 163.786 131.422 163.144 131.422 163.144C131.422 163.144 132.407 152.894 134.245 147.005C134.716 145.495 135.244 144.272 135.826 143.584C138.676 140.219 141.396 147.339 141.396 147.339Z" fill="#233862"/>
<path d="M138.632 135.724C136.852 135.149 131.773 135.887 126.671 136.886L125.603 135.124L114.585 134.264C114.585 134.264 110.949 142.327 112.939 147.465C113.232 148.22 113.813 148.704 114.804 148.72H114.965H123.653C129.132 148.72 135.251 144.953 136.042 144.796C137.337 144.536 137.855 147.126 139.151 149.847C140.446 152.567 151.326 161.894 151.326 161.894C151.326 161.894 152.999 161.91 153.689 161.651C154.433 161.372 154.704 161.01 154.704 161.01C154.704 161.01 142.648 137.02 138.632 135.724Z" fill="#2B478B"/>
<path d="M125.17 103.039C123.758 102.298 121.611 102.198 121.261 102.151C117.087 101.59 114.573 107.657 114.426 109.496C114.153 112.885 112.36 113.401 109.837 115.523C104.777 119.779 106.261 124.723 109.028 126.56C110.687 127.663 113.614 126.56 113.614 126.56C113.655 126.589 121.615 122.111 125.539 119.95C131.421 119.113 128.767 104.928 125.17 103.039Z" fill="#233862"/>
<path d="M122.247 118.111C122.264 118.122 120.317 118.786 119.014 118.213C117.784 117.671 116.862 115.651 116.879 115.651C117.437 115.624 118.049 115.138 118.519 111.939L118.756 112.026L122.747 113.461C122.747 113.461 122.457 114.741 122.271 115.96C122.114 116.986 122.03 117.965 122.247 118.111Z" fill="#FFB27D"/>
<path d="M122.749 113.466C122.749 113.466 122.459 114.747 122.273 115.965C119.981 115.555 119.081 113.269 118.758 112.03L122.749 113.466Z" fill="#ED975D"/>
<path d="M123.344 114.732C123.344 114.732 117.884 114 118.393 110.607C118.901 107.214 118.539 104.834 122.047 105.158C125.554 105.482 126.036 106.879 126.147 108.053C126.258 109.226 124.778 114.836 123.344 114.732Z" fill="#FFB27D"/>
<path d="M125.942 106.189C125.942 106.189 122.447 109.201 120.069 109.444C117.691 109.686 116.789 108.923 116.789 108.923C117.738 108.074 118.502 107.039 119.034 105.882C119.155 105.61 119.346 105.375 119.588 105.202C119.831 105.028 120.115 104.923 120.411 104.897C122.112 104.754 125.33 104.688 125.942 106.189Z" fill="#233862"/>
<path d="M123.758 105.923C123.758 105.923 124.927 107.05 125.295 107.892C125.651 108.701 125.758 110.637 125.475 111.405C125.475 111.405 127.296 107.863 126.265 106.142C125.171 104.316 123.758 105.923 123.758 105.923Z" fill="#233862"/>
<path d="M126.847 126.154C126.682 137.206 126.802 134.896 125.592 135.945C125.301 136.198 124.482 136.348 123.405 136.419C120.015 136.645 114.058 136.086 113.832 135.46C113.05 133.293 113.602 132.619 112.949 129.302C112.881 128.949 112.797 128.567 112.699 128.15C112.155 125.872 111.626 125.097 113.555 121.436C115.305 118.12 117.122 115.428 117.285 115.524C121.897 118.265 122.274 115.962 122.274 115.962C122.274 115.962 126.928 120.762 126.847 126.154Z" fill="white"/>
<path d="M138.683 154.652L135.13 164.204C134.497 164.251 133.86 164.192 133.245 164.032C132.396 163.786 131.422 163.144 131.422 163.144C131.422 163.144 132.407 152.894 134.245 147.005L138.683 154.652Z" fill="#2B478B"/>
<path d="M122.273 115.961C122.273 115.961 127.023 116.767 127.581 118.812C128.138 120.857 131.421 132.878 131.421 132.878C131.421 132.878 129.006 133.313 127.89 132.196C126.775 131.08 124.01 121.844 124.01 121.844L122.273 115.961Z" fill="white"/>
<path d="M123.409 136.419C120.019 136.645 114.062 136.086 113.836 135.46C113.054 133.293 113.606 132.619 112.953 129.302L114.593 124.698C114.593 124.698 114.323 129.823 115.834 131.172C117.346 132.521 122.023 133.775 122.758 134.901C123.102 135.441 123.336 135.984 123.409 136.419Z" fill="#EBF3FF"/>
<path d="M119.52 134.264C119.52 134.264 122.863 133.52 123.403 133.816C123.943 134.112 125.261 135.193 125.426 135.57C125.591 135.946 124.224 135.284 123.786 135.16C123.498 135.083 122.74 135.345 122.365 135.467C120.787 135.994 119.82 135.723 119.82 135.723L119.52 134.264Z" fill="#FFB27D"/>
<path d="M117.283 115.522C117.283 115.522 112.794 115.799 111.236 117.967C109.049 121.019 104.709 134.022 107.196 135.756C109.997 137.71 119.944 136.268 119.944 136.268C119.944 136.268 120.275 134.721 119.814 133.972C119.353 133.224 111.869 132.016 111.524 131.67C111.179 131.325 115.842 124.934 115.842 123.898C115.842 122.861 117.283 115.522 117.283 115.522Z" fill="white"/>
<path d="M123.566 134.747C123.566 134.747 124.268 135.651 124.497 135.758C124.613 135.821 124.744 135.849 124.875 135.839L124.403 134.99L123.566 134.747Z" fill="#FFB27D"/>
<path d="M123.41 133.816L125.447 134.805C125.447 134.805 125.36 134.946 125.109 134.935C124.857 134.924 124.226 134.692 124.226 134.692L123.41 133.816Z" fill="#FFB27D"/>
<path d="M124.496 137.142H140.608L145.455 125.09H129.368L124.496 137.142Z" fill="#F99746"/>
<path d="M140.798 136.672H119.523V137.142H140.61L140.798 136.672Z" fill="#ED7D2B"/>
<path d="M136.542 131.116C136.663 130.692 136.418 130.349 135.995 130.349C135.772 130.362 135.558 130.442 135.382 130.579C135.205 130.716 135.075 130.903 135.008 131.116C134.887 131.539 135.131 131.884 135.555 131.884C135.979 131.884 136.42 131.539 136.542 131.116Z" fill="white"/>
<path d="M208.646 175.5H208.693C208.829 175.494 208.957 175.435 209.049 175.335C209.141 175.235 209.189 175.102 209.184 174.967L208.439 140.752L206.242 140.48L208.116 174.967C208.119 175.107 208.175 175.24 208.274 175.339C208.373 175.438 208.506 175.496 208.646 175.5Z" fill="#78ACEA"/>
<path d="M119.601 175.5H119.555C119.488 175.497 119.421 175.481 119.36 175.453C119.299 175.425 119.244 175.385 119.198 175.335C119.153 175.286 119.117 175.228 119.094 175.164C119.071 175.101 119.06 175.034 119.063 174.967L119.808 140.752L122.005 140.48L120.129 174.967C120.126 175.106 120.069 175.239 119.971 175.338C119.873 175.437 119.74 175.495 119.601 175.5Z" fill="#78ACEA"/>
<path d="M211.29 137.252H117.324C116.554 137.252 115.93 137.877 115.93 138.646V139.987C115.93 140.757 116.554 141.381 117.324 141.381H211.29C212.059 141.381 212.684 140.757 212.684 139.987V138.646C212.684 137.877 212.059 137.252 211.29 137.252Z" fill="#78ACEA"/>
<path d="M96.8443 78.6167C96.4897 69.8324 103.853 65.9292 111.382 65.9292C118.911 65.9292 127.104 67.8767 127.815 79.5617C128.271 87.077 124.265 91.7008 112.729 91.7008C108.834 91.7008 105.815 91.0858 103.504 89.9931L97.7371 95.1181L100.571 88.0354C98.0559 85.6963 96.9981 82.4092 96.8443 78.6167Z" fill="#EA4B98" fill-opacity="0.42"/>
<path d="M267.969 175.461C267.969 175.461 268.181 173.811 268.672 172.83C269.163 171.849 272.285 172.472 272.285 172.472C272.285 172.472 272.909 173.009 273.043 175.505L267.969 175.461Z" fill="#233862"/>
<path d="M257.333 175.439C258.067 174.991 257.65 171.646 257.65 171.646C257.65 171.646 254.231 168.912 253.761 171.006C253.29 173.1 250.514 174.04 248.932 174.296C247.84 174.473 247.503 175.077 247.395 175.435L257.333 175.439Z" fill="#233862"/>
<path d="M264.415 151.143C264.296 151.752 264.212 152.368 264.165 152.988C263.847 159.187 258.946 173.36 258.07 173.693C256.714 174.205 254.578 173.116 253.458 172.761C252.995 172.613 252.683 172.146 252.785 171.672C255.212 160.516 256.104 144.452 256.428 134.941C256.592 130.152 257.415 126.844 257.415 126.844C257.415 126.844 269.366 123.656 269.436 127.69C269.503 131.255 265.481 145.254 264.415 151.143Z" fill="#213F7A"/>
<path d="M264.413 151.143L256.43 134.94C256.594 130.151 257.417 126.843 257.417 126.843C257.417 126.843 269.367 123.655 269.438 127.689C269.502 131.256 265.479 145.254 264.413 151.143Z" fill="#233862"/>
<path d="M261.754 127.701L268.072 173.491C268.072 173.491 270.847 174.16 273.004 173.625C273.004 173.625 274.854 149.271 274.7 143.387C274.545 137.504 276.027 127.633 274.361 126.546C272.696 125.458 261.754 127.701 261.754 127.701Z" fill="#213F7A"/>
<path d="M275.595 126.937C275.609 127.137 275.554 127.337 275.439 127.502C275.324 127.667 275.156 127.787 274.963 127.843C274.081 128.098 273.064 128.276 271.105 128.682C268.682 129.171 266.217 129.419 263.745 129.422C258.906 129.453 257.073 127.782 257.073 127.782C256.868 127.782 257.184 126.774 257.471 121.958C257.574 120.327 257.662 118.259 257.729 115.645C257.791 113.294 257.832 110.5 257.832 107.186C257.837 103.199 264.007 98.9092 264.121 98.9092C264.121 99.4832 265.025 100.543 266.419 100.634C268.073 100.743 270.102 99.9168 270.102 98.9666C270.102 98.9574 273.092 103.75 274.154 108.857C274.7 111.431 274.48 111.362 275.595 126.937Z" fill="#B0D0FF"/>
<path d="M264.122 98.9112C264.122 98.9112 258.382 98.862 257.004 100.799C255.625 102.737 252.596 113.156 254.175 116.622C255.753 120.089 258.711 115.187 260.352 113.064C261.993 110.942 264.122 98.9112 264.122 98.9112Z" fill="#B0D0FF"/>
<path d="M264.064 98.0362V98.6297C264.064 98.6297 263.903 100.485 266.187 100.756C268.471 101.026 270.167 100.409 270.106 98.9782C269.901 97.8691 269.709 96.7314 269.696 95.814C269.691 95.442 269.718 95.0703 269.777 94.7029L265.351 94.6147L264.047 94.8279L264.064 98.0362Z" fill="#FFB27D"/>
<path d="M264.051 94.8279L264.067 98.0362C264.567 98.27 265.112 98.3905 265.663 98.3888C267.698 98.3888 269.013 96.8964 269.7 95.814C269.695 95.442 269.722 95.0703 269.781 94.7029L265.355 94.6147L264.051 94.8279Z" fill="#E2915A"/>
<path d="M270.12 93.9913C269.607 96.7588 266.04 96.6645 264.499 96.4913C264.065 96.4431 263.792 96.3888 263.792 96.3888C263.303 96.2576 263.03 95.4878 262.903 94.4782C262.652 92.4815 262.969 89.55 263.307 88.8007C263.814 87.6732 264.771 86.4524 268.363 87.3329C271.955 88.2134 270.779 90.4489 270.12 93.9913Z" fill="#FFB27D"/>
<path d="M258.256 106.677C258.256 106.677 256.035 111.578 256.103 113.048C256.83 113.038 257.555 113.131 258.256 113.325C259.99 113.842 258.256 106.677 258.256 106.677Z" fill="#98BAF4"/>
<path d="M262.204 86.1676C263.393 86.0318 264.554 85.7173 265.649 85.2349C267.163 84.5768 269.072 85.3015 269.691 85.6285C269.669 85.4945 269.618 85.367 269.541 85.2554C269.541 85.2554 269.819 85.4532 269.861 85.7289C269.888 85.7494 269.902 85.7638 269.894 85.7689C269.887 85.774 270.21 85.7115 270.412 85.8027C270.412 85.8027 270.271 85.7822 270.219 85.8734C270.214 85.8836 270.206 85.8923 270.197 85.8991C272.554 87.0399 272.776 90.7709 272.016 91.6391C271.102 92.6774 269.722 95.0277 269.722 95.0277C269.722 95.0277 269.606 94.464 269.772 93.5497C269.938 92.6354 269.149 92.6364 268.152 92.2172C267.155 91.7979 267.986 90.6387 267.114 89.9324C266.241 89.2262 263.042 89.6413 263.083 89.1012C261.896 88.6666 262.204 86.2886 262.204 86.1676Z" fill="#233862"/>
<path d="M270.841 115.859C269.904 119.62 259.771 121.565 257.469 121.96C257.571 120.329 257.659 118.261 257.727 115.647L270.841 115.859Z" fill="#98BAF4"/>
<path d="M268.619 117.082C268.716 117.082 270.874 116.76 271.258 116.569C271.641 116.378 273.41 113.866 272.254 113.222C271.098 112.579 267.992 115.153 267.992 115.153L268.619 117.082Z" fill="#FFB27D"/>
<path d="M255.504 117.827C255.504 117.827 263.842 118.28 269.438 117.082C269.438 117.082 269.579 115.465 267.82 114.747C267.82 114.747 259.099 112.902 257.004 113.414C254.909 113.927 255.504 117.827 255.504 117.827Z" fill="#B0D0FF"/>
<path d="M274.653 111.283C272.922 113.37 270.661 115.075 268.167 115.472C267.675 114.631 267.46 113.657 267.552 112.687C267.639 111.773 267.951 110.895 268.46 110.131C268.655 109.818 268.819 109.487 268.95 109.143C270.312 105.668 270.109 98.9707 270.109 98.9707C270.109 98.9707 275.892 99.5765 277.694 102.148C278.798 103.729 277.388 107.985 274.653 111.283Z" fill="#B0D0FF"/>
<path d="M264.498 96.4906C264.065 96.4425 263.792 96.3881 263.792 96.3881C263.302 96.2569 263.029 95.4872 262.902 94.4775C263.82 94.7041 264.235 95.4123 264.415 95.7137C264.494 95.849 264.511 96.1534 264.498 96.4906Z" fill="#E2915A"/>
<path d="M262.168 98.0538C262.168 98.0538 260.171 94.7584 261.725 94.6149C263.278 94.4714 263.902 95.5231 264.125 95.9085C264.349 96.2939 264.067 98.0364 264.067 98.0364L262.168 98.0538Z" fill="#FFB27D"/>
<path d="M269.778 112.577C269.719 112.972 269.604 113.357 269.437 113.721C269.134 114.383 268.702 114.979 268.166 115.472C262.979 113.13 261.929 105.091 261.754 100.673C261.683 98.8982 261.754 97.7071 261.754 97.7071C264.094 96.9322 264.752 98.2791 264.752 98.2791C264.752 98.2791 267.515 104.848 268.948 109.144C269.495 110.785 269.849 112.096 269.778 112.577Z" fill="#B0D0FF"/>
<path d="M274.653 111.283C272.921 113.37 270.66 115.076 268.166 115.472C262.979 113.13 261.929 105.091 261.754 100.673C261.754 100.673 264.209 109.575 267.549 112.687C268.153 113.25 268.786 113.623 269.438 113.721C269.438 113.721 273.651 112.531 274.535 111.409C274.595 111.328 274.635 111.288 274.653 111.283Z" fill="#98BAF4"/>
<path d="M180.178 137.253H164.066L159.219 125.2H175.306L180.178 137.253Z" fill="#2B478B"/>
<path d="M163.879 136.783H185.154V137.253H164.068L163.879 136.783Z" fill="#2B478B"/>
<path d="M168.132 131.227C168.012 130.802 168.256 130.459 168.68 130.459C168.903 130.471 169.117 130.551 169.293 130.689C169.47 130.826 169.6 131.013 169.667 131.227C169.789 131.65 169.544 131.993 169.12 131.993C168.897 131.981 168.683 131.901 168.507 131.764C168.33 131.627 168.2 131.44 168.132 131.227Z" fill="white"/>
<path d="M310.88 175.194V175.297C310.875 175.381 310.836 175.459 310.774 175.515C310.711 175.571 310.628 175.6 310.544 175.595H14.9875C14.9037 175.599 14.8216 175.57 14.7588 175.515C14.6961 175.459 14.6579 175.38 14.6523 175.297V175.194C14.6579 175.11 14.6961 175.032 14.7588 174.976C14.8215 174.92 14.9036 174.891 14.9875 174.895H310.544C310.628 174.891 310.711 174.92 310.774 174.976C310.836 175.032 310.875 175.11 310.88 175.194Z" fill="#2E3552"/>
</g>
<defs>
<clipPath id="clip0_2683_301">
<rect width="328" height="205" fill="white"/>
</clipPath>
</defs>
</svg>
