<svg width="24" height="24" viewBox="0 0 24 24" fill="none" xmlns="http://www.w3.org/2000/svg">
<g clip-path="url(#clip0_1718_1796)">
<path opacity="0.998" fill-rule="evenodd" clip-rule="evenodd" d="M13.1016 24.0234C12.3828 24.0234 11.664 24.0234 10.9453 24.0234C6.16111 23.4012 2.79389 20.8856 0.843747 16.4766C0.411185 15.3516 0.137715 14.1954 0.0234346 13.0078C0.0234347 12.3516 0.0234348 11.6953 0.0234348 11.0391C0.474983 7.01737 2.39686 3.91579 5.78906 1.73437C7.4123 0.763592 9.16233 0.193265 11.0391 0.0234364C11.6953 0.0234364 12.3516 0.0234365 13.0078 0.0234365C17.2489 0.506484 20.4442 2.58459 22.5938 6.25781C23.3763 7.73302 23.8529 9.2955 24.0234 10.9453C24.0234 11.664 24.0234 12.3828 24.0234 13.1016C23.4569 17.5965 21.16 20.87 17.1328 22.9219C15.8435 23.5097 14.4997 23.8769 13.1016 24.0234Z" fill="#FCED9F"/>
<path fill-rule="evenodd" clip-rule="evenodd" d="M12.1641 16.8042C11.792 16.8332 11.5341 16.6769 11.3906 16.3355C11.3593 13.4761 11.3593 10.6167 11.3906 7.75735C11.6108 7.24646 11.9624 7.12928 12.4453 7.40579C12.5358 7.51164 12.6061 7.62882 12.6562 7.75735C12.6875 10.6167 12.6875 13.4761 12.6562 16.3355C12.5575 16.5672 12.3935 16.7234 12.1641 16.8042Z" fill="#0C0E0D"/>
<path fill-rule="evenodd" clip-rule="evenodd" d="M12.1641 16.43C12.0014 16.4593 11.8686 16.4124 11.7656 16.2894C11.7343 13.4456 11.7343 10.6019 11.7656 7.75815C11.9375 7.57065 12.1093 7.57065 12.2812 7.75815C12.3125 10.6019 12.3125 13.4456 12.2812 16.2894C12.2323 16.3303 12.1932 16.3772 12.1641 16.43Z" fill="#5FD2AD"/>
<path fill-rule="evenodd" clip-rule="evenodd" d="M15.2578 14.4145C15.2578 13.9926 15.2578 13.5707 15.2578 13.1489C14.5547 13.1489 13.8516 13.1489 13.1484 13.1489C13.1035 13.1276 13.0644 13.0964 13.0312 13.0551C13 12.3676 13 11.6801 13.0312 10.9926C13.0547 10.9692 13.0781 10.9457 13.1016 10.9223C13.8045 10.8989 14.5076 10.891 15.2109 10.8989C15.2032 10.4767 15.2109 10.0548 15.2344 9.63324C15.2721 9.57212 15.3268 9.54085 15.3984 9.53949C16.7167 10.2534 18.0292 10.98 19.3359 11.7192C19.4905 11.7881 19.6155 11.8897 19.7109 12.0239C19.6749 12.1459 19.5968 12.2319 19.4766 12.2817C18.1409 13.0198 16.8127 13.7698 15.4922 14.5317C15.3741 14.5664 15.296 14.5274 15.2578 14.4145Z" fill="#060606"/>
<path fill-rule="evenodd" clip-rule="evenodd" d="M8.74218 14.508C8.66253 14.5155 8.58439 14.5077 8.5078 14.4845C7.15602 13.707 5.79664 12.9414 4.42967 12.1877C4.36855 12.15 4.33728 12.0953 4.33592 12.0236C4.37197 11.9015 4.45011 11.8156 4.5703 11.7658C5.8828 11.0314 7.1953 10.2971 8.5078 9.56267C8.62616 9.52067 8.72774 9.54411 8.81249 9.63298C8.83593 10.0546 8.84371 10.4765 8.83593 10.8986C9.53924 10.8908 10.2424 10.8986 10.9453 10.922C10.9687 10.9455 10.9922 10.9689 11.0156 10.9924C11.0469 11.6799 11.0469 12.3673 11.0156 13.0549C10.9922 13.0783 10.9687 13.1017 10.9453 13.1252C10.2424 13.1486 9.53924 13.1564 8.83593 13.1486C8.84371 13.5708 8.83593 13.9926 8.81249 14.4142C8.77888 14.4397 8.75544 14.471 8.74218 14.508Z" fill="#060605"/>
<path fill-rule="evenodd" clip-rule="evenodd" d="M15.6328 14.0391C15.5542 13.6554 15.5073 13.257 15.4922 12.8437C14.7778 12.8355 14.0668 12.8121 13.3594 12.7734C13.3209 12.262 13.3288 11.7542 13.3828 11.25C14.0859 11.2344 14.7891 11.2187 15.4922 11.2031C15.5228 10.8075 15.5541 10.409 15.5859 10.0078C16.7734 10.6797 17.961 11.3516 19.1484 12.0234C17.9812 12.7084 16.8094 13.3803 15.6328 14.0391Z" fill="#334D5A"/>
<path fill-rule="evenodd" clip-rule="evenodd" d="M8.55469 11.2266C9.24956 11.2732 9.95269 11.2889 10.6641 11.2734C10.6641 11.7735 10.6641 12.2734 10.6641 12.7734C9.95269 12.758 9.24956 12.7736 8.55469 12.8203C8.50922 13.2226 8.49361 13.6289 8.50781 14.0391C7.28494 13.4041 6.0818 12.7323 4.89844 12.0234C6.08592 11.3516 7.27345 10.6797 8.46094 10.0078C8.49342 10.4168 8.52469 10.823 8.55469 11.2266Z" fill="#324D5A"/>
<path fill-rule="evenodd" clip-rule="evenodd" d="M15.2578 14.4141C15.2113 14.0164 15.1957 13.6101 15.2109 13.1953C14.5152 13.2107 13.8277 13.1951 13.1484 13.1484C13.8516 13.1484 14.5547 13.1484 15.2578 13.1484C15.2578 13.5703 15.2578 13.9922 15.2578 14.4141Z" fill="#838173"/>
<path fill-rule="evenodd" clip-rule="evenodd" d="M8.55469 12.8203C9.24956 12.7736 9.95269 12.758 10.6641 12.7734C10.6641 12.2734 10.6641 11.7735 10.6641 11.2734C9.95269 11.2889 9.24956 11.2732 8.55469 11.2266C9.27342 11.2266 9.9922 11.2266 10.7109 11.2266C10.7109 11.7578 10.7109 12.2891 10.7109 12.8203C9.9922 12.8203 9.27342 12.8203 8.55469 12.8203Z" fill="#535D5C"/>
</g>
<defs>
<clipPath id="clip0_1718_1796">
<rect width="24" height="24" fill="white" transform="translate(24 24) rotate(-180)"/>
</clipPath>
</defs>
</svg>
