<svg width="42" height="41" viewBox="0 0 42 41" fill="none" xmlns="http://www.w3.org/2000/svg">
<path opacity="0.919" fill-rule="evenodd" clip-rule="evenodd" d="M25.8957 0.680664C27.3253 0.873156 28.74 1.15343 30.1398 1.52148C30.2828 1.58431 30.403 1.67773 30.5002 1.80176C30.5536 2.04199 30.5536 2.28223 30.5002 2.52246C30.223 3.66791 29.9561 4.8157 29.6994 5.96582C29.5408 6.39868 29.2338 6.5455 28.7785 6.40625C28.7118 6.33952 28.645 6.27278 28.5783 6.20605C28.5249 5.93913 28.5249 5.6722 28.5783 5.40527C28.7641 4.71621 28.8976 4.0222 28.9787 3.32324C20.7642 7.7574 12.5562 12.2017 4.35461 16.6562C3.99429 16.9308 3.5939 17.0376 3.15344 16.9766C2.75816 16.6596 2.73147 16.3126 3.07336 15.9355C11.4549 11.3978 19.8364 6.86003 28.2179 2.32227C27.4387 2.15575 26.6646 1.9689 25.8957 1.76172C25.4926 1.40623 25.4926 1.04588 25.8957 0.680664Z" fill="black"/>
<path opacity="0.967" fill-rule="evenodd" clip-rule="evenodd" d="M39.1086 1.16118C39.5041 1.06924 39.7843 1.20271 39.9494 1.56157C40.0292 13.6064 40.0026 25.6448 39.8693 37.6768C39.8092 37.7269 39.7425 37.767 39.6691 37.7969C37.0532 37.8503 34.4374 37.8503 31.8214 37.7969C31.6806 37.7162 31.5871 37.5961 31.5412 37.4366C31.5145 37.0095 31.4878 36.5824 31.4611 36.1553C28.474 39.518 24.7504 40.8126 20.2902 40.0391C17.7056 39.4483 15.5567 38.1538 13.8439 36.1553C13.8335 36.6689 13.7801 37.1761 13.6837 37.6768C13.6237 37.7269 13.5569 37.767 13.4835 37.7969C10.8074 37.8759 8.13814 37.8491 5.47569 37.7168C5.42039 37.6314 5.38036 37.538 5.35557 37.4366C5.34222 34.3269 5.32888 31.2171 5.31553 28.1075C5.30262 24.9377 5.34266 21.7747 5.43565 18.6182C7.89818 17.18 10.3673 15.752 12.8429 14.334C13.2237 14.2184 13.5307 14.3119 13.7638 14.6143C13.7905 16.9366 13.8172 19.2588 13.8439 21.5811C15.0676 20.0771 16.5757 18.956 18.3683 18.2178C18.435 16.1897 18.475 14.1611 18.4884 12.1319C20.9111 10.6735 23.3535 9.24547 25.8156 7.8477C26.185 7.65533 26.5187 7.69537 26.8165 7.96782C26.8299 11.3848 26.87 14.8014 26.9367 18.2178C28.7292 18.956 30.2373 20.0771 31.4611 21.5811C31.4878 16.2959 31.5145 11.0108 31.5412 5.72563C31.6346 5.47205 31.8081 5.29855 32.0617 5.20513C34.4287 3.87523 36.7776 2.52724 39.1086 1.16118Z" fill="#040302"/>
<path fill-rule="evenodd" clip-rule="evenodd" d="M38.6281 2.7627C38.7881 14.0534 38.8415 25.3711 38.7883 36.7158C36.7597 36.7158 34.731 36.7158 32.7023 36.7158C32.689 35.8612 32.7023 35.007 32.7424 34.1533C34.4955 30.6264 34.4955 27.103 32.7424 23.583C32.689 17.7907 32.689 11.9983 32.7424 6.20605C34.729 5.08644 36.691 3.93866 38.6281 2.7627Z" fill="#C5E993"/>
<path fill-rule="evenodd" clip-rule="evenodd" d="M25.6539 17.8174C25.6799 15.001 25.6537 12.1982 25.5754 9.40918C25.5976 9.346 25.6368 9.29259 25.6931 9.24902C25.7584 12.1187 25.7453 14.9748 25.6539 17.8174Z" fill="#E2B74C"/>
<path fill-rule="evenodd" clip-rule="evenodd" d="M25.5753 9.40918C25.6553 12.1982 25.682 15.001 25.6554 17.8174C23.627 17.3949 21.5983 17.3949 19.5695 17.8174C19.5561 16.1355 19.5695 14.4539 19.6095 12.7725C21.583 11.619 23.5716 10.4979 25.5753 9.40918Z" fill="#FBCB55"/>
<path fill-rule="evenodd" clip-rule="evenodd" d="M12.5226 15.8955C12.6025 18.3909 12.6293 20.9001 12.6027 23.4229C10.8012 26.9655 10.7879 30.5156 12.5626 34.0732C12.6027 34.9537 12.616 35.8346 12.6027 36.7158C10.574 36.7158 8.54537 36.7158 6.51672 36.7158C6.49003 30.8965 6.51672 25.0776 6.5968 19.2588C8.57425 18.1367 10.5495 17.0156 12.5226 15.8955Z" fill="#F66B81"/>
<path fill-rule="evenodd" clip-rule="evenodd" d="M12.5226 15.8955C12.5273 15.852 12.5534 15.8254 12.6011 15.8154C12.7055 18.3644 12.7055 20.9002 12.6011 23.4229C12.6271 20.9001 12.6009 18.3909 12.5226 15.8955Z" fill="#57252D"/>
<path fill-rule="evenodd" clip-rule="evenodd" d="M21.8117 18.5381C27.0204 18.4976 30.5706 20.8866 32.4621 25.7051C33.5788 29.941 32.5645 33.5712 29.4191 36.5957C25.8021 39.4806 21.905 39.9077 17.7277 37.877C13.9877 35.5897 12.2127 32.2398 12.4025 27.8272C13.1085 23.3045 15.631 20.3283 19.9699 18.8985C20.5943 18.7751 21.2083 18.655 21.8117 18.5381Z" fill="#F8C954"/>
<path fill-rule="evenodd" clip-rule="evenodd" d="M21.7316 20.1397C25.4604 19.9285 28.3031 21.3966 30.2599 24.544C31.4235 26.7388 31.6637 29.0343 30.9806 31.4307C29.548 35.3033 26.7585 37.3586 22.6125 37.5967C18.8991 37.4033 16.2433 35.6416 14.6447 32.3115C13.1884 28.3542 14.0025 24.9508 17.0871 22.1016C18.4598 21.0281 20.008 20.3741 21.7316 20.1397Z" fill="#050301"/>
<path fill-rule="evenodd" clip-rule="evenodd" d="M21.4914 21.2607C25.2737 20.9957 28.0098 22.5438 29.6994 25.9053C30.8658 29.2907 30.1585 32.2136 27.5773 34.6738C24.242 37.0915 20.932 37.0647 17.6476 34.5938C15.0081 32.0202 14.3808 29.0173 15.7658 25.585C16.9974 23.2454 18.906 21.804 21.4914 21.2607Z" fill="#F3B744"/>
<path fill-rule="evenodd" clip-rule="evenodd" d="M22.4523 23.1826C22.7346 23.1703 22.9616 23.277 23.133 23.5029C23.149 23.8435 23.1891 24.1772 23.2531 24.5039C23.9549 24.6612 24.5555 24.9948 25.0549 25.5049C25.2879 26.2065 25.0344 26.4868 24.2941 26.3457C23.4951 25.4912 22.5876 25.331 21.5715 25.8652C20.8131 26.6077 20.8397 27.3284 21.6516 28.0273C21.8117 28.1074 21.9719 28.1875 22.132 28.2676C23.7189 28.1722 24.7999 28.8529 25.3752 30.3096C25.5221 31.9108 24.8147 32.8984 23.2531 33.2724C23.2663 33.5407 23.253 33.8076 23.2131 34.0732C23.0086 34.4837 22.7017 34.5772 22.2922 34.3535C22.2421 34.2934 22.202 34.2267 22.1721 34.1533C22.1321 33.8609 22.1188 33.5673 22.132 33.2724C21.3969 33.1649 20.7963 32.8179 20.3303 32.2314C20.2101 31.6042 20.4638 31.3506 21.091 31.4707C21.9607 32.3712 22.9083 32.4646 23.9338 31.751C24.5815 30.5764 24.2479 29.8156 22.9328 29.4687C21.1604 29.4705 20.146 28.6029 19.8898 26.8662C20.0485 25.5597 20.7692 24.7589 22.0519 24.4638C22.0387 24.169 22.052 23.8754 22.092 23.583C22.1741 23.4079 22.2942 23.2744 22.4523 23.1826Z" fill="#060401"/>
</svg>
