<svg width="24" height="24" viewBox="0 0 24 24" fill="none" xmlns="http://www.w3.org/2000/svg">
<g filter="url(#filter0_d_4350_4102)">
<mask id="mask0_4350_4102" style="mask-type:luminance" maskUnits="userSpaceOnUse" x="4" y="0" width="16" height="17">
<path d="M4 0.0146484H20V16.0146H4V0.0146484Z" fill="white"/>
</mask>
<g mask="url(#mask0_4350_4102)">
<g filter="url(#filter1_d_4350_4102)">
<path d="M19.8926 15.5281C19.9963 15.6319 19.9963 15.8002 19.8926 15.9044C19.8405 15.956 19.7726 15.9823 19.7046 15.9823C19.6363 15.9823 19.5684 15.956 19.5163 15.9044L11.9988 8.38688L4.4813 15.9044C4.42964 15.956 4.3613 15.9823 4.29339 15.9823C4.22547 15.9823 4.15714 15.956 4.10547 15.9044C4.0013 15.8002 4.0013 15.6319 4.10547 15.5281L11.623 8.01063L4.10547 0.493125C4.0013 0.389375 4.0013 0.221042 4.10547 0.116875C4.20922 0.013125 4.37755 0.013125 4.4813 0.116875L11.9988 7.63438L19.5163 0.116875C19.6205 0.013125 19.7888 0.013125 19.8926 0.116875C19.9963 0.221042 19.9963 0.389375 19.8926 0.493125L12.3751 8.01063L19.8926 15.5281Z" fill="#5C5C5C"/>
</g>
</g>
</g>
<defs>
<filter id="filter0_d_4350_4102" x="0.0273438" y="0.0390625" width="23.9429" height="23.9434" filterUnits="userSpaceOnUse" color-interpolation-filters="sRGB">
<feFlood flood-opacity="0" result="BackgroundImageFix"/>
<feColorMatrix in="SourceAlpha" type="matrix" values="0 0 0 0 0 0 0 0 0 0 0 0 0 0 0 0 0 0 127 0" result="hardAlpha"/>
<feOffset dy="4"/>
<feGaussianBlur stdDeviation="2"/>
<feComposite in2="hardAlpha" operator="out"/>
<feColorMatrix type="matrix" values="0 0 0 0 0 0 0 0 0 0 0 0 0 0 0 0 0 0 0.25 0"/>
<feBlend mode="normal" in2="BackgroundImageFix" result="effect1_dropShadow_4350_4102"/>
<feBlend mode="normal" in="SourceGraphic" in2="effect1_dropShadow_4350_4102" result="shape"/>
</filter>
<filter id="filter1_d_4350_4102" x="0.0273438" y="0.0390625" width="23.9429" height="23.9434" filterUnits="userSpaceOnUse" color-interpolation-filters="sRGB">
<feFlood flood-opacity="0" result="BackgroundImageFix"/>
<feColorMatrix in="SourceAlpha" type="matrix" values="0 0 0 0 0 0 0 0 0 0 0 0 0 0 0 0 0 0 127 0" result="hardAlpha"/>
<feOffset dy="4"/>
<feGaussianBlur stdDeviation="2"/>
<feComposite in2="hardAlpha" operator="out"/>
<feColorMatrix type="matrix" values="0 0 0 0 0 0 0 0 0 0 0 0 0 0 0 0 0 0 0.25 0"/>
<feBlend mode="normal" in2="BackgroundImageFix" result="effect1_dropShadow_4350_4102"/>
<feBlend mode="normal" in="SourceGraphic" in2="effect1_dropShadow_4350_4102" result="shape"/>
</filter>
</defs>
</svg>
