<svg width="11" height="11" viewBox="0 0 11 11" fill="none" xmlns="http://www.w3.org/2000/svg">
<path d="M7.00625 5.34375L10.2719 2.07812C10.7469 1.60312 10.7469 0.890625 10.2719 0.415625C10.0937 0.178125 9.79687 0 9.5 0C9.20312 0 8.90625 0.11875 8.66875 0.35625L5.34375 3.68125L2.07812 0.415625C1.60312 -0.0593751 0.83125 -0.0593751 0.415625 0.415625C0.178125 0.59375 0 0.890625 0 1.24688C0 1.60313 0.11875 1.84062 0.35625 2.07812L3.62187 5.34375L0.35625 8.60938C0.178125 8.84688 0 9.14375 0 9.5C0 9.79688 0.11875 10.0937 0.35625 10.3312C0.59375 10.5687 0.890625 10.6875 1.1875 10.6875C1.48437 10.6875 1.78125 10.5687 2.01875 10.3312L5.28437 7.06562L8.55 10.3312C9.025 10.8062 9.79687 10.8062 10.2125 10.3312C10.6875 9.85625 10.6875 9.08438 10.2125 8.66875L7.00625 5.34375Z" fill="black"/>
</svg>
