<svg width="34" height="34" viewBox="0 0 34 34" fill="none" xmlns="http://www.w3.org/2000/svg">
<g clip-path="url(#clip0_572_330)">
<path opacity="0.891" fill-rule="evenodd" clip-rule="evenodd" d="M14.875 -0.0424805C16.4651 -0.0424805 18.0553 -0.0424805 19.6454 -0.0424805C26.7182 1.22259 31.4887 5.16093 33.9566 11.7725C33.9566 12.2825 33.9566 12.7925 33.9566 13.3025C33.5662 13.8783 33.0458 14.3174 32.3954 14.62C31.5786 15.0615 30.7113 15.359 29.7933 15.5125C29.8407 15.995 29.8985 16.4767 29.9668 16.9575C29.8985 17.4384 29.8407 17.9201 29.7933 18.4025C31.0997 18.6261 32.2851 19.1219 33.3495 19.89C33.6057 20.0975 33.808 20.3384 33.9566 20.6125C33.9566 21.1225 33.9566 21.6325 33.9566 22.1425C31.4887 28.7541 26.7182 32.6925 19.6454 33.9575C18.0553 33.9575 16.4651 33.9575 14.875 33.9575C9.07476 32.9613 4.72354 29.958 1.8214 24.9475C0.893243 23.168 0.271643 21.298 -0.043396 19.3375C-0.043396 17.7508 -0.043396 16.1642 -0.043396 14.5775C0.98108 8.89884 4.0457 4.63466 9.15048 1.78502C10.9663 0.875426 12.8744 0.266257 14.875 -0.0424805ZM29.2729 13.5575C29.0822 13.0984 28.8654 12.645 28.6224 12.1975C27.8925 10.965 27.1408 9.74671 26.3673 8.54252C24.8718 6.66852 22.9202 5.52102 20.5127 5.10002C18.4021 4.93119 16.2915 4.93119 14.1811 5.10002C11.8711 5.47331 9.97741 6.53581 8.49997 8.28752C7.32088 10.0026 6.25116 11.7876 5.29079 13.6425C4.42344 15.8525 4.42344 18.0625 5.29079 20.2725C6.25116 22.1274 7.32088 23.9124 8.49997 25.6275C9.97741 27.3792 11.8711 28.4417 14.1811 28.815C16.2915 28.9838 18.4021 28.9838 20.5127 28.815C22.9202 28.394 24.8718 27.2465 26.3673 25.3725C27.1408 24.1683 27.8925 22.95 28.6224 21.7175C28.8654 21.27 29.0822 20.8166 29.2729 20.3575C30.2267 20.5698 31.123 20.924 31.9617 21.42C29.7395 27.4826 25.3738 30.996 18.8648 31.96C12.6609 32.2986 7.78933 29.9895 4.24997 25.0325C1.18535 19.6492 1.18535 14.2658 4.24997 8.88252C7.78933 3.92559 12.6609 1.61643 18.8648 1.95502C25.3738 2.91912 29.7395 6.43245 31.9617 12.495C31.123 12.9911 30.2267 13.3453 29.2729 13.5575Z" fill="#EA4B98"/>
<path opacity="0.968" fill-rule="evenodd" clip-rule="evenodd" d="M29.273 13.5575C29.273 13.6142 29.273 13.6708 29.273 13.7275C27.4116 14.0312 25.7057 13.677 24.1556 12.665C23.1486 11.6905 22.0211 10.883 20.773 10.2425C20.5894 10.0593 20.358 9.97433 20.0791 9.98751C20.0695 9.93506 20.0406 9.89256 19.9924 9.86001C19.7629 9.81776 19.5315 9.80357 19.2985 9.81751C18.0865 9.71075 16.8722 9.71075 15.6556 9.81751C15.251 9.86485 14.8752 9.97816 14.5281 10.1575C12.8162 10.7299 11.6019 11.8349 10.8852 13.4725C10.7617 13.6438 10.7039 13.8421 10.7117 14.0675C10.6391 14.0966 10.6101 14.1532 10.625 14.2375C10.5015 14.4088 10.4437 14.6071 10.4515 14.8325C10.3576 16.1057 10.3432 17.3807 10.4082 18.6575C10.4954 19.1167 10.5966 19.57 10.7117 20.0175C10.7339 20.2272 10.8206 20.3972 10.972 20.5275C11.7439 22.3321 13.1028 23.4654 15.0485 23.9275C15.2233 24.0485 15.4256 24.1052 15.6556 24.0975C17.1447 24.2588 18.6192 24.2021 20.0791 23.9275C20.4441 23.9125 20.762 23.7992 21.0332 23.5875C21.4468 23.3702 21.8516 23.1294 22.2475 22.865C23.0317 22.1812 23.8413 21.5296 24.676 20.91C25.1598 20.6151 25.6802 20.4309 26.2373 20.3575C27.2465 20.2799 28.2584 20.2516 29.273 20.2725C29.273 20.3008 29.273 20.3292 29.273 20.3575C29.0822 20.8166 28.8654 21.27 28.6225 21.7175C27.8926 22.95 27.1409 24.1683 26.3674 25.3725C24.8718 27.2465 22.9203 28.394 20.5128 28.815C18.4022 28.9838 16.2916 28.9838 14.1811 28.815C11.8711 28.4417 9.97745 27.3792 8.50001 25.6275C7.32092 23.9124 6.2512 22.1274 5.29083 20.2725C4.42348 18.0625 4.42348 15.8525 5.29083 13.6425C6.2512 11.7876 7.32092 10.0026 8.50001 8.28751C9.97745 6.5358 11.8711 5.4733 14.1811 5.10001C16.2916 4.93118 18.4022 4.93118 20.5128 5.10001C22.9203 5.52101 24.8718 6.66851 26.3674 8.54251C27.1409 9.7467 27.8926 10.965 28.6225 12.1975C28.8654 12.645 29.0822 13.0984 29.273 13.5575Z" fill="#EA4B98"/>
<path fill-rule="evenodd" clip-rule="evenodd" d="M19.2985 9.8175C19.539 9.91584 19.7992 9.97254 20.0791 9.9875C20.2904 10.104 20.5217 10.189 20.773 10.2425C22.0211 10.883 23.1486 11.6905 24.1556 12.665C25.7057 13.677 27.4115 14.0312 29.273 13.7275C29.4988 14.273 29.6434 14.8397 29.7066 15.4275C28.8124 15.4988 27.9162 15.5271 27.0179 15.5125C26.5464 15.4972 26.0837 15.4406 25.6301 15.3425C25.4553 15.2215 25.253 15.1648 25.023 15.1725C24.3706 14.9662 23.7635 14.6687 23.2015 14.28C22.5109 13.745 21.8459 13.1784 21.2066 12.58C20.5533 12.1037 19.8304 11.7921 19.0383 11.645C17.9246 11.5747 16.8259 11.5889 15.7423 11.6875C15.5123 11.6798 15.31 11.7365 15.1352 11.8575C12.96 12.8184 12.0059 14.4759 12.273 16.83C12.0127 18.7011 12.591 20.2595 14.0076 21.505C14.3613 21.7349 14.7371 21.9191 15.1352 22.0575C15.31 22.1785 15.5123 22.2351 15.7423 22.2275C16.8259 22.3261 17.9246 22.3403 19.0383 22.27C19.6909 22.1607 20.298 21.934 20.8597 21.59C21.766 20.764 22.7201 19.999 23.7219 19.295C24.1017 19.066 24.5065 18.9102 24.9362 18.8275C25.1875 18.774 25.4188 18.689 25.6301 18.5725C26.0837 18.4744 26.5464 18.4178 27.0179 18.4025C27.9162 18.3879 28.8124 18.4162 29.7066 18.4875C29.5892 19.0613 29.4446 19.628 29.273 20.1875C28.3473 20.1733 27.4221 20.1875 26.4974 20.23C26.3902 20.2497 26.3034 20.2922 26.2372 20.3575C25.6801 20.4309 25.1597 20.6151 24.676 20.91C23.8413 21.5296 23.0317 22.1812 22.2474 22.865C21.8516 23.1293 21.4468 23.3702 21.0332 23.5875C20.6953 23.6693 20.3774 23.7827 20.0791 23.9275C18.6192 24.2021 17.1447 24.2588 15.6556 24.0975C15.4808 23.9765 15.2785 23.9198 15.0485 23.9275C13.1027 23.4654 11.7439 22.332 10.9719 20.5275C10.9498 20.3178 10.8631 20.1478 10.7117 20.0175C10.5965 19.57 10.4954 19.1167 10.4082 18.6575C10.3432 17.3807 10.3576 16.1057 10.4515 14.8325C10.575 14.6612 10.6328 14.4629 10.625 14.2375C10.6101 14.1532 10.639 14.0966 10.7117 14.0675C10.8352 13.8962 10.893 13.6979 10.8852 13.4725C11.6019 11.8349 12.8162 10.7299 14.5281 10.1575C14.9327 10.1102 15.3085 9.99685 15.6556 9.8175C16.8721 9.71074 18.0864 9.71074 19.2985 9.8175Z" fill="white"/>
<path fill-rule="evenodd" clip-rule="evenodd" d="M19.2985 9.8175C19.5315 9.80356 19.7628 9.81775 19.9923 9.86C20.0406 9.89255 20.0694 9.93505 20.0791 9.9875C19.7992 9.97254 19.539 9.91584 19.2985 9.8175Z" fill="#148FFA"/>
<path opacity="0.996" fill-rule="evenodd" clip-rule="evenodd" d="M20.0791 9.98747C20.358 9.9743 20.5894 10.0593 20.773 10.2425C20.5217 10.189 20.2904 10.104 20.0791 9.98747Z" fill="#129EF8"/>
<path fill-rule="evenodd" clip-rule="evenodd" d="M15.6556 9.8175C15.3085 9.99685 14.9327 10.1102 14.5281 10.1575C14.8752 9.97815 15.251 9.86485 15.6556 9.8175Z" fill="#16C9F3"/>
<path fill-rule="evenodd" clip-rule="evenodd" d="M15.7423 11.6875C15.5676 11.8086 15.3652 11.8652 15.1352 11.8575C15.31 11.7365 15.5123 11.6799 15.7423 11.6875Z" fill="#1192FA"/>
<path opacity="0.996" fill-rule="evenodd" clip-rule="evenodd" d="M10.8852 13.4725C10.893 13.6979 10.8353 13.8962 10.7118 14.0675C10.704 13.8421 10.7617 13.6437 10.8852 13.4725Z" fill="#14BBF5"/>
<path opacity="0.996" fill-rule="evenodd" clip-rule="evenodd" d="M10.625 14.2375C10.6328 14.4629 10.575 14.6612 10.4515 14.8325C10.4437 14.6071 10.5015 14.4088 10.625 14.2375Z" fill="#0D99F8"/>
<path opacity="0.996" fill-rule="evenodd" clip-rule="evenodd" d="M25.0229 15.1725C25.253 15.1648 25.4553 15.2215 25.6301 15.3425C25.4001 15.3501 25.1977 15.2935 25.0229 15.1725Z" fill="#11A6F7"/>
<path opacity="0.996" fill-rule="evenodd" clip-rule="evenodd" d="M29.7067 15.4275C29.6405 15.4928 29.5537 15.5353 29.4465 15.555C28.6217 15.625 27.8121 15.6109 27.0179 15.5125C27.9162 15.5271 28.8124 15.4988 29.7067 15.4275Z" fill="#13A0F8"/>
<path opacity="0.985" fill-rule="evenodd" clip-rule="evenodd" d="M27.0179 18.4025C27.8121 18.3041 28.6217 18.29 29.4465 18.36C29.5537 18.3797 29.6405 18.4222 29.7067 18.4875C28.8124 18.4162 27.9162 18.3879 27.0179 18.4025Z" fill="#10AFF6"/>
<path opacity="0.996" fill-rule="evenodd" clip-rule="evenodd" d="M25.6301 18.5725C25.4188 18.689 25.1875 18.774 24.9362 18.8275C25.1198 18.6443 25.3512 18.5593 25.6301 18.5725Z" fill="#11ADF6"/>
<path opacity="0.996" fill-rule="evenodd" clip-rule="evenodd" d="M10.7117 20.0175C10.8631 20.1478 10.9498 20.3178 10.9719 20.5275C10.8206 20.3972 10.7338 20.2272 10.7117 20.0175Z" fill="#14B2F6"/>
<path fill-rule="evenodd" clip-rule="evenodd" d="M29.273 20.1875C29.273 20.2158 29.273 20.2442 29.273 20.2725C28.2584 20.2516 27.2465 20.2799 26.2372 20.3575C26.3034 20.2922 26.3902 20.2497 26.4974 20.23C27.4221 20.1875 28.3473 20.1733 29.273 20.1875Z" fill="#0D87FB"/>
<path fill-rule="evenodd" clip-rule="evenodd" d="M15.1352 22.0575C15.3652 22.0499 15.5676 22.1065 15.7423 22.2275C15.5123 22.2352 15.31 22.1785 15.1352 22.0575Z" fill="#1295F9"/>
<path fill-rule="evenodd" clip-rule="evenodd" d="M21.0332 23.5875C20.7621 23.7992 20.4441 23.9125 20.0791 23.9275C20.3774 23.7827 20.6954 23.6693 21.0332 23.5875Z" fill="#1397F9"/>
<path opacity="0.996" fill-rule="evenodd" clip-rule="evenodd" d="M15.0485 23.9275C15.2785 23.9199 15.4808 23.9765 15.6556 24.0975C15.4256 24.1052 15.2232 24.0485 15.0485 23.9275Z" fill="#11A8F7"/>
</g>
<defs>
<clipPath id="clip0_572_330">
<rect width="34" height="34" fill="white"/>
</clipPath>
</defs>
</svg>
