<svg width="34" height="34" viewBox="0 0 34 34" fill="none" xmlns="http://www.w3.org/2000/svg">
<g clip-path="url(#clip0_1343_31)">
<path opacity="0.931" fill-rule="evenodd" clip-rule="evenodd" d="M16.7011 -0.0332031C17.2767 -0.0332031 17.8521 -0.0332031 18.4277 -0.0332031C23.9538 0.587361 28.2591 3.19934 31.3437 7.80273C31.7105 8.40351 32.0426 9.02328 32.3398 9.66211C32.5561 9.25165 32.7553 8.83104 32.9374 8.40039C33.2804 8.04897 33.6236 8.04897 33.9667 8.40039C33.9667 8.59961 33.9667 8.79883 33.9667 8.99805C33.5645 9.8252 33.1771 10.6664 32.8046 11.5215C32.5151 11.6864 32.2163 11.6975 31.9081 11.5547C31.1556 11.2227 30.4029 10.8906 29.6503 10.5586C29.2962 10.2266 29.2962 9.89453 29.6503 9.5625C29.8496 9.51821 30.0488 9.51821 30.248 9.5625C30.5799 9.71816 30.9119 9.85097 31.2441 9.96094C28.8235 5.30659 25.0384 2.42899 19.8886 1.32812C18.8308 1.16501 17.7683 1.05433 16.7011 0.996094C16.5008 0.894585 16.4123 0.72857 16.4355 0.498047C16.421 0.261256 16.5096 0.0841726 16.7011 -0.0332031Z" fill="#EA4B98"/>
<path opacity="0.981" fill-rule="evenodd" clip-rule="evenodd" d="M-0.0332031 8.40055C-0.0332031 7.73649 -0.0332031 7.07243 -0.0332031 6.40836C0.418888 3.95216 1.76915 2.17026 4.01758 1.06266C7.22022 -0.137096 9.97608 0.515899 12.2852 3.02165C13.8611 5.1287 14.2153 7.43076 13.3477 9.9279C11.7849 13.2719 9.1618 14.6996 5.47852 14.2111C3.05626 13.6482 1.3629 12.2205 0.398438 9.9279C0.221689 9.41902 0.0778089 8.90995 -0.0332031 8.40055ZM7.4043 4.21696C8.0074 4.18949 8.60505 4.22269 9.19727 4.31657C9.47591 4.51453 9.53122 4.76909 9.36328 5.08024C9.25384 5.16106 9.13212 5.21639 8.99805 5.24626C8.19739 5.25187 7.40051 5.29614 6.60742 5.37907C5.91358 5.6503 5.49301 6.14834 5.3457 6.87321C6.20927 6.86212 7.07253 6.87321 7.93555 6.90641C8.39023 7.03033 8.51195 7.30697 8.30078 7.73649C8.19134 7.81731 8.06962 7.87262 7.93555 7.90251C7.07253 7.93571 6.20927 7.9468 5.3457 7.93571C5.52761 8.77063 6.03673 9.29086 6.87305 9.49625C7.65252 9.50051 8.42722 9.54473 9.19727 9.62907C9.47591 9.82702 9.53122 10.0816 9.36328 10.3927C9.25384 10.4736 9.13212 10.5289 8.99805 10.5588C8.02679 10.6558 7.07499 10.5673 6.14258 10.2931C5.15246 9.81235 4.53266 9.03765 4.2832 7.96891C4.01199 7.95357 3.74637 7.90928 3.48633 7.8361C3.1919 7.61915 3.14764 7.35352 3.35352 7.03922C3.66573 6.91863 3.98669 6.8412 4.31641 6.8068C4.75487 5.22763 5.78416 4.36435 7.4043 4.21696Z" fill="#EA4B98"/>
<path opacity="0.982" fill-rule="evenodd" clip-rule="evenodd" d="M16.1699 3.68578C16.7016 3.67473 17.2329 3.6858 17.7637 3.71898C19.5246 6.08809 20.6756 8.73325 21.2168 11.6545C18.6711 11.6656 16.1256 11.6545 13.5801 11.6213C14.63 9.8694 15.0173 7.97682 14.7422 5.94359C15.169 5.15548 15.6449 4.40287 16.1699 3.68578Z" fill="#EA4B98"/>
<path opacity="0.702" fill-rule="evenodd" clip-rule="evenodd" d="M14.709 3.81824C14.7672 3.80955 14.8114 3.83169 14.8418 3.88465C14.6758 4.12814 14.5098 4.37163 14.3438 4.61512C14.2255 4.42696 14.1259 4.22775 14.0449 4.01746C14.2701 3.93665 14.4914 3.87025 14.709 3.81824Z" fill="#EA4B98"/>
<path opacity="0.977" fill-rule="evenodd" clip-rule="evenodd" d="M19.0918 3.81836C23.782 4.7132 27.1466 7.31412 29.1855 11.6211C26.8615 11.6543 24.5372 11.6654 22.2129 11.6543C21.6913 8.82632 20.6509 6.21435 19.0918 3.81836Z" fill="#EA4B98"/>
<path opacity="0.993" fill-rule="evenodd" clip-rule="evenodd" d="M12.7168 12.7168C15.6387 12.7168 18.5605 12.7168 21.4824 12.7168C21.82 15.3938 21.831 18.0721 21.5156 20.752C21.4698 20.931 21.3702 21.0749 21.2168 21.1836C18.295 21.2168 15.3731 21.2279 12.4512 21.2168C12.1143 18.5398 12.1033 15.8615 12.418 13.1816C12.478 13.0002 12.5776 12.8452 12.7168 12.7168Z" fill="#EA4B98"/>
<path opacity="0.983" fill-rule="evenodd" clip-rule="evenodd" d="M22.4121 12.783C24.7915 12.7057 27.1821 12.6946 29.584 12.7498C30.2577 14.8406 30.4347 16.9767 30.1152 19.158C28.1432 18.4191 26.1732 18.4081 24.2051 19.1248C23.6501 19.3413 23.13 19.618 22.6445 19.9549C22.7417 18.3425 22.7639 16.7267 22.7109 15.1072C22.6662 14.3159 22.5666 13.5411 22.4121 12.783Z" fill="#EA4B98"/>
<path opacity="0.982" fill-rule="evenodd" clip-rule="evenodd" d="M11.2559 13.9785C11.2983 14.0182 11.3204 14.0735 11.3223 14.1445C11.1899 15.7021 11.1567 17.2626 11.2227 18.8262C11.2692 19.6219 11.3688 20.4077 11.5215 21.1836C9.13086 21.2279 6.74024 21.2279 4.34961 21.1836C3.67594 19.0928 3.49886 16.9567 3.81836 14.7754C6.17893 15.6361 8.48101 15.4922 10.7246 14.3438C10.9177 14.2369 11.0947 14.1152 11.2559 13.9785Z" fill="#EA4B98"/>
<path opacity="0.981" fill-rule="evenodd" clip-rule="evenodd" d="M33.9668 25.5334C33.9668 26.1975 33.9668 26.8616 33.9668 27.5256C33.4088 30.3753 31.7486 32.2679 28.9864 33.2034C26.0784 33.8941 23.6324 33.1304 21.6485 30.9124C20.0725 28.8053 19.7184 26.5032 20.586 24.0061C22.1492 20.6618 24.7723 19.2341 28.4551 19.7229C30.8774 20.2858 32.5707 21.7135 33.5352 24.0061C33.712 24.515 33.8558 25.024 33.9668 25.5334ZM26.8614 22.3459C27.2483 22.2788 27.4807 22.4337 27.5586 22.8108C27.5916 22.9865 27.6027 23.1636 27.5918 23.342C27.9467 23.331 28.3009 23.3421 28.6543 23.3752C29.109 23.4992 29.2307 23.7758 29.0196 24.2053C28.9101 24.2861 28.7884 24.3415 28.6543 24.3713C27.9239 24.3934 27.1934 24.4156 26.4629 24.4377C26.0266 24.6805 25.8827 25.0457 26.0313 25.5334C26.1058 25.6745 26.2054 25.7962 26.3301 25.8987C26.8842 25.9704 27.4376 26.0589 27.9903 26.1643C29.0959 26.7585 29.3948 27.6329 28.8868 28.7874C28.5709 29.2496 28.1393 29.5373 27.5918 29.6506C27.6288 29.9956 27.5624 30.3166 27.3926 30.6135C26.9631 30.8247 26.6865 30.703 26.5625 30.2483C26.5295 30.0726 26.5184 29.8955 26.5293 29.717C26.1745 29.7281 25.8203 29.717 25.4668 29.6838C25.0122 29.5599 24.8904 29.2833 25.1016 28.8538C25.211 28.7729 25.3328 28.7176 25.4668 28.6877C26.1973 28.6656 26.9278 28.6434 27.6582 28.6213C28.0945 28.3786 28.2384 28.0134 28.0899 27.5256C28.0154 27.3846 27.9158 27.2629 27.7911 27.1604C27.237 27.0887 26.6835 27.0002 26.1309 26.8948C25.0252 26.3006 24.7264 25.4262 25.2344 24.2717C25.5502 23.8095 25.9819 23.5217 26.5293 23.4084C26.4587 22.9844 26.5694 22.6303 26.8614 22.3459Z" fill="#EA4B98"/>
<path opacity="0.93" fill-rule="evenodd" clip-rule="evenodd" d="M17.2324 33.9666C16.6569 33.9666 16.0814 33.9666 15.5059 33.9666C9.97973 33.346 5.67441 30.7341 2.58984 26.1306C2.22304 25.5299 1.89101 24.9101 1.59375 24.2713C1.37748 24.6817 1.17827 25.1023 0.996094 25.533C0.653098 25.8844 0.309999 25.8844 -0.0332031 25.533C-0.0332031 25.3338 -0.0332031 25.1345 -0.0332031 24.9353C0.369093 24.1082 0.75646 23.267 1.12891 22.4119C1.41842 22.2469 1.71725 22.2359 2.02539 22.3787C2.77799 22.7107 3.5306 23.0428 4.2832 23.3748C4.63737 23.7068 4.63737 24.0388 4.2832 24.3709C4.08398 24.4152 3.88477 24.4152 3.68555 24.3709C3.35366 24.2152 3.02163 24.0824 2.68945 23.9724C5.11799 28.6569 8.92527 31.5346 14.1113 32.6053C15.1469 32.7666 16.1873 32.8773 17.2324 32.9373C17.4327 33.0388 17.5212 33.2048 17.498 33.4353C17.5125 33.6721 17.4239 33.8492 17.2324 33.9666Z" fill="#EA4B98"/>
<path opacity="0.977" fill-rule="evenodd" clip-rule="evenodd" d="M4.74805 22.3456C7.06091 22.2794 9.38513 22.2572 11.7207 22.2792C12.2291 25.0896 13.2695 27.6794 14.8418 30.0488C10.7436 29.3549 7.61142 27.2299 5.44531 23.6738C5.22788 23.2165 4.99546 22.7738 4.74805 22.3456Z" fill="#EA4B98"/>
<path opacity="0.982" fill-rule="evenodd" clip-rule="evenodd" d="M12.7168 22.2791C15.2625 22.268 17.808 22.2791 20.3535 22.3123C19.2884 24.0612 18.901 25.9538 19.1914 27.99C18.7734 28.771 18.2976 29.5126 17.7637 30.2146C17.2324 30.2589 16.7012 30.2589 16.1699 30.2146C14.409 27.8455 13.258 25.2003 12.7168 22.2791Z" fill="#EA4B98"/>
<path opacity="0.701" fill-rule="evenodd" clip-rule="evenodd" d="M19.5566 29.3184C19.7036 29.4898 19.8143 29.689 19.8887 29.916C19.6511 30.0036 19.4076 30.07 19.1582 30.1152C19.1361 30.0931 19.1139 30.0709 19.0918 30.0488C19.2641 29.8147 19.419 29.5712 19.5566 29.3184Z" fill="#EA4B98"/>
</g>
<defs>
<clipPath id="clip0_1343_31">
<rect width="34" height="34" fill="white"/>
</clipPath>
</defs>
</svg>
