<svg width="42" height="41" viewBox="0 0 42 41" fill="none" xmlns="http://www.w3.org/2000/svg">
<path d="M28.4726 16.4801C20.5649 14.7464 27.0472 3.77966 16.2127 4.68855C5.37807 5.59744 -4.89597 30.5458 14.3388 36.3875C33.5736 42.2292 43.4833 19.7753 28.4726 16.4801Z" fill="#464BD8"/>
<path d="M16.2688 9.43323L12.3209 29.5288V9.43323H16.2688ZM16.8934 9.43323L12.7614 30.4698L12.3209 30.3817V29.5288L16.2688 9.43323H16.8934Z" fill="#2E2E42"/>
<path d="M17.4579 9.43323L17.514 9.44524L13.3619 30.5899L12.7614 30.4698L16.8934 9.43323H17.4579Z" fill="#2D2D41"/>
<path d="M13.3632 30.59L17.5173 9.44922L18.1184 9.56734L13.9643 30.7081L13.3632 30.59Z" fill="#2D2D40"/>
<path d="M13.962 30.708L18.1162 9.56726L18.7173 9.68538L14.5631 30.8261L13.962 30.708Z" fill="#2C2C3F"/>
<path d="M14.5649 30.8268L18.7191 9.68604L19.3202 9.80415L15.166 30.9449L14.5649 30.8268Z" fill="#2B2B3E"/>
<path d="M15.1638 30.9447L19.318 9.80396L19.9191 9.92207L15.7649 31.0628L15.1638 30.9447Z" fill="#2A2A3D"/>
<path d="M15.7667 31.0635L19.9209 9.92273L20.522 10.0408L16.3678 31.1816L15.7667 31.0635Z" fill="#2A2A3C"/>
<path d="M16.3656 31.1814L20.5198 10.0406L21.1209 10.1588L16.9667 31.2995L16.3656 31.1814Z" fill="#29293B"/>
<path d="M16.9646 31.2994L21.1188 10.1587L21.7199 10.2768L17.5657 31.4175L16.9646 31.2994Z" fill="#28283A"/>
<path d="M17.5682 31.4142L21.7224 10.2734L22.3235 10.3916L18.1693 31.5323L17.5682 31.4142Z" fill="#282839"/>
<path d="M18.1671 31.5322L22.3213 10.3915L22.9224 10.5096L18.7682 31.6503L18.1671 31.5322Z" fill="#272738"/>
<path d="M18.77 31.651L22.9242 10.5103L23.5253 10.6284L19.3711 31.7691L18.77 31.651Z" fill="#262637"/>
<path d="M19.3689 31.7689L23.5231 10.6282L24.1242 10.7463L19.97 31.887L19.3689 31.7689Z" fill="#252536"/>
<path d="M19.9718 31.8877L24.126 10.7469L24.7271 10.8651L20.5729 32.0058L19.9718 31.8877Z" fill="#252534"/>
<path d="M20.5707 32.0056L24.7248 10.8649L25.326 10.983L21.1718 32.1237L20.5707 32.0056Z" fill="#242433"/>
<path d="M21.1736 32.1244L25.3278 10.9836L25.9289 11.1018L21.7747 32.2425L21.1736 32.1244Z" fill="#232332"/>
<path d="M21.7726 32.2424L25.9268 11.1017L26.5279 11.2198L22.3737 32.3605L21.7726 32.2424Z" fill="#222231"/>
<path d="M22.3754 32.3611L26.5295 11.2203L27.1306 11.3385L22.9765 32.4792L22.3754 32.3611Z" fill="#222230"/>
<path d="M22.9742 32.4791L27.1284 11.3384L27.7295 11.4565L23.5753 32.5972L22.9742 32.4791Z" fill="#21212F"/>
<path d="M23.5771 32.5979L27.7313 11.4572L28.3324 11.5753L24.1783 32.716L23.5771 32.5979Z" fill="#20202E"/>
<path d="M24.1761 32.7158L28.3303 11.5751L28.9314 11.6932L24.7773 32.8339L24.1761 32.7158Z" fill="#20202D"/>
<path d="M24.7789 32.8346L28.9331 11.6938L29.5342 11.812L25.38 32.9527L24.7789 32.8346Z" fill="#1F1F2C"/>
<path d="M25.3779 32.9526L29.5321 11.8119L30.1332 11.93L25.979 33.0707L25.3779 32.9526Z" fill="#1E1E2B"/>
<path d="M25.9808 33.0714L30.135 11.9307L30.7361 12.0488L26.5819 33.1895L25.9808 33.0714Z" fill="#1D1D2A"/>
<path d="M30.7349 12.0437L31.3355 12.1598L27.2035 33.1963H26.6389L26.5789 33.1843L30.7349 12.0437Z" fill="#1D1D29"/>
<path d="M31.3354 12.1599L31.7758 12.248V13.1008L27.828 33.1964H27.2034L31.3354 12.1599ZM27.828 33.1964L31.7758 13.1008V33.1964H27.828Z" fill="#1C1C28"/>
<path d="M26.4627 32.3316C26.3986 32.3316 26.3346 32.3236 26.2705 32.3116L13.9785 29.8972C13.7222 29.8451 13.498 29.701 13.3539 29.4808C13.2097 29.2646 13.1537 29.0003 13.2057 28.7441L16.6731 11.0868C16.7652 10.6264 17.1656 10.2941 17.6341 10.2941C17.6981 10.2941 17.7622 10.3021 17.8262 10.3141L30.1183 12.7284C30.6508 12.8325 30.9951 13.349 30.891 13.8776L27.4236 31.5348C27.3315 31.9992 26.9271 32.3316 26.4627 32.3316Z" fill="white"/>
<path d="M26.4627 32.3316C26.3986 32.3316 26.3346 32.3236 26.2705 32.3116L13.9785 29.8972C13.7222 29.8451 13.498 29.701 13.3539 29.4808C13.2097 29.2646 13.1537 29.0003 13.2057 28.7441L16.6731 11.0868C16.7652 10.6264 17.1656 10.2941 17.6341 10.2941C17.6981 10.2941 17.7622 10.3021 17.8262 10.3141L30.1183 12.7284C30.6508 12.8325 30.9951 13.349 30.891 13.8776L27.4236 31.5348C27.3315 31.9992 26.9271 32.3316 26.4627 32.3316Z" fill="white"/>
<path d="M26.2305 31.779C26.1744 31.779 26.1184 31.775 26.0623 31.763L15.2598 29.6409C15.0355 29.5969 14.8393 29.4688 14.7112 29.2766C14.5831 29.0844 14.535 28.8562 14.5831 28.628L17.6301 13.1128C17.7102 12.7084 18.0625 12.4161 18.4749 12.4161C18.531 12.4161 18.587 12.4201 18.6431 12.4322L29.4456 14.5542C29.9101 14.6463 30.2184 15.0988 30.1263 15.5672L27.0793 31.0823C26.9952 31.4867 26.6429 31.779 26.2305 31.779Z" fill="#2AEFC8"/>
<path d="M27.5997 10.9907C27.6558 10.8826 27.7038 10.7665 27.7279 10.6384C27.872 9.92568 27.4036 9.233 26.6909 9.09287L23.0713 8.38017C22.3586 8.24003 21.6659 8.70449 21.5258 9.41718C21.5018 9.5413 21.5018 9.66142 21.5098 9.78154C20.5328 9.66142 19.7 9.96171 19.5719 10.6304L28.9491 12.5362C29.0772 11.8956 28.4846 11.271 27.5997 10.9907Z" fill="#514DDF"/>
<path d="M28.9491 12.8966C28.9251 12.8966 28.9011 12.8926 28.8771 12.8885L19.5039 10.9827C19.3117 10.9426 19.1876 10.7545 19.2236 10.5623C19.3678 9.81755 20.1285 9.36111 21.1695 9.39714C21.1735 9.38113 21.1735 9.36511 21.1775 9.34509C21.3537 8.44021 22.2386 7.84763 23.1435 8.0238L26.763 8.7365C27.2034 8.82458 27.5838 9.07683 27.832 9.44919C28.0803 9.82156 28.1684 10.266 28.0803 10.7024C28.0763 10.7264 28.0683 10.7505 28.0643 10.7785C28.9411 11.1749 29.4416 11.8916 29.3015 12.6043C29.2815 12.6964 29.2294 12.7804 29.1493 12.8325C29.0893 12.8765 29.0172 12.8966 28.9491 12.8966ZM20.1245 10.3821L28.5407 12.0918C28.3926 11.7835 28.0082 11.4952 27.4917 11.331C27.3916 11.299 27.3115 11.2229 27.2675 11.1268C27.2274 11.0307 27.2315 10.9186 27.2795 10.8265C27.3275 10.7304 27.3596 10.6504 27.3756 10.5743C27.4276 10.322 27.3756 10.0698 27.2315 9.85759C27.0873 9.64538 26.8711 9.49724 26.6189 9.44919L22.9993 8.7365C22.4788 8.6364 21.9783 8.97273 21.8742 9.49324C21.8582 9.56931 21.8582 9.65339 21.8662 9.75749C21.8742 9.8656 21.8342 9.9697 21.7581 10.0458C21.682 10.1218 21.5739 10.1539 21.4658 10.1419C20.8853 10.0658 20.3928 10.1619 20.1245 10.3821Z" fill="#29293A"/>
<path d="M24.701 10.7905C24.3686 10.7264 24.1564 10.4061 24.2205 10.0738C24.2846 9.74145 24.6049 9.52924 24.9372 9.59331C25.2695 9.65737 25.4817 9.97768 25.4177 10.31C25.3496 10.6423 25.0293 10.8545 24.701 10.7905Z" fill="white"/>
<path d="M22.6395 16.8246L28.6792 18.067L28.5743 18.5769L22.5346 17.3344L22.6395 16.8246ZM17.7573 17.8452L28.2796 20.0098L28.1747 20.5196L17.6524 18.355L17.7573 17.8452ZM17.3569 19.7869L27.8791 21.9515L27.7742 22.4614L17.252 20.2967L17.3569 19.7869ZM16.9572 21.7247L27.4795 23.8893L27.3746 24.3992L16.8523 22.2345L16.9572 21.7247ZM16.5568 23.6665L27.0791 25.8311L26.9742 26.3409L16.4519 24.1763L16.5568 23.6665ZM16.1329 25.7341L23.6864 27.288L23.5815 27.7978L16.0281 26.2439L16.1329 25.7341Z" fill="#514DDF"/>
</svg>
