<svg width="405" height="321" viewBox="0 0 405 321" fill="none" xmlns="http://www.w3.org/2000/svg">
<path d="M405 320.104V0.563232C330.123 0.563232 274.238 7.7459 255.654 11.3372C175.882 -5.06027 135.392 37.4401 125.118 60.74C75.6237 65.3649 64.1565 125.91 64.6098 155.604C-15.706 210.893 -4.51073 288.308 11.1264 320.104H405Z" fill="#FAC3DE" fill-opacity="0.38"/>
<path d="M341.007 234.441H85.723C85.2041 234.441 84.7064 234.236 84.3395 233.87C83.9726 233.505 83.7665 233.009 83.7665 232.492C83.7665 231.975 83.9726 231.479 84.3395 231.114C84.7064 230.748 85.2041 230.543 85.723 230.543H341.007C341.526 230.543 342.024 230.748 342.391 231.114C342.758 231.479 342.964 231.975 342.964 232.492C342.964 233.009 342.758 233.505 342.391 233.87C342.024 234.236 341.526 234.441 341.007 234.441Z" fill="#F6722B"/>
<path d="M213.365 282.136C281.768 282.136 337.219 278.538 337.219 274.099C337.219 269.66 281.768 266.061 213.365 266.061C144.963 266.061 89.5117 269.66 89.5117 274.099C89.5117 278.538 144.963 282.136 213.365 282.136Z" fill="#F6722B"/>
<path d="M232.416 217.337H220.289V274.098H232.416V217.337Z" fill="white"/>
<path d="M232.416 222.12V230.544L220.289 228.318V222.12H232.416Z" fill="#D2E2FF"/>
<path d="M232.416 257.635V266.06L220.289 263.834V257.635H232.416Z" fill="#D2E2FF"/>
<path d="M234.177 260.621H218.532C215.869 260.621 213.71 262.771 213.71 265.424C213.71 268.077 215.869 270.228 218.532 270.228H234.177C236.84 270.228 238.998 268.077 238.998 265.424C238.998 262.771 236.84 260.621 234.177 260.621Z" fill="#95BAEF"/>
<path d="M234.177 216.449H218.532C215.869 216.449 213.71 218.6 213.71 221.253C213.71 223.906 215.869 226.057 218.532 226.057H234.177C236.84 226.057 238.998 223.906 238.998 221.253C238.998 218.6 236.84 216.449 234.177 216.449Z" fill="#95BAEF"/>
<path d="M240.668 264.491H212.039C210.76 264.493 209.535 265 208.631 265.9C207.728 266.801 207.219 268.021 207.217 269.295C207.219 270.568 207.728 271.789 208.631 272.689C209.535 273.59 210.76 274.096 212.039 274.098H240.668C241.946 274.096 243.17 273.589 244.073 272.689C244.976 271.788 245.482 270.567 245.482 269.295C245.482 268.022 244.976 266.801 244.073 265.901C243.17 265 241.946 264.493 240.668 264.491Z" fill="#D2E2FF"/>
<path d="M290.197 131.085H248.664L219.433 213.484L260.886 209.382L282.965 167.134" fill="#6B6BC6"/>
<path d="M297.782 138.636C297.781 139.533 297.62 140.423 297.306 141.264L269.46 216.034C269.08 217.06 268.48 217.99 267.701 218.761C266.923 219.531 265.985 220.123 264.954 220.495C263.928 220.981 262.806 221.231 261.671 221.225H172.426C170.417 221.225 168.489 220.43 167.068 219.014C165.647 217.598 164.849 215.678 164.849 213.676C164.849 211.674 165.647 209.754 167.068 208.339C168.489 206.923 170.417 206.128 172.426 206.128H257.003L283.097 135.986C283.726 134.343 284.912 132.97 286.449 132.105C287.985 131.24 289.777 130.937 291.515 131.247C293.252 131.558 294.826 132.463 295.965 133.807C297.104 135.151 297.736 136.848 297.753 138.607L297.782 138.636Z" fill="#D2E2FF"/>
<path d="M193.748 252.167L151.298 273.63C150.46 274.053 149.505 274.191 148.581 274.021C147.656 273.851 146.813 273.384 146.181 272.692C145.549 271.999 145.162 271.118 145.081 270.185C144.999 269.253 145.227 268.319 145.729 267.527L152.859 256.307L155.966 251.415L189.534 234.442L194.708 244.597L195.631 246.429C196.145 247.439 196.235 248.611 195.882 249.687C195.528 250.763 194.761 251.655 193.748 252.167Z" fill="#C43364"/>
<path d="M178.537 213.05L179.123 216.204L183.739 240.886L161.829 251.793L152.809 256.29L139.436 211.225C138.633 208.519 138.475 205.665 138.975 202.888C139.474 200.111 140.617 197.488 142.312 195.228C144.008 192.969 146.209 191.134 148.741 189.871C151.273 188.608 154.066 187.95 156.898 187.951H209.181L208.558 213.05H178.537Z" fill="#48215B"/>
<path d="M179.123 216.208L183.739 240.883L161.829 251.804L179.123 216.208Z" fill="#3B184F"/>
<g style="mix-blend-mode:overlay">
<path d="M155.16 249.461L179.862 236.598" stroke="white" stroke-miterlimit="10" stroke-linecap="round"/>
</g>
<path d="M209.181 187.949L208.558 213.047H180.654L192.854 187.949H209.181Z" fill="#3B184F"/>
<g style="mix-blend-mode:overlay">
<path d="M168.746 242.382L161.206 210.056C160.912 208.786 160.909 207.467 161.197 206.196C161.486 204.924 162.059 203.735 162.873 202.714C163.687 201.694 164.721 200.87 165.9 200.304C167.078 199.737 168.369 199.442 169.677 199.442H206.631" stroke="white" stroke-miterlimit="10" stroke-linecap="round"/>
</g>
<path d="M258.951 171.635V186.177C258.951 191.429 256.875 196.469 253.172 200.206C249.469 203.943 244.437 206.077 239.166 206.144H230.336L206.631 256.845H168.988L198.211 188.623L198.021 171.628L258.951 171.635Z" fill="#48215B"/>
<path d="M239.173 192.226V206.148H230.335L237.062 191.752C237.169 191.523 237.35 191.337 237.578 191.226C237.805 191.115 238.063 191.084 238.31 191.14C238.557 191.195 238.777 191.333 238.934 191.531C239.091 191.729 239.175 191.974 239.173 192.226Z" fill="#3B184F"/>
<g style="mix-blend-mode:overlay">
<path d="M196.1 251.796L218.252 204.278C219.914 200.718 222.562 197.705 225.883 195.593C229.205 193.481 233.063 192.358 237.004 192.356H250.846" stroke="white" stroke-miterlimit="10" stroke-linecap="round"/>
</g>
<path d="M206.631 256.859V270.284C206.631 270.529 206.609 270.774 206.565 271.014C206.391 272.006 205.871 272.904 205.098 273.552C204.325 274.199 203.347 274.555 202.337 274.555H154.743C153.732 274.559 152.751 274.205 151.977 273.557C151.203 272.909 150.685 272.008 150.515 271.014C150.471 270.774 150.449 270.529 150.449 270.284C150.453 269.548 150.648 268.825 151.015 268.185C151.383 267.546 151.909 267.011 152.545 266.634L168.995 256.881L206.631 256.859Z" fill="#F2517F"/>
<g style="mix-blend-mode:overlay" opacity="0.25">
<path d="M154.978 269.295H202.249" stroke="white" stroke-miterlimit="10" stroke-linecap="round"/>
</g>
<path d="M140.352 176.562C133.618 182.103 135.691 185.833 135.691 185.833H153.095L149.665 177.803L145.606 176.343" fill="#48215B"/>
<path d="M182.245 125.038L172.514 161.693C172.514 161.693 143.422 168.526 138.718 170.643C136.329 171.709 131.654 179.586 132.68 181.966C133.706 184.346 137.128 182.338 137.128 182.338C137.128 182.338 139.649 185.638 142.55 183.127C145.635 184.901 148.632 186.207 150.032 180.937L188.759 173.33L205.444 132.243L182.245 125.038Z" fill="#FFCCCC"/>
<path d="M137.157 182.342C139.399 175.772 142.484 172.976 143.612 172.479" stroke="#F97594" stroke-miterlimit="10" stroke-linecap="round"/>
<path d="M142.55 183.126C143.143 179.089 147.261 174.431 149.694 173.686" stroke="#F97594" stroke-miterlimit="10" stroke-linecap="round"/>
<path d="M235.678 87.011L260.665 96.5015C263.996 97.774 266.944 99.8765 269.226 102.608C271.508 105.339 273.049 108.608 273.701 112.102L276.288 125.791L258.951 130.514V171.644H197.09V130.353L182.244 125.009L188.011 107.722C189.078 104.517 190.914 101.62 193.359 99.2821C195.805 96.9439 198.785 95.2352 202.043 94.3041L221.762 88.6609L235.678 87.011Z" fill="#9C4CDB"/>
<path d="M213.474 155.174C234.849 157.598 239.173 142.873 239.173 142.873" stroke="#B3CBFF" stroke-linecap="round" stroke-linejoin="round"/>
<path d="M226.336 160.827C224.028 163.747 215.858 165.112 216.671 167.602C217.484 170.091 224.651 169.215 227.772 166.981" fill="#F97594"/>
<path d="M275.438 154.14C275.328 154.811 275.211 155.454 275.072 156.06C274.819 157.297 274.421 158.5 273.885 159.644C272.945 161.22 271.551 162.476 269.884 163.251C269.532 163.44 269.166 163.623 268.785 163.798C260.885 167.448 247.461 168.076 247.461 168.076C247.461 168.076 246.428 171.945 245.263 176.326C244.097 180.706 242.5 183.626 238.946 182.429C235.392 181.231 239.598 168.303 239.781 167.726C239.613 168.062 237.253 172.792 235.766 175.486C234.278 178.18 232.212 182.852 228.988 180.662C225.925 178.589 229.413 169.879 229.794 168.981C229.31 169.865 224.862 178.07 223.199 179.436C221.535 180.801 219.147 178.501 219.286 177.099C219.425 175.698 223.265 161.214 226.723 159.725C230.182 158.235 255.771 148.679 255.771 148.679L252.935 131.501L276.288 125.785C276.288 125.785 277.197 143.678 275.438 154.14Z" fill="#FFCCCC"/>
<path d="M275.439 154.141C275.329 154.813 275.212 155.455 275.073 156.061C274.82 157.298 274.421 158.501 273.886 159.645C272.946 161.221 271.552 162.477 269.885 163.252C269.533 163.442 269.167 163.624 268.786 163.799C269.079 161.79 269.831 159.874 270.985 158.199C272.138 156.525 273.662 155.136 275.439 154.141Z" fill="#F97594"/>
<path d="M255.741 148.649L265.311 145.166" stroke="#F97594" stroke-miterlimit="10" stroke-linecap="round"/>
<path d="M228.349 173.33C231.075 165.11 232.321 163.248 232.321 163.248" stroke="#F97594" stroke-miterlimit="10" stroke-linecap="round"/>
<path d="M237.642 177.354C237.877 169.777 240.683 164.944 240.683 164.944" stroke="#F97594" stroke-miterlimit="10" stroke-linecap="round"/>
<path d="M228.102 160.825C229.567 159.927 230.014 161.694 230.014 161.694" stroke="#F97594" stroke-miterlimit="10" stroke-linecap="round"/>
<path d="M235.692 162.801C237.055 161.714 237.708 163.415 237.708 163.415" stroke="#F97594" stroke-miterlimit="10" stroke-linecap="round"/>
<path d="M243.629 165.328C244.992 164.233 245.644 165.934 245.644 165.934" stroke="#F97594" stroke-miterlimit="10" stroke-linecap="round"/>
<path d="M252.935 131.5L250.847 117.082" stroke="#B3CBFF" stroke-linecap="round" stroke-linejoin="round"/>
<path d="M197.09 130.382V114.723" stroke="#B3CBFF" stroke-linecap="round" stroke-linejoin="round"/>
<path d="M218.209 89.6734C218.209 89.6734 217.22 98.0031 226.328 98.6894C235.437 99.3756 242.061 92.2796 241.936 89.396" stroke="#B3CBFF" stroke-linecap="round" stroke-linejoin="round"/>
<path d="M210.434 68.4735V72.2989C210.434 73.4761 210.904 74.6051 211.739 75.4375C212.575 76.2699 213.708 76.7376 214.889 76.7376H215.857C216.614 76.7356 217.34 76.435 217.875 75.9015C218.411 75.368 218.713 74.6449 218.714 73.8904V66.8821C218.713 66.1275 218.411 65.4045 217.875 64.8709C217.34 64.3374 216.614 64.0368 215.857 64.0349H214.889C213.708 64.0349 212.575 64.5025 211.739 65.335C210.904 66.1674 210.434 67.2963 210.434 68.4735Z" fill="#4E8EF4"/>
<path d="M247.007 65.3822C244.325 72.2153 239.086 80.9101 233.971 78.9244L214.626 63.0461C207.694 60.5201 207.687 56.0742 208.962 54.6944L209.028 54.6287C210.31 53.3804 213.256 54.5265 213.498 54.6287C213.205 54.3732 208.632 50.3799 210.94 47.5547C213.021 45.0068 216.187 47.0509 216.956 47.6131C216.377 47.1386 214.604 45.423 215.791 43.2329C217.191 40.6558 223.119 44.4155 228.637 45.2843C234.155 46.153 242.325 46.8976 243.827 49.8835C245.329 52.8693 243.827 55.972 243.827 55.972C244.823 56.4594 245.695 57.1658 246.377 58.038C247.528 59.5419 248.37 61.8999 247.007 65.3822Z" fill="#48215B"/>
<path d="M247.007 65.3808C244.325 72.2139 239.086 80.9087 233.971 78.923L214.626 63.0446C207.694 60.5187 207.687 56.0728 208.962 54.693C214.824 59.6427 233.59 60.8764 237.247 60.161C241.05 59.431 239.387 53.4666 239.387 53.4666L241.343 54.3207C241.343 54.3207 244.457 61.0808 246.377 58.0658C247.528 59.5405 248.37 61.8985 247.007 65.3808Z" fill="#3B194F"/>
<path d="M237.634 89.419C236.982 91.5142 231.186 94.9162 226.929 94.4928C222.671 94.0694 221.968 91.9815 221.968 91.9815L221.763 88.6598L221.499 84.3599L232.813 79.4394L236.609 77.7896L237.634 89.419Z" fill="#FFCCCC"/>
<path d="M236.191 79.0233C236.14 80.4104 230.673 88.3094 221.763 88.6598L221.499 84.3599L232.813 79.4394C234.857 78.8919 236.198 78.6729 236.191 79.0233Z" fill="#F97594"/>
<path d="M214.186 59.6736C212.874 64.9372 213.878 67.6091 213.548 70.7774C213.218 73.9458 213.599 84.1955 222.437 85.5972C231.274 86.9989 238.499 78.034 239.29 74.4057C241.21 76.5958 244.134 72.8946 243.76 70.9819C243.387 69.0692 242.295 68.7917 241.137 69.2809C239.979 69.77 239.547 71.982 239.195 71.8652C238.843 71.7484 238.037 63.1924 238.037 63.1924C238.037 63.1924 222.415 63.8202 214.186 59.6736Z" fill="#FFCCCC"/>
<path d="M222.158 69.761L221.052 73.1265C220.947 73.4392 220.969 73.7808 221.114 74.0772C221.26 74.3736 221.516 74.6012 221.829 74.7106L222.847 75.0684" stroke="#F97594" stroke-width="0.75" stroke-linecap="round" stroke-linejoin="round"/>
<path d="M228.021 77.5476C228.091 78.2979 227.859 79.0451 227.376 79.6249C226.893 80.2047 226.198 80.5696 225.445 80.6393C224.692 80.709 223.942 80.4778 223.36 79.9966C222.778 79.5154 222.412 78.8235 222.342 78.0732" fill="white"/>
<path d="M229.56 69.4569C229.56 69.6417 229.505 69.8224 229.402 69.9761C229.299 70.1297 229.152 70.2495 228.981 70.3202C228.81 70.391 228.621 70.4095 228.439 70.3734C228.257 70.3373 228.09 70.2483 227.959 70.1177C227.828 69.987 227.738 69.8205 227.702 69.6392C227.666 69.4579 227.685 69.2701 227.756 69.0993C227.827 68.9286 227.947 68.7826 228.101 68.6799C228.255 68.5773 228.437 68.5225 228.622 68.5225C228.871 68.5225 229.109 68.6209 229.285 68.7962C229.461 68.9714 229.56 69.2091 229.56 69.4569Z" fill="#48215B"/>
<path d="M217.337 70.3914C217.855 70.3914 218.275 69.973 218.275 69.4569C218.275 68.9408 217.855 68.5225 217.337 68.5225C216.819 68.5225 216.399 68.9408 216.399 69.4569C216.399 69.973 216.819 70.3914 217.337 70.3914Z" fill="#48215B"/>
<path d="M226.636 66.2064C227.262 65.9275 227.948 65.8056 228.632 65.8515C229.317 65.8973 229.98 66.1095 230.563 66.4694" stroke="#48215B" stroke-width="0.87" stroke-linecap="round" stroke-linejoin="round"/>
<path d="M219.3 66.2064C218.674 65.9275 217.988 65.8056 217.304 65.8515C216.619 65.8973 215.956 66.1095 215.373 66.4694" stroke="#48215B" stroke-width="0.87" stroke-linecap="round" stroke-linejoin="round"/>
<path d="M240.726 64.4407C240.726 64.4407 243.284 45.5108 226.386 44.7954C229.654 44.231 233.017 44.8033 235.912 46.4161C240.756 49.1099 244.06 53.1762 243.203 65.5139" fill="#274CC1"/>
<path d="M246.479 68.4735V72.2989C246.479 73.4761 246.01 74.6051 245.174 75.4375C244.339 76.2699 243.206 76.7376 242.024 76.7376H241.057C240.719 76.7369 240.383 76.6751 240.068 76.555C239.52 76.3548 239.047 75.9919 238.713 75.5154C238.379 75.0389 238.199 74.4717 238.199 73.8904V66.8821C238.199 66.3008 238.379 65.7336 238.713 65.2571C239.047 64.7805 239.52 64.4177 240.068 64.2174C240.383 64.0974 240.719 64.0356 241.057 64.0349H242.024C243.206 64.0349 244.339 64.5025 245.174 65.335C246.01 66.1674 246.479 67.2963 246.479 68.4735Z" fill="#4E8EF4"/>
<path d="M246.135 68.7598V72.0084C246.136 72.6856 245.955 73.3506 245.609 73.9338C245.264 74.5169 244.767 74.9967 244.171 75.3228C244.017 75.4082 243.84 75.4474 243.663 75.4358C243.487 75.4241 243.317 75.3621 243.175 75.2571C242.887 75.0323 242.654 74.7453 242.495 74.4177C242.335 74.0901 242.251 73.7306 242.252 73.3663V67.4092C242.251 67.0439 242.334 66.6833 242.494 66.3545C242.654 66.0257 242.887 65.7374 243.175 65.5111C243.317 65.4055 243.487 65.3437 243.664 65.3333C243.841 65.323 244.018 65.3645 244.171 65.4527C244.767 65.7776 245.263 66.2562 245.608 66.838C245.954 67.4199 246.136 68.0837 246.135 68.7598Z" fill="#A4DCFF"/>
<path d="M240.258 73.6174C240.857 73.6174 241.342 73.1337 241.342 72.537C241.342 71.9403 240.857 71.4565 240.258 71.4565C239.659 71.4565 239.173 71.9403 239.173 72.537C239.173 73.1337 239.659 73.6174 240.258 73.6174Z" fill="#274CC1"/>
<path d="M240.258 72.5378L236.594 76.3778C236.217 76.7729 235.762 77.0868 235.258 77.3002C234.754 77.5137 234.211 77.6221 233.663 77.6189H231.033" stroke="#48215B" stroke-linecap="round" stroke-linejoin="round"/>
<path d="M231.508 78.7415H230.394C230.095 78.7415 229.808 78.623 229.596 78.4122C229.384 78.2014 229.265 77.9154 229.265 77.6172C229.265 77.4699 229.295 77.3241 229.351 77.1881C229.408 77.0521 229.491 76.9286 229.596 76.8248C229.701 76.721 229.826 76.6389 229.963 76.5832C230.099 76.5275 230.246 76.4993 230.394 76.5003H231.508C231.656 76.4993 231.802 76.5275 231.939 76.5832C232.076 76.6389 232.2 76.721 232.305 76.8248C232.41 76.9286 232.493 77.0521 232.55 77.1881C232.607 77.3241 232.636 77.4699 232.636 77.6172C232.636 77.9154 232.517 78.2014 232.306 78.4122C232.094 78.623 231.807 78.7415 231.508 78.7415Z" fill="#48215B"/>
<path d="M305.226 190.495C305.226 191.73 304.733 192.915 303.856 193.788C302.98 194.661 301.791 195.152 300.551 195.152H244.611C245.851 195.152 247.04 194.661 247.916 193.788C248.793 192.915 249.286 191.73 249.286 190.495C249.286 189.259 248.793 188.075 247.916 187.201C247.04 186.328 245.851 185.837 244.611 185.837H300.565C301.803 185.841 302.988 186.333 303.862 187.206C304.735 188.079 305.226 189.262 305.226 190.495Z" fill="#D0BBFF"/>
<path d="M249.271 190.495C249.271 191.73 248.778 192.915 247.901 193.788C247.025 194.661 245.835 195.152 244.595 195.152H119.262C118.022 195.152 116.833 194.661 115.956 193.788C115.079 192.915 114.587 191.73 114.587 190.495C114.587 189.259 115.079 188.075 115.956 187.201C116.833 186.328 118.022 185.837 119.262 185.837H244.61C245.848 185.841 247.033 186.333 247.906 187.206C248.78 188.079 249.271 189.262 249.271 190.495Z" fill="white"/>
<path d="M106.212 274.376C105.86 274.379 105.514 274.296 105.203 274.134C104.892 273.972 104.625 273.737 104.426 273.449C104.227 273.161 104.102 272.828 104.062 272.481C104.022 272.134 104.068 271.782 104.196 271.456L132.76 195.153H137.347L108.263 272.975C108.103 273.387 107.822 273.742 107.456 273.992C107.089 274.243 106.656 274.376 106.212 274.376Z" fill="white"/>
<path d="M261.348 274.376C261.698 274.377 262.043 274.293 262.354 274.131C262.664 273.969 262.93 273.734 263.129 273.446C263.327 273.158 263.452 272.827 263.493 272.48C263.534 272.133 263.489 271.782 263.363 271.456L234.836 195.153H230.219L259.31 272.975C259.464 273.388 259.742 273.745 260.107 273.996C260.471 274.247 260.905 274.38 261.348 274.376Z" fill="white"/>
<path d="M307.813 274.376C308.164 274.379 308.51 274.296 308.822 274.134C309.133 273.972 309.4 273.737 309.598 273.449C309.797 273.161 309.922 272.828 309.962 272.481C310.002 272.134 309.956 271.782 309.828 271.456L281.301 195.153H276.714L305.798 272.975C305.955 273.382 306.231 273.732 306.59 273.982C306.949 274.232 307.375 274.369 307.813 274.376Z" fill="white"/>
<path d="M252.43 181.304H199.612C199.313 181.303 199.017 181.361 198.74 181.474C198.464 181.587 198.212 181.754 198.001 181.964C197.789 182.174 197.621 182.424 197.506 182.699C197.392 182.974 197.333 183.269 197.333 183.567C197.333 184.169 197.573 184.746 198 185.172C198.428 185.598 199.007 185.837 199.612 185.837H252.43C252.729 185.837 253.026 185.779 253.302 185.664C253.579 185.55 253.83 185.383 254.042 185.172C254.253 184.961 254.421 184.711 254.536 184.436C254.65 184.16 254.709 183.865 254.709 183.567C254.709 183.269 254.65 182.974 254.535 182.699C254.421 182.424 254.253 182.174 254.041 181.964C253.829 181.754 253.578 181.587 253.302 181.474C253.025 181.361 252.729 181.303 252.43 181.304Z" fill="#9061F7"/>
<path d="M225.002 168.857H161.61C161.057 168.828 160.526 168.628 160.091 168.286C159.657 167.943 159.34 167.475 159.184 166.945L148.449 126.873C148.377 126.653 148.359 126.418 148.395 126.19C148.432 125.961 148.523 125.744 148.66 125.557C148.798 125.37 148.978 125.219 149.186 125.115C149.394 125.011 149.624 124.958 149.856 124.96H213.249C213.803 124.989 214.335 125.189 214.77 125.531C215.206 125.874 215.524 126.343 215.681 126.873L226.409 166.945C226.492 167.165 226.519 167.403 226.487 167.636C226.455 167.869 226.365 168.09 226.225 168.28C226.086 168.47 225.901 168.622 225.687 168.723C225.474 168.824 225.238 168.87 225.002 168.857Z" stroke="#D2C5FF" stroke-miterlimit="10"/>
<path d="M172.33 155.76H134.138C133.803 155.743 133.483 155.623 133.22 155.416C132.957 155.209 132.766 154.926 132.672 154.606L126.209 130.471C126.159 130.339 126.143 130.196 126.162 130.056C126.181 129.916 126.235 129.783 126.318 129.668C126.402 129.554 126.513 129.462 126.641 129.401C126.769 129.34 126.91 129.311 127.052 129.318H165.237C165.571 129.335 165.891 129.455 166.154 129.662C166.417 129.868 166.608 130.151 166.702 130.471L173.165 154.606C173.215 154.738 173.231 154.88 173.212 155.02C173.193 155.159 173.14 155.292 173.058 155.406C172.975 155.52 172.865 155.612 172.738 155.674C172.611 155.736 172.471 155.765 172.33 155.76Z" stroke="#FFF2BE" stroke-miterlimit="10"/>
<path d="M211.753 185.836H148.36C147.806 185.807 147.274 185.608 146.839 185.265C146.403 184.923 146.085 184.454 145.928 183.923L135.2 143.852C135.117 143.631 135.09 143.394 135.122 143.16C135.154 142.927 135.244 142.706 135.384 142.516C135.523 142.326 135.708 142.174 135.922 142.073C136.135 141.972 136.371 141.926 136.607 141.939H199.999C200.552 141.968 201.083 142.168 201.517 142.51C201.952 142.853 202.269 143.322 202.425 143.852L213.16 183.923C213.232 184.144 213.25 184.378 213.213 184.607C213.177 184.835 213.086 185.052 212.948 185.239C212.811 185.426 212.631 185.577 212.423 185.681C212.215 185.785 211.985 185.838 211.753 185.836Z" fill="#A888FF"/>
<path d="M220.29 184.417C220.764 184.417 221.148 184.035 221.148 183.563C221.148 183.091 220.764 182.709 220.29 182.709C219.817 182.709 219.433 183.091 219.433 183.563C219.433 184.035 219.817 184.417 220.29 184.417Z" fill="#592BA3"/>
<path d="M220.29 183.565C222.218 191.676 214.113 217.556 193.031 216.205C171.949 214.855 179.065 204.912 163.72 203.065C148.376 201.218 140.022 194.45 141.774 184.704" stroke="#D2E2FF" stroke-linecap="round" stroke-linejoin="round"/>
<path d="M222.949 184.417C223.423 184.417 223.807 184.035 223.807 183.563C223.807 183.091 223.423 182.709 222.949 182.709C222.476 182.709 222.092 183.091 222.092 183.563C222.092 184.035 222.476 184.417 222.949 184.417Z" fill="#592BA3"/>
<path d="M225.617 184.417C226.091 184.417 226.474 184.035 226.474 183.563C226.474 183.091 226.091 182.709 225.617 182.709C225.144 182.709 224.76 183.091 224.76 183.563C224.76 184.035 225.144 184.417 225.617 184.417Z" fill="#592BA3"/>
<path d="M236.081 184.114H228.754C228.609 184.112 228.471 184.053 228.37 183.951C228.268 183.848 228.211 183.71 228.211 183.566C228.211 183.423 228.269 183.286 228.37 183.184C228.472 183.083 228.61 183.026 228.754 183.026H236.081C236.225 183.026 236.363 183.083 236.465 183.184C236.567 183.286 236.624 183.423 236.624 183.566C236.624 183.71 236.567 183.848 236.465 183.951C236.364 184.053 236.226 184.112 236.081 184.114Z" fill="#592BA3"/>
<path d="M177.015 167.288C178.581 165.573 178.163 162.654 176.082 160.769C174.002 158.883 171.046 158.745 169.48 160.46C167.914 162.175 168.331 165.094 170.412 166.979C172.493 168.865 175.449 169.003 177.015 167.288Z" fill="white"/>
<path d="M301.173 209.839C300.206 220.364 298.286 230.78 295.436 240.96C294.11 245.658 292.439 250.253 290.438 254.707L278.149 247.721C275.798 240.633 274.382 233.271 273.936 225.819C273.451 219.235 273.771 212.616 274.889 206.108C277.62 211.109 279.733 216.421 281.183 221.928C283.648 230.766 284.604 239.954 284.012 249.108C284.547 243.793 287.397 236.434 290.607 229.535C295.436 219.213 301.173 209.839 301.173 209.839Z" fill="#36BEC1"/>
<path d="M295.434 240.965C294.108 245.663 292.438 250.258 290.437 254.712L278.148 247.725C275.797 240.638 274.381 233.276 273.935 225.824C276.133 226.27 279.189 225.948 281.182 221.962C283.647 230.8 284.603 239.988 284.011 249.142C284.545 243.827 287.396 236.468 290.605 229.569C290.84 233.92 291.822 239.724 295.434 240.965Z" fill="#22A1A8"/>
<path d="M289.574 238.595C289.647 243.145 289.402 247.694 288.841 252.21L275.043 249.1C273.332 246.709 271.751 244.229 270.309 241.668C264.808 231.971 261.217 221.316 259.728 210.277C259.728 210.277 271.232 220.702 278.098 238.953C279.299 242.147 280.293 245.414 281.073 248.735C280.536 245.538 280.372 242.29 280.582 239.055C281.198 224.812 285.961 206.123 285.961 206.123C288.177 216.811 289.386 227.682 289.574 238.595Z" fill="#59E2C1"/>
<path d="M289.574 238.596C289.648 243.145 289.403 247.695 288.841 252.211L275.043 249.101C273.332 246.71 271.752 244.229 270.31 241.669C275.285 242.443 277.315 240.362 278.099 238.99C279.3 242.184 280.293 245.451 281.074 248.772C280.537 245.575 280.372 242.327 280.583 239.092C282.811 240.194 286.57 241.319 289.574 238.596Z" fill="#36BEC1"/>
<path d="M300.99 245.792L299.62 251.253L297.143 261.159L293.838 274.373H272.815L268.382 256.67L266.653 249.742L265.663 245.792H300.99Z" fill="#5A3184"/>
<path d="M299.62 251.253L297.143 261.159L268.382 256.67L266.653 249.741L278.362 249.479L299.62 251.253Z" fill="#462472"/>
<path d="M302.859 245.792H264.132V253.165H302.859V245.792Z" fill="#7E53B7"/>
<path d="M120.2 166.854C120.573 167.405 120.774 168.053 120.778 168.718C120.781 169.382 120.586 170.033 120.219 170.587C119.851 171.141 119.326 171.574 118.711 171.831C118.096 172.088 117.418 172.158 116.764 172.031C116.109 171.904 115.507 171.587 115.033 171.119C114.56 170.651 114.236 170.054 114.103 169.403C113.971 168.752 114.035 168.076 114.288 167.461C114.541 166.846 114.971 166.32 115.524 165.949C116.266 165.454 117.173 165.272 118.049 165.441C118.925 165.611 119.698 166.119 120.2 166.854Z" fill="white"/>
<path d="M111.091 159.331C108.759 160.89 106.885 163.04 105.661 165.558L108.123 166.755C109.136 164.668 110.686 162.885 112.615 161.587C114.547 160.287 116.795 159.53 119.122 159.397L118.917 156.659C116.117 156.844 113.416 157.766 111.091 159.331Z" fill="white"/>
<path d="M106.381 152.344C102.818 154.718 99.9528 157.994 98.0786 161.834L100.519 163.061C102.187 159.637 104.738 156.717 107.912 154.6C111.066 152.454 114.741 151.194 118.552 150.949L118.362 148.226C114.073 148.522 109.94 149.942 106.381 152.344Z" fill="white"/>
<path d="M101.36 144.958C96.4923 148.221 92.5805 152.712 90.0244 157.974L92.4572 159.157C94.8031 154.327 98.3922 150.202 102.859 147.204C107.326 144.206 112.51 142.441 117.885 142.089L117.694 139.373C111.849 139.76 106.212 141.687 101.36 144.958Z" fill="white"/>
<path d="M301.173 65.9978V76.43C301.173 77.4133 300.979 78.3869 300.601 79.2953C300.223 80.2036 299.669 81.0289 298.971 81.7238C298.273 82.4188 297.444 82.9698 296.532 83.3454C295.62 83.721 294.642 83.9139 293.655 83.9129H273.804C273.734 83.9118 273.664 83.9248 273.598 83.9511C273.533 83.9774 273.473 84.0166 273.423 84.0662L268.895 88.5779C268.819 88.655 268.722 88.7079 268.617 88.7298C268.511 88.7517 268.401 88.7416 268.301 88.7008C268.201 88.66 268.115 88.5903 268.055 88.5008C267.995 88.4113 267.964 88.3059 267.964 88.1982V84.4531C267.964 84.3099 267.907 84.1725 267.805 84.0711C267.704 83.9698 267.566 83.9129 267.422 83.9129H262.292C260.3 83.9129 258.39 83.1245 256.981 81.7212C255.573 80.3179 254.781 78.4146 254.781 76.43V65.9905C254.781 64.0059 255.573 62.1026 256.981 60.6993C258.39 59.296 260.3 58.5076 262.292 58.5076H293.626C294.616 58.5038 295.596 58.6947 296.512 59.0694C297.427 59.4441 298.26 59.9952 298.961 60.6911C299.662 61.387 300.219 62.214 300.598 63.1247C300.978 64.0353 301.173 65.0117 301.173 65.9978Z" fill="#EA4B98"/>
<path d="M271.034 72.7801C271.73 72.7801 272.294 72.2179 272.294 71.5245C272.294 70.831 271.73 70.2688 271.034 70.2688C270.338 70.2688 269.774 70.831 269.774 71.5245C269.774 72.2179 270.338 72.7801 271.034 72.7801Z" fill="#48215B"/>
<path d="M277.995 72.7801C278.691 72.7801 279.255 72.2179 279.255 71.5245C279.255 70.831 278.691 70.2688 277.995 70.2688C277.299 70.2688 276.735 70.831 276.735 71.5245C276.735 72.2179 277.299 72.7801 277.995 72.7801Z" fill="#48215B"/>
<path d="M284.957 72.7801C285.653 72.7801 286.218 72.2179 286.218 71.5245C286.218 70.831 285.653 70.2688 284.957 70.2688C284.261 70.2688 283.697 70.831 283.697 71.5245C283.697 72.2179 284.261 72.7801 284.957 72.7801Z" fill="#48215B"/>
<g clip-path="url(#clip0_348_1755)">
<path opacity="0.944" fill-rule="evenodd" clip-rule="evenodd" d="M21.4379 150.633C21.1929 150.633 20.9481 150.633 20.7032 150.633C20.5501 150.724 20.4277 150.847 20.3358 151C20.3358 151.245 20.3358 151.49 20.3358 151.735C22.2637 158.067 24.2076 164.403 26.1674 170.745C26.2363 170.802 26.3129 170.848 26.397 170.882C30.7745 170.913 35.152 170.944 39.5295 170.974C41.6448 173.181 43.7264 175.416 45.7743 177.678C46.1111 177.862 46.4478 177.862 46.7845 177.678C46.9124 177.571 46.989 177.433 47.0141 177.265C47.88 174.031 48.7525 170.801 49.6314 167.576C54.4451 167.575 59.2512 167.514 64.0496 167.393C64.2355 167.1 64.2814 166.779 64.1874 166.428C63.8993 166.2 63.5779 166.032 63.2231 165.923C49.268 160.869 35.3396 155.772 21.4379 150.633ZM22.6317 153.479C22.5513 153.467 22.49 153.498 22.448 153.571C24.0619 158.887 25.6843 164.198 27.3153 169.505C32.4581 169.566 37.6009 169.566 42.7437 169.505C35.9999 164.205 29.2959 158.864 22.6317 153.479ZM30.4378 155.592C33.8617 157.549 37.3208 159.462 40.8152 161.331C41.3051 161.667 41.397 162.095 41.0907 162.617C40.7966 162.753 40.4905 162.784 40.1723 162.709C36.4474 160.648 32.7128 158.612 28.9684 156.602C34.3431 160.95 39.7614 165.251 45.2233 169.505C45.4432 169.684 45.5809 169.914 45.6366 170.194C45.8933 171.385 46.1381 172.579 46.3713 173.775C47.0119 171.58 47.5935 169.376 48.1161 167.163C46.2948 166.137 44.4733 165.112 42.6519 164.087C42.2037 163.685 42.173 163.256 42.5601 162.801C42.7617 162.675 42.976 162.644 43.2029 162.709C45.2468 163.805 47.2672 164.937 49.2641 166.107C52.6314 166.168 55.9987 166.168 59.366 166.107C49.7305 162.574 40.0878 159.069 30.4378 155.592ZM44.9478 174.51C44.7454 173.314 44.5311 172.12 44.305 170.928C43.386 170.913 42.4677 170.928 41.5499 170.974C42.6703 172.171 43.803 173.35 44.9478 174.51Z" fill="#9C4CDB"/>
<path opacity="0.929" fill-rule="evenodd" clip-rule="evenodd" d="M31.4479 175.153C30.6987 175.091 30.3773 175.427 30.4837 176.163C31.7942 178.361 33.1411 180.534 34.5244 182.683C34.5817 185.261 35.4236 187.541 37.0499 189.525C37.8865 189.76 38.2386 189.439 38.106 188.561C37.5143 187.653 36.9939 186.704 36.5448 185.714C36.3247 185.147 36.2023 184.566 36.1775 183.969C37.5698 184.743 38.9321 184.697 40.2642 183.831C41.8727 182.276 42.041 180.577 40.7693 178.734C39.2982 177.434 37.7217 177.296 36.0397 178.321C35.4047 178.841 34.9914 179.5 34.7999 180.296C33.7668 178.689 32.7566 177.066 31.7694 175.428C31.6642 175.324 31.557 175.232 31.4479 175.153ZM38.6111 179.102C37.2598 178.999 36.4486 179.611 36.1775 180.938C36.0632 181.331 36.0327 181.729 36.0856 182.132C37.0253 183.008 38.0814 183.207 39.254 182.729C40.4001 181.718 40.4613 180.646 39.4376 179.515C39.1679 179.35 38.8924 179.212 38.6111 179.102Z" fill="#9C4CDB"/>
<path opacity="0.915" fill-rule="evenodd" clip-rule="evenodd" d="M47.9784 185.806C46.9659 185.809 46.7056 186.268 47.1978 187.183C48.0896 188.431 48.9926 189.671 49.9069 190.903C50.9831 191.003 51.2738 190.559 50.7794 189.571C49.8875 188.273 48.9538 187.018 47.9784 185.806Z" fill="#9C4CDB"/>
</g>
<path d="M158.918 195.541C121.269 232.699 100.381 177.797 72.1639 179.711C56.0991 181.364 39.1756 204.325 60.4466 215.659C80.3344 223.75 103.791 183.62 49.677 172.987" stroke="#9C4CDB" stroke-dasharray="2 2"/>
<path d="M224.238 43.7072C164.876 28.7185 80.0636 42.8843 84.0603 181.828" stroke="#B0B0B0" stroke-dasharray="3 3"/>
<g clip-path="url(#clip1_348_1755)">
<path fill-rule="evenodd" clip-rule="evenodd" d="M104.632 73.0959C97.0033 73.0959 90.8195 78.8217 90.8195 85.8849C90.8195 89.9096 92.828 93.4996 95.9668 95.8439V100.72L100.67 98.1391C101.925 98.4864 103.254 98.6739 104.632 98.6739C112.26 98.6739 118.444 92.9481 118.444 85.8849C118.444 78.8217 112.26 73.0959 104.632 73.0959ZM106.004 90.3184L102.487 86.567L95.6237 90.3184L103.173 82.304L106.776 86.0554L113.554 82.304L106.004 90.3184Z" fill="#007FFF"/>
</g>
<path fill-rule="evenodd" clip-rule="evenodd" d="M140.19 64.5372C147.291 64.5372 153.047 58.781 153.047 51.6802C153.047 44.5795 147.291 38.8232 140.19 38.8232C133.09 38.8232 127.333 44.5795 127.333 51.6802C127.333 53.9861 127.94 56.1503 129.003 58.0215L127.333 64.5372L134.051 62.9795C135.875 63.9728 137.967 64.5372 140.19 64.5372ZM140.19 62.5593C146.199 62.5593 151.069 57.6886 151.069 51.6802C151.069 45.672 146.199 40.8012 140.19 40.8012C134.182 40.8012 129.311 45.672 129.311 51.6802C129.311 54.0001 130.038 56.1503 131.275 57.9161L130.3 61.5702L134.019 60.6406C135.773 61.8507 137.899 62.5593 140.19 62.5593Z" fill="#BFC8D0"/>
<path d="M151.211 50.7617C151.211 56.8481 146.277 61.782 140.19 61.782C137.869 61.782 135.715 61.0642 133.939 59.8385L130.172 60.7802L131.159 57.0786C129.906 55.2899 129.17 53.1117 129.17 50.7617C129.17 44.6754 134.104 39.7415 140.19 39.7415C146.277 39.7415 151.211 44.6754 151.211 50.7617Z" fill="url(#paint0_linear_348_1755)"/>
<path fill-rule="evenodd" clip-rule="evenodd" d="M140.19 63.6188C147.291 63.6188 153.047 57.8625 153.047 50.7618C153.047 43.6611 147.291 37.9048 140.19 37.9048C133.09 37.9048 127.333 43.6611 127.333 50.7618C127.333 53.0677 127.94 55.2318 129.003 57.103L127.333 63.6188L134.051 62.0611C135.875 63.0544 137.967 63.6188 140.19 63.6188ZM140.19 61.6408C146.199 61.6408 151.069 56.7701 151.069 50.7618C151.069 44.7535 146.199 39.8828 140.19 39.8828C134.182 39.8828 129.311 44.7535 129.311 50.7618C129.311 53.0816 130.038 55.2319 131.275 56.9976L130.3 60.6518L134.019 59.7221C135.773 60.9322 137.899 61.6408 140.19 61.6408Z" fill="white"/>
<path d="M136.976 44.7923C136.671 44.1783 136.202 44.2327 135.728 44.2327C134.881 44.2327 133.561 45.2468 133.561 47.1342C133.561 48.681 134.243 50.3742 136.539 52.9071C138.756 55.3516 141.668 56.6161 144.086 56.573C146.504 56.53 147.002 54.4493 147.002 53.7467C147.002 53.4353 146.808 53.2799 146.675 53.2376C145.851 52.8422 144.332 52.1054 143.986 51.967C143.64 51.8286 143.46 52.0158 143.347 52.1177C143.034 52.4164 142.412 53.2971 142.199 53.4952C141.987 53.6933 141.669 53.593 141.537 53.5182C141.051 53.3232 139.734 52.7372 138.684 51.7192C137.385 50.4603 137.309 50.0271 137.064 49.6416C136.869 49.3331 137.012 49.144 137.084 49.0612C137.364 48.7384 137.75 48.2399 137.923 47.9922C138.096 47.7445 137.959 47.3684 137.876 47.1342C137.521 46.1268 137.221 45.2835 136.976 44.7923Z" fill="white"/>
<g clip-path="url(#clip2_348_1755)">
<path opacity="0.085" fill-rule="evenodd" clip-rule="evenodd" d="M83.207 125.38C83.6746 125.38 84.1422 125.38 84.6098 125.38C84.6098 125.398 84.6098 125.416 84.6098 125.434C84.4187 125.417 84.2389 125.435 84.0703 125.488C83.8234 125.484 83.5896 125.52 83.3689 125.596C83.1758 125.598 82.996 125.634 82.8293 125.704C82.4515 125.744 82.0918 125.834 81.7503 125.973C81.2363 126.091 80.7507 126.27 80.2935 126.513C76.9664 127.97 74.5744 130.362 73.1177 133.689C72.8752 134.146 72.6954 134.632 72.5782 135.145C72.4388 135.487 72.3489 135.847 72.3084 136.225C72.2391 136.391 72.2031 136.571 72.2005 136.764C72.1072 137.111 72.0533 137.47 72.0386 137.843C72.0386 137.897 72.0386 137.951 72.0386 138.005C72.0206 138.005 72.0027 138.005 71.9847 138.005C71.9847 137.537 71.9847 137.07 71.9847 136.602C73.086 131.481 76.0714 127.947 80.941 126C81.6893 125.741 82.4447 125.535 83.207 125.38Z" fill="#FFFEFC"/>
<path opacity="0.999" fill-rule="evenodd" clip-rule="evenodd" d="M84.6098 125.434C84.6098 125.416 84.6098 125.398 84.6098 125.38C84.8796 125.38 85.1493 125.38 85.4191 125.38C80.9589 129.876 76.4808 134.354 71.9847 138.814C71.9847 138.545 71.9847 138.275 71.9847 138.005C72.0027 138.005 72.0206 138.005 72.0386 138.005C72.0298 138.15 72.0388 138.294 72.0656 138.437C76.3909 134.111 80.7161 129.786 85.0414 125.461C84.8987 125.434 84.7548 125.425 84.6098 125.434Z" fill="#FCC232"/>
<path fill-rule="evenodd" clip-rule="evenodd" d="M85.4191 125.38C85.6349 125.38 85.8507 125.38 86.0665 125.38C81.44 130.087 76.7821 134.772 72.0926 139.435C72.0605 139.46 72.0245 139.469 71.9847 139.462C71.9847 139.246 71.9847 139.03 71.9847 138.814C76.4808 134.354 80.9589 129.876 85.4191 125.38Z" fill="#FCBE35"/>
<path opacity="0.074" fill-rule="evenodd" clip-rule="evenodd" d="M86.9839 125.38C87.3436 125.38 87.7032 125.38 88.063 125.38C89.5341 125.649 90.9189 126.152 92.2174 126.891C92.1095 126.855 92.0016 126.819 91.8937 126.783C91.7897 126.686 91.6639 126.632 91.516 126.621C91.3763 126.506 91.2145 126.434 91.0304 126.405C90.9067 126.31 90.7629 126.256 90.5988 126.243C90.4751 126.148 90.3313 126.094 90.1671 126.082C90.0026 125.995 89.8227 125.941 89.6276 125.92C89.4438 125.835 89.246 125.781 89.0341 125.758C88.933 125.715 88.8251 125.679 88.7104 125.65C88.4933 125.621 88.2775 125.585 88.063 125.542C87.8292 125.506 87.5953 125.47 87.3616 125.434C87.2235 125.45 87.0976 125.432 86.9839 125.38Z" fill="#FFFCFB"/>
<path fill-rule="evenodd" clip-rule="evenodd" d="M84.0705 125.488C84.2391 125.435 84.4189 125.417 84.61 125.434C84.755 125.425 84.8989 125.434 85.0417 125.461C80.7164 129.786 76.3911 134.112 72.0659 138.437C72.039 138.294 72.03 138.15 72.0389 138.005C72.0389 137.951 72.0389 137.897 72.0389 137.843C76.127 133.728 80.2275 129.619 84.3403 125.515C84.2521 125.488 84.1622 125.479 84.0705 125.488Z" fill="#FCC530"/>
<path fill-rule="evenodd" clip-rule="evenodd" d="M86.0665 125.38C86.2824 125.38 86.4982 125.38 86.714 125.38C86.72 125.413 86.7379 125.44 86.7679 125.461C81.8672 130.362 76.9664 135.262 72.0656 140.163C72.045 140.133 72.018 140.115 71.9847 140.109C71.9847 139.893 71.9847 139.678 71.9847 139.462C72.0245 139.469 72.0605 139.46 72.0926 139.435C76.7821 134.772 81.44 130.087 86.0665 125.38Z" fill="#FCB839"/>
<path fill-rule="evenodd" clip-rule="evenodd" d="M86.714 125.38C86.8039 125.38 86.8938 125.38 86.9837 125.38C87.0974 125.432 87.2234 125.45 87.3614 125.434C87.384 125.473 87.4199 125.5 87.4693 125.515C85.1897 127.767 82.9417 130.042 80.7251 132.34C79.9338 132.736 79.3403 133.329 78.9447 134.12C76.6472 136.337 74.3721 138.585 72.1196 140.865C72.1045 140.815 72.0776 140.779 72.0386 140.757C72.0549 140.619 72.0369 140.493 71.9847 140.379C71.9847 140.289 71.9847 140.199 71.9847 140.109C72.018 140.115 72.045 140.133 72.0656 140.163C76.9664 135.262 81.8672 130.362 86.7679 125.461C86.7379 125.44 86.72 125.413 86.714 125.38Z" fill="#FCB140"/>
<path fill-rule="evenodd" clip-rule="evenodd" d="M84.0704 125.488C84.1621 125.479 84.252 125.488 84.3402 125.515C80.2274 129.619 76.1269 133.728 72.0388 137.843C72.0534 137.47 72.1074 137.111 72.2006 136.764C72.1922 136.838 72.2012 136.91 72.2276 136.98C76.0133 133.194 79.799 129.408 83.5848 125.623C83.515 125.596 83.4431 125.587 83.369 125.596C83.5897 125.52 83.8235 125.484 84.0704 125.488Z" fill="#FBC92D"/>
<path fill-rule="evenodd" clip-rule="evenodd" d="M87.3616 125.434C87.5953 125.47 87.8292 125.506 88.063 125.542C85.8552 127.66 83.679 129.818 81.5346 132.016C81.2587 132.109 80.989 132.217 80.7253 132.34C82.9418 130.042 85.1899 127.767 87.4695 125.515C87.42 125.5 87.3841 125.473 87.3616 125.434Z" fill="#FDAB44"/>
<path fill-rule="evenodd" clip-rule="evenodd" d="M83.369 125.596C83.4431 125.587 83.5151 125.596 83.5848 125.623C79.7991 129.409 76.0134 133.194 72.2276 136.98C72.2012 136.91 72.1922 136.838 72.2006 136.764C72.2033 136.571 72.2392 136.391 72.3085 136.225C72.3005 136.281 72.3095 136.335 72.3355 136.387C75.8875 132.835 79.4394 129.283 82.9913 125.731C82.9402 125.705 82.8862 125.696 82.8295 125.704C82.9961 125.634 83.176 125.598 83.369 125.596Z" fill="#FBCC2A"/>
<path fill-rule="evenodd" clip-rule="evenodd" d="M88.0629 125.542C88.2774 125.585 88.4933 125.621 88.7104 125.65C88.6505 125.692 88.5786 125.719 88.4945 125.731C86.4335 127.783 84.3832 129.842 82.3438 131.908C82.0715 131.927 81.8017 131.963 81.5345 132.016C83.679 129.818 85.8551 127.66 88.0629 125.542Z" fill="#FDA649"/>
<path fill-rule="evenodd" clip-rule="evenodd" d="M82.8295 125.704C82.8862 125.696 82.9402 125.705 82.9913 125.731C79.4394 129.283 75.8874 132.835 72.3355 136.387C72.3095 136.335 72.3005 136.281 72.3085 136.225C72.349 135.847 72.4389 135.487 72.5783 135.146C72.5702 135.202 72.5792 135.256 72.6053 135.308C75.7076 132.205 78.8099 129.103 81.9122 126.001C81.8611 125.974 81.8071 125.965 81.7504 125.974C82.0919 125.834 82.4516 125.744 82.8295 125.704Z" fill="#FBD127"/>
<path fill-rule="evenodd" clip-rule="evenodd" d="M88.7104 125.65C88.8251 125.679 88.933 125.715 89.0341 125.758C89.0412 125.797 89.0322 125.833 89.0071 125.865C86.991 127.873 84.9857 129.887 82.9913 131.908C82.7755 131.908 82.5597 131.908 82.3439 131.908C84.3833 129.842 86.4335 127.783 88.4946 125.731C88.5786 125.719 88.6505 125.692 88.7104 125.65Z" fill="#FE9F4D"/>
<path fill-rule="evenodd" clip-rule="evenodd" d="M89.0341 125.758C89.246 125.781 89.4438 125.834 89.6276 125.919C87.6134 127.898 85.6171 129.894 83.6388 131.908C83.423 131.908 83.2071 131.908 82.9913 131.908C84.9857 129.887 86.991 127.873 89.0071 125.865C89.0322 125.833 89.0412 125.797 89.0341 125.758Z" fill="#FE9853"/>
<path fill-rule="evenodd" clip-rule="evenodd" d="M89.6276 125.919C89.8227 125.941 90.0025 125.995 90.1671 126.081C88.1735 127.985 86.2132 129.927 84.2862 131.908C84.0704 131.908 83.8545 131.908 83.6387 131.908C85.617 129.894 87.6133 127.898 89.6276 125.919Z" fill="#FE9356"/>
<path fill-rule="evenodd" clip-rule="evenodd" d="M81.7504 125.974C81.8071 125.965 81.8611 125.974 81.9123 126.001C78.8099 129.103 75.7076 132.205 72.6053 135.308C72.5792 135.256 72.5702 135.202 72.5783 135.146C72.6955 134.632 72.8753 134.146 73.1178 133.689C73.1108 133.729 73.1198 133.765 73.1448 133.797C75.5637 131.378 77.9827 128.959 80.4016 126.54C80.3695 126.515 80.3335 126.506 80.2936 126.513C80.7508 126.271 81.2364 126.091 81.7504 125.974Z" fill="#FBD723"/>
<path fill-rule="evenodd" clip-rule="evenodd" d="M90.1671 126.081C90.3312 126.094 90.4751 126.148 90.5988 126.243C88.7283 128.132 86.858 130.02 84.9876 131.908C84.7538 131.908 84.52 131.908 84.2862 131.908C86.2132 129.927 88.1735 127.985 90.1671 126.081Z" fill="#FE8C5C"/>
<path fill-rule="evenodd" clip-rule="evenodd" d="M90.5988 126.243C90.7629 126.256 90.9067 126.31 91.0304 126.405C89.178 128.221 87.3436 130.056 85.5271 131.908C85.3473 131.908 85.1674 131.908 84.9876 131.908C86.858 130.02 88.7284 128.132 90.5988 126.243Z" fill="#FF8660"/>
<path fill-rule="evenodd" clip-rule="evenodd" d="M91.0304 126.405C91.2144 126.434 91.3763 126.506 91.5159 126.621C89.7022 128.345 87.9217 130.107 86.1745 131.908C85.9587 131.908 85.7429 131.908 85.5271 131.908C87.3436 130.056 89.178 128.221 91.0304 126.405Z" fill="#FF7F63"/>
<path fill-rule="evenodd" clip-rule="evenodd" d="M80.2936 126.513C80.3335 126.506 80.3695 126.515 80.4015 126.54C77.9826 128.959 75.5637 131.378 73.1448 133.797C73.1197 133.765 73.1107 133.729 73.1178 133.689C74.5746 130.362 76.9665 127.97 80.2936 126.513Z" fill="#FADE1F"/>
<path fill-rule="evenodd" clip-rule="evenodd" d="M91.516 126.621C91.6638 126.632 91.7897 126.686 91.8936 126.783C90.1671 128.473 88.4586 130.182 86.768 131.908C86.5702 131.908 86.3724 131.908 86.1746 131.908C87.9217 130.107 89.7022 128.345 91.516 126.621Z" fill="#FF7966"/>
<path fill-rule="evenodd" clip-rule="evenodd" d="M91.8936 126.783C92.0016 126.819 92.1095 126.855 92.2174 126.891C92.3066 126.899 92.3785 126.935 92.4332 126.999C92.3238 126.99 92.2159 126.999 92.1095 127.026C90.48 128.646 88.8614 130.274 87.2536 131.908C87.0918 131.908 86.9299 131.908 86.7681 131.908C88.4586 130.182 90.1671 128.473 91.8936 126.783Z" fill="#FF7468"/>
<path fill-rule="evenodd" clip-rule="evenodd" d="M92.4332 126.999C92.4767 127.065 92.5306 127.119 92.5951 127.16C90.9944 128.725 89.4118 130.308 87.8472 131.908C87.6493 131.908 87.4515 131.908 87.2537 131.908C88.8614 130.274 90.48 128.646 92.1095 127.026C92.2159 126.999 92.3238 126.99 92.4332 126.999Z" fill="#FF6D6A"/>
<path opacity="0.024" fill-rule="evenodd" clip-rule="evenodd" d="M92.4332 126.999C92.5505 127.012 92.6404 127.066 92.7029 127.16C92.6669 127.16 92.631 127.16 92.595 127.16C92.5306 127.119 92.4767 127.065 92.4332 126.999Z" fill="#FFF8F8"/>
<path fill-rule="evenodd" clip-rule="evenodd" d="M92.595 127.161C92.631 127.161 92.6669 127.161 92.7029 127.161C92.7564 127.151 92.7924 127.169 92.8108 127.215C92.8363 127.29 92.8903 127.326 92.9727 127.322C93.0996 127.368 93.2075 127.44 93.2964 127.538C93.227 127.607 93.173 127.589 93.1345 127.484C93.0832 127.44 93.0293 127.431 92.9727 127.457C91.4871 128.934 90.0124 130.418 88.5485 131.908C88.3147 131.908 88.0809 131.908 87.8471 131.908C89.4118 130.308 90.9944 128.725 92.595 127.161Z" fill="#FF686E"/>
<path opacity="0.027" fill-rule="evenodd" clip-rule="evenodd" d="M92.8109 127.214C92.8936 127.21 92.9478 127.247 92.9734 127.323C92.8907 127.327 92.8365 127.291 92.8109 127.214Z" fill="#FFF7F7"/>
<path fill-rule="evenodd" clip-rule="evenodd" d="M93.2964 127.538C93.5064 127.622 93.6862 127.748 93.836 127.916C93.7633 127.887 93.6913 127.878 93.6202 127.889C92.2577 129.224 90.9268 130.582 89.6276 131.962C89.271 131.913 88.9113 131.895 88.5485 131.908C90.0124 130.418 91.4871 128.934 92.9727 127.457C93.0293 127.431 93.0833 127.44 93.1346 127.484C93.173 127.589 93.227 127.607 93.2964 127.538Z" fill="#FF5F71"/>
<path fill-rule="evenodd" clip-rule="evenodd" d="M93.8359 127.916C93.9588 127.967 94.0667 128.039 94.1597 128.132C94.0856 128.123 94.0136 128.132 93.9438 128.159C92.6353 129.44 91.3584 130.744 90.1131 132.07C89.9534 132.026 89.7915 131.99 89.6276 131.962C90.9268 130.582 92.2576 129.224 93.6201 127.889C93.6913 127.878 93.7633 127.887 93.8359 127.916Z" fill="#FF5575"/>
<path fill-rule="evenodd" clip-rule="evenodd" d="M94.1597 128.132C94.2697 128.222 94.3776 128.312 94.4834 128.402C94.4266 128.393 94.3727 128.402 94.3215 128.428C93.0806 129.669 91.8397 130.91 90.5987 132.151C90.6287 132.172 90.6467 132.199 90.6527 132.232C90.4729 132.178 90.293 132.124 90.1132 132.07C91.3585 130.744 92.6353 129.44 93.9439 128.159C94.0136 128.132 94.0856 128.123 94.1597 128.132Z" fill="#FF4E77"/>
<path fill-rule="evenodd" clip-rule="evenodd" d="M94.4834 128.401C94.6858 128.538 94.8657 128.7 95.0229 128.887C94.9662 128.879 94.9122 128.888 94.8611 128.914C93.6452 130.121 92.4403 131.335 91.2462 132.556C91.0461 132.444 90.8483 132.336 90.6527 132.232C90.6467 132.199 90.6288 132.172 90.5988 132.151C91.8397 130.91 93.0806 129.669 94.3215 128.428C94.3727 128.402 94.4266 128.393 94.4834 128.401Z" fill="#FF447B"/>
<path opacity="0.999" fill-rule="evenodd" clip-rule="evenodd" d="M95.023 128.887C95.097 128.941 95.1689 128.995 95.2388 129.049C95.2468 129.106 95.2379 129.159 95.2118 129.211C94.005 130.408 92.809 131.613 91.6239 132.825C91.4865 132.748 91.3605 132.658 91.2462 132.556C92.4403 131.335 93.6453 130.121 94.8611 128.914C94.9122 128.888 94.9662 128.879 95.023 128.887Z" fill="#FF3B7E"/>
<path fill-rule="evenodd" clip-rule="evenodd" d="M95.2388 129.049C95.5119 129.268 95.7457 129.52 95.9402 129.804C95.8885 129.78 95.8435 129.744 95.8053 129.696C94.5958 130.933 93.3638 132.138 92.1095 133.311C91.9372 133.162 91.7753 133 91.6239 132.826C92.809 131.614 94.005 130.409 95.2118 129.211C95.2379 129.16 95.2468 129.106 95.2388 129.049Z" fill="#FE3481"/>
<path fill-rule="evenodd" clip-rule="evenodd" d="M95.9401 129.804C96.2341 130.026 96.4679 130.296 96.6415 130.613C96.0689 131.276 95.4575 131.906 94.8071 132.502C95.0182 132.119 95.2431 131.741 95.4815 131.369C95.5517 131.266 95.5877 131.158 95.5894 131.045C94.5984 132.045 93.6003 133.034 92.595 134.013C92.4471 133.771 92.2853 133.538 92.1094 133.311C93.3638 132.138 94.5957 130.933 95.8052 129.696C95.8434 129.744 95.8884 129.78 95.9401 129.804Z" fill="#F62F84"/>
<path opacity="0.993" fill-rule="evenodd" clip-rule="evenodd" d="M96.6416 130.614C96.8043 130.776 96.9482 130.956 97.0732 131.153C95.7423 132.52 94.3935 133.869 93.0267 135.2C93.0267 135.182 93.0267 135.164 93.0267 135.146C93.6069 134.255 94.2004 133.373 94.8071 132.502C95.4575 131.906 96.0689 131.276 96.6416 130.614Z" fill="#E91C81"/>
<path opacity="0.997" fill-rule="evenodd" clip-rule="evenodd" d="M97.0732 131.153C97.1938 131.304 97.3017 131.466 97.3969 131.639C95.9761 133.095 94.5374 134.534 93.0806 135.955C93.0785 135.702 93.0605 135.45 93.0267 135.2C94.3935 133.869 95.7423 132.52 97.0732 131.153Z" fill="#E31C85"/>
<path fill-rule="evenodd" clip-rule="evenodd" d="M94.8071 132.502C94.2004 133.373 93.6069 134.255 93.0267 135.146C92.9266 134.756 92.7827 134.378 92.595 134.013C93.6003 133.034 94.5984 132.045 95.5895 131.045C95.5877 131.158 95.5517 131.266 95.4815 131.369C95.2431 131.741 95.0182 132.119 94.8071 132.502Z" fill="#F0328B"/>
<path fill-rule="evenodd" clip-rule="evenodd" d="M82.3439 131.908C82.5597 131.908 82.7755 131.908 82.9913 131.908C83.2071 131.908 83.4229 131.908 83.6388 131.908C83.8546 131.908 84.0704 131.908 84.2862 131.908C84.52 131.908 84.7538 131.908 84.9876 131.908C85.1674 131.908 85.3473 131.908 85.5271 131.908C85.7429 131.908 85.9588 131.908 86.1746 131.908C86.3724 131.908 86.5702 131.908 86.7681 131.908C86.9299 131.908 87.0918 131.908 87.2536 131.908C87.4515 131.908 87.6493 131.908 87.8471 131.908C88.0809 131.908 88.3147 131.908 88.5485 131.908C88.9113 131.894 89.271 131.912 89.6276 131.962C89.7916 131.99 89.9534 132.026 90.1132 132.07C90.293 132.124 90.4729 132.178 90.6527 132.232C90.8483 132.336 91.0461 132.444 91.2462 132.556C91.3605 132.658 91.4865 132.748 91.6239 132.826C91.7753 133 91.9371 133.162 92.1095 133.311C92.2853 133.537 92.4471 133.771 92.595 134.012C92.7827 134.378 92.9266 134.756 93.0267 135.146C93.0267 135.163 93.0267 135.182 93.0267 135.199C93.0605 135.45 93.0785 135.702 93.0806 135.955C93.0806 136.207 93.0806 136.458 93.0806 136.71C93.0806 136.98 93.0806 137.25 93.0806 137.519C93.0806 137.789 93.0806 138.059 93.0806 138.329C93.0806 138.635 93.0806 138.94 93.0806 139.246C93.0806 139.516 93.0806 139.786 93.0806 140.055C93.0806 140.325 93.0806 140.595 93.0806 140.865C93.0806 141.134 93.0806 141.404 93.0806 141.674C93.0806 141.98 93.0806 142.285 93.0806 142.591C93.0462 142.9 92.9923 143.206 92.9188 143.508C92.7339 144.166 92.4101 144.742 91.9476 145.235C91.9476 145.253 91.9476 145.271 91.9476 145.289C91.4199 145.769 90.8084 146.11 90.1132 146.314C89.8109 146.387 89.5052 146.441 89.196 146.476C88.8902 146.476 88.5845 146.476 88.2788 146.476C88.009 146.476 87.7392 146.476 87.4695 146.476C87.1997 146.476 86.9299 146.476 86.6602 146.476C86.3904 146.476 86.1206 146.476 85.8509 146.476C85.5451 146.476 85.2394 146.476 84.9336 146.476C84.6639 146.476 84.3941 146.476 84.1243 146.476C83.8546 146.476 83.5848 146.476 83.315 146.476C83.0632 146.476 82.8115 146.476 82.5597 146.476C82.3071 146.467 82.0553 146.449 81.8043 146.422C81.7864 146.422 81.7684 146.422 81.7504 146.422C81.3593 146.321 80.9817 146.177 80.6174 145.99C80.3762 145.842 80.1424 145.68 79.916 145.505C79.7721 145.325 79.6102 145.163 79.4304 145.019C79.353 144.882 79.2631 144.756 79.1606 144.641C79.0656 144.433 78.9576 144.235 78.8369 144.048C78.7829 143.868 78.729 143.688 78.675 143.508C78.6306 143.349 78.5946 143.187 78.5671 143.023C78.5223 142.665 78.5043 142.305 78.5132 141.944C78.5132 141.71 78.5132 141.476 78.5132 141.242C78.5132 141.044 78.5132 140.847 78.5132 140.649C78.5132 140.487 78.5132 140.325 78.5132 140.163C78.5132 139.965 78.5132 139.768 78.5132 139.57C78.5132 139.354 78.5132 139.138 78.5132 138.922C78.5132 138.742 78.5132 138.563 78.5132 138.383C78.5132 138.149 78.5132 137.915 78.5132 137.681C78.5132 137.466 78.5132 137.25 78.5132 137.034C78.5132 136.818 78.5132 136.602 78.5132 136.386C78.5132 136.171 78.5132 135.955 78.5132 135.739C78.5316 135.467 78.5676 135.197 78.6211 134.93C78.714 134.654 78.822 134.384 78.9448 134.12C79.3404 133.329 79.9339 132.736 80.7253 132.34C80.9889 132.217 81.2587 132.109 81.5346 132.016C81.8017 131.963 82.0715 131.927 82.3439 131.908Z" fill="#FEFCFD"/>
<path opacity="0.998" fill-rule="evenodd" clip-rule="evenodd" d="M97.3969 131.639C97.5175 131.789 97.6254 131.951 97.7206 132.124C96.1739 133.653 94.6273 135.182 93.0806 136.71C93.0806 136.458 93.0806 136.207 93.0806 135.955C94.5374 134.534 95.9761 133.095 97.3969 131.639Z" fill="#DC1C89"/>
<path opacity="0.997" fill-rule="evenodd" clip-rule="evenodd" d="M97.7206 132.124C97.8389 132.289 97.9288 132.469 97.9904 132.664C96.3538 134.282 94.7172 135.901 93.0806 137.52C93.0806 137.25 93.0806 136.98 93.0806 136.71C94.6273 135.182 96.1739 133.653 97.7206 132.124Z" fill="#D71B8C"/>
<path opacity="0.998" fill-rule="evenodd" clip-rule="evenodd" d="M97.9904 132.664C98.1077 132.826 98.1976 133.006 98.2602 133.203C96.5337 134.912 94.8071 136.62 93.0806 138.329C93.0806 138.059 93.0806 137.789 93.0806 137.52C94.7172 135.901 96.3538 134.282 97.9904 132.664Z" fill="#D11B90"/>
<path fill-rule="evenodd" clip-rule="evenodd" d="M82.9373 133.203C83.1711 133.203 83.405 133.203 83.6387 133.203C82.3798 134.498 81.1029 135.775 79.808 137.034C79.808 136.8 79.808 136.566 79.808 136.333C80.8691 135.308 81.9122 134.264 82.9373 133.203Z" fill="#FE8C5C"/>
<path fill-rule="evenodd" clip-rule="evenodd" d="M83.6387 133.203C83.8186 133.203 83.9984 133.203 84.1783 133.203C82.7395 134.678 81.2828 136.135 79.808 137.574C79.808 137.394 79.808 137.214 79.808 137.034C81.1029 135.775 82.3798 134.498 83.6387 133.203Z" fill="#FF8660"/>
<path fill-rule="evenodd" clip-rule="evenodd" d="M84.1783 133.203C84.3941 133.203 84.6099 133.203 84.8257 133.203C83.1711 134.894 81.4986 136.566 79.808 138.221C79.808 138.005 79.808 137.789 79.808 137.574C81.2828 136.135 82.7395 134.678 84.1783 133.203Z" fill="#FF7F63"/>
<path fill-rule="evenodd" clip-rule="evenodd" d="M84.8257 133.203C85.0236 133.203 85.2214 133.203 85.4192 133.203C83.5668 135.092 81.6964 136.962 79.808 138.815C79.808 138.617 79.808 138.419 79.808 138.221C81.4986 136.566 83.1711 134.894 84.8257 133.203Z" fill="#FF7966"/>
<path fill-rule="evenodd" clip-rule="evenodd" d="M85.4192 133.203C85.5811 133.203 85.7429 133.203 85.9048 133.203C83.8905 135.254 81.8583 137.286 79.808 139.3C79.808 139.138 79.808 138.976 79.808 138.815C81.6964 136.962 83.5668 135.092 85.4192 133.203Z" fill="#FF7367"/>
<path fill-rule="evenodd" clip-rule="evenodd" d="M85.9048 133.203C86.1026 133.203 86.3004 133.203 86.4983 133.203C85.6099 134.119 84.7107 135.027 83.8006 135.928C83.8129 135.95 83.8309 135.959 83.8546 135.955C83.3869 136.315 82.9733 136.728 82.6136 137.196C82.6171 137.172 82.6082 137.154 82.5866 137.142C81.6676 138.07 80.7414 138.987 79.808 139.894C79.808 139.696 79.808 139.498 79.808 139.3C81.8583 137.286 83.8905 135.254 85.9048 133.203Z" fill="#FF6E6B"/>
<path fill-rule="evenodd" clip-rule="evenodd" d="M86.4983 133.203C86.7321 133.203 86.9659 133.203 87.1997 133.203C86.4443 133.977 85.689 134.75 84.9336 135.523C84.5625 135.637 84.2029 135.781 83.8546 135.955C83.8309 135.959 83.8129 135.95 83.8006 135.928C84.7107 135.027 85.6099 134.119 86.4983 133.203Z" fill="#FF676D"/>
<path fill-rule="evenodd" clip-rule="evenodd" d="M87.1997 133.203C87.5594 133.203 87.9191 133.203 88.2788 133.203C87.5703 133.939 86.8509 134.667 86.1206 135.388C86.1874 135.401 86.2413 135.428 86.2825 135.469C85.829 135.391 85.3794 135.409 84.9337 135.523C85.689 134.75 86.4444 133.977 87.1997 133.203Z" fill="#FF5E70"/>
<path fill-rule="evenodd" clip-rule="evenodd" d="M88.2787 133.203C88.5055 133.186 88.7213 133.204 88.9262 133.257C88.1196 133.974 87.3463 134.729 86.6062 135.523C86.4983 135.505 86.3904 135.487 86.2825 135.469C86.2413 135.428 86.1873 135.401 86.1206 135.388C86.8509 134.667 87.5703 133.939 88.2787 133.203Z" fill="#FF5574"/>
<path opacity="0.996" fill-rule="evenodd" clip-rule="evenodd" d="M98.2602 133.203C98.3956 133.402 98.5035 133.618 98.5839 133.851C98.544 133.844 98.508 133.853 98.476 133.878C96.6847 135.678 94.8862 137.468 93.0806 139.246C93.0806 138.94 93.0806 138.635 93.0806 138.329C94.8071 136.62 96.5337 134.912 98.2602 133.203Z" fill="#CB1C94"/>
<path fill-rule="evenodd" clip-rule="evenodd" d="M82.9373 133.203C81.9122 134.264 80.8691 135.308 79.808 136.333C80.0433 134.479 81.0864 133.436 82.9373 133.203Z" fill="#FE9458"/>
<path fill-rule="evenodd" clip-rule="evenodd" d="M88.9262 133.257C89.2712 133.283 89.595 133.373 89.8974 133.527C89.8406 133.519 89.7867 133.528 89.7355 133.554C88.9664 134.296 88.229 135.06 87.5234 135.847C87.225 135.718 86.9192 135.61 86.6062 135.523C87.3463 134.729 88.1197 133.974 88.9262 133.257Z" fill="#FF4A79"/>
<path fill-rule="evenodd" clip-rule="evenodd" d="M89.8974 133.527C90.1587 133.631 90.3925 133.774 90.5988 133.959C90.3522 134.043 90.1723 134.205 90.0593 134.444C89.1771 134.301 88.7814 134.679 88.8723 135.577C88.6205 135.793 88.3867 136.027 88.1709 136.279C87.9531 136.134 87.7373 135.99 87.5234 135.847C88.229 135.06 88.9664 134.296 89.7355 133.554C89.7867 133.528 89.8406 133.519 89.8974 133.527Z" fill="#FF437E"/>
<path opacity="0.998" fill-rule="evenodd" clip-rule="evenodd" d="M98.5839 133.851C98.6532 134.007 98.7071 134.169 98.7457 134.336C96.8961 136.276 95.0077 138.182 93.0806 140.055C93.0806 139.786 93.0806 139.516 93.0806 139.246C94.8862 137.467 96.6847 135.678 98.476 133.878C98.508 133.853 98.544 133.844 98.5839 133.851Z" fill="#C41B99"/>
<path fill-rule="evenodd" clip-rule="evenodd" d="M78.9448 134.12C78.822 134.384 78.714 134.654 78.6211 134.93C76.4435 137.071 74.2854 139.229 72.1467 141.404C72.1057 141.19 72.0698 140.974 72.0388 140.757C72.0777 140.779 72.1047 140.815 72.1197 140.865C74.3723 138.585 76.6473 136.337 78.9448 134.12Z" fill="#FDAB44"/>
<path fill-rule="evenodd" clip-rule="evenodd" d="M90.0592 134.444C90.6667 134.837 90.7566 135.332 90.329 135.928C89.7158 136.326 89.2302 136.209 88.8722 135.577C88.7813 134.679 89.177 134.301 90.0592 134.444Z" fill="#FFFCFD"/>
<path fill-rule="evenodd" clip-rule="evenodd" d="M90.5987 133.958C91.0081 134.296 91.3139 134.71 91.516 135.199C90.7923 136.004 90.037 136.786 89.2499 137.546C89.2179 137.571 89.1819 137.58 89.142 137.573C88.8805 137.096 88.5568 136.664 88.1708 136.278C88.3867 136.027 88.6204 135.793 88.8722 135.577C89.2302 136.209 89.7158 136.326 90.329 135.928C90.7566 135.332 90.6667 134.837 90.0592 134.444C90.1722 134.205 90.3521 134.043 90.5987 133.958Z" fill="#F83687"/>
<path opacity="0.998" fill-rule="evenodd" clip-rule="evenodd" d="M98.7457 134.336C98.8452 134.562 98.9351 134.796 99.0155 135.038C98.9756 135.031 98.9397 135.04 98.9076 135.065C96.9724 137.009 95.0301 138.942 93.0806 140.865C93.0806 140.595 93.0806 140.325 93.0806 140.055C95.0077 138.182 96.8961 136.276 98.7457 134.336Z" fill="#BE1C9D"/>
<path fill-rule="evenodd" clip-rule="evenodd" d="M78.6211 134.93C78.5676 135.197 78.5316 135.467 78.5132 135.739C76.4468 137.778 74.3876 139.829 72.3355 141.89C72.3242 141.974 72.2972 142.046 72.2546 142.106C72.2186 141.872 72.1826 141.638 72.1467 141.404C74.2854 139.229 76.4435 137.071 78.6211 134.93Z" fill="#FDA649"/>
<path opacity="0.998" fill-rule="evenodd" clip-rule="evenodd" d="M99.0155 135.038C99.0779 135.233 99.1318 135.431 99.1774 135.631C97.1451 137.645 95.1129 139.66 93.0806 141.674C93.0806 141.404 93.0806 141.134 93.0806 140.865C95.0301 138.942 96.9724 137.009 98.9076 135.065C98.9397 135.04 98.9756 135.031 99.0155 135.038Z" fill="#B81BA0"/>
<path fill-rule="evenodd" clip-rule="evenodd" d="M91.516 135.199C91.6298 135.415 91.7017 135.649 91.7318 135.901C90.9693 136.636 90.214 137.383 89.4657 138.14C89.4337 138.165 89.3977 138.174 89.3578 138.167C89.3008 137.963 89.2288 137.765 89.142 137.573C89.1819 137.58 89.2179 137.571 89.2499 137.546C90.037 136.786 90.7924 136.004 91.516 135.199Z" fill="#F0338B"/>
<path fill-rule="evenodd" clip-rule="evenodd" d="M86.2825 135.469C86.3904 135.487 86.4983 135.505 86.6062 135.523C86.9193 135.61 87.225 135.718 87.5234 135.847C87.7372 135.99 87.9531 136.134 88.1709 136.279C88.5569 136.664 88.8806 137.096 89.142 137.574C89.2288 137.765 89.3008 137.963 89.3578 138.167C89.4486 138.556 89.4845 138.952 89.4658 139.354C89.4409 139.701 89.387 140.042 89.3039 140.379C88.8543 141.512 88.063 142.303 86.9299 142.753C86.6616 142.814 86.3919 142.868 86.1206 142.915C85.6652 142.934 85.2156 142.898 84.7718 142.807C84.5425 142.707 84.3087 142.617 84.0704 142.537C83.848 142.363 83.6142 142.201 83.369 142.052C83.2431 141.89 83.0992 141.746 82.9374 141.62C82.7754 141.368 82.6135 141.116 82.4518 140.865C82.3616 140.576 82.2718 140.289 82.182 140.001C82.1631 139.818 82.1271 139.638 82.0741 139.462C82.0691 139.119 82.0871 138.777 82.1281 138.437C82.2568 138.016 82.4186 137.602 82.6137 137.196C82.9734 136.728 83.387 136.315 83.8546 135.955C84.2029 135.781 84.5626 135.637 84.9337 135.523C85.3794 135.409 85.829 135.391 86.2825 135.469Z" fill="#FFFDFD"/>
<path opacity="0.997" fill-rule="evenodd" clip-rule="evenodd" d="M99.1774 135.631C99.2483 135.879 99.3023 136.131 99.3392 136.386C97.253 138.455 95.1668 140.523 93.0806 142.591C93.0806 142.285 93.0806 141.98 93.0806 141.674C95.1129 139.66 97.1451 137.645 99.1774 135.631Z" fill="#B11BA4"/>
<path fill-rule="evenodd" clip-rule="evenodd" d="M78.5132 135.739C78.5132 135.955 78.5132 136.171 78.5132 136.386C76.4918 138.381 74.4775 140.386 72.4704 142.402C72.4383 142.427 72.4024 142.436 72.3625 142.429C72.3201 142.328 72.2842 142.22 72.2546 142.106C72.2972 142.046 72.3242 141.974 72.3355 141.89C74.3876 139.829 76.4468 137.778 78.5132 135.739Z" fill="#FE9F4D"/>
<path fill-rule="evenodd" clip-rule="evenodd" d="M91.7318 135.901C91.7851 136.16 91.8031 136.43 91.7858 136.71C91.0505 137.622 90.2772 138.503 89.4658 139.354C89.4845 138.952 89.4486 138.556 89.3578 138.167C89.3977 138.174 89.4337 138.165 89.4658 138.14C90.214 137.383 90.9693 136.636 91.7318 135.901Z" fill="#EA348F"/>
<path fill-rule="evenodd" clip-rule="evenodd" d="M78.5132 136.386C78.5132 136.602 78.5132 136.818 78.5132 137.034C76.4989 139.012 74.5026 141.009 72.5243 143.023C72.4394 142.839 72.3855 142.641 72.3625 142.429C72.4024 142.436 72.4383 142.427 72.4704 142.402C74.4775 140.386 76.4918 138.381 78.5132 136.386Z" fill="#FE9853"/>
<path opacity="0.998" fill-rule="evenodd" clip-rule="evenodd" d="M99.3392 136.386C99.4096 136.595 99.4456 136.811 99.4471 137.034C97.3043 139.231 95.1282 141.389 92.9188 143.508C92.9923 143.206 93.0463 142.9 93.0806 142.591C95.1668 140.523 97.253 138.455 99.3392 136.386Z" fill="#AB1CA9"/>
<path fill-rule="evenodd" clip-rule="evenodd" d="M86.0127 136.764C85.1135 137.645 84.2143 138.527 83.3151 139.408C83.3312 137.811 84.1315 136.912 85.716 136.71C85.8257 136.711 85.9246 136.728 86.0127 136.764Z" fill="#FF5278"/>
<path fill-rule="evenodd" clip-rule="evenodd" d="M86.0127 136.764C86.2911 136.761 86.5428 136.833 86.7681 136.98C85.7269 138.048 84.6748 139.109 83.6118 140.163C83.5868 140.195 83.5778 140.231 83.5848 140.271C83.4292 140.01 83.3393 139.722 83.3151 139.408C84.2143 138.527 85.1135 137.645 86.0127 136.764Z" fill="#FF447B"/>
<path fill-rule="evenodd" clip-rule="evenodd" d="M78.5132 137.034C78.5132 137.25 78.5132 137.466 78.5132 137.681C76.5322 139.608 74.5899 141.569 72.6862 143.562C72.5999 143.398 72.5459 143.218 72.5244 143.023C74.5026 141.009 76.4989 139.012 78.5132 137.034Z" fill="#FE9356"/>
<path fill-rule="evenodd" clip-rule="evenodd" d="M86.768 136.98C86.9565 137.029 87.1183 137.119 87.2536 137.25C86.0693 138.344 84.9184 139.477 83.8006 140.649C83.6879 140.55 83.616 140.424 83.5848 140.271C83.5777 140.231 83.5867 140.195 83.6118 140.163C84.6748 139.109 85.7269 138.048 86.768 136.98Z" fill="#FF3C7E"/>
<path opacity="0.997" fill-rule="evenodd" clip-rule="evenodd" d="M99.4471 137.034C99.5123 137.256 99.5483 137.49 99.555 137.735C97.0481 140.215 94.5482 142.706 92.0555 145.208C92.0234 145.233 91.9874 145.242 91.9476 145.235C92.4101 144.742 92.7338 144.166 92.9187 143.508C95.1282 141.389 97.3043 139.231 99.4471 137.034Z" fill="#A51DAC"/>
<path fill-rule="evenodd" clip-rule="evenodd" d="M82.6136 137.196C82.4186 137.602 82.2567 138.016 82.128 138.437C82.1351 138.397 82.1261 138.361 82.1011 138.329C81.3438 139.095 80.5795 139.85 79.808 140.595C79.808 140.361 79.808 140.127 79.808 139.893C80.7414 138.987 81.6676 138.07 82.5866 137.142C82.6082 137.154 82.6171 137.172 82.6136 137.196Z" fill="#FF676D"/>
<path fill-rule="evenodd" clip-rule="evenodd" d="M87.2536 137.25C87.4334 137.394 87.5953 137.556 87.7392 137.735C86.6214 138.907 85.4705 140.04 84.2862 141.134C84.0704 141.026 83.9085 140.865 83.8006 140.649C84.9184 139.477 86.0693 138.344 87.2536 137.25Z" fill="#FE3482"/>
<path fill-rule="evenodd" clip-rule="evenodd" d="M91.7857 136.71C91.7857 137.16 91.7857 137.609 91.7857 138.059C90.9603 138.857 90.142 139.667 89.3308 140.487C89.3058 140.455 89.2968 140.419 89.3038 140.379C89.3869 140.042 89.4409 139.701 89.4657 139.354C90.2772 138.503 91.0505 137.622 91.7857 136.71Z" fill="#DF1E89"/>
<path fill-rule="evenodd" clip-rule="evenodd" d="M78.5132 137.681C78.5132 137.915 78.5132 138.149 78.5132 138.383C76.6248 140.253 74.7365 142.124 72.8481 143.994C72.7527 143.87 72.6988 143.726 72.6862 143.562C74.5899 141.569 76.5322 139.608 78.5132 137.681Z" fill="#FE8C5C"/>
<path opacity="0.998" fill-rule="evenodd" clip-rule="evenodd" d="M99.555 137.735C99.5406 137.822 99.5586 137.894 99.609 137.951C99.609 138.131 99.609 138.311 99.609 138.491C94.7532 143.311 89.9153 148.148 85.0955 153.004C84.9157 153.004 84.7358 153.004 84.556 153.004C84.4983 152.954 84.4264 152.936 84.3401 152.95C86.876 150.396 89.4118 147.843 91.9476 145.289C91.9476 145.271 91.9476 145.253 91.9476 145.235C91.9875 145.242 92.0234 145.233 92.0555 145.208C94.5482 142.706 97.0481 140.215 99.555 137.735Z" fill="#9F1BB0"/>
<path fill-rule="evenodd" clip-rule="evenodd" d="M87.7392 137.735C87.9363 137.968 88.0622 138.238 88.1169 138.545C87.1206 139.514 86.1315 140.494 85.1494 141.485C85.0983 141.511 85.0443 141.52 84.9876 141.512C84.7126 141.456 84.4789 141.33 84.2862 141.134C85.4705 140.04 86.6215 138.907 87.7392 137.735Z" fill="#F73386"/>
<path fill-rule="evenodd" clip-rule="evenodd" d="M91.7857 138.059C91.7857 138.329 91.7857 138.599 91.7857 138.868C89.6636 140.955 87.5594 143.059 85.4732 145.181C85.2034 145.181 84.9336 145.181 84.6639 145.181C85.4443 144.374 86.2356 143.573 87.0378 142.78C87.0058 142.755 86.9698 142.746 86.9299 142.753C88.0629 142.303 88.8543 141.512 89.3039 140.379C89.2968 140.419 89.3058 140.455 89.3309 140.487C90.142 139.667 90.9603 138.857 91.7857 138.059Z" fill="#D71E8D"/>
<path fill-rule="evenodd" clip-rule="evenodd" d="M82.128 138.437C82.087 138.777 82.0691 139.119 82.0741 139.462C81.3187 140.199 80.5634 140.937 79.808 141.674C79.808 141.314 79.808 140.955 79.808 140.595C80.5795 139.85 81.3438 139.095 82.1011 138.329C82.1261 138.361 82.1351 138.397 82.128 138.437Z" fill="#FF5E70"/>
<path fill-rule="evenodd" clip-rule="evenodd" d="M78.5132 138.383C78.5132 138.563 78.5132 138.743 78.5132 138.922C76.6608 140.739 74.8264 142.573 73.0099 144.426C72.9146 144.302 72.8606 144.158 72.8481 143.994C74.7365 142.124 76.6248 140.253 78.5132 138.383Z" fill="#FF8660"/>
<path opacity="0.999" fill-rule="evenodd" clip-rule="evenodd" d="M99.609 138.491C99.609 138.796 99.609 139.102 99.609 139.408C95.0589 143.922 90.5269 148.454 86.0127 153.004C85.707 153.004 85.4013 153.004 85.0955 153.004C89.9153 148.148 94.7532 143.311 99.609 138.491Z" fill="#991BB4"/>
<path fill-rule="evenodd" clip-rule="evenodd" d="M88.1169 138.545C88.1989 138.708 88.2348 138.888 88.2248 139.084C88.2247 139.22 88.2066 139.346 88.1709 139.462C87.4444 140.161 86.725 140.872 86.0127 141.593C85.8157 141.62 85.6179 141.629 85.4192 141.62C85.2576 141.631 85.1138 141.595 84.9876 141.512C85.0444 141.52 85.0983 141.511 85.1495 141.485C86.1315 140.494 87.1207 139.514 88.1169 138.545Z" fill="#F0338B"/>
<path fill-rule="evenodd" clip-rule="evenodd" d="M91.7857 138.868C91.7857 139.138 91.7857 139.408 91.7857 139.678C89.9333 141.494 88.0989 143.329 86.2824 145.181C86.0127 145.181 85.7429 145.181 85.4731 145.181C87.5594 143.059 89.6635 140.955 91.7857 138.868Z" fill="#D11B90"/>
<path fill-rule="evenodd" clip-rule="evenodd" d="M78.5132 138.922C78.5132 139.138 78.5132 139.354 78.5132 139.57C76.7121 141.317 74.9496 143.097 73.2258 144.911C73.1129 144.772 73.041 144.61 73.0099 144.426C74.8264 142.573 76.6608 140.739 78.5132 138.922Z" fill="#FF7F63"/>
<path opacity="0.998" fill-rule="evenodd" clip-rule="evenodd" d="M99.609 139.408C99.609 139.678 99.609 139.947 99.609 140.217C95.326 144.446 91.0817 148.709 86.876 153.004C86.5882 153.004 86.3004 153.004 86.0127 153.004C90.5268 148.454 95.0589 143.922 99.609 139.408Z" fill="#921BB8"/>
<path fill-rule="evenodd" clip-rule="evenodd" d="M82.0741 139.462C82.1271 139.638 82.1631 139.818 82.182 140.001C81.3953 140.707 80.631 141.444 79.889 142.214C79.864 142.246 79.855 142.282 79.862 142.321C79.809 142.117 79.791 141.901 79.8081 141.674C80.5634 140.937 81.3188 140.199 82.0741 139.462Z" fill="#FF5575"/>
<path fill-rule="evenodd" clip-rule="evenodd" d="M88.1709 139.462C87.9663 140.852 87.157 141.589 85.743 141.674C85.6245 141.674 85.5166 141.656 85.4193 141.62C85.6179 141.629 85.8157 141.62 86.0127 141.593C86.725 140.872 87.4444 140.161 88.1709 139.462Z" fill="#EB3A91"/>
<path fill-rule="evenodd" clip-rule="evenodd" d="M78.5132 139.57C78.5132 139.768 78.5132 139.965 78.5132 140.163C76.7866 141.854 75.0781 143.562 73.3876 145.289C73.2908 145.185 73.2369 145.059 73.2257 144.911C74.9495 143.097 76.712 141.317 78.5132 139.57Z" fill="#FF7966"/>
<path fill-rule="evenodd" clip-rule="evenodd" d="M91.7857 139.678C91.7857 139.983 91.7857 140.289 91.7857 140.595C90.239 142.106 88.7104 143.634 87.1997 145.181C86.8939 145.181 86.5882 145.181 86.2825 145.181C88.0989 143.329 89.9333 141.494 91.7857 139.678Z" fill="#CB1B94"/>
<path fill-rule="evenodd" clip-rule="evenodd" d="M78.5132 140.163C78.5132 140.325 78.5132 140.487 78.5132 140.649C76.8784 142.257 75.2508 143.875 73.6304 145.505C73.6036 145.611 73.5946 145.719 73.6034 145.828C73.5221 145.738 73.4681 145.63 73.4415 145.505C73.4235 145.433 73.4056 145.361 73.3876 145.289C75.0781 143.562 76.7866 141.854 78.5132 140.163Z" fill="#FF7569"/>
<path opacity="0.074" fill-rule="evenodd" clip-rule="evenodd" d="M71.9848 140.379C72.037 140.493 72.055 140.619 72.0388 140.757C72.0698 140.974 72.1057 141.19 72.1467 141.404C72.1826 141.638 72.2186 141.872 72.2546 142.106C72.2841 142.22 72.3201 142.328 72.3625 142.429C72.3854 142.641 72.4394 142.839 72.5243 143.023C72.5459 143.218 72.5998 143.398 72.6862 143.562C72.6988 143.727 72.7527 143.87 72.8481 143.994C72.8606 144.158 72.9146 144.302 73.0099 144.426C73.0409 144.61 73.1129 144.772 73.2257 144.911C73.2369 145.059 73.2909 145.185 73.3876 145.289C73.4056 145.361 73.4236 145.433 73.4415 145.505C73.0745 144.896 72.7777 144.249 72.5513 143.562C72.3356 142.861 72.1468 142.16 71.9848 141.458C71.9848 141.099 71.9848 140.739 71.9848 140.379Z" fill="#FFFCFB"/>
<path fill-rule="evenodd" clip-rule="evenodd" d="M82.182 140.001C82.2717 140.289 82.3616 140.576 82.4518 140.865C81.6803 141.609 80.916 142.365 80.1588 143.131C80.1327 143.182 80.1237 143.236 80.1318 143.293C79.9772 142.99 79.8873 142.666 79.862 142.321C79.8549 142.282 79.864 142.246 79.889 142.214C80.631 141.444 81.3953 140.707 82.182 140.001Z" fill="#FF4A79"/>
<path opacity="0.997" fill-rule="evenodd" clip-rule="evenodd" d="M99.609 140.217C99.609 140.289 99.609 140.361 99.609 140.433C99.5578 140.657 99.5218 140.891 99.5011 141.134C95.5914 145.017 91.6887 148.911 87.7932 152.815C87.8232 152.836 87.8412 152.863 87.8471 152.896C87.5669 152.909 87.2971 152.945 87.0378 153.004C86.9839 153.004 86.9299 153.004 86.876 153.004C91.0817 148.709 95.3261 144.446 99.609 140.217Z" fill="#8C1BBC"/>
<path fill-rule="evenodd" clip-rule="evenodd" d="M91.7858 140.595C91.7858 140.865 91.7858 141.135 91.7858 141.404C90.5088 142.645 89.2499 143.904 88.009 145.181C87.7392 145.181 87.4695 145.181 87.1997 145.181C88.7104 143.634 90.2391 142.106 91.7858 140.595Z" fill="#C41B98"/>
<path fill-rule="evenodd" clip-rule="evenodd" d="M78.5132 140.649C78.5132 140.847 78.5132 141.045 78.5132 141.242C76.9324 142.796 75.3588 144.361 73.7922 145.936C73.7662 145.988 73.7572 146.041 73.7653 146.098C73.72 146.08 73.702 146.044 73.7113 145.99C73.7152 145.908 73.6793 145.854 73.6034 145.828C73.5946 145.719 73.6036 145.611 73.6304 145.505C75.2508 143.875 76.8784 142.257 78.5132 140.649Z" fill="#FF6D6B"/>
<path opacity="0.996" fill-rule="evenodd" clip-rule="evenodd" d="M99.5011 141.135C99.4529 141.477 99.399 141.819 99.3392 142.16C95.7918 145.626 92.2668 149.124 88.7643 152.654C88.7766 152.675 88.7946 152.684 88.8183 152.681C88.505 152.772 88.1812 152.844 87.8471 152.896C87.8411 152.863 87.8231 152.836 87.7932 152.815C91.6886 148.911 95.5913 145.017 99.5011 141.135Z" fill="#861CC0"/>
<path fill-rule="evenodd" clip-rule="evenodd" d="M78.5132 141.242C78.5132 141.476 78.5132 141.71 78.5132 141.944C77.0223 143.408 75.5386 144.882 74.062 146.368C74.0416 146.48 74.0865 146.561 74.1969 146.611C74.1669 146.631 74.1489 146.658 74.1429 146.692C73.9768 146.522 73.8509 146.324 73.7653 146.098C73.7572 146.041 73.7662 145.988 73.7922 145.936C75.3588 144.361 76.9324 142.796 78.5132 141.242Z" fill="#FF686E"/>
<path fill-rule="evenodd" clip-rule="evenodd" d="M82.4518 140.865C82.6135 141.116 82.7753 141.368 82.9373 141.62C82.904 141.614 82.8771 141.596 82.8564 141.566C82.1011 142.321 81.3457 143.077 80.5904 143.832C80.5643 143.883 80.5553 143.937 80.5634 143.994C80.3791 143.788 80.2352 143.554 80.1318 143.293C80.1237 143.236 80.1327 143.182 80.1587 143.131C80.916 142.365 81.6803 141.609 82.4518 140.865Z" fill="#FF3F7D"/>
<path fill-rule="evenodd" clip-rule="evenodd" d="M82.9374 141.62C83.0992 141.746 83.2431 141.89 83.369 142.052C82.6454 142.856 81.89 143.639 81.1029 144.399C81.0709 144.424 81.0349 144.433 80.995 144.426C80.8332 144.3 80.6893 144.156 80.5634 143.994C80.5554 143.937 80.5643 143.883 80.5904 143.832C81.3457 143.077 82.1011 142.322 82.8564 141.566C82.8771 141.596 82.9041 141.614 82.9374 141.62Z" fill="#FE3482"/>
<path fill-rule="evenodd" clip-rule="evenodd" d="M91.7857 141.404C91.8031 141.756 91.7852 142.098 91.7318 142.429C91.7398 142.373 91.7308 142.319 91.7048 142.268C90.7317 143.232 89.7696 144.203 88.8183 145.181C88.5485 145.181 88.2787 145.181 88.009 145.181C89.2499 143.904 90.5088 142.645 91.7857 141.404Z" fill="#BE1C9D"/>
<path fill-rule="evenodd" clip-rule="evenodd" d="M78.5132 141.944C78.5044 142.305 78.5223 142.665 78.5672 143.023C77.1869 144.322 75.8291 145.653 74.4937 147.015C74.4831 147.087 74.4921 147.159 74.5206 147.231C74.3531 147.082 74.2272 146.902 74.143 146.692C74.1489 146.658 74.1669 146.631 74.1969 146.611C74.0866 146.561 74.0416 146.48 74.062 146.368C75.5386 144.882 77.0224 143.408 78.5132 141.944Z" fill="#FF5F71"/>
<path opacity="0.996" fill-rule="evenodd" clip-rule="evenodd" d="M99.3392 142.159C99.2375 142.585 99.1117 142.999 98.9616 143.4C95.9555 146.352 92.988 149.338 90.0592 152.357C89.6577 152.506 89.244 152.614 88.8183 152.68C88.7947 152.684 88.7766 152.675 88.7643 152.653C92.2668 149.124 95.7918 145.626 99.3392 142.159Z" fill="#801BC4"/>
<path fill-rule="evenodd" clip-rule="evenodd" d="M83.369 142.052C83.6142 142.201 83.848 142.363 84.0704 142.537C83.3123 143.349 82.521 144.123 81.6965 144.857C81.4352 144.754 81.2013 144.61 80.9951 144.426C81.0349 144.433 81.0709 144.424 81.103 144.399C81.89 143.639 82.6454 142.856 83.369 142.052Z" fill="#F73386"/>
<path fill-rule="evenodd" clip-rule="evenodd" d="M91.7318 142.429C91.3913 144.011 90.4201 144.928 88.8183 145.181C89.7696 144.203 90.7318 143.231 91.7048 142.267C91.7309 142.318 91.7398 142.372 91.7318 142.429Z" fill="#B922A2"/>
<path fill-rule="evenodd" clip-rule="evenodd" d="M84.0704 142.537C84.3087 142.617 84.5425 142.706 84.7718 142.807C84.0164 143.58 83.2611 144.354 82.5057 145.127C82.2136 145.089 81.9438 145 81.6964 144.857C82.5209 144.123 83.3123 143.349 84.0704 142.537Z" fill="#F0338B"/>
<path fill-rule="evenodd" clip-rule="evenodd" d="M84.7718 142.807C85.2156 142.898 85.6652 142.934 86.1206 142.915C86.0423 142.958 85.9524 142.985 85.8509 142.996C85.0111 143.737 84.1658 144.465 83.315 145.181C83.0348 145.198 82.765 145.18 82.5057 145.127C83.2611 144.354 84.0164 143.58 84.7718 142.807Z" fill="#EA338F"/>
<path fill-rule="evenodd" clip-rule="evenodd" d="M86.9299 142.753C86.9698 142.746 87.0058 142.755 87.0379 142.78C86.2356 143.573 85.4443 144.374 84.6639 145.181C84.2143 145.181 83.7647 145.181 83.3151 145.181C84.1659 144.465 85.0111 143.737 85.8509 142.996C85.9524 142.985 86.0423 142.958 86.1206 142.915C86.3919 142.868 86.6616 142.814 86.9299 142.753Z" fill="#DE1D88"/>
<path fill-rule="evenodd" clip-rule="evenodd" d="M78.5671 143.023C78.5946 143.187 78.6306 143.349 78.675 143.508C77.3109 144.782 75.9801 146.095 74.6825 147.447C74.6029 147.396 74.549 147.324 74.5206 147.231C74.4921 147.158 74.4831 147.086 74.4936 147.015C75.829 145.653 77.1869 144.322 78.5671 143.023Z" fill="#FF5574"/>
<path opacity="0.999" fill-rule="evenodd" clip-rule="evenodd" d="M78.6751 143.508C78.729 143.688 78.783 143.868 78.8369 144.048C78.8036 144.042 78.7766 144.024 78.756 143.994C77.4952 145.264 76.2273 146.523 74.9523 147.771C74.8233 147.696 74.7334 147.588 74.6825 147.447C75.9801 146.095 77.3109 144.782 78.6751 143.508Z" fill="#FF4E77"/>
<path opacity="0.993" fill-rule="evenodd" clip-rule="evenodd" d="M98.9615 143.4C98.8623 143.861 98.7004 144.292 98.4759 144.695C96.066 147.069 93.6741 149.461 91.3001 151.871C90.9119 152.085 90.4982 152.247 90.0592 152.357C92.988 149.338 95.9555 146.353 98.9615 143.4Z" fill="#791BC8"/>
<path fill-rule="evenodd" clip-rule="evenodd" d="M78.8369 144.048C78.9577 144.235 79.0656 144.433 79.1606 144.641C77.9396 145.835 76.7256 147.04 75.5188 148.256C75.4927 148.307 75.4837 148.361 75.4918 148.418C75.2864 148.223 75.1065 148.007 74.9523 147.771C76.2273 146.523 77.4952 145.264 78.756 143.994C78.7767 144.024 78.8036 144.042 78.8369 144.048Z" fill="#FF447B"/>
<path fill-rule="evenodd" clip-rule="evenodd" d="M79.1606 144.641C79.2631 144.756 79.353 144.882 79.4304 145.019C78.2183 146.204 77.0133 147.4 75.8155 148.607C75.7643 148.633 75.7104 148.642 75.6536 148.634C75.6003 148.564 75.5463 148.492 75.4918 148.418C75.4837 148.361 75.4927 148.307 75.5187 148.256C76.7256 147.04 77.9395 145.835 79.1606 144.641Z" fill="#FF3B7E"/>
<path opacity="0.988" fill-rule="evenodd" clip-rule="evenodd" d="M98.476 144.695C98.2676 145.238 98.0158 145.759 97.7206 146.26C96.0886 147.811 94.4789 149.394 92.8918 151.008C92.8668 151.04 92.8578 151.076 92.8648 151.116C92.3643 151.411 91.8428 151.663 91.3002 151.871C93.6741 149.461 96.066 147.069 98.476 144.695Z" fill="#731BCC"/>
<path fill-rule="evenodd" clip-rule="evenodd" d="M79.4304 145.019C79.6102 145.163 79.7721 145.325 79.916 145.505C78.7426 146.759 77.5377 147.991 76.3011 149.2C76.3417 149.237 76.3596 149.282 76.355 149.335C76.1032 149.12 75.8694 148.886 75.6536 148.634C75.7104 148.642 75.7643 148.633 75.8155 148.607C77.0133 147.4 78.2183 146.204 79.4304 145.019Z" fill="#FE3481"/>
<path opacity="0.997" fill-rule="evenodd" clip-rule="evenodd" d="M91.9476 145.289C89.4118 147.843 86.8759 150.396 84.3401 152.95C84.143 152.926 83.9451 152.908 83.7466 152.896C83.7407 152.863 83.7227 152.836 83.6927 152.815C85.8644 150.671 88.0045 148.504 90.1132 146.314C90.8084 146.11 91.4199 145.769 91.9476 145.289Z" fill="#A51DAC"/>
<path fill-rule="evenodd" clip-rule="evenodd" d="M79.916 145.505C80.1424 145.68 80.3762 145.842 80.6174 145.99C79.6391 146.995 78.65 147.994 77.6499 148.985C77.7631 148.983 77.871 148.947 77.9736 148.877C78.3461 148.638 78.7238 148.413 79.1067 148.202C78.4952 148.832 77.8837 149.461 77.2722 150.091C76.9367 149.878 76.631 149.626 76.355 149.335C76.3597 149.282 76.3417 149.237 76.3011 149.2C77.5377 147.991 78.7426 146.759 79.916 145.505Z" fill="#F62F84"/>
<path opacity="0.027" fill-rule="evenodd" clip-rule="evenodd" d="M73.6034 145.828C73.6796 145.854 73.7157 145.908 73.7117 145.991C73.6355 145.965 73.5994 145.911 73.6034 145.828Z" fill="#FFF6F6"/>
<path fill-rule="evenodd" clip-rule="evenodd" d="M80.6173 145.99C80.9816 146.177 81.3593 146.321 81.7504 146.422C80.8594 147.002 79.9781 147.596 79.1066 148.202C78.7238 148.413 78.3461 148.638 77.9736 148.877C77.871 148.947 77.7631 148.983 77.6499 148.985C78.6499 147.994 79.6391 146.995 80.6173 145.99Z" fill="#F0328B"/>
<path opacity="0.997" fill-rule="evenodd" clip-rule="evenodd" d="M90.1132 146.314C88.0046 148.504 85.8644 150.671 83.6927 152.815C83.7227 152.836 83.7407 152.863 83.7467 152.896C83.4913 152.854 83.2395 152.8 82.9913 152.734C85.0595 150.648 87.1278 148.562 89.196 146.476C89.5052 146.441 89.8109 146.388 90.1132 146.314Z" fill="#AB1CA9"/>
<path opacity="0.997" fill-rule="evenodd" clip-rule="evenodd" d="M81.8043 146.422C82.0553 146.449 82.3071 146.467 82.5597 146.476C81.1588 147.904 79.747 149.325 78.3243 150.738C78.2993 150.77 78.2903 150.806 78.2973 150.846C78.1155 150.719 77.9356 150.594 77.7578 150.468C79.1246 149.138 80.4735 147.789 81.8043 146.422Z" fill="#E31C85"/>
<path opacity="0.998" fill-rule="evenodd" clip-rule="evenodd" d="M82.5597 146.476C82.8115 146.476 83.0632 146.476 83.315 146.476C81.8017 148.043 80.255 149.572 78.675 151.062C78.5404 151.004 78.4145 150.932 78.2974 150.846C78.2903 150.806 78.2993 150.77 78.3244 150.738C79.747 149.325 81.1588 147.904 82.5597 146.476Z" fill="#DC1B89"/>
<path opacity="0.997" fill-rule="evenodd" clip-rule="evenodd" d="M83.315 146.476C83.5848 146.476 83.8546 146.476 84.1244 146.476C82.5057 148.112 80.8871 149.749 79.2685 151.386C79.0444 151.319 78.8465 151.211 78.675 151.062C80.255 149.572 81.8017 148.043 83.315 146.476Z" fill="#D71C8C"/>
<path opacity="0.996" fill-rule="evenodd" clip-rule="evenodd" d="M84.1244 146.476C84.3941 146.476 84.6639 146.476 84.9337 146.476C83.2251 148.202 81.5166 149.929 79.8081 151.655C79.6111 151.593 79.4312 151.503 79.2686 151.386C80.8872 149.749 82.5058 148.112 84.1244 146.476Z" fill="#D11B90"/>
<path opacity="0.997" fill-rule="evenodd" clip-rule="evenodd" d="M84.9336 146.476C85.2394 146.476 85.5451 146.476 85.8508 146.476C84.0723 148.281 82.2828 150.08 80.4825 151.871C80.4574 151.903 80.4484 151.939 80.4555 151.979C80.2228 151.899 80.007 151.791 79.808 151.655C81.5166 149.929 83.2251 148.202 84.9336 146.476Z" fill="#CB1B94"/>
<path opacity="0.997" fill-rule="evenodd" clip-rule="evenodd" d="M85.8509 146.476C86.1206 146.476 86.3904 146.476 86.6602 146.476C84.7871 148.403 82.8808 150.291 80.9411 152.141C80.774 152.102 80.6121 152.048 80.4555 151.979C80.4484 151.939 80.4575 151.903 80.4825 151.871C82.2828 150.08 84.0723 148.281 85.8509 146.476Z" fill="#C41B98"/>
<path opacity="0.996" fill-rule="evenodd" clip-rule="evenodd" d="M86.6602 146.476C86.9299 146.476 87.1997 146.476 87.4695 146.476C85.547 148.425 83.6137 150.368 81.6695 152.303C81.6444 152.335 81.6354 152.371 81.6425 152.411C81.4007 152.33 81.1668 152.24 80.9411 152.141C82.8808 150.291 84.7871 148.403 86.6602 146.476Z" fill="#BE1C9D"/>
<path opacity="0.998" fill-rule="evenodd" clip-rule="evenodd" d="M87.4694 146.476C87.7392 146.476 88.009 146.476 88.2787 146.476C86.2645 148.508 84.2502 150.54 82.236 152.573C82.0357 152.527 81.8379 152.473 81.6425 152.411C81.6354 152.371 81.6444 152.335 81.6694 152.303C83.6137 150.368 85.547 148.425 87.4694 146.476Z" fill="#B81BA0"/>
<path opacity="0.997" fill-rule="evenodd" clip-rule="evenodd" d="M88.2788 146.476C88.5845 146.476 88.8902 146.476 89.196 146.476C87.1278 148.562 85.0595 150.648 82.9913 152.734C82.7356 152.697 82.4839 152.644 82.236 152.573C84.2502 150.54 86.2645 148.508 88.2788 146.476Z" fill="#B11CA4"/>
<path opacity="0.939" fill-rule="evenodd" clip-rule="evenodd" d="M97.7206 146.26C96.5157 148.292 94.8971 149.911 92.8648 151.116C92.8578 151.076 92.8668 151.04 92.8918 151.008C94.4789 149.394 96.0886 147.811 97.7206 146.26Z" fill="#6E1BCF"/>
<path opacity="0.995" fill-rule="evenodd" clip-rule="evenodd" d="M81.7504 146.422C81.7683 146.422 81.7863 146.422 81.8043 146.422C80.4734 147.789 79.1246 149.138 77.7578 150.468C77.5792 150.361 77.4174 150.236 77.2722 150.091C77.8837 149.461 78.4952 148.832 79.1066 148.202C79.9781 147.596 80.8594 147.002 81.7504 146.422Z" fill="#E91C81"/>
</g>
<defs>
<linearGradient id="paint0_linear_348_1755" x1="149.833" y1="42.4965" x2="129.17" y2="61.782" gradientUnits="userSpaceOnUse">
<stop stop-color="#5BD066"/>
<stop offset="1" stop-color="#27B43E"/>
</linearGradient>
<clipPath id="clip0_348_1755">
<rect width="47.0199" height="47.0199" fill="white" transform="matrix(-1 0 0 1 67.3098 150.678)"/>
</clipPath>
<clipPath id="clip1_348_1755">
<rect width="27.6242" height="27.6242" fill="white" transform="translate(90.8195 73.0959)"/>
</clipPath>
<clipPath id="clip2_348_1755">
<rect width="27.6242" height="27.6242" fill="white" transform="translate(72.0118 125.407)"/>
</clipPath>
</defs>
</svg>
