<svg width="20.000000" height="20.000000" viewBox="0 0 20 20" fill="none" xmlns="http://www.w3.org/2000/svg" xmlns:xlink="http://www.w3.org/1999/xlink">
	<desc>
			Created with Pixso.
	</desc>
	<defs>
		<clipPath id="clip1718_2092">
			<rect id="delete-svgrepo-com (4) 1" width="20.000000" height="20.000000" fill="white" fill-opacity="0"/>
		</clipPath>
	</defs>
	<rect id="delete-svgrepo-com (4) 1" width="20.000000" height="20.000000" fill="#FFFFFF" fill-opacity="0"/>
	<g clip-path="url(#clip1718_2092)">
		<path id="Vector" d="M8.33 9.16L8.33 14.16" stroke="#B9B9B9" stroke-opacity="1.000000" stroke-width="1.000000" stroke-linejoin="round" stroke-linecap="round"/>
		<path id="Vector" d="M11.66 9.16L11.66 14.16" stroke="#B9B9B9" stroke-opacity="1.000000" stroke-width="1.000000" stroke-linejoin="round" stroke-linecap="round"/>
		<path id="Vector" d="M3.33 5.83L16.66 5.83" stroke="#B9B9B9" stroke-opacity="1.000000" stroke-width="1.000000" stroke-linejoin="round" stroke-linecap="round"/>
		<path id="Vector" d="M10 5.83L15 5.83L15 15C15 16.38 13.88 17.5 12.5 17.5L7.5 17.5C6.11 17.5 5 16.38 5 15L5 5.83L10 5.83Z" stroke="#B9B9B9" stroke-opacity="1.000000" stroke-width="1.000000" stroke-linejoin="round"/>
		<path id="Vector" d="M9.16 2.5L10.83 2.5C11.75 2.5 12.5 3.24 12.5 4.16L12.5 5.83L7.5 5.83L7.5 4.16C7.5 3.24 8.24 2.5 9.16 2.5Z" stroke="#B9B9B9" stroke-opacity="1.000000" stroke-width="1.000000" stroke-linejoin="round"/>
	</g>
</svg>
