<svg width="20" height="20" viewBox="0 0 20 20" fill="none" xmlns="http://www.w3.org/2000/svg">
<path opacity="0.968" fill-rule="evenodd" clip-rule="evenodd" d="M5.52734 1.23047C9.34246 1.22396 13.1576 1.23047 16.9727 1.25C17.507 1.39382 17.8261 1.73888 17.9297 2.28516C17.9557 7.4284 17.9557 12.5716 17.9297 17.7148C17.8221 18.2782 17.49 18.6232 16.9336 18.75C12.4284 18.7761 7.92317 18.7761 3.41797 18.75C2.66462 18.5826 2.2154 18.1204 2.07031 17.3633C2.04427 13.7175 2.04427 10.0716 2.07031 6.42578C2.22072 5.81961 2.60484 5.47457 3.22266 5.39063C3.66517 5.37109 4.10789 5.36457 4.55078 5.37109C4.54426 4.32934 4.55078 3.28768 4.57031 2.24609C4.69727 1.72212 5.01629 1.38357 5.52734 1.23047ZM5.68359 2.08984C9.38152 2.08333 13.0795 2.08984 16.7773 2.10938C16.9609 2.16291 17.0585 2.28661 17.0703 2.48047C17.0964 7.49348 17.0964 12.5065 17.0703 17.5195C17.0597 17.7124 16.962 17.8361 16.7773 17.8906C12.9232 17.9167 9.06902 17.9167 5.21484 17.8906C5.30399 17.7534 5.36258 17.6037 5.39063 17.4414C5.40363 12.4414 5.41668 7.44141 5.42969 2.44141C5.46379 2.2842 5.5484 2.16701 5.68359 2.08984ZM8.18359 5.01953C8.56141 5.01305 8.93902 5.01953 9.31641 5.03906C9.38617 5.06973 9.44477 5.11527 9.49219 5.17578C9.55535 5.57555 9.56836 5.97918 9.53125 6.38672C9.50059 6.45648 9.45504 6.51508 9.39453 6.5625C8.99477 6.62566 8.59113 6.63867 8.18359 6.60156C8.02652 6.52859 7.94192 6.40488 7.92969 6.23047C7.90363 5.95703 7.90363 5.68359 7.92969 5.41016C7.94668 5.23223 8.03133 5.10199 8.18359 5.01953ZM3.18359 6.26953C3.63933 6.26953 4.09504 6.26953 4.55078 6.26953C4.55731 9.9284 4.55078 13.5873 4.53125 17.2461C4.42442 17.6588 4.1575 17.8802 3.73047 17.9102C3.28631 17.8761 3.01938 17.6417 2.92969 17.207C2.90365 13.6654 2.90365 10.1237 2.92969 6.58203C2.97956 6.44773 3.06419 6.34356 3.18359 6.26953ZM8.18359 9.19922C8.56141 9.19273 8.93902 9.19922 9.31641 9.21875C9.38617 9.24941 9.44477 9.29496 9.49219 9.35547C9.55535 9.75523 9.56836 10.1589 9.53125 10.5664C9.50059 10.6362 9.45504 10.6948 9.39453 10.7422C8.99477 10.8054 8.59113 10.8184 8.18359 10.7813C8.02652 10.7083 7.94192 10.5846 7.92969 10.4102C7.89692 10.0695 7.90996 9.73098 7.96875 9.39453C8.03633 9.32023 8.10793 9.25512 8.18359 9.19922Z" fill="#64748B"/>
<path opacity="0.942" fill-rule="evenodd" clip-rule="evenodd" d="M8.1835 4.12092C10.0578 3.9058 10.7935 4.72612 10.3905 6.58186C10.2248 7.11217 9.86666 7.41819 9.31631 7.49983C7.53241 7.76018 6.78369 6.99846 7.07022 5.21467C7.20401 4.60561 7.5751 4.241 8.1835 4.12092ZM8.1835 5.01936C8.03123 5.10182 7.94659 5.23206 7.92959 5.40999C7.90354 5.68342 7.90354 5.95686 7.92959 6.2303C7.94182 6.40471 8.02643 6.52842 8.1835 6.60139C8.59104 6.6385 8.99467 6.62549 9.39444 6.56233C9.45495 6.51491 9.50049 6.45631 9.53116 6.38655C9.56827 5.97901 9.55526 5.57538 9.49209 5.17561C9.44467 5.1151 9.38608 5.06956 9.31631 5.03889C8.93893 5.01936 8.56131 5.01288 8.1835 5.01936Z" fill="#64748B"/>
<path opacity="0.957" fill-rule="evenodd" clip-rule="evenodd" d="M11.5041 4.55079C12.7281 4.54426 13.9521 4.55079 15.176 4.57032C15.4666 4.7509 15.5252 4.99176 15.3517 5.29297C15.3165 5.33989 15.2709 5.37247 15.215 5.39063C13.965 5.41669 12.715 5.41669 11.465 5.39063C11.297 5.31504 11.2189 5.18485 11.2307 5.00001C11.2289 4.7879 11.32 4.63817 11.5041 4.55079Z" fill="#64748B"/>
<path opacity="0.947" fill-rule="evenodd" clip-rule="evenodd" d="M11.5039 6.23047C12.1681 6.22395 12.8322 6.23047 13.4961 6.25001C13.7329 6.36575 13.8175 6.55458 13.75 6.81641C13.7175 6.95313 13.6328 7.03778 13.4961 7.07032C12.832 7.09637 12.168 7.09637 11.5039 7.07032C11.3209 6.99778 11.2297 6.86106 11.2305 6.66016C11.2345 6.45586 11.3256 6.31262 11.5039 6.23047Z" fill="#64748B"/>
<path opacity="0.943" fill-rule="evenodd" clip-rule="evenodd" d="M8.14445 8.30077C8.54831 8.29429 8.95195 8.30077 9.35538 8.3203C9.83288 8.40608 10.1649 8.673 10.3515 9.12108C10.8215 11.1509 10.0338 11.9907 7.9882 11.6406C7.24363 11.3501 6.93113 10.8033 7.0507 9.99999C6.94281 9.11452 7.30738 8.54811 8.14445 8.30077ZM8.18351 9.19921C8.10784 9.25511 8.03624 9.32022 7.96866 9.39452C7.90988 9.73097 7.89683 10.0695 7.9296 10.4101C7.94183 10.5846 8.02644 10.7083 8.18351 10.7812C8.59105 10.8183 8.99468 10.8053 9.39445 10.7422C9.45495 10.6948 9.5005 10.6362 9.53116 10.5664C9.56827 10.1589 9.55527 9.75522 9.4921 9.35546C9.44468 9.29495 9.38609 9.2494 9.31632 9.21874C8.93894 9.19921 8.56132 9.19272 8.18351 9.19921Z" fill="#64748B"/>
<path opacity="0.957" fill-rule="evenodd" clip-rule="evenodd" d="M11.4649 8.73047C12.715 8.72395 13.965 8.73047 15.2149 8.75001C15.3125 8.79559 15.3841 8.86719 15.4297 8.96485C15.4558 9.09504 15.4558 9.22528 15.4297 9.35547C15.3841 9.45313 15.3125 9.52473 15.2149 9.57032C13.9649 9.59637 12.7149 9.59637 11.4649 9.57032C11.2065 9.4202 11.1349 9.20536 11.25 8.92579C11.3176 8.85149 11.3892 8.78637 11.4649 8.73047Z" fill="#64748B"/>
<path opacity="0.95" fill-rule="evenodd" clip-rule="evenodd" d="M11.4648 10.4102C12.155 10.4036 12.8451 10.4102 13.5351 10.4297C13.7542 10.5577 13.8258 10.7465 13.75 10.9961C13.7174 11.1328 13.6328 11.2175 13.4961 11.25C12.845 11.2761 12.194 11.2761 11.5429 11.25C11.2217 11.0906 11.1501 10.8497 11.3281 10.5273C11.3874 10.5015 11.433 10.4624 11.4648 10.4102Z" fill="#64748B"/>
<path opacity="0.94" fill-rule="evenodd" clip-rule="evenodd" d="M9.82418 12.9099C10.2974 12.8686 10.4863 13.0769 10.3906 13.5349C9.81231 14.1523 9.21985 14.7578 8.61325 15.3513C8.44997 15.457 8.28071 15.47 8.10543 15.3904C7.7734 15.0584 7.44137 14.7263 7.10934 14.3943C6.96954 14.0227 7.09325 13.8013 7.48043 13.7302C7.61469 13.7323 7.73188 13.7778 7.832 13.8669C7.98825 14.0232 8.1445 14.1794 8.30075 14.3357C8.3268 14.3618 8.35282 14.3618 8.37887 14.3357C8.85653 13.8515 9.33832 13.3762 9.82418 12.9099Z" fill="#64748B"/>
<path opacity="0.957" fill-rule="evenodd" clip-rule="evenodd" d="M11.4649 12.9102C12.7019 12.9036 13.9389 12.9102 15.1758 12.9297C15.4342 13.0798 15.5058 13.2947 15.3907 13.5742C15.3304 13.6476 15.2588 13.7062 15.1758 13.75C13.9519 13.7761 12.7279 13.7761 11.504 13.75C11.2133 13.5694 11.1547 13.3286 11.3282 13.0273C11.3729 12.983 11.4185 12.9439 11.4649 12.9102Z" fill="#64748B"/>
<path opacity="0.919" fill-rule="evenodd" clip-rule="evenodd" d="M11.6213 14.551C12.2615 14.5338 12.8996 14.5533 13.5354 14.6095C13.7443 14.7412 13.8159 14.93 13.7502 15.176C13.6882 15.3031 13.5905 15.3878 13.4572 15.4299C12.8192 15.4559 12.1812 15.4559 11.5432 15.4299C11.2329 15.2926 11.1482 15.0647 11.2893 14.7463C11.3829 14.6444 11.4936 14.5793 11.6213 14.551Z" fill="#64748B"/>
</svg>
