<svg width="45" height="45" viewBox="0 0 45 45" fill="none" xmlns="http://www.w3.org/2000/svg">
<g clip-path="url(#clip0_1914_996)">
<path opacity="0.997" fill-rule="evenodd" clip-rule="evenodd" d="M20.4346 -0.0439453C21.4306 -0.0439453 22.4268 -0.0439453 23.4229 -0.0439453C15.603 7.74664 7.78069 15.5396 -0.0439453 23.335C-0.0439453 22.3682 -0.0439453 21.4014 -0.0439453 20.4346C0.175735 18.3251 0.673782 16.2744 1.4502 14.2822C5.75684 10.0342 10.0342 5.75684 14.2822 1.4502C16.2743 0.673806 18.325 0.175758 20.4346 -0.0439453Z" fill="#21CAF6"/>
<path opacity="0.998" fill-rule="evenodd" clip-rule="evenodd" d="M23.4229 -0.0439453C23.7744 -0.0439453 24.126 -0.0439453 24.4775 -0.0439453C25.983 0.134067 27.4772 0.427036 28.96 0.834961C19.6143 10.2393 10.2393 19.6143 0.834961 28.96C0.427036 27.4772 0.134067 25.983 -0.0439453 24.4775C-0.0439453 24.0967 -0.0439453 23.7158 -0.0439453 23.335C7.78069 15.5396 15.603 7.74664 23.4229 -0.0439453Z" fill="#21C4F6"/>
<path opacity="0.999" fill-rule="evenodd" clip-rule="evenodd" d="M28.96 0.834961C30.5744 1.32029 32.0978 1.99412 33.5303 2.85645C30.6959 5.55892 27.898 8.31283 25.1367 11.1182C25.0959 11.1704 25.0813 11.229 25.0928 11.2939C22.3759 10.0238 20.0761 10.5511 18.1934 12.876C17.1256 14.6388 17.0816 16.4259 18.0615 18.2373C12.9639 23.3057 7.86621 28.374 2.76855 33.4424C1.95619 32.0225 1.31165 30.5284 0.834961 28.96C10.2393 19.6143 19.6143 10.2393 28.96 0.834961Z" fill="#21BEF6"/>
<path opacity="0.979" fill-rule="evenodd" clip-rule="evenodd" d="M14.2822 1.4502C10.0342 5.75684 5.75684 10.0342 1.4502 14.2822C3.45401 9.18712 6.85245 5.30525 11.6455 2.63672C12.4951 2.16784 13.374 1.77233 14.2822 1.4502Z" fill="#21CFF7"/>
<path opacity="0.998" fill-rule="evenodd" clip-rule="evenodd" d="M33.5302 2.85645C34.9432 3.59196 36.2323 4.50016 37.3974 5.58105C37.3049 5.56791 37.217 5.58257 37.1337 5.625C34.2112 8.59146 31.2523 11.5065 28.2567 14.3701C27.7522 13.8945 27.2542 13.4258 26.7626 12.9639C26.2914 12.3169 25.7348 11.7603 25.0927 11.2939C25.0812 11.229 25.0958 11.1704 25.1366 11.1182C27.8979 8.31283 30.6958 5.55892 33.5302 2.85645Z" fill="#21B8F5"/>
<path opacity="0.997" fill-rule="evenodd" clip-rule="evenodd" d="M37.3975 5.58108C38.7627 6.74037 39.9345 8.05873 40.9131 9.53615C37.9761 12.3412 35.0757 15.1976 32.2119 18.1055C32.1597 18.1463 32.1011 18.1609 32.0361 18.1494C31.8017 17.9444 31.5674 17.7392 31.333 17.5342C30.3076 16.4795 29.2823 15.4248 28.2568 14.3701C31.2524 11.5065 34.2113 8.59148 37.1338 5.62502C37.2171 5.58259 37.305 5.56794 37.3975 5.58108Z" fill="#21B1F4"/>
<path opacity="0.998" fill-rule="evenodd" clip-rule="evenodd" d="M40.9131 9.53613C41.8826 10.8613 42.6736 12.2969 43.2861 13.8428C43.205 13.7722 43.1171 13.7575 43.0225 13.7988C40.4809 16.3845 37.9027 18.9186 35.2881 21.4014C35.2295 21.3721 35.1709 21.3427 35.1123 21.3135C34.5263 20.669 33.9111 20.0537 33.2666 19.4678C32.8564 19.0283 32.4463 18.5889 32.0361 18.1494C32.1011 18.1609 32.1597 18.1462 32.2119 18.1055C35.0757 15.1976 37.9761 12.3412 40.9131 9.53613Z" fill="#21ABF4"/>
<path fill-rule="evenodd" clip-rule="evenodd" d="M25.0928 11.2939C25.7349 11.7602 26.2915 12.3169 26.7627 12.9638C27.8851 14.9827 27.7825 16.9455 26.4551 18.8525C24.4978 20.9129 22.2566 21.2937 19.7315 19.9951C19.0562 19.5248 18.4996 18.9389 18.0615 18.2373C17.0816 16.4258 17.1256 14.6387 18.1934 12.8759C20.0761 10.551 22.3759 10.0237 25.0928 11.2939Z" fill="#FEFEFE"/>
<path opacity="0.998" fill-rule="evenodd" clip-rule="evenodd" d="M43.2861 13.8428C43.9165 15.3093 44.3559 16.8327 44.6045 18.4131C44.6176 18.5056 44.603 18.5935 44.5605 18.6768C42.5653 20.6867 40.5584 22.6789 38.54 24.6534C38.5108 24.6534 38.4814 24.6534 38.4521 24.6534C37.9541 24.0967 37.4267 23.5694 36.8701 23.0713C36.3428 22.5147 35.8154 21.958 35.2881 21.4014C37.9027 18.9187 40.4809 16.3845 43.0225 13.7989C43.1171 13.7576 43.205 13.7722 43.2861 13.8428Z" fill="#21A5F3"/>
<path fill-rule="evenodd" clip-rule="evenodd" d="M26.7627 12.9639C27.2544 13.4258 27.7523 13.8945 28.2568 14.3701C29.2823 15.4248 30.3076 16.4795 31.333 17.5342C29.7802 19.1162 28.2276 20.6982 26.6748 22.2803C25.0102 22.1202 23.3403 22.0616 21.665 22.1045C21.009 21.4044 20.3352 20.716 19.6436 20.0391C19.6636 20.004 19.6929 19.9894 19.7314 19.9951C22.2566 21.2938 24.4978 20.913 26.4551 18.8525C27.7825 16.9456 27.8851 14.9827 26.7627 12.9639Z" fill="#1B7EC2"/>
<path fill-rule="evenodd" clip-rule="evenodd" d="M31.333 17.5342C31.5674 17.7392 31.8017 17.9444 32.0361 18.1494C32.4463 18.5889 32.8564 19.0283 33.2666 19.4678C33.2781 19.5327 33.2634 19.5913 33.2227 19.6436C31.9012 20.9503 30.5975 22.2687 29.3115 23.5986C28.4782 23.0648 27.5993 22.6253 26.6748 22.2803C28.2276 20.6982 29.7802 19.1162 31.333 17.5342Z" fill="#1C85CB"/>
<path opacity="0.999" fill-rule="evenodd" clip-rule="evenodd" d="M18.0615 18.2373C18.4996 18.9389 19.0562 19.5248 19.7314 19.9951C19.6929 19.9894 19.6636 20.004 19.6436 20.0391C20.3352 20.716 21.009 21.4044 21.665 22.1045C18.7603 21.749 16.3433 22.6571 14.4141 24.8291C13.2757 26.3349 12.7629 28.0341 12.876 29.9268C10.3858 32.3584 7.92481 34.8194 5.49316 37.3096C4.45109 36.12 3.54289 34.831 2.76855 33.4424C7.86621 28.374 12.9639 23.3057 18.0615 18.2373Z" fill="#22B8F5"/>
<path opacity="0.996" fill-rule="evenodd" clip-rule="evenodd" d="M44.6045 18.4131C44.7432 19.0836 44.8604 19.7574 44.9561 20.4346C44.9561 21.7822 44.9561 23.1299 44.9561 24.4775C44.8716 24.6327 44.8422 24.8084 44.8682 25.0049C44.8032 24.9934 44.7446 25.008 44.6924 25.0488C43.7372 26.0187 42.7704 26.9709 41.792 27.9053C41.2642 27.3482 40.7076 26.8209 40.1221 26.3232C39.5947 25.7666 39.0674 25.2099 38.54 24.6533C40.5584 22.6789 42.5653 20.6866 44.5605 18.6768C44.603 18.5934 44.6176 18.5055 44.6045 18.4131Z" fill="#219FF3"/>
<path fill-rule="evenodd" clip-rule="evenodd" d="M33.2666 19.4678C33.9111 20.0537 34.5263 20.669 35.1123 21.3135C35.1047 21.401 35.1341 21.4742 35.2002 21.5332C33.8348 22.9133 32.4579 24.2756 31.0693 25.6201C30.5516 24.8965 29.9656 24.2227 29.3115 23.5986C30.5975 22.2687 31.9012 20.9503 33.2227 19.6436C33.2634 19.5913 33.2781 19.5327 33.2666 19.4678Z" fill="#1D8AD1"/>
<path fill-rule="evenodd" clip-rule="evenodd" d="M35.1123 21.3135C35.1709 21.3427 35.2295 21.3721 35.2881 21.4014C35.8154 21.958 36.3428 22.5147 36.8701 23.0713C35.2836 24.7457 33.643 26.3571 31.9482 27.9053C31.7096 27.1319 31.4166 26.3702 31.0693 25.6201C32.4579 24.2756 33.8348 22.9133 35.2002 21.5332C35.1341 21.4742 35.1047 21.401 35.1123 21.3135Z" fill="#1D8ED7"/>
<path fill-rule="evenodd" clip-rule="evenodd" d="M21.665 22.1044C23.3403 22.0615 25.0102 22.1202 26.6747 22.2802C27.5993 22.6253 28.4782 23.0647 29.3115 23.5986C29.9655 24.2227 30.5515 24.8965 31.0693 25.6201C31.4165 26.3701 31.7096 27.1319 31.9482 27.9052C32.0253 29.0459 32.0546 30.1884 32.0361 31.3329C31.8283 33.1228 30.8322 34.1189 29.0478 34.3212C27.9052 34.3212 26.7626 34.3212 25.62 34.3212C24.5361 34.3212 23.4521 34.3212 22.3681 34.3212C19.9949 34.3359 17.6218 34.3212 15.249 34.2773C14.9834 34.1736 14.7198 34.0711 14.4579 33.9697C13.6198 33.4385 13.1071 32.6768 12.9199 31.6845C12.8759 31.0993 12.8613 30.5134 12.8759 29.9267C12.7629 28.0341 13.2756 26.3349 14.414 24.829C16.3433 22.6571 18.7603 21.7489 21.665 22.1044Z" fill="#FEFEFE"/>
<path fill-rule="evenodd" clip-rule="evenodd" d="M36.8701 23.0713C37.4267 23.5694 37.9541 24.0967 38.4521 24.6533C38.4446 24.7409 38.4739 24.8141 38.54 24.873C36.3836 27.0441 34.2157 29.1974 32.0361 31.333C32.0547 30.1885 32.0254 29.0459 31.9482 27.9053C33.643 26.3571 35.2836 24.7457 36.8701 23.0713Z" fill="#1D91DE"/>
<path fill-rule="evenodd" clip-rule="evenodd" d="M38.4521 24.6533C38.4814 24.6533 38.5108 24.6533 38.54 24.6533C39.0674 25.2099 39.5947 25.7666 40.1221 26.3232C34.585 31.8896 29.0479 37.4561 23.5107 43.0225C22.9541 42.5244 22.4268 41.997 21.9287 41.4404C24.331 39.0967 26.7041 36.7236 29.0479 34.3213C30.8323 34.119 31.8284 33.1228 32.0361 31.333C34.2157 29.1974 36.3836 27.0441 38.54 24.873C38.4739 24.8141 38.4446 24.7409 38.4521 24.6533Z" fill="#1F94E3"/>
<path opacity="0.992" fill-rule="evenodd" clip-rule="evenodd" d="M44.8682 25.0049C43.79 32.6595 39.9228 38.4163 33.2666 42.2754C31.0769 43.4399 28.7624 44.2456 26.3232 44.6924C26.3232 44.6045 26.3232 44.5166 26.3232 44.4287C26.4157 44.4418 26.5036 44.4272 26.5869 44.3848C31.8311 39.1406 37.0752 33.8965 42.3193 28.6524C42.1535 28.3931 41.9777 28.144 41.792 27.9053C42.7704 26.9709 43.7372 26.0187 44.6924 25.0488C44.7446 25.0081 44.8032 24.9934 44.8682 25.0049Z" fill="#2098F1"/>
<path fill-rule="evenodd" clip-rule="evenodd" d="M40.1221 26.3232C40.7076 26.8209 41.2642 27.3482 41.792 27.9053C41.9777 28.144 42.1535 28.3931 42.3193 28.6523C37.0752 33.8965 31.8311 39.1406 26.5869 44.3848C26.5036 44.4272 26.4157 44.4418 26.3232 44.4287C26.3232 44.5166 26.3232 44.6045 26.3232 44.6924C25.6932 44.76 25.078 44.8479 24.4775 44.9561C24.2431 44.9561 24.0088 44.9561 23.7744 44.9561C24.0631 44.726 24.3268 44.4623 24.5654 44.165C24.1944 43.8053 23.8429 43.4245 23.5107 43.0225C29.0479 37.4561 34.585 31.8896 40.1221 26.3232Z" fill="#1F96EB"/>
<path opacity="0.997" fill-rule="evenodd" clip-rule="evenodd" d="M12.876 29.9268C12.8614 30.5134 12.876 31.0994 12.9199 31.6846C13.1072 32.6769 13.6199 33.4386 14.458 33.9697C14.7466 34.288 15.0395 34.6102 15.3369 34.9365C13.4357 36.8817 11.5167 38.8153 9.58008 40.7373C9.5393 40.7895 9.52462 40.8481 9.53613 40.9131C8.02929 39.9051 6.68164 38.7039 5.49316 37.3096C7.92481 34.8194 10.3858 32.3584 12.876 29.9268Z" fill="#21B2F4"/>
<path fill-rule="evenodd" clip-rule="evenodd" d="M14.458 33.9697C14.7198 34.0712 14.9835 34.1736 15.249 34.2773C17.6219 34.3213 19.9949 34.336 22.3682 34.3213C21.1377 35.6104 19.878 36.8701 18.5889 38.1006C17.5049 37.0459 16.4209 35.9912 15.3369 34.9365C15.0395 34.6102 14.7466 34.288 14.458 33.9697Z" fill="#1C89D1"/>
<path fill-rule="evenodd" clip-rule="evenodd" d="M22.3682 34.3213C23.4521 34.3213 24.5362 34.3213 25.6201 34.3213C23.8654 36.12 22.0929 37.9071 20.3027 39.6826C20.2438 39.6165 20.1705 39.5872 20.083 39.5947C19.5849 39.126 19.0869 38.6572 18.5889 38.1885C18.5889 38.1592 18.5889 38.1299 18.5889 38.1006C19.878 36.8701 21.1377 35.6104 22.3682 34.3213Z" fill="#1D8ED7"/>
<path fill-rule="evenodd" clip-rule="evenodd" d="M25.6201 34.3213C26.7627 34.3213 27.9053 34.3213 29.0479 34.3213C26.7041 36.7236 24.331 39.0967 21.9287 41.4404C21.8701 41.4112 21.8116 41.3818 21.7529 41.3525C21.1963 40.7666 20.6396 40.1807 20.083 39.5947C20.1705 39.5872 20.2438 39.6165 20.3027 39.6826C22.0929 37.9071 23.8654 36.12 25.6201 34.3213Z" fill="#1D91DE"/>
<path opacity="0.997" fill-rule="evenodd" clip-rule="evenodd" d="M15.3368 34.9365C16.4208 35.9912 17.5048 37.0459 18.5888 38.1006C18.5888 38.1299 18.5888 38.1592 18.5888 38.1885C16.9457 39.8608 15.3051 41.5307 13.6669 43.1982C12.193 42.5936 10.8161 41.8318 9.53602 40.9131C9.52451 40.8481 9.53919 40.7895 9.57997 40.7373C11.5166 38.8153 13.4356 36.8817 15.3368 34.9365Z" fill="#21ABF4"/>
<path opacity="0.996" fill-rule="evenodd" clip-rule="evenodd" d="M18.5889 38.1885C19.0869 38.6572 19.5849 39.126 20.083 39.5947C20.6396 40.1807 21.1963 40.7666 21.7529 41.3525C21.7644 41.4175 21.7498 41.4761 21.709 41.5283C20.6512 42.5714 19.6111 43.6261 18.5889 44.6924C16.8837 44.3836 15.243 43.8855 13.667 43.1982C15.3052 41.5307 16.9458 39.8608 18.5889 38.1885Z" fill="#21A5F3"/>
<path opacity="0.993" fill-rule="evenodd" clip-rule="evenodd" d="M21.7529 41.3525C21.8116 41.3818 21.8701 41.4112 21.9287 41.4404C22.4268 41.997 22.9541 42.5244 23.5107 43.0225C23.8429 43.4245 24.1944 43.8053 24.5654 44.165C24.3268 44.4623 24.0631 44.726 23.7744 44.9561C22.6611 44.9561 21.5479 44.9561 20.4346 44.9561C19.8341 44.8479 19.2189 44.76 18.5889 44.6924C19.6111 43.6261 20.6512 42.5714 21.709 41.5283C21.7498 41.4761 21.7644 41.4175 21.7529 41.3525Z" fill="#21A0F3"/>
</g>
<defs>
<clipPath id="clip0_1914_996">
<rect width="45" height="45" fill="white"/>
</clipPath>
</defs>
</svg>
