<svg width="40" height="40" viewBox="0 0 40 40" fill="none" xmlns="http://www.w3.org/2000/svg">
<path d="M34.3477 40H5.65203C4.93195 40 4.34766 39.4157 4.34766 38.6956V1.30437C4.34766 0.584297 4.93195 0 5.65203 0H23.9129C24.2585 0 24.5905 0.137578 24.8351 0.382188L35.2698 10.817C35.5145 11.0615 35.652 11.3934 35.652 11.7391V38.6956C35.652 39.4157 35.0677 40 34.3477 40Z" fill="#167EE6"/>
<path d="M24.8352 0.382188C24.5907 0.137578 24.2587 0 23.913 0H20V40H34.3478C35.0679 40 35.6522 39.4157 35.6522 38.6956V11.7391C35.6522 11.3935 35.5146 11.0615 35.27 10.817L24.8352 0.382188Z" fill="#2860CC"/>
<path d="M35.2705 10.8171L24.8354 0.382188C24.5908 0.1375 24.2589 0 23.9129 0H22.6089L22.609 11.7391C22.609 12.4595 23.193 13.0435 23.9133 13.0435H35.6524V11.7391C35.6524 11.3933 35.515 11.0616 35.2705 10.8171Z" fill="#167EE6"/>
<path d="M21.3042 32.1739H10.8693C10.1492 32.1739 9.56494 31.5896 9.56494 30.8696C9.56494 30.1495 10.1492 29.5652 10.8693 29.5652H21.3041C22.0242 29.5652 22.6085 30.1495 22.6085 30.8696C22.6085 31.5897 22.0242 32.1739 21.3042 32.1739Z" fill="white"/>
<path d="M21.3044 29.5652H20V32.1739H21.3044C22.0245 32.1739 22.6087 31.5896 22.6087 30.8695C22.6087 30.1494 22.0245 29.5652 21.3044 29.5652Z" fill="#E6F3FF"/>
<path d="M29.1303 26.9564H10.8693C10.1492 26.9564 9.56494 26.3721 9.56494 25.652C9.56494 24.932 10.1492 24.3477 10.8693 24.3477H29.1303C29.8503 24.3477 30.4346 24.932 30.4346 25.652C30.4346 26.3722 29.8503 26.9564 29.1303 26.9564Z" fill="white"/>
<path d="M29.1305 24.3479H20V26.9566H29.1305C29.8505 26.9566 30.4348 26.3723 30.4348 25.6522C30.4348 24.9322 29.8505 24.3479 29.1305 24.3479Z" fill="#E6F3FF"/>
<path d="M29.1303 21.7391H10.8693C10.1492 21.7391 9.56494 21.1548 9.56494 20.4347C9.56494 19.7147 10.1492 19.1304 10.8693 19.1304H29.1303C29.8503 19.1304 30.4346 19.7147 30.4346 20.4347C30.4346 21.1548 29.8503 21.7391 29.1303 21.7391Z" fill="white"/>
<path d="M29.1305 19.1304H20V21.739H29.1305C29.8505 21.739 30.4348 21.1547 30.4348 20.4347C30.4348 19.7146 29.8505 19.1304 29.1305 19.1304Z" fill="#E6F3FF"/>
</svg>
