<svg width="30" height="30" viewBox="0 0 30 30" fill="none" xmlns="http://www.w3.org/2000/svg">
<path d="M15 21.25V21.875V22.5" stroke="#5C5C5C" stroke-width="1.5" stroke-linecap="round"/>
<path d="M15 7.5V8.125V8.75" stroke="#5C5C5C" stroke-width="1.5" stroke-linecap="round"/>
<path d="M18.75 11.875C18.75 10.1491 17.0711 8.75 15 8.75C12.9289 8.75 11.25 10.1491 11.25 11.875C11.25 13.6009 12.9289 15 15 15C17.0711 15 18.75 16.3991 18.75 18.125C18.75 19.8509 17.0711 21.25 15 21.25C12.9289 21.25 11.25 19.8509 11.25 18.125" stroke="#5C5C5C" stroke-width="1.5" stroke-linecap="round"/>
<path d="M8.75 4.17227C10.5886 3.10871 12.7232 2.5 15 2.5C21.9035 2.5 27.5 8.09644 27.5 15C27.5 21.9035 21.9035 27.5 15 27.5C8.09644 27.5 2.5 21.9035 2.5 15C2.5 12.7232 3.10871 10.5886 4.17227 8.75" stroke="#5C5C5C" stroke-width="1.5" stroke-linecap="round"/>
</svg>
