<svg width="50" height="50" viewBox="0 0 50 50" fill="none" xmlns="http://www.w3.org/2000/svg">
<path opacity="0.97" fill-rule="evenodd" clip-rule="evenodd" d="M26.9043 1.80636C26.1625 2.22278 25.4464 2.67852 24.7559 3.17355C22.5274 3.46532 21.3067 4.73486 21.0938 6.98214C21.0449 8.5443 21.0286 10.1068 21.0449 11.6696C20.5241 11.6696 20.0032 11.6696 19.4824 11.6696C19.4661 9.74879 19.4824 7.82821 19.5313 5.90792C20.0173 3.71379 21.3357 2.29777 23.4863 1.65987C24.6406 1.43121 25.7799 1.48004 26.9043 1.80636Z" fill="#F07FB6"/>
<path opacity="0.989" fill-rule="evenodd" clip-rule="evenodd" d="M34.3262 11.67C34.3262 13.493 34.3262 15.3158 34.3262 17.1388C33.8054 17.1388 33.2845 17.1388 32.7637 17.1388C32.7637 15.3158 32.7637 13.493 32.7637 11.67C32.78 10.1072 32.7637 8.54469 32.7149 6.98253C32.4889 4.68957 31.2357 3.42004 28.9551 3.17393C28.6711 3.06953 28.3781 3.05325 28.0762 3.1251C27.6397 3.22983 27.249 3.40886 26.9043 3.66221C25.9434 4.24807 25.3411 5.09443 25.0977 6.20128C24.9621 8.0209 24.9133 9.84385 24.9512 11.67C24.9512 13.493 24.9512 15.3158 24.9512 17.1388C24.4304 17.1388 23.9095 17.1388 23.3887 17.1388C23.3887 15.3158 23.3887 13.493 23.3887 11.67C23.3724 9.74918 23.3887 7.8286 23.4375 5.90831C23.5613 5.40669 23.724 4.91841 23.9258 4.44346C24.2045 4.01473 24.4812 3.59156 24.7559 3.17393C25.4464 2.6789 26.1625 2.22317 26.9043 1.80675C29.8777 0.968777 32.1726 1.84768 33.7891 4.44346C33.9908 4.91841 34.1535 5.40669 34.2774 5.90831C34.3262 7.8286 34.3425 9.74918 34.3262 11.67ZM28.9551 3.17393C31.2357 3.42004 32.4889 4.68957 32.7149 6.98253C32.7637 8.54469 32.78 10.1072 32.7637 11.67C31.9824 11.67 31.2012 11.67 30.4199 11.67C30.4362 9.74918 30.4199 7.8286 30.3711 5.90831C30.1797 4.84172 29.7077 3.93026 28.9551 3.17393ZM26.9043 3.66221C27.8652 4.24807 28.4675 5.09443 28.711 6.20128C28.8465 8.0209 28.8953 9.84385 28.8574 11.67C27.5554 11.67 26.2532 11.67 24.9512 11.67C24.9133 9.84385 24.9621 8.0209 25.0977 6.20128C25.3411 5.09443 25.9434 4.24807 26.9043 3.66221Z" fill="#F07FB6"/>
<path opacity="0.977" fill-rule="evenodd" clip-rule="evenodd" d="M28.9551 3.17382C29.7077 3.93015 30.1797 4.8416 30.3711 5.9082C30.4199 7.82849 30.4362 9.74907 30.4199 11.6699C29.8991 11.6699 29.3782 11.6699 28.8574 11.6699C28.8953 9.84374 28.8465 8.02078 28.7109 6.20116C28.4675 5.09432 27.8652 4.24796 26.9043 3.6621C27.249 3.40875 27.6396 3.22972 28.0762 3.12499C28.3781 3.05314 28.6711 3.06942 28.9551 3.17382Z" fill="#EA4B98"/>
<path fill-rule="evenodd" clip-rule="evenodd" d="M10.8887 11.6699C10.8887 16.3574 10.8887 21.0449 10.8887 25.7324C11.4095 25.7324 11.9304 25.7324 12.4512 25.7324C12.4512 21.0449 12.4512 16.3574 12.4512 11.6699C12.972 11.6699 13.4929 11.6699 14.0137 11.6699C16.3214 23.2088 18.5675 34.7648 20.752 46.3379C18.0206 44.0601 15.2862 41.7813 12.5488 39.502C12.4512 36.7358 12.4187 33.9688 12.4512 31.2012C11.9304 31.2012 11.4095 31.2012 10.8887 31.2012C10.905 33.9683 10.8887 36.7353 10.8398 39.502C8.09547 41.8405 5.31227 44.1191 2.49023 46.3379C4.76789 34.7878 7.01398 23.2318 9.22852 11.6699C9.78193 11.6699 10.3353 11.6699 10.8887 11.6699Z" fill="#EA4B98" fill-opacity="0.71"/>
<path fill-rule="evenodd" clip-rule="evenodd" d="M10.8887 11.6699C11.4095 11.6699 11.9304 11.6699 12.4512 11.6699C12.4512 16.3574 12.4512 21.0449 12.4512 25.7324C11.9304 25.7324 11.4095 25.7324 10.8887 25.7324C10.8887 21.0449 10.8887 16.3574 10.8887 11.6699Z" fill="#EA4B98"/>
<path opacity="0.999" fill-rule="evenodd" clip-rule="evenodd" d="M14.0137 11.6699C15.8366 11.6699 17.6595 11.6699 19.4824 11.6699C20.0032 11.6699 20.5241 11.6699 21.0449 11.6699C21.8262 11.6699 22.6074 11.6699 23.3887 11.6699C23.3887 13.4929 23.3887 15.3157 23.3887 17.1387C22.8679 17.1387 22.347 17.1387 21.8262 17.1387C21.8262 17.6595 21.8262 18.1804 21.8262 18.7012C23.3887 18.7012 24.9512 18.7012 26.5137 18.7012C26.5137 18.1804 26.5137 17.6595 26.5137 17.1387C25.9929 17.1387 25.472 17.1387 24.9512 17.1387C24.9512 15.3157 24.9512 13.4929 24.9512 11.6699C26.2532 11.6699 27.5554 11.6699 28.8574 11.6699C29.3782 11.6699 29.8991 11.6699 30.4199 11.6699C31.2012 11.6699 31.9824 11.6699 32.7637 11.6699C32.7637 13.4929 32.7637 15.3157 32.7637 17.1387C32.2429 17.1387 31.722 17.1387 31.2012 17.1387C31.2012 17.6595 31.2012 18.1804 31.2012 18.7012C32.7637 18.7012 34.3262 18.7012 35.8887 18.7012C35.8887 18.1804 35.8887 17.6595 35.8887 17.1387C35.3679 17.1387 34.847 17.1387 34.3262 17.1387C34.3262 15.3157 34.3262 13.4929 34.3262 11.6699C36.4421 11.6699 38.5579 11.6699 40.6738 11.6699C42.9851 23.6491 45.2962 35.6282 47.6074 47.6074C38.7532 47.6074 29.8991 47.6074 21.0449 47.6074C21.0076 47.159 20.91 46.7358 20.752 46.3379C18.5675 34.7648 16.3214 23.2088 14.0137 11.6699Z" fill="#EA4B98"/>
<path fill-rule="evenodd" clip-rule="evenodd" d="M23.3887 17.1387C23.9095 17.1387 24.4304 17.1387 24.9512 17.1387C25.472 17.1387 25.9929 17.1387 26.5137 17.1387C26.5137 17.6595 26.5137 18.1804 26.5137 18.7012C24.9512 18.7012 23.3887 18.7012 21.8262 18.7012C21.8262 18.1804 21.8262 17.6595 21.8262 17.1387C22.347 17.1387 22.8679 17.1387 23.3887 17.1387Z" fill="#F07FB6"/>
<path fill-rule="evenodd" clip-rule="evenodd" d="M32.7637 17.1387C33.2845 17.1387 33.8054 17.1387 34.3262 17.1387C34.847 17.1387 35.3679 17.1387 35.8887 17.1387C35.8887 17.6595 35.8887 18.1804 35.8887 18.7012C34.3262 18.7012 32.7637 18.7012 31.2012 18.7012C31.2012 18.1804 31.2012 17.6595 31.2012 17.1387C31.722 17.1387 32.2429 17.1387 32.7637 17.1387Z" fill="#F07FB6"/>
<path fill-rule="evenodd" clip-rule="evenodd" d="M31.2988 23.3883C33.7812 23.2834 35.0344 24.4553 35.0586 26.9039C34.7283 28.6818 33.6541 29.5932 31.8359 29.6383C29.9301 29.3921 28.9372 28.3016 28.8574 26.3668C29.015 24.8285 29.8288 23.8357 31.2988 23.3883Z" fill="white"/>
<path fill-rule="evenodd" clip-rule="evenodd" d="M10.8887 27.2949C11.4095 27.2949 11.9304 27.2949 12.4512 27.2949C12.4512 27.8157 12.4512 28.3366 12.4512 28.8574C11.9304 28.8574 11.4095 28.8574 10.8887 28.8574C10.8887 28.3366 10.8887 27.8157 10.8887 27.2949Z" fill="#EA4B98"/>
<path fill-rule="evenodd" clip-rule="evenodd" d="M20.752 46.3379C20.91 46.7358 21.0076 47.159 21.0449 47.6074C20.6218 47.6074 20.1985 47.6074 19.7754 47.6074C17.1063 45.3297 14.4046 43.0836 11.6699 40.8691C8.93529 43.0836 6.23347 45.3297 3.56445 47.6074C3.14128 47.6074 2.7181 47.6074 2.29492 47.6074C2.32849 47.1783 2.39358 46.7551 2.49023 46.3379C5.31227 44.1191 8.09547 41.8405 10.8398 39.502C10.8887 36.7353 10.905 33.9683 10.8887 31.2012C11.4095 31.2012 11.9304 31.2012 12.4512 31.2012C12.4187 33.9688 12.4512 36.7358 12.5488 39.502C15.2862 41.7813 18.0206 44.0601 20.752 46.3379Z" fill="#EA4B98"/>
<path fill-rule="evenodd" clip-rule="evenodd" d="M25.7324 32.7637C27.0345 32.7637 28.3366 32.7637 29.6387 32.7637C29.6387 33.2845 29.6387 33.8054 29.6387 34.3262C28.3366 34.3262 27.0345 34.3262 25.7324 34.3262C25.7324 33.8054 25.7324 33.2845 25.7324 32.7637Z" fill="white"/>
<path fill-rule="evenodd" clip-rule="evenodd" d="M31.2012 32.7637C33.8054 32.7637 36.4095 32.7637 39.0137 32.7637C39.0137 33.2845 39.0137 33.8054 39.0137 34.3262C36.4095 34.3262 33.8054 34.3262 31.2012 34.3262C31.2012 33.8054 31.2012 33.2845 31.2012 32.7637Z" fill="white"/>
<path fill-rule="evenodd" clip-rule="evenodd" d="M24.1699 35.8887C27.2949 35.8887 30.4199 35.8887 33.5449 35.8887C33.5449 36.4095 33.5449 36.9304 33.5449 37.4512C30.4199 37.4512 27.2949 37.4512 24.1699 37.4512C24.1699 36.9304 24.1699 36.4095 24.1699 35.8887Z" fill="white"/>
<path fill-rule="evenodd" clip-rule="evenodd" d="M35.1074 35.8887C37.1907 35.8887 39.2741 35.8887 41.3574 35.8887C41.3574 36.4095 41.3574 36.9304 41.3574 37.4512C39.2741 37.4512 37.1907 37.4512 35.1074 37.4512C35.1074 36.9304 35.1074 36.4095 35.1074 35.8887Z" fill="white"/>
<path fill-rule="evenodd" clip-rule="evenodd" d="M19.7754 47.6074C14.3718 47.6074 8.9681 47.6074 3.56445 47.6074C6.23347 45.3297 8.93529 43.0836 11.6699 40.8691C14.4046 43.0836 17.1063 45.3297 19.7754 47.6074Z" fill="#F07FB6"/>
</svg>
