<svg width="50" height="50" viewBox="0 0 50 50" fill="none" xmlns="http://www.w3.org/2000/svg">
<path fill-rule="evenodd" clip-rule="evenodd" d="M24.1699 3.07617C24.6907 3.07617 25.2116 3.07617 25.7324 3.07617C25.7324 5.94075 25.7324 8.80534 25.7324 11.6699C28.7598 11.6699 31.7871 11.6699 34.8145 11.6699C33.7429 8.95365 32.0827 6.65873 29.834 4.78516C28.8296 4.0552 27.7229 3.53436 26.5137 3.22266C26.6732 3.17446 26.836 3.15818 27.002 3.17383C28.4206 3.22555 29.7878 3.48596 31.1035 3.95508C32.2702 4.78011 33.2631 5.78923 34.082 6.98242C35.0625 8.42185 35.8926 9.95176 36.5723 11.5723C38.4917 11.6699 40.4123 11.7024 42.334 11.6699C42.771 12.1521 43.1616 12.6729 43.5059 13.2324C41.4226 13.2324 39.3392 13.2324 37.2559 13.2324C37.8099 15.0906 38.2493 16.9786 38.5742 18.8965C38.8288 20.6458 38.9753 22.4036 39.0137 24.1699C38.4929 24.1699 37.972 24.1699 37.4512 24.1699C37.3965 20.4301 36.7454 16.8005 35.498 13.2812C32.243 13.2324 28.9878 13.2161 25.7324 13.2324C25.7324 16.8782 25.7324 20.5241 25.7324 24.1699C24.7884 24.2676 24.2676 24.7884 24.1699 25.7324C20.2637 25.7324 16.3574 25.7324 12.4512 25.7324C12.5243 29.4509 13.1754 33.0642 14.4043 36.5723C17.6589 36.6699 20.9141 36.7024 24.1699 36.6699C24.1699 37.1907 24.1699 37.7116 24.1699 38.2324C21.1426 38.2324 18.1152 38.2324 15.0879 38.2324C16.1595 40.9487 17.8196 43.2437 20.0684 45.1172C21.0728 45.8472 22.1795 46.368 23.3887 46.6797C23.2291 46.7279 23.0663 46.7441 22.9004 46.7285C21.3529 46.6338 19.8556 46.3408 18.4082 45.8496C16.1799 43.7164 14.4871 41.2099 13.3301 38.3301C11.4106 38.2324 9.49004 38.1999 7.56836 38.2324C7.13135 37.7503 6.74072 37.2295 6.39648 36.6699C8.51337 36.7024 10.6293 36.6699 12.7441 36.5723C11.5726 33.0596 10.954 29.4463 10.8887 25.7324C8.2845 25.7324 5.68034 25.7324 3.07617 25.7324C3.07617 25.2116 3.07617 24.6907 3.07617 24.1699C5.68034 24.1699 8.2845 24.1699 10.8887 24.1699C10.9468 20.4359 11.5327 16.7901 12.6465 13.2324C10.5632 13.2324 8.47981 13.2324 6.39648 13.2324C6.74072 12.6729 7.13135 12.1521 7.56836 11.6699C9.49004 11.7024 11.4106 11.6699 13.3301 11.5723C14.526 8.65507 16.2512 6.11601 18.5059 3.95508C19.9436 3.54385 21.4084 3.28343 22.9004 3.17383C23.0663 3.15818 23.2291 3.17446 23.3887 3.22266C22.1795 3.53436 21.0728 4.0552 20.0684 4.78516C17.8196 6.65873 16.1595 8.95365 15.0879 11.6699C18.1152 11.6699 21.1426 11.6699 24.1699 11.6699C24.1699 8.80534 24.1699 5.94075 24.1699 3.07617Z" fill="white"/>
<path fill-rule="evenodd" clip-rule="evenodd" d="M22.9004 3.17349C23.3041 3.07731 23.7273 3.04476 24.1699 3.07584C24.1699 5.94042 24.1699 8.80501 24.1699 11.6696C21.1426 11.6696 18.1152 11.6696 15.0879 11.6696C16.1595 8.95332 17.8196 6.65839 20.0684 4.78482C21.0728 4.05486 22.1795 3.53402 23.3887 3.22232C23.2291 3.17413 23.0663 3.15785 22.9004 3.17349Z" fill="#EA4B98"/>
<path fill-rule="evenodd" clip-rule="evenodd" d="M25.7324 3.07584C26.175 3.04476 26.5982 3.07731 27.002 3.17349C26.836 3.15785 26.6732 3.17413 26.5137 3.22232C27.7229 3.53402 28.8296 4.05486 29.834 4.78482C32.0827 6.65839 33.7429 8.95332 34.8145 11.6696C31.7871 11.6696 28.7598 11.6696 25.7324 11.6696C25.7324 8.80501 25.7324 5.94042 25.7324 3.07584Z" fill="#EA4B98"/>
<path opacity="0.988" fill-rule="evenodd" clip-rule="evenodd" d="M18.5059 3.95508C16.2512 6.11601 14.526 8.65507 13.3301 11.5723C11.4106 11.6699 9.49004 11.7024 7.56836 11.6699C10.3834 7.94859 14.0293 5.37698 18.5059 3.95508Z" fill="#EA4B98"/>
<path opacity="0.987" fill-rule="evenodd" clip-rule="evenodd" d="M31.1035 3.95508C35.7305 5.26509 39.4739 7.8367 42.334 11.6699C40.4123 11.7024 38.4917 11.6699 36.5723 11.5723C35.8926 9.95176 35.0625 8.42185 34.082 6.98242C33.2631 5.78923 32.2702 4.78011 31.1035 3.95508Z" fill="#EA4B98"/>
<path opacity="0.996" fill-rule="evenodd" clip-rule="evenodd" d="M6.39648 13.2324C8.47981 13.2324 10.5632 13.2324 12.6465 13.2324C11.5327 16.7901 10.9468 20.4359 10.8887 24.1699C8.2845 24.1699 5.68034 24.1699 3.07617 24.1699C3.18579 20.2146 4.29256 16.5688 6.39648 13.2324Z" fill="#EA4B98"/>
<path fill-rule="evenodd" clip-rule="evenodd" d="M14.4043 13.2324C17.6595 13.2324 20.9147 13.2324 24.1699 13.2324C24.1699 16.8782 24.1699 20.5241 24.1699 24.1699C20.2631 24.2024 16.3568 24.1699 12.4512 24.0723C12.4895 20.3472 13.1405 16.7339 14.4043 13.2324Z" fill="#EA4B98"/>
<path fill-rule="evenodd" clip-rule="evenodd" d="M37.4512 24.1702C33.5449 24.1702 29.6387 24.1702 25.7324 24.1702C25.7324 20.5244 25.7324 16.8785 25.7324 13.2327C28.9878 13.2164 32.243 13.2327 35.498 13.2815C36.7454 16.8007 37.3965 20.4303 37.4512 24.1702Z" fill="#EA4B98"/>
<path opacity="0.996" fill-rule="evenodd" clip-rule="evenodd" d="M43.5059 13.2324C45.6098 16.5688 46.7166 20.2146 46.8262 24.1699C46.4355 24.1699 46.0449 24.1699 45.6543 24.1699C43.4407 24.1699 41.2272 24.1699 39.0137 24.1699C38.9753 22.4036 38.8288 20.6458 38.5742 18.8965C38.2493 16.9786 37.8099 15.0906 37.2559 13.2324C39.3392 13.2324 41.4226 13.2324 43.5059 13.2324Z" fill="#EA4B98"/>
<path fill-rule="evenodd" clip-rule="evenodd" d="M25.7324 24.1699C29.6387 24.1699 33.5449 24.1699 37.4512 24.1699C37.972 24.1699 38.4929 24.1699 39.0137 24.1699C41.2272 24.1699 43.4407 24.1699 45.6543 24.1699C46.1673 24.3897 46.5579 24.7479 46.8262 25.2441C46.8425 31.657 46.8262 38.0697 46.7773 44.4824C46.4681 45.7031 45.7031 46.4681 44.4824 46.7773C38.5255 46.8262 32.5685 46.8425 26.6113 46.8262C25.2445 46.4036 24.4308 45.4922 24.1699 44.0918C24.1699 42.1387 24.1699 40.1855 24.1699 38.2324C24.1699 37.7116 24.1699 37.1907 24.1699 36.6699C24.1699 33.0241 24.1699 29.3782 24.1699 25.7324C24.2676 24.7884 24.7884 24.2676 25.7324 24.1699Z" fill="#F07FB6"/>
<path opacity="0.998" fill-rule="evenodd" clip-rule="evenodd" d="M45.6543 24.1699C46.0449 24.1699 46.4355 24.1699 46.8262 24.1699C46.8262 24.528 46.8262 24.886 46.8262 25.2441C46.5579 24.7479 46.1673 24.3897 45.6543 24.1699Z" fill="white"/>
<path opacity="0.996" fill-rule="evenodd" clip-rule="evenodd" d="M3.07617 25.7324C5.68034 25.7324 8.2845 25.7324 10.8887 25.7324C10.954 29.4463 11.5726 33.0596 12.7441 36.5723C10.6293 36.6699 8.51337 36.7024 6.39648 36.6699C4.29256 33.3336 3.18579 29.6878 3.07617 25.7324Z" fill="#EA4B98"/>
<path fill-rule="evenodd" clip-rule="evenodd" d="M24.1699 25.7324C24.1699 29.3782 24.1699 33.0241 24.1699 36.6699C20.9141 36.7024 17.6589 36.6699 14.4043 36.5723C13.1754 33.0642 12.5243 29.4509 12.4512 25.7324C16.3574 25.7324 20.2637 25.7324 24.1699 25.7324Z" fill="#EA4B98"/>
<path fill-rule="evenodd" clip-rule="evenodd" d="M30.5177 28.8576C30.972 28.8072 31.3138 28.97 31.5431 29.3458C31.5756 30.6479 31.6082 31.95 31.6407 33.2521C32.0368 35.3085 33.2738 36.4478 35.3516 36.6701C37.5875 36.5825 38.9222 35.4431 39.3556 33.2521C39.3881 31.95 39.4207 30.6479 39.4532 29.3458C39.7445 28.8509 40.1514 28.737 40.6739 29.0041C40.7912 29.0922 40.8726 29.2061 40.9181 29.3458C40.9832 30.6805 40.9832 32.0151 40.9181 33.3498C40.5027 36.0438 38.9565 37.6551 36.2794 38.1837C33.1162 38.3695 31.0817 36.9535 30.1759 33.9357C30.0227 32.4096 29.9902 30.8797 30.0782 29.3458C30.1783 29.1323 30.3248 28.9695 30.5177 28.8576Z" fill="#EA4B98"/>
<path opacity="0.987" fill-rule="evenodd" clip-rule="evenodd" d="M7.56836 38.2329C9.49004 38.2004 11.4106 38.2329 13.3301 38.3306C14.4871 41.2103 16.1799 43.7169 18.4082 45.8501C14.5256 44.6333 11.2215 42.5175 8.49609 39.5024C8.13729 39.1081 7.82804 38.6849 7.56836 38.2329Z" fill="#EA4B98"/>
<path fill-rule="evenodd" clip-rule="evenodd" d="M24.1699 38.2324C24.1699 40.1855 24.1699 42.1387 24.1699 44.0918C24.1699 45.0032 24.1699 45.9147 24.1699 46.8262C23.7273 46.8572 23.3041 46.8247 22.9004 46.7285C23.0663 46.7441 23.2291 46.7279 23.3887 46.6797C22.1795 46.368 21.0728 45.8472 20.0684 45.1172C17.8196 43.2437 16.1595 40.9487 15.0879 38.2324C18.1152 38.2324 21.1426 38.2324 24.1699 38.2324Z" fill="#EA4B98"/>
<path opacity="0.999" fill-rule="evenodd" clip-rule="evenodd" d="M24.1699 44.0918C24.4308 45.4922 25.2445 46.4036 26.6113 46.8262C25.7976 46.8262 24.9837 46.8262 24.1699 46.8262C24.1699 45.9147 24.1699 45.0032 24.1699 44.0918Z" fill="white"/>
</svg>
