<svg width="19.000000" height="20.000000" viewBox="0 0 19 20" fill="none" xmlns="http://www.w3.org/2000/svg" xmlns:xlink="http://www.w3.org/1999/xlink">
	<desc>
			Created with Pixso.
	</desc>
	<defs>
		<clipPath id="clip966_837">
			<rect id="edit-svgrepo-com (4) 1" width="19.032259" height="20.000000" transform="translate(-0.838867 0.000000)" fill="white" fill-opacity="0"/>
		</clipPath>
	</defs>
	<rect id="edit-svgrepo-com (4) 1" width="19.032259" height="20.000000" transform="translate(-0.838867 0.000000)" fill="#FFFFFF" fill-opacity="0"/>
	<g clip-path="url(#clip966_837)">
		<path id="Vector" d="M15.02 13.33L15.02 16.66C15.02 17.1 14.85 17.53 14.55 17.84C14.25 18.15 13.85 18.33 13.43 18.33L2.33 18.33C1.91 18.33 1.5 18.15 1.21 17.84C0.91 17.53 0.74 17.1 0.74 16.66L0.74 5C0.74 4.55 0.91 4.13 1.21 3.82C1.5 3.5 1.91 3.33 2.33 3.33L5.5 " stroke="#9F50DF" stroke-opacity="1.000000" stroke-width="1.000000" stroke-linejoin="round" stroke-linecap="round"/>
		<path id="Vector" d="M16.6 5.16L13.27 1.66L5.74 9.58L5.5 13.33L9.07 13.16L16.6 5.16Z" stroke="#9F50DF" stroke-opacity="1.000000" stroke-width="1.000000" stroke-linejoin="round"/>
	</g>
</svg>
