<svg width="50" height="50" viewBox="0 0 50 50" fill="none" xmlns="http://www.w3.org/2000/svg">
<g clip-path="url(#clip0_732_464)">
<path opacity="0.995" fill-rule="evenodd" clip-rule="evenodd" d="M34.1309 3.07642C34.1309 4.89934 34.1309 6.72225 34.1309 8.54517C31.4614 8.5289 28.7921 8.54517 26.1231 8.594C25.014 9.13414 24.7698 9.93169 25.3906 10.9866C25.5597 11.1933 25.7713 11.3398 26.0254 11.426C28.7271 11.4749 31.4288 11.4912 34.1309 11.4749C34.1309 17.497 34.1309 23.5191 34.1309 29.5413C34.0332 29.5413 33.9356 29.5413 33.8379 29.5413C32.7637 29.5413 31.6895 29.5413 30.6152 29.5413C28.89 29.5413 27.1648 29.5413 25.4395 29.5413C25.9225 28.5839 26.0526 27.5748 25.8301 26.5139C26.9906 24.0952 28.1787 21.6863 29.3945 19.2874C29.6893 17.8239 29.087 17.1566 27.5879 17.2854C27.3338 17.3716 27.1222 17.5181 26.9531 17.7249C25.8364 19.8607 24.7459 22.0091 23.6817 24.1702C21.975 23.3983 20.3149 22.5519 18.7012 21.6311C18.6849 16.911 18.7012 12.1909 18.75 7.47095C18.997 5.20361 20.2177 3.75504 22.4121 3.12525C26.3183 3.07642 30.2245 3.06014 34.1309 3.07642Z" fill="#EA4B98"/>
<path fill-rule="evenodd" clip-rule="evenodd" d="M34.1309 3.07642C38.2 3.06014 42.269 3.07642 46.3379 3.12525C48.2436 3.615 49.448 4.80316 49.9512 6.6897C49.9512 13.1025 49.9512 19.5152 49.9512 25.928C49.448 27.8145 48.2436 29.0027 46.3379 29.4924C43.5712 29.5413 40.8042 29.5576 38.0371 29.5413C36.9629 29.5413 35.8887 29.5413 34.8145 29.5413C34.5866 29.5413 34.3587 29.5413 34.1309 29.5413C34.1309 23.5191 34.1309 17.497 34.1309 11.4749C34.1634 11.4749 34.196 11.4749 34.2285 11.4749C37.0607 11.4912 39.8928 11.4749 42.7246 11.426C43.671 10.9306 43.9151 10.1982 43.457 9.22876C43.2444 8.93354 42.9677 8.73822 42.627 8.64282C39.8116 8.54536 36.9796 8.5128 34.1309 8.54517C34.1309 6.72225 34.1309 4.89934 34.1309 3.07642Z" fill="#F07FB6"/>
<path opacity="0.984" fill-rule="evenodd" clip-rule="evenodd" d="M9.22858 6.00586C9.22858 10.2376 9.22858 14.4694 9.22858 18.7012C9.22858 18.7337 9.22858 18.7663 9.22858 18.7988C8.93562 18.7988 8.64265 18.7988 8.34968 18.7988C4.44506 17.8313 2.63842 15.3248 2.92976 11.2793C3.71164 7.94171 5.81125 6.1839 9.22858 6.00586Z" fill="#FFCEBD"/>
<path fill-rule="evenodd" clip-rule="evenodd" d="M9.22852 6.00586C12.7733 6.17525 14.9056 7.99817 15.625 11.4746C15.8446 15.1728 14.2008 17.5816 10.6934 18.7012C10.2051 18.7012 9.7168 18.7012 9.22852 18.7012C9.22852 14.4694 9.22852 10.2376 9.22852 6.00586Z" fill="#F9BCAA"/>
<path fill-rule="evenodd" clip-rule="evenodd" d="M34.1309 8.5453C36.9796 8.51294 39.8116 8.5455 42.627 8.64296C39.8274 8.64296 37.028 8.64296 34.2285 8.64296C34.2285 9.58697 34.2285 10.5309 34.2285 11.475C34.196 11.475 34.1634 11.475 34.1309 11.475C34.1309 10.4984 34.1309 9.52187 34.1309 8.5453Z" fill="#2FA5FB"/>
<path fill-rule="evenodd" clip-rule="evenodd" d="M34.1308 8.54516C34.1308 9.52173 34.1308 10.4983 34.1308 11.4749C31.4288 11.4912 28.727 11.4749 26.0253 11.426C25.7712 11.3398 25.5596 11.1933 25.3906 10.9866C24.7698 9.93169 25.0139 9.13414 26.123 8.59399C28.792 8.54516 31.4614 8.52889 34.1308 8.54516Z" fill="#F07FB6"/>
<path fill-rule="evenodd" clip-rule="evenodd" d="M42.627 8.64258C42.9677 8.73798 43.2444 8.93329 43.457 9.22852C43.9151 10.1979 43.671 10.9304 42.7246 11.4258C39.8928 11.4746 37.0607 11.4909 34.2285 11.4746C34.2285 10.5306 34.2285 9.58659 34.2285 8.64258C37.028 8.64258 39.8274 8.64258 42.627 8.64258Z" fill="#EA4B98"/>
<path fill-rule="evenodd" clip-rule="evenodd" d="M35.3028 14.7952C37.7119 14.7789 40.1208 14.7952 42.5293 14.844C43.6808 15.3361 43.9575 16.1337 43.3594 17.2366C43.121 17.4777 42.8444 17.6567 42.5293 17.7737C40.1205 17.8388 37.7117 17.8388 35.3028 17.7737C34.2048 17.2745 33.9282 16.4769 34.4727 15.3811C34.7302 15.1476 35.0069 14.9523 35.3028 14.7952Z" fill="#EA4B98"/>
<path fill-rule="evenodd" clip-rule="evenodd" d="M25.8301 26.5137C25.4213 25.4537 24.7052 24.6725 23.6816 24.1699C24.7459 22.0089 25.8364 19.8605 26.9531 17.7246C27.1222 17.5179 27.3338 17.3714 27.5879 17.2852C29.087 17.1564 29.6893 17.8236 29.3945 19.2871C28.1787 21.686 26.9906 24.0949 25.8301 26.5137Z" fill="#F07FB6"/>
<path opacity="0.993" fill-rule="evenodd" clip-rule="evenodd" d="M8.34961 18.7988C8.64258 18.7988 8.93555 18.7988 9.22852 18.7988C9.22852 28.1413 9.22852 37.4837 9.22852 46.8262C7.50295 46.8425 5.77769 46.8262 4.05273 46.7773C3.61328 46.5983 3.30403 46.2891 3.125 45.8496C3.10871 42.952 3.05988 40.0548 2.97852 37.1582C1.37519 36.5322 0.366073 35.3929 -0.0488281 33.7402C-0.0488281 31.429 -0.0488281 29.1179 -0.0488281 26.8066C0.869477 22.1776 3.66895 19.5084 8.34961 18.7988Z" fill="#EA4B98"/>
<path fill-rule="evenodd" clip-rule="evenodd" d="M9.22852 18.7015C9.7168 18.7015 10.2051 18.7015 10.6934 18.7015C10.9116 18.6727 11.1069 18.7054 11.2793 18.7992C10.6282 18.7992 9.97725 18.7992 9.32617 18.7992C9.32617 28.1091 9.32617 37.419 9.32617 46.7289C11.0188 46.7289 12.7116 46.7289 14.4043 46.7289C12.6961 46.8262 10.9708 46.8588 9.22852 46.8265C9.22852 37.4841 9.22852 28.1417 9.22852 18.7992C9.22852 18.7667 9.22852 18.7341 9.22852 18.7015Z" fill="#EA4B98"/>
<path fill-rule="evenodd" clip-rule="evenodd" d="M11.2793 18.7988C12.1917 18.8099 13.0706 18.9889 13.916 19.3359C15.5132 20.1021 17.1082 20.867 18.7012 21.6309C20.3148 22.5517 21.975 23.398 23.6816 24.1699C24.7052 24.6725 25.4213 25.4537 25.8301 26.5137C26.0526 27.5745 25.9225 28.5837 25.4395 29.541C24.6986 30.9277 23.5268 31.6438 21.9238 31.6895C21.3511 31.6693 20.7978 31.5554 20.2637 31.3477C18.6773 30.5626 17.0985 29.765 15.5273 28.9551C15.4948 34.554 15.4622 40.153 15.4297 45.752C15.2903 46.2983 14.9485 46.6238 14.4043 46.7285C12.7116 46.7285 11.0188 46.7285 9.32617 46.7285C9.32617 37.4187 9.32617 28.1087 9.32617 18.7988C9.97725 18.7988 10.6282 18.7988 11.2793 18.7988Z" fill="#EA4B98"/>
<path fill-rule="evenodd" clip-rule="evenodd" d="M35.1074 21.1428C37.6142 21.1265 40.1206 21.1428 42.627 21.1917C43.6264 21.6452 43.9031 22.3776 43.457 23.3889C43.2261 23.7179 42.9168 23.9296 42.5293 24.0237C40.1204 24.0888 37.7116 24.0888 35.3027 24.0237C34.2866 23.6018 33.9774 22.8694 34.375 21.8264C34.609 21.5757 34.8531 21.3479 35.1074 21.1428Z" fill="#EA4B98"/>
<path opacity="0.96" fill-rule="evenodd" clip-rule="evenodd" d="M30.6152 29.541C31.6894 29.541 32.7637 29.541 33.8379 29.541C31.8792 35.0101 29.9098 40.4788 27.9297 45.9473C27.5014 46.6902 26.8666 46.967 26.0254 46.7773C25.178 46.3682 24.8688 45.7008 25.0976 44.7754C26.9472 39.6987 28.7863 34.6206 30.6152 29.541Z" fill="#EA4B98"/>
<path opacity="0.96" fill-rule="evenodd" clip-rule="evenodd" d="M34.8145 29.541C35.8887 29.541 36.9629 29.541 38.0371 29.541C39.9072 34.6492 41.779 39.7599 43.6523 44.873C43.7204 46.5629 42.9554 47.1326 41.3574 46.582C41.1417 46.3991 40.9627 46.1875 40.8203 45.9473C38.7889 40.4875 36.7869 35.0188 34.8145 29.541Z" fill="#EA4B98"/>
</g>
<defs>
<clipPath id="clip0_732_464">
<rect width="50" height="50" fill="white"/>
</clipPath>
</defs>
</svg>
