<svg width="34" height="34" viewBox="0 0 34 34" fill="none" xmlns="http://www.w3.org/2000/svg">
<g clip-path="url(#clip0_5116_3124)">
<path fill-rule="evenodd" clip-rule="evenodd" d="M34 17C34 26.3888 26.3888 34 17 34C7.61116 34 0 26.3888 0 17C0 7.61116 7.61116 0 17 0C26.3888 0 34 7.61116 34 17ZM8.5085 11.9C8.5085 10.965 9.265 10.2 10.2 10.2H23.8C24.735 10.2 25.5 10.965 25.5 11.9V22.1C25.5 23.035 24.735 23.8 23.8 23.8H10.2C9.265 23.8 8.5 23.035 8.5 22.1L8.5085 11.9ZM17 17.85L10.2 13.5999V22.1H23.8V13.5999L17 17.85ZM17 16.15L10.2 11.9H23.8L17 16.15Z" fill="#7991D1"/>
</g>
<defs>
<clipPath id="clip0_5116_3124">
<rect width="34" height="34" fill="white"/>
</clipPath>
</defs>
</svg>
