<svg width="24" height="24" viewBox="0 0 24 24" fill="none" xmlns="http://www.w3.org/2000/svg">
<path opacity="0.864" fill-rule="evenodd" clip-rule="evenodd" d="M13.8984 0.679688C14.0117 0.70208 14.1133 0.748955 14.2031 0.820312C14.2969 1.22656 14.2969 1.63281 14.2031 2.03906C14.0156 2.22656 13.8281 2.22656 13.6406 2.03906C13.5469 1.64844 13.5469 1.25781 13.6406 0.867188C13.7089 0.775064 13.7948 0.712561 13.8984 0.679688Z" fill="#F36F56"/>
<path opacity="0.887" fill-rule="evenodd" clip-rule="evenodd" d="M9.53899 1.85181C9.69977 1.83337 9.84818 1.86462 9.9843 1.94556C10.1249 2.19556 10.2656 2.44557 10.4062 2.69556C10.4953 2.9706 10.4015 3.14248 10.1249 3.21119C10.0164 3.19083 9.92261 3.14395 9.84368 3.07056C9.70305 2.82057 9.56243 2.57056 9.4218 2.32056C9.36841 2.13676 9.4075 1.98051 9.53899 1.85181Z" fill="#F36F56"/>
<path opacity="0.89" fill-rule="evenodd" clip-rule="evenodd" d="M17.9766 1.85196C18.3436 1.80476 18.492 1.96102 18.422 2.32071C18.2813 2.57071 18.1407 2.82071 18.0001 3.07071C17.8202 3.25312 17.6405 3.25312 17.461 3.07071C17.4112 2.9487 17.4035 2.8237 17.4376 2.69571C17.594 2.39267 17.7736 2.11142 17.9766 1.85196Z" fill="#F36F56"/>
<path opacity="0.872" fill-rule="evenodd" clip-rule="evenodd" d="M6.53897 4.89818C6.60333 4.89082 6.66586 4.89865 6.72647 4.92162C7.00772 5.07785 7.28897 5.23414 7.57022 5.39037C7.75912 5.79453 7.63411 5.98203 7.19522 5.95287C6.94523 5.81225 6.6952 5.67162 6.44522 5.531C6.23587 5.27956 6.26709 5.06862 6.53897 4.89818Z" fill="#F36F56"/>
<path opacity="0.872" fill-rule="evenodd" clip-rule="evenodd" d="M21.1172 4.89844C21.4969 4.926 21.6141 5.1135 21.4688 5.46094C21.207 5.64267 20.9336 5.80673 20.6485 5.95312C20.2271 5.99423 20.0943 5.81456 20.25 5.41406C20.546 5.24686 20.835 5.07497 21.1172 4.89844Z" fill="#F36F56"/>
<path opacity="0.986" fill-rule="evenodd" clip-rule="evenodd" d="M11.3672 5.55477C12.1447 5.49918 12.8635 5.67885 13.5234 6.09384C13.7379 6.16302 13.9567 6.17868 14.1797 6.14071C14.4524 6.02774 14.718 5.90273 14.9766 5.76571C16.4311 5.30273 17.6265 5.66995 18.5625 6.86727C19.0698 7.69204 19.1323 8.5514 18.75 9.4454C18.3859 10.2211 17.9172 10.9242 17.3438 11.5548C16.4138 12.5159 15.4529 13.4457 14.4609 14.3438C14.13 14.6632 13.7863 14.6789 13.4297 14.3907C12.5327 13.5719 11.6499 12.736 10.7812 11.8829C10.308 11.3472 9.87042 10.7847 9.46875 10.1954C9.09797 9.59863 8.88703 8.95021 8.83594 8.25009C8.95978 7.01652 9.60042 6.17277 10.7578 5.71884C10.9687 5.67013 11.1718 5.61543 11.3672 5.55477Z" fill="#F36F56"/>
<path opacity="0.9" fill-rule="evenodd" clip-rule="evenodd" d="M5.3671 9.11717C5.72682 9.10939 6.08621 9.11717 6.44523 9.14061C6.61923 9.25841 6.67388 9.42247 6.60929 9.6328C6.57024 9.67185 6.53115 9.71094 6.4921 9.74999C6.1171 9.78125 5.7421 9.78125 5.3671 9.74999C5.19723 9.64869 5.14252 9.50024 5.20304 9.30467C5.26754 9.24819 5.32219 9.18571 5.3671 9.11717Z" fill="#F36F56"/>
<path opacity="0.897" fill-rule="evenodd" clip-rule="evenodd" d="M21.3984 9.11717C21.7581 9.10939 22.1175 9.11717 22.4765 9.14061C22.6464 9.24402 22.7011 9.39247 22.6406 9.58592C22.6171 9.67185 22.5624 9.72655 22.4765 9.74999C22.1015 9.78125 21.7265 9.78125 21.3515 9.74999C21.1577 9.52119 21.1734 9.31025 21.3984 9.11717Z" fill="#F36F56"/>
<path opacity="0.874" fill-rule="evenodd" clip-rule="evenodd" d="M7.24223 12.9141C7.62192 12.9416 7.73911 13.1291 7.59379 13.4766C7.332 13.6583 7.05858 13.8224 6.77348 13.9688C6.35212 14.0099 6.21933 13.8302 6.37504 13.4297C6.67097 13.2625 6.96 13.0906 7.24223 12.9141Z" fill="#F36F56"/>
<path opacity="0.872" fill-rule="evenodd" clip-rule="evenodd" d="M20.414 12.9141C20.7868 13.0145 21.1305 13.1786 21.4452 13.4063C21.6341 13.8104 21.5091 13.9979 21.0702 13.9688C20.8202 13.8281 20.5702 13.6875 20.3202 13.5469C20.1109 13.2954 20.1421 13.0845 20.414 12.9141Z" fill="#F36F56"/>
<path opacity="0.973" fill-rule="evenodd" clip-rule="evenodd" d="M8.83594 14.8832C9.24914 14.8584 9.65536 14.8974 10.0547 15.0004C11.5527 15.6091 13.0684 16.1716 14.6016 16.6879C15.0967 17.1467 15.1514 17.6544 14.7656 18.2113C14.4724 18.46 14.1365 18.546 13.7578 18.4691C12.4922 18.1097 11.2266 17.7504 9.96094 17.391C9.6082 17.3142 9.46758 17.447 9.53906 17.7894C9.59367 17.8403 9.65616 17.8793 9.72656 17.9066C11.0526 18.2889 12.3807 18.6639 13.7109 19.0316C14.6094 19.1405 15.2188 18.7733 15.5391 17.9301C16.7263 17.1332 17.9294 16.3598 19.1484 15.6098C19.8578 15.3954 20.4907 15.5282 21.0469 16.0082C21.3071 16.4067 21.2368 16.7426 20.8359 17.016C19.3762 18.0975 17.8919 19.1443 16.3828 20.1566C15.8337 20.4781 15.2712 20.775 14.6953 21.0473C14.2596 21.2344 13.8065 21.3126 13.3359 21.2816C11.7706 20.8067 10.2081 20.3223 8.64844 19.8285C8.21306 19.7234 7.87711 19.8562 7.64062 20.2269C6.78159 19.0402 5.94563 17.8371 5.13281 16.6176C6.29231 15.8737 7.52667 15.2956 8.83594 14.8832Z" fill="#F36F56"/>
<path opacity="0.971" fill-rule="evenodd" clip-rule="evenodd" d="M3.7734 16.0543C3.93608 16.0251 4.06889 16.0719 4.17184 16.195C5.31653 17.875 6.47279 19.5469 7.64059 21.2106C7.68484 21.3441 7.6614 21.4612 7.57028 21.5622C6.7734 22.1091 5.97653 22.6559 5.17965 23.2028C5.01765 23.2554 4.88481 23.2164 4.78121 23.0856C3.63653 21.4056 2.48028 19.7337 1.31246 18.07C1.26822 17.9365 1.29166 17.8193 1.38278 17.7184C2.18805 17.1702 2.98493 16.6154 3.7734 16.0543ZM5.50778 21.3512C5.77182 21.3728 5.88901 21.5135 5.85934 21.7731C5.60973 22.0281 5.43006 21.9812 5.32028 21.6325C5.32825 21.5 5.39073 21.4063 5.50778 21.3512Z" fill="#F36F56"/>
</svg>
