<svg width="24" height="24" viewBox="0 0 24 24" fill="none" xmlns="http://www.w3.org/2000/svg">
<g clip-path="url(#clip0_1718_1728)">
<path opacity="0.987" fill-rule="evenodd" clip-rule="evenodd" d="M11.6953 -0.0234375C11.7891 -0.0234375 11.8828 -0.0234375 11.9766 -0.0234375C11.9766 1.13281 11.9766 2.28906 11.9766 3.44531C11.6374 3.43606 11.3952 3.27981 11.25 2.97656C11.2187 2.13281 11.2187 1.28906 11.25 0.445312C11.3448 0.233439 11.4932 0.0771891 11.6953 -0.0234375Z" fill="#FFD54E"/>
<path fill-rule="evenodd" clip-rule="evenodd" d="M11.9766 -0.0234375C12.0703 -0.0234375 12.1641 -0.0234375 12.2578 -0.0234375C12.4599 0.0771891 12.6083 0.233439 12.7031 0.445312C12.7344 1.28906 12.7344 2.13281 12.7031 2.97656C12.5563 3.28046 12.3141 3.43671 11.9766 3.44531C11.9766 2.28906 11.9766 1.13281 11.9766 -0.0234375Z" fill="#DEB945"/>
<path opacity="0.959" fill-rule="evenodd" clip-rule="evenodd" d="M5.97656 5.92975C5.14842 5.11727 4.32031 4.30475 3.49219 3.49225C3.69287 3.27269 3.94287 3.20237 4.24219 3.28131C4.32405 3.30339 4.40217 3.33464 4.47656 3.37506C5.00002 3.8985 5.52342 4.42194 6.04688 4.94538C6.21895 5.29394 6.19552 5.62206 5.97656 5.92975Z" fill="#FFD54F"/>
<path opacity="0.96" fill-rule="evenodd" clip-rule="evenodd" d="M20.461 3.4921C19.6329 4.3046 18.8048 5.11711 17.9766 5.9296C17.7577 5.62191 17.7342 5.29379 17.9063 4.94522C18.4298 4.42178 18.9532 3.89835 19.4766 3.37491C19.7 3.26661 19.9344 3.23536 20.1797 3.28116C20.3019 3.31828 20.3957 3.38859 20.461 3.4921Z" fill="#FFD54F"/>
<path fill-rule="evenodd" clip-rule="evenodd" d="M3.4921 3.49219C4.32023 4.30469 5.14833 5.1172 5.97647 5.92969C5.88694 6.02634 5.77758 6.09666 5.64835 6.14062C5.40141 6.19069 5.16704 6.15942 4.94522 6.04687C4.42178 5.52342 3.89835 5.00002 3.37491 4.47656C3.26661 4.25315 3.23536 4.01878 3.28116 3.77344C3.31828 3.65126 3.38859 3.55751 3.4921 3.49219Z" fill="#DFBA45"/>
<path fill-rule="evenodd" clip-rule="evenodd" d="M20.4609 3.49219C20.6805 3.69287 20.7508 3.94287 20.6719 4.24219C20.6498 4.32405 20.6185 4.40217 20.5781 4.47656C20.0205 5.06555 19.4346 5.62022 18.8203 6.14062C18.6484 6.17189 18.4766 6.17189 18.3047 6.14062C18.1755 6.09666 18.0661 6.02634 17.9766 5.92969C18.8047 5.1172 19.6328 4.30469 20.4609 3.49219Z" fill="#DFBA45"/>
<path opacity="0.994" fill-rule="evenodd" clip-rule="evenodd" d="M13.1485 9.96053C12.3663 10.9617 11.6007 11.9774 10.8516 13.0074C9.75775 13.0152 8.66401 13.0074 7.57037 12.984C7.08255 12.8445 6.88722 12.5242 6.98444 12.023C7.02222 11.8849 7.0847 11.76 7.17194 11.648C9.03911 9.12461 10.9063 6.60114 12.7735 4.07772C13.4656 3.80635 13.8718 4.03291 13.9922 4.7574C13.716 6.49295 13.4348 8.22733 13.1485 9.96053Z" fill="#FEC106"/>
<path fill-rule="evenodd" clip-rule="evenodd" d="M13.1484 9.96094C14.2579 9.95312 15.3673 9.96094 16.4766 9.98438C16.8954 10.1737 17.0595 10.494 16.9688 10.9453C15.1293 13.8944 13.27 16.8319 11.3906 19.7578C11.1049 19.9998 10.7846 20.0544 10.4297 19.9219C10.1741 19.7593 10.0335 19.5249 10.0078 19.2188C10.2914 17.1481 10.5726 15.0778 10.8516 13.0078C11.6006 11.9778 12.3663 10.9621 13.1484 9.96094Z" fill="#DEA805"/>
<path opacity="0.986" fill-rule="evenodd" clip-rule="evenodd" d="M3.44531 11.9766C2.28906 11.9766 1.13281 11.9766 -0.0234375 11.9766C-0.0234375 11.8828 -0.0234375 11.7891 -0.0234375 11.6953C0.0771891 11.4932 0.233439 11.3448 0.445312 11.25C1.28906 11.2187 2.13281 11.2187 2.97656 11.25C3.27981 11.3952 3.43606 11.6374 3.44531 11.9766Z" fill="#FFD54F"/>
<path opacity="0.986" fill-rule="evenodd" clip-rule="evenodd" d="M23.9766 11.6953C23.9766 11.7891 23.9766 11.8828 23.9766 11.9766C22.8203 11.9766 21.6641 11.9766 20.5078 11.9766C20.5164 11.639 20.6727 11.3969 20.9766 11.25C21.8203 11.2187 22.6641 11.2187 23.5078 11.25C23.7197 11.3448 23.8759 11.4932 23.9766 11.6953Z" fill="#FFD54E"/>
<path fill-rule="evenodd" clip-rule="evenodd" d="M-0.0234375 11.9766C1.13281 11.9766 2.28906 11.9766 3.44531 11.9766C3.43671 12.3141 3.28046 12.5563 2.97656 12.7031C2.13281 12.7344 1.28906 12.7344 0.445312 12.7031C0.233439 12.6083 0.0771891 12.4599 -0.0234375 12.2578C-0.0234375 12.1641 -0.0234375 12.0703 -0.0234375 11.9766Z" fill="#DEB945"/>
<path fill-rule="evenodd" clip-rule="evenodd" d="M20.5078 11.9766C21.6641 11.9766 22.8203 11.9766 23.9766 11.9766C23.9766 12.0703 23.9766 12.1641 23.9766 12.2578C23.8759 12.4599 23.7197 12.6083 23.5078 12.7031C22.6641 12.7344 21.8203 12.7344 20.9766 12.7031C20.6727 12.5563 20.5164 12.3141 20.5078 11.9766Z" fill="#DEB945"/>
<path opacity="0.96" fill-rule="evenodd" clip-rule="evenodd" d="M5.97663 18.0234C5.11961 18.8023 4.29151 19.6148 3.49225 20.4609C3.27269 20.2603 3.20237 20.0102 3.28131 19.7109C3.30339 19.6291 3.33464 19.551 3.37506 19.4766C3.93266 18.8876 4.5186 18.3329 5.13288 17.8125C5.30477 17.7812 5.47661 17.7812 5.6485 17.8125C5.77774 17.8565 5.8871 17.9268 5.97663 18.0234Z" fill="#FED54F"/>
<path opacity="0.961" fill-rule="evenodd" clip-rule="evenodd" d="M20.4609 20.4612C19.6485 19.6331 18.8359 18.805 18.0234 17.9769C18.3311 17.7579 18.6593 17.7345 19.0078 17.9066C19.5313 18.43 20.0547 18.9534 20.5781 19.4769C20.6864 19.7003 20.7177 19.9347 20.6719 20.18C20.6347 20.3022 20.5644 20.3959 20.4609 20.4612Z" fill="#FFD54F"/>
<path fill-rule="evenodd" clip-rule="evenodd" d="M5.97656 18.0234C6.19552 18.3311 6.21895 18.6593 6.04688 19.0078C5.52342 19.5313 5.00002 20.0547 4.47656 20.5781C4.25315 20.6864 4.01878 20.7177 3.77344 20.6719C3.65126 20.6347 3.55751 20.5644 3.49219 20.4609C4.29144 19.6148 5.11955 18.8023 5.97656 18.0234Z" fill="#DFBA45"/>
<path fill-rule="evenodd" clip-rule="evenodd" d="M18.0234 17.9766C18.8359 18.8047 19.6485 19.6328 20.4609 20.4609C20.2603 20.6805 20.0102 20.7508 19.7109 20.6719C19.6291 20.6498 19.551 20.6185 19.4766 20.5781C18.8876 20.0205 18.3329 19.4346 17.8125 18.8203C17.7812 18.6484 17.7812 18.4766 17.8125 18.3047C17.8565 18.1755 17.9268 18.0661 18.0234 17.9766Z" fill="#DFBA45"/>
<path opacity="0.987" fill-rule="evenodd" clip-rule="evenodd" d="M11.9766 20.5078C11.9766 21.6641 11.9766 22.8203 11.9766 23.9766C11.8828 23.9766 11.7891 23.9766 11.6953 23.9766C11.4932 23.8759 11.3448 23.7197 11.25 23.5078C11.2187 22.6641 11.2187 21.8203 11.25 20.9766C11.3969 20.6727 11.639 20.5164 11.9766 20.5078Z" fill="#FFD54E"/>
<path fill-rule="evenodd" clip-rule="evenodd" d="M11.9766 20.5078C12.3141 20.5164 12.5563 20.6727 12.7031 20.9766C12.7344 21.8203 12.7344 22.6641 12.7031 23.5078C12.6083 23.7197 12.4599 23.8759 12.2578 23.9766C12.1641 23.9766 12.0703 23.9766 11.9766 23.9766C11.9766 22.8203 11.9766 21.6641 11.9766 20.5078Z" fill="#DEB945"/>
</g>
<defs>
<clipPath id="clip0_1718_1728">
<rect width="24" height="24" fill="white"/>
</clipPath>
</defs>
</svg>
