<svg width="319" height="159" viewBox="0 0 319 159" fill="none" xmlns="http://www.w3.org/2000/svg">
<path d="M72.595 73.2559C71.743 74.0056 70.7054 74.512 69.5908 74.722C68.4763 74.9321 67.3259 74.8382 66.2601 74.45C65.1943 74.0618 64.2523 73.3937 63.5327 72.5157C62.8132 71.6377 62.3426 70.582 62.1702 69.4593C61.767 66.8339 62.8833 63.6782 61.0295 61.7766C60.0988 60.82 58.6185 60.4937 57.829 59.4181C57.1668 58.5146 57.152 57.3061 57.1647 56.1847C57.1859 54.195 57.2079 52.2049 57.2305 50.2144C56.3455 49.109 54.5617 49.176 53.5069 48.2342C52.4521 47.2925 52.2335 45.7832 52.0478 44.395C51.4939 40.2944 50.7192 36.2268 49.7271 32.21C52.8256 33.1219 55.8934 34.1104 58.8307 35.4561C60.4692 36.2065 62.1829 37.1227 63.0064 38.7298C63.8299 40.3369 63.5688 42.2788 63.5434 44.0857C63.5349 44.6725 63.5593 45.2783 63.8065 45.8098C64.4432 47.1809 66.2005 47.4966 67.51 48.2544C68.2314 48.6786 68.8444 49.2652 69.3005 49.9677C69.7565 50.6702 70.043 51.4693 70.1374 52.3019C70.2945 53.8102 69.8053 55.3493 70.0896 56.8384C70.7263 60.1408 74.6707 61.665 76.2497 64.6316C77.9008 67.7342 75.2299 70.9367 72.595 73.2559Z" fill="#D4DFFF"/>
<path d="M80.7236 102.763C80.6979 102.762 80.6733 102.752 80.654 102.735C80.6347 102.718 80.6218 102.695 80.6175 102.67C79.9956 99.0644 77.8234 89.3187 74.0489 78.2359C71.2793 70.1015 68.0724 62.4125 64.5165 55.3835C60.0724 46.5987 55.0722 38.8267 49.6443 32.2803C49.6253 32.2572 49.6163 32.2275 49.6192 32.1977C49.6221 32.1679 49.6366 32.1405 49.6597 32.1214C49.6828 32.1024 49.7125 32.0933 49.7422 32.0962C49.772 32.0991 49.7994 32.1137 49.8184 32.1368C55.2536 38.696 60.2676 46.486 64.7192 55.2836C68.2794 62.3221 71.4915 70.0207 74.2696 78.1657C78.0473 89.2613 80.2227 99.0209 80.8488 102.63C80.8538 102.66 80.847 102.69 80.8299 102.715C80.8128 102.739 80.7868 102.756 80.7575 102.761L80.7236 102.763Z" fill="#1C056D"/>
<path d="M23.6587 63.9467C24.7199 64.8056 25.1751 66.1895 25.7163 67.4469C26.2575 68.7043 27.0831 70.017 28.4116 70.339C29.8516 70.6887 31.3648 69.7353 32.8112 70.0595C33.9785 70.321 34.8125 71.353 35.4312 72.383C36.0499 73.4129 36.5889 74.5449 37.544 75.2719C39.0296 76.4007 41.0882 76.2541 42.9347 75.999C44.7811 75.7439 46.7888 75.4675 48.3986 76.4018C50.3575 77.5444 51.0875 80.1475 53.0327 81.3156C53.8593 81.812 54.8366 81.999 55.798 82.0713C58.689 82.2776 61.5669 81.5196 63.9828 79.9157C63.8448 77.2989 62.9365 74.4695 61.2938 72.4287C59.6511 70.3879 57.1839 68.969 54.5713 68.8297C53.7373 68.7861 52.8947 68.8669 52.0702 68.7298C48.6097 68.1526 46.8111 64.1285 43.6042 62.7032C42.2253 62.0971 40.6743 62.0103 39.2365 62.4587C37.8453 62.8998 36.6038 63.832 35.1532 63.9861C33.7365 64.137 32.3676 63.5216 30.9956 63.1358C28.3639 62.3938 26.2309 63.0188 23.6587 63.9467Z" fill="#D4DFFF"/>
<path d="M79.7538 101.838C79.7293 101.837 79.7058 101.829 79.6867 101.813C79.6675 101.798 79.6539 101.777 79.6477 101.753C78.0008 95.3025 74.3133 89.1217 68.9862 83.8784C64.4084 79.3739 58.5285 75.473 51.5121 72.2854C43.9609 68.8554 35.2509 66.2556 24.1013 64.1011C24.0863 64.0988 24.0719 64.0936 24.059 64.0856C24.046 64.0777 24.0349 64.0672 24.0261 64.0548C24.0173 64.0424 24.0111 64.0283 24.0079 64.0135C24.0047 63.9986 24.0045 63.9833 24.0074 63.9683C24.0103 63.9534 24.0161 63.9392 24.0246 63.9266C24.0331 63.914 24.044 63.9033 24.0567 63.895C24.0695 63.8868 24.0838 63.8812 24.0987 63.8786C24.1137 63.876 24.129 63.8765 24.1437 63.88C35.3124 66.0366 44.0384 68.6428 51.6044 72.0802C58.6463 75.2785 64.5506 79.1942 69.1443 83.7179C74.5011 88.9888 78.2088 95.2068 79.8621 101.697C79.8659 101.711 79.8668 101.726 79.8647 101.741C79.8626 101.756 79.8576 101.77 79.85 101.783C79.8424 101.795 79.8323 101.807 79.8204 101.815C79.8084 101.824 79.7948 101.831 79.7803 101.834C79.7718 101.837 79.7628 101.838 79.7538 101.838Z" fill="#1C056D"/>
<path d="M84.1906 63.8321C83.3648 63.9916 82.5141 63.968 81.6983 63.7629C80.8826 63.5578 80.1216 63.1762 79.4689 62.6449C78.8162 62.1136 78.2876 61.4456 77.9203 60.6877C77.553 59.9298 77.3559 59.1006 77.343 58.2582C77.3239 56.9827 77.725 55.7424 78.1632 54.5445C78.3129 54.1352 78.4699 53.7069 78.4158 53.2743C78.3723 52.931 78.2036 52.6185 78.0104 52.3283C77.3026 51.2378 76.3126 50.2897 75.9412 49.0429C75.2779 46.8299 76.753 44.448 76.2913 42.1851C76.13 41.3964 75.7417 40.6757 75.4647 39.92C74.4895 37.2628 74.9999 34.1038 76.7646 31.8877C79.2488 32.8858 80.8692 35.5377 80.8936 38.2183C80.9063 39.5555 80.5402 40.9702 81.1058 42.1798C81.4454 42.9036 82.0736 43.4404 82.6615 43.9792C83.6919 44.9252 84.6862 46.0083 85.0502 47.3593C85.6232 49.4851 84.527 51.8234 85.2369 53.9046C85.9426 55.9687 88.2379 57.1996 88.8618 59.2871C89.0198 59.8515 89.0724 60.4404 89.0168 61.0239C88.9436 61.9199 88.6496 62.8446 87.9758 63.4388C86.9273 64.3635 85.5627 63.5674 84.1906 63.8321Z" fill="#D4DFFF"/>
<path d="M85.1241 102.394C85.0954 102.394 85.0678 102.383 85.047 102.363C85.0261 102.344 85.0134 102.317 85.0116 102.288C84.5245 96.5536 84.6582 90.6832 84.7877 85.0063C84.9659 77.1546 85.1506 69.0352 83.6851 61.209C82.9275 57.1615 81.7145 53.131 80.543 49.2397C78.912 43.8189 77.2258 38.2196 76.7441 32.4927C76.7428 32.4776 76.7445 32.4625 76.7492 32.4481C76.7538 32.4337 76.7614 32.4204 76.7713 32.409C76.7812 32.3976 76.7932 32.3883 76.8068 32.3817C76.8204 32.3751 76.8351 32.3713 76.8502 32.3705C76.8652 32.3693 76.8803 32.3711 76.8946 32.3759C76.9088 32.3806 76.9221 32.3881 76.9334 32.398C76.9448 32.4079 76.954 32.42 76.9607 32.4335C76.9674 32.447 76.9713 32.4617 76.9722 32.4767C77.4519 38.1792 79.1349 43.7711 80.7616 49.177C81.9353 53.0779 83.1492 57.1105 83.9101 61.1697C85.3798 69.0192 85.1951 77.1515 85.0158 85.0148C84.8874 90.6853 84.7537 96.5494 85.2397 102.272C85.241 102.287 85.2393 102.302 85.2346 102.317C85.2299 102.331 85.2224 102.344 85.2125 102.356C85.2026 102.367 85.1905 102.376 85.177 102.383C85.1634 102.39 85.1487 102.393 85.1336 102.394H85.1241Z" fill="#1C056D"/>
<path d="M72.7141 138.507C72.7141 138.507 62.2914 103.231 63.9701 102.297C65.6489 101.362 106.791 101.326 106.791 101.326C106.791 101.326 102.073 138.428 100.764 138.507C99.4543 138.587 76.183 138.668 72.7141 138.507Z" fill="#1B3D9E"/>
<mask id="mask0_1467_286" style="mask-type:luminance" maskUnits="userSpaceOnUse" x="63" y="101" width="44" height="38">
<path d="M72.7141 138.507C72.7141 138.507 62.2914 103.231 63.9701 102.297C65.6489 101.362 106.791 101.326 106.791 101.326C106.791 101.326 102.073 138.428 100.764 138.507C99.4543 138.587 76.183 138.668 72.7141 138.507Z" fill="white"/>
</mask>
<g mask="url(#mask0_1467_286)">
<path d="M82.8716 98.5977C82.8716 98.5977 70.8349 114 71.5172 114.411C72.1995 114.823 106.013 121.809 106 121.398C105.986 120.987 109.438 101.326 109.438 101.326L82.8716 98.5977Z" fill="#1C056D"/>
</g>
<path d="M181.777 108.209H152.337V133.269H181.777V108.209Z" fill="#1B3D9E"/>
<path d="M191.483 133.269H143.341C142.119 133.269 141.129 134.261 141.129 135.485V136.383C141.129 137.607 142.119 138.599 143.341 138.599H191.483C192.705 138.599 193.696 137.607 193.696 136.383V135.485C193.696 134.261 192.705 133.269 191.483 133.269Z" fill="#1C056D"/>
<path d="M93.0881 20.8137C93.1186 20.7527 93.1654 20.7014 93.2233 20.6656C93.2812 20.6297 93.3479 20.6107 93.416 20.6107C99.3532 20.5703 235.741 19.6615 241.783 20.6107C244.165 20.9848 243.573 111.816 241.783 115.286C240.467 117.837 94.9069 115.595 93.2207 115.286C91.1313 114.908 90.1041 26.7808 93.0881 20.8137Z" fill="#EA4B98"/>
<path d="M96.6832 24.9912C96.6832 24.9912 96.211 102.545 98.0776 102.757C99.9441 102.97 235.975 103.82 237.143 102.757C238.31 101.694 238.776 24.3545 237.143 24.3545C235.509 24.3545 96.6832 24.9912 96.6832 24.9912Z" fill="#D4DFFF"/>
<mask id="mask1_1467_286" style="mask-type:luminance" maskUnits="userSpaceOnUse" x="96" y="24" width="143" height="80">
<path d="M96.6392 24.8212C96.6392 24.8212 96.167 102.375 98.0336 102.587C99.9002 102.8 235.931 103.65 237.099 102.587C238.266 101.524 238.732 24.1846 237.099 24.1846C235.465 24.1846 96.6392 24.8212 96.6392 24.8212Z" fill="white"/>
</mask>
<g mask="url(#mask1_1467_286)">
<path opacity="0.46" d="M185.976 22.4268L133.109 104.639H94.0317L96.6337 24.8215L185.976 22.4268Z" fill="#EA4B98"/>
<path opacity="0.46" d="M145.179 105.31L195.99 21.9854H218.287L169.334 104.873L145.179 105.31Z" fill="#EA4B98"/>
<path opacity="0.46" d="M227.717 22.2949L178.522 105.382L208.996 104.995L241.722 44.6626L241.062 22.8189L227.717 22.2949Z" fill="#EA4B98"/>
</g>
<path d="M168.427 113.874C170.253 113.117 171.12 111.02 170.363 109.191C169.607 107.362 167.514 106.494 165.688 107.251C163.862 108.009 162.995 110.106 163.752 111.934C164.508 113.763 166.601 114.632 168.427 113.874Z" fill="#1B3D9E"/>
<path opacity="0.54" d="M124.751 115.891L110.681 76.2705L114.254 76.8455C114.353 76.8615 114.446 76.9037 114.524 76.9678C114.601 77.0319 114.66 77.1155 114.694 77.2101L128.775 115.928C128.776 115.93 128.776 115.933 128.775 115.935C128.775 115.937 128.774 115.939 128.773 115.941C128.772 115.942 128.77 115.944 128.768 115.945C128.766 115.946 128.764 115.946 128.762 115.946L124.751 115.891Z" fill="#1B3D9E"/>
<path d="M79.5191 117.573C80.1134 117.467 109.304 75.9662 110.681 76.2702C112.059 76.5742 128.099 125.347 127.504 125.253C126.908 125.158 78.043 117.835 79.5191 117.573Z" fill="#FC476A"/>
<path d="M106.143 110.861C105.948 111.047 105.711 111.182 105.453 111.257C105.233 111.317 105 111.315 104.781 111.25C104.559 111.182 104.359 111.058 104.2 110.889C104.015 110.693 103.88 110.456 103.805 110.197C103.946 108.454 104.055 106.682 104.132 104.882C104.208 103.083 104.305 101.294 104.422 99.517C104.539 97.7398 104.709 95.9892 104.931 94.2652C105.143 92.5862 105.47 90.9238 105.91 89.2898C105.945 89.1608 106.064 89.0453 106.268 88.9433C106.502 88.831 106.753 88.7571 107.011 88.7243C107.327 88.6791 107.646 88.662 107.966 88.6733C108.298 88.6819 108.63 88.7232 108.955 88.7966C109.252 88.8614 109.539 88.9711 109.804 89.1218C110.035 89.2499 110.222 89.4442 110.343 89.6798C110.527 89.9328 110.638 90.3693 110.674 90.9893C110.708 91.7356 110.694 92.4833 110.632 93.2278C110.569 94.1015 110.452 95.0712 110.283 96.137C110.114 97.2027 109.914 98.2971 109.684 99.4203C109.454 100.545 109.2 101.672 108.924 102.802C108.647 103.933 108.354 105.002 108.045 106.009C107.736 107.015 107.426 107.931 107.116 108.758C106.868 109.447 106.567 110.116 106.216 110.758C106.198 110.797 106.173 110.832 106.143 110.861ZM103.121 117.476C102.813 117.243 102.551 116.955 102.349 116.625C102.162 116.327 102.047 115.99 102.011 115.64C101.984 115.301 102.058 114.961 102.224 114.663C102.425 114.314 102.719 114.027 103.073 113.833C103.619 113.5 104.166 113.374 104.713 113.454C105.261 113.534 105.682 113.866 105.978 114.452C106.255 114.956 106.393 115.524 106.379 116.099C106.367 116.688 106.111 117.197 105.61 117.627C105.447 117.784 105.251 117.903 105.036 117.974C104.821 118.045 104.593 118.066 104.368 118.036C103.906 117.977 103.472 117.782 103.121 117.476Z" fill="white"/>
<path d="M267.806 94.5449H232.483C231.775 94.5449 231.201 95.1198 231.201 95.8289V137.157C231.201 137.866 231.775 138.441 232.483 138.441H267.806C268.514 138.441 269.088 137.866 269.088 137.157V95.8289C269.088 95.1198 268.514 94.5449 267.806 94.5449Z" fill="#1B3D9E"/>
<mask id="mask2_1467_286" style="mask-type:luminance" maskUnits="userSpaceOnUse" x="231" y="94" width="39" height="45">
<path d="M267.806 94.5449H232.483C231.775 94.5449 231.201 95.1198 231.201 95.8289V137.157C231.201 137.866 231.775 138.441 232.483 138.441H267.806C268.514 138.441 269.088 137.866 269.088 137.157V95.8289C269.088 95.1198 268.514 94.5449 267.806 94.5449Z" fill="white"/>
</mask>
<g mask="url(#mask2_1467_286)">
<path d="M270.155 100.761C270.155 100.761 255.316 121.689 228.459 127.482V140.292H271.09C271.09 140.292 272.199 101.51 270.155 100.761Z" fill="#1C056D"/>
</g>
<path d="M241.213 94.5443C241.213 94.5443 240.71 58.4057 241.381 57.989C242.052 57.5724 247.162 57.1504 247.581 58.157C248 59.1635 247.581 94.5443 247.581 94.5443H241.213Z" fill="#1B3D9E"/>
<mask id="mask3_1467_286" style="mask-type:luminance" maskUnits="userSpaceOnUse" x="241" y="57" width="8" height="38">
<path d="M241.628 94.1195C241.628 94.1195 241.125 57.9809 241.796 57.5642C242.466 57.1476 247.577 56.7256 247.996 57.7322C248.415 58.7387 247.996 94.1195 247.996 94.1195H241.628Z" fill="white"/>
</mask>
<g mask="url(#mask3_1467_286)">
<path d="M245.305 63.4395V95.5528H242.911V63.5043L245.305 63.4395Z" fill="#1C056D"/>
<path d="M239.75 64.8274C239.75 64.8274 247.188 64.2619 248.225 64.7817C248.225 64.7817 248.173 57.3562 247.758 57.2C247.343 57.0437 240.242 57.0044 240.086 57.8292C239.93 58.654 239.75 64.8274 239.75 64.8274Z" fill="#D4DFFF"/>
</g>
<path d="M251.729 41.9941H265.737C265.842 41.9941 265.942 42.0359 266.016 42.1103C266.091 42.1846 266.132 42.2855 266.132 42.3906V94.5439H251.333V42.3917C251.333 42.3395 251.343 42.2878 251.363 42.2396C251.383 42.1914 251.412 42.1476 251.449 42.1106C251.486 42.0737 251.529 42.0444 251.578 42.0244C251.626 42.0044 251.677 41.9941 251.729 41.9941Z" fill="#D4DFFF"/>
<mask id="mask4_1467_286" style="mask-type:luminance" maskUnits="userSpaceOnUse" x="251" y="41" width="16" height="54">
<path d="M251.729 41.9941H265.737C265.842 41.9941 265.942 42.0359 266.016 42.1103C266.091 42.1846 266.132 42.2855 266.132 42.3906V94.5439H251.333V42.3917C251.333 42.3395 251.343 42.2878 251.363 42.2396C251.383 42.1914 251.412 42.1476 251.449 42.1106C251.486 42.0737 251.529 42.0444 251.578 42.0244C251.626 42.0044 251.677 41.9941 251.729 41.9941Z" fill="white"/>
</mask>
<g mask="url(#mask4_1467_286)">
<path opacity="0.46" d="M255.223 40.0742H250.145V96.4589H255.223V40.0742Z" fill="#EA4B98"/>
<path d="M253.198 46.0264H251.333V46.6769H253.198V46.0264Z" fill="#EA4B98"/>
<path d="M253.198 49.0225H251.333V49.673H253.198V49.0225Z" fill="#EA4B98"/>
<path d="M253.198 52.0176H251.333V52.6681H253.198V52.0176Z" fill="#EA4B98"/>
<path d="M253.198 55.0127H251.333V55.6632H253.198V55.0127Z" fill="#EA4B98"/>
<path d="M253.198 58.0088H251.333V58.6593H253.198V58.0088Z" fill="#EA4B98"/>
<path d="M253.198 61.0049H251.333V61.6554H253.198V61.0049Z" fill="#EA4B98"/>
<path d="M253.198 64.001H251.333V64.6515H253.198V64.001Z" fill="#EA4B98"/>
<path d="M253.198 66.9961H251.333V67.6466H253.198V66.9961Z" fill="#EA4B98"/>
<path d="M253.198 69.9912H251.333V70.6417H253.198V69.9912Z" fill="#EA4B98"/>
<path d="M253.198 72.9873H251.333V73.6378H253.198V72.9873Z" fill="#EA4B98"/>
<path d="M253.198 75.9824H251.333V76.6329H253.198V75.9824Z" fill="#EA4B98"/>
<path d="M253.198 78.9785H251.333V79.629H253.198V78.9785Z" fill="#EA4B98"/>
<path d="M253.198 81.9746H251.333V82.6251H253.198V81.9746Z" fill="#EA4B98"/>
<path d="M253.198 84.9697H251.333V85.6202H253.198V84.9697Z" fill="#EA4B98"/>
<path d="M253.198 87.9658H251.333V88.6163H253.198V87.9658Z" fill="#EA4B98"/>
<path d="M253.198 90.9609H251.333V91.6114H253.198V90.9609Z" fill="#EA4B98"/>
<path opacity="0.17" d="M262.933 40.0122C258.825 43.5368 257.386 49.8398 259.553 54.8025C260.585 57.1642 262.349 59.2666 262.679 61.8272C262.997 64.308 261.91 66.7165 261.05 69.0676C260.201 71.3805 259.547 73.8252 259.72 76.2837C260.001 80.3046 262.464 84.0651 262.062 88.0755C261.676 91.9274 258.684 95.2819 258.856 99.1488C258.906 99.1488 258.804 99.3188 258.856 99.3188H268.472V39.7656L269.655 39.7773L262.933 40.0122Z" fill="#EA4B98"/>
</g>
<path d="M294.89 139.051H51.9363C51.8167 139.051 51.702 139.003 51.6174 138.919C51.5329 138.834 51.4854 138.719 51.4854 138.599C51.4854 138.479 51.5329 138.364 51.6174 138.28C51.702 138.195 51.8167 138.147 51.9363 138.147H294.89C295.01 138.147 295.124 138.195 295.209 138.28C295.293 138.364 295.341 138.479 295.341 138.599C295.341 138.719 295.293 138.834 295.209 138.919C295.124 139.003 295.01 139.051 294.89 139.051Z" fill="#1C056D"/>
<path opacity="0.983" fill-rule="evenodd" clip-rule="evenodd" d="M165.556 48.5518C176.332 48.2735 184.728 52.5566 190.746 61.4008C191.289 62.1357 191.66 62.9498 191.859 63.8432C191.66 64.7366 191.289 65.5507 190.746 66.2856C184.731 75.1461 176.335 79.4113 165.556 79.0815C156.14 78.2199 148.875 73.8483 143.761 65.967C143.314 65.3205 143.014 64.6127 142.859 63.8432C143.014 63.0737 143.314 62.3659 143.761 61.7194C148.896 53.8458 156.162 49.4565 165.556 48.5518ZM166.193 53.0118C170.779 52.7854 174.296 54.5906 176.746 58.4275C179.136 63.2685 178.517 67.6754 174.89 71.6482C170.94 75.0498 166.627 75.5807 161.95 73.241C157.52 70.3096 155.841 66.2212 156.912 60.9761C158.426 56.4685 161.52 53.8137 166.193 53.0118Z" fill="#ECECEC"/>
<path opacity="0.983" fill-rule="evenodd" clip-rule="evenodd" d="M166.086 56.5159C169.228 56.187 171.72 57.2843 173.564 59.8078C174.883 62.1761 175.025 64.6185 173.988 67.1349C172.1 70.3864 169.289 71.6785 165.556 71.0108C162.561 70.1355 160.74 68.171 160.094 65.1173C159.736 60.5927 161.734 57.7256 166.086 56.5159Z" fill="#EBEBEC"/>
<path d="M167.214 30.0996C148.798 30.0996 133.813 45.0812 133.813 63.5C133.813 81.9219 148.798 96.9005 167.214 96.9005C185.63 96.9005 200.614 81.9219 200.614 63.5C200.614 45.0812 185.63 30.0996 167.214 30.0996ZM167.214 38.4497C172.61 38.4497 177.62 40.1774 181.713 43.0954L146.806 78.008C143.784 73.7745 142.16 68.7018 142.164 63.5C142.164 49.6874 153.401 38.4497 167.214 38.4497ZM167.214 88.5504C162.014 88.5537 156.944 86.9291 152.715 83.9047L187.616 48.9951C190.641 53.2263 192.267 58.2983 192.264 63.5C192.264 77.3066 181.027 88.5504 167.214 88.5504Z" fill="#FC476A"/>
</svg>
