<svg width="107" height="108" viewBox="0 0 107 108" fill="none" xmlns="http://www.w3.org/2000/svg">
<g filter="url(#filter0_d_4373_6831)">
<path fill-rule="evenodd" clip-rule="evenodd" d="M48.625 54.9173C48.625 57.6328 50.8075 59.834 53.5 59.834C56.1925 59.834 58.375 57.6328 58.375 54.9173V30.334C58.375 27.6186 56.1925 25.4173 53.5 25.4173C50.8075 25.4173 48.625 27.6186 48.625 30.334V54.9173ZM58.375 69.6122C58.375 66.8968 56.1925 64.6956 53.5 64.6956C50.8075 64.6956 48.625 66.8968 48.625 69.6122V69.6673C48.625 72.3828 50.8075 74.584 53.5 74.584C56.1925 74.584 58.375 72.3828 58.375 69.6673V69.6122ZM30.3441 2.74077C36.6753 1.32172 44.356 0.833984 53.5 0.833984C62.644 0.833984 70.3246 1.32172 76.6558 2.74077C83.0425 4.17225 88.3504 6.61598 92.4337 10.7341C96.517 14.8522 98.9399 20.2057 100.359 26.6468C101.766 33.0322 102.25 40.7785 102.25 50.0006C102.25 59.2228 101.766 66.969 100.359 73.3543C98.9399 79.7956 96.517 85.1489 92.4337 89.2671C88.3504 93.3853 83.0425 95.8289 76.6558 97.2606C70.3246 98.6796 62.644 99.1673 53.5 99.1673C44.356 99.1673 36.6753 98.6796 30.3441 97.2606C23.9576 95.8289 18.6494 93.3853 14.5662 89.2671C10.483 85.1489 8.05998 79.7956 6.64062 73.3543C5.2336 66.969 4.75 59.2228 4.75 50.0006C4.75 40.7785 5.2336 33.0322 6.64062 26.6468C8.05998 20.2057 10.483 14.8522 14.5662 10.7341C18.6494 6.61598 23.9576 4.17225 30.3441 2.74077Z" fill="white"/>
</g>
<defs>
<filter id="filter0_d_4373_6831" x="0.75" y="0.833984" width="105.5" height="106.334" filterUnits="userSpaceOnUse" color-interpolation-filters="sRGB">
<feFlood flood-opacity="0" result="BackgroundImageFix"/>
<feColorMatrix in="SourceAlpha" type="matrix" values="0 0 0 0 0 0 0 0 0 0 0 0 0 0 0 0 0 0 127 0" result="hardAlpha"/>
<feOffset dy="4"/>
<feGaussianBlur stdDeviation="2"/>
<feComposite in2="hardAlpha" operator="out"/>
<feColorMatrix type="matrix" values="0 0 0 0 0 0 0 0 0 0 0 0 0 0 0 0 0 0 0.25 0"/>
<feBlend mode="normal" in2="BackgroundImageFix" result="effect1_dropShadow_4373_6831"/>
<feBlend mode="normal" in="SourceGraphic" in2="effect1_dropShadow_4373_6831" result="shape"/>
</filter>
</defs>
</svg>
