<svg width="34" height="34" viewBox="0 0 34 34" fill="none" xmlns="http://www.w3.org/2000/svg">
<g clip-path="url(#clip0_860_1027)">
<path opacity="0.957" fill-rule="evenodd" clip-rule="evenodd" d="M16.4355 0.564453C22.6928 0.599703 27.5294 3.21169 30.9453 8.40039C33.5798 12.9426 34.0447 17.7018 32.3398 22.6777C30.4915 27.2709 27.2708 30.4916 22.6777 32.3398C17.3677 34.1357 12.3651 33.5158 7.66989 30.4805C2.59195 26.7421 0.256668 21.7063 0.664031 15.373C1.4923 9.03092 4.80155 4.52635 10.5918 1.85938C12.4741 1.08971 14.422 0.658069 16.4355 0.564453ZM16.1699 2.02539C16.3022 4.1271 16.3465 6.2521 16.3027 8.40039C14.7632 8.38811 13.2359 8.2442 11.7207 7.96875C11.5586 7.96636 11.4258 7.91104 11.3222 7.80273C11.8814 6.32956 12.645 4.9793 13.6132 3.75195C14.3182 2.94548 15.1705 2.36996 16.1699 2.02539ZM17.6308 2.02539C18.9754 2.45048 20.0489 3.24736 20.8515 4.41602C21.5766 5.46764 22.1633 6.59654 22.6113 7.80273C22.5078 7.91104 22.375 7.96636 22.2129 7.96875C20.6977 8.2442 19.1703 8.38811 17.6308 8.40039C17.6308 6.27539 17.6308 4.15039 17.6308 2.02539ZM12.7168 2.62305C11.5009 4.07989 10.5934 5.71791 9.99411 7.53711C8.75298 7.2673 7.55766 6.85777 6.40817 6.30859C8.18879 4.54129 10.2917 3.31278 12.7168 2.62305ZM21.2168 2.62305C23.6416 3.31237 25.7445 4.54089 27.5254 6.30859C26.3759 6.85777 25.1806 7.2673 23.9394 7.53711C23.3402 5.71791 22.4326 4.07989 21.2168 2.62305ZM5.41208 7.4043C6.73615 8.02652 8.1085 8.52457 9.52927 8.89844C8.83153 11.3146 8.47732 13.7827 8.46677 16.3027C6.29749 16.3027 4.12823 16.3027 1.95895 16.3027C2.15991 12.953 3.31095 9.9869 5.41208 7.4043ZM28.3886 7.4043C28.5358 7.45098 28.6575 7.5395 28.7539 7.66992C30.6975 10.2127 31.7711 13.0903 31.9746 16.3027C29.8053 16.3027 27.6361 16.3027 25.4668 16.3027C25.4562 13.7826 25.102 11.3146 24.4043 8.89844C25.7967 8.54894 27.1248 8.05089 28.3886 7.4043ZM10.8574 9.19727C12.6531 9.56157 14.4682 9.76079 16.3027 9.79492C16.3027 11.9642 16.3027 14.1334 16.3027 16.3027C14.1334 16.3027 11.9642 16.3027 9.79489 16.3027C9.86442 13.8903 10.2186 11.5218 10.8574 9.19727ZM22.9433 9.19727C23.0263 9.20238 23.0817 9.24667 23.1093 9.33008C23.7281 11.6135 24.0712 13.9377 24.1386 16.3027C21.9693 16.3027 19.8001 16.3027 17.6308 16.3027C17.6308 14.1334 17.6308 11.9642 17.6308 9.79492C19.4305 9.76962 21.2013 9.5704 22.9433 9.19727ZM1.95895 17.6309C4.12823 17.6309 6.29749 17.6309 8.46677 17.6309C8.47732 20.1509 8.83153 22.619 9.52927 25.0352C8.12677 25.3956 6.77653 25.8937 5.47848 26.5293C3.31865 23.9704 2.14548 21.0042 1.95895 17.6309ZM9.79489 17.6309C11.9642 17.6309 14.1334 17.6309 16.3027 17.6309C16.3027 19.8002 16.3027 21.9694 16.3027 24.1387C14.4887 24.1587 12.6958 24.3579 10.9238 24.7363C10.566 23.7035 10.3115 22.641 10.1601 21.5488C9.96881 20.2489 9.84702 18.9428 9.79489 17.6309ZM17.6308 17.6309C19.8001 17.6309 21.9693 17.6309 24.1386 17.6309C24.0754 20.0221 23.7211 22.3684 23.0761 24.6699C23.054 24.692 23.0318 24.7142 23.0097 24.7363C21.2367 24.3672 19.4437 24.168 17.6308 24.1387C17.6308 21.9694 17.6308 19.8002 17.6308 17.6309ZM25.4668 17.6309C27.6361 17.6309 29.8053 17.6309 31.9746 17.6309C31.788 21.0042 30.6149 23.9704 28.455 26.5293C27.157 25.8937 25.8068 25.3956 24.4043 25.0352C25.102 22.619 25.4562 20.1508 25.4668 17.6309ZM14.9746 25.5332C15.4173 25.5332 15.86 25.5332 16.3027 25.5332C16.3248 27.6587 16.3027 29.7837 16.2363 31.9082C14.9284 31.4529 13.877 30.656 13.082 29.5176C12.3569 28.466 11.7703 27.3371 11.3222 26.1309C11.3361 26.0919 11.3583 26.0587 11.3886 26.0312C12.5861 25.8098 13.7815 25.6438 14.9746 25.5332ZM17.6308 25.5332C19.1703 25.5455 20.6977 25.6894 22.2129 25.9648C22.375 25.9672 22.5078 26.0226 22.6113 26.1309C22.0522 27.604 21.2885 28.9543 20.3203 30.1816C19.6127 31.0112 18.7383 31.5867 17.6972 31.9082C17.6308 29.7837 17.6087 27.6587 17.6308 25.5332ZM12.7168 31.3105C10.2917 30.6209 8.18879 29.3923 6.40817 27.625C7.55766 27.0758 8.75298 26.6663 9.99411 26.3965C10.5934 28.2157 11.5009 29.8537 12.7168 31.3105ZM21.2168 31.3105C22.4326 29.8537 23.3402 28.2157 23.9394 26.3965C25.1806 26.6663 26.3759 27.0758 27.5254 27.625C25.7445 29.3927 23.6416 30.6212 21.2168 31.3105Z" fill="#9C9C9C"/>
</g>
<defs>
<clipPath id="clip0_860_1027">
<rect width="34" height="34" fill="white"/>
</clipPath>
</defs>
</svg>
