<svg width="48" height="48" viewBox="0 0 48 48" fill="none" xmlns="http://www.w3.org/2000/svg">
<g clip-path="url(#clip0_386_142)">
<path opacity="0.995" fill-rule="evenodd" clip-rule="evenodd" d="M21.7969 -0.046875C23.2343 -0.046875 24.6719 -0.046875 26.1094 -0.046875C34.5135 0.973866 40.8416 5.13012 45.0938 12.4219C46.6589 15.3723 47.612 18.4972 47.9531 21.7969C47.9531 23.2343 47.9531 24.6719 47.9531 26.1094C46.9324 34.5135 42.7762 40.8416 35.4844 45.0938C32.534 46.6589 29.409 47.612 26.1094 47.9531C24.6719 47.9531 23.2343 47.9531 21.7969 47.9531C13.3927 46.9324 7.06464 42.7762 2.8125 35.4844C1.24737 32.534 0.294244 29.409 -0.046875 26.1094C-0.046875 24.6719 -0.046875 23.2343 -0.046875 21.7969C0.973828 13.3928 5.13008 7.06475 12.4219 2.8125C15.3723 1.24737 18.4972 0.294244 21.7969 -0.046875Z" fill="#0082FF"/>
<path fill-rule="evenodd" clip-rule="evenodd" d="M23.0156 11.2969C27.2483 11.1409 30.8265 12.5784 33.75 15.6094C37.0635 19.6522 37.501 23.996 35.0625 28.6406C32.4233 32.6406 28.689 34.6718 23.8594 34.7344C22.6586 34.7169 21.4712 34.6075 20.2969 34.4062C18.9991 35.1422 17.7022 35.8765 16.4062 36.6094C16.288 36.5851 16.1943 36.5225 16.125 36.4219C16.1093 34.9834 16.0625 33.5458 15.9844 32.1094C12.9733 29.7906 11.4108 26.7125 11.2969 22.875C11.7178 17.8293 14.2491 14.2981 18.8906 12.2812C20.2364 11.7816 21.6114 11.4535 23.0156 11.2969Z" fill="#FEFEFF"/>
<path fill-rule="evenodd" clip-rule="evenodd" d="M22.3594 20.1094C22.4881 20.0946 22.6131 20.1103 22.7344 20.1562C23.6406 21.1249 24.5468 22.0938 25.4531 23.0625C25.6 23.1634 25.7563 23.2414 25.9219 23.2969C27.4796 22.518 29.0108 21.6899 30.5156 20.8125C30.6886 20.7067 30.8761 20.6599 31.0781 20.6719C31.0921 20.7705 31.0765 20.8642 31.0312 20.9531C29.1748 22.9658 27.2842 24.9502 25.3594 26.9062C25.2344 26.9688 25.1093 26.9688 24.9844 26.9062C24.0497 25.8777 23.0809 24.8778 22.0781 23.9062C21.9844 23.8906 21.8906 23.875 21.7969 23.8594C20.0774 24.7355 18.3587 25.6106 16.6406 26.4844C16.6259 26.3556 16.6415 26.2306 16.6875 26.1094C18.5629 24.0933 20.4536 22.0933 22.3594 20.1094Z" fill="#0A83FF"/>
</g>
<defs>
<clipPath id="clip0_386_142">
<rect width="48" height="48" fill="white"/>
</clipPath>
</defs>
</svg>
