<svg width="25.000000" height="25.000000" viewBox="0 0 25 25" fill="none" xmlns="http://www.w3.org/2000/svg" xmlns:xlink="http://www.w3.org/1999/xlink">
	<desc>
			Created with Pixso.
	</desc>
	<defs>
		<clipPath id="clip1718_2890">
			<rect id="exclamation 1" width="25.000000" height="25.000000" fill="white" fill-opacity="0"/>
		</clipPath>
	</defs>
	<rect id="exclamation 1" width="25.000000" height="25.000000" fill="#FFFFFF" fill-opacity="0"/>
	<g clip-path="url(#clip1718_2890)">
		<g opacity="0.997000">
			<path id="Vector" d="M11.35 -0.03C12.1 -0.03 12.85 -0.03 13.59 -0.03C17.97 0.5 21.27 2.67 23.48 6.46C24.3 8 24.79 9.63 24.97 11.35C24.97 12.1 24.97 12.84 24.97 13.59C24.44 17.97 22.27 21.27 18.48 23.48C16.94 24.3 15.31 24.79 13.59 24.97C12.85 24.97 12.1 24.97 11.35 24.97C6.97 24.44 3.67 22.27 1.46 18.48C0.64 16.94 0.15 15.31 -0.03 13.59C-0.03 12.84 -0.03 12.1 -0.03 11.35C0.5 6.97 2.67 3.67 6.46 1.46C8 0.64 9.63 0.15 11.35 -0.03Z" fill="#FF2147" fill-opacity="1.000000" fill-rule="evenodd"/>
		</g>
		<path id="Vector" d="M11.88 5.63C12.23 5.63 12.57 5.63 12.91 5.66C13.7 5.78 14.2 6.23 14.4 7C14.38 9.17 14.31 11.33 14.2 13.5C13.9 14.58 13.2 15.06 12.08 14.94C11.36 14.71 10.92 14.23 10.74 13.5C10.68 11.9 10.62 10.31 10.54 8.71C10.5 8.06 10.51 7.41 10.59 6.76C10.85 6.18 11.28 5.81 11.88 5.63Z" fill="#FFFEFE" fill-opacity="1.000000" fill-rule="evenodd"/>
		<path id="Vector" d="M12.18 15.79C12.93 15.74 13.53 16.01 13.96 16.62C14.41 17.53 14.25 18.32 13.5 18.99C12.56 19.52 11.74 19.38 11.03 18.57C10.42 17.23 10.8 16.3 12.18 15.79Z" fill="#FFFDFD" fill-opacity="1.000000" fill-rule="evenodd"/>
	</g>
</svg>
