<svg width="42" height="41" viewBox="0 0 42 41" fill="none" xmlns="http://www.w3.org/2000/svg">
<g clip-path="url(#clip0_348_2253)">
<path opacity="0.998" fill-rule="evenodd" clip-rule="evenodd" d="M25.9147 14.1338C25.793 15.4104 25.673 16.6916 25.5547 17.9775C25.3073 19.0525 24.6539 19.7332 23.5944 20.0195C20.4922 20.2537 17.3984 20.4005 14.3132 20.46C13.566 20.4467 12.8192 20.46 12.0729 20.5C11.877 20.5581 11.6903 20.6381 11.5129 20.7402C10.04 22.5881 8.35975 24.2164 6.47222 25.625C5.71424 25.915 5.14083 25.7148 4.752 25.0244C4.64901 23.7752 4.59568 22.5207 4.59198 21.2607C4.42716 20.6553 4.04044 20.2816 3.43183 20.1396C2.65058 19.6906 2.15718 19.0233 1.95164 18.1377C1.36573 12.9859 1.36573 7.83418 1.95164 2.68262C2.22529 1.78232 2.77202 1.11501 3.59185 0.680662C10.1792 0.245841 16.7667 0.259187 23.3544 0.720701C24.6479 0.947587 25.408 1.70833 25.6347 3.00293C26.0199 6.70877 26.1133 10.419 25.9147 14.1338Z" fill="#F8D941"/>
<path fill-rule="evenodd" clip-rule="evenodd" d="M3.59218 0.680611C2.77235 1.11495 2.22562 1.78227 1.95197 2.68256C1.36606 7.83413 1.36606 12.9858 1.95197 18.1376C2.15751 19.0232 2.65091 19.6906 3.43216 20.1396C1.80471 20.121 0.831249 19.3202 0.51178 17.7373C0.377557 16.3647 0.257541 15.0034 0.151733 13.6533C0.151733 11.4912 0.151733 9.32905 0.151733 7.16694C0.2526 5.81633 0.372615 4.45501 0.51178 3.08295C0.664146 2.05024 1.21089 1.31618 2.15199 0.880806C2.6193 0.724583 3.09936 0.657851 3.59218 0.680611Z" fill="#EDC932"/>
<path fill-rule="evenodd" clip-rule="evenodd" d="M8.39243 5.4854C8.97618 5.41054 9.41624 5.62408 9.7126 6.12602C9.88734 6.39558 9.994 6.6892 10.0326 7.00688C10.2819 8.09875 10.0285 9.04639 9.27254 9.84966C8.6427 10.1825 8.14932 10.0358 7.79235 9.40923C7.28326 8.41594 7.22992 7.4016 7.63233 6.36626C7.81746 6.00791 8.07082 5.71429 8.39243 5.4854Z" fill="#24396A"/>
<path fill-rule="evenodd" clip-rule="evenodd" d="M17.1136 5.48531C17.5972 5.41954 17.9839 5.57969 18.2738 5.96578C18.9386 7.09362 18.9652 8.24144 18.3538 9.40913C17.777 10.2184 17.1636 10.2451 16.5135 9.48921C16.0567 8.57192 15.95 7.61096 16.1935 6.6064C16.3705 6.1142 16.6772 5.7405 17.1136 5.48531Z" fill="#24396A"/>
<path fill-rule="evenodd" clip-rule="evenodd" d="M8.39244 11.6513C8.66143 11.6169 8.8881 11.697 9.07253 11.8916C10.023 13.9625 11.6365 14.8567 13.9132 14.5742C15.4088 14.1981 16.4623 13.3039 17.0736 11.8916C17.6096 11.502 17.9697 11.6221 18.1537 12.2519C17.7122 13.6023 16.8587 14.6166 15.5934 15.2949C12.9607 16.4069 10.6804 15.9131 8.75248 13.8134C8.51909 13.4798 8.30571 13.1328 8.1124 12.7724C7.87945 12.2996 7.9728 11.9259 8.39244 11.6513Z" fill="#263A6A"/>
<path opacity="0.995" fill-rule="evenodd" clip-rule="evenodd" d="M25.9147 14.1338C29.8657 14.1318 33.8128 14.2519 37.7563 14.4942C39.2532 14.4885 40.2267 15.1958 40.6767 16.6162C40.8693 18.1989 41.0161 19.7738 41.1167 21.3408C41.1167 23.5296 41.1167 25.7185 41.1167 27.9073C41.0118 29.2842 40.8918 30.6722 40.7567 32.0713C40.6306 33.3256 39.9771 34.1664 38.7964 34.5938C37.9525 34.5457 37.2457 34.826 36.6761 35.4346C36.6072 35.5617 36.5538 35.6952 36.5161 35.835C36.4895 37.0362 36.4627 38.2373 36.4361 39.4385C36.1702 40.4325 35.5435 40.7662 34.5559 40.4395C32.5353 39.0045 30.7751 37.2962 29.2752 35.3145C29.1482 35.2455 29.0148 35.192 28.8751 35.1543C26.8244 35.0521 24.7708 34.9987 22.7143 34.9942C21.0293 34.944 19.3491 34.8506 17.6737 34.7139C16.8491 34.2944 16.329 33.6271 16.1135 32.7119C15.6838 28.6376 15.5638 24.5536 15.7534 20.46C15.2734 20.46 14.7933 20.46 14.3132 20.46C17.3984 20.4005 20.4922 20.2537 23.5944 20.0196C24.6539 19.7332 25.3073 19.0525 25.5547 17.9776C25.6729 16.6917 25.793 15.4104 25.9147 14.1338Z" fill="#78D0B0"/>
<path fill-rule="evenodd" clip-rule="evenodd" d="M30.9554 17.5772C30.3331 17.5448 29.8397 17.785 29.4752 18.2979C29.1439 18.9989 28.7972 19.6929 28.4351 20.3799C27.9154 20.9934 27.2887 21.4605 26.5549 21.7813C26.0022 22.2057 25.6154 22.7529 25.3947 23.4229C25.2637 24.126 25.1437 24.82 25.0347 25.5049C25.0347 24.5974 25.0347 23.6898 25.0347 22.7823C25.0781 22.345 25.2248 21.9446 25.4747 21.5811C26.1385 21.0504 26.7786 20.4899 27.395 19.8995C27.7839 19.2278 28.1306 18.5338 28.4351 17.8174C29.2129 16.8703 30.053 16.7903 30.9554 17.5772Z" fill="#FDCBBE"/>
<path fill-rule="evenodd" clip-rule="evenodd" d="M30.9554 17.5771C31.3485 17.9434 31.4951 18.3972 31.3954 18.9384C30.9514 19.9919 30.4847 21.0329 29.9952 22.0615C29.9518 22.0663 29.9252 22.093 29.9152 22.1416C31.1142 22.2216 32.3143 22.2483 33.5157 22.2216C34.007 22.2865 34.327 22.5534 34.4758 23.0224C34.0711 23.5977 33.511 23.8246 32.7956 23.7031C32.4024 23.957 32.3758 24.2506 32.7156 24.5839C33.0133 24.6382 33.3067 24.6249 33.5957 24.5439C34.2565 24.5678 34.7099 24.8881 34.9559 25.5048C34.755 25.7141 34.515 25.8876 34.2358 26.0254C33.8691 26.117 33.4958 26.1704 33.1157 26.1855C32.7454 26.587 32.8255 26.8673 33.3557 27.0263C33.5916 26.9621 33.8317 26.9354 34.0758 26.9463C33.9596 27.0105 33.8263 27.0505 33.6757 27.0664C34.0876 27.1718 34.3544 27.4254 34.4758 27.8271C34.0243 28.4294 33.4109 28.683 32.6356 28.5879C32.3446 29.1662 32.5313 29.4465 33.1957 29.4287C33.5869 29.5797 33.8803 29.8466 34.0758 30.2295C33.857 30.5946 33.537 30.8215 33.1157 30.9101C30.3955 30.9502 27.6751 30.9635 24.9546 30.9502C24.9546 30.9235 24.9546 30.8968 24.9546 30.8701C25.0344 29.0956 25.0611 27.3071 25.0346 25.5048C25.1437 24.8199 25.2637 24.1259 25.3946 23.4228C25.6153 22.7528 26.0021 22.2056 26.5548 21.7812C27.2887 21.4604 27.9154 20.9933 28.435 20.3798C28.7971 19.6929 29.1439 18.9988 29.4752 18.2978C29.8396 17.7849 30.333 17.5447 30.9554 17.5771Z" fill="#FEDCCD"/>
<path fill-rule="evenodd" clip-rule="evenodd" d="M14.3133 20.46C14.7933 20.46 15.2734 20.46 15.7535 20.46C15.5638 24.5536 15.6839 28.6375 16.1135 32.7119C16.3291 33.627 16.8491 34.2943 17.6737 34.7139C16.1553 34.7541 15.1552 34.0601 14.6733 32.6318C14.2387 28.5847 14.1187 24.5274 14.3133 20.46Z" fill="#66B49D"/>
<path fill-rule="evenodd" clip-rule="evenodd" d="M29.9953 22.0615C31.1688 22.1149 32.3422 22.1683 33.5158 22.2217C32.3144 22.2483 31.1142 22.2216 29.9153 22.1416C29.9252 22.093 29.9518 22.0663 29.9953 22.0615Z" fill="#C0D7C1"/>
<path fill-rule="evenodd" clip-rule="evenodd" d="M25.0347 22.7822C25.0347 23.6898 25.0347 24.5974 25.0347 25.5049C25.0611 27.3071 25.0344 29.0956 24.9546 30.8701C24.9679 30.149 24.9546 29.4282 24.9146 28.708C24.7896 28.9665 24.5896 29.14 24.3146 29.2285C23.5145 29.2819 22.7143 29.2819 21.9142 29.2285C21.6084 29.1175 21.3951 28.9173 21.2742 28.6279C21.2357 26.6188 21.2757 24.6168 21.3942 22.6221C21.5176 22.4717 21.6643 22.3516 21.8342 22.2617C22.661 22.2083 23.4878 22.2083 24.3146 22.2617C24.5912 22.393 24.8313 22.5664 25.0347 22.7822Z" fill="#F0F3F5"/>
<path fill-rule="evenodd" clip-rule="evenodd" d="M34.4759 23.0225C34.662 23.7968 34.3687 24.304 33.5958 24.5439C33.3068 24.6249 33.0134 24.6383 32.7157 24.584C32.3759 24.2506 32.4025 23.9571 32.7957 23.7031C33.5111 23.8247 34.0711 23.5977 34.4759 23.0225Z" fill="#FECBBE"/>
<path fill-rule="evenodd" clip-rule="evenodd" d="M34.9559 25.5049C35.0653 26.2489 34.7719 26.7294 34.0758 26.9463C33.8317 26.9354 33.5916 26.9621 33.3557 27.0264C32.8254 26.8673 32.7454 26.5871 33.1156 26.1855C33.4958 26.1704 33.8691 26.1171 34.2358 26.0254C34.5149 25.8877 34.755 25.7141 34.9559 25.5049Z" fill="#FECBBE"/>
<path fill-rule="evenodd" clip-rule="evenodd" d="M34.4759 27.8271C34.6522 28.4763 34.4389 28.9701 33.8358 29.3086C33.6307 29.395 33.4174 29.435 33.1957 29.4287C32.5313 29.4465 32.3446 29.1662 32.6356 28.5879C33.4109 28.683 34.0244 28.4294 34.4759 27.8271Z" fill="#FECBBE"/>
<path fill-rule="evenodd" clip-rule="evenodd" d="M21.2742 28.6279C21.3951 28.9173 21.6085 29.1174 21.9143 29.2285C22.7144 29.2819 23.5145 29.2819 24.3146 29.2285C24.5896 29.14 24.7896 28.9665 24.9147 28.708C24.9547 29.4282 24.968 30.1489 24.9547 30.8701C24.9547 30.8968 24.9547 30.9235 24.9547 30.9502C24.928 31.0569 24.9013 31.1638 24.8747 31.2705C24.6618 31.4433 24.4217 31.5634 24.1546 31.6309C21.5874 32.1977 20.6272 31.1967 21.2742 28.6279Z" fill="#CFE1E6"/>
<path fill-rule="evenodd" clip-rule="evenodd" d="M34.0758 30.2295C34.2467 30.9686 33.9799 31.4891 33.2757 31.791C30.8488 31.8444 28.4217 31.8444 25.9948 31.791C25.5682 31.7243 25.1949 31.5508 24.8746 31.2705C24.9013 31.1638 24.928 31.0569 24.9546 30.9502C27.6752 30.9636 30.3955 30.9502 33.1157 30.9102C33.537 30.8215 33.8571 30.5946 34.0758 30.2295Z" fill="#FECBBE"/>
</g>
<defs>
<clipPath id="clip0_348_2253">
<rect width="40.9653" height="41" fill="white" transform="translate(0.191406)"/>
</clipPath>
</defs>
</svg>
