<svg width="136" height="111" viewBox="0 0 136 111" fill="none" xmlns="http://www.w3.org/2000/svg">
<path opacity="0.987" fill-rule="evenodd" clip-rule="evenodd" d="M83.2586 6.2761C83.8398 6.18962 84.2823 6.40986 84.5855 6.93681C74.3291 25.0403 77.8677 39.9064 95.2001 51.5352C100.907 55.0825 107.1 56.9545 113.776 57.1512C124.656 63.1938 128.968 72.4435 126.712 84.9013C123.943 93.827 118.082 99.6631 109.132 102.41C97.2215 103.356 85.2801 103.686 73.3074 103.401C73.0865 93.9208 73.3081 84.4507 73.9708 74.9906C76.8116 76.1931 79.6862 77.2938 82.5952 78.2942C86.181 76.8829 87.1761 74.46 85.5806 71.0263C80.1625 66.0709 74.745 61.1155 69.3269 56.1602C67.1489 55.6693 65.1588 56.1098 63.3562 57.4816C58.8229 61.9965 54.2895 66.5116 49.7562 71.0263C47.9173 74.4125 48.8018 76.8353 52.4099 78.2942C55.3558 77.1029 58.3411 76.0021 61.366 74.9906C62.2433 84.3926 62.2433 93.7523 61.366 103.071C50.7513 103.512 40.1367 103.512 29.5221 103.071C14.3439 99.8428 7.1569 90.4824 7.96109 74.9906C9.67562 66.5143 14.4301 60.3479 22.2245 56.4905C22.9018 38.5237 32.1896 30.2647 50.0879 31.7137C51.1502 31.8943 52.1453 32.2247 53.0733 32.7048C57.0392 16.9714 67.1012 8.16178 83.2586 6.2761Z" fill="#EA4B98"/>
<path opacity="0.999" fill-rule="evenodd" clip-rule="evenodd" d="M83.2576 6.27774C97.308 5.03983 108.254 10.3256 116.097 22.1349C118.865 28.2462 119.75 34.6331 118.75 41.2957C117.686 46.7857 116.028 52.0714 113.775 57.1529C107.099 56.9561 100.906 55.0841 95.199 51.5368C77.8667 39.9081 74.328 25.0419 84.5844 6.93846C84.2812 6.4115 83.8387 6.19127 83.2576 6.27774Z" fill="#EA4B98"/>
</svg>
