<svg width="20" height="20" viewBox="0 0 20 20" fill="none" xmlns="http://www.w3.org/2000/svg">
<g clip-path="url(#clip0_3608_1292)">
<path d="M17.7051 1.72218C15.4091 -0.574234 11.6932 -0.573883 9.39757 1.72218L0.763487 10.3563C0.508525 10.611 0.508525 11.0245 0.763487 11.2793C1.01845 11.5342 1.43153 11.5342 1.68646 11.2793L10.3205 2.64519C12.1063 0.859401 14.9961 0.859167 16.7821 2.64519C18.5673 4.43042 18.5681 7.32094 16.7821 9.10696L8.14803 17.741C6.87533 19.0133 4.80498 19.0133 3.53271 17.741C2.2572 16.4655 2.25712 14.401 3.53271 13.1255L12.1668 4.4914C12.9318 3.7264 14.1707 3.72589 14.9362 4.4914C15.6994 5.25484 15.6994 6.49738 14.9362 7.26082L6.30182 15.8948C6.04709 16.1495 5.63295 16.1487 5.37861 15.8948C5.12404 15.6402 5.12404 15.2262 5.37861 14.9716L13.0897 7.26051C13.3447 7.00578 13.3447 6.5923 13.0897 6.33754C12.8348 6.08258 12.4217 6.08258 12.1667 6.33754L4.4556 14.0486C3.69197 14.8121 3.69197 16.0544 4.4556 16.8181C5.21916 17.5812 6.46162 17.5814 7.22479 16.8178L15.8591 8.18375C17.1314 6.91125 17.1314 4.84089 15.8591 3.56843C14.5836 2.29296 12.519 2.29272 11.2438 3.56843L2.60962 12.2024C0.823838 13.9878 0.823604 16.8784 2.60962 18.664C4.39099 20.4453 7.28955 20.4454 9.07092 18.664L17.705 10.0299C20.001 7.73402 20.0011 4.0182 17.7051 1.72218Z" fill="white"/>
</g>
<defs>
<clipPath id="clip0_3608_1292">
<rect width="20" height="20" fill="white"/>
</clipPath>
</defs>
</svg>
