<svg width="24" height="24" viewBox="0 0 24 24" fill="none" xmlns="http://www.w3.org/2000/svg">
<path opacity="0.994" fill-rule="evenodd" clip-rule="evenodd" d="M19.1016 4.85161C17.1016 4.85161 15.1016 4.85161 13.1016 4.85161C12.933 3.58348 13.3236 2.52879 14.2735 1.68755C15.1685 1.0701 16.1372 0.929479 17.1797 1.26567C18.2147 1.68691 18.8475 2.44472 19.0782 3.53911C19.1016 3.97633 19.1094 4.41383 19.1016 4.85161Z" fill="#C38F41"/>
<path opacity="0.991" fill-rule="evenodd" clip-rule="evenodd" d="M10.8516 6.35161C8.85159 6.35161 6.85162 6.35161 4.85161 6.35161C4.68299 5.08345 5.07361 4.02879 6.02348 3.18755C6.91847 2.5701 7.88719 2.42948 8.92973 2.76567C9.96469 3.18691 10.5975 3.94472 10.8282 5.03911C10.8516 5.47631 10.8594 5.91384 10.8516 6.35161Z" fill="#038C65"/>
<path opacity="0.996" fill-rule="evenodd" clip-rule="evenodd" d="M13.1015 4.85156C15.1015 4.85156 17.1015 4.85156 19.1015 4.85156C19.3089 6.29513 18.8167 7.42013 17.625 8.22656C17.6016 8.47608 17.5937 8.72606 17.6015 8.97656C17.6344 10.3415 16.9782 10.9431 15.6328 10.7812C14.861 10.4339 14.5172 9.83227 14.6015 8.97656C14.6093 8.72606 14.6015 8.47608 14.5781 8.22656C13.3863 7.42013 12.8941 6.29513 13.1015 4.85156Z" fill="#F1F1F1"/>
<path opacity="0.996" fill-rule="evenodd" clip-rule="evenodd" d="M4.85153 6.35156C6.85154 6.35156 8.85151 6.35156 10.8515 6.35156C11.0589 7.79513 10.5667 8.92013 9.37496 9.72656C9.35157 9.97608 9.34375 10.2261 9.35153 10.4766C9.35893 11.925 8.65581 12.511 7.24215 12.2344C6.56757 11.8462 6.27067 11.2603 6.35153 10.4766C6.35931 10.2261 6.35148 9.97608 6.32809 9.72656C5.13634 8.92013 4.64415 7.79513 4.85153 6.35156Z" fill="#F1F1F1"/>
<path opacity="0.995" fill-rule="evenodd" clip-rule="evenodd" d="M14.6016 8.97657C14.5173 9.83227 14.861 10.4339 15.6328 10.7813C16.9782 10.9431 17.6345 10.3415 17.6016 8.97657C18.5392 8.96874 19.4767 8.97657 20.4141 9.00001C22.1241 9.39737 23.0694 10.4677 23.25 12.2109C23.2813 13.6641 23.2813 15.1172 23.25 16.5703C23.1061 17.9686 22.3483 18.8123 20.9766 19.1016C19.8047 19.1016 18.6328 19.1016 17.4609 19.1016C18.4456 18.8044 18.8441 18.1481 18.6562 17.1328C18.4288 16.5695 18.0148 16.2336 17.4141 16.125C16.9769 16.1016 16.5393 16.0938 16.1016 16.1016C15.7266 16.1016 15.3516 16.1016 14.9766 16.1016C14.9844 15.1952 14.9766 14.2889 14.9531 13.3828C14.6061 11.7546 13.614 10.7936 11.9766 10.5C11.1642 10.4766 10.3517 10.4687 9.53906 10.4766C10.0687 9.65944 10.8187 9.16726 11.7891 9.00001C12.7264 8.97657 13.6639 8.96874 14.6016 8.97657Z" fill="#038C65"/>
<path opacity="0.999" fill-rule="evenodd" clip-rule="evenodd" d="M6.35146 10.4766C6.2706 11.2603 6.5675 11.8462 7.24208 12.2344C8.65574 12.511 9.35886 11.9251 9.35146 10.4766C9.41394 10.4766 9.47647 10.4766 9.53896 10.4766C10.3516 10.4687 11.1641 10.4766 11.9765 10.5C13.6138 10.7936 14.606 11.7546 14.953 13.3828C14.9765 14.2889 14.9843 15.1952 14.9765 16.1016C14.9765 16.3516 14.9765 16.6016 14.9765 16.8516C15.0355 17.6189 14.9573 18.3689 14.7421 19.1016C14.2996 19.9088 13.6277 20.4089 12.7265 20.6016C11.5546 20.6016 10.3827 20.6016 9.21083 20.6016C10.2561 20.2612 10.6389 19.5581 10.3593 18.4922C10.1423 18.0433 9.79077 17.7542 9.30458 17.625C8.82046 17.6016 8.3361 17.5938 7.85146 17.6016C6.47647 17.6016 5.10144 17.6016 3.72646 17.6016C3.73427 16.4296 3.72646 15.2577 3.70302 14.0859C3.55821 13.8607 3.3629 13.806 3.11708 13.9219C3.06077 13.9642 3.0217 14.0189 2.99989 14.0859C2.96864 15.4141 2.96864 16.7422 2.99989 18.0703C3.01271 18.1561 3.05177 18.2264 3.11708 18.2813C4.69114 18.3509 6.26924 18.3744 7.85146 18.3516C7.85146 19.1016 7.85146 19.8516 7.85146 20.6016C6.22644 20.6016 4.60146 20.6016 2.97646 20.6016C1.87459 20.3823 1.14803 19.7417 0.796768 18.6797C0.743204 17.7523 0.719767 16.8226 0.726456 15.8906C0.73427 15.0234 0.742079 14.1563 0.749893 13.2891C1.08583 11.7656 2.01552 10.836 3.53896 10.5C4.47632 10.4766 5.41382 10.4687 6.35146 10.4766Z" fill="#C28F41"/>
<path fill-rule="evenodd" clip-rule="evenodd" d="M20.4609 12.3519C20.679 12.3278 20.843 12.4059 20.9531 12.5863C20.9843 13.9144 20.9843 15.2426 20.9531 16.5707C20.9296 16.7191 20.8437 16.8051 20.6953 16.8285C20.2421 16.8598 19.789 16.8598 19.3359 16.8285C19.1107 16.6837 19.056 16.4884 19.1718 16.2426C19.2142 16.1863 19.2688 16.1472 19.3359 16.1254C19.6324 16.1019 19.9292 16.0942 20.2265 16.1019C20.2187 14.93 20.2265 13.7581 20.25 12.5863C20.298 12.4838 20.3683 12.4057 20.4609 12.3519Z" fill="#02755F"/>
<path fill-rule="evenodd" clip-rule="evenodd" d="M7.85156 17.602C7.85156 17.852 7.85156 18.102 7.85156 18.352C6.26935 18.3748 4.69125 18.3514 3.11719 18.2817C3.05188 18.2268 3.01282 18.1565 3 18.0708C2.96875 16.7426 2.96875 15.4145 3 14.0864C3.02181 14.0193 3.06087 13.9646 3.11719 13.9223C3.36301 13.8064 3.55832 13.8611 3.70313 14.0864C3.72656 15.2582 3.73437 16.43 3.72656 17.602C5.10155 17.602 6.47658 17.602 7.85156 17.602Z" fill="#AF7A35"/>
<path fill-rule="evenodd" clip-rule="evenodd" d="M12.2109 13.8519C12.429 13.8278 12.593 13.9059 12.7031 14.0863C12.7343 15.4301 12.7343 16.7738 12.7031 18.1176C12.6593 18.2395 12.5733 18.3099 12.4453 18.3285C11.9921 18.3598 11.539 18.3598 11.0859 18.3285C10.8607 18.1837 10.806 17.9884 10.9218 17.7426C10.9642 17.6863 11.0188 17.6472 11.0859 17.6254C11.3824 17.6019 11.6792 17.5942 11.9765 17.6019C11.9687 16.43 11.9765 15.2581 12 14.0863C12.048 13.9838 12.1183 13.9057 12.2109 13.8519Z" fill="#AF7A35"/>
<path fill-rule="evenodd" clip-rule="evenodd" d="M14.9766 16.1016C15.3516 16.1016 15.7266 16.1016 16.1016 16.1016C16.1016 16.3515 16.1016 16.6016 16.1016 16.8516C15.7266 16.8516 15.3516 16.8516 14.9766 16.8516C14.9766 16.6016 14.9766 16.3515 14.9766 16.1016Z" fill="#02755E"/>
<path fill-rule="evenodd" clip-rule="evenodd" d="M16.1016 16.1015C16.5393 16.0938 16.9769 16.1015 17.4141 16.125C18.0148 16.2335 18.4288 16.5695 18.6562 17.1328C18.8441 18.1481 18.4456 18.8044 17.4609 19.1015C17.0078 19.1015 16.5547 19.1015 16.1016 19.1015C16.1016 18.3515 16.1016 17.6015 16.1016 16.8515C16.1016 16.6016 16.1016 16.3515 16.1016 16.1015Z" fill="#F1F1F1"/>
<path fill-rule="evenodd" clip-rule="evenodd" d="M14.9766 16.8516C15.3516 16.8516 15.7266 16.8516 16.1016 16.8516C16.1016 17.6016 16.1016 18.3516 16.1016 19.1016C15.6484 19.1016 15.1953 19.1016 14.7422 19.1016C14.9574 18.3689 15.0356 17.6189 14.9766 16.8516Z" fill="#058C64"/>
<path fill-rule="evenodd" clip-rule="evenodd" d="M7.85156 17.6015C8.3362 17.5938 8.82056 17.6015 9.30469 17.625C9.79088 17.7542 10.1424 18.0433 10.3594 18.4922C10.639 19.5581 10.2562 20.2612 9.21094 20.6015C8.7578 20.6015 8.3047 20.6015 7.85156 20.6015C7.85156 19.8515 7.85156 19.1015 7.85156 18.3515C7.85156 18.1016 7.85156 17.8515 7.85156 17.6015Z" fill="#F1F1F1"/>
<path fill-rule="evenodd" clip-rule="evenodd" d="M14.7422 19.1016C15.1953 19.1016 15.6484 19.1016 16.1016 19.1016C16.5547 19.1016 17.0078 19.1016 17.4609 19.1016C18.6328 19.1016 19.8047 19.1016 20.9766 19.1016C20.9844 19.7892 20.9766 20.4767 20.9531 21.1641C20.9297 21.25 20.875 21.3047 20.7891 21.3281C18.1016 21.3516 15.4141 21.3594 12.7266 21.3516C12.7266 21.1016 12.7266 20.8515 12.7266 20.6016C13.6278 20.4089 14.2997 19.9088 14.7422 19.1016Z" fill="#02755E"/>
<path fill-rule="evenodd" clip-rule="evenodd" d="M2.97656 20.6016C4.60156 20.6016 6.22654 20.6016 7.85156 20.6016C8.3047 20.6016 8.75779 20.6016 9.21094 20.6016C10.3828 20.6016 11.5547 20.6016 12.7266 20.6016C12.7266 20.8515 12.7266 21.1016 12.7266 21.3516C12.7343 21.7893 12.7266 22.2269 12.7031 22.6641C12.6797 22.75 12.625 22.8047 12.5391 22.8281C9.41404 22.8594 6.28908 22.8594 3.16406 22.8281C3.07812 22.8047 3.02344 22.75 3 22.6641C2.97657 21.9767 2.96875 21.2892 2.97656 20.6016Z" fill="#AF7934"/>
</svg>
