<svg width="30.000000" height="30.000000" viewBox="0 0 30 30" fill="none" xmlns="http://www.w3.org/2000/svg" xmlns:xlink="http://www.w3.org/1999/xlink">
	<desc>
			Created with Pixso.
	</desc>
	<defs>
		<clipPath id="clip1778_27">
			<rect id="auto-fix-high-icon-256x256-up505m4y 1" width="30.000000" height="30.000000" fill="white" fill-opacity="0"/>
		</clipPath>
	</defs>
	<rect id="auto-fix-high-icon-256x256-up505m4y 1" width="30.000000" height="30.000000" fill="#FFFFFF" fill-opacity="0"/>
	<g clip-path="url(#clip1778_27)">
		<g opacity="0.840000">
			<path id="Vector" d="M5.68 -0.06C5.8 -0.06 5.91 -0.06 6.03 -0.06C7.11 0.58 8.18 1.25 9.25 1.93C10.32 1.25 11.4 0.58 12.48 -0.06C12.59 -0.06 12.71 -0.06 12.83 -0.06C12.79 0.36 12.66 0.75 12.42 1.11C11.87 1.89 11.38 2.71 10.95 3.57C11.48 4.47 12.01 5.37 12.53 6.26C12.75 6.55 12.83 6.86 12.77 7.2C11.58 6.61 10.41 5.98 9.25 5.33C8.11 5.97 6.96 6.59 5.8 7.2C5.67 7.1 5.65 6.98 5.74 6.85C6.25 5.7 6.86 4.61 7.55 3.57C6.82 2.41 6.19 1.2 5.68 -0.06Z" fill="#FFFFFF" fill-opacity="1.000000" fill-rule="evenodd"/>
		</g>
		<g opacity="0.839000">
			<path id="Vector" d="M22.67 -0.06C22.83 -0.06 22.98 -0.06 23.14 -0.06C24.13 0.65 25.19 1.27 26.3 1.81C27.43 1.23 28.52 0.61 29.58 -0.06C29.7 -0.06 29.82 -0.06 29.94 -0.06C29.94 0.05 29.94 0.17 29.94 0.29C29.27 1.35 28.64 2.44 28.06 3.57C28.6 4.68 29.22 5.74 29.94 6.73C29.94 6.89 29.94 7.05 29.94 7.2C28.71 6.61 27.5 5.98 26.3 5.33C25.13 6.04 23.92 6.66 22.67 7.2C23.21 5.96 23.83 4.75 24.55 3.57C23.89 2.37 23.26 1.16 22.67 -0.06Z" fill="#FFFFFF" fill-opacity="1.000000" fill-rule="evenodd"/>
		</g>
		<g opacity="0.941000">
			<path id="Vector" d="M5.44 29.94C5.01 29.94 4.58 29.94 4.16 29.94C2.71 28.57 1.3 27.16 -0.06 25.72C-0.06 25.29 -0.06 24.86 -0.06 24.43C5.65 18.67 11.39 12.93 17.16 7.2C17.8 6.88 18.42 6.9 19.04 7.26C20.27 8.45 21.46 9.68 22.61 10.95C22.97 11.53 22.99 12.12 22.67 12.71C16.94 18.48 11.2 24.22 5.44 29.94ZM17.87 9.08C18.91 9.93 19.89 10.87 20.8 11.89C19.76 12.83 18.79 13.82 17.87 14.88C17.75 14.94 17.63 15 17.51 15.05C16.58 14.19 15.68 13.3 14.82 12.36C15.84 11.26 16.85 10.17 17.87 9.08Z" fill="#FFFFFF" fill-opacity="1.000000" fill-rule="evenodd"/>
		</g>
		<g opacity="0.840000">
			<path id="Vector" d="M29.94 17.05C29.94 17.16 29.94 17.28 29.94 17.4C29.29 18.47 28.63 19.55 27.94 20.62C28.63 21.69 29.29 22.77 29.94 23.84C29.94 23.96 29.94 24.08 29.94 24.19C28.68 23.68 27.47 23.06 26.3 22.32C25.26 23.02 24.17 23.62 23.02 24.14C22.89 24.22 22.77 24.2 22.67 24.08C23.28 22.92 23.91 21.76 24.55 20.62C23.89 19.46 23.27 18.29 22.67 17.1C22.83 17.03 22.98 17.03 23.14 17.1C24.21 17.69 25.26 18.29 26.3 18.92C27.16 18.49 27.98 18 28.76 17.46C29.12 17.22 29.51 17.08 29.94 17.05Z" fill="#FFFFFF" fill-opacity="1.000000" fill-rule="evenodd"/>
		</g>
	</g>
</svg>
