<svg width="30" height="30" viewBox="0 0 30 30" fill="none" xmlns="http://www.w3.org/2000/svg">
<path d="M1.875 11.2084C1.875 7.94136 1.875 6.30787 2.51079 5.06005C3.07006 3.96245 3.96245 3.07006 5.06005 2.51079C6.30787 1.875 7.94136 1.875 11.2084 1.875H18.7916C22.0586 1.875 23.6921 1.875 24.9399 2.51079C26.0376 3.07006 26.93 3.96245 27.4892 5.06005C28.125 6.30787 28.125 7.94136 28.125 11.2084V18.7916C28.125 22.0586 28.125 23.6921 27.4892 24.9399C26.93 26.0376 26.0376 26.93 24.9399 27.4892C23.6921 28.125 22.0586 28.125 18.7916 28.125H11.2084C7.94136 28.125 6.30787 28.125 5.06005 27.4892C3.96245 26.93 3.07006 26.0376 2.51079 24.9399C1.875 23.6921 1.875 22.0586 1.875 18.7916V11.2084Z" fill="white"/>
<path d="M20.6744 7.99023L15.0615 12.3707L9.32031 7.99023V7.99142L9.32725 7.99734V14.1311L14.9968 18.6062L20.6744 14.3039V7.99023Z" fill="#EA4335"/>
<path d="M22.1459 6.92474L20.6719 7.99023V14.3039L25.3102 10.7428V8.59757C25.3102 8.59757 24.7472 5.53367 22.1459 6.92474Z" fill="#FBBC05"/>
<path d="M20.6719 14.3038V22.4927H24.2269C24.2269 22.4927 25.2385 22.3886 25.3113 21.2355V10.7427L20.6719 14.3038Z" fill="#34A853"/>
<path d="M9.32751 22.4999V14.1309L9.32031 14.125L9.32751 22.4999Z" fill="#C5221F"/>
<path d="M9.31888 7.99126L7.85293 6.93168C5.25168 5.54061 4.6875 8.60334 4.6875 8.60334V10.7485L9.31888 14.125V7.99126Z" fill="#C5221F"/>
<path d="M9.32031 7.9917V14.1255L9.32751 14.1314V7.99762L9.32031 7.9917Z" fill="#C5221F"/>
<path d="M4.6875 10.75V21.2428C4.75918 22.3971 5.77193 22.5002 5.77193 22.5002H9.32697L9.31888 14.1253L4.6875 10.75Z" fill="#4285F4"/>
</svg>
