<svg width="21" height="23" viewBox="0 0 21 23" fill="none" xmlns="http://www.w3.org/2000/svg">
<path d="M20.0536 0.46372L1.34058 0.236816L1.11179 19.1048L2.90183 19.1265L2.86773 21.9395L5.68799 19.1603L19.8248 19.3317L20.0536 0.46372Z" fill="white"/>
<path d="M20.0539 0.463883C20.0539 0.463883 20.0525 0.577159 20.0498 0.799934C20.0471 1.02271 20.043 1.36631 20.0378 1.79676C20.027 2.68409 20.0114 3.97165 20.0102 5.6106C19.9701 8.92203 19.939 13.6459 19.8888 19.3326L19.8879 19.4081L19.8055 19.4071L5.66871 19.2357L5.73648 19.2063L2.91621 21.9856L2.74942 22.1497L2.78609 19.1252L2.88227 19.2246L1.00985 19.2019L1.01104 19.1037C1.09505 12.175 1.17325 5.72585 1.23996 0.224425L1.24097 0.141357L1.32335 0.142356L14.9278 0.352633L18.7099 0.417374L19.7023 0.429407L20.0356 0.433449L19.6835 0.429181L18.6762 0.416966L14.8749 0.393532L1.32175 0.274511L1.40519 0.188665C1.33862 5.67876 1.26042 12.1279 1.17627 19.0679L1.08009 18.9686L2.95251 18.9913L2.91722 21.9025L2.74957 21.8287L5.57354 19.0533L5.60008 19.0272L5.64127 19.0277L19.7781 19.1991L19.6909 19.2811C19.7783 13.6176 19.8503 8.91302 19.9016 5.61306C19.9216 3.96679 19.9373 2.67167 19.9705 1.78084C19.9758 1.34662 19.9799 1.00679 19.9828 0.76891C19.9857 0.531031 20.0539 0.463883 20.0539 0.463883Z" fill="#007C00"/>
<path d="M11.5807 9.79836C12.0904 9.57865 12.5251 9.21312 12.8309 8.747C13.1368 8.28088 13.3005 7.7346 13.3017 7.17574C13.3269 6.81262 13.2786 6.44813 13.1596 6.10449C13.0406 5.76085 12.8534 5.44526 12.6095 5.17694C12.3656 4.90863 12.0701 4.69322 11.7409 4.54384C11.4117 4.39445 11.0558 4.31423 10.6948 4.30806C10.3338 4.30188 9.97538 4.36989 9.6413 4.50793C9.30722 4.64596 9.0045 4.85114 8.7516 5.11096C8.4987 5.37078 8.30091 5.67979 8.17028 6.01916C8.03966 6.35853 7.97894 6.72115 7.99182 7.08492C7.97433 7.64804 8.1227 8.20373 8.4182 8.68183C8.71371 9.15994 9.1431 9.53901 9.65216 9.7712C5.55903 10.3409 5.69197 14.8213 5.69197 14.8213L15.3457 14.9799C15.3457 14.9799 15.6214 10.4629 11.5807 9.79836Z" fill="#006400"/>
</svg>
