<svg width="22" height="23" viewBox="0 0 22 23" fill="none" xmlns="http://www.w3.org/2000/svg">
<path d="M19.5319 0.660305L2.54134 0.454287C2.13145 0.449317 1.73635 0.608723 1.44298 0.897444C1.1496 1.18616 0.981966 1.58055 0.976955 1.99384L0.785409 17.7908C0.782928 17.9955 0.820445 18.1986 0.89582 18.3886C0.971196 18.5786 1.08295 18.7518 1.22471 18.8982C1.36646 19.0446 1.53545 19.1615 1.72201 19.2421C1.90856 19.3227 2.10904 19.3654 2.312 19.3679L16.2606 19.537L19.02 22.3909L19.0542 19.5709L19.3026 19.5739C19.5055 19.5763 19.707 19.5385 19.8954 19.4624C20.0839 19.3864 20.2556 19.2737 20.4009 19.1307C20.5462 18.9878 20.6621 18.8174 20.7421 18.6292C20.822 18.4411 20.8645 18.239 20.8669 18.0343L21.0585 2.23733C21.0635 1.82405 20.9055 1.42571 20.6192 1.12996C20.3329 0.834215 19.9418 0.665275 19.5319 0.660305Z" fill="white"/>
<path d="M19.5319 0.660449C19.6571 0.654127 19.7825 0.666757 19.904 0.697913C20.2729 0.790614 20.5949 1.01747 20.808 1.33491C20.9635 1.56686 21.055 1.83636 21.073 2.11574C21.0693 2.42213 21.0654 2.74828 21.0611 3.10408C21.0524 3.81569 21.0425 4.63601 21.0314 5.55188C21.0091 7.39019 20.9821 9.61396 20.9512 12.1639C20.9357 13.4388 20.9192 14.7995 20.902 16.226C20.8976 16.5818 20.8932 16.9442 20.8888 17.3098L20.8821 17.8633C20.888 18.056 20.8681 18.2486 20.8229 18.4359C20.7211 18.8202 20.4849 19.1544 20.1579 19.3768C19.989 19.4884 19.8006 19.5666 19.6028 19.6073C19.4071 19.6381 19.2087 19.6479 19.011 19.6364L19.087 19.5615C19.0763 20.4444 19.0647 21.4031 19.0528 22.3816L19.0506 22.5694L18.9182 22.436L16.1554 19.5853L16.214 19.6091L2.25559 19.4398C1.90063 19.4221 1.56109 19.2881 1.28848 19.0583C1.01587 18.8284 0.825039 18.5152 0.744929 18.1661C0.708518 17.9961 0.694149 17.822 0.702187 17.6483L0.743891 14.2088C0.77533 11.6161 0.80565 9.11559 0.834531 6.73369C0.848992 5.54109 0.863067 4.38035 0.876755 3.25144L0.891975 1.99625C0.895906 1.85293 0.916274 1.71054 0.952674 1.57193C1.02904 1.29897 1.17482 1.05086 1.37555 0.852165C1.57629 0.653473 1.82502 0.511099 2.0971 0.43916C2.35845 0.385568 2.6259 0.368853 2.8918 0.389489L5.14959 0.416866L7.95629 0.450899L16.4153 0.579823L18.7023 0.624035L19.3002 0.631285C19.4342 0.63291 19.5028 0.633742 19.5028 0.633742L19.3002 0.631285L18.7023 0.624035L16.4151 0.596302L7.95541 0.523377L2.9138 0.462245C2.6598 0.443672 2.40447 0.460532 2.15503 0.512352C1.90789 0.57848 1.68211 0.708439 1.49997 0.8894C1.31783 1.07036 1.18563 1.29608 1.1164 1.54426C1.06185 1.80825 1.04209 2.07834 1.05765 2.34752L1.04746 3.18761C1.03375 4.31871 1.01967 5.47946 1.00524 6.66987C0.976355 9.05177 0.946036 11.5523 0.914597 14.145L0.878645 17.1101C0.858042 17.4399 0.868252 17.771 0.909139 18.0989C0.979617 18.4129 1.15042 18.6948 1.39529 18.9014C1.64016 19.108 1.94555 19.2277 2.26452 19.2422L4.29359 19.2668L16.2621 19.4119L16.2948 19.4123L16.3174 19.4357L19.0768 22.2896L18.9422 22.344C18.9542 21.3557 18.9657 20.4069 18.9764 19.5239L18.9773 19.4515L19.0524 19.4524C19.2404 19.4628 19.4289 19.453 19.6148 19.4229C19.7941 19.3889 19.9649 19.3193 20.1173 19.2182C20.422 19.0199 20.6433 18.7151 20.7388 18.3624C20.7822 18.1871 20.8009 18.0066 20.7943 17.826L20.8143 16.1788C20.8316 14.749 20.8481 13.3916 20.8635 12.1167C20.8945 9.56677 20.9214 7.34299 20.9633 5.50492C20.9744 4.58905 20.9844 3.76873 20.993 3.05713C20.9973 2.70132 21.0014 2.36858 21.005 2.06878C20.9861 1.74713 20.868 1.43949 20.6671 1.18892C20.4662 0.938347 20.1927 0.757376 19.8847 0.671324C19.7674 0.660805 19.6496 0.65717 19.5319 0.660449Z" fill="#007C00"/>
<path d="M15.4539 4.40348L6.79199 4.29845C5.40791 4.28167 4.27217 5.39938 4.25525 6.79493L4.17583 13.3443C4.15891 14.7399 5.26722 15.8848 6.6513 15.9016L15.3132 16.0066C16.6973 16.0234 17.833 14.9057 17.85 13.5101L17.9294 6.96073C17.9463 5.56518 16.838 4.42027 15.4539 4.40348Z" fill="#006400"/>
<path d="M10.1213 12.6915C10.0398 12.738 9.94753 12.7621 9.85384 12.7611C9.76015 12.7602 9.66837 12.7344 9.58774 12.6863C9.50711 12.6382 9.4405 12.5695 9.39463 12.4872C9.34875 12.4048 9.32524 12.3117 9.32646 12.2173L9.37703 8.04646C9.3781 7.952 9.40387 7.85948 9.45173 7.77826C9.49958 7.69704 9.56784 7.62998 9.64961 7.58385C9.73138 7.53771 9.82377 7.51414 9.91745 7.51551C10.0111 7.51688 10.1028 7.54314 10.1832 7.59164L11.9611 8.65441L13.739 9.72046C13.82 9.76797 13.887 9.83631 13.9332 9.9185C13.9794 10.0007 14.0032 10.0938 14.002 10.1882C14.0009 10.2827 13.9749 10.3752 13.9267 10.4562C13.8785 10.5373 13.8098 10.604 13.7277 10.6495L11.9278 11.6722L10.1213 12.6915Z" fill="white"/>
</svg>
