<svg width="50" height="50" viewBox="0 0 50 50" fill="none" xmlns="http://www.w3.org/2000/svg">
<g clip-path="url(#clip0_732_390)">
<path fill-rule="evenodd" clip-rule="evenodd" d="M49.9512 7.27499C49.9512 8.12134 49.9512 8.96769 49.9512 9.81405C49.487 12.1747 48.2826 14.0628 46.3379 15.4781C44.3896 16.574 42.3063 16.9484 40.0879 16.6012C39.4915 16.4733 38.9381 16.2618 38.4277 15.9664C40.6869 15.156 42.2656 13.6261 43.1641 11.3765C43.3892 10.7048 43.5356 10.0212 43.6035 9.32577C44.1338 9.35887 44.6547 9.31005 45.166 9.17928C45.6098 8.63934 45.5446 8.18361 44.9707 7.8121C44.5487 7.76337 44.1256 7.74709 43.7012 7.76327C43.293 4.62262 41.6979 2.31142 38.916 0.829674C42.723 -0.369951 45.8969 0.57406 48.4375 3.66171C49.2161 4.7618 49.7207 5.96623 49.9512 7.27499Z" fill="#EA4B98"/>
<path opacity="0.996" fill-rule="evenodd" clip-rule="evenodd" d="M38.9161 0.830078C41.698 2.31183 43.293 4.62303 43.7012 7.76367C43.3106 7.76367 42.92 7.76367 42.5293 7.76367C42.5455 6.94922 42.5293 6.13542 42.4805 5.32227C42.196 4.81549 41.7891 4.70155 41.2598 4.98047C41.1425 5.0686 41.0611 5.18254 41.0157 5.32227C40.9668 6.13542 40.9506 6.94922 40.9668 7.76367C40.1524 7.74742 39.3386 7.7637 38.5254 7.8125C38.0337 8.10677 37.9198 8.51366 38.1836 9.0332C38.3062 9.1026 38.4201 9.18398 38.5254 9.27734C39.3386 9.32614 40.1524 9.34242 40.9668 9.32617C40.9506 10.1081 40.9668 10.8894 41.0157 11.6699C41.2576 12.251 41.6644 12.3975 42.2364 12.1094C42.3537 12.0212 42.4351 11.9073 42.4805 11.7676C42.5293 10.9544 42.5455 10.1406 42.5293 9.32617C42.8874 9.32617 43.2454 9.32617 43.6036 9.32617C43.5357 10.0216 43.3892 10.7052 43.1641 11.377C42.2657 13.6265 40.687 15.1564 38.4278 15.9668C36.3311 15.0581 34.8826 13.5281 34.0821 11.377C33.9003 10.714 33.7213 10.063 33.545 9.42383C33.3244 5.90959 34.6915 3.22404 37.6465 1.36719C38.0493 1.13309 38.4724 0.954047 38.9161 0.830078Z" fill="#F07FB6"/>
<path fill-rule="evenodd" clip-rule="evenodd" d="M43.7012 7.76375C44.1256 7.74757 44.5488 7.76385 44.9707 7.81258C45.5447 8.18409 45.6098 8.63983 45.166 9.17977C44.6547 9.31053 44.1338 9.35936 43.6035 9.32625C43.2454 9.32625 42.8874 9.32625 42.5293 9.32625C42.5455 10.1407 42.5293 10.9545 42.4805 11.7677C42.4351 11.9074 42.3536 12.0213 42.2364 12.1095C41.6644 12.3975 41.2575 12.2511 41.0157 11.67C40.9668 10.8894 40.9506 10.1082 40.9668 9.32625C40.1524 9.3425 39.3386 9.32622 38.5254 9.27742C38.42 9.18407 38.3062 9.10268 38.1836 9.03328C37.9198 8.51374 38.0337 8.10685 38.5254 7.81258C39.3386 7.76378 40.1524 7.7475 40.9668 7.76375C40.9506 6.9493 40.9668 6.1355 41.0157 5.32235C41.0611 5.18262 41.1425 5.06868 41.2598 4.98055C41.7891 4.70163 42.196 4.81557 42.4805 5.32235C42.5293 6.1355 42.5455 6.9493 42.5293 7.76375C42.92 7.76375 43.3106 7.76375 43.7012 7.76375Z" fill="white"/>
<path opacity="0.997" fill-rule="evenodd" clip-rule="evenodd" d="M30.1269 11.0838C32.487 14.5188 33.6914 18.3274 33.7402 22.5095C32.9844 23.6623 32.252 24.8342 31.5429 26.0252C30.1912 23.7129 28.8892 21.3691 27.6366 18.9939C27.1733 18.4819 26.7175 18.4819 26.2694 18.9939C25.2929 20.6866 24.3163 22.3794 23.3398 24.072C22.7619 23.2096 22.2086 22.3307 21.6796 21.4353C21.2219 20.8302 20.7336 20.7976 20.2148 21.3377C19.6451 22.2979 19.0754 23.2583 18.5058 24.2185C16.9433 24.251 15.3808 24.2837 13.8183 24.3162C13.2751 24.8204 13.3076 25.276 13.9159 25.6834C15.6737 25.7485 17.4316 25.7485 19.1894 25.6834C19.3291 25.638 19.443 25.5565 19.5312 25.4392C19.9557 24.6541 20.4277 23.9053 20.9472 23.1931C21.6116 24.2318 22.2952 25.2572 22.998 26.2693C23.4985 26.4225 23.8729 26.276 24.121 25.8299C25.0157 24.1703 25.9597 22.5427 26.953 20.947C28.2916 23.3801 29.6425 25.8052 31.0058 28.2224C31.3313 28.4177 31.6569 28.4177 31.9823 28.2224C32.4852 27.4594 32.9735 26.6944 33.4472 25.9275C33.1569 27.466 32.7174 28.9634 32.1288 30.4197C31.5083 31.7264 30.8409 32.996 30.1269 34.2283C29.6704 33.5419 29.052 33.0373 28.2714 32.7146C26.4258 32.3102 24.5703 31.9522 22.705 31.6404C22.0214 31.5753 21.3378 31.5753 20.6542 31.6404C17.8943 32.1207 15.1274 32.5601 12.3534 32.9588C10.983 31.5396 9.66465 30.0748 8.39836 28.5642C6.20719 25.0009 5.65381 21.1923 6.7382 17.1385C7.48925 14.6412 8.84016 12.5416 10.7909 10.8396C13.3607 8.99506 16.1927 8.44167 19.287 9.17947C21.0227 9.64054 22.6178 10.3892 24.0722 11.4256C25.0007 12.2079 25.9122 13.0054 26.8066 13.8181C27.5671 13.1719 28.3158 12.5046 29.0527 11.8162C29.4135 11.5711 29.7716 11.3269 30.1269 11.0838Z" fill="#F07FB6"/>
<path fill-rule="evenodd" clip-rule="evenodd" d="M33.5449 9.42383C33.7213 10.063 33.9003 10.714 34.082 11.377C34.8825 13.5281 36.3311 15.0581 38.4277 15.9668C38.9381 16.2622 39.4915 16.4737 40.0879 16.6016C42.3063 16.9488 44.3896 16.5744 46.3379 15.4785C48.2074 20.3094 47.7029 24.8666 44.8242 29.1504C44.3685 29.6712 43.9128 30.1921 43.457 30.7129C40.003 34.2156 36.5688 37.7313 33.1543 41.2598C33.0892 41.2598 33.0566 41.2923 33.0566 41.3574C31.523 41.7846 29.9605 41.9636 28.3691 41.8945C26.5083 41.5712 24.6528 41.2294 22.8027 40.8691C22.8454 40.7154 22.9431 40.6015 23.0957 40.5273C24.4301 39.7621 25.667 38.8669 26.8066 37.8418C28.1029 37.9947 29.1935 37.6041 30.0781 36.6699C30.508 35.8833 30.5242 35.1021 30.127 34.3262C30.127 34.2937 30.127 34.261 30.127 34.2285C30.841 32.9962 31.5084 31.7267 32.1289 30.4199C32.7175 28.9636 33.1569 27.4662 33.4473 25.9277C33.7804 25.2838 34.1384 24.649 34.5215 24.0234C36.5397 23.9909 38.5579 23.9583 40.5762 23.9258C41.1059 23.7288 41.285 23.3545 41.1133 22.8027C40.9947 22.6515 40.8482 22.5376 40.6738 22.4609C38.3556 22.3807 36.0443 22.3969 33.7402 22.5098C33.6915 18.3276 32.4871 14.519 30.127 11.084C31.1697 10.3511 32.3091 9.79775 33.5449 9.42383Z" fill="#EA4B98"/>
<path fill-rule="evenodd" clip-rule="evenodd" d="M33.7403 22.51C36.0444 22.3971 38.3556 22.3809 40.6739 22.4612C40.8483 22.5378 40.9948 22.6517 41.1134 22.803C41.285 23.3547 41.1059 23.729 40.5762 23.926C38.558 23.9585 36.5398 23.9911 34.5216 24.0237C34.1385 24.6492 33.7804 25.284 33.4473 25.928C32.9736 26.6948 32.4853 27.4599 31.9825 28.2229C31.657 28.4182 31.3314 28.4182 31.0059 28.2229C29.6427 25.8056 28.2918 23.3805 26.9532 20.9475C25.9598 22.5431 25.0159 24.1707 24.1212 25.8303C23.873 26.2765 23.4986 26.423 22.9981 26.2698C22.2954 25.2576 21.6118 24.2323 20.9473 23.1936C20.4279 23.9058 19.9558 24.6545 19.5313 25.4397C19.4431 25.557 19.3293 25.6384 19.1895 25.6838C17.4317 25.749 15.6739 25.749 13.9161 25.6838C13.3078 25.2765 13.2753 24.8208 13.8184 24.3166C15.3809 24.2841 16.9434 24.2515 18.5059 24.219C19.0756 23.2587 19.6453 22.2984 20.2149 21.3381C20.7338 20.7981 21.222 20.8306 21.6798 21.4358C22.2088 22.3312 22.7621 23.2101 23.3399 24.0725C24.3165 22.3798 25.293 20.687 26.2696 18.9944C26.7177 18.4823 27.1734 18.4823 27.6368 18.9944C28.8893 21.3696 30.1914 23.7133 31.543 26.0256C32.2521 24.8346 32.9845 23.6627 33.7403 22.51Z" fill="#F8EFEE"/>
<path opacity="0.998" fill-rule="evenodd" clip-rule="evenodd" d="M30.127 34.2285C30.127 34.2611 30.127 34.2937 30.127 34.3262C30.0021 34.6975 29.7742 35.0068 29.4434 35.2539C28.6187 35.7006 27.7398 35.8634 26.8066 35.7422C25.1925 35.5489 23.5812 35.3372 21.9727 35.1074C21.1127 35.195 20.5593 35.6508 20.3125 36.4746C20.2533 36.9865 20.3347 37.4747 20.5566 37.9395C20.0402 39.1409 20.3657 40.0362 21.5332 40.625C21.9618 40.688 22.3851 40.7694 22.8027 40.8692C24.6528 41.2294 26.5083 41.5712 28.3691 41.8946C29.9605 41.9636 31.523 41.7846 33.0566 41.3574C33.1218 41.3574 33.1543 41.3249 33.1543 41.2598C35.7371 40.8185 38.3087 40.3139 40.8691 39.7461C41.8506 39.5636 42.762 39.7264 43.6035 40.2344C43.7929 40.3742 43.923 40.5532 43.9941 40.7715C43.6168 41.3926 43.096 41.8646 42.4316 42.1875C37.3803 43.8002 32.3348 45.4279 27.2949 47.0703C25.4462 47.5981 23.5907 47.6307 21.7285 47.168C16.8055 45.8316 11.8901 44.4806 6.98242 43.1153C6.98242 40.0228 6.98242 36.9304 6.98242 33.8379C8.77891 33.5765 10.5692 33.2835 12.3535 32.959C15.1274 32.5604 17.8943 32.1209 20.6543 31.6406C21.3379 31.5755 22.0215 31.5755 22.7051 31.6406C24.5704 31.9525 26.4259 32.3105 28.2715 32.7149C29.0521 33.0375 29.6705 33.5421 30.127 34.2285Z" fill="#FED0A2"/>
<path opacity="0.994" fill-rule="evenodd" clip-rule="evenodd" d="M6.98242 33.8375C6.98242 36.93 6.98242 40.0224 6.98242 43.1148C6.98242 43.7984 6.98242 44.482 6.98242 45.1656C6.90263 44.9245 6.8538 44.6642 6.83594 44.3844C4.61321 44.4976 2.3834 44.514 0.146484 44.4332C0.0933395 44.3632 0.0282354 44.3143 -0.0488281 44.2867C-0.0488281 40.413 -0.0488281 36.5393 -0.0488281 32.6656C2.19309 32.5537 4.43918 32.5374 6.68945 32.6168C6.77893 32.6533 6.86031 32.7021 6.93359 32.7633C6.98229 33.1199 6.99857 33.4779 6.98242 33.8375Z" fill="#F07FB6"/>
<path fill-rule="evenodd" clip-rule="evenodd" d="M30.1268 34.3262C30.5241 35.1021 30.5079 35.8833 30.078 36.6699C29.1933 37.6041 28.1028 37.9947 26.8065 37.8418C25.2084 37.6194 23.5971 37.3916 21.9725 37.1582C21.6784 37.1803 21.4017 37.2616 21.1425 37.4023C20.9599 37.6016 20.7645 37.7806 20.5565 37.9395C20.3346 37.4747 20.2532 36.9864 20.3124 36.4746C20.5592 35.6508 21.1126 35.195 21.9725 35.1074C23.581 35.3372 25.1924 35.5488 26.8065 35.7422C27.7397 35.8634 28.6186 35.7006 29.4433 35.2539C29.7741 35.0067 30.0019 34.6975 30.1268 34.3262Z" fill="#FEBB85"/>
<path fill-rule="evenodd" clip-rule="evenodd" d="M26.8067 37.8418C25.667 38.8669 24.4301 39.7621 23.0957 40.5273C22.9431 40.6015 22.8454 40.7154 22.8027 40.8691C22.3851 40.7693 21.9618 40.688 21.5332 40.625C20.3657 40.0361 20.0402 39.1409 20.5567 37.9395C20.7647 37.7806 20.96 37.6016 21.1426 37.4023C21.4019 37.2616 21.6785 37.1803 21.9727 37.1582C23.5972 37.3916 25.2085 37.6194 26.8067 37.8418Z" fill="#FD8087"/>
<path fill-rule="evenodd" clip-rule="evenodd" d="M43.9941 40.7715C44.4977 42.419 43.9442 43.6072 42.334 44.3359C37.5874 45.8855 32.8348 47.4155 28.0762 48.9258C26.0934 49.6055 24.0752 49.7357 22.0215 49.3164C17.0146 47.9345 12.0015 46.5836 6.98242 45.2637C6.98242 45.2312 6.98242 45.1985 6.98242 45.166C6.98242 44.4824 6.98242 43.7988 6.98242 43.1152C11.8901 44.4806 16.8055 45.8315 21.7285 47.168C23.5907 47.6307 25.4462 47.598 27.2949 47.0703C32.3348 45.4278 37.3803 43.8002 42.4316 42.1875C43.096 41.8646 43.6168 41.3926 43.9941 40.7715Z" fill="#FFBC85"/>
<path fill-rule="evenodd" clip-rule="evenodd" d="M-0.0488281 44.2871C0.0282353 44.3147 0.0933395 44.3636 0.146484 44.4336C2.3834 44.5144 4.61321 44.498 6.83594 44.3848C6.8538 44.6646 6.90263 44.9249 6.98242 45.166C6.98242 45.1985 6.98242 45.2312 6.98242 45.2637C7.01143 45.6804 6.97888 46.0873 6.88477 46.4844C4.56648 46.5646 2.25529 46.5484 -0.0488281 46.4355C-0.0488281 45.7194 -0.0488281 45.0032 -0.0488281 44.2871Z" fill="#EA4B98"/>
</g>
<defs>
<clipPath id="clip0_732_390">
<rect width="50" height="50" fill="white"/>
</clipPath>
</defs>
</svg>
