<svg width="50" height="50" viewBox="0 0 50 50" fill="none" xmlns="http://www.w3.org/2000/svg">
<g clip-path="url(#clip0_732_298)">
<path opacity="0.989" fill-rule="evenodd" clip-rule="evenodd" d="M25.8301 -0.0488281C26.2858 -0.0488281 26.7415 -0.0488281 27.1973 -0.0488281C28.5564 0.603086 28.9471 1.62848 28.3691 3.02734C36.7742 4.1584 42.6499 8.60176 45.9961 16.3574C46.91 18.7807 47.3819 21.2871 47.4121 23.877C48.194 23.8607 48.9753 23.877 49.7559 23.9258C49.809 23.9958 49.8741 24.0446 49.9512 24.0723C49.9512 25.0163 49.9512 25.9603 49.9512 26.9043C49.8562 26.9519 49.7585 27.0007 49.6582 27.0508C48.9074 27.0673 48.1587 27.1161 47.4121 27.1973C46.8031 30.1987 44.9802 31.9077 41.9434 32.3242C42.3452 33.454 42.1499 34.4632 41.3574 35.3516C38.1677 37.4677 34.9125 39.4859 31.5918 41.4062C29.909 42.1362 28.1512 42.5594 26.3184 42.6758C22.9329 42.7083 19.5476 42.7409 16.1621 42.7734C15.4438 43.0997 14.7602 43.4741 14.1113 43.8965C14.3947 44.6652 14.6877 45.4303 14.9902 46.1914C14.9333 46.4354 14.8031 46.6308 14.5996 46.7773C12.6389 47.5068 10.6857 48.2556 8.74023 49.0234C8.54492 49.0886 8.34961 49.0886 8.1543 49.0234C7.97942 48.7877 7.81666 48.5436 7.66602 48.291C6.24667 48.8227 4.84693 49.3761 3.4668 49.9512C3.23894 49.9512 3.01106 49.9512 2.7832 49.9512C2.75065 49.886 2.7181 49.821 2.68555 49.7559C2.53438 49.4865 2.56693 49.2424 2.7832 49.0234C4.26519 48.3992 5.76258 47.8133 7.27539 47.2656C7.32006 47.2252 7.35261 47.1764 7.37305 47.1191C6.12937 43.8601 4.87611 40.6049 3.61328 37.3535C3.56256 37.2543 3.48118 37.1893 3.36914 37.1582C3.09132 37.2182 2.8309 37.3158 2.58789 37.4512C1.90606 37.711 1.22247 37.9715 0.537109 38.2324C0.312419 38.1852 0.117106 38.0875 -0.0488281 37.9395C-0.0488281 37.7441 -0.0488281 37.5488 -0.0488281 37.3535C0.909705 36.9196 1.88627 36.5127 2.88086 36.1328C2.96867 35.885 2.93611 35.6408 2.7832 35.4004C2.8563 35.2215 2.95396 35.0587 3.07617 34.9121C5.14007 34.0753 7.22341 33.294 9.32617 32.5684C9.51962 32.5622 9.68238 32.6273 9.81445 32.7637C10.1077 33.4808 10.4007 34.1969 10.6934 34.9121C11.4557 34.3939 12.2044 33.8568 12.9395 33.3008C13.5456 32.9489 14.1641 32.6234 14.7949 32.3242C13.3952 32.2917 11.9954 32.2591 10.5957 32.2266C7.74513 31.6711 6.11753 29.9621 5.71289 27.0996C4.8559 27.1427 4.00955 27.0938 3.17383 26.9531C3.06138 26.0004 3.04511 25.0401 3.125 24.0723C3.17383 24.0234 3.22266 23.9746 3.27148 23.9258C4.05206 23.877 4.83331 23.8607 5.61523 23.877C5.96334 15.5087 9.77197 9.30754 17.041 5.27344C19.4579 4.10973 21.997 3.36103 24.6582 3.02734C24.0803 1.62848 24.4709 0.603086 25.8301 -0.0488281ZM26.3184 1.02539C27.1778 1.08705 27.5521 1.54277 27.4414 2.39258C27.1563 2.93211 26.7169 3.11114 26.123 2.92969C25.5403 2.5984 25.3938 2.12639 25.6836 1.51367C25.8599 1.28655 26.0715 1.1238 26.3184 1.02539ZM32.0801 32.373C33.4304 32.2597 34.7976 32.2435 36.1816 32.3242C35.0586 33.0566 33.9355 33.7891 32.8125 34.5215C32.8467 33.6959 32.6025 32.9798 32.0801 32.373Z" fill="#3A426A"/>
<path fill-rule="evenodd" clip-rule="evenodd" d="M46.2403 22.51C46.2403 22.6402 46.2403 22.7704 46.2403 22.9006C34.8145 22.9169 23.3887 22.9006 11.963 22.8518C9.53483 22.2117 8.44433 20.6329 8.69147 18.1154C9.34594 15.2776 10.5015 12.6734 12.1583 10.3029C17.4872 4.95229 23.8674 3.08055 31.2989 4.68771C39.2461 7.00338 44.1452 12.1954 45.9962 20.2639C46.1254 21.008 46.2067 21.7568 46.2403 22.51Z" fill="#F07FB6"/>
<path fill-rule="evenodd" clip-rule="evenodd" d="M30.2247 5.71289C32.0851 5.9369 33.843 6.50656 35.4981 7.42188C40.34 10.2152 43.4487 14.3331 44.8243 19.7754C45.0165 20.7861 44.6097 21.2907 43.6036 21.2891C43.3403 21.2217 43.1287 21.0752 42.9688 20.8496C41.6349 15.057 38.2658 10.9392 32.8614 8.49609C31.9288 8.13396 30.9848 7.80843 30.0294 7.51953C29.465 6.84253 29.5302 6.24031 30.2247 5.71289Z" fill="white"/>
<path fill-rule="evenodd" clip-rule="evenodd" d="M12.1582 10.3027C10.5015 12.6732 9.34587 15.2774 8.69141 18.1152C8.44427 20.6327 9.53477 22.2115 11.9629 22.8516C23.3887 22.9004 34.8145 22.9167 46.2402 22.9004C46.2402 23.2259 46.2402 23.5515 46.2402 23.877C33.0892 23.877 19.9382 23.877 6.78711 23.877C6.78711 23.4538 6.78711 23.0306 6.78711 22.6074C7.10436 17.842 8.89472 13.7404 12.1582 10.3027Z" fill="#EA4B98"/>
<path fill-rule="evenodd" clip-rule="evenodd" d="M46.2402 22.5098C46.3366 22.979 46.3692 23.4673 46.3379 23.9746C33.1218 23.9746 19.9055 23.9746 6.68943 23.9746C6.65823 23.4997 6.69079 23.0439 6.78709 22.6074C6.78709 23.0306 6.78709 23.4538 6.78709 23.877C19.9382 23.877 33.0891 23.877 46.2402 23.877C46.2402 23.5515 46.2402 23.2259 46.2402 22.9004C46.2402 22.7702 46.2402 22.6399 46.2402 22.5098Z" fill="#646D8C"/>
<path fill-rule="evenodd" clip-rule="evenodd" d="M4.15039 24.9512C19.0593 24.9512 33.9681 24.9512 48.877 24.9512C48.877 25.3093 48.877 25.6673 48.877 26.0254C33.9681 26.0254 19.0593 26.0254 4.15039 26.0254C4.15039 25.6673 4.15039 25.3093 4.15039 24.9512Z" fill="#EA4B98"/>
<path fill-rule="evenodd" clip-rule="evenodd" d="M6.78711 27.1001C19.9543 27.0024 33.1379 26.9699 46.3379 27.0024C46.361 27.1285 46.3285 27.2262 46.2402 27.2954C33.4803 27.1003 20.6873 27.0351 7.86133 27.1001C7.50325 27.1001 7.14519 27.1001 6.78711 27.1001Z" fill="#767D99"/>
<path fill-rule="evenodd" clip-rule="evenodd" d="M6.78711 27.0996C7.14519 27.0996 7.50325 27.0996 7.86133 27.0996C8.02265 27.7642 8.34817 28.3338 8.83789 28.8086C9.67234 29.4698 10.6164 29.8931 11.6699 30.0781C22.054 30.1433 32.4382 30.1433 42.8223 30.0781C43.8108 29.9171 44.7223 29.5753 45.5566 29.0527C44.5918 30.4713 43.2408 31.1875 41.5039 31.2012C40.8416 31.0622 40.1743 30.932 39.502 30.8105C39.0493 30.8179 38.6261 30.9318 38.2324 31.1523C29.0527 31.2175 19.873 31.2175 10.6934 31.1523C8.47408 30.6748 7.17199 29.3238 6.78711 27.0996Z" fill="#EA4B98"/>
<path fill-rule="evenodd" clip-rule="evenodd" d="M7.86133 27.0995C20.6873 27.0346 33.4803 27.0997 46.2402 27.2948C46.1604 27.9403 45.9326 28.5263 45.5566 29.0526C44.7223 29.5752 43.8108 29.917 42.8223 30.078C32.4382 30.1432 22.054 30.1432 11.6699 30.078C10.6164 29.893 9.67234 29.4697 8.83789 28.8085C8.34817 28.3337 8.02265 27.7641 7.86133 27.0995Z" fill="#F07FB6"/>
<path fill-rule="evenodd" clip-rule="evenodd" d="M15.2833 28.0762C15.9169 27.9914 16.1611 28.2518 16.0157 28.8574C15.7227 29.248 15.4297 29.248 15.1368 28.8574C15.0498 28.5646 15.0986 28.3043 15.2833 28.0762Z" fill="#ACB2C4"/>
<path fill-rule="evenodd" clip-rule="evenodd" d="M17.9199 28.0764C26.4161 28.0601 34.9121 28.0764 43.4081 28.1253C43.8052 28.491 43.7727 28.8165 43.3105 29.1018C34.8795 29.167 26.4485 29.167 18.0175 29.1018C17.5474 28.8005 17.5148 28.4587 17.9199 28.0764Z" fill="#EA4B98"/>
<path fill-rule="evenodd" clip-rule="evenodd" d="M40.6739 32.373C40.6064 32.6528 40.4436 32.8644 40.1856 33.0078C37.6465 34.6354 35.1075 36.263 32.5684 37.8906C30.3717 39.2004 27.9955 39.9165 25.4395 40.039C22.0867 40.0716 18.7338 40.1042 15.3809 40.1367C14.8443 40.3499 14.291 40.4149 13.7208 40.332C13.3133 40.1769 12.9227 39.9979 12.5489 39.7949C12.2012 39.0344 11.9083 38.2532 11.67 37.4511C11.6191 37.0391 11.7331 36.681 12.0118 36.3769C14.0298 34.5964 16.3899 33.571 19.0919 33.3008C22.7051 33.2356 26.3184 33.2356 29.9317 33.3008C30.6454 33.3823 31.2313 33.6916 31.6895 34.2285C31.7003 35.3319 31.1795 36.0318 30.127 36.3281C26.9369 36.3606 23.7468 36.3932 20.5567 36.4258C20.1661 36.7512 20.1661 37.0768 20.5567 37.4023C23.8808 37.4966 27.2011 37.464 30.5176 37.3047C33.2867 35.4821 36.0862 33.6918 38.9161 31.9336C39.6149 31.6539 40.2008 31.8004 40.6739 32.373Z" fill="#F1E0D6"/>
<path fill-rule="evenodd" clip-rule="evenodd" d="M31.6895 34.2285C31.2313 33.6916 30.6453 33.3823 29.9316 33.3008C26.3184 33.2357 22.7051 33.2357 19.0918 33.3008C16.3898 33.571 14.0298 34.5964 12.0117 36.377C11.733 36.6811 11.619 37.0392 11.6699 37.4512C11.4259 37.0269 11.2306 36.5712 11.084 36.084C12.7391 34.5884 14.6271 33.4654 16.748 32.7149C17.3295 32.5637 17.9154 32.4335 18.5059 32.3242C22.3796 32.2591 26.2532 32.2591 30.127 32.3242C31.1212 32.5714 31.642 33.2062 31.6895 34.2285Z" fill="#E8D2C5"/>
<path fill-rule="evenodd" clip-rule="evenodd" d="M40.6738 32.373C40.9625 32.6262 41.0927 32.9518 41.0645 33.3496C41.0859 33.888 40.8906 34.3274 40.4785 34.668C37.8093 36.3606 35.1399 38.0534 32.4707 39.7461C30.4911 40.8351 28.3752 41.4535 26.123 41.6016C22.6726 41.6341 19.222 41.6667 15.7715 41.6992C15.0879 42.041 14.4043 42.3828 13.7207 42.7246C13.2729 41.7724 12.8823 40.7958 12.5488 39.7949C12.9227 39.9979 13.3133 40.177 13.7207 40.332C14.2909 40.4149 14.8442 40.3499 15.3809 40.1367C18.7337 40.1042 22.0866 40.0716 25.4395 40.0391C27.9954 39.9165 30.3717 39.2004 32.5684 37.8906C35.1074 36.263 37.6465 34.6354 40.1855 33.0078C40.4436 32.8645 40.6063 32.6528 40.6738 32.373Z" fill="#E7D2C4"/>
<path fill-rule="evenodd" clip-rule="evenodd" d="M13.3301 44.9707C10.8514 45.3671 9.0447 44.4557 7.91016 42.2363C7.00475 39.9267 6.10956 37.6154 5.22461 35.3027C6.4364 34.7788 7.67337 34.2905 8.93555 33.8379C10.4748 37.51 11.9396 41.2209 13.3301 44.9707Z" fill="#F07FB6"/>
<path fill-rule="evenodd" clip-rule="evenodd" d="M5.22461 35.3027C6.10956 37.6154 7.00475 39.9267 7.91016 42.2363C9.0447 44.4557 10.8514 45.3671 13.3301 44.9707C13.5142 45.2929 13.6118 45.6184 13.623 45.9473C12.0931 46.5495 10.5632 47.1517 9.0332 47.7539C8.92236 47.8271 8.82471 47.8108 8.74023 47.7051C7.18155 43.7615 5.6516 39.8064 4.15039 35.8398C4.16453 35.7645 4.19708 35.6993 4.24805 35.6445C4.56483 35.501 4.89035 35.387 5.22461 35.3027Z" fill="#EA4B98"/>
<path fill-rule="evenodd" clip-rule="evenodd" d="M7.86133 35.4981C8.3347 35.4336 8.70904 35.5964 8.98438 35.9864C9.83076 38.1348 10.6771 40.2832 11.5234 42.4317C11.6048 43.4563 11.1328 43.8631 10.1074 43.6524C9.99346 43.5384 9.87959 43.4246 9.76562 43.3106C8.85439 41.0487 7.99177 38.7701 7.17773 36.4746C7.25468 36.0403 7.48254 35.7147 7.86133 35.4981Z" fill="#EA4B98"/>
<path fill-rule="evenodd" clip-rule="evenodd" d="M2.68555 49.7559C2.53953 49.8036 2.40933 49.8687 2.29492 49.9512C1.51367 49.9512 0.732422 49.9512 -0.0488281 49.9512C-0.0488281 49.5931 -0.0488281 49.2351 -0.0488281 48.877C1.19758 48.4017 2.43456 47.8971 3.66211 47.3633C4.86661 46.473 5.30606 45.285 4.98047 43.7988C4.12672 41.7013 3.32919 39.5854 2.58789 37.4512C2.8309 37.3158 3.09132 37.2182 3.36914 37.1582C3.48118 37.1893 3.56256 37.2543 3.61328 37.3535C4.87611 40.6049 6.12937 43.8601 7.37305 47.1191C7.35261 47.1764 7.32006 47.2252 7.27539 47.2656C5.76258 47.8133 4.26519 48.3992 2.7832 49.0234C2.56693 49.2424 2.53438 49.4865 2.68555 49.7559Z" fill="#EA4B98"/>
<path fill-rule="evenodd" clip-rule="evenodd" d="M2.58789 37.4512C3.32919 39.5854 4.12672 41.7013 4.98047 43.7988C5.30606 45.285 4.86661 46.473 3.66211 47.3633C2.43456 47.8971 1.19758 48.4017 -0.0488281 48.877C-0.0488281 45.2312 -0.0488281 41.5853 -0.0488281 37.9395C0.117106 38.0875 0.312419 38.1852 0.537109 38.2324C1.22247 37.9715 1.90606 37.711 2.58789 37.4512Z" fill="#F07FB6"/>
</g>
<defs>
<clipPath id="clip0_732_298">
<rect width="50" height="50" fill="white"/>
</clipPath>
</defs>
</svg>
