<svg width="50" height="50" viewBox="0 0 50 50" fill="none" xmlns="http://www.w3.org/2000/svg">
<path opacity="0.995" fill-rule="evenodd" clip-rule="evenodd" d="M36.7676 16.8461C35.9596 16.8879 35.455 17.311 35.2539 18.1156C35.1826 16.6258 34.792 15.226 34.082 13.9164C33.9241 13.6954 33.7451 13.5001 33.5449 13.3305C33.5102 13.8751 33.4125 14.3959 33.252 14.893C32.0716 14.7114 31.0137 14.2556 30.0781 13.5258C30.1861 14.1003 30.4303 14.6212 30.8106 15.0883C27.388 15.681 24.263 14.9811 21.4356 12.9887C20.4898 12.1871 19.6923 11.2594 19.043 10.2055C18.9005 11.0885 18.6401 11.9348 18.2617 12.7445C17.6107 13.6559 16.9597 14.5675 16.3086 15.4789C16.2474 15.0832 16.1009 14.7252 15.8692 14.4047C15.7847 14.2989 15.687 14.2827 15.5762 14.3558C15.4824 14.4944 15.4011 14.6409 15.332 14.7953C15.2995 15.9347 15.2669 17.0739 15.2344 18.2133C14.7711 17.2479 14.0062 16.8573 12.9395 17.0414C12.7197 14.5357 12.7034 12.0292 12.8906 9.52186C13.0326 8.2822 13.3907 7.11032 13.9649 6.00623C14.6341 5.02811 15.5618 4.45845 16.7481 4.29725C18.2676 2.21807 20.3184 1.01364 22.9004 0.683967C27.1387 0.237984 31.0123 1.21454 34.5215 3.61365C35.6977 4.46488 36.4952 5.58792 36.9141 6.9828C37.459 9.10426 37.5892 11.2527 37.3047 13.4281C37.1678 14.5753 36.9887 15.7145 36.7676 16.8461Z" fill="#240703"/>
<path opacity="0.998" fill-rule="evenodd" clip-rule="evenodd" d="M33.252 14.8926C33.3212 14.9809 33.4188 15.0134 33.5449 14.9902C33.5449 14.4368 33.5449 13.8835 33.5449 13.3301C33.7451 13.4997 33.9241 13.695 34.082 13.916C34.792 15.2256 35.1826 16.6254 35.2539 18.1152C35.455 17.3106 35.9596 16.8875 36.7676 16.8457C38.1475 17.3918 38.6521 18.4009 38.2812 19.873C37.892 21.2701 37.0944 22.3606 35.8887 23.1445C35.6352 23.2555 35.3747 23.3368 35.1074 23.3887C34.1587 26.0365 32.6938 28.3478 30.7129 30.3223C29.6724 31.3138 28.533 32.1765 27.2949 32.9102C26.0706 33.6298 24.8011 33.7274 23.4863 33.2031C21.668 32.2295 20.0729 30.9762 18.7012 29.4434C17.0873 27.7157 15.8666 25.73 15.0391 23.4863C13.1654 22.5754 12.075 21.078 11.7676 18.9941C11.8131 18.1196 12.2037 17.4687 12.9395 17.041C14.0062 16.8569 14.7711 17.2476 15.2344 18.2129C15.2669 17.0735 15.2995 15.9343 15.332 14.7949C15.4011 14.6405 15.4824 14.494 15.5762 14.3555C15.687 14.2823 15.7847 14.2985 15.8691 14.4043C16.1009 14.7248 16.2474 15.0828 16.3086 15.4785C16.9597 14.5671 17.6106 13.6556 18.2617 12.7441C18.6401 11.9345 18.9005 11.0881 19.043 10.2051C19.6923 11.259 20.4897 12.1867 21.4355 12.9883C24.263 14.9808 27.388 15.6807 30.8105 15.0879C30.4303 14.6208 30.1861 14.0999 30.0781 13.5254C31.0137 14.2553 32.0716 14.711 33.252 14.8926Z" fill="#F8D6A9"/>
<path fill-rule="evenodd" clip-rule="evenodd" d="M33.5449 13.3301C33.5449 13.8835 33.5449 14.4368 33.5449 14.9902C33.4188 15.0134 33.3212 14.9809 33.252 14.8926C33.4125 14.3955 33.5102 13.8747 33.5449 13.3301Z" fill="#AA8A6C"/>
<path fill-rule="evenodd" clip-rule="evenodd" d="M18.7012 29.4434C20.0729 30.9762 21.668 32.2295 23.4863 33.2031C24.8011 33.7274 26.0706 33.6298 27.2949 32.9102C28.533 32.1765 29.6724 31.3138 30.7129 30.3223C30.7129 31.1035 30.7129 31.8848 30.7129 32.666C28.4567 34.7285 25.8852 35.2331 22.998 34.1797C21.9283 33.6309 20.968 32.931 20.1172 32.0801C19.6211 31.4713 19.149 30.8528 18.7012 30.2246C18.7012 29.9642 18.7012 29.7038 18.7012 29.4434Z" fill="#E8AC6C"/>
<path opacity="0.997" fill-rule="evenodd" clip-rule="evenodd" d="M18.7012 30.2246C19.149 30.8528 19.6211 31.4713 20.1172 32.0801C20.968 32.931 21.9283 33.6309 22.998 34.1797C25.8852 35.2331 28.4567 34.7285 30.7129 32.666C30.7129 33.9355 30.7129 35.2051 30.7129 36.4746C30.7118 36.6228 30.6468 36.7367 30.5176 36.8164C28.6169 38.4239 26.7451 40.0678 24.9023 41.748C22.8718 39.9275 20.8047 38.1697 18.7012 36.4746C18.7012 34.3913 18.7012 32.3079 18.7012 30.2246Z" fill="#F9D6A9"/>
<path opacity="0.992" fill-rule="evenodd" clip-rule="evenodd" d="M18.7012 36.4749C20.8047 38.17 22.8718 39.9278 24.9023 41.7483C26.7451 40.068 28.6169 38.4242 30.5176 36.8167C30.6468 36.737 30.7118 36.623 30.7129 36.4749C32.406 36.4586 34.0986 36.4749 35.791 36.5237C37.8268 36.5436 39.6496 37.1621 41.2598 38.3792C42.8933 39.9566 43.6908 41.8935 43.6523 44.1897C43.7147 45.2005 43.6983 46.2095 43.6035 47.2171C37.4575 48.5186 31.2401 49.1372 24.9512 49.0725C18.6633 49.1283 12.4458 48.5098 6.29883 47.2171C6.13381 45.4159 6.21519 43.6255 6.54297 41.846C7.40641 38.9323 9.34326 37.2233 12.3535 36.719C12.9356 36.6216 13.5216 36.5566 14.1113 36.5237C15.6409 36.4749 17.1709 36.4586 18.7012 36.4749Z" fill="#EA4B98"/>
</svg>
