<svg width="24" height="24" viewBox="0 0 24 24" fill="none" xmlns="http://www.w3.org/2000/svg">
<g clip-path="url(#clip0_1718_1550)">
<path opacity="0.995" fill-rule="evenodd" clip-rule="evenodd" d="M11.0391 -0.0234375C11.3516 -0.0234375 11.664 -0.0234375 11.9766 -0.0234375C10.3984 1.57031 8.82033 3.16406 7.24219 4.75781C6.22111 5.13005 5.43206 5.7863 4.875 6.72656C4.8188 6.87778 4.79536 7.03402 4.80469 7.19531C3.19531 8.78906 1.58594 10.3828 -0.0234375 11.9766C-0.0234375 11.6484 -0.0234375 11.3203 -0.0234375 10.9922C3.69303 7.35384 7.38052 3.68198 11.0391 -0.0234375Z" fill="#FEEE9C"/>
<path opacity="0.999" fill-rule="evenodd" clip-rule="evenodd" d="M11.9766 -0.0234375C12.1328 -0.0234375 12.2891 -0.0234375 12.4453 -0.0234375C10.8828 1.55469 9.3203 3.13281 7.75781 4.71094C7.58367 4.70733 7.41183 4.72294 7.24219 4.75781C8.82033 3.16406 10.3984 1.57031 11.9766 -0.0234375Z" fill="#FEEC92"/>
<path opacity="0.996" fill-rule="evenodd" clip-rule="evenodd" d="M12.4453 -0.0234375C12.6484 -0.0234375 12.8516 -0.0234375 13.0547 -0.0234375C13.1048 0.020366 13.1672 0.035991 13.2422 0.0234375C11.7149 1.62107 10.1602 3.1992 8.57812 4.75781C8.55638 4.78566 8.54855 4.81692 8.55469 4.85156C8.29477 4.77459 8.02917 4.72772 7.75781 4.71094C9.3203 3.13281 10.8828 1.55469 12.4453 -0.0234375Z" fill="#FEEB8A"/>
<path opacity="0.997" fill-rule="evenodd" clip-rule="evenodd" d="M10.8984 -0.0234375C10.9453 -0.0234375 10.9922 -0.0234375 11.0391 -0.0234375C7.38052 3.68198 3.69303 7.35384 -0.0234375 10.9922C-0.0234375 10.9609 -0.0234375 10.9297 -0.0234375 10.8984C0.022175 10.7837 0.0378 10.6587 0.0234375 10.5234C3.52344 7.05469 7.00781 3.57031 10.4766 0.0703125C10.6172 0.0390625 10.7578 0.00781251 10.8984 -0.0234375Z" fill="#FFF0A5"/>
<path opacity="0.997" fill-rule="evenodd" clip-rule="evenodd" d="M13.2423 0.0234375C13.4289 0.0478533 13.6164 0.0634781 13.8048 0.0703125C12.1797 1.71094 10.5548 3.35156 8.92976 4.99219C8.79724 4.96369 8.67228 4.91681 8.55476 4.85156C8.54862 4.81692 8.55645 4.78566 8.5782 4.75781C10.1603 3.1992 11.715 1.62107 13.2423 0.0234375Z" fill="#FEE97F"/>
<path opacity="0.989" fill-rule="evenodd" clip-rule="evenodd" d="M10.4766 0.0703125C7.00781 3.57031 3.52344 7.05469 0.0234375 10.5234C0.731456 6.01181 3.15333 2.80088 7.28906 0.890625C8.31056 0.455571 9.37303 0.182133 10.4766 0.0703125Z" fill="#FFF1AA"/>
<path opacity="0.999" fill-rule="evenodd" clip-rule="evenodd" d="M13.8047 0.0703125C14.0365 0.12292 14.2709 0.169795 14.5078 0.210938C12.8712 1.91795 11.2071 3.60545 9.51562 5.27344C9.49388 5.30128 9.48605 5.33255 9.49219 5.36719C9.29086 5.259 9.10336 5.13403 8.92969 4.99219C10.5547 3.35156 12.1797 1.71094 13.8047 0.0703125Z" fill="#FEE775"/>
<path opacity="0.997" fill-rule="evenodd" clip-rule="evenodd" d="M14.5079 0.210938C14.7846 0.268189 15.0502 0.346313 15.3048 0.445312C13.5564 2.21713 11.7986 3.98275 10.0313 5.74219C10.0096 5.77003 10.0017 5.8013 10.0079 5.83594C9.83482 5.67834 9.66293 5.52211 9.49226 5.36719C9.48612 5.33255 9.49395 5.30128 9.5157 5.27344C11.2072 3.60545 12.8712 1.91795 14.5079 0.210938Z" fill="#FEE568"/>
<path opacity="0.998" fill-rule="evenodd" clip-rule="evenodd" d="M15.3048 0.445312C15.5441 0.488634 15.7785 0.551137 16.0079 0.632812C14.1329 2.52344 12.2579 4.41406 10.3829 6.30469C10.2415 6.16313 10.1165 6.00684 10.0079 5.83594C10.0017 5.8013 10.0096 5.77003 10.0313 5.74219C11.7986 3.98275 13.5564 2.21713 15.3048 0.445312Z" fill="#FEE35C"/>
<path opacity="0.998" fill-rule="evenodd" clip-rule="evenodd" d="M16.0078 0.632812C16.2422 0.726562 16.4766 0.820312 16.7109 0.914062C14.7438 2.90463 12.7673 4.88902 10.7812 6.86719C10.7725 6.98606 10.7491 7.09542 10.7109 7.19531C10.7187 7.05384 10.7108 6.91322 10.6875 6.77344C10.5939 6.61003 10.4924 6.4538 10.3828 6.30469C12.2578 4.41406 14.1328 2.52344 16.0078 0.632812Z" fill="#FEE150"/>
<path opacity="0.998" fill-rule="evenodd" clip-rule="evenodd" d="M16.7109 0.914062C16.9197 0.994983 17.1228 1.08873 17.3203 1.19531C14.1484 4.38281 10.9766 7.57031 7.80469 10.7578C7.50572 10.7482 7.20886 10.7638 6.91406 10.8047C6.89353 10.8077 6.87788 10.8 6.86719 10.7812C7.82977 9.8265 8.78288 8.86556 9.72656 7.89844C10.2673 7.9493 10.5954 7.71492 10.7109 7.19531C10.7491 7.09542 10.7725 6.98606 10.7812 6.86719C12.7673 4.88902 14.7438 2.90463 16.7109 0.914062Z" fill="#FEDF44"/>
<path opacity="0.998" fill-rule="evenodd" clip-rule="evenodd" d="M17.3203 1.19531C17.556 1.29732 17.7747 1.42232 17.9766 1.57031C14.8984 4.61719 11.8359 7.67967 8.78906 10.7578C8.46094 10.7578 8.13281 10.7578 7.80469 10.7578C10.9766 7.57031 14.1484 4.38281 17.3203 1.19531Z" fill="#FFDD37"/>
<path opacity="0.999" fill-rule="evenodd" clip-rule="evenodd" d="M17.9766 1.57031C18.4469 1.82093 18.8844 2.11781 19.2891 2.46094C19.2544 2.4548 19.2232 2.46261 19.1953 2.48438C18.4202 3.26727 17.639 4.04071 16.8516 4.80469C15.8009 4.58825 14.9103 4.86952 14.1797 5.64844C13.8154 5.9738 13.5107 6.3488 13.2656 6.77344C13.1381 7.27598 13.3021 7.63538 13.7578 7.85156C13.764 7.8862 13.7561 7.91747 13.7344 7.94531C12.7952 8.87663 11.8656 9.81413 10.9453 10.7578C10.2266 10.7578 9.5078 10.7578 8.78906 10.7578C11.8359 7.67967 14.8984 4.61719 17.9766 1.57031Z" fill="#FED929"/>
<path opacity="0.996" fill-rule="evenodd" clip-rule="evenodd" d="M19.2891 2.46101C19.535 2.59745 19.7537 2.76933 19.9453 2.97664C19.2109 3.74226 18.4609 4.49226 17.6953 5.22664C17.424 5.05976 17.1428 4.91914 16.8516 4.80476C17.639 4.04078 18.4202 3.26735 19.1953 2.48445C19.2232 2.46268 19.2544 2.45487 19.2891 2.46101Z" fill="#FED120"/>
<path opacity="0.995" fill-rule="evenodd" clip-rule="evenodd" d="M19.9453 2.97656C20.1953 3.19531 20.4297 3.42969 20.6484 3.67969C19.9729 4.42568 19.2697 5.15227 18.5391 5.85938C18.5112 5.88112 18.48 5.88895 18.4453 5.88281C18.3203 5.77345 18.1953 5.66405 18.0703 5.55469C17.9453 5.44533 17.8203 5.33592 17.6953 5.22656C18.4609 4.49219 19.2109 3.74219 19.9453 2.97656Z" fill="#FECA1E"/>
<path opacity="0.992" fill-rule="evenodd" clip-rule="evenodd" d="M20.6484 3.67969C20.8536 3.83786 21.0254 4.02536 21.1641 4.24219C20.4141 4.97658 19.6641 5.71092 18.9141 6.44531C18.7416 6.27267 18.5853 6.08517 18.4453 5.88281C18.48 5.88895 18.5112 5.88112 18.5391 5.85938C19.2697 5.15227 19.9729 4.42568 20.6484 3.67969Z" fill="#FEC41B"/>
<path opacity="0.995" fill-rule="evenodd" clip-rule="evenodd" d="M21.1641 4.24219C21.3366 4.41483 21.4928 4.60233 21.6328 4.80469C20.8069 5.61492 19.9788 6.42741 19.1484 7.24219C19.1561 7.11623 19.1483 6.99122 19.125 6.86719C19.0534 6.72408 18.9831 6.58345 18.9141 6.44531C19.6641 5.71092 20.4141 4.97658 21.1641 4.24219Z" fill="#FEBE19"/>
<path fill-rule="evenodd" clip-rule="evenodd" d="M7.75785 4.71047C8.02921 4.72725 8.2948 4.77413 8.55473 4.85109C8.67224 4.91634 8.79721 4.96322 8.92973 4.99172C9.1034 5.13356 9.2909 5.25853 9.49223 5.36672C9.6629 5.52164 9.83479 5.67788 10.0079 5.83547C10.1165 6.00638 10.2415 6.16266 10.3829 6.30422C10.4924 6.45333 10.594 6.60956 10.6875 6.77297C10.7109 6.91275 10.7187 7.05338 10.711 7.19484C10.5954 7.71445 10.2673 7.94883 9.7266 7.89797C9.50957 7.82911 9.33773 7.70414 9.21098 7.52297C9.0989 7.29895 8.94266 7.11145 8.74223 6.96047C8.69535 6.88233 8.63287 6.81984 8.55473 6.77297C8.39315 6.55144 8.17438 6.42647 7.89848 6.39797C7.79873 6.34505 7.68937 6.33722 7.57035 6.37453C7.22601 6.54689 6.92132 6.77348 6.65629 7.05422C6.47877 7.30997 6.28344 7.55217 6.07035 7.78078C5.86171 7.87331 5.64294 7.91236 5.4141 7.89797C5.34144 7.85386 5.26335 7.82264 5.17973 7.80422C5.10346 7.70438 5.01754 7.61063 4.92191 7.52297C4.88221 7.41263 4.84316 7.30322 4.80473 7.19484C4.7954 7.03355 4.81884 6.87731 4.87504 6.72609C5.4321 5.78583 6.22115 5.12958 7.24223 4.75734C7.41187 4.72247 7.58371 4.70686 7.75785 4.71047Z" fill="#3C2928"/>
<path fill-rule="evenodd" clip-rule="evenodd" d="M16.8517 4.80497C17.1429 4.91934 17.4241 5.05997 17.6954 5.22684C17.8204 5.3362 17.9454 5.44561 18.0704 5.55497C18.045 5.55778 18.0293 5.57339 18.0235 5.60184C18.2642 6.31987 18.1548 6.97612 17.6954 7.57059C17.566 7.39012 17.4254 7.21823 17.2735 7.05497C17.2735 7.03936 17.2735 7.0237 17.2735 7.00809C17.6822 6.10275 17.4322 5.45433 16.5235 5.06278C15.923 4.92942 15.4464 5.10909 15.0938 5.60184C14.8207 6.08287 14.8129 6.56723 15.0704 7.05497C14.9127 7.2592 14.7564 7.46236 14.6017 7.66434C14.1883 7.08164 14.0633 6.441 14.2267 5.74247C14.2246 5.69953 14.209 5.66826 14.1798 5.64872C14.9104 4.86979 15.801 4.58853 16.8517 4.80497Z" fill="#513A39"/>
<path opacity="0.998" fill-rule="evenodd" clip-rule="evenodd" d="M21.6328 4.80469C21.7762 4.97944 21.9012 5.16694 22.0078 5.36719C22.014 5.40183 22.0061 5.43309 21.9844 5.46094C20.2171 7.22039 18.4593 8.98598 16.7109 10.7578C16.3672 10.7578 16.0234 10.7578 15.6797 10.7578C16.5849 9.83691 17.4912 8.91502 18.3984 7.99219C18.3468 7.9605 18.2999 7.92928 18.2578 7.89844C18.7132 7.89633 19.0101 7.67756 19.1484 7.24219C19.9788 6.42741 20.8069 5.61492 21.6328 4.80469Z" fill="#FEB817"/>
<path fill-rule="evenodd" clip-rule="evenodd" d="M17.2734 7.00745C17.1472 6.89674 17.0222 6.78733 16.8984 6.67933C17.0853 6.0377 16.851 5.64709 16.1953 5.50745C15.5334 5.62699 15.2835 6.01759 15.4453 6.67933C15.3359 6.81995 15.2109 6.94497 15.0703 7.05433C14.8127 6.56659 14.8206 6.08224 15.0937 5.6012C15.4463 5.10845 15.9229 4.92878 16.5234 5.06214C17.4321 5.45369 17.682 6.10211 17.2734 7.00745Z" fill="#5C4343"/>
<path opacity="0.997" fill-rule="evenodd" clip-rule="evenodd" d="M22.0078 5.36719C22.1993 5.6093 22.3556 5.87494 22.4766 6.16406C20.8203 7.80469 19.164 9.44531 17.5078 11.0859C17.456 11.0344 17.3935 11.0031 17.3203 10.9922C17.1471 10.8509 16.9439 10.7727 16.7109 10.7578C18.4593 8.98598 20.2171 7.22039 21.9844 5.46094C22.0061 5.43309 22.014 5.40183 22.0078 5.36719Z" fill="#FEB114"/>
<path fill-rule="evenodd" clip-rule="evenodd" d="M16.8985 6.67969C16.7793 6.56531 16.6387 6.48722 16.4766 6.44531C16.3193 6.35723 16.1474 6.3338 15.961 6.375C15.7724 6.45347 15.6005 6.55505 15.4454 6.67969C15.2836 6.01795 15.5336 5.62734 16.1954 5.50781C16.8511 5.64745 17.0855 6.03806 16.8985 6.67969Z" fill="#684D4C"/>
<path fill-rule="evenodd" clip-rule="evenodd" d="M14.1798 5.64844C14.209 5.66798 14.2246 5.69925 14.2267 5.74219C14.0632 6.44072 14.1883 7.08136 14.6017 7.66406C14.3606 7.89164 14.0794 7.95412 13.7579 7.85156C13.3022 7.63538 13.1382 7.27598 13.2657 6.77344C13.5108 6.3488 13.8155 5.9738 14.1798 5.64844Z" fill="#3E2B29"/>
<path fill-rule="evenodd" clip-rule="evenodd" d="M18.0703 5.55469C18.1953 5.66405 18.3203 5.77345 18.4453 5.88281C18.5853 6.08517 18.7416 6.27267 18.9141 6.44531C18.9831 6.58345 19.0534 6.72408 19.125 6.86719C19.1483 6.99122 19.1561 7.11623 19.1484 7.24219C19.0101 7.67756 18.7132 7.89633 18.2578 7.89844C18.0313 7.87894 17.8438 7.78519 17.6953 7.61719C17.6953 7.60158 17.6953 7.58592 17.6953 7.57031C18.1547 6.97584 18.2641 6.31959 18.0234 5.60156C18.0293 5.57311 18.0449 5.5575 18.0703 5.55469Z" fill="#3E2A29"/>
<path fill-rule="evenodd" clip-rule="evenodd" d="M16.4766 6.44548C15.0547 7.88299 13.6328 9.32046 12.2109 10.758C11.7891 10.758 11.3672 10.758 10.9453 10.758C11.8656 9.81429 12.7952 8.87679 13.7344 7.94548C13.7561 7.91764 13.764 7.88637 13.7578 7.85173C14.0793 7.95429 14.3605 7.89181 14.6016 7.66423C14.7563 7.46224 14.9126 7.25909 15.0703 7.05485C15.2109 6.94549 15.336 6.82048 15.4453 6.67985C15.6004 6.55521 15.7723 6.45364 15.9609 6.37517C16.1474 6.33396 16.3193 6.3574 16.4766 6.44548Z" fill="#FED020"/>
<path fill-rule="evenodd" clip-rule="evenodd" d="M16.4766 6.44531C16.6386 6.48722 16.7792 6.56531 16.8984 6.67969C17.0222 6.78769 17.1472 6.89709 17.2734 7.00781C17.2734 7.02342 17.2734 7.03908 17.2734 7.05469C17.2796 7.08933 17.2717 7.12059 17.25 7.14844C16.0452 8.34539 14.8499 9.54848 13.6641 10.7578C13.1797 10.7578 12.6953 10.7578 12.2109 10.7578C13.6328 9.3203 15.0547 7.88283 16.4766 6.44531Z" fill="#FECA1E"/>
<path opacity="0.998" fill-rule="evenodd" clip-rule="evenodd" d="M22.4766 6.16406C22.6245 6.36591 22.7496 6.58463 22.8516 6.82031C21.2109 8.44533 19.5703 10.0703 17.9297 11.6953C17.8244 11.4694 17.6837 11.2663 17.5078 11.0859C19.164 9.44531 20.8203 7.80469 22.4766 6.16406Z" fill="#FEAA12"/>
<path opacity="0.999" fill-rule="evenodd" clip-rule="evenodd" d="M7.89844 6.39844C8.17434 6.42694 8.39311 6.55191 8.55469 6.77344C8.52005 6.7673 8.48878 6.77512 8.46094 6.79688C5.74837 9.51727 3.02963 12.2282 0.304688 14.9297C0.245795 14.6821 0.19892 14.4321 0.164062 14.1797C2.74092 11.5872 5.31905 8.99344 7.89844 6.39844Z" fill="#FEE66F"/>
<path opacity="0.999" fill-rule="evenodd" clip-rule="evenodd" d="M8.55469 6.77351C8.63283 6.82038 8.69531 6.88287 8.74219 6.96101C6.01013 9.77121 3.24449 12.5524 0.445312 15.3048C0.384615 15.1886 0.33774 15.0635 0.304688 14.9298C3.02963 12.2283 5.74837 9.51734 8.46094 6.79695C8.48878 6.7752 8.52005 6.76737 8.55469 6.77351Z" fill="#FEE566"/>
<path opacity="0.998" fill-rule="evenodd" clip-rule="evenodd" d="M22.8516 6.82031C22.9582 7.0492 23.0519 7.28358 23.1328 7.52344C21.414 9.27342 19.6797 11.0078 17.9297 12.7266C17.9297 12.3828 17.9297 12.039 17.9297 11.6953C19.5703 10.0703 21.2109 8.44533 22.8516 6.82031Z" fill="#FEA510"/>
<path fill-rule="evenodd" clip-rule="evenodd" d="M17.2734 7.05469C17.4253 7.21795 17.5659 7.38984 17.6953 7.57031C17.6953 7.58592 17.6953 7.60158 17.6953 7.61719C17.7015 7.65183 17.6936 7.68309 17.6719 7.71094C16.6546 8.72039 15.6468 9.73598 14.6484 10.7578C14.3203 10.7578 13.9922 10.7578 13.6641 10.7578C14.8499 9.54848 16.0452 8.34539 17.25 7.14844C17.2717 7.12059 17.2796 7.08933 17.2734 7.05469Z" fill="#FEC41B"/>
<path opacity="0.999" fill-rule="evenodd" clip-rule="evenodd" d="M8.74219 6.96094C8.94263 7.11192 9.09886 7.29942 9.21094 7.52344C6.35545 10.3086 3.51953 13.1211 0.703125 15.9609C0.681361 15.9888 0.673547 16.02 0.679688 16.0547C0.565172 15.8203 0.48705 15.5703 0.445312 15.3047C3.24449 12.5524 6.01013 9.77114 8.74219 6.96094Z" fill="#FEE35C"/>
<path opacity="0.996" fill-rule="evenodd" clip-rule="evenodd" d="M4.80469 7.19531C4.84312 7.30369 4.88217 7.41309 4.92188 7.52344C5.0175 7.61109 5.10342 7.70484 5.17969 7.80469C3.45705 9.45694 1.75393 11.1367 0.0703125 12.8437C0.042449 12.8655 0.011199 12.8733 -0.0234375 12.8672C-0.0234375 12.5703 -0.0234375 12.2734 -0.0234375 11.9766C1.58594 10.3828 3.19531 8.78906 4.80469 7.19531Z" fill="#FEEB8E"/>
<path opacity="0.998" fill-rule="evenodd" clip-rule="evenodd" d="M23.1329 7.52344C23.2689 7.80595 23.3782 8.10286 23.461 8.41406C21.5095 10.3421 19.5642 12.2796 17.6251 14.2266C17.6033 14.1987 17.5955 14.1675 17.6016 14.1328C17.7403 13.6717 17.8497 13.203 17.9298 12.7266C19.6797 11.0078 21.4141 9.27342 23.1329 7.52344Z" fill="#FE9E0E"/>
<path fill-rule="evenodd" clip-rule="evenodd" d="M17.6953 7.61719C17.8438 7.78519 18.0313 7.87894 18.2578 7.89844C18.2999 7.92928 18.3468 7.9605 18.3984 7.99219C17.4912 8.91502 16.5849 9.83691 15.6797 10.7578C15.336 10.7578 14.9922 10.7578 14.6484 10.7578C15.6468 9.73598 16.6546 8.72039 17.6719 7.71094C17.6936 7.68309 17.7015 7.65183 17.6953 7.61719Z" fill="#FEBE19"/>
<path opacity="0.999" fill-rule="evenodd" clip-rule="evenodd" d="M9.21101 7.52344C9.33776 7.70461 9.5096 7.82958 9.72664 7.89844C8.78295 8.86556 7.82984 9.8265 6.86726 10.7812C6.87795 10.8 6.8936 10.8077 6.91414 10.8047C6.80585 10.8434 6.7121 10.9058 6.63289 10.9922C6.34601 11.154 6.1429 11.3884 6.02351 11.6953C4.3454 13.3028 2.67353 14.9513 1.00789 16.6406C0.980024 16.6624 0.948772 16.6702 0.914136 16.6641C0.809267 16.475 0.731141 16.2718 0.679761 16.0547C0.67362 16.02 0.681434 15.9888 0.703199 15.9609C3.5196 13.1211 6.35553 10.3086 9.21101 7.52344Z" fill="#FEE150"/>
<path opacity="0.998" fill-rule="evenodd" clip-rule="evenodd" d="M5.17969 7.80469C5.26331 7.82311 5.34141 7.85433 5.41406 7.89844C3.64613 9.71325 1.84925 11.4945 0.0234375 13.2422C0.035991 13.1672 0.020366 13.1048 -0.0234375 13.0547C-0.0234375 12.9922 -0.0234375 12.9297 -0.0234375 12.8672C0.011199 12.8733 0.042449 12.8655 0.0703125 12.8438C1.75393 11.1367 3.45705 9.45694 5.17969 7.80469Z" fill="#FEEA86"/>
<path opacity="0.997" fill-rule="evenodd" clip-rule="evenodd" d="M7.89844 6.39813C5.31905 8.99313 2.74092 11.5869 0.164062 14.1794C0.0943584 13.8721 0.0474834 13.5596 0.0234375 13.2419C1.84925 11.4942 3.64613 9.71295 5.41406 7.89813C5.64291 7.91253 5.86167 7.87348 6.07031 7.78095C6.28341 7.55234 6.47873 7.31013 6.65625 7.05438C6.92128 6.77365 7.22597 6.54706 7.57031 6.3747C7.68933 6.33738 7.79869 6.34521 7.89844 6.39813Z" fill="#FEE87D"/>
<path opacity="0.998" fill-rule="evenodd" clip-rule="evenodd" d="M23.4609 8.41406C23.5519 8.65589 23.6144 8.90592 23.6484 9.16406C18.8047 13.9766 13.9766 18.8047 9.16406 23.6484C8.90592 23.6144 8.65589 23.5519 8.41406 23.4609C10.3203 21.5391 12.2265 19.6172 14.1328 17.6953C14.3181 17.5895 14.5056 17.4801 14.6953 17.3672C15.0162 17.2519 15.3131 17.0879 15.5859 16.875C15.6212 16.8435 15.6368 16.8045 15.6328 16.7578C16.2456 16.3403 16.7378 15.809 17.1094 15.1641C17.2884 14.8217 17.4525 14.478 17.6016 14.1328C17.5954 14.1675 17.6032 14.1987 17.625 14.2266C19.5641 12.2796 21.5094 10.3421 23.4609 8.41406Z" fill="#FE980B"/>
<path opacity="0.998" fill-rule="evenodd" clip-rule="evenodd" d="M23.6484 9.16406C23.7339 9.41883 23.7965 9.68447 23.8359 9.96094C19.1663 14.5524 14.5257 19.1774 9.91406 23.8359C9.65578 23.7907 9.40575 23.7282 9.16406 23.6484C13.9766 18.8047 18.8047 13.9766 23.6484 9.16406Z" fill="#FF9209"/>
<path opacity="0.998" fill-rule="evenodd" clip-rule="evenodd" d="M23.8359 9.96094C23.8787 10.2249 23.91 10.4905 23.9297 10.7578C19.5234 15.1328 15.1328 19.5234 10.7578 23.9297C10.4756 23.9061 10.1943 23.8749 9.91406 23.8359C14.5257 19.1774 19.1663 14.5524 23.8359 9.96094Z" fill="#FF8C07"/>
<path opacity="0.998" fill-rule="evenodd" clip-rule="evenodd" d="M23.9297 10.7578C23.9186 10.8183 23.9342 10.8652 23.9766 10.8984C23.9766 11.1484 23.9766 11.3985 23.9766 11.6484C19.8516 15.7422 15.7422 19.8516 11.6484 23.9766C11.3985 23.9766 11.1484 23.9766 10.8984 23.9766C10.8652 23.9342 10.8183 23.9186 10.7578 23.9297C15.1328 19.5234 19.5234 15.1328 23.9297 10.7578Z" fill="#FF8605"/>
<path fill-rule="evenodd" clip-rule="evenodd" d="M7.8047 10.7576C8.13282 10.7576 8.46095 10.7576 8.78907 10.7576C9.50781 10.7576 10.2266 10.7576 10.9453 10.7576C11.3672 10.7576 11.7891 10.7576 12.2109 10.7576C12.6953 10.7576 13.1797 10.7576 13.6641 10.7576C13.9922 10.7576 14.3203 10.7576 14.6484 10.7576C14.9922 10.7576 15.336 10.7576 15.6797 10.7576C16.0234 10.7576 16.3672 10.7576 16.7109 10.7576C16.9439 10.7725 17.1471 10.8507 17.3203 10.992C17.3351 11.1735 17.3195 11.3453 17.2734 11.5076C17.2734 11.4295 17.2734 11.3514 17.2734 11.2733C17.2734 11.1951 17.2734 11.117 17.2734 11.0389C13.7422 11.0389 10.2109 11.0389 6.6797 11.0389C6.6797 11.117 6.6797 11.1951 6.6797 11.2733C6.6797 11.3514 6.6797 11.4295 6.6797 11.5076C6.63367 11.3453 6.61806 11.1735 6.63282 10.992C6.71204 10.9057 6.80579 10.8432 6.91407 10.8045C7.20887 10.7636 7.50573 10.748 7.8047 10.7576Z" fill="#D3D0CC"/>
<path fill-rule="evenodd" clip-rule="evenodd" d="M6.63281 10.9922C6.61805 11.1736 6.63366 11.3455 6.67969 11.5078C6.81881 12.2173 7.24069 12.6626 7.94531 12.8438C8.19483 12.8671 8.44481 12.875 8.69531 12.8672C8.23716 13.9901 8.26842 15.0995 8.78906 16.1953C8.77345 16.2266 8.7578 16.2578 8.74219 16.2891C8.61717 16.3828 8.50781 16.4922 8.41406 16.6172C8.3828 16.6797 8.33592 16.7265 8.27344 16.7578C8.16169 16.646 8.03672 16.5523 7.89844 16.4766C7.65258 16.2178 7.4182 15.9522 7.19531 15.6797C7.05009 15.4355 6.89381 15.2011 6.72656 14.9766C6.59977 14.6921 6.47475 14.4109 6.35156 14.1328C6.24286 13.7606 6.14911 13.3856 6.07031 13.0078C6.0503 12.8051 6.03464 12.602 6.02344 12.3984C6.02344 12.1641 6.02344 11.9297 6.02344 11.6953C6.14283 11.3884 6.34594 11.154 6.63281 10.9922Z" fill="#432B2A"/>
<path fill-rule="evenodd" clip-rule="evenodd" d="M17.3203 10.9922C17.3935 11.0031 17.456 11.0344 17.5078 11.0859C17.6837 11.2663 17.8244 11.4694 17.9297 11.6953C17.9297 12.039 17.9297 12.3828 17.9297 12.7266C17.8496 13.203 17.7403 13.6717 17.6016 14.1328C17.4525 14.478 17.2884 14.8217 17.1094 15.1641C16.7378 15.809 16.2456 16.3403 15.6328 16.7578C15.6015 16.7109 15.5703 16.6641 15.5391 16.6172C15.4453 16.4922 15.336 16.3828 15.2109 16.2891C15.1953 16.2578 15.1797 16.2266 15.1641 16.1953C15.6847 15.0995 15.716 13.9901 15.2578 12.8672C16.039 12.9692 16.6562 12.7035 17.1094 12.0703C17.1933 11.8909 17.2479 11.7034 17.2734 11.5078C17.3195 11.3455 17.3351 11.1736 17.3203 10.9922Z" fill="#432A2A"/>
<path fill-rule="evenodd" clip-rule="evenodd" d="M17.2734 11.2734C13.7422 11.2734 10.2109 11.2734 6.67969 11.2734C6.67969 11.1953 6.67969 11.1172 6.67969 11.0391C10.2109 11.0391 13.7422 11.0391 17.2734 11.0391C17.2734 11.1172 17.2734 11.1953 17.2734 11.2734Z" fill="#ECECEC"/>
<path fill-rule="evenodd" clip-rule="evenodd" d="M6.67969 11.2734C10.2109 11.2734 13.7422 11.2734 17.2734 11.2734C17.2734 11.3516 17.2734 11.4297 17.2734 11.5078C17.2479 11.7034 17.1933 11.8909 17.1094 12.0703C16.6562 12.7035 16.039 12.9692 15.2578 12.8672C14.5703 12.8672 13.8828 12.8672 13.1953 12.8672C12.3828 12.8672 11.5703 12.8672 10.7578 12.8672C10.0703 12.8672 9.38283 12.8672 8.69531 12.8672C8.44481 12.875 8.19483 12.8671 7.94531 12.8438C7.24069 12.6626 6.81881 12.2173 6.67969 11.5078C6.67969 11.4297 6.67969 11.3516 6.67969 11.2734Z" fill="#FCFCFC"/>
<path opacity="0.999" fill-rule="evenodd" clip-rule="evenodd" d="M23.9766 11.6484C23.9766 12.039 23.9766 12.4297 23.9766 12.8203C23.9476 12.8151 23.9242 12.7995 23.9062 12.7734C20.1703 16.5016 16.4437 20.236 12.7266 23.9766C12.3672 23.9766 12.0078 23.9766 11.6484 23.9766C15.7422 19.8516 19.8516 15.7422 23.9766 11.6484Z" fill="#FF8003"/>
<path opacity="0.996" fill-rule="evenodd" clip-rule="evenodd" d="M6.02344 11.6953C6.02344 11.9297 6.02344 12.1641 6.02344 12.3984C5.98584 12.3304 5.96241 12.2523 5.95312 12.1641C4.3265 13.7985 2.69369 15.4235 1.05469 17.0391C1.00788 16.9143 0.961003 16.7893 0.914062 16.6641C0.948698 16.6702 0.97995 16.6624 1.00781 16.6406C2.67345 14.9513 4.34533 13.3028 6.02344 11.6953Z" fill="#FEDF47"/>
<path opacity="0.998" fill-rule="evenodd" clip-rule="evenodd" d="M6.02344 12.3984C6.03464 12.602 6.0503 12.8051 6.07031 13.0078C4.50393 14.5038 2.95706 16.0273 1.42969 17.5781C1.40183 17.5999 1.37057 17.6077 1.33594 17.6016C1.24219 17.4141 1.14844 17.2266 1.05469 17.0391C2.69369 15.4235 4.3265 13.7985 5.95312 12.1641C5.96241 12.2523 5.98584 12.3304 6.02344 12.3984Z" fill="#FEDE3D"/>
<path opacity="0.992" fill-rule="evenodd" clip-rule="evenodd" d="M23.9766 12.8203C23.9766 12.8985 23.9766 12.9765 23.9766 13.0547C23.4662 17.2568 21.3881 20.4208 17.7422 22.5469C16.267 23.3295 14.7045 23.806 13.0547 23.9766C12.9453 23.9766 12.8359 23.9766 12.7266 23.9766C16.4437 20.236 20.1703 16.5016 23.9062 12.7734C23.9242 12.7995 23.9476 12.8151 23.9766 12.8203Z" fill="#FF7700"/>
<path fill-rule="evenodd" clip-rule="evenodd" d="M8.69521 12.8672C9.38272 12.8672 10.0702 12.8672 10.7577 12.8672C10.0477 13.5357 9.86019 14.3325 10.1952 15.2578C9.99383 15.3429 9.80633 15.4523 9.63271 15.5859C9.3261 15.7516 9.04485 15.9547 8.78896 16.1953C8.26832 15.0995 8.23705 13.9901 8.69521 12.8672Z" fill="#523737"/>
<path fill-rule="evenodd" clip-rule="evenodd" d="M13.1953 12.8672C13.8828 12.8672 14.5703 12.8672 15.2578 12.8672C15.716 13.9901 15.6847 15.0995 15.1641 16.1953C14.9082 15.9547 14.6269 15.7516 14.3203 15.5859C14.1467 15.4523 13.9592 15.3429 13.7578 15.2578C14.0928 14.3325 13.9053 13.5357 13.1953 12.8672Z" fill="#503535"/>
<path fill-rule="evenodd" clip-rule="evenodd" d="M10.7578 12.8672C11.5703 12.8672 12.3828 12.8672 13.1953 12.8672C13.9053 13.5357 14.0928 14.3325 13.7578 15.2578C12.569 14.8224 11.3815 14.8224 10.1953 15.2578C9.86026 14.3325 10.0478 13.5357 10.7578 12.8672Z" fill="#5B3F3F"/>
<path opacity="0.997" fill-rule="evenodd" clip-rule="evenodd" d="M6.07031 13.0078C6.14911 13.3856 6.24286 13.7606 6.35156 14.1328C4.89225 15.5687 3.43913 17.014 1.99219 18.4687C1.96433 18.4905 1.93307 18.4983 1.89844 18.4922C1.67644 18.2208 1.48894 17.9239 1.33594 17.6016C1.37057 17.6077 1.40183 17.5999 1.42969 17.5781C2.95706 16.0273 4.50393 14.5038 6.07031 13.0078Z" fill="#FEDB2F"/>
<path opacity="0.997" fill-rule="evenodd" clip-rule="evenodd" d="M6.35156 14.1328C6.47475 14.4109 6.59977 14.6921 6.72656 14.9766C5.27109 16.3852 3.84921 17.8226 2.46094 19.2891C2.23733 19.0497 2.04983 18.7841 1.89844 18.4922C1.93307 18.4983 1.96433 18.4905 1.99219 18.4688C3.43913 17.014 4.89225 15.5687 6.35156 14.1328Z" fill="#FED723"/>
<path opacity="0.998" fill-rule="evenodd" clip-rule="evenodd" d="M6.72656 14.9766C6.89381 15.2011 7.05009 15.4355 7.19531 15.6797C5.82267 17.1305 4.41641 18.5524 2.97656 19.9453C2.76926 19.7537 2.59738 19.535 2.46094 19.2891C3.84921 17.8226 5.27109 16.3852 6.72656 14.9766Z" fill="#FED120"/>
<path fill-rule="evenodd" clip-rule="evenodd" d="M13.7578 15.2582C13.9592 15.3433 14.1467 15.4526 14.3203 15.5863C12.7578 15.6488 11.1953 15.6488 9.63281 15.5863C9.80644 15.4526 9.99394 15.3433 10.1953 15.2582C11.3816 14.8228 12.5691 14.8228 13.7578 15.2582Z" fill="#FC9922"/>
<path opacity="0.997" fill-rule="evenodd" clip-rule="evenodd" d="M7.19531 15.6797C7.4182 15.9522 7.65258 16.2178 7.89844 16.4766C6.52111 17.9008 5.11486 19.2914 3.67969 20.6484C3.42969 20.4297 3.19531 20.1953 2.97656 19.9453C4.41641 18.5524 5.82267 17.1305 7.19531 15.6797Z" fill="#FECA1E"/>
<path fill-rule="evenodd" clip-rule="evenodd" d="M9.63281 15.5859C11.1953 15.6484 12.7578 15.6484 14.3203 15.5859C14.6269 15.7516 14.9082 15.9547 15.1641 16.1953C15.1797 16.2266 15.1953 16.2578 15.2109 16.2891C13.0547 16.2891 10.8984 16.2891 8.74219 16.2891C8.7578 16.2578 8.77345 16.2266 8.78906 16.1953C9.04495 15.9547 9.3262 15.7516 9.63281 15.5859Z" fill="#FE8E19"/>
<path fill-rule="evenodd" clip-rule="evenodd" d="M8.74219 16.2891C10.8984 16.2891 13.0547 16.2891 15.2109 16.2891C15.336 16.3828 15.4453 16.4922 15.5391 16.6172C13.164 16.6172 10.7891 16.6172 8.41406 16.6172C8.50781 16.4922 8.61717 16.3828 8.74219 16.2891Z" fill="#FE8614"/>
<path opacity="0.997" fill-rule="evenodd" clip-rule="evenodd" d="M7.89844 16.4766C8.03672 16.5523 8.16169 16.646 8.27344 16.7578C8.31122 16.8154 8.35809 16.8622 8.41406 16.8984C7.0665 18.3164 5.69152 19.7148 4.28906 21.0937C4.2612 21.1155 4.22995 21.1233 4.19531 21.1172C3.99418 20.9942 3.8223 20.838 3.67969 20.6484C5.11486 19.2914 6.52111 17.9008 7.89844 16.4766Z" fill="#FEC41B"/>
<path fill-rule="evenodd" clip-rule="evenodd" d="M8.41406 16.6172C10.7891 16.6172 13.164 16.6172 15.5391 16.6172C15.5703 16.6641 15.6015 16.7109 15.6328 16.7578C15.6368 16.8045 15.6212 16.8435 15.5859 16.875C15.3131 17.0879 15.0162 17.2519 14.6953 17.3672C12.8904 17.3516 11.0936 17.3672 9.30469 17.4141C9.19763 17.3918 9.10388 17.3449 9.02344 17.2734C8.81245 17.1602 8.60934 17.0352 8.41406 16.8984C8.35809 16.8623 8.31122 16.8154 8.27344 16.7578C8.33592 16.7265 8.3828 16.6797 8.41406 16.6172Z" fill="#FE7E0E"/>
<path opacity="0.997" fill-rule="evenodd" clip-rule="evenodd" d="M8.41406 16.8984C8.60934 17.0352 8.81245 17.1602 9.02344 17.2734C9.03042 17.3228 9.02264 17.3696 9 17.4141C7.59211 18.8141 6.19369 20.2204 4.80469 21.6328C4.58663 21.4771 4.38351 21.3053 4.19531 21.1172C4.22995 21.1233 4.2612 21.1155 4.28906 21.0938C5.69152 19.7148 7.0665 18.3164 8.41406 16.8984Z" fill="#FEBE19"/>
<path opacity="0.997" fill-rule="evenodd" clip-rule="evenodd" d="M9.02344 17.2734C9.10388 17.3449 9.19763 17.3918 9.30469 17.4141C9.44925 17.5095 9.60548 17.5876 9.77344 17.6484C8.32031 19.1172 6.86719 20.586 5.41406 22.0547C5.20275 21.9256 4.99964 21.785 4.80469 21.6328C6.19369 20.2204 7.59211 18.8141 9 17.4141C9.02264 17.3696 9.03042 17.3228 9.02344 17.2734Z" fill="#FEB817"/>
<path fill-rule="evenodd" clip-rule="evenodd" d="M14.6953 17.3672C14.5056 17.4801 14.3181 17.5894 14.1328 17.6953C13.5451 17.8771 12.9513 18.0021 12.3516 18.0703C12.0859 18.0703 11.8203 18.0703 11.5547 18.0703C11.2566 18.0337 10.9598 17.9868 10.6641 17.9297C10.3617 17.8549 10.0648 17.7611 9.77344 17.6484C9.60548 17.5876 9.44925 17.5095 9.30469 17.414C11.0936 17.3672 12.8904 17.3516 14.6953 17.3672Z" fill="#FC7105"/>
<path opacity="0.997" fill-rule="evenodd" clip-rule="evenodd" d="M9.77344 17.6484C10.0648 17.7612 10.3617 17.8549 10.6641 17.9297C9.16406 19.4453 7.66406 20.961 6.16406 22.4766C5.90016 22.3603 5.65017 22.2196 5.41406 22.0547C6.86719 20.586 8.32031 19.1172 9.77344 17.6484Z" fill="#FEB114"/>
<path opacity="0.997" fill-rule="evenodd" clip-rule="evenodd" d="M14.1328 17.6953C12.2265 19.6172 10.3203 21.5391 8.41406 23.4609C8.10286 23.3782 7.80595 23.2688 7.52344 23.1328C9.21712 21.4626 10.9046 19.7829 12.5859 18.0938C12.5093 18.0706 12.4312 18.0628 12.3516 18.0703C12.9513 18.0021 13.5451 17.8771 14.1328 17.6953Z" fill="#FE9E0D"/>
<path opacity="0.998" fill-rule="evenodd" clip-rule="evenodd" d="M10.6641 17.9297C10.9598 17.9868 11.2566 18.0337 11.5547 18.0703C9.98986 19.682 8.39611 21.2602 6.77344 22.8047C6.5475 22.7309 6.34439 22.6215 6.16406 22.4766C7.66406 20.961 9.16406 19.4453 10.6641 17.9297Z" fill="#FEAA12"/>
<path opacity="0.997" fill-rule="evenodd" clip-rule="evenodd" d="M11.5547 18.0701C11.8203 18.0701 12.0859 18.0701 12.3516 18.0701C12.4312 18.0626 12.5093 18.0704 12.5859 18.0936C10.9046 19.7827 9.21712 21.4624 7.52344 23.1326C7.25925 23.0472 7.00927 22.9379 6.77344 22.8045C8.39611 21.26 9.98986 19.6818 11.5547 18.0701Z" fill="#FFA510"/>
</g>
<defs>
<clipPath id="clip0_1718_1550">
<rect width="24" height="24" fill="white"/>
</clipPath>
</defs>
</svg>
