<svg width="20" height="20" viewBox="0 0 20 20" fill="none" xmlns="http://www.w3.org/2000/svg">
<path opacity="0.963" fill-rule="evenodd" clip-rule="evenodd" d="M4.58984 1.85498C8.18363 1.84847 11.7774 1.85498 15.3711 1.87451C16.0795 2.03877 16.5482 2.46194 16.7773 3.14404C12.2591 3.14404 7.7409 3.14404 3.22266 3.14404C3.35503 2.70404 3.61544 2.35898 4.00391 2.10889C4.19402 2.00052 4.38934 1.91589 4.58984 1.85498Z" fill="white"/>
<path opacity="0.993" fill-rule="evenodd" clip-rule="evenodd" d="M2.12891 4.35499C7.37633 4.34846 12.6237 4.35499 17.8711 4.37452C18.7025 4.56792 19.2038 5.08225 19.375 5.91749C19.4011 9.47217 19.4011 13.0269 19.375 16.5815C19.1991 17.4346 18.6847 17.9489 17.832 18.1245C12.6107 18.1506 7.38934 18.1506 2.16797 18.1245C1.19592 17.9076 0.668579 17.3021 0.585938 16.3081C0.559896 12.9357 0.559896 9.56331 0.585938 6.19092C0.67145 5.21385 1.18577 4.60186 2.12891 4.35499ZM9.78516 6.89405C10.1948 6.81674 10.4618 6.97299 10.5859 7.3628C10.5925 9.40721 10.612 11.4515 10.6445 13.4956C11.1855 12.9612 11.7323 12.4338 12.2852 11.9136C12.7591 11.799 13.0455 11.9814 13.1445 12.4605C13.1357 12.5781 13.1032 12.6888 13.0469 12.7925C12.1419 13.6974 11.237 14.6024 10.332 15.5073C10.1107 15.6375 9.88934 15.6375 9.66797 15.5073C8.77606 14.6154 7.8841 13.7235 6.99219 12.8315C6.77531 12.3153 6.93805 12.0028 7.48047 11.894C7.57512 11.8977 7.66625 11.9173 7.75391 11.9526C8.29367 12.4599 8.82754 12.9742 9.35547 13.4956C9.38801 11.4384 9.40754 9.38116 9.41406 7.32374C9.47652 7.12475 9.60023 6.98151 9.78516 6.89405Z" fill="white"/>
</svg>
