<svg width="90" height="90" viewBox="0 0 90 90" fill="none" xmlns="http://www.w3.org/2000/svg">
<path opacity="0.993" fill-rule="evenodd" clip-rule="evenodd" d="M24.6972 7.29517C38.1738 7.26587 51.6504 7.29517 65.1268 7.38306C72.79 8.25316 78.1514 12.2082 81.2108 19.2483C81.7058 20.4988 82.0574 21.7878 82.2655 23.1155C82.4633 27.8867 82.5512 32.662 82.5292 37.4417C82.552 42.1631 82.4641 46.8799 82.2655 51.592C80.9858 58.3797 77.2065 63.2136 70.9276 66.094C69.3953 66.6967 67.8133 67.107 66.1815 67.3245C53.5198 67.3278 40.8636 67.445 28.2128 67.676C27.7296 67.8734 27.2901 68.1371 26.8944 68.467C24.771 72.4211 22.6031 76.3468 20.3905 80.2444C17.2196 82.9616 13.8505 83.2253 10.2831 81.0354C8.60746 79.7058 7.64066 77.9773 7.3827 75.8499C7.21056 58.268 7.26914 40.6899 7.55848 23.1155C8.85039 16.6115 12.4539 11.8947 18.369 8.96509C20.4292 8.12809 22.5386 7.57144 24.6972 7.29517ZM43.8573 22.5881C46.2592 22.2795 47.8119 23.2754 48.5155 25.5764C48.6328 29.7366 48.6328 33.8967 48.5155 38.0569C47.4788 40.9031 45.5745 41.6942 42.8026 40.4299C42.0584 39.7903 41.5602 38.9993 41.3085 38.0569C41.1912 33.8967 41.1912 29.7366 41.3085 25.5764C41.6931 24.1677 42.5426 23.1716 43.8573 22.5881ZM43.8573 45.0881C46.5805 44.7944 48.1625 45.9955 48.6034 48.6917C48.1998 51.322 46.6763 52.4938 44.0331 52.2073C41.8172 51.3206 40.9676 49.7093 41.4843 47.3733C42.0294 46.3297 42.8204 45.568 43.8573 45.0881Z" fill="#EA4B98"/>
</svg>
