<svg width="24" height="24" viewBox="0 0 24 24" fill="none" xmlns="http://www.w3.org/2000/svg">
<g clip-path="url(#clip0_1718_1769)">
<path opacity="0.999" fill-rule="evenodd" clip-rule="evenodd" d="M4.61728 -0.0234375C4.80478 -0.0234375 4.99228 -0.0234375 5.17978 -0.0234375C5.17978 0.960938 5.17978 1.94531 5.17978 2.92969C5.17978 7.83595 5.17978 12.7422 5.17978 17.6484C10.7735 17.6484 16.3673 17.6484 21.961 17.6484C21.961 18.1328 21.961 18.6172 21.961 19.1016C21.4141 19.1016 20.8673 19.1016 20.3204 19.1016C15.1798 19.0937 10.0391 19.1016 4.89853 19.125C3.76953 19.4571 3.32421 20.1993 3.56259 21.3516C3.76586 21.961 4.17992 22.3439 4.80478 22.5C9.97664 22.5234 15.1485 22.5313 20.3204 22.5234C20.8673 22.5234 21.4141 22.5234 21.961 22.5234C21.961 23.0078 21.961 23.4922 21.961 23.9766C16.1798 23.9766 10.3985 23.9766 4.61728 23.9766C3.28298 23.6501 2.43142 22.822 2.06259 21.4922C2.00838 18.3217 1.98494 15.1499 1.99228 11.9766C1.98494 8.80327 2.00838 5.63142 2.06259 2.46094C2.43142 1.13111 3.28298 0.302986 4.61728 -0.0234375Z" fill="#80B4FA"/>
<path fill-rule="evenodd" clip-rule="evenodd" d="M5.17969 -0.0234375C5.4922 -0.0234375 5.80467 -0.0234375 6.11719 -0.0234375C6.10936 0.929817 6.11719 1.88294 6.14062 2.83594C6.2003 3.15939 6.36436 3.40939 6.63281 3.58594C6.16791 3.81945 5.75386 3.74133 5.39062 3.35156C5.29317 3.21919 5.22286 3.07856 5.17969 2.92969C5.17969 1.94531 5.17969 0.960938 5.17969 -0.0234375Z" fill="#FED064"/>
<path fill-rule="evenodd" clip-rule="evenodd" d="M6.11719 -0.0234375C7.42969 -0.0234375 8.74219 -0.0234375 10.0547 -0.0234375C10.0625 0.992306 10.0547 2.00793 10.0313 3.02344C9.77593 3.57685 9.34627 3.78779 8.74219 3.65625C8.34751 3.41 7.97251 3.13656 7.61719 2.83594C7.28818 3.08707 6.96005 3.33707 6.63282 3.58594C6.36437 3.40939 6.2003 3.15939 6.14063 2.83594C6.11719 1.88294 6.10937 0.929817 6.11719 -0.0234375Z" fill="#FEDF7D"/>
<path opacity="0.998" fill-rule="evenodd" clip-rule="evenodd" d="M10.0547 -0.0234375C14.0235 -0.0234375 17.9922 -0.0234375 21.9609 -0.0234375C21.9609 5.8672 21.9609 11.7578 21.9609 17.6484C16.3672 17.6484 10.7734 17.6484 5.17969 17.6484C5.17969 12.7422 5.17969 7.83595 5.17969 2.92969C5.22286 3.07856 5.29317 3.21919 5.39062 3.35156C5.75386 3.74133 6.16791 3.81945 6.63281 3.58594C6.96005 3.33707 7.28817 3.08707 7.61719 2.83594C7.9725 3.13656 8.3475 3.41 8.74219 3.65625C9.34627 3.78779 9.77592 3.57685 10.0312 3.02344C10.0547 2.00793 10.0625 0.992306 10.0547 -0.0234375Z" fill="#9DC6FA"/>
<path fill-rule="evenodd" clip-rule="evenodd" d="M13.6172 3.82031C12.9379 4.07107 12.5942 4.56326 12.586 5.29687C12.6164 6.00599 12.9601 6.48252 13.6172 6.72656C12.6964 7.00481 12.0167 6.70795 11.5782 5.83593C11.3203 4.70254 11.75 3.9916 12.8672 3.70312C13.1339 3.6676 13.3839 3.70666 13.6172 3.82031Z" fill="#DCDAEC"/>
<path fill-rule="evenodd" clip-rule="evenodd" d="M13.6172 3.82031C14.4185 4.18831 14.7388 4.81331 14.5781 5.69531C14.4257 6.19917 14.1054 6.54295 13.6172 6.72656C12.9601 6.48253 12.6163 6.006 12.5859 5.29688C12.5941 4.56327 12.9379 4.07108 13.6172 3.82031Z" fill="#F8F5F8"/>
<path fill-rule="evenodd" clip-rule="evenodd" d="M11.5078 8.22657C12.3204 8.21874 13.1329 8.22657 13.9453 8.25001C14.3012 8.34807 14.52 8.57462 14.6015 8.92969C14.6015 10.2109 14.6015 11.4922 14.6015 12.7734C14.8359 12.7734 15.0703 12.7734 15.3047 12.7734C15.7727 12.8744 16.0383 13.1634 16.1015 13.6406C16.0811 14.083 15.8624 14.3799 15.4453 14.5313C14.1173 14.5547 12.7891 14.5625 11.4609 14.5547C10.8284 14.2256 10.68 13.7412 11.0156 13.1016C11.1355 12.9595 11.284 12.8579 11.4609 12.7969C11.8199 12.7734 12.1793 12.7657 12.539 12.7734C12.539 11.8516 12.539 10.9297 12.539 10.0078C12.1637 10.0156 11.7887 10.0078 11.414 9.98438C10.9515 9.7388 10.7718 9.35602 10.875 8.83594C11.0192 8.55887 11.2301 8.35571 11.5078 8.22657Z" fill="#F8F5F8"/>
<path fill-rule="evenodd" clip-rule="evenodd" d="M14.6016 8.92969C14.6483 10.1872 14.664 11.4529 14.6484 12.7266C14.8764 12.7116 15.0952 12.7272 15.3047 12.7734C15.0703 12.7734 14.8359 12.7734 14.6016 12.7734C14.6016 11.4922 14.6016 10.2109 14.6016 8.92969Z" fill="#D1E1F9"/>
<path fill-rule="evenodd" clip-rule="evenodd" d="M11.5078 8.22655C11.2301 8.35569 11.0192 8.55885 10.875 8.83592C10.7718 9.356 10.9515 9.73878 11.414 9.98436C11.7887 10.0078 12.1637 10.0156 12.539 10.0078C12.539 10.9297 12.539 11.8515 12.539 12.7734C12.1793 12.7656 11.8199 12.7734 11.4609 12.7969C11.284 12.8579 11.1356 12.9595 11.0156 13.1015C10.68 13.7412 10.8284 14.2256 11.4609 14.5547C11.1168 14.5625 10.7731 14.5547 10.4297 14.5312C9.87101 14.265 9.69134 13.8353 9.8906 13.2422C10.0386 12.969 10.2652 12.805 10.5703 12.75C10.8668 12.7265 11.1636 12.7188 11.4609 12.7265C11.4609 11.8359 11.4609 10.9453 11.4609 10.0547C11.148 10.0625 10.8355 10.0547 10.5234 10.0312C9.84527 9.77642 9.64999 9.3155 9.93748 8.64842C10.0693 8.45333 10.249 8.32053 10.4765 8.24999C10.8199 8.22655 11.1637 8.21877 11.5078 8.22655Z" fill="#DDDAEC"/>
<path fill-rule="evenodd" clip-rule="evenodd" d="M20.3204 19.1016C20.3204 20.2422 20.3204 21.3828 20.3204 22.5234C15.1485 22.5313 9.97663 22.5234 4.80477 22.5C4.17991 22.3439 3.76585 21.961 3.56258 21.3516C3.3242 20.1993 3.76951 19.4571 4.89852 19.125C10.0391 19.1016 15.1798 19.0937 20.3204 19.1016Z" fill="#F8F5F9"/>
<path fill-rule="evenodd" clip-rule="evenodd" d="M20.3203 19.1016C20.8672 19.1016 21.414 19.1016 21.9609 19.1016C21.9609 20.2422 21.9609 21.3828 21.9609 22.5234C21.414 22.5234 20.8672 22.5234 20.3203 22.5234C20.3203 21.3828 20.3203 20.2422 20.3203 19.1016Z" fill="#9DC6FA"/>
</g>
<defs>
<clipPath id="clip0_1718_1769">
<rect width="24" height="24" fill="white"/>
</clipPath>
</defs>
</svg>
