<svg width="48" height="48" viewBox="0 0 48 48" fill="none" xmlns="http://www.w3.org/2000/svg">
<g clip-path="url(#clip0_386_149)">
<path opacity="0.085" fill-rule="evenodd" clip-rule="evenodd" d="M19.4531 -0.046875C20.2657 -0.046875 21.0781 -0.046875 21.8906 -0.046875C21.8906 -0.015625 21.8906 0.015625 21.8906 0.046875C21.5586 0.0175523 21.2461 0.0488023 20.9531 0.140625C20.5241 0.134799 20.1179 0.197299 19.7344 0.328125C19.3989 0.332697 19.0865 0.395197 18.7969 0.515625C18.1403 0.586 17.5153 0.74225 16.9219 0.984375C16.0288 1.18803 15.1851 1.50052 14.3906 1.92188C8.60937 4.45312 4.45312 8.60937 1.92188 14.3906C1.50052 15.1851 1.18803 16.0288 0.984375 16.9219C0.74225 17.5153 0.586 18.1403 0.515625 18.7969C0.395197 19.0865 0.332697 19.3989 0.328125 19.7344C0.166074 20.3368 0.0723244 20.9618 0.046875 21.6094C0.046875 21.7031 0.046875 21.7969 0.046875 21.8906C0.015625 21.8906 -0.015625 21.8906 -0.046875 21.8906C-0.046875 21.0781 -0.046875 20.2657 -0.046875 19.4531C1.86678 10.5545 7.05427 4.41386 15.5156 1.03125C16.816 0.581434 18.1285 0.222059 19.4531 -0.046875Z" fill="#FFFEFC"/>
<path opacity="0.999" fill-rule="evenodd" clip-rule="evenodd" d="M21.8906 0.046875C21.8906 0.015625 21.8906 -0.015625 21.8906 -0.046875C22.3594 -0.046875 22.8281 -0.046875 23.2969 -0.046875C15.5468 7.76562 7.76562 15.5468 -0.046875 23.2969C-0.046875 22.8281 -0.046875 22.3594 -0.046875 21.8906C-0.015625 21.8906 0.015625 21.8906 0.046875 21.8906C0.0314916 22.1425 0.0471166 22.3926 0.09375 22.6406C7.60938 15.125 15.125 7.60938 22.6406 0.09375C22.3926 0.0471166 22.1425 0.0314916 21.8906 0.046875Z" fill="#FCC232"/>
<path fill-rule="evenodd" clip-rule="evenodd" d="M23.2969 -0.046875C23.6719 -0.046875 24.0469 -0.046875 24.4219 -0.046875C16.3828 8.13284 8.28908 16.2735 0.140625 24.375C0.0848979 24.4185 0.0223979 24.4342 -0.046875 24.4219C-0.046875 24.0469 -0.046875 23.6719 -0.046875 23.2969C7.76562 15.5468 15.5468 7.76562 23.2969 -0.046875Z" fill="#FCBE35"/>
<path opacity="0.074" fill-rule="evenodd" clip-rule="evenodd" d="M26.0156 -0.046875C26.6407 -0.046875 27.2656 -0.046875 27.8906 -0.046875C30.4469 0.419764 32.8532 1.29476 35.1094 2.57812C34.9219 2.51562 34.7344 2.45313 34.5469 2.39062C34.3663 2.22256 34.1476 2.12881 33.8906 2.10938C33.648 1.91019 33.3667 1.7852 33.0469 1.73438C32.832 1.56871 32.5821 1.47496 32.2969 1.45312C32.082 1.28746 31.8321 1.19371 31.5469 1.17188C31.2609 1.02181 30.9484 0.928063 30.6094 0.890625C30.29 0.743033 29.9463 0.649283 29.5781 0.609375C29.4024 0.535764 29.2149 0.473265 29.0156 0.421875C28.6384 0.371425 28.2634 0.308926 27.8906 0.234375C27.4844 0.171875 27.0781 0.109375 26.6719 0.046875C26.432 0.0751455 26.2132 0.0438954 26.0156 -0.046875Z" fill="#FFFCFB"/>
<path fill-rule="evenodd" clip-rule="evenodd" d="M20.9531 0.140651C21.2461 0.0488283 21.5585 0.0175784 21.8906 0.046901C22.1425 0.0315176 22.3925 0.0471426 22.6406 0.093776C15.125 7.6094 7.60936 15.125 0.0937365 22.6406C0.0471031 22.3926 0.0314781 22.1426 0.0468615 21.8906C0.0468615 21.7969 0.0468615 21.7031 0.0468615 21.6094C7.15045 14.4589 14.2755 7.3183 21.4219 0.187526C21.2687 0.141259 21.1124 0.125634 20.9531 0.140651Z" fill="#FCC530"/>
<path fill-rule="evenodd" clip-rule="evenodd" d="M24.4219 -0.046875C24.7969 -0.046875 25.1719 -0.046875 25.5469 -0.046875C25.5573 0.0110086 25.5885 0.0578836 25.6406 0.09375C17.125 8.60937 8.60937 17.125 0.09375 25.6406C0.0578836 25.5885 0.0110086 25.5573 -0.046875 25.5469C-0.046875 25.1719 -0.046875 24.7969 -0.046875 24.4219C0.0223979 24.4342 0.0848979 24.4185 0.140625 24.375C8.28908 16.2735 16.3828 8.13284 24.4219 -0.046875Z" fill="#FCB839"/>
<path fill-rule="evenodd" clip-rule="evenodd" d="M25.5469 -0.046875C25.7032 -0.046875 25.8593 -0.046875 26.0156 -0.046875C26.2132 0.0438954 26.432 0.0751455 26.6719 0.046875C26.7111 0.114523 26.7735 0.161398 26.8594 0.1875C22.8983 4.10158 18.9921 8.05471 15.1406 12.0469C13.7656 12.7343 12.7343 13.7656 12.0469 15.1406C8.05471 18.9921 4.10158 22.8983 0.1875 26.8594C0.161398 26.7735 0.114523 26.7111 0.046875 26.6719C0.0751455 26.432 0.0438954 26.2132 -0.046875 26.0156C-0.046875 25.8593 -0.046875 25.7032 -0.046875 25.5469C0.0110086 25.5573 0.0578836 25.5885 0.09375 25.6406C8.60937 17.125 17.125 8.60937 25.6406 0.09375C25.5885 0.0578836 25.5573 0.0110086 25.5469 -0.046875Z" fill="#FCB140"/>
<path fill-rule="evenodd" clip-rule="evenodd" d="M20.9531 0.140651C21.1124 0.125634 21.2687 0.14126 21.4219 0.187526C14.2755 7.3183 7.15046 14.4589 0.046875 21.6094C0.0723244 20.9619 0.166074 20.3368 0.328125 19.7344C0.313436 19.8631 0.329062 19.9882 0.375 20.1094C6.95313 13.5312 13.5312 6.95315 20.1094 0.375026C19.9882 0.329088 19.8631 0.313463 19.7344 0.328151C20.1179 0.197325 20.5241 0.134826 20.9531 0.140651Z" fill="#FBC92D"/>
<path fill-rule="evenodd" clip-rule="evenodd" d="M26.6719 0.046875C27.0781 0.109375 27.4844 0.171875 27.8906 0.234375C24.0544 3.91433 20.2731 7.66433 16.5469 11.4844C16.0675 11.6459 15.5988 11.8334 15.1406 12.0469C18.9921 8.05471 22.8983 4.10158 26.8594 0.1875C26.7735 0.161398 26.7111 0.114523 26.6719 0.046875Z" fill="#FDAB44"/>
<path fill-rule="evenodd" clip-rule="evenodd" d="M19.7343 0.328153C19.8631 0.313464 19.9881 0.32909 20.1093 0.375028C13.5312 6.95316 6.9531 13.5312 0.374967 20.1094C0.329029 19.9882 0.313403 19.8631 0.328092 19.7344C0.332664 19.399 0.395164 19.0865 0.515592 18.7969C0.501581 18.8955 0.517206 18.9893 0.562467 19.0782C6.73434 12.9063 12.9062 6.7344 19.0781 0.562528C18.9892 0.517267 18.8955 0.501642 18.7968 0.515653C19.0864 0.395225 19.3989 0.332725 19.7343 0.328153Z" fill="#FBCC2A"/>
<path fill-rule="evenodd" clip-rule="evenodd" d="M27.8906 0.234375C28.2634 0.308926 28.6384 0.371425 29.0156 0.421875C28.9117 0.495935 28.7867 0.54281 28.6406 0.5625C25.0593 4.12824 21.4968 7.70637 17.9531 11.2969C17.4799 11.3289 17.0111 11.3914 16.5469 11.4844C20.2731 7.66433 24.0544 3.91433 27.8906 0.234375Z" fill="#FDA649"/>
<path fill-rule="evenodd" clip-rule="evenodd" d="M18.7968 0.515649C18.8955 0.501638 18.9892 0.517263 19.0781 0.562524C12.9062 6.7344 6.73433 12.9063 0.562463 19.0781C0.517202 18.9893 0.501577 18.8955 0.515588 18.7969C0.585963 18.1404 0.742213 17.5153 0.984338 16.9219C0.970322 17.0205 0.98595 17.1143 1.03121 17.2031C6.42184 11.8125 11.8125 6.4219 17.2031 1.03127C17.1142 0.986012 17.0205 0.970383 16.9218 0.984399C17.5153 0.742274 18.1403 0.586024 18.7968 0.515649Z" fill="#FBD127"/>
<path fill-rule="evenodd" clip-rule="evenodd" d="M29.0156 0.421875C29.2149 0.473265 29.4024 0.535764 29.5781 0.609375C29.5904 0.678648 29.5748 0.741148 29.5313 0.796875C26.028 4.2845 22.5436 7.78449 19.0781 11.2969C18.7031 11.2969 18.3281 11.2969 17.9531 11.2969C21.4968 7.70637 25.0593 4.12824 28.6406 0.5625C28.7867 0.54281 28.9117 0.495935 29.0156 0.421875Z" fill="#FE9F4D"/>
<path fill-rule="evenodd" clip-rule="evenodd" d="M29.5781 0.609375C29.9463 0.649283 30.29 0.743033 30.6094 0.890625C27.1094 4.32813 23.6407 7.79688 20.2031 11.2969C19.8281 11.2969 19.4531 11.2969 19.0781 11.2969C22.5436 7.78449 26.028 4.2845 29.5312 0.796875C29.5747 0.741148 29.5904 0.678648 29.5781 0.609375Z" fill="#FE9853"/>
<path fill-rule="evenodd" clip-rule="evenodd" d="M30.6094 0.890625C30.9484 0.928063 31.2609 1.02181 31.5469 1.17188C28.0827 4.4797 24.6765 7.8547 21.3281 11.2969C20.9531 11.2969 20.5781 11.2969 20.2031 11.2969C23.6407 7.79688 27.1094 4.32813 30.6094 0.890625Z" fill="#FE9356"/>
<path fill-rule="evenodd" clip-rule="evenodd" d="M16.9218 0.984401C17.0205 0.970386 17.1142 0.986014 17.2031 1.03128C11.8125 6.4219 6.42184 11.8125 1.03122 17.2031C0.985953 17.1143 0.970325 17.0205 0.98434 16.9219C1.18799 16.0288 1.50049 15.1851 1.92184 14.3906C1.90956 14.4599 1.92519 14.5225 1.96872 14.5781C6.17184 10.3751 10.375 6.1719 14.5781 1.96878C14.5224 1.92525 14.4599 1.90962 14.3906 1.9219C15.185 1.50055 16.0288 1.18805 16.9218 0.984401Z" fill="#FBD723"/>
<path fill-rule="evenodd" clip-rule="evenodd" d="M31.5469 1.17188C31.8321 1.19371 32.082 1.28746 32.2969 1.45312C29.0468 4.73438 25.7969 8.01562 22.5469 11.2969C22.1407 11.2969 21.7343 11.2969 21.3281 11.2969C24.6765 7.8547 28.0827 4.4797 31.5469 1.17188Z" fill="#FE8C5C"/>
<path fill-rule="evenodd" clip-rule="evenodd" d="M32.2969 1.45312C32.5821 1.47496 32.832 1.56871 33.0469 1.73438C29.8282 4.89063 26.6407 8.07813 23.4844 11.2969C23.1719 11.2969 22.8593 11.2969 22.5469 11.2969C25.7969 8.01562 29.0468 4.73438 32.2969 1.45312Z" fill="#FF8660"/>
<path fill-rule="evenodd" clip-rule="evenodd" d="M33.0469 1.73438C33.3667 1.7852 33.648 1.91019 33.8906 2.10938C30.739 5.10469 27.6453 8.16719 24.6094 11.2969C24.2344 11.2969 23.8594 11.2969 23.4844 11.2969C26.6407 8.07813 29.8282 4.89063 33.0469 1.73438Z" fill="#FF7F63"/>
<path fill-rule="evenodd" clip-rule="evenodd" d="M14.3906 1.9219C14.4599 1.90962 14.5225 1.92525 14.5781 1.96877C10.3751 6.1719 6.1719 10.3751 1.96877 14.5781C1.92525 14.5225 1.90962 14.4599 1.9219 14.3906C4.45315 8.6094 8.6094 4.45315 14.3906 1.9219Z" fill="#FADE1F"/>
<path fill-rule="evenodd" clip-rule="evenodd" d="M33.8906 2.10938C34.1476 2.12881 34.3663 2.22256 34.5469 2.39062C31.5469 5.32812 28.5781 8.29688 25.6406 11.2969C25.2968 11.2969 24.9532 11.2969 24.6094 11.2969C27.6453 8.16719 30.739 5.10469 33.8906 2.10938Z" fill="#FF7966"/>
<path fill-rule="evenodd" clip-rule="evenodd" d="M34.5469 2.39062C34.7344 2.45313 34.9219 2.51562 35.1094 2.57812C35.2643 2.59309 35.3893 2.65559 35.4844 2.76562C35.2943 2.75043 35.1068 2.76605 34.9219 2.8125C32.0904 5.62825 29.2779 8.45637 26.4844 11.2969C26.2031 11.2969 25.9219 11.2969 25.6406 11.2969C28.5781 8.29688 31.5469 5.32812 34.5469 2.39062Z" fill="#FF7468"/>
<path fill-rule="evenodd" clip-rule="evenodd" d="M35.4844 2.76563C35.5599 2.88076 35.6537 2.97451 35.7656 3.04688C32.9843 5.76563 30.2344 8.51563 27.5156 11.2969C27.1718 11.2969 26.8282 11.2969 26.4844 11.2969C29.2779 8.45638 32.0904 5.62826 34.9219 2.81251C35.1068 2.76605 35.2943 2.75043 35.4844 2.76563Z" fill="#FF6D6A"/>
<path opacity="0.024" fill-rule="evenodd" clip-rule="evenodd" d="M35.4844 2.76562C35.6882 2.78903 35.8445 2.88278 35.9531 3.04688C35.8906 3.04688 35.8282 3.04688 35.7656 3.04688C35.6537 2.97451 35.5599 2.88076 35.4844 2.76562Z" fill="#FFF8F8"/>
<path fill-rule="evenodd" clip-rule="evenodd" d="M35.7656 3.04689C35.8282 3.04689 35.8906 3.04689 35.9531 3.04689C36.0461 3.0308 36.1086 3.06205 36.1406 3.14064C36.185 3.27248 36.2787 3.33498 36.4219 3.32814C36.6425 3.40691 36.83 3.53191 36.9844 3.70314C36.8637 3.82204 36.77 3.79079 36.7031 3.60939C36.614 3.53199 36.5202 3.51637 36.4219 3.56251C33.8405 6.12826 31.278 8.70639 28.7344 11.2969C28.3282 11.2969 27.9218 11.2969 27.5156 11.2969C30.2344 8.51563 32.9843 5.76564 35.7656 3.04689Z" fill="#FF686E"/>
<path opacity="0.027" fill-rule="evenodd" clip-rule="evenodd" d="M36.1406 3.14064C36.2838 3.1338 36.3775 3.1963 36.4219 3.32814C36.2787 3.33499 36.185 3.27248 36.1406 3.14064Z" fill="#FFF7F7"/>
<path fill-rule="evenodd" clip-rule="evenodd" d="M36.9844 3.7031C37.3492 3.84955 37.6617 4.06829 37.9219 4.35935C37.7956 4.30982 37.6705 4.29419 37.5469 4.31248C35.1794 6.63287 32.867 8.99225 30.6094 11.3906C29.9898 11.3041 29.3648 11.2729 28.7344 11.2969C31.278 8.70635 33.8405 6.12823 36.4219 3.56248C36.5202 3.51633 36.614 3.53195 36.7031 3.60935C36.77 3.79076 36.8637 3.822 36.9844 3.7031Z" fill="#FF5F71"/>
<path fill-rule="evenodd" clip-rule="evenodd" d="M37.9219 4.35938C38.1353 4.44831 38.3228 4.57331 38.4844 4.73438C38.3557 4.71969 38.2306 4.73532 38.1094 4.78126C35.8357 7.00791 33.617 9.27354 31.4531 11.5781C31.1755 11.501 30.8943 11.4384 30.6094 11.3906C32.867 8.99228 35.1794 6.6329 37.5469 4.31251C37.6705 4.29423 37.7956 4.30985 37.9219 4.35938Z" fill="#FF5575"/>
<path fill-rule="evenodd" clip-rule="evenodd" d="M38.4844 4.7344C38.6756 4.89162 38.8631 5.04788 39.0469 5.20315C38.9482 5.18914 38.8545 5.20477 38.7656 5.25003C36.6094 7.40628 34.4531 9.56253 32.2969 11.7188C32.349 11.7547 32.3802 11.8016 32.3906 11.8594C32.0782 11.7657 31.7656 11.6719 31.4531 11.5782C33.617 9.27356 35.8357 7.00793 38.1094 4.78128C38.2306 4.73534 38.3557 4.71971 38.4844 4.7344Z" fill="#FF4E77"/>
<path fill-rule="evenodd" clip-rule="evenodd" d="M39.0469 5.20315C39.3986 5.4414 39.7111 5.72265 39.9844 6.0469C39.8857 6.03289 39.792 6.04851 39.7031 6.09378C37.5905 8.19078 35.4967 10.3002 33.4219 12.4219C33.0742 12.2278 32.7305 12.0403 32.3906 11.8594C32.3802 11.8016 32.349 11.7547 32.2969 11.7188C34.4531 9.56253 36.6094 7.40628 38.7656 5.25003C38.8545 5.20476 38.9482 5.18914 39.0469 5.20315Z" fill="#FF447B"/>
<path opacity="0.999" fill-rule="evenodd" clip-rule="evenodd" d="M39.9844 6.0469C40.113 6.14174 40.238 6.23549 40.3594 6.32815C40.3733 6.42678 40.3578 6.52053 40.3125 6.6094C38.2155 8.69078 36.1373 10.7846 34.0781 12.8907C33.8393 12.7562 33.6205 12.6 33.4219 12.4219C35.4967 10.3002 37.5905 8.19078 39.7031 6.09378C39.792 6.04851 39.8857 6.03289 39.9844 6.0469Z" fill="#FF3B7E"/>
<path fill-rule="evenodd" clip-rule="evenodd" d="M40.3594 6.32812C40.8339 6.70868 41.2402 7.14619 41.5781 7.64062C41.4883 7.59818 41.4101 7.53567 41.3438 7.45312C39.2421 9.60188 37.1015 11.6956 34.9219 13.7344C34.6224 13.4745 34.3412 13.1933 34.0781 12.8906C36.1373 10.7845 38.2155 8.69076 40.3125 6.60938C40.3578 6.5205 40.3733 6.42675 40.3594 6.32812Z" fill="#FE3481"/>
<path fill-rule="evenodd" clip-rule="evenodd" d="M41.5781 7.64062C42.0889 8.02582 42.4951 8.49457 42.7969 9.04688C41.8019 10.1982 40.7394 11.292 39.6094 12.3281C39.9762 11.6629 40.3669 11.0066 40.7812 10.3594C40.9032 10.1811 40.9658 9.99356 40.9688 9.79688C39.2467 11.5345 37.5124 13.2533 35.7656 14.9531C35.5087 14.5341 35.2274 14.1277 34.9219 13.7344C37.1015 11.6956 39.2421 9.60188 41.3438 7.45312C41.4101 7.53567 41.4883 7.59818 41.5781 7.64062Z" fill="#F62F84"/>
<path opacity="0.993" fill-rule="evenodd" clip-rule="evenodd" d="M42.7969 9.04688C43.0796 9.33003 43.3297 9.64256 43.5469 9.98438C41.2343 12.3593 38.8906 14.7031 36.5156 17.0156C36.5156 16.9844 36.5156 16.9531 36.5156 16.9219C37.5239 15.3737 38.5552 13.8424 39.6094 12.3281C40.7394 11.292 41.8019 10.1982 42.7969 9.04688Z" fill="#E91C81"/>
<path opacity="0.997" fill-rule="evenodd" clip-rule="evenodd" d="M43.5469 9.98438C43.7564 10.246 43.9439 10.5273 44.1094 10.8281C41.6407 13.3594 39.1406 15.8594 36.6094 18.3281C36.6056 17.8882 36.5744 17.4507 36.5156 17.0156C38.8906 14.7031 41.2343 12.3593 43.5469 9.98438Z" fill="#E31C85"/>
<path fill-rule="evenodd" clip-rule="evenodd" d="M39.6094 12.3281C38.5552 13.8424 37.5239 15.3737 36.5156 16.9219C36.3417 16.2451 36.0918 15.5888 35.7656 14.9531C37.5124 13.2533 39.2467 11.5345 40.9688 9.79688C40.9658 9.99356 40.9032 10.1811 40.7812 10.3594C40.3669 11.0066 39.9762 11.6629 39.6094 12.3281Z" fill="#F0328B"/>
<path fill-rule="evenodd" clip-rule="evenodd" d="M17.9531 11.2969C18.3281 11.2969 18.7031 11.2969 19.0781 11.2969C19.4531 11.2969 19.8281 11.2969 20.2031 11.2969C20.5781 11.2969 20.9531 11.2969 21.3281 11.2969C21.7344 11.2969 22.1407 11.2969 22.5469 11.2969C22.8594 11.2969 23.1719 11.2969 23.4844 11.2969C23.8594 11.2969 24.2344 11.2969 24.6094 11.2969C24.9532 11.2969 25.2969 11.2969 25.6406 11.2969C25.9219 11.2969 26.2031 11.2969 26.4844 11.2969C26.8282 11.2969 27.1719 11.2969 27.5156 11.2969C27.9219 11.2969 28.3282 11.2969 28.7344 11.2969C29.3648 11.2729 29.9898 11.3041 30.6094 11.3906C30.8943 11.4384 31.1756 11.501 31.4531 11.5781C31.7656 11.6719 32.0782 11.7656 32.3906 11.8594C32.7305 12.0403 33.0743 12.2278 33.4219 12.4219C33.6206 12.6 33.8394 12.7562 34.0781 12.8906C34.3412 13.1933 34.6225 13.4745 34.9219 13.7344C35.2274 14.1278 35.5087 14.5341 35.7656 14.9531C36.0918 15.5889 36.3417 16.2451 36.5156 16.9219C36.5156 16.9531 36.5156 16.9844 36.5156 17.0156C36.5744 17.4507 36.6056 17.8882 36.6094 18.3281C36.6094 18.7657 36.6094 19.2031 36.6094 19.6406C36.6094 20.1094 36.6094 20.5781 36.6094 21.0469C36.6094 21.5156 36.6094 21.9844 36.6094 22.4531C36.6094 22.9844 36.6094 23.5156 36.6094 24.0469C36.6094 24.5156 36.6094 24.9844 36.6094 25.4531C36.6094 25.9219 36.6094 26.3906 36.6094 26.8594C36.6094 27.3281 36.6094 27.7969 36.6094 28.2656C36.6094 28.7969 36.6094 29.3281 36.6094 29.8594C36.5497 30.3967 36.4559 30.9279 36.3281 31.4531C36.0069 32.5964 35.4444 33.5964 34.6406 34.4531C34.6406 34.4844 34.6406 34.5157 34.6406 34.5469C33.7237 35.3809 32.6612 35.9746 31.4531 36.3281C30.928 36.4559 30.3967 36.5497 29.8594 36.6094C29.3281 36.6094 28.7969 36.6094 28.2656 36.6094C27.7969 36.6094 27.3281 36.6094 26.8594 36.6094C26.3906 36.6094 25.9219 36.6094 25.4531 36.6094C24.9844 36.6094 24.5156 36.6094 24.0469 36.6094C23.5156 36.6094 22.9844 36.6094 22.4531 36.6094C21.9844 36.6094 21.5156 36.6094 21.0469 36.6094C20.5781 36.6094 20.1094 36.6094 19.6406 36.6094C19.2031 36.6094 18.7657 36.6094 18.3281 36.6094C17.8893 36.5935 17.4518 36.5623 17.0156 36.5156C16.9844 36.5156 16.9531 36.5156 16.9219 36.5156C16.2424 36.341 15.5861 36.0909 14.9531 35.7656C14.5341 35.5087 14.1278 35.2274 13.7344 34.9219C13.4844 34.6094 13.2031 34.3282 12.8906 34.0781C12.7562 33.8394 12.6 33.6205 12.4219 33.4219C12.2567 33.0598 12.0692 32.7161 11.8594 32.3906C11.7656 32.0782 11.6719 31.7656 11.5781 31.4531C11.501 31.1755 11.4385 30.8943 11.3906 30.6094C11.3127 29.9877 11.2815 29.3627 11.2969 28.7344C11.2969 28.3282 11.2969 27.9219 11.2969 27.5156C11.2969 27.1719 11.2969 26.8282 11.2969 26.4844C11.2969 26.2031 11.2969 25.9219 11.2969 25.6406C11.2969 25.2969 11.2969 24.9532 11.2969 24.6094C11.2969 24.2344 11.2969 23.8594 11.2969 23.4844C11.2969 23.1719 11.2969 22.8594 11.2969 22.5469C11.2969 22.1407 11.2969 21.7344 11.2969 21.3281C11.2969 20.9531 11.2969 20.5781 11.2969 20.2031C11.2969 19.8281 11.2969 19.4531 11.2969 19.0781C11.2969 18.7031 11.2969 18.3281 11.2969 17.9531C11.329 17.4799 11.3914 17.0111 11.4844 16.5469C11.6459 16.0675 11.8334 15.5988 12.0469 15.1406C12.7344 13.7656 13.7656 12.7344 15.1406 12.0469C15.5988 11.8334 16.0676 11.6459 16.5469 11.4844C17.0111 11.3914 17.4799 11.3289 17.9531 11.2969Z" fill="#FEFCFD"/>
<path opacity="0.998" fill-rule="evenodd" clip-rule="evenodd" d="M44.1094 10.8281C44.3189 11.0898 44.5064 11.371 44.6719 11.6719C41.9843 14.3281 39.2969 16.9844 36.6094 19.6406C36.6094 19.2031 36.6094 18.7657 36.6094 18.3281C39.1406 15.8594 41.6407 13.3594 44.1094 10.8281Z" fill="#DC1C89"/>
<path opacity="0.997" fill-rule="evenodd" clip-rule="evenodd" d="M44.6719 11.6719C44.8774 11.9578 45.0336 12.2703 45.1406 12.6094C42.2969 15.4219 39.4531 18.2344 36.6094 21.0469C36.6094 20.5781 36.6094 20.1094 36.6094 19.6406C39.2969 16.9844 41.9843 14.3281 44.6719 11.6719Z" fill="#D71B8C"/>
<path opacity="0.998" fill-rule="evenodd" clip-rule="evenodd" d="M45.1406 12.6094C45.3444 12.892 45.5007 13.2046 45.6094 13.5469C42.6094 16.5157 39.6094 19.4843 36.6094 22.4531C36.6094 21.9844 36.6094 21.5156 36.6094 21.0469C39.4531 18.2344 42.2969 15.4219 45.1406 12.6094Z" fill="#D11B90"/>
<path fill-rule="evenodd" clip-rule="evenodd" d="M18.9844 13.5469C19.3906 13.5469 19.7969 13.5469 20.2031 13.5469C18.0157 15.7969 15.7969 18.0157 13.5469 20.2031C13.5469 19.7969 13.5469 19.3906 13.5469 18.9844C15.3907 17.2031 17.2031 15.3907 18.9844 13.5469Z" fill="#FE8C5C"/>
<path fill-rule="evenodd" clip-rule="evenodd" d="M20.2031 13.5469C20.5156 13.5469 20.8282 13.5469 21.1406 13.5469C18.6406 16.1093 16.1093 18.6406 13.5469 21.1406C13.5469 20.8282 13.5469 20.5156 13.5469 20.2031C15.7969 18.0157 18.0157 15.7969 20.2031 13.5469Z" fill="#FF8660"/>
<path fill-rule="evenodd" clip-rule="evenodd" d="M21.1406 13.5469C21.5156 13.5469 21.8906 13.5469 22.2656 13.5469C19.3906 16.4843 16.4843 19.3906 13.5469 22.2656C13.5469 21.8906 13.5469 21.5156 13.5469 21.1406C16.1093 18.6406 18.6406 16.1093 21.1406 13.5469Z" fill="#FF7F63"/>
<path fill-rule="evenodd" clip-rule="evenodd" d="M22.2656 13.5469C22.6094 13.5469 22.9531 13.5469 23.2969 13.5469C20.0782 16.8281 16.8281 20.0782 13.5469 23.2969C13.5469 22.9531 13.5469 22.6094 13.5469 22.2656C16.4843 19.3906 19.3906 16.4843 22.2656 13.5469Z" fill="#FF7966"/>
<path fill-rule="evenodd" clip-rule="evenodd" d="M23.2969 13.5469C23.5781 13.5469 23.8594 13.5469 24.1406 13.5469C20.6407 17.1094 17.1094 20.6407 13.5469 24.1406C13.5469 23.8594 13.5469 23.5781 13.5469 23.2969C16.8281 20.0782 20.0782 16.8281 23.2969 13.5469Z" fill="#FF7367"/>
<path fill-rule="evenodd" clip-rule="evenodd" d="M24.1406 13.5469C24.4844 13.5469 24.8281 13.5469 25.1719 13.5469C23.6283 15.1373 22.0658 16.7155 20.4844 18.2812C20.5058 18.3187 20.5371 18.3342 20.5781 18.3281C19.7656 18.9532 19.0469 19.6718 18.4219 20.4844C18.428 20.4433 18.4124 20.412 18.375 20.3906C16.778 22.0033 15.1687 23.5971 13.5469 25.1719C13.5469 24.8281 13.5469 24.4844 13.5469 24.1406C17.1094 20.6407 20.6407 17.1094 24.1406 13.5469Z" fill="#FF6E6B"/>
<path fill-rule="evenodd" clip-rule="evenodd" d="M25.1719 13.5469C25.5781 13.5469 25.9844 13.5469 26.3906 13.5469C25.0781 14.8906 23.7656 16.2344 22.4531 17.5781C21.8083 17.7754 21.1834 18.0254 20.5781 18.3281C20.5371 18.3342 20.5058 18.3187 20.4844 18.2812C22.0658 16.7155 23.6283 15.1373 25.1719 13.5469Z" fill="#FF676D"/>
<path fill-rule="evenodd" clip-rule="evenodd" d="M26.3906 13.5469C27.0157 13.5469 27.6406 13.5469 28.2656 13.5469C27.0346 14.8249 25.7845 16.0905 24.5156 17.3438C24.6316 17.3655 24.7253 17.4124 24.7969 17.4844C24.0088 17.3479 23.2276 17.3791 22.4531 17.5781C23.7656 16.2344 25.0781 14.8906 26.3906 13.5469Z" fill="#FF5E70"/>
<path fill-rule="evenodd" clip-rule="evenodd" d="M28.2656 13.5469C28.6596 13.5171 29.0346 13.5485 29.3906 13.6406C27.9892 14.8857 26.6454 16.1982 25.3594 17.5781C25.1719 17.5469 24.9844 17.5156 24.7969 17.4844C24.7253 17.4124 24.6316 17.3655 24.5156 17.3437C25.7845 16.0905 27.0346 14.8249 28.2656 13.5469Z" fill="#FF5574"/>
<path opacity="0.996" fill-rule="evenodd" clip-rule="evenodd" d="M45.6094 13.5469C45.8447 13.8925 46.0322 14.2675 46.1719 14.6719C46.1026 14.6596 46.0401 14.6753 45.9844 14.7188C42.8718 17.847 39.7467 20.9564 36.6094 24.0469C36.6094 23.5156 36.6094 22.9844 36.6094 22.4531C39.6094 19.4843 42.6094 16.5157 45.6094 13.5469Z" fill="#CB1C94"/>
<path fill-rule="evenodd" clip-rule="evenodd" d="M18.9844 13.5469C17.2031 15.3907 15.3907 17.2031 13.5469 18.9844C13.9557 15.763 15.7682 13.9506 18.9844 13.5469Z" fill="#FE9458"/>
<path fill-rule="evenodd" clip-rule="evenodd" d="M29.3906 13.6406C29.9902 13.6845 30.5527 13.8408 31.0781 14.1094C30.9795 14.0954 30.8857 14.111 30.7969 14.1562C29.4605 15.4455 28.1792 16.7737 26.9531 18.1406C26.4346 17.9157 25.9033 17.7282 25.3594 17.5781C26.6454 16.1982 27.9892 14.8857 29.3906 13.6406Z" fill="#FF4A79"/>
<path fill-rule="evenodd" clip-rule="evenodd" d="M31.0781 14.1094C31.5322 14.2892 31.9385 14.5391 32.2969 14.8594C31.8683 15.0065 31.5558 15.2877 31.3594 15.7031C29.8265 15.4546 29.1389 16.1109 29.2969 17.6719C28.8593 18.0469 28.4531 18.4531 28.0781 18.8906C27.6997 18.6394 27.3247 18.3894 26.9531 18.1406C28.1792 16.7737 29.4605 15.4455 30.7969 14.1563C30.8858 14.111 30.9795 14.0954 31.0781 14.1094Z" fill="#FF437E"/>
<path opacity="0.998" fill-rule="evenodd" clip-rule="evenodd" d="M46.1719 14.6719C46.2922 14.944 46.386 15.2252 46.4531 15.5156C43.2391 18.8861 39.9578 22.1985 36.6094 25.4531C36.6094 24.9844 36.6094 24.5156 36.6094 24.0469C39.7467 20.9564 42.8718 17.847 45.9844 14.7188C46.0401 14.6753 46.1026 14.6596 46.1719 14.6719Z" fill="#C41B99"/>
<path fill-rule="evenodd" clip-rule="evenodd" d="M12.0469 15.1406C11.8334 15.5988 11.6459 16.0675 11.4844 16.5469C7.70059 20.2682 3.95059 24.0182 0.234375 27.7969C0.163241 27.424 0.100741 27.049 0.046875 26.6719C0.114523 26.7111 0.161398 26.7735 0.1875 26.8594C4.10158 22.8983 8.05471 18.9921 12.0469 15.1406Z" fill="#FDAB44"/>
<path fill-rule="evenodd" clip-rule="evenodd" d="M31.3594 15.7031C32.4149 16.3864 32.5712 17.2458 31.8282 18.2812C30.7627 18.9726 29.9189 18.7695 29.2969 17.6719C29.1389 16.1108 29.8265 15.4546 31.3594 15.7031Z" fill="#FFFCFD"/>
<path fill-rule="evenodd" clip-rule="evenodd" d="M32.2969 14.8594C33.0082 15.4457 33.5395 16.1644 33.8906 17.0156C32.6333 18.4138 31.3207 19.7732 29.9531 21.0938C29.8974 21.1372 29.8349 21.1529 29.7656 21.1406C29.3113 20.311 28.7488 19.561 28.0781 18.8906C28.4531 18.4531 28.8593 18.0469 29.2969 17.6719C29.9189 18.7695 30.7627 18.9727 31.8281 18.2812C32.5712 17.2458 32.4149 16.3864 31.3594 15.7031C31.5558 15.2877 31.8683 15.0065 32.2969 14.8594Z" fill="#F83687"/>
<path opacity="0.998" fill-rule="evenodd" clip-rule="evenodd" d="M46.4531 15.5156C46.6259 15.9079 46.7822 16.3142 46.9219 16.7344C46.8526 16.7221 46.7901 16.7378 46.7344 16.7812C43.3717 20.1595 39.9967 23.5189 36.6094 26.8594C36.6094 26.3906 36.6094 25.9219 36.6094 25.4531C39.9578 22.1985 43.2391 18.886 46.4531 15.5156Z" fill="#BE1C9D"/>
<path fill-rule="evenodd" clip-rule="evenodd" d="M11.4844 16.5469C11.3914 17.0111 11.3289 17.4799 11.2969 17.9531C7.70637 21.4968 4.12824 25.0593 0.5625 28.6406C0.54281 28.7867 0.495935 28.9117 0.421875 29.0156C0.359375 28.6094 0.296875 28.2031 0.234375 27.7969C3.95059 24.0182 7.70059 20.2682 11.4844 16.5469Z" fill="#FDA649"/>
<path opacity="0.998" fill-rule="evenodd" clip-rule="evenodd" d="M46.9219 16.7344C47.0302 17.0741 47.124 17.4177 47.2031 17.7656C43.6718 21.2656 40.1407 24.7657 36.6094 28.2656C36.6094 27.7969 36.6094 27.3281 36.6094 26.8594C39.9967 23.5189 43.3717 20.1596 46.7344 16.7813C46.7901 16.7378 46.8526 16.7221 46.9219 16.7344Z" fill="#B81BA0"/>
<path fill-rule="evenodd" clip-rule="evenodd" d="M33.8906 17.0156C34.0884 17.3908 34.2134 17.797 34.2656 18.2344C32.9408 19.5123 31.6283 20.8092 30.3281 22.125C30.2724 22.1685 30.2099 22.1842 30.1406 22.1719C30.0414 21.8176 29.9165 21.4738 29.7656 21.1406C29.8349 21.1529 29.8974 21.1372 29.9531 21.0937C31.3207 19.7732 32.6332 18.4138 33.8906 17.0156Z" fill="#F0338B"/>
<path fill-rule="evenodd" clip-rule="evenodd" d="M24.7968 17.4844C24.9843 17.5156 25.1718 17.5469 25.3593 17.5781C25.9033 17.7282 26.4346 17.9157 26.9531 18.1406C27.3246 18.3894 27.6996 18.6394 28.0781 18.8906C28.7488 19.561 29.3113 20.311 29.7656 21.1406C29.9164 21.4738 30.0414 21.8176 30.1406 22.1719C30.2983 22.8487 30.3607 23.5361 30.3281 24.2344C30.285 24.8367 30.1912 25.4304 30.0468 26.0156C29.2656 27.9844 27.8906 29.3594 25.9218 30.1406C25.4556 30.2464 24.9869 30.3401 24.5156 30.4219C23.7242 30.4544 22.9429 30.3919 22.1718 30.2344C21.7734 30.0598 21.3672 29.9036 20.9531 29.7656C20.5666 29.4624 20.1604 29.1812 19.7343 28.9219C19.5156 28.6406 19.2656 28.3906 18.9843 28.1719C18.7028 27.7336 18.4216 27.2962 18.1406 26.8594C17.9839 26.3583 17.8277 25.8583 17.6718 25.3594C17.6389 25.0403 17.5764 24.7278 17.4843 24.4219C17.4756 23.8253 17.5068 23.2316 17.5781 22.6406C17.8017 21.9089 18.0829 21.1901 18.4218 20.4844C19.0469 19.6718 19.7656 18.9532 20.5781 18.3281C21.1833 18.0254 21.8083 17.7754 22.4531 17.5781C23.2276 17.3791 24.0088 17.3479 24.7968 17.4844Z" fill="#FFFDFD"/>
<path opacity="0.997" fill-rule="evenodd" clip-rule="evenodd" d="M47.2031 17.7656C47.3264 18.1964 47.4202 18.6338 47.4844 19.0781C43.8593 22.6718 40.2344 26.2657 36.6094 29.8594C36.6094 29.3281 36.6094 28.7969 36.6094 28.2656C40.1407 24.7657 43.6718 21.2656 47.2031 17.7656Z" fill="#B11BA4"/>
<path fill-rule="evenodd" clip-rule="evenodd" d="M11.2969 17.9531C11.2969 18.3281 11.2969 18.7031 11.2969 19.0781C7.78449 22.5436 4.2845 26.028 0.796875 29.5313C0.741148 29.5748 0.678648 29.5904 0.609375 29.5781C0.535764 29.4024 0.473265 29.2149 0.421875 29.0156C0.495935 28.9117 0.54281 28.7867 0.5625 28.6406C4.12824 25.0593 7.70637 21.4968 11.2969 17.9531Z" fill="#FE9F4D"/>
<path fill-rule="evenodd" clip-rule="evenodd" d="M34.2656 18.2344C34.3582 18.6848 34.3895 19.1536 34.3594 19.6406C33.0818 21.2246 31.7381 22.7558 30.3281 24.2344C30.3608 23.5361 30.2983 22.8487 30.1406 22.1719C30.2099 22.1842 30.2724 22.1685 30.3281 22.125C31.6283 20.8092 32.9408 19.5123 34.2656 18.2344Z" fill="#EA348F"/>
<path fill-rule="evenodd" clip-rule="evenodd" d="M11.2969 19.0781C11.2969 19.4531 11.2969 19.8281 11.2969 20.2031C7.79688 23.6407 4.32813 27.1094 0.890625 30.6094C0.743033 30.29 0.649283 29.9463 0.609375 29.5781C0.678648 29.5904 0.741148 29.5747 0.796875 29.5312C4.2845 26.028 7.78449 22.5436 11.2969 19.0781Z" fill="#FE9853"/>
<path opacity="0.998" fill-rule="evenodd" clip-rule="evenodd" d="M47.4844 19.0781C47.6066 19.44 47.6692 19.815 47.6719 20.2031C43.9485 24.0202 40.1673 27.7703 36.3281 31.4531C36.4559 30.9279 36.5497 30.3967 36.6094 29.8594C40.2344 26.2657 43.8593 22.6718 47.4844 19.0781Z" fill="#AB1CA9"/>
<path fill-rule="evenodd" clip-rule="evenodd" d="M24.3281 19.7344C22.7656 21.2656 21.2032 22.7969 19.6406 24.3281C19.6687 21.5535 21.0592 19.9911 23.8125 19.6406C24.0031 19.6412 24.1749 19.6724 24.3281 19.7344Z" fill="#FF5278"/>
<path fill-rule="evenodd" clip-rule="evenodd" d="M24.3281 19.7344C24.8118 19.7293 25.2492 19.8543 25.6406 20.1094C23.8314 21.9656 22.0033 23.8092 20.1562 25.6407C20.1127 25.6963 20.0971 25.7589 20.1094 25.8282C19.839 25.3742 19.6828 24.8742 19.6406 24.3282C21.2032 22.7969 22.7656 21.2656 24.3281 19.7344Z" fill="#FF447B"/>
<path fill-rule="evenodd" clip-rule="evenodd" d="M11.2969 20.2031C11.2969 20.5781 11.2969 20.9531 11.2969 21.3281C7.8547 24.6765 4.4797 28.0827 1.17188 31.5469C1.02181 31.2609 0.928063 30.9484 0.890625 30.6094C4.32813 27.1094 7.79688 23.6407 11.2969 20.2031Z" fill="#FE9356"/>
<path fill-rule="evenodd" clip-rule="evenodd" d="M25.6406 20.1094C25.968 20.1947 26.2493 20.3509 26.4844 20.5781C24.4266 22.4796 22.4266 24.4483 20.4844 26.4844C20.2886 26.3123 20.1637 26.0935 20.1094 25.8281C20.0971 25.7588 20.1128 25.6963 20.1563 25.6406C22.0033 23.8092 23.8315 21.9655 25.6406 20.1094Z" fill="#FF3C7E"/>
<path opacity="0.997" fill-rule="evenodd" clip-rule="evenodd" d="M47.6719 20.2031C47.7852 20.5892 47.8477 20.9954 47.8594 21.4219C43.5033 25.7311 39.1595 30.0592 34.8281 34.4062C34.7724 34.4497 34.7099 34.4654 34.6406 34.4531C35.4443 33.5964 36.0068 32.5964 36.3281 31.4531C40.1673 27.7702 43.9485 24.0202 47.6719 20.2031Z" fill="#A51DAC"/>
<path fill-rule="evenodd" clip-rule="evenodd" d="M18.4219 20.4844C18.083 21.1901 17.8017 21.9089 17.5781 22.6406C17.5904 22.5713 17.5747 22.5088 17.5312 22.4531C16.2155 23.7846 14.8874 25.0971 13.5469 26.3906C13.5469 25.9844 13.5469 25.5781 13.5469 25.1719C15.1687 23.5971 16.778 22.0033 18.375 20.3906C18.4124 20.412 18.428 20.4433 18.4219 20.4844Z" fill="#FF676D"/>
<path fill-rule="evenodd" clip-rule="evenodd" d="M26.4844 20.5781C26.7968 20.8282 27.0781 21.1094 27.3281 21.4219C25.3859 23.4579 23.3859 25.4267 21.3281 27.3281C20.9531 27.1406 20.6719 26.8594 20.4844 26.4844C22.4266 24.4483 24.4266 22.4796 26.4844 20.5781Z" fill="#FE3482"/>
<path fill-rule="evenodd" clip-rule="evenodd" d="M34.3594 19.6406C34.3594 20.4218 34.3594 21.2032 34.3594 21.9844C32.9251 23.3717 31.5033 24.7779 30.0938 26.2031C30.0503 26.1474 30.0346 26.0849 30.0469 26.0156C30.1913 25.4304 30.285 24.8367 30.3281 24.2344C31.7381 22.7558 33.0819 21.2246 34.3594 19.6406Z" fill="#DF1E89"/>
<path fill-rule="evenodd" clip-rule="evenodd" d="M11.2969 21.3281C11.2969 21.7343 11.2969 22.1407 11.2969 22.5469C8.01562 25.7969 4.73438 29.0468 1.45312 32.2969C1.28746 32.082 1.19371 31.8321 1.17188 31.5469C4.4797 28.0827 7.8547 24.6765 11.2969 21.3281Z" fill="#FE8C5C"/>
<path opacity="0.998" fill-rule="evenodd" clip-rule="evenodd" d="M47.8594 21.4219C47.8342 21.5718 47.8656 21.6968 47.9531 21.7969C47.9531 22.1093 47.9531 22.4219 47.9531 22.7344C39.5156 31.1093 31.1093 39.5156 22.7344 47.9531C22.4219 47.9531 22.1093 47.9531 21.7969 47.9531C21.6968 47.8656 21.5718 47.8342 21.4219 47.8594C25.8281 43.4219 30.2344 38.9843 34.6406 34.5469C34.6406 34.5157 34.6406 34.4843 34.6406 34.4531C34.7099 34.4654 34.7724 34.4497 34.8281 34.4062C39.1595 30.0592 43.5033 25.7311 47.8594 21.4219Z" fill="#9F1BB0"/>
<path fill-rule="evenodd" clip-rule="evenodd" d="M27.3281 21.4219C27.6705 21.8257 27.8893 22.2945 27.9844 22.8281C26.2533 24.5123 24.5345 26.2155 22.8281 27.9375C22.7392 27.9828 22.6455 27.9983 22.5469 27.9844C22.0691 27.8863 21.6629 27.6676 21.3281 27.3281C23.3859 25.4267 25.3859 23.4579 27.3281 21.4219Z" fill="#F73386"/>
<path fill-rule="evenodd" clip-rule="evenodd" d="M34.3594 21.9844C34.3594 22.4531 34.3594 22.9219 34.3594 23.3906C30.6719 27.0157 27.0157 30.6719 23.3906 34.3594C22.9219 34.3594 22.4531 34.3594 21.9844 34.3594C23.3405 32.9564 24.7154 31.5657 26.1094 30.1875C26.0537 30.144 25.9912 30.1283 25.9219 30.1406C27.8906 29.3594 29.2657 27.9844 30.0469 26.0156C30.0346 26.0849 30.0503 26.1474 30.0938 26.2031C31.5033 24.7779 32.9251 23.3717 34.3594 21.9844Z" fill="#D71E8D"/>
<path fill-rule="evenodd" clip-rule="evenodd" d="M17.5781 22.6406C17.5069 23.2316 17.4757 23.8253 17.4844 24.4219C16.1719 25.7032 14.8594 26.9843 13.5469 28.2656C13.5469 27.6406 13.5469 27.0157 13.5469 26.3906C14.8874 25.0971 16.2155 23.7846 17.5312 22.4531C17.5747 22.5088 17.5904 22.5713 17.5781 22.6406Z" fill="#FF5E70"/>
<path fill-rule="evenodd" clip-rule="evenodd" d="M11.2969 22.5469C11.2969 22.8593 11.2969 23.1719 11.2969 23.4844C8.07813 26.6407 4.89063 29.8282 1.73438 33.0469C1.56871 32.832 1.47496 32.5821 1.45312 32.2969C4.73438 29.0468 8.01562 25.7969 11.2969 22.5469Z" fill="#FF8660"/>
<path opacity="0.999" fill-rule="evenodd" clip-rule="evenodd" d="M47.9531 22.7344C47.9531 23.2657 47.9531 23.7968 47.9531 24.3281C40.0469 32.1719 32.1719 40.0469 24.3281 47.9531C23.7968 47.9531 23.2657 47.9531 22.7344 47.9531C31.1093 39.5156 39.5156 31.1093 47.9531 22.7344Z" fill="#991BB4"/>
<path fill-rule="evenodd" clip-rule="evenodd" d="M27.9844 22.8281C28.1268 23.1118 28.1892 23.4243 28.1719 23.7656C28.1716 24.0023 28.1403 24.2212 28.0781 24.4219C26.8158 25.6373 25.5657 26.8717 24.3281 28.125C23.9857 28.1718 23.6421 28.1873 23.2969 28.1719C23.0161 28.1912 22.7661 28.1287 22.5469 27.9844C22.6455 27.9983 22.7392 27.9828 22.8281 27.9375C24.5345 26.2155 26.2533 24.5123 27.9844 22.8281Z" fill="#F0338B"/>
<path fill-rule="evenodd" clip-rule="evenodd" d="M34.3594 23.3906C34.3594 23.8594 34.3594 24.3281 34.3594 24.7969C31.1407 27.9532 27.9532 31.1407 24.7969 34.3594C24.3281 34.3594 23.8594 34.3594 23.3906 34.3594C27.0157 30.6719 30.6719 27.0157 34.3594 23.3906Z" fill="#D11B90"/>
<path fill-rule="evenodd" clip-rule="evenodd" d="M11.2969 23.4844C11.2969 23.8594 11.2969 24.2344 11.2969 24.6094C8.16719 27.6453 5.10469 30.739 2.10938 33.8906C1.91327 33.648 1.78827 33.3667 1.73438 33.0469C4.89063 29.8282 8.07813 26.6407 11.2969 23.4844Z" fill="#FF7F63"/>
<path opacity="0.998" fill-rule="evenodd" clip-rule="evenodd" d="M47.9531 24.3281C47.9531 24.7969 47.9531 25.2656 47.9531 25.7344C40.5111 33.0827 33.136 40.4889 25.8281 47.9531C25.3282 47.9531 24.8281 47.9531 24.3281 47.9531C32.1719 40.0469 40.0469 32.1719 47.9531 24.3281Z" fill="#921BB8"/>
<path fill-rule="evenodd" clip-rule="evenodd" d="M17.4844 24.4219C17.5764 24.7278 17.639 25.0403 17.6719 25.3594C16.3049 26.5854 14.9767 27.8667 13.6875 29.2031C13.644 29.2588 13.6283 29.3213 13.6406 29.3906C13.5485 29.0346 13.5171 28.6596 13.5469 28.2656C14.8594 26.9843 16.1719 25.7032 17.4844 24.4219Z" fill="#FF5575"/>
<path fill-rule="evenodd" clip-rule="evenodd" d="M28.0781 24.4219C27.7227 26.837 26.3165 28.1182 23.8594 28.2656C23.6535 28.2652 23.466 28.2339 23.2969 28.1719C23.6421 28.1873 23.9858 28.1718 24.3281 28.125C25.5657 26.8717 26.8158 25.6373 28.0781 24.4219Z" fill="#EB3A91"/>
<path fill-rule="evenodd" clip-rule="evenodd" d="M11.2969 24.6094C11.2969 24.9532 11.2969 25.2968 11.2969 25.6406C8.29688 28.5781 5.32812 31.5469 2.39062 34.5469C2.22256 34.3663 2.12881 34.1476 2.10938 33.8906C5.10469 30.739 8.16719 27.6453 11.2969 24.6094Z" fill="#FF7966"/>
<path fill-rule="evenodd" clip-rule="evenodd" d="M34.3594 24.7969C34.3594 25.3282 34.3594 25.8593 34.3594 26.3906C31.6718 29.0156 29.0156 31.6718 26.3906 34.3594C25.8593 34.3594 25.3282 34.3594 24.7969 34.3594C27.9532 31.1407 31.1407 27.9532 34.3594 24.7969Z" fill="#CB1B94"/>
<path fill-rule="evenodd" clip-rule="evenodd" d="M11.2969 25.6406C11.2969 25.9219 11.2969 26.2031 11.2969 26.4844C8.45637 29.2779 5.62825 32.0904 2.8125 34.9219C2.76605 35.1068 2.75043 35.2943 2.76562 35.4844C2.6243 35.3268 2.53055 35.1393 2.48438 34.9219C2.45313 34.7969 2.42187 34.6718 2.39062 34.5469C5.32812 31.5469 8.29688 28.5781 11.2969 25.6406Z" fill="#FF7569"/>
<path opacity="0.074" fill-rule="evenodd" clip-rule="evenodd" d="M-0.046875 26.0156C0.0438954 26.2132 0.0751455 26.432 0.046875 26.6719C0.100741 27.049 0.163241 27.424 0.234375 27.7969C0.296875 28.2031 0.359375 28.6094 0.421875 29.0156C0.473265 29.2149 0.535764 29.4024 0.609375 29.5781C0.649283 29.9463 0.743033 30.29 0.890625 30.6094C0.928063 30.9484 1.02181 31.2609 1.17188 31.5469C1.19371 31.8321 1.28746 32.082 1.45312 32.2969C1.47496 32.5821 1.56871 32.832 1.73438 33.0469C1.78827 33.3667 1.91327 33.648 2.10938 33.8906C2.12881 34.1476 2.22256 34.3663 2.39062 34.5469C2.42187 34.6718 2.45313 34.7969 2.48438 34.9219C1.84657 33.8642 1.33094 32.7392 0.9375 31.5469C0.562706 30.328 0.234581 29.1093 -0.046875 27.8906C-0.046875 27.2656 -0.046875 26.6407 -0.046875 26.0156Z" fill="#FFFCFB"/>
<path fill-rule="evenodd" clip-rule="evenodd" d="M17.6719 25.3594C17.8278 25.8583 17.984 26.3583 18.1406 26.8594C16.8001 28.1529 15.4721 29.4654 14.1563 30.7969C14.111 30.8857 14.0954 30.9795 14.1094 31.0781C13.8408 30.5527 13.6845 29.9902 13.6406 29.3906C13.6284 29.3213 13.644 29.2588 13.6875 29.2031C14.9768 27.8667 16.3049 26.5854 17.6719 25.3594Z" fill="#FF4A79"/>
<path opacity="0.997" fill-rule="evenodd" clip-rule="evenodd" d="M47.9531 25.7344C47.9531 25.8593 47.9531 25.9844 47.9531 26.1094C47.8642 26.4991 47.8016 26.9053 47.7656 27.3281C40.972 34.0748 34.1907 40.8405 27.4219 47.625C27.474 47.6609 27.5052 47.7078 27.5156 47.7656C27.0287 47.7882 26.5599 47.8507 26.1094 47.9531C26.0156 47.9531 25.9219 47.9531 25.8281 47.9531C33.136 40.4889 40.5111 33.0827 47.9531 25.7344Z" fill="#8C1BBC"/>
<path fill-rule="evenodd" clip-rule="evenodd" d="M34.3594 26.3906C34.3594 26.8594 34.3594 27.3281 34.3594 27.7969C32.1406 29.9531 29.9531 32.1406 27.7969 34.3594C27.3281 34.3594 26.8594 34.3594 26.3906 34.3594C29.0156 31.6718 31.6718 29.0156 34.3594 26.3906Z" fill="#C41B98"/>
<path fill-rule="evenodd" clip-rule="evenodd" d="M11.2969 26.4844C11.2969 26.8282 11.2969 27.1718 11.2969 27.5156C8.55013 30.2154 5.81576 32.9342 3.09376 35.6719C3.04849 35.7607 3.03286 35.8545 3.04688 35.9531C2.9683 35.9211 2.93704 35.8586 2.95313 35.7656C2.95997 35.6225 2.89747 35.5287 2.76563 35.4844C2.75043 35.2943 2.76605 35.1068 2.81251 34.9219C5.62826 32.0904 8.45638 29.2779 11.2969 26.4844Z" fill="#FF6D6B"/>
<path opacity="0.996" fill-rule="evenodd" clip-rule="evenodd" d="M47.7656 27.3281C47.682 27.9236 47.5882 28.5173 47.4844 29.1094C41.3203 35.1327 35.1953 41.2109 29.1094 47.3438C29.1307 47.3812 29.1621 47.3967 29.2031 47.3906C28.6587 47.5497 28.0962 47.6748 27.5156 47.7656C27.5052 47.7078 27.474 47.6609 27.4219 47.625C34.1907 40.8405 40.972 34.0748 47.7656 27.3281Z" fill="#861CC0"/>
<path fill-rule="evenodd" clip-rule="evenodd" d="M11.2968 27.5156C11.2968 27.9218 11.2968 28.3282 11.2968 28.7344C8.70634 31.278 6.12822 33.8405 3.56247 36.4219C3.52696 36.6159 3.60509 36.7566 3.79684 36.8438C3.74472 36.8797 3.71347 36.9265 3.70309 36.9844C3.41442 36.6891 3.19567 36.3453 3.04684 35.9531C3.03282 35.8545 3.04845 35.7607 3.09372 35.6719C5.81572 32.9342 8.55009 30.2154 11.2968 27.5156Z" fill="#FF686E"/>
<path fill-rule="evenodd" clip-rule="evenodd" d="M18.1406 26.8594C18.4215 27.2962 18.7028 27.7336 18.9843 28.1719C18.9265 28.1615 18.8796 28.1302 18.8437 28.0781C17.5312 29.3906 16.2187 30.7031 14.9062 32.0156C14.8609 32.1045 14.8454 32.1982 14.8593 32.2969C14.5391 31.9385 14.2891 31.5322 14.1093 31.0781C14.0954 30.9795 14.1109 30.8857 14.1562 30.7969C15.472 29.4654 16.8 28.1529 18.1406 26.8594Z" fill="#FF3F7D"/>
<path fill-rule="evenodd" clip-rule="evenodd" d="M18.9843 28.1719C19.2656 28.3906 19.5156 28.6406 19.7343 28.9219C18.4769 30.3201 17.1644 31.6794 15.7968 33C15.7411 33.0435 15.6786 33.0592 15.6093 33.0469C15.3281 32.8282 15.078 32.5781 14.8593 32.2969C14.8454 32.1982 14.8609 32.1045 14.9062 32.0156C16.2187 30.7031 17.5312 29.3906 18.8437 28.0781C18.8796 28.1302 18.9265 28.1615 18.9843 28.1719Z" fill="#FE3482"/>
<path fill-rule="evenodd" clip-rule="evenodd" d="M34.3594 27.7969C34.3897 28.4083 34.3584 29.002 34.2656 29.5781C34.2796 29.4795 34.264 29.3858 34.2188 29.2969C32.528 30.972 30.8561 32.6595 29.2031 34.3594C28.7344 34.3594 28.2656 34.3594 27.7969 34.3594C29.9531 32.1406 32.1406 29.9531 34.3594 27.7969Z" fill="#BE1C9D"/>
<path fill-rule="evenodd" clip-rule="evenodd" d="M11.2969 28.7344C11.2815 29.3627 11.3127 29.9877 11.3906 30.6094C8.99229 32.867 6.63292 35.1794 4.31252 37.5469C4.29424 37.6705 4.30987 37.7956 4.35939 37.9219C4.06834 37.6617 3.84959 37.3492 3.70314 36.9844C3.71352 36.9265 3.74477 36.8797 3.79689 36.8438C3.60515 36.7566 3.52702 36.6159 3.56252 36.4219C6.12827 33.8405 8.70639 31.278 11.2969 28.7344Z" fill="#FF5F71"/>
<path opacity="0.996" fill-rule="evenodd" clip-rule="evenodd" d="M47.4844 29.1094C47.3077 29.849 47.0889 30.5677 46.8281 31.2656C41.6047 36.3952 36.4485 41.5827 31.3594 46.8281C30.6617 47.0885 29.9429 47.276 29.2031 47.3906C29.1621 47.3967 29.1308 47.3812 29.1094 47.3438C35.1953 41.2109 41.3203 35.1327 47.4844 29.1094Z" fill="#801BC4"/>
<path fill-rule="evenodd" clip-rule="evenodd" d="M19.7344 28.9219C20.1605 29.1812 20.5667 29.4624 20.9531 29.7656C19.6358 31.1767 18.2608 32.5206 16.8281 33.7969C16.3741 33.6171 15.9678 33.3671 15.6094 33.0469C15.6787 33.0592 15.7412 33.0435 15.7969 33C17.1645 31.6794 18.477 30.3201 19.7344 28.9219Z" fill="#F73386"/>
<path fill-rule="evenodd" clip-rule="evenodd" d="M34.2656 29.5781C33.674 32.3259 31.9865 33.9197 29.2031 34.3594C30.8561 32.6595 32.528 30.972 34.2188 29.2969C34.264 29.3858 34.2796 29.4795 34.2656 29.5781Z" fill="#B922A2"/>
<path fill-rule="evenodd" clip-rule="evenodd" d="M20.9531 29.7656C21.3672 29.9036 21.7734 30.0598 22.1719 30.2344C20.8594 31.5781 19.5469 32.9219 18.2344 34.2656C17.7267 34.2006 17.258 34.0444 16.8281 33.7969C18.2608 32.5206 19.6358 31.1767 20.9531 29.7656Z" fill="#F0338B"/>
<path fill-rule="evenodd" clip-rule="evenodd" d="M22.1719 30.2344C22.943 30.3919 23.7243 30.4544 24.5156 30.4219C24.3795 30.4971 24.2233 30.5439 24.0469 30.5625C22.5877 31.8505 21.119 33.1162 19.6406 34.3594C19.1536 34.3895 18.6848 34.3582 18.2344 34.2656C19.5469 32.9219 20.8594 31.5781 22.1719 30.2344Z" fill="#EA338F"/>
<path fill-rule="evenodd" clip-rule="evenodd" d="M25.9219 30.1406C25.9912 30.1284 26.0537 30.144 26.1094 30.1875C24.7154 31.5657 23.3405 32.9564 21.9844 34.3594C21.2032 34.3594 20.4218 34.3594 19.6406 34.3594C21.119 33.1162 22.5877 31.8506 24.0469 30.5625C24.2233 30.544 24.3795 30.4971 24.5156 30.4219C24.9869 30.3401 25.4557 30.2464 25.9219 30.1406Z" fill="#DE1D88"/>
<path fill-rule="evenodd" clip-rule="evenodd" d="M11.3906 30.6094C11.4384 30.8943 11.5009 31.1755 11.5781 31.4531C9.20776 33.6671 6.89526 35.9483 4.64057 38.2969C4.50235 38.2091 4.4086 38.0841 4.35932 37.9219C4.30979 37.7956 4.29416 37.6705 4.31245 37.5469C6.63284 35.1794 8.99222 32.867 11.3906 30.6094Z" fill="#FF5574"/>
<path opacity="0.999" fill-rule="evenodd" clip-rule="evenodd" d="M11.5781 31.4531C11.6719 31.7656 11.7656 32.0782 11.8594 32.3906C11.8015 32.3802 11.7547 32.349 11.7188 32.2969C9.528 34.5033 7.32487 36.6908 5.10938 38.8594C4.88528 38.729 4.72904 38.5415 4.64062 38.2969C6.89531 35.9483 9.20782 33.6671 11.5781 31.4531Z" fill="#FF4E77"/>
<path opacity="0.993" fill-rule="evenodd" clip-rule="evenodd" d="M46.8281 31.2656C46.6556 32.0652 46.3744 32.8152 45.9844 33.5156C41.7968 37.6406 37.6406 41.7968 33.5156 45.9844C32.841 46.3555 32.1222 46.6368 31.3594 46.8281C36.4485 41.5827 41.6047 36.3952 46.8281 31.2656Z" fill="#791BC8"/>
<path fill-rule="evenodd" clip-rule="evenodd" d="M11.8594 32.3906C12.0692 32.7161 12.2567 33.0598 12.4219 33.4219C10.3001 35.4967 8.19075 37.5905 6.09375 39.7031C6.04849 39.792 6.03286 39.8857 6.04688 39.9844C5.68992 39.6448 5.37742 39.2698 5.10938 38.8594C7.32487 36.6908 9.528 34.5033 11.7188 32.2969C11.7547 32.349 11.8015 32.3802 11.8594 32.3906Z" fill="#FF447B"/>
<path fill-rule="evenodd" clip-rule="evenodd" d="M12.4218 33.4219C12.6 33.6205 12.7562 33.8393 12.8906 34.0781C10.7845 36.1373 8.69072 38.2155 6.60934 40.3125C6.52047 40.3578 6.42672 40.3733 6.32809 40.3594C6.23543 40.238 6.14168 40.113 6.04684 39.9844C6.03282 39.8857 6.04845 39.792 6.09372 39.7031C8.19072 37.5905 10.3001 35.4967 12.4218 33.4219Z" fill="#FF3B7E"/>
<path opacity="0.988" fill-rule="evenodd" clip-rule="evenodd" d="M45.9844 33.5156C45.6223 34.4585 45.1848 35.3648 44.6719 36.2344C41.836 38.9295 39.0391 41.6795 36.2812 44.4844C36.2378 44.5401 36.2221 44.6026 36.2344 44.6719C35.3648 45.1848 34.4585 45.6223 33.5156 45.9844C37.6406 41.7968 41.7968 37.6406 45.9844 33.5156Z" fill="#731BCC"/>
<path fill-rule="evenodd" clip-rule="evenodd" d="M12.8906 34.0781C13.2031 34.3282 13.4843 34.6094 13.7344 34.9219C11.6956 37.1015 9.60188 39.2421 7.45312 41.3438C7.52366 41.4067 7.55492 41.4847 7.54688 41.5781C7.10937 41.2031 6.70312 40.7969 6.32812 40.3594C6.42675 40.3733 6.5205 40.3578 6.60938 40.3125C8.69076 38.2155 10.7845 36.1373 12.8906 34.0781Z" fill="#FE3481"/>
<path opacity="0.997" fill-rule="evenodd" clip-rule="evenodd" d="M34.6406 34.5469C30.2344 38.9843 25.8281 43.4219 21.4219 47.8594C21.0793 47.8179 20.7355 47.7866 20.3906 47.7656C20.3802 47.7078 20.349 47.6609 20.2969 47.625C24.0704 43.8984 27.7892 40.1328 31.4531 36.3281C32.6612 35.9746 33.7237 35.3809 34.6406 34.5469Z" fill="#A51DAC"/>
<path fill-rule="evenodd" clip-rule="evenodd" d="M13.7344 34.9219C14.1277 35.2274 14.5341 35.5087 14.9531 35.7656C13.2533 37.5124 11.5345 39.2467 9.79688 40.9688C9.99356 40.9658 10.1811 40.9032 10.3594 40.7812C11.0066 40.3669 11.6629 39.9762 12.3281 39.6094C11.2657 40.7032 10.2031 41.7968 9.14062 42.8906C8.5576 42.5203 8.02635 42.0828 7.54688 41.5781C7.55492 41.4847 7.52366 41.4067 7.45312 41.3438C9.60188 39.2421 11.6956 37.1015 13.7344 34.9219Z" fill="#F62F84"/>
<path opacity="0.027" fill-rule="evenodd" clip-rule="evenodd" d="M2.76564 35.4844C2.89748 35.5287 2.95999 35.6225 2.95314 35.7656C2.8213 35.7213 2.7588 35.6275 2.76564 35.4844Z" fill="#FFF6F6"/>
<path fill-rule="evenodd" clip-rule="evenodd" d="M14.9531 35.7656C15.5861 36.0909 16.2424 36.341 16.9219 36.5156C15.3737 37.5239 13.8424 38.5552 12.3281 39.6094C11.6629 39.9762 11.0066 40.3669 10.3594 40.7812C10.1811 40.9032 9.99356 40.9658 9.79688 40.9688C11.5345 39.2467 13.2533 37.5124 14.9531 35.7656Z" fill="#F0328B"/>
<path opacity="0.997" fill-rule="evenodd" clip-rule="evenodd" d="M31.4531 36.3281C27.7892 40.1328 24.0704 43.8984 20.2969 47.625C20.349 47.6609 20.3802 47.7078 20.3906 47.7656C19.9468 47.6917 19.5094 47.598 19.0781 47.4844C22.6718 43.8593 26.2657 40.2344 29.8594 36.6094C30.3967 36.5497 30.9279 36.4559 31.4531 36.3281Z" fill="#AB1CA9"/>
<path opacity="0.997" fill-rule="evenodd" clip-rule="evenodd" d="M17.0156 36.5156C17.4517 36.5623 17.8893 36.5935 18.3281 36.6094C15.8939 39.0905 13.4408 41.5593 10.9688 44.0156C10.9252 44.0713 10.9096 44.1338 10.9219 44.2031C10.6058 43.9832 10.2934 43.7645 9.98438 43.5469C12.3593 41.2343 14.7031 38.8906 17.0156 36.5156Z" fill="#E31C85"/>
<path opacity="0.998" fill-rule="evenodd" clip-rule="evenodd" d="M18.3281 36.6094C18.7657 36.6094 19.2031 36.6094 19.6406 36.6094C17.011 39.3328 14.3235 41.9891 11.5781 44.5781C11.3441 44.4769 11.1253 44.3518 10.9219 44.2031C10.9096 44.1338 10.9253 44.0713 10.9688 44.0156C13.4408 41.5593 15.8939 39.0905 18.3281 36.6094Z" fill="#DC1B89"/>
<path opacity="0.997" fill-rule="evenodd" clip-rule="evenodd" d="M19.6406 36.6094C20.1094 36.6094 20.5781 36.6094 21.0469 36.6094C18.2344 39.4531 15.4219 42.2969 12.6094 45.1406C12.2198 45.0242 11.8761 44.8367 11.5781 44.5781C14.3235 41.9891 17.0109 39.3328 19.6406 36.6094Z" fill="#D71C8C"/>
<path opacity="0.996" fill-rule="evenodd" clip-rule="evenodd" d="M21.0469 36.6094C21.5156 36.6094 21.9844 36.6094 22.4531 36.6094C19.4843 39.6094 16.5157 42.6094 13.5469 45.6094C13.2046 45.5007 12.892 45.3444 12.6094 45.1406C15.4219 42.2969 18.2344 39.4531 21.0469 36.6094Z" fill="#D11B90"/>
<path opacity="0.997" fill-rule="evenodd" clip-rule="evenodd" d="M22.4531 36.6094C22.9844 36.6094 23.5156 36.6094 24.0469 36.6094C20.9564 39.7467 17.847 42.8718 14.7188 45.9844C14.6753 46.0401 14.6596 46.1026 14.6719 46.1719C14.2675 46.0322 13.8925 45.8447 13.5469 45.6094C16.5157 42.6094 19.4843 39.6094 22.4531 36.6094Z" fill="#CB1B94"/>
<path opacity="0.997" fill-rule="evenodd" clip-rule="evenodd" d="M24.0469 36.6094C24.5156 36.6094 24.9844 36.6094 25.4531 36.6094C22.1985 39.9578 18.8861 43.2391 15.5156 46.4531C15.2252 46.386 14.944 46.2922 14.6719 46.1719C14.6596 46.1026 14.6753 46.0401 14.7188 45.9844C17.847 42.8718 20.9564 39.7467 24.0469 36.6094Z" fill="#C41B98"/>
<path opacity="0.996" fill-rule="evenodd" clip-rule="evenodd" d="M25.4531 36.6094C25.9219 36.6094 26.3906 36.6094 26.8594 36.6094C23.5189 39.9967 20.1595 43.3717 16.7812 46.7344C16.7378 46.7901 16.7221 46.8526 16.7344 46.9219C16.3142 46.7822 15.9079 46.6259 15.5156 46.4531C18.886 43.2391 22.1985 39.9578 25.4531 36.6094Z" fill="#BE1C9D"/>
<path opacity="0.998" fill-rule="evenodd" clip-rule="evenodd" d="M26.8594 36.6094C27.3281 36.6094 27.7969 36.6094 28.2656 36.6094C24.7657 40.1407 21.2656 43.6718 17.7656 47.2031C17.4177 47.124 17.0741 47.0302 16.7344 46.9219C16.7221 46.8526 16.7378 46.7901 16.7813 46.7344C20.1596 43.3717 23.5189 39.9967 26.8594 36.6094Z" fill="#B81BA0"/>
<path opacity="0.997" fill-rule="evenodd" clip-rule="evenodd" d="M28.2656 36.6094C28.7969 36.6094 29.3281 36.6094 29.8594 36.6094C26.2657 40.2344 22.6718 43.8593 19.0781 47.4844C18.6338 47.4202 18.1964 47.3264 17.7656 47.2031C21.2656 43.6718 24.7657 40.1407 28.2656 36.6094Z" fill="#B11CA4"/>
<path opacity="0.939" fill-rule="evenodd" clip-rule="evenodd" d="M44.6719 36.2344C42.5782 39.7657 39.7657 42.5782 36.2344 44.6719C36.2221 44.6026 36.2378 44.5401 36.2813 44.4844C39.0391 41.6795 41.8361 38.9295 44.6719 36.2344Z" fill="#6E1BCF"/>
<path opacity="0.995" fill-rule="evenodd" clip-rule="evenodd" d="M16.9219 36.5156C16.9531 36.5156 16.9844 36.5156 17.0156 36.5156C14.7031 38.8906 12.3593 41.2343 9.98438 43.5469C9.67406 43.3611 9.39281 43.1423 9.14062 42.8906C10.2031 41.7968 11.2657 40.7032 12.3281 39.6094C13.8424 38.5552 15.3737 37.5239 16.9219 36.5156Z" fill="#E91C81"/>
</g>
<defs>
<clipPath id="clip0_386_149">
<rect width="48" height="48" fill="white"/>
</clipPath>
</defs>
</svg>
