<svg width="20" height="20" viewBox="0 0 20 20" fill="none" xmlns="http://www.w3.org/2000/svg">
<g clip-path="url(#clip0_1659_54)">
<path opacity="0.963" fill-rule="evenodd" clip-rule="evenodd" d="M0.488281 -0.0195312C1.90755 -0.0195312 3.32682 -0.0195312 4.74609 -0.0195312C4.97969 0.077423 5.14246 0.246694 5.23438 0.488281C5.26043 1.20443 5.26043 1.92057 5.23438 2.63672C5.05207 2.84505 4.8698 2.84505 4.6875 2.63672C4.67449 2.01172 4.66145 1.38672 4.64844 0.761719C4.63637 0.71227 4.61684 0.666695 4.58984 0.625C3.93477 0.580242 3.27723 0.560711 2.61719 0.566406C1.9987 0.572918 1.38021 0.579426 0.761719 0.585938C0.71227 0.598027 0.666695 0.617559 0.625 0.644531C0.580242 1.2996 0.560711 1.95715 0.566406 2.61719C0.572918 3.23568 0.579426 3.85417 0.585938 4.47266C0.598027 4.52211 0.617559 4.5677 0.644531 4.60938C1.9182 4.67363 3.19424 4.68664 4.47266 4.64844C4.58332 4.64191 4.64191 4.58332 4.64844 4.47266C4.65613 4.15824 4.67566 3.84576 4.70703 3.53516C4.89582 3.36959 5.0716 3.38261 5.23438 3.57422C5.26043 3.96484 5.26043 4.35547 5.23438 4.74609C5.14973 4.98699 4.98699 5.14973 4.74609 5.23438C4.13426 5.25391 3.52227 5.26043 2.91016 5.25391C2.91016 6.52996 2.91016 7.80598 2.91016 9.08203C4.09504 9.08203 5.27996 9.08203 6.46484 9.08203C6.45832 8.45691 6.46484 7.83191 6.48438 7.20703C6.56902 6.80988 6.80988 6.56902 7.20703 6.48438C7.70164 6.46484 8.19645 6.45832 8.69141 6.46484C8.69141 6.08723 8.69141 5.70965 8.69141 5.33203C8.23336 5.15188 8.04457 4.81332 8.125 4.31641C8.29637 3.79767 8.65441 3.5698 9.19922 3.63281C9.82844 3.86564 10.0303 4.30184 9.80469 4.94141C9.6918 5.13941 9.52906 5.26961 9.31641 5.33203C9.31641 5.70965 9.31641 6.08723 9.31641 6.46484C9.83723 6.46484 10.3581 6.46484 10.8789 6.46484C10.8724 5.13664 10.8789 3.80853 10.8984 2.48047C10.931 2.42188 10.9766 2.3763 11.0352 2.34375C12.2591 2.32422 13.483 2.31771 14.707 2.32422C14.7005 1.7121 14.707 1.10012 14.7266 0.488281C14.8185 0.246694 14.9812 0.077423 15.2148 -0.0195312C16.6341 -0.0195312 18.0534 -0.0195312 19.4727 -0.0195312C19.707 0.0846356 19.8763 0.253906 19.9805 0.488281C19.9805 1.90755 19.9805 3.32682 19.9805 4.74609C19.8835 4.97969 19.7143 5.14246 19.4727 5.23438C18.0534 5.26043 16.6341 5.26043 15.2148 5.23438C14.9739 5.14973 14.8112 4.98699 14.7266 4.74609C14.707 4.13426 14.7005 3.52227 14.707 2.91016C13.6393 2.91016 12.5716 2.91016 11.5039 2.91016C11.5039 4.09504 11.5039 5.27996 11.5039 6.46484C11.9208 6.45832 12.3375 6.46484 12.7539 6.48438C13.1511 6.56902 13.3919 6.80988 13.4766 7.20703C13.4961 7.59742 13.5026 7.98805 13.4961 8.37891C13.9526 8.39187 14.4083 8.37887 14.8633 8.33984C15.1205 7.86637 15.5112 7.70359 16.0352 7.85156C16.5486 8.1148 16.7113 8.52496 16.5234 9.08203C16.1989 9.5848 15.7627 9.70852 15.2148 9.45312C15.0488 9.35863 14.9316 9.22191 14.8633 9.04297C14.4083 9.00395 13.9526 8.99094 13.4961 9.00391C13.4961 9.31641 13.4961 9.62891 13.4961 9.94141C14.7852 9.93488 16.0743 9.94141 17.3633 9.96094C17.4717 9.96352 17.5563 10.0091 17.6172 10.0977C17.6748 11.6322 17.6944 13.1687 17.6758 14.707C18.2749 14.7005 18.8738 14.707 19.4727 14.7266C19.7143 14.8185 19.8835 14.9812 19.9805 15.2148C19.9805 16.6341 19.9805 18.0534 19.9805 19.4727C19.8763 19.707 19.707 19.8763 19.4727 19.9805C18.0534 19.9805 16.6341 19.9805 15.2148 19.9805C14.9812 19.8835 14.8185 19.7143 14.7266 19.4727C14.7005 18.7565 14.7005 18.0404 14.7266 17.3242C14.8247 17.1792 14.9614 17.1337 15.1367 17.1875C15.2083 17.207 15.2539 17.2526 15.2734 17.3242C15.2864 17.9492 15.2995 18.5742 15.3125 19.1992C15.3246 19.2487 15.3441 19.2943 15.3711 19.3359C16.0262 19.3807 16.6837 19.4002 17.3438 19.3945C17.9622 19.388 18.5807 19.3815 19.1992 19.375C19.2487 19.3629 19.2943 19.3434 19.3359 19.3164C19.3807 18.6613 19.4002 18.0038 19.3945 17.3438C19.388 16.7253 19.3815 16.1068 19.375 15.4883C19.3629 15.4388 19.3434 15.3932 19.3164 15.3516C18.0427 15.2873 16.7667 15.2743 15.4883 15.3125C15.3776 15.319 15.319 15.3776 15.3125 15.4883C15.2995 15.7878 15.2864 16.0872 15.2734 16.3867C15.0911 16.595 14.9089 16.595 14.7266 16.3867C14.7005 15.9961 14.7005 15.6055 14.7266 15.2148C14.8112 14.9739 14.9739 14.8112 15.2148 14.7266C15.8267 14.707 16.4387 14.7005 17.0508 14.707C17.0508 13.3268 17.0508 11.9466 17.0508 10.5664C15.8659 10.5664 14.681 10.5664 13.4961 10.5664C13.5026 11.2957 13.4961 12.0248 13.4766 12.7539C13.3919 13.1511 13.1511 13.3919 12.7539 13.4766C12.3375 13.4961 11.9208 13.5026 11.5039 13.4961C11.5039 13.9258 11.5039 14.3555 11.5039 14.7852C11.962 14.9653 12.1507 15.3039 12.0703 15.8008C11.8989 16.3195 11.5409 16.5474 10.9961 16.4844C10.3669 16.2516 10.165 15.8154 10.3906 15.1758C10.5035 14.9778 10.6663 14.8476 10.8789 14.7852C10.8789 14.3555 10.8789 13.9258 10.8789 13.4961C10.3581 13.4961 9.83723 13.4961 9.31641 13.4961C9.33539 14.8146 9.31586 16.1297 9.25781 17.4414C9.22254 17.4883 9.17699 17.5209 9.12109 17.5391C7.83211 17.5586 6.54305 17.5651 5.25391 17.5586C5.26043 18.1968 5.25391 18.8348 5.23438 19.4727C5.14246 19.7143 4.97969 19.8835 4.74609 19.9805C3.32682 19.9805 1.90755 19.9805 0.488281 19.9805C0.253906 19.8763 0.0846356 19.707 -0.0195312 19.4727C-0.0195312 18.0534 -0.0195312 16.6341 -0.0195312 15.2148C0.077423 14.9812 0.246694 14.8185 0.488281 14.7266C1.90755 14.7005 3.32682 14.7005 4.74609 14.7266C4.98699 14.8112 5.14973 14.9739 5.23438 15.2148C5.25391 15.7876 5.26043 16.3605 5.25391 16.9336C6.39973 16.9336 7.54559 16.9336 8.69141 16.9336C8.69141 15.7878 8.69141 14.6419 8.69141 13.4961C8.19645 13.5026 7.70164 13.4961 7.20703 13.4766C6.80988 13.3919 6.56902 13.1511 6.48438 12.7539C6.46484 12.3505 6.45836 11.9468 6.46484 11.543C6.33465 11.543 6.20441 11.543 6.07422 11.543C5.89406 12.001 5.55551 12.1898 5.05859 12.1094C4.53984 11.938 4.31199 11.58 4.375 11.0352C4.60781 10.4059 5.04402 10.2041 5.68359 10.4297C5.8816 10.5426 6.0118 10.7053 6.07422 10.918C6.20441 10.918 6.33465 10.918 6.46484 10.918C6.46484 10.5143 6.46484 10.1107 6.46484 9.70703C5.14969 9.71355 3.83457 9.70703 2.51953 9.6875C2.44977 9.65684 2.39117 9.61129 2.34375 9.55078C2.32422 8.11855 2.31771 6.68625 2.32422 5.25391C1.7121 5.26043 1.10012 5.25391 0.488281 5.23438C0.246694 5.14246 0.077423 4.97969 -0.0195312 4.74609C-0.0195312 3.32682 -0.0195312 1.90755 -0.0195312 0.488281C0.0846356 0.253906 0.253906 0.0846356 0.488281 -0.0195312ZM15.4883 0.566406C16.7253 0.559898 17.9623 0.566406 19.1992 0.585938C19.2487 0.598027 19.2943 0.617559 19.3359 0.644531C19.3807 1.2996 19.4002 1.95715 19.3945 2.61719C19.388 3.23568 19.3815 3.85417 19.375 4.47266C19.3629 4.52211 19.3434 4.5677 19.3164 4.60938C18.6613 4.65414 18.0038 4.67367 17.3438 4.66797C16.7253 4.66145 16.1068 4.65496 15.4883 4.64844C15.4388 4.63637 15.3932 4.61684 15.3516 4.58984C15.3077 4.24758 15.2881 3.90254 15.293 3.55469C15.3003 2.62909 15.3068 1.6981 15.3125 0.761719C15.3261 0.650687 15.3847 0.585586 15.4883 0.566406ZM1.73828 1.73828C2.32422 1.73828 2.91016 1.73828 3.49609 1.73828C3.49609 2.32422 3.49609 2.91016 3.49609 3.49609C2.91016 3.49609 2.32422 3.49609 1.73828 3.49609C1.73828 2.91016 1.73828 2.32422 1.73828 1.73828ZM16.4648 1.73828C17.0508 1.73828 17.6367 1.73828 18.2227 1.73828C18.2227 2.32422 18.2227 2.91016 18.2227 3.49609C17.6367 3.49609 17.0508 3.49609 16.4648 3.49609C16.4648 2.91016 16.4648 2.32422 16.4648 1.73828ZM8.92578 4.23828C9.21945 4.2534 9.31711 4.39664 9.21875 4.66797C8.98527 4.84773 8.8225 4.79566 8.73047 4.51172C8.75234 4.38625 8.81746 4.29512 8.92578 4.23828ZM7.32422 7.08984C9.09512 7.08332 10.8659 7.08984 12.6367 7.10938C12.7474 7.14191 12.819 7.21355 12.8516 7.32422C12.8776 9.09504 12.8776 10.8659 12.8516 12.6367C12.819 12.7474 12.7474 12.819 12.6367 12.8516C10.8659 12.8776 9.09504 12.8776 7.32422 12.8516C7.21355 12.819 7.14191 12.7474 7.10938 12.6367C7.08332 10.8659 7.08332 9.09504 7.10938 7.32422C7.14926 7.21289 7.22086 7.13477 7.32422 7.08984ZM15.6055 8.41797C15.8783 8.41082 15.9889 8.54102 15.9375 8.80859C15.7793 9.01633 15.6231 9.01633 15.4688 8.80859C15.4202 8.64027 15.4657 8.51008 15.6055 8.41797ZM5.17578 10.957C5.46945 10.9721 5.56711 11.1154 5.46875 11.3867C5.23527 11.5665 5.0725 11.5144 4.98047 11.2305C5.00234 11.105 5.06746 11.0139 5.17578 10.957ZM0.761719 15.293C1.99877 15.2864 3.23575 15.293 4.47266 15.3125C4.52211 15.3246 4.5677 15.3441 4.60938 15.3711C4.65414 16.0262 4.67367 16.6837 4.66797 17.3438C4.66145 17.9622 4.65496 18.5807 4.64844 19.1992C4.63637 19.2487 4.61684 19.2943 4.58984 19.3359C3.93477 19.3807 3.27723 19.4002 2.61719 19.3945C1.9987 19.388 1.38021 19.3815 0.761719 19.375C0.71227 19.3629 0.666695 19.3434 0.625 19.3164C0.560742 18.0427 0.547723 16.7667 0.585938 15.4883C0.59952 15.3773 0.658113 15.3121 0.761719 15.293ZM11.1133 15.332C11.407 15.3471 11.5046 15.4904 11.4062 15.7617C11.1728 15.9415 11.01 15.8894 10.918 15.6055C10.9398 15.48 11.005 15.3889 11.1133 15.332ZM1.73828 16.4648C2.32422 16.4648 2.91016 16.4648 3.49609 16.4648C3.49609 17.0508 3.49609 17.6367 3.49609 18.2227C2.91016 18.2227 2.32422 18.2227 1.73828 18.2227C1.73828 17.6367 1.73828 17.0508 1.73828 16.4648ZM16.4648 16.4648C17.0508 16.4648 17.6367 16.4648 18.2227 16.4648C18.2227 17.0508 18.2227 17.6367 18.2227 18.2227C17.6367 18.2227 17.0508 18.2227 16.4648 18.2227C16.4648 17.6367 16.4648 17.0508 16.4648 16.4648Z" fill="#64748B"/>
<path opacity="0.989" fill-rule="evenodd" clip-rule="evenodd" d="M1.38672 1.15234C2.20713 1.14583 3.02745 1.15234 3.84766 1.17187C3.94531 1.21745 4.01692 1.28906 4.0625 1.38672C4.08856 2.20703 4.08856 3.02734 4.0625 3.84766C4.01692 3.94531 3.94531 4.01691 3.84766 4.0625C3.02734 4.08855 2.20703 4.08855 1.38672 4.0625C1.28906 4.01691 1.21745 3.94531 1.17188 3.84766C1.14583 3.02734 1.14583 2.20703 1.17188 1.38672C1.22499 1.28818 1.2966 1.21005 1.38672 1.15234ZM1.73828 1.73828C1.73828 2.32422 1.73828 2.91016 1.73828 3.49609C2.32422 3.49609 2.91016 3.49609 3.4961 3.49609C3.4961 2.91016 3.4961 2.32422 3.4961 1.73828C2.91016 1.73828 2.32422 1.73828 1.73828 1.73828Z" fill="#64748B"/>
<path opacity="0.989" fill-rule="evenodd" clip-rule="evenodd" d="M16.1133 1.15234C16.9337 1.14583 17.754 1.15234 18.5742 1.17187C18.6719 1.21745 18.7435 1.28906 18.7891 1.38672C18.8151 2.20703 18.8151 3.02734 18.7891 3.84766C18.7435 3.94531 18.6719 4.01691 18.5742 4.0625C17.7539 4.08855 16.9336 4.08855 16.1133 4.0625C16.0156 4.01691 15.944 3.94531 15.8984 3.84766C15.8724 3.02734 15.8724 2.20703 15.8984 1.38672C15.9516 1.28818 16.0232 1.21005 16.1133 1.15234ZM16.4649 1.73828C16.4649 2.32422 16.4649 2.91016 16.4649 3.49609C17.0508 3.49609 17.6367 3.49609 18.2227 3.49609C18.2227 2.91016 18.2227 2.32422 18.2227 1.73828C17.6367 1.73828 17.0508 1.73828 16.4649 1.73828Z" fill="#64748B"/>
<path opacity="0.933" fill-rule="evenodd" clip-rule="evenodd" d="M7.94923 7.63672C8.66548 7.6302 9.38165 7.63672 10.0977 7.65626C10.268 7.74321 10.3266 7.87993 10.2734 8.06641C10.2409 8.15106 10.1823 8.20965 10.0977 8.24219C9.48583 8.26172 8.87384 8.26825 8.26173 8.26172C8.26173 9.40754 8.26173 10.5534 8.26173 11.6992C9.40755 11.6992 10.5534 11.6992 11.6992 11.6992C11.6992 10.5534 11.6992 9.40754 11.6992 8.26172C11.5035 8.26821 11.3082 8.26169 11.1133 8.24219C10.9166 8.1245 10.871 7.96172 10.9766 7.75391C11.0118 7.707 11.0574 7.67442 11.1133 7.65626C11.4128 7.6302 11.7122 7.6302 12.0117 7.65626C12.1615 7.70184 12.2591 7.7995 12.3047 7.94922C12.3308 9.3034 12.3308 10.6575 12.3047 12.0117C12.2461 12.1484 12.1484 12.2461 12.0117 12.3047C10.6575 12.3307 9.30341 12.3307 7.94923 12.3047C7.80396 12.2554 7.7063 12.1577 7.65626 12.0117C7.63021 10.6575 7.63021 9.3034 7.65626 7.94922C7.70911 7.79883 7.80677 7.69465 7.94923 7.63672Z" fill="#64748B"/>
<path opacity="0.989" fill-rule="evenodd" clip-rule="evenodd" d="M1.38672 15.8789C2.20713 15.8724 3.02745 15.8789 3.84766 15.8984C3.94531 15.944 4.01692 16.0156 4.0625 16.1133C4.08856 16.9336 4.08856 17.7539 4.0625 18.5742C4.01692 18.6719 3.94531 18.7435 3.84766 18.7891C3.02734 18.8151 2.20703 18.8151 1.38672 18.7891C1.28906 18.7435 1.21745 18.6719 1.17188 18.5742C1.14583 17.7539 1.14583 16.9336 1.17188 16.1133C1.22499 16.0147 1.2966 15.9366 1.38672 15.8789ZM1.73828 16.4648C1.73828 17.0508 1.73828 17.6367 1.73828 18.2227C2.32422 18.2227 2.91016 18.2227 3.4961 18.2227C3.4961 17.6367 3.4961 17.0508 3.4961 16.4648C2.91016 16.4648 2.32422 16.4648 1.73828 16.4648Z" fill="#64748B"/>
<path opacity="0.989" fill-rule="evenodd" clip-rule="evenodd" d="M16.1133 15.8789C16.9337 15.8724 17.754 15.8789 18.5742 15.8984C18.6719 15.944 18.7435 16.0156 18.7891 16.1133C18.8151 16.9336 18.8151 17.7539 18.7891 18.5742C18.7435 18.6719 18.6719 18.7435 18.5742 18.7891C17.7539 18.8151 16.9336 18.8151 16.1133 18.7891C16.0156 18.7435 15.944 18.6719 15.8984 18.5742C15.8724 17.7539 15.8724 16.9336 15.8984 16.1133C15.9516 16.0147 16.0232 15.9366 16.1133 15.8789ZM16.4649 16.4648C16.4649 17.0508 16.4649 17.6367 16.4649 18.2227C17.0508 18.2227 17.6367 18.2227 18.2227 18.2227C18.2227 17.6367 18.2227 17.0508 18.2227 16.4648C17.6367 16.4648 17.0508 16.4648 16.4649 16.4648Z" fill="#64748B"/>
</g>
<defs>
<clipPath id="clip0_1659_54">
<rect width="20" height="20" fill="white"/>
</clipPath>
</defs>
</svg>
