<svg width="25" height="25" viewBox="0 0 25 25" fill="none" xmlns="http://www.w3.org/2000/svg">
<g clip-path="url(#clip0_2603_3818)">
<path opacity="0.998" fill-rule="evenodd" clip-rule="evenodd" d="M11.3537 -0.0244141C11.3862 -0.0244141 11.4188 -0.0244141 11.4513 -0.0244141C7.67936 3.82081 3.87892 7.6457 0.0499631 11.4502C0.0272901 11.4212 0.019152 11.3886 0.025549 11.3525C3.81787 7.59277 7.59391 3.81673 11.3537 0.0244141C11.3537 0.00813804 11.3537 -0.00813804 11.3537 -0.0244141Z" fill="#00E79D"/>
<path opacity="0.998" fill-rule="evenodd" clip-rule="evenodd" d="M11.4512 -0.0244141C12.0534 -0.0244141 12.6556 -0.0244141 13.2578 -0.0244141C13.2782 0.0108193 13.3107 0.0352333 13.3555 0.0488281C8.9023 4.51016 4.44265 8.96167 -0.0234375 13.4033C-0.0234375 12.7197 -0.0234375 12.0361 -0.0234375 11.3525C-0.00716148 11.3525 0.0091146 11.3525 0.0253906 11.3525C0.0189936 11.3886 0.0271316 11.4212 0.0498047 11.4502C3.87876 7.6457 7.6792 3.82081 11.4512 -0.0244141Z" fill="#00E59F"/>
<path opacity="0.998" fill-rule="evenodd" clip-rule="evenodd" d="M13.2578 -0.0244141C13.3717 -0.0244141 13.4857 -0.0244141 13.5996 -0.0244141C13.8777 0.014811 14.1544 0.0636392 14.4297 0.12207C9.6771 4.90723 4.9082 9.67612 0.123047 14.4287C0.0646157 14.1535 0.0157876 13.8768 -0.0234375 13.5986C-0.0234375 13.5335 -0.0234375 13.4684 -0.0234375 13.4033C4.44265 8.96167 8.9023 4.51016 13.3555 0.0488281C13.3107 0.0352333 13.2782 0.0108193 13.2578 -0.0244141Z" fill="#00E1A4"/>
<path opacity="0.996" fill-rule="evenodd" clip-rule="evenodd" d="M11.3516 0.0244141C7.5918 3.81673 3.81576 7.59277 0.0234375 11.3525C0.0813442 10.3631 0.276657 9.40283 0.609375 8.47168C3.24609 5.86753 5.86655 3.24707 8.4707 0.610352C9.40186 0.277633 10.3622 0.0823208 11.3516 0.0244141Z" fill="#00EA99"/>
<path opacity="0.998" fill-rule="evenodd" clip-rule="evenodd" d="M14.4277 0.12207C14.6737 0.141969 14.9178 0.174521 15.1602 0.219727C12.3596 2.97145 9.59268 5.75464 6.85938 8.56934C6.68345 8.67383 6.50439 8.77964 6.32227 8.88672C6.34941 8.90542 6.36567 8.92983 6.37109 8.95996C4.31898 11.0283 2.2682 13.0954 0.21875 15.1611C0.173544 14.9188 0.140992 14.6747 0.121094 14.4287C4.90625 9.67612 9.67515 4.90723 14.4277 0.12207Z" fill="#00DFA7"/>
<path opacity="0.998" fill-rule="evenodd" clip-rule="evenodd" d="M15.1602 0.219727C15.6063 0.327193 16.0458 0.457402 16.4785 0.610352C16.4839 0.640498 16.5002 0.664912 16.5273 0.683594C14.6582 2.57726 12.7702 4.44086 10.8633 6.27441C9.52866 7.0394 8.19399 7.80435 6.85938 8.56934C9.59268 5.75464 12.3596 2.97145 15.1602 0.219727Z" fill="#02DCAB"/>
<path opacity="0.997" fill-rule="evenodd" clip-rule="evenodd" d="M8.4707 0.610352C5.86655 3.24707 3.24609 5.86753 0.609375 8.47168C0.658203 8.30894 0.707031 8.14614 0.755859 7.9834C0.786006 7.98882 0.81042 8.00508 0.829102 8.03223C3.22982 5.63149 5.63052 3.2308 8.03125 0.830078C8.0041 0.811396 7.98784 0.786982 7.98242 0.756836C8.14517 0.708008 8.30796 0.65918 8.4707 0.610352Z" fill="#00ED95"/>
<path opacity="0.998" fill-rule="evenodd" clip-rule="evenodd" d="M16.4785 0.610352C16.5714 0.6248 16.6528 0.657349 16.7227 0.708008C14.7736 2.58375 12.8449 4.48805 10.9365 6.4209C10.9139 6.39189 10.9057 6.35933 10.9121 6.32324C10.9121 6.29067 10.8958 6.27441 10.8633 6.27441C12.7702 4.44086 14.6582 2.57726 16.5273 0.683594C16.5002 0.664912 16.4839 0.640498 16.4785 0.610352Z" fill="#01DAAE"/>
<path opacity="0.999" fill-rule="evenodd" clip-rule="evenodd" d="M16.7246 0.708008C17.2487 0.87188 17.7532 1.08347 18.2383 1.34277C18.2447 1.37885 18.2365 1.41141 18.2139 1.44043C16.0475 3.5987 13.8909 5.76343 11.7441 7.93457C11.2958 7.95054 10.8563 7.93423 10.4258 7.88574C10.5606 7.35137 10.7233 6.83052 10.9141 6.32324C10.9077 6.35933 10.9158 6.39189 10.9385 6.4209C12.8469 4.48805 14.7756 2.58375 16.7246 0.708008Z" fill="#01D7B2"/>
<path opacity="0.981" fill-rule="evenodd" clip-rule="evenodd" d="M7.98438 0.756836C7.98979 0.786982 8.00605 0.811396 8.0332 0.830078C5.63247 3.2308 3.23177 5.63149 0.831055 8.03223C0.812373 8.00508 0.787959 7.98882 0.757812 7.9834C2.14127 4.54916 4.55013 2.1403 7.98438 0.756836Z" fill="#00EF92"/>
<path opacity="0.999" fill-rule="evenodd" clip-rule="evenodd" d="M18.2363 1.34277C18.3275 1.38004 18.4089 1.42887 18.4805 1.48926C16.2856 3.60273 14.1209 5.75117 11.9863 7.93457C11.9049 7.93457 11.8236 7.93457 11.7422 7.93457C13.8889 5.76343 16.0455 3.5987 18.2119 1.44043C18.2346 1.41141 18.2427 1.37885 18.2363 1.34277Z" fill="#00D4B5"/>
<path opacity="0.998" fill-rule="evenodd" clip-rule="evenodd" d="M18.4824 1.48926C18.8492 1.66429 19.191 1.87588 19.5078 2.12402C17.5059 4.15853 15.4876 6.17676 13.4531 8.17871C13.467 8.08521 13.4507 8.00386 13.4043 7.93457C12.9323 7.93457 12.4603 7.93457 11.9883 7.93457C14.1229 5.75117 16.2875 3.60273 18.4824 1.48926Z" fill="#00D2B8"/>
<path opacity="0.998" fill-rule="evenodd" clip-rule="evenodd" d="M19.5078 2.12402C19.7145 2.21681 19.8935 2.34702 20.0449 2.51465C17.8477 4.69564 15.6504 6.87661 13.4531 9.05762C13.4531 8.76465 13.4531 8.47168 13.4531 8.17871C15.4876 6.17676 17.5059 4.15853 19.5078 2.12402Z" fill="#00CFBC"/>
<path opacity="0.998" fill-rule="evenodd" clip-rule="evenodd" d="M20.0441 2.51465C20.2672 2.62391 20.4626 2.77039 20.63 2.9541C18.2554 5.35313 15.871 7.7457 13.4767 10.1318C13.4523 9.77412 13.4442 9.41606 13.4523 9.05762C15.6495 6.87661 17.8468 4.69564 20.0441 2.51465Z" fill="#00CDBF"/>
<path opacity="0.999" fill-rule="evenodd" clip-rule="evenodd" d="M20.6289 2.9541C21.0206 3.2481 21.3624 3.5899 21.6543 3.97949C18.9037 6.71387 16.153 9.44824 13.4023 12.1826C13.4023 10.7829 13.4023 9.38315 13.4023 7.9834C13.4023 7.96714 13.4023 7.95083 13.4023 7.93457C13.4488 8.00386 13.465 8.08521 13.4512 8.17871C13.4512 8.47168 13.4512 8.76465 13.4512 9.05762C13.4431 9.41606 13.4512 9.77412 13.4756 10.1318C15.8699 7.7457 18.2543 5.35313 20.6289 2.9541Z" fill="#01C9C4"/>
<path opacity="0.999" fill-rule="evenodd" clip-rule="evenodd" d="M21.6564 3.97949C22.068 4.35847 22.4261 4.78165 22.7306 5.24902C22.6945 5.24263 22.662 5.25078 22.633 5.27344C19.8725 8.04204 17.1056 10.8008 14.3322 13.5498C14.2401 13.5078 14.1505 13.4589 14.0636 13.4033C14.0812 13.5309 14.1056 13.6611 14.1369 13.7939C13.9108 13.9956 13.691 14.2072 13.4777 14.4287C13.4533 14.656 13.4452 14.8838 13.4533 15.1123C13.4046 14.1442 13.3883 13.1677 13.4045 12.1826C16.1551 9.44824 18.9058 6.71387 21.6564 3.97949Z" fill="#01C4CB"/>
<path opacity="0.999" fill-rule="evenodd" clip-rule="evenodd" d="M22.7305 5.24918C22.7842 5.30313 22.8167 5.36822 22.8281 5.44449C20.0612 8.17887 17.3105 10.9295 14.5762 13.6964C14.485 13.6592 14.4036 13.6104 14.332 13.55C17.1054 10.801 19.8723 8.0422 22.6328 5.27359C22.6618 5.25094 22.6944 5.24278 22.7305 5.24918Z" fill="#00C2CF"/>
<path opacity="0.999" fill-rule="evenodd" clip-rule="evenodd" d="M22.8262 5.44434C23.058 5.72847 23.2533 6.0377 23.4121 6.37207C23.4194 6.42344 23.4113 6.47227 23.3877 6.51855C20.808 9.09829 18.2282 11.6781 15.6484 14.2578C15.6756 14.2765 15.6918 14.3009 15.6973 14.3311C15.3146 14.1316 14.9403 13.9201 14.5742 13.6963C17.3086 10.9293 20.0592 8.17871 22.8262 5.44434Z" fill="#00BFD2"/>
<path fill-rule="evenodd" clip-rule="evenodd" d="M10.8652 6.27441C10.8978 6.27441 10.9141 6.29067 10.9141 6.32324C10.7233 6.83052 10.5606 7.35137 10.4258 7.88574C10.3993 7.88867 10.383 7.90493 10.377 7.93457C11.3855 7.9834 12.3947 7.99966 13.4043 7.9834C13.4043 9.38315 13.4043 10.7829 13.4043 12.1826C13.3882 13.1677 13.4044 14.1442 13.4531 15.1123C13.8278 15.1204 14.2022 15.1123 14.5762 15.0879C14.4332 14.6508 14.2867 14.2195 14.1367 13.7939C14.1054 13.6611 14.081 13.5309 14.0635 13.4033C14.1504 13.4589 14.2399 13.5078 14.332 13.5498C14.4036 13.6102 14.485 13.659 14.5762 13.6963C14.9422 13.9201 15.3166 14.1316 15.6992 14.3311C15.8781 14.4695 16.0734 14.5834 16.2852 14.6729C16.4627 14.8107 16.658 14.9246 16.8711 15.0146C17.2274 15.2255 17.5855 15.4371 17.9453 15.6494C17.9993 15.7031 18.0644 15.7357 18.1406 15.7471C18.2948 15.8596 18.4576 15.9653 18.6289 16.0645C17.9098 16.4562 17.21 16.8712 16.5293 17.3096C16.2852 17.4152 16.0573 17.5455 15.8457 17.7002C15.249 18.0034 14.663 18.3289 14.0879 18.6768C14.0716 18.6605 14.0553 18.6442 14.0391 18.6279C14.1666 18.3105 14.2643 17.985 14.332 17.6514C14.425 17.47 14.4901 17.2747 14.5273 17.0654C14.5539 17.0625 14.5701 17.0462 14.5762 17.0166C13.5676 16.9678 12.5584 16.9515 11.5488 16.9678C11.5488 16.0075 11.5488 15.0472 11.5488 14.0869C11.565 12.6625 11.5487 11.2465 11.5 9.83887C11.1253 9.83076 10.7509 9.83887 10.377 9.86328C10.5787 10.4195 10.7496 10.981 10.8896 11.5479C10.7293 11.4311 10.5584 11.3334 10.377 11.2549C10.0206 11.044 9.66255 10.8324 9.30273 10.6201C9.23765 10.5875 9.17251 10.555 9.10742 10.5225C8.6354 10.2212 8.14712 9.94453 7.64258 9.69238C7.62588 9.65146 7.59336 9.63516 7.54492 9.64355C7.1707 9.39121 6.78008 9.16333 6.37305 8.95996C6.36763 8.92983 6.35137 8.90542 6.32422 8.88672C6.50635 8.77964 6.6854 8.67383 6.86133 8.56934C8.19595 7.80435 9.53062 7.0394 10.8652 6.27441Z" fill="#FEFEFE"/>
<path opacity="0.999" fill-rule="evenodd" clip-rule="evenodd" d="M23.4121 6.37207C23.5671 6.61699 23.6973 6.87739 23.8027 7.15332C21.2799 9.64355 18.7734 12.15 16.2832 14.6729C16.0715 14.5834 15.8762 14.4695 15.6973 14.3311C15.6918 14.3009 15.6756 14.2765 15.6484 14.2578C18.2282 11.6781 20.808 9.09829 23.3877 6.51855C23.4113 6.47227 23.4194 6.42344 23.4121 6.37207Z" fill="#00BCD6"/>
<path opacity="0.998" fill-rule="evenodd" clip-rule="evenodd" d="M23.8047 7.15332C23.9204 7.35283 24.0181 7.5644 24.0977 7.78809C21.6725 10.1807 19.2637 12.5895 16.8711 15.0146C16.658 14.9246 16.4627 14.8107 16.2852 14.6729C18.7754 12.15 21.2819 9.64355 23.8047 7.15332Z" fill="#00BAD9"/>
<path opacity="0.998" fill-rule="evenodd" clip-rule="evenodd" d="M24.0977 7.78809C24.2538 8.19126 24.4002 8.59814 24.5371 9.00879C22.3412 11.221 20.1439 13.4346 17.9453 15.6494C17.5855 15.4371 17.2274 15.2255 16.8711 15.0146C19.2637 12.5895 21.6725 10.1807 24.0977 7.78809Z" fill="#00B7DD"/>
<path fill-rule="evenodd" clip-rule="evenodd" d="M10.4238 7.88574C10.8544 7.93423 11.2938 7.95054 11.7422 7.93457C11.8236 7.93457 11.9049 7.93457 11.9863 7.93457C12.4583 7.93457 12.9303 7.93457 13.4023 7.93457C13.4023 7.95083 13.4023 7.96714 13.4023 7.9834C12.3927 7.99966 11.3836 7.9834 10.375 7.93457C10.3811 7.90493 10.3973 7.88867 10.4238 7.88574Z" fill="#89EBDD"/>
<path opacity="0.998" fill-rule="evenodd" clip-rule="evenodd" d="M6.37109 8.95996C6.77812 9.16333 7.16875 9.39121 7.54297 9.64355C5.26602 11.9449 2.97923 14.2398 0.682617 16.5283C0.663936 16.5012 0.639521 16.4849 0.609375 16.4795C0.456425 16.0467 0.326217 15.6073 0.21875 15.1611C2.2682 13.0954 4.31898 11.0283 6.37109 8.95996Z" fill="#01DCAB"/>
<path opacity="0.998" fill-rule="evenodd" clip-rule="evenodd" d="M24.5371 9.00879C24.5534 9.10645 24.5697 9.2041 24.5859 9.30176C22.4212 11.4339 20.2728 13.5824 18.1406 15.7471C18.0644 15.7357 17.9993 15.7031 17.9453 15.6494C20.1439 13.4346 22.3412 11.221 24.5371 9.00879Z" fill="#00B5E0"/>
<path opacity="0.998" fill-rule="evenodd" clip-rule="evenodd" d="M24.584 9.30176C24.7715 9.93843 24.8854 10.5895 24.9258 11.2549C20.3522 15.7959 15.7949 20.3532 11.2539 24.9268C10.5884 24.8864 9.93735 24.7725 9.30078 24.585C11.7096 22.1598 14.1185 19.7347 16.5273 17.3096C17.208 16.8712 17.9079 16.4562 18.627 16.0645C18.4556 15.9653 18.2929 15.8596 18.1387 15.7471C20.2708 13.5824 22.4193 11.4339 24.584 9.30176Z" fill="#00B2E3"/>
<path opacity="0.996" fill-rule="evenodd" clip-rule="evenodd" d="M7.54297 9.64374C7.59141 9.63534 7.62393 9.65165 7.64062 9.69257C5.34741 12.0102 3.04434 14.3214 0.731445 16.6262C0.708774 16.6552 0.700635 16.6877 0.707031 16.7238C0.656372 16.654 0.623823 16.5726 0.609375 16.4797C0.639521 16.4851 0.663936 16.5014 0.682617 16.5285C2.97923 14.24 5.26602 11.9451 7.54297 9.64374Z" fill="#00DAAE"/>
<path opacity="0.998" fill-rule="evenodd" clip-rule="evenodd" d="M7.64274 9.69238C8.14728 9.94453 8.63556 10.2212 9.10758 10.5225C6.55392 13.1005 3.99046 15.6721 1.41715 18.2373C1.39847 18.2102 1.37405 18.1939 1.34391 18.1885C1.07608 17.7275 0.864489 17.2393 0.709142 16.7236C0.702746 16.6875 0.710885 16.655 0.733556 16.626C3.04645 14.3212 5.34952 12.01 7.64274 9.69238Z" fill="#00D7B2"/>
<path opacity="0.997" fill-rule="evenodd" clip-rule="evenodd" d="M9.10742 10.5225C9.17251 10.555 9.23765 10.5875 9.30273 10.6201C6.66494 13.2091 4.06077 15.8295 1.49023 18.4814C1.41663 18.3994 1.3678 18.3017 1.34375 18.1885C1.3739 18.1939 1.39831 18.2102 1.41699 18.2373C3.9903 15.6721 6.55376 13.1005 9.10742 10.5225Z" fill="#00D5B6"/>
<path opacity="0.999" fill-rule="evenodd" clip-rule="evenodd" d="M9.30078 10.6201C9.6606 10.8324 10.0187 11.044 10.375 11.2549C7.64062 14.0218 4.88999 16.7725 2.12305 19.5068C1.87491 19.19 1.66332 18.8482 1.48828 18.4814C4.05882 15.8295 6.66299 13.2091 9.30078 10.6201Z" fill="#01D2B8"/>
<path opacity="0.999" fill-rule="evenodd" clip-rule="evenodd" d="M11.5 11.0596C11.5081 11.418 11.5 11.7761 11.4756 12.1338C8.64185 14.9756 5.80171 17.8077 2.95508 20.6299C2.78496 20.4524 2.63848 20.2571 2.51562 20.0439C5.49414 17.0329 8.48892 14.0381 11.5 11.0596Z" fill="#00CDBF"/>
<path opacity="0.999" fill-rule="evenodd" clip-rule="evenodd" d="M24.9258 11.2549C24.9174 11.3033 24.9337 11.3358 24.9746 11.3525C24.9746 11.4339 24.9746 11.5153 24.9746 11.5967C20.5938 16.0508 16.183 20.486 11.7422 24.9023C11.7869 24.9159 11.8194 24.9403 11.8398 24.9756C11.6771 24.9756 11.5143 24.9756 11.3516 24.9756C11.3349 24.9347 11.3023 24.9184 11.2539 24.9268C15.7949 20.3532 20.3522 15.7959 24.9258 11.2549Z" fill="#00AFE8"/>
<path opacity="0.998" fill-rule="evenodd" clip-rule="evenodd" d="M11.5 9.83898C11.5 10.2459 11.5 10.6528 11.5 11.0597C8.48892 14.0382 5.49414 17.033 2.51562 20.0441C2.34799 19.8926 2.21778 19.7136 2.125 19.5069C4.89194 16.7726 7.64258 14.0219 10.377 11.255C10.5584 11.3336 10.7293 11.4312 10.8896 11.548C10.7496 10.9811 10.5787 10.4196 10.377 9.86339C10.7509 9.83898 11.1253 9.83087 11.5 9.83898Z" fill="#02CFBC"/>
<path opacity="0.999" fill-rule="evenodd" clip-rule="evenodd" d="M24.9746 11.5967C24.9746 12.2152 24.9746 12.8336 24.9746 13.4521C24.936 13.398 24.9116 13.3329 24.9014 13.2568C20.9934 17.1566 17.0953 21.0629 13.207 24.9756C12.7513 24.9756 12.2956 24.9756 11.8398 24.9756C11.8194 24.9403 11.7869 24.9159 11.7422 24.9023C16.183 20.486 20.5938 16.0508 24.9746 11.5967Z" fill="#00ACEB"/>
<path opacity="0.999" fill-rule="evenodd" clip-rule="evenodd" d="M11.498 9.83887C11.5468 11.2465 11.563 12.6625 11.5469 14.0869C9.00781 16.5934 6.48501 19.1162 3.97852 21.6553C3.58892 21.3633 3.24712 21.0215 2.95312 20.6299C5.79976 17.8077 8.63989 14.9756 11.4736 12.1338C11.498 11.7761 11.5062 11.418 11.498 11.0596C11.498 10.6527 11.498 10.2458 11.498 9.83887Z" fill="#01CAC4"/>
<path opacity="0.997" fill-rule="evenodd" clip-rule="evenodd" d="M24.9746 13.4521C24.9746 13.501 24.9746 13.5498 24.9746 13.5986C24.926 13.8869 24.8772 14.1799 24.8281 14.4775C21.36 17.9294 17.8932 21.3799 14.4277 24.8291C14.1516 24.8815 13.8749 24.9303 13.5977 24.9756C13.4674 24.9756 13.3373 24.9756 13.207 24.9756C17.0953 21.0629 20.9934 17.1566 24.9014 13.2568C24.9116 13.3329 24.936 13.398 24.9746 13.4521Z" fill="#00A9EF"/>
<path fill-rule="evenodd" clip-rule="evenodd" d="M14.1358 13.7939C14.2858 14.2195 14.4323 14.6508 14.5753 15.0879C14.2013 15.1123 13.827 15.1204 13.4522 15.1123C13.4441 14.8838 13.4523 14.656 13.4767 14.4287C13.69 14.2072 13.9097 13.9956 14.1358 13.7939Z" fill="#0FC1D1"/>
<path opacity="0.999" fill-rule="evenodd" clip-rule="evenodd" d="M11.5488 14.0869C11.5488 15.0472 11.5488 16.0075 11.5488 16.9678C11.5488 16.984 11.5488 17.0003 11.5488 17.0166C11.5024 16.9473 11.4861 16.866 11.5 16.7725C11.508 16.6574 11.4999 16.5435 11.4756 16.4307C9.41665 18.4896 7.35776 20.5485 5.29883 22.6074C5.25254 22.631 5.20371 22.6391 5.15234 22.6318C4.71772 22.3601 4.32709 22.0345 3.98047 21.6553C6.48696 19.1162 9.00977 16.5934 11.5488 14.0869Z" fill="#01C5CA"/>
<path opacity="0.997" fill-rule="evenodd" clip-rule="evenodd" d="M24.8301 14.4775C24.79 14.8245 24.7249 15.1663 24.6348 15.5029C21.5749 18.5303 18.5312 21.5739 15.5039 24.6338C15.1519 24.7302 14.7938 24.7953 14.4297 24.8291C17.8952 21.3799 21.362 17.9294 24.8301 14.4775Z" fill="#00A7F2"/>
<path opacity="0.993" fill-rule="evenodd" clip-rule="evenodd" d="M24.6348 15.5029C24.3591 16.6889 23.9034 17.7956 23.2676 18.8232C23.274 18.7872 23.2658 18.7546 23.2432 18.7256C21.6788 20.2653 20.1569 21.8115 18.6777 23.3643C17.6847 23.9396 16.6267 24.3628 15.5039 24.6338C18.5312 21.5739 21.5749 18.5303 24.6348 15.5029Z" fill="#00A4F6"/>
<path opacity="0.998" fill-rule="evenodd" clip-rule="evenodd" d="M11.5 16.7725C9.4916 18.7564 7.48965 20.7502 5.49414 22.7539C5.44785 22.7775 5.39902 22.7856 5.34766 22.7783C5.26318 22.7526 5.19805 22.7038 5.15234 22.6318C5.20371 22.6391 5.25254 22.631 5.29883 22.6074C7.35776 20.5485 9.41665 18.4896 11.4756 16.4307C11.4999 16.5435 11.508 16.6574 11.5 16.7725Z" fill="#00C2CF"/>
<path opacity="0.998" fill-rule="evenodd" clip-rule="evenodd" d="M11.5 16.7725C11.4861 16.866 11.5024 16.9473 11.5488 17.0166C11.9883 17.0166 12.4277 17.0166 12.8672 17.0166C10.735 19.165 8.60288 21.3135 6.4707 23.4619C6.07153 23.2707 5.69722 23.0428 5.34766 22.7783C5.39902 22.7856 5.44785 22.7775 5.49414 22.7539C7.48965 20.7502 9.4916 18.7564 11.5 16.7725Z" fill="#00BFD2"/>
<path fill-rule="evenodd" clip-rule="evenodd" d="M11.5469 17.0168C11.5469 17.0006 11.5469 16.9843 11.5469 16.968C12.5565 16.9518 13.5656 16.968 14.5742 17.0168C14.5682 17.0465 14.5519 17.0627 14.5254 17.0657C14.3235 17.0176 14.1119 17.0013 13.8906 17.0168C13.5488 17.0168 13.207 17.0168 12.8652 17.0168C12.4258 17.0168 11.9863 17.0168 11.5469 17.0168Z" fill="#89E0EB"/>
<path opacity="0.999" fill-rule="evenodd" clip-rule="evenodd" d="M12.8652 17.0166C13.207 17.0166 13.5488 17.0166 13.8906 17.0166C11.6445 19.279 9.39844 21.5414 7.15234 23.8037C6.90898 23.7146 6.6811 23.6006 6.46875 23.4619C8.60093 21.3135 10.7331 19.165 12.8652 17.0166Z" fill="#00BCD6"/>
<path opacity="0.999" fill-rule="evenodd" clip-rule="evenodd" d="M13.8906 17.0164C14.1119 17.0009 14.3235 17.0172 14.5254 17.0653C14.4882 17.2745 14.4231 17.4698 14.3301 17.6512C14.3365 17.6151 14.3283 17.5825 14.3057 17.5535C12.123 19.7281 9.95015 21.9091 7.78711 24.0965C7.56343 24.0169 7.35186 23.9193 7.15234 23.8035C9.39844 21.5412 11.6445 19.2788 13.8906 17.0164Z" fill="#00BAD9"/>
<path opacity="0.997" fill-rule="evenodd" clip-rule="evenodd" d="M16.5293 17.3096C14.1205 19.7347 11.7116 22.1598 9.30273 24.585C9.17739 24.5742 9.06343 24.5416 8.96094 24.4873C9.0123 24.4946 9.06113 24.4865 9.10742 24.4629C11.3633 22.2151 13.6094 19.9609 15.8457 17.7002C16.0573 17.5455 16.2852 17.4152 16.5293 17.3096Z" fill="#02B5E0"/>
<path opacity="0.998" fill-rule="evenodd" clip-rule="evenodd" d="M14.332 17.6514C14.2643 17.985 14.1666 18.3105 14.0391 18.6279C14.0553 18.6442 14.0716 18.6605 14.0879 18.6768C14.663 18.3289 15.249 18.0034 15.8457 17.7002C13.6094 19.9609 11.3633 22.2151 9.10742 24.4629C9.06113 24.4865 9.0123 24.4946 8.96094 24.4873C8.55981 24.3861 8.16919 24.256 7.78906 24.0967C9.9521 21.9092 12.125 19.7283 14.3076 17.5537C14.3303 17.5827 14.3384 17.6153 14.332 17.6514Z" fill="#02B7DD"/>
<path opacity="0.941" fill-rule="evenodd" clip-rule="evenodd" d="M23.2656 18.8232C22.1574 20.7615 20.6275 22.2751 18.6758 23.3643C20.155 21.8115 21.6768 20.2653 23.2412 18.7256C23.2639 18.7546 23.272 18.7872 23.2656 18.8232Z" fill="#01A2FA"/>
</g>
<defs>
<clipPath id="clip0_2603_3818">
<rect width="25" height="25" fill="white"/>
</clipPath>
</defs>
</svg>
