<svg width="93" height="93" viewBox="0 0 93 93" fill="none" xmlns="http://www.w3.org/2000/svg">
<g clip-path="url(#clip0_3610_1968)">
<path opacity="0.982" fill-rule="evenodd" clip-rule="evenodd" d="M67.4785 -0.0898438C69.3554 -0.0898438 71.2325 -0.0898438 73.1094 -0.0898438C80.6733 1.16452 86.3949 5.10006 90.2744 11.7168C91.6142 14.2525 92.4921 16.9165 92.9082 19.709C92.9082 21.5859 92.9082 23.463 92.9082 25.3398C92.249 29.5862 90.5839 33.4007 87.9131 36.7832C80.7383 43.958 73.5635 51.1328 66.3887 58.3076C59.6169 63.4878 52.1697 64.6988 44.0469 61.9404C39.2608 59.9691 35.507 56.7904 32.7852 52.4043C34.2659 50.8327 35.7797 49.2888 37.3262 47.7725C39.0249 46.7462 40.8413 46.5041 42.7754 47.0459C44.0378 47.8842 45.2486 48.7924 46.4082 49.7705C51.2802 52.2931 55.7607 51.7482 59.8496 48.1357C65.8741 42.1113 71.8984 36.087 77.9229 30.0625C80.9221 26.7212 81.7092 22.9068 80.2842 18.6191C77.9116 13.6022 73.9458 11.3923 68.3867 11.9893C66.7145 12.3111 65.2009 12.9771 63.8457 13.9873C59.7791 18.1146 55.6619 22.1713 51.4941 26.1572C49.7666 25.643 48.0106 25.1586 46.2266 24.7041C43.0212 24.1363 39.8121 24.0153 36.5996 24.3408C43.0782 17.8623 49.5566 11.3838 56.0352 4.90527C59.4213 2.24306 63.2358 0.578022 67.4785 -0.0898438Z" fill="#EA4B98"/>
<path opacity="0.982" fill-rule="evenodd" clip-rule="evenodd" d="M25.3398 92.9095C23.463 92.9095 21.5859 92.9095 19.709 92.9095C12.1451 91.6551 6.42337 87.7196 2.54395 81.1028C1.20416 78.5671 0.326228 75.903 -0.0898438 73.1106C-0.0898438 71.2337 -0.0898438 69.3567 -0.0898438 67.4798C0.569376 63.2334 2.23441 59.4189 4.90527 56.0364C12.0801 48.8616 19.2549 41.6868 26.4297 34.512C33.6902 29.0205 41.5613 27.9913 50.043 31.4241C54.2105 33.5034 57.5406 36.5004 60.0332 40.4153C58.5525 41.9869 57.0387 43.5308 55.4922 45.0472C53.7935 46.0734 51.9771 46.3156 50.043 45.7737C48.7806 44.9355 47.5698 44.0272 46.4102 43.0491C41.5404 40.5267 37.06 41.0716 32.9688 44.6839C26.9443 50.7084 20.92 56.7326 14.8955 62.7571C11.7709 66.2368 11.0443 70.1724 12.7158 74.5638C15.1516 79.3395 19.0569 81.4283 24.4316 80.8304C26.1038 80.5085 27.6174 79.8426 28.9727 78.8323C33.1453 74.8413 37.2626 70.7847 41.3242 66.6624C43.0518 67.1766 44.8077 67.6611 46.5918 68.1155C49.7972 68.6833 53.0063 68.8043 56.2188 68.4788C49.7402 74.9574 43.2618 81.4358 36.7832 87.9143C33.3971 90.5765 29.5826 92.2416 25.3398 92.9095Z" fill="#EA4B98"/>
</g>
<defs>
<clipPath id="clip0_3610_1968">
<rect width="93" height="93" fill="white"/>
</clipPath>
</defs>
</svg>
