<svg width="50" height="50" viewBox="0 0 50 50" fill="none" xmlns="http://www.w3.org/2000/svg">
<g clip-path="url(#clip0_1242_3)">
<path opacity="0.964" fill-rule="evenodd" clip-rule="evenodd" d="M32.1777 6.29909C33.458 6.24361 34.7276 6.325 35.9863 6.54323C36.7564 6.78951 37.4236 7.19642 37.9883 7.76394C38.8804 6.93432 39.9384 6.46232 41.1621 6.34792C42.0735 6.28281 42.9851 6.28281 43.8965 6.34792C44.8893 6.65627 45.2637 7.32359 45.0195 8.34987C44.843 8.78683 44.5338 9.09607 44.0918 9.27761C43.1804 9.31016 42.2689 9.34272 41.3574 9.37526C40.3646 9.58686 39.7624 10.189 39.5508 11.1819C39.4857 20.3616 39.4857 29.5413 39.5508 38.721C39.7624 39.7138 40.3646 40.316 41.3574 40.5276C42.2689 40.5601 43.1804 40.5927 44.0918 40.6253C44.9622 41.0201 45.2715 41.6874 45.0195 42.6272C44.8235 43.1485 44.4491 43.4577 43.8965 43.555C42.7533 43.6362 41.6141 43.6037 40.4785 43.4573C39.5165 43.2568 38.6864 42.8174 37.9883 42.1389C37.1303 42.9666 36.1049 43.4385 34.9121 43.555C34.0007 43.6201 33.0892 43.6201 32.1777 43.555C31.2728 43.2916 30.8658 42.6893 30.957 41.7483C31.0882 41.1737 31.43 40.7994 31.9824 40.6253C33.0298 40.6158 34.0714 40.5508 35.1074 40.43C35.784 40.1766 36.2235 39.7047 36.4258 39.0139C36.4909 29.6389 36.4909 20.2639 36.4258 10.8889C36.2235 10.1982 35.784 9.7262 35.1074 9.47292C34.0714 9.35216 33.0298 9.28705 31.9824 9.27761C31.0509 8.861 30.7417 8.16112 31.0547 7.178C31.3215 6.7295 31.6958 6.43653 32.1777 6.29909Z" fill="#EA4B98"/>
<path opacity="0.99" fill-rule="evenodd" clip-rule="evenodd" d="M-0.0488281 31.6897C-0.0488281 27.1975 -0.0488281 22.7053 -0.0488281 18.2131C0.409913 16.6968 1.41902 15.7691 2.97852 15.4299C13.1998 15.3811 23.4212 15.3648 33.6426 15.3811C33.6426 21.7613 33.6426 28.1416 33.6426 34.5217C23.4212 34.5381 13.1998 34.5217 2.97852 34.4729C1.41652 34.1311 0.407406 33.2034 -0.0488281 31.6897ZM6.68945 20.5569C9.09853 20.5406 11.5074 20.5569 13.916 20.6057C15.135 20.9115 15.5093 21.6439 15.0391 22.803C14.7445 23.1538 14.3702 23.3653 13.916 23.4378C11.3404 23.5309 8.76878 23.4984 6.20117 23.3401C5.43899 22.9709 5.1623 22.3687 5.37109 21.5335C5.63283 20.9562 6.07229 20.6306 6.68945 20.5569ZM19.6777 20.5569C22.2535 20.5125 24.8252 20.5613 27.3926 20.7034C28.3649 21.3052 28.5277 22.0865 27.8809 23.0471C27.6 23.2851 27.2744 23.4153 26.9043 23.4378C24.4954 23.5029 22.0866 23.5029 19.6777 23.4378C18.4588 23.132 18.0845 22.3996 18.5547 21.2405C18.8463 20.8579 19.2206 20.6299 19.6777 20.5569ZM6.68945 26.4163C13.4278 26.4 20.1661 26.4163 26.9043 26.4651C28.2742 26.8131 28.616 27.6105 27.9297 28.8577C27.641 29.124 27.2992 29.2705 26.9043 29.2971C20.166 29.3623 13.4277 29.3623 6.68945 29.2971C5.39199 28.997 5.01764 28.2321 5.56641 27.0022C5.88942 26.6863 6.26378 26.491 6.68945 26.4163Z" fill="#EA4B98"/>
<path opacity="0.981" fill-rule="evenodd" clip-rule="evenodd" d="M49.9512 18.2131C49.9512 22.7053 49.9512 27.1975 49.9512 31.6897C49.4924 33.206 48.4833 34.1338 46.9238 34.4729C45.3942 34.5217 43.8643 34.5381 42.334 34.5217C42.334 28.1416 42.334 21.7613 42.334 15.3811C43.8643 15.3648 45.3942 15.3811 46.9238 15.4299C48.4833 15.7691 49.4924 16.6968 49.9512 18.2131Z" fill="#EA4B98"/>
</g>
<defs>
<clipPath id="clip0_1242_3">
<rect width="50" height="50" fill="white"/>
</clipPath>
</defs>
</svg>
