<svg width="24" height="24" viewBox="0 0 24 24" fill="none" xmlns="http://www.w3.org/2000/svg">
<g clip-path="url(#clip0_2600_2581)">
<path opacity="0.996" fill-rule="evenodd" clip-rule="evenodd" d="M11.4141 -0.0234375C11.7891 -0.0234375 12.1641 -0.0234375 12.5391 -0.0234375C15.5003 0.995789 18.1878 2.48798 20.6016 4.45312C21.3744 5.10891 22.1244 5.78859 22.8516 6.49219C23.0187 6.80517 23.1593 7.1333 23.2734 7.47656C20.0269 3.87579 16.0738 1.37579 11.4141 -0.0234375Z" fill="#FF5E73"/>
<path opacity="0.993" fill-rule="evenodd" clip-rule="evenodd" d="M10.8516 -0.0234375C11.0391 -0.0234375 11.2266 -0.0234375 11.4141 -0.0234375C16.0738 1.37579 20.0269 3.87579 23.2734 7.47656C23.3702 7.72013 23.4484 7.97016 23.5078 8.22656C22.6449 7.27758 21.7231 6.34791 20.7422 5.4375C17.7243 2.85798 14.2867 1.05329 10.4297 0.0234375C10.5803 0.0379688 10.7209 0.0223439 10.8516 -0.0234375Z" fill="#FF577A"/>
<path opacity="0.991" fill-rule="evenodd" clip-rule="evenodd" d="M12.5391 -0.0234375C12.7266 -0.0234375 12.9141 -0.0234375 13.1016 -0.0234375C13.3837 0.0172842 13.6649 0.0641592 13.9453 0.117188C16.2458 1.09517 18.3864 2.33736 20.3672 3.84375C21.0184 4.40939 21.6746 4.96406 22.3359 5.50781C22.5203 5.8298 22.6922 6.15792 22.8516 6.49219C22.1244 5.78859 21.3744 5.10891 20.6016 4.45312C18.1878 2.48798 15.5003 0.995789 12.5391 -0.0234375Z" fill="#FF646D"/>
<path opacity="0.996" fill-rule="evenodd" clip-rule="evenodd" d="M10.4297 0.0234375C14.2867 1.05329 17.7243 2.85798 20.7422 5.4375C21.7231 6.34791 22.6449 7.27758 23.5078 8.22656C23.5985 8.46436 23.661 8.71434 23.6953 8.97656C22.2768 7.26966 20.6674 5.73056 18.8672 4.35938C16.053 2.35063 12.9592 0.952191 9.58594 0.164062C9.86883 0.117049 10.1501 0.0701742 10.4297 0.0234375Z" fill="#FE527F"/>
<path opacity="0.985" fill-rule="evenodd" clip-rule="evenodd" d="M13.9453 0.117188C14.2877 0.135051 14.6158 0.197551 14.9297 0.304688C17.3631 1.42781 19.6052 2.88093 21.6562 4.66406C21.678 4.6362 21.6858 4.60495 21.6797 4.57031C21.9151 4.86877 22.1339 5.18128 22.3359 5.50781C21.6746 4.96406 21.0184 4.40939 20.3672 3.84375C18.3864 2.33736 16.2458 1.09517 13.9453 0.117188Z" fill="#FF6868"/>
<path opacity="0.998" fill-rule="evenodd" clip-rule="evenodd" d="M9.58594 0.164062C12.9592 0.952191 16.053 2.35063 18.8672 4.35938C20.6674 5.73056 22.2768 7.26966 23.6953 8.97656C23.8025 9.32236 23.865 9.68175 23.8828 10.0547C22.4595 8.18578 20.8033 6.50611 18.9141 5.01562C15.7497 2.6395 12.2028 1.13169 8.27344 0.492188C8.69869 0.354627 9.13617 0.245252 9.58594 0.164062Z" fill="#FA5085"/>
<path opacity="0.998" fill-rule="evenodd" clip-rule="evenodd" d="M8.27344 0.492188C12.2028 1.13169 15.7497 2.6395 18.9141 5.01562C20.8033 6.50611 22.4595 8.18578 23.8828 10.0547C23.9141 10.2109 23.9453 10.3672 23.9766 10.5234C23.9766 10.7109 23.9766 10.8984 23.9766 11.0859C23.91 10.8847 23.8084 10.6972 23.6719 10.5234C19.6684 5.05514 14.3012 1.7895 7.57031 0.726562C7.79138 0.621623 8.02575 0.543497 8.27344 0.492188Z" fill="#F54E8C"/>
<path opacity="0.948" fill-rule="evenodd" clip-rule="evenodd" d="M14.9297 0.304688C17.6993 0.922823 19.9493 2.3447 21.6797 4.57031C21.6858 4.60495 21.678 4.6362 21.6562 4.66406C19.6052 2.88093 17.3631 1.42781 14.9297 0.304688Z" fill="#FF6E62"/>
<path opacity="0.998" fill-rule="evenodd" clip-rule="evenodd" d="M7.57031 0.726562C14.3012 1.7895 19.6684 5.05514 23.6719 10.5234C23.8084 10.6972 23.91 10.8847 23.9766 11.0859C23.9766 11.289 23.9766 11.4922 23.9766 11.6953C19.9101 5.54977 14.1914 2.01853 6.82031 1.10156C6.726 1.11748 6.63225 1.1331 6.53906 1.14844C6.8647 0.971958 7.20848 0.831333 7.57031 0.726562Z" fill="#F14D92"/>
<path opacity="0.998" fill-rule="evenodd" clip-rule="evenodd" d="M23.9766 11.6953C23.9766 11.9453 23.9766 12.1953 23.9766 12.4453C23.9345 12.4968 23.8955 12.4968 23.8594 12.4453C20.3739 6.79233 15.3661 3.2689 8.83594 1.875C7.85034 1.69913 6.86597 1.56632 5.88281 1.47656C6.08667 1.34339 6.30544 1.23401 6.53906 1.14844C6.63225 1.1331 6.726 1.11748 6.82031 1.10156C14.1914 2.01853 19.9101 5.54977 23.9766 11.6953Z" fill="#EC4B99"/>
<path opacity="0.998" fill-rule="evenodd" clip-rule="evenodd" d="M5.88281 1.47656C6.86597 1.56632 7.85034 1.69913 8.83594 1.875C15.3661 3.2689 20.3739 6.79233 23.8594 12.4453C23.8955 12.4968 23.9345 12.4968 23.9766 12.4453C23.9766 12.5235 23.9766 12.6015 23.9766 12.6797C23.932 12.7462 23.9164 12.8243 23.9297 12.9141C20.9205 7.80534 16.5767 4.36005 10.8984 2.57812C9.14995 2.07578 7.3687 1.77109 5.55469 1.66406C5.65477 1.59043 5.76412 1.52792 5.88281 1.47656Z" fill="#E84A9D"/>
<path opacity="0.998" fill-rule="evenodd" clip-rule="evenodd" d="M5.55469 1.66406C7.3687 1.77109 9.14995 2.07578 10.8984 2.57812C16.5767 4.36005 20.9205 7.80534 23.9297 12.9141C23.9201 13.0555 23.9045 13.1962 23.8828 13.3359C21.4587 8.96709 17.9587 5.75616 13.3828 3.70312C10.7731 2.58182 8.05434 1.96463 5.22656 1.85156C5.32828 1.77721 5.43769 1.71471 5.55469 1.66406Z" fill="#E64AA0"/>
<path opacity="0.998" fill-rule="evenodd" clip-rule="evenodd" d="M5.22656 1.85156C8.05434 1.96463 10.7731 2.58182 13.3828 3.70312C17.9587 5.75616 21.4587 8.96709 23.8828 13.3359C23.8472 13.5539 23.816 13.7727 23.7891 13.9922C20.94 8.63705 16.6118 5.0355 10.8047 3.1875C8.78723 2.57898 6.72473 2.27429 4.61719 2.27344C4.81041 2.12184 5.01352 1.98122 5.22656 1.85156Z" fill="#E248A5"/>
<path opacity="0.998" fill-rule="evenodd" clip-rule="evenodd" d="M4.61719 2.27344C6.72473 2.27429 8.78723 2.57898 10.8047 3.1875C16.6118 5.0355 20.94 8.63705 23.7891 13.9922C23.7481 14.1655 23.7013 14.3374 23.6484 14.5078C22.5209 12.3016 21.0677 10.3329 19.2891 8.60156C19.2015 8.26416 18.9827 8.07666 18.6328 8.03906C15.6097 5.33255 12.0784 3.63722 8.03906 2.95312C6.75009 2.75066 5.4532 2.6491 4.14844 2.64844C4.29001 2.50705 4.44626 2.38205 4.61719 2.27344Z" fill="#DE47AB"/>
<path opacity="0.999" fill-rule="evenodd" clip-rule="evenodd" d="M4.14844 2.64844C5.4532 2.6491 6.75009 2.75066 8.03906 2.95312C12.0784 3.63722 15.6097 5.33255 18.6328 8.03906C18.481 8.09709 18.3404 8.17519 18.2109 8.27344C14.3012 4.90945 9.74658 3.19068 4.54688 3.11719C4.33571 3.1297 4.12477 3.14533 3.91406 3.16406C3.79912 3.16223 3.70537 3.13098 3.63281 3.07031C3.78991 2.91337 3.96179 2.77274 4.14844 2.64844Z" fill="#D945B2"/>
<path fill-rule="evenodd" clip-rule="evenodd" d="M3.63281 3.07031C3.70537 3.13098 3.79912 3.16223 3.91406 3.16406C4.12477 3.14533 4.33571 3.1297 4.54688 3.11719C9.74658 3.19068 14.3012 4.90945 18.2109 8.27344C18.1157 8.36822 18.0063 8.44636 17.8828 8.50781C13.6346 4.91466 8.71275 3.27404 3.11719 3.58594C3.27344 3.39844 3.44531 3.22656 3.63281 3.07031Z" fill="#D544B7"/>
<path opacity="0.999" fill-rule="evenodd" clip-rule="evenodd" d="M17.8828 8.50758C17.7713 8.61905 17.6463 8.7128 17.5078 8.78883C17.4749 8.68496 17.4124 8.59904 17.3203 8.53102C13.0744 5.14083 8.23064 3.61739 2.78906 3.96071C2.86486 3.80676 2.97423 3.68176 3.11719 3.58571C8.71275 3.27381 13.6346 4.91443 17.8828 8.50758Z" fill="#D042BE"/>
<path opacity="0.998" fill-rule="evenodd" clip-rule="evenodd" d="M2.78906 3.96093C8.23064 3.61761 13.0744 5.14105 17.3203 8.53124C17.4124 8.59926 17.4749 8.68518 17.5078 8.78905C17.4332 8.88904 17.3395 8.96713 17.2266 9.02343C13.5805 5.95063 9.35391 4.38812 4.54688 4.33593C3.81619 4.33911 3.08963 4.38599 2.36719 4.47655C2.4904 4.2908 2.63102 4.11893 2.78906 3.96093Z" fill="#CB41C4"/>
<path opacity="0.998" fill-rule="evenodd" clip-rule="evenodd" d="M17.2266 9.02344C17.1159 9.13373 16.9909 9.22748 16.8516 9.30469C13.0452 6.15816 8.65458 4.66598 3.67969 4.82812C3.11275 4.84889 2.55025 4.90359 1.99219 4.99219C2.08126 4.79381 2.20626 4.62193 2.36719 4.47656C3.08963 4.386 3.81619 4.33912 4.54688 4.33594C9.35391 4.38813 13.5805 5.95064 17.2266 9.02344Z" fill="#C63FCB"/>
<path opacity="0.999" fill-rule="evenodd" clip-rule="evenodd" d="M16.8516 9.30489C16.7409 9.41519 16.6159 9.50894 16.4766 9.58614C16.4436 9.48226 16.3811 9.39634 16.2891 9.32833C11.9897 5.99931 7.1303 4.69464 1.71094 5.41426C1.76995 5.24903 1.8637 5.1084 1.99219 4.99239C2.55025 4.90379 3.11275 4.84909 3.67969 4.82833C8.65458 4.66618 13.0452 6.15836 16.8516 9.30489Z" fill="#C23ED1"/>
<path opacity="0.999" fill-rule="evenodd" clip-rule="evenodd" d="M16.4766 9.58591C16.3847 9.66353 16.2909 9.74167 16.1953 9.82028C13.6898 7.73214 10.8149 6.41186 7.57031 5.85935C5.52089 5.50989 3.474 5.51772 1.42969 5.88278C1.50001 5.71061 1.59376 5.55438 1.71094 5.41403C7.1303 4.69441 11.9897 5.99908 16.2891 9.3281C16.3811 9.39611 16.4436 9.48203 16.4766 9.58591Z" fill="#BD3CD7"/>
<path opacity="0.999" fill-rule="evenodd" clip-rule="evenodd" d="M16.196 9.82032C16.0949 9.90994 15.9854 9.98808 15.8678 10.0547C11.8183 6.83476 7.20894 5.54569 2.03971 6.18751C1.76094 6.22477 1.48751 6.27947 1.2194 6.35157C1.2007 6.34088 1.19289 6.32522 1.19596 6.30469C1.25567 6.15188 1.3338 6.01126 1.43034 5.88282C3.47465 5.51776 5.52154 5.50993 7.57096 5.85938C10.8155 6.4119 13.6905 7.73218 16.196 9.82032Z" fill="#B93BDD"/>
<path opacity="0.999" fill-rule="evenodd" clip-rule="evenodd" d="M15.8672 10.0545C15.7369 10.1747 15.5962 10.2841 15.4453 10.3827C15.4285 10.295 15.3816 10.2246 15.3047 10.1717C11.0058 6.95267 6.20892 5.85111 0.914062 6.86703C0.999469 6.67194 1.09322 6.48444 1.19531 6.30453C1.19225 6.32506 1.20006 6.34072 1.21875 6.35141C1.48686 6.27931 1.7603 6.22461 2.03906 6.18735C7.2083 5.54553 11.8177 6.83459 15.8672 10.0545Z" fill="#B439E4"/>
<path opacity="0.999" fill-rule="evenodd" clip-rule="evenodd" d="M15.4453 10.3827C15.3442 10.4723 15.2348 10.5504 15.1172 10.617C15.0035 10.4644 14.8628 10.3317 14.6953 10.2186C10.4873 7.23786 5.84672 6.26126 0.773438 7.2889C0.807014 7.14368 0.853889 7.00306 0.914062 6.86703C6.20892 5.85111 11.0058 6.95267 15.3047 10.1717C15.3816 10.2246 15.4285 10.2949 15.4453 10.3827Z" fill="#AF38EA"/>
<path opacity="0.999" fill-rule="evenodd" clip-rule="evenodd" d="M15.1172 10.6174C15.0211 10.7133 14.9117 10.7914 14.7891 10.8517C12.3936 8.93632 9.6592 7.78788 6.58594 7.40641C4.56358 7.16322 2.56358 7.28041 0.585938 7.75797C0.621877 7.58693 0.68438 7.43069 0.773438 7.28922C5.84672 6.26158 10.4873 7.23818 14.6953 10.2189C14.8628 10.332 15.0035 10.4648 15.1172 10.6174Z" fill="#AA36F0"/>
<path opacity="0.999" fill-rule="evenodd" clip-rule="evenodd" d="M14.7891 10.8516C14.5595 11.1378 14.2626 11.2393 13.8984 11.1563C12.8696 10.4244 11.854 9.67438 10.8516 8.90628C10.4776 8.67678 10.0713 8.57521 9.63281 8.6016C9.65241 8.56775 9.68363 8.54431 9.72656 8.53128C6.66577 7.53992 3.572 7.42274 0.445312 8.17972C0.483 8.03539 0.529875 7.89477 0.585938 7.75785C2.56358 7.28028 4.56358 7.1631 6.58594 7.40628C9.6592 7.78775 12.3936 8.93619 14.7891 10.8516Z" fill="#A636F7"/>
<path fill-rule="evenodd" clip-rule="evenodd" d="M18.6328 8.03906C18.9827 8.07666 19.2015 8.26416 19.2891 8.60156C19.2399 8.778 19.1775 8.94989 19.1016 9.11719C19.0068 9.21239 18.9286 9.3218 18.8672 9.44531C18.7897 9.56864 18.7116 9.69361 18.6328 9.82031C18.5586 9.9217 18.4961 10.0311 18.4453 10.1484C18.3173 10.2631 18.2235 10.4037 18.1641 10.5703C18.0662 10.6564 18.0037 10.7657 17.9766 10.8984C17.8818 10.9936 17.8036 11.103 17.7422 11.2266C17.664 11.3516 17.586 11.4765 17.5078 11.6016C17.4156 11.7411 17.3219 11.8817 17.2266 12.0234C17.1641 12.1328 17.1015 12.2422 17.0391 12.3516C16.9616 12.4749 16.8835 12.5999 16.8047 12.7266C16.7068 12.8126 16.6443 12.922 16.6172 13.0547C16.3165 13.4525 16.0509 13.8743 15.8203 14.3203C15.688 14.4598 15.5786 14.616 15.4922 14.7891C15.3213 14.8977 15.165 15.0227 15.0234 15.1641C14.8208 15.2264 14.6177 15.2889 14.4141 15.3516C14.0945 15.372 13.782 15.3407 13.4766 15.2578C13.3484 15.2013 13.2234 15.131 13.1016 15.0469C12.0991 14.2788 11.0835 13.5288 10.0547 12.7969C9.66572 12.7182 9.3532 12.8354 9.11719 13.1484C8.91998 13.2391 8.74814 13.3642 8.60156 13.5234C8.3955 13.6418 8.208 13.7824 8.03906 13.9453C7.79634 14.1057 7.56197 14.2776 7.33594 14.4609C7.13283 14.6172 6.92967 14.7735 6.72656 14.9297C6.52233 15.0874 6.31917 15.2437 6.11719 15.3984C5.88952 15.5668 5.65514 15.723 5.41406 15.8672C4.95684 15.934 4.70686 15.7309 4.66406 15.2578C4.88283 14.8672 5.10155 14.4765 5.32031 14.0859C5.60864 13.6974 5.87423 13.2912 6.11719 12.8672C6.23761 12.705 6.34702 12.5331 6.44531 12.3516C6.57891 12.1782 6.68827 11.9907 6.77344 11.7891C6.92503 11.5958 7.06566 11.3927 7.19531 11.1797C7.293 10.9999 7.40236 10.828 7.52344 10.6641C7.6328 10.4766 7.7422 10.2891 7.85156 10.1016C7.99341 9.92789 8.11838 9.74039 8.22656 9.53906C8.53678 8.99302 9.00553 8.68055 9.63281 8.60156C10.0713 8.57517 10.4776 8.67675 10.8516 8.90625C11.854 9.67434 12.8696 10.4243 13.8984 11.1562C14.2626 11.2393 14.5595 11.1377 14.7891 10.8516C14.9117 10.7913 15.0211 10.7131 15.1172 10.6172C15.2348 10.5506 15.3442 10.4724 15.4453 10.3828C15.5962 10.2842 15.7369 10.1749 15.8672 10.0547C15.9848 9.98808 16.0942 9.90994 16.1953 9.82031C16.2909 9.7417 16.3847 9.66356 16.4766 9.58594C16.6159 9.50873 16.7409 9.41498 16.8516 9.30469C16.9909 9.22748 17.1159 9.13373 17.2266 9.02344C17.3395 8.96714 17.4332 8.88905 17.5078 8.78906C17.6463 8.71303 17.7713 8.61928 17.8828 8.50781C18.0063 8.44636 18.1157 8.36822 18.2109 8.27344C18.3404 8.17519 18.481 8.09709 18.6328 8.03906Z" fill="#FEFEFE"/>
<path opacity="0.997" fill-rule="evenodd" clip-rule="evenodd" d="M9.63281 8.60149C9.00553 8.68048 8.53678 8.99295 8.22656 9.53899C5.48653 8.91012 2.7678 8.98826 0.0703125 9.77337C0.165729 9.23543 0.290729 8.7042 0.445312 8.17962C3.572 7.42263 6.66577 7.53982 9.72656 8.53118C9.68363 8.54421 9.65241 8.56765 9.63281 8.60149Z" fill="#9B36FE"/>
<path opacity="0.998" fill-rule="evenodd" clip-rule="evenodd" d="M19.2891 8.60156C21.0677 10.3329 22.5209 12.3016 23.6484 14.5078C23.6047 14.7482 23.5422 14.9826 23.4609 15.2109C22.3763 12.9171 20.9232 10.8858 19.1016 9.11719C19.1775 8.94989 19.2399 8.778 19.2891 8.60156Z" fill="#D945B2"/>
<path opacity="0.998" fill-rule="evenodd" clip-rule="evenodd" d="M8.22656 9.53916C8.11837 9.74049 7.99341 9.92799 7.85156 10.1017C5.21316 9.4756 2.60379 9.58496 0.0234375 10.4298C0.0313412 10.2104 0.0469664 9.9916 0.0703125 9.77354C2.7678 8.98843 5.48653 8.91029 8.22656 9.53916Z" fill="#923BFF"/>
<path opacity="0.997" fill-rule="evenodd" clip-rule="evenodd" d="M19.1016 9.11719C20.9232 10.8858 22.3763 12.9171 23.4609 15.2109C23.4158 15.3935 23.3533 15.5654 23.2734 15.7266C22.4204 13.8978 21.35 12.2103 20.0625 10.6641C19.6873 10.2341 19.2888 9.82791 18.8672 9.44531C18.9286 9.3218 19.0068 9.21239 19.1016 9.11719Z" fill="#D444B9"/>
<path opacity="0.996" fill-rule="evenodd" clip-rule="evenodd" d="M18.8672 9.44531C19.2888 9.82791 19.6873 10.2341 20.0625 10.6641C21.35 12.2103 22.4204 13.8978 23.2734 15.7266C23.231 15.9329 23.1529 16.1204 23.0391 16.2891C22.0274 13.8504 20.5899 11.702 18.7266 9.84375C18.6987 9.822 18.6675 9.81417 18.6328 9.82031C18.7116 9.69361 18.7897 9.56864 18.8672 9.44531Z" fill="#D042BE"/>
<path opacity="0.998" fill-rule="evenodd" clip-rule="evenodd" d="M18.6328 9.82038C18.6675 9.81424 18.6987 9.82207 18.7266 9.84382C20.5899 11.702 22.0274 13.8505 23.0391 16.2891C22.998 16.4805 22.9199 16.6524 22.8047 16.8048C21.8195 14.2697 20.3663 12.0509 18.4453 10.1485C18.4961 10.0311 18.5586 9.92178 18.6328 9.82038Z" fill="#CB41C4"/>
<path opacity="0.997" fill-rule="evenodd" clip-rule="evenodd" d="M7.85156 10.1014C7.7422 10.2889 7.6328 10.4764 7.52344 10.6639C4.96941 10.0646 2.45378 10.2053 -0.0234375 11.0858C-0.0234375 10.8983 -0.0234375 10.7108 -0.0234375 10.5233C0.0158553 10.5072 0.0314803 10.476 0.0234375 10.4295C2.60379 9.58468 5.21316 9.47532 7.85156 10.1014Z" fill="#8C3FFF"/>
<path opacity="0.999" fill-rule="evenodd" clip-rule="evenodd" d="M7.52344 10.6638C7.40236 10.8277 7.293 10.9996 7.19531 11.1794C4.74258 10.6737 2.33632 10.8456 -0.0234375 11.6951C-0.0234375 11.492 -0.0234375 11.2888 -0.0234375 11.0857C2.45378 10.2052 4.96941 10.0646 7.52344 10.6638Z" fill="#8643FF"/>
<path opacity="0.999" fill-rule="evenodd" clip-rule="evenodd" d="M18.4453 10.1484C20.3663 12.0509 21.8195 14.2696 22.8047 16.8047C22.7504 16.9758 22.6722 17.1321 22.5703 17.2734C22.5117 17.2698 22.4727 17.2386 22.4531 17.1797C21.5668 14.8742 20.3012 12.8117 18.6562 10.9922C18.511 10.8231 18.347 10.6825 18.1641 10.5703C18.2235 10.4037 18.3173 10.2631 18.4453 10.1484Z" fill="#C63FCB"/>
<path opacity="0.997" fill-rule="evenodd" clip-rule="evenodd" d="M18.1641 10.5703C18.347 10.6825 18.511 10.8231 18.6562 10.9922C20.3012 12.8117 21.5668 14.8742 22.4531 17.1797C22.4727 17.2386 22.5117 17.2698 22.5703 17.2734C22.4844 17.4767 22.3751 17.6642 22.2422 17.8359C21.3425 15.1909 19.9206 12.8784 17.9766 10.8984C18.0037 10.7657 18.0662 10.6564 18.1641 10.5703Z" fill="#C23ED1"/>
<path opacity="0.999" fill-rule="evenodd" clip-rule="evenodd" d="M7.19531 11.1796C7.06566 11.3926 6.92503 11.5957 6.77344 11.789C4.46825 11.3812 2.22607 11.6 0.046875 12.4452C0.0289418 12.4191 0.0055043 12.4035 -0.0234375 12.3983C-0.0234375 12.164 -0.0234375 11.9296 -0.0234375 11.6952C2.33632 10.8457 4.74258 10.6738 7.19531 11.1796Z" fill="#8047FF"/>
<path opacity="0.998" fill-rule="evenodd" clip-rule="evenodd" d="M17.9766 10.8984C19.9206 12.8784 21.3425 15.1909 22.2422 17.8359C22.1827 18.0025 22.089 18.1432 21.9609 18.2578C21.1033 15.572 19.6971 13.2282 17.7422 11.2266C17.8036 11.103 17.8818 10.9936 17.9766 10.8984Z" fill="#BD3CD7"/>
<path opacity="0.998" fill-rule="evenodd" clip-rule="evenodd" d="M17.7422 11.2266C19.6971 13.2282 21.1033 15.572 21.9609 18.2578C21.8995 18.3813 21.8213 18.4907 21.7266 18.5859C21.0141 16.5359 20.0063 14.6453 18.7031 12.9141C18.3437 12.4922 17.9844 12.0703 17.625 11.6484C17.5935 11.6132 17.5545 11.5975 17.5078 11.6016C17.586 11.4765 17.664 11.3516 17.7422 11.2266Z" fill="#B93BDD"/>
<path opacity="0.997" fill-rule="evenodd" clip-rule="evenodd" d="M17.5078 11.6017C17.5545 11.5977 17.5935 11.6133 17.625 11.6486C17.9844 12.0704 18.3437 12.4923 18.7031 12.9142C20.0063 14.6454 21.0141 16.536 21.7266 18.5861C21.618 18.757 21.4929 18.9133 21.3516 19.0548C20.5905 16.5701 19.364 14.3514 17.6719 12.3986C17.5422 12.245 17.3938 12.12 17.2266 12.0236C17.3219 11.8819 17.4156 11.7412 17.5078 11.6017Z" fill="#B439E4"/>
<path opacity="0.997" fill-rule="evenodd" clip-rule="evenodd" d="M6.77344 11.7889C6.68827 11.9905 6.57891 12.178 6.44531 12.3514C4.23189 11.9914 2.09126 12.2414 0.0234375 13.1014C0.0378 12.9662 0.022175 12.8411 -0.0234375 12.7264C-0.0234375 12.617 -0.0234375 12.5076 -0.0234375 12.3983C0.0055043 12.4035 0.0289418 12.4191 0.046875 12.4451C2.22607 11.5999 4.46825 11.3811 6.77344 11.7889Z" fill="#794BFF"/>
<path opacity="0.998" fill-rule="evenodd" clip-rule="evenodd" d="M17.2266 12.0234C17.3938 12.1199 17.5422 12.2448 17.6719 12.3984C19.364 14.3513 20.5905 16.57 21.3516 19.0547C21.2915 19.1928 21.1978 19.3022 21.0703 19.3828C20.4224 17.3213 19.4614 15.415 18.1875 13.6641C17.837 13.1969 17.4542 12.7593 17.0391 12.3516C17.1015 12.2422 17.1641 12.1328 17.2266 12.0234Z" fill="#AF38EA"/>
<path opacity="0.998" fill-rule="evenodd" clip-rule="evenodd" d="M6.44531 12.3517C6.34702 12.5332 6.23761 12.7051 6.11719 12.8673C4.07906 12.6572 2.11031 12.9307 0.210938 13.6876C0.175667 13.7191 0.160042 13.7581 0.164062 13.8048C0.113221 13.5756 0.0663459 13.3412 0.0234375 13.1017C2.09126 12.2417 4.23189 11.9917 6.44531 12.3517Z" fill="#734FFF"/>
<path opacity="0.997" fill-rule="evenodd" clip-rule="evenodd" d="M17.0391 12.3516C17.4542 12.7593 17.837 13.1969 18.1875 13.6641C19.4614 15.415 20.4224 17.3213 21.0703 19.3828C20.9766 19.5078 20.8672 19.6172 20.7422 19.7109C19.9904 17.1565 18.7482 14.8753 17.0156 12.8672C16.9627 12.7903 16.8924 12.7434 16.8047 12.7266C16.8835 12.5999 16.9616 12.4749 17.0391 12.3516Z" fill="#AA36F0"/>
<path opacity="0.998" fill-rule="evenodd" clip-rule="evenodd" d="M16.8047 12.7266C16.8924 12.7434 16.9627 12.7903 17.0156 12.8672C18.7482 14.8753 19.9904 17.1565 20.7422 19.7109C20.6328 19.8516 20.5078 19.9766 20.3672 20.0859C19.6945 17.4187 18.4445 15.075 16.6172 13.0547C16.6443 12.922 16.7068 12.8126 16.8047 12.7266Z" fill="#A635F6"/>
<path opacity="0.998" fill-rule="evenodd" clip-rule="evenodd" d="M13.4766 15.2576C13.4419 15.2514 13.4107 15.2593 13.3828 15.281C15.2924 17.2488 16.433 19.6003 16.8047 22.3357C16.6198 22.4512 16.4167 22.5293 16.1953 22.5701C15.9833 20.4112 15.2099 18.4737 13.875 16.7576C12.6172 15.1175 11.0313 13.9144 9.11719 13.1482C9.3532 12.8352 9.66572 12.718 10.0547 12.7966C11.0835 13.5285 12.0991 14.2785 13.1016 15.0466C13.2234 15.1308 13.3484 15.2011 13.4766 15.2576Z" fill="#7A4CFF"/>
<path opacity="0.999" fill-rule="evenodd" clip-rule="evenodd" d="M9.11719 13.1484C11.0313 13.9146 12.6172 15.1178 13.875 16.7578C15.2099 18.4739 15.9833 20.4114 16.1953 22.5703C16.0211 22.6596 15.8336 22.7221 15.6328 22.7578C15.1276 19.0921 13.3151 16.2875 10.1953 14.3438C9.66539 14.056 9.13416 13.7826 8.60156 13.5234C8.74814 13.3642 8.91998 13.2391 9.11719 13.1484Z" fill="#734FFF"/>
<path opacity="0.998" fill-rule="evenodd" clip-rule="evenodd" d="M6.1178 12.8673C5.87485 13.2913 5.60926 13.6975 5.32093 14.086C3.61862 13.9791 1.99362 14.276 0.44593 14.9767C0.301852 14.6033 0.208102 14.2127 0.16468 13.8048C0.160659 13.7581 0.176284 13.7191 0.211555 13.6876C2.11093 12.9306 4.07968 12.6572 6.1178 12.8673Z" fill="#6955FF"/>
<path opacity="0.998" fill-rule="evenodd" clip-rule="evenodd" d="M8.60156 13.5234C9.13416 13.7826 9.66539 14.056 10.1953 14.3438C13.3151 16.2875 15.1276 19.0921 15.6328 22.7578C15.4509 22.8236 15.2634 22.8705 15.0703 22.8984C14.5981 19.2559 12.7857 16.5137 9.63281 14.6719C9.10289 14.4145 8.57166 14.1723 8.03906 13.9453C8.208 13.7824 8.3955 13.6418 8.60156 13.5234Z" fill="#6D53FF"/>
<path opacity="0.996" fill-rule="evenodd" clip-rule="evenodd" d="M16.6172 13.0547C18.4445 15.075 19.6945 17.4187 20.3672 20.0859C20.0128 20.4814 19.6066 20.8095 19.1484 21.0703C18.6099 18.5246 17.5005 16.2746 15.8203 14.3203C16.0509 13.8743 16.3165 13.4525 16.6172 13.0547Z" fill="#9B36FE"/>
<path opacity="0.999" fill-rule="evenodd" clip-rule="evenodd" d="M8.03906 13.9453C8.57166 14.1723 9.10289 14.4145 9.63281 14.6719C12.7857 16.5137 14.5981 19.2559 15.0703 22.8984C14.8631 22.9735 14.6443 23.0204 14.4141 23.0391C13.8943 19.2162 11.8943 16.4896 8.41406 14.8594C8.05008 14.7236 7.69073 14.5908 7.33594 14.4609C7.56197 14.2776 7.79634 14.1057 8.03906 13.9453Z" fill="#6657FF"/>
<path opacity="0.998" fill-rule="evenodd" clip-rule="evenodd" d="M15.8203 14.3203C17.5005 16.2746 18.6099 18.5246 19.1484 21.0703C18.9774 21.2184 18.7899 21.3435 18.5859 21.4453C18.1333 18.9468 17.102 16.728 15.4922 14.7891C15.5786 14.616 15.688 14.4598 15.8203 14.3203Z" fill="#923BFF"/>
<path opacity="0.999" fill-rule="evenodd" clip-rule="evenodd" d="M7.33594 14.4609C7.69073 14.5908 8.05008 14.7236 8.41406 14.8594C11.8943 16.4896 13.8943 19.2162 14.4141 23.0391C14.2223 23.1045 14.0192 23.1357 13.8047 23.1328C13.3421 19.5727 11.4984 17.018 8.27344 15.4688C7.761 15.2641 7.24537 15.0845 6.72656 14.9297C6.92967 14.7735 7.13283 14.6172 7.33594 14.4609Z" fill="#605BFF"/>
<path opacity="0.997" fill-rule="evenodd" clip-rule="evenodd" d="M5.32031 14.0857C5.10155 14.4763 4.88283 14.867 4.66406 15.2576C3.32157 15.2698 2.04032 15.551 0.820312 16.1013C0.648619 15.7425 0.523617 15.3675 0.445312 14.9763C1.993 14.2756 3.618 13.9787 5.32031 14.0857Z" fill="#5C5EFF"/>
<path opacity="0.997" fill-rule="evenodd" clip-rule="evenodd" d="M15.4922 14.7891C17.102 16.728 18.1333 18.9468 18.5859 21.4453C18.4142 21.5782 18.2267 21.6876 18.0234 21.7734C17.618 19.2913 16.618 17.0882 15.0234 15.1641C15.165 15.0227 15.3213 14.8977 15.4922 14.7891Z" fill="#8C3FFF"/>
<path opacity="0.999" fill-rule="evenodd" clip-rule="evenodd" d="M6.72656 14.9297C7.24538 15.0845 7.761 15.2641 8.27344 15.4688C11.4984 17.018 13.3421 19.5727 13.8047 23.1328C13.6107 23.1826 13.4076 23.2139 13.1953 23.2266C12.8818 20.2621 11.4599 18.0044 8.92969 16.4531C8.04136 15.9536 7.10386 15.602 6.11719 15.3984C6.31917 15.2437 6.52233 15.0874 6.72656 14.9297Z" fill="#5A5FFF"/>
<path opacity="0.997" fill-rule="evenodd" clip-rule="evenodd" d="M15.0234 15.1641C16.618 17.0882 17.618 19.2913 18.0234 21.7734C17.8508 21.891 17.6633 21.9848 17.4609 22.0547C17.0901 19.5169 16.0745 17.2825 14.4141 15.3516C14.6177 15.2889 14.8208 15.2264 15.0234 15.1641Z" fill="#8643FF"/>
<path opacity="0.998" fill-rule="evenodd" clip-rule="evenodd" d="M13.4766 15.2579C13.782 15.3408 14.0945 15.3721 14.4141 15.3516C16.0745 17.2826 17.0901 19.517 17.4609 22.0548C17.2568 22.1751 17.038 22.2689 16.8047 22.336C16.433 19.6006 15.2924 17.2491 13.3828 15.2813C13.4107 15.2596 13.4419 15.2517 13.4766 15.2579Z" fill="#8047FF"/>
<path opacity="0.999" fill-rule="evenodd" clip-rule="evenodd" d="M6.11719 15.3984C7.10386 15.602 8.04136 15.9536 8.92969 16.4531C11.4599 18.0044 12.8818 20.2621 13.1953 23.2266C13.0069 23.2334 12.8194 23.249 12.6328 23.2734C12.1849 19.8846 10.3724 17.5642 7.19531 16.3125C6.60178 16.1363 6.00806 15.9878 5.41406 15.8672C5.65514 15.723 5.88952 15.5668 6.11719 15.3984Z" fill="#5563FF"/>
<path opacity="0.997" fill-rule="evenodd" clip-rule="evenodd" d="M4.66406 15.2578C4.70686 15.7309 4.95684 15.934 5.41406 15.8672C6.00806 15.9878 6.60178 16.1363 7.19531 16.3125C10.3724 17.5642 12.1849 19.8846 12.6328 23.2734C12.3984 23.2734 12.1641 23.2734 11.9297 23.2734C11.4631 19.9882 9.65058 17.8398 6.49219 16.8281C4.79292 16.3898 3.13667 16.5148 1.52344 17.2031C1.45438 17.2364 1.42313 17.2911 1.42969 17.3672C1.18993 16.9657 0.986803 16.5438 0.820312 16.1016C2.04032 15.5513 3.32157 15.27 4.66406 15.2578Z" fill="#4F66FF"/>
<path opacity="0.997" fill-rule="evenodd" clip-rule="evenodd" d="M11.9305 23.2734C11.743 23.2734 11.5555 23.2734 11.368 23.2734C10.8863 20.3481 9.24568 18.4028 6.44617 17.4374C4.81032 17.0005 3.21656 17.1177 1.66492 17.789C1.5749 17.6559 1.49678 17.5153 1.43054 17.3671C1.42398 17.291 1.45523 17.2363 1.52429 17.203C3.13752 16.5147 4.79377 16.3898 6.49304 16.828C9.65143 17.8397 11.4639 19.9882 11.9305 23.2734Z" fill="#476BFF"/>
<path opacity="0.997" fill-rule="evenodd" clip-rule="evenodd" d="M11.3672 23.2735C11.1797 23.2579 10.9922 23.2423 10.8047 23.2267C10.4152 20.7357 9.05583 19.0091 6.72656 18.047C5.11073 17.4813 3.51697 17.536 1.94531 18.211C1.84055 18.0802 1.7468 17.9396 1.66406 17.7892C3.21571 17.1179 4.80947 17.0007 6.44531 17.4376C9.24483 18.403 10.8855 20.3483 11.3672 23.2735Z" fill="#426EFF"/>
<path opacity="0.997" fill-rule="evenodd" clip-rule="evenodd" d="M10.8047 23.2267C10.5659 23.2144 10.3315 23.1832 10.1016 23.133C9.64317 20.8073 8.2838 19.2839 6.02344 18.5626C4.86881 18.2563 3.72818 18.3031 2.60156 18.7033C2.52814 18.7318 2.46563 18.7709 2.41406 18.8205C2.22429 18.6445 2.06805 18.4414 1.94531 18.2111C3.51697 17.536 5.11073 17.4813 6.72656 18.047C9.05583 19.0092 10.4152 20.7357 10.8047 23.2267Z" fill="#3C72FF"/>
<path opacity="0.997" fill-rule="evenodd" clip-rule="evenodd" d="M10.1016 23.1329C9.85073 23.1077 9.60075 23.0764 9.35156 23.0391C8.95448 21.2119 7.87636 19.9698 6.11719 19.3126C5.02097 18.9667 3.92724 18.9745 2.83594 19.336C2.67899 19.1789 2.53837 19.007 2.41406 18.8204C2.46563 18.7708 2.52814 18.7317 2.60156 18.7032C3.72818 18.3031 4.86881 18.2562 6.02344 18.5626C8.2838 19.2838 9.64317 20.8072 10.1016 23.1329Z" fill="#3477FF"/>
<path opacity="0.996" fill-rule="evenodd" clip-rule="evenodd" d="M9.35156 23.0389C9.12708 22.9818 8.90836 22.9193 8.69531 22.8514C8.13938 21.038 6.92062 19.9833 5.03906 19.6873C4.50075 19.6367 3.9695 19.6757 3.44531 19.8045C3.38844 19.8161 3.35719 19.8473 3.35156 19.8982C3.18101 19.7119 3.00914 19.5244 2.83594 19.3357C3.92724 18.9742 5.02097 18.9664 6.11719 19.3123C7.87636 19.9695 8.95448 21.2117 9.35156 23.0389Z" fill="#2E7BFF"/>
<path opacity="0.993" fill-rule="evenodd" clip-rule="evenodd" d="M8.69531 22.8515C8.46225 22.8083 8.22787 22.8005 7.99219 22.8281C7.83947 22.8968 7.68319 22.9515 7.52344 22.9921C6.88219 21.4524 5.72597 20.7493 4.05469 20.8828C3.95009 20.4651 3.71572 20.137 3.35156 19.8984C3.35719 19.8475 3.38844 19.8162 3.44531 19.8046C3.9695 19.6759 4.50075 19.6368 5.03906 19.6875C6.92062 19.9835 8.13938 21.0382 8.69531 22.8515Z" fill="#2780FF"/>
<path opacity="0.99" fill-rule="evenodd" clip-rule="evenodd" d="M7.52344 22.9921C7.31634 23.1188 7.09763 23.2282 6.86719 23.3202C6.38292 22.0302 5.44542 21.4521 4.05469 21.5858C4.05469 21.3514 4.05469 21.1171 4.05469 20.8827C5.72597 20.7492 6.88219 21.4523 7.52344 22.9921Z" fill="#1C87FF"/>
<path opacity="0.992" fill-rule="evenodd" clip-rule="evenodd" d="M4.05469 21.5857C5.44542 21.452 6.38292 22.0301 6.86719 23.3201C6.49237 23.4762 6.11737 23.6325 5.74219 23.7889C5.55614 22.9997 5.05613 22.6638 4.24219 22.781C4.19407 22.8051 4.14719 22.8285 4.10156 22.8514C4.10152 22.4288 4.0859 22.0069 4.05469 21.5857Z" fill="#148CFF"/>
<path opacity="0.977" fill-rule="evenodd" clip-rule="evenodd" d="M5.74193 23.7889C5.63257 23.8514 5.52317 23.9139 5.41381 23.9764C5.2107 23.9764 5.00754 23.9764 4.80443 23.9764C4.31149 23.7733 4.07712 23.3983 4.10131 22.8514C4.14693 22.8285 4.19381 22.8051 4.24193 22.7811C5.05587 22.6638 5.55588 22.9997 5.74193 23.7889Z" fill="#0993FF"/>
</g>
<defs>
<clipPath id="clip0_2600_2581">
<rect width="24" height="24" fill="white"/>
</clipPath>
</defs>
</svg>
