<svg width="40" height="40" viewBox="0 0 40 40" fill="none" xmlns="http://www.w3.org/2000/svg">
<g clip-path="url(#clip0_2030_7864)">
<path opacity="0.976" fill-rule="evenodd" clip-rule="evenodd" d="M10.8204 -0.0390625C11.4194 -0.0390625 12.0183 -0.0390625 12.6173 -0.0390625C12.9454 0.23578 13.0105 0.574322 12.8126 0.976562C12.754 1.02545 12.6888 1.06452 12.6173 1.09375C12.0183 1.14584 11.4194 1.14584 10.8204 1.09375C10.4088 0.716456 10.4088 0.338852 10.8204 -0.0390625Z" fill="#F9EDA4"/>
<path opacity="0.976" fill-rule="evenodd" clip-rule="evenodd" d="M27.3047 -0.0390625C27.9037 -0.0390625 28.5026 -0.0390625 29.1016 -0.0390625C29.5132 0.338852 29.5132 0.716456 29.1016 1.09375C28.5026 1.14584 27.9037 1.14584 27.3047 1.09375C27.0147 0.897422 26.9236 0.62398 27.0313 0.273438C27.0852 0.128888 27.1763 0.0247215 27.3047 -0.0390625Z" fill="#F9EDA4"/>
<path fill-rule="evenodd" clip-rule="evenodd" d="M12.3047 2.85156C12.3047 11.8099 12.3047 20.7682 12.3047 29.7266C11.2628 29.7396 10.221 29.7266 9.17971 29.6875C8.95096 29.5891 8.80775 29.4198 8.75002 29.1797C8.69791 20.5859 8.69791 11.9922 8.75002 3.39843C8.78174 3.1645 8.89893 2.99523 9.10158 2.89062C10.169 2.85157 11.2367 2.83854 12.3047 2.85156Z" fill="#F3D948"/>
<path opacity="0.974" fill-rule="evenodd" clip-rule="evenodd" d="M12.3047 2.85155C12.9823 2.83855 13.6594 2.85157 14.3359 2.89061C14.5392 2.96366 14.6564 3.10689 14.6875 3.3203C14.7396 11.9662 14.7396 20.6119 14.6875 29.2578C14.6224 29.4791 14.4791 29.6224 14.2578 29.6875C13.6073 29.7266 12.9563 29.7395 12.3047 29.7266C12.3047 20.7682 12.3047 11.8099 12.3047 2.85155Z" fill="#F8B348"/>
<path fill-rule="evenodd" clip-rule="evenodd" d="M28.7891 2.85156C28.7891 9.64843 28.7891 16.4453 28.7891 23.2422C27.7211 23.2552 26.6534 23.2422 25.586 23.2031C25.4742 23.1668 25.3831 23.1016 25.3126 23.0078C25.222 19.692 25.1829 16.3717 25.1954 13.0469C25.1829 9.72203 25.222 6.40172 25.3126 3.08593C25.3831 2.99207 25.4742 2.92697 25.586 2.89062C26.6534 2.85157 27.7211 2.83854 28.7891 2.85156Z" fill="#AE7DEF"/>
<path opacity="0.996" fill-rule="evenodd" clip-rule="evenodd" d="M28.7891 2.85155C29.4666 2.83855 30.1437 2.85157 30.8203 2.89061C31.0241 2.99829 31.1412 3.16757 31.1719 3.39843C31.224 9.83069 31.224 16.263 31.1719 22.6953C31.1411 22.9604 30.9979 23.1297 30.7422 23.2031C30.0916 23.2422 29.4406 23.2551 28.7891 23.2422C28.7891 16.4453 28.7891 9.64843 28.7891 2.85155Z" fill="#9255E3"/>
<path opacity="0.972" fill-rule="evenodd" clip-rule="evenodd" d="M35.664 4.02346C36.2438 3.99295 36.8167 4.03202 37.3828 4.14065C37.6408 4.43713 37.6799 4.76266 37.5 5.11721C37.4414 5.1661 37.3762 5.20516 37.3046 5.2344C37.0182 5.24742 36.7318 5.26044 36.4453 5.27346C36.0979 5.28158 35.7593 5.24252 35.4296 5.15627C35.08 4.69252 35.1582 4.31491 35.664 4.02346Z" fill="#F9EDA4"/>
<path opacity="0.997" fill-rule="evenodd" clip-rule="evenodd" d="M37.0703 6.99218C37.0703 13.4766 37.0703 19.9609 37.0703 26.4453C35.9763 26.4584 34.8825 26.4453 33.7891 26.4062C33.6459 26.3672 33.5547 26.276 33.5156 26.1328C33.4635 19.8568 33.4635 13.5807 33.5156 7.30468C33.5547 7.16146 33.6459 7.07031 33.7891 7.03125C34.8825 6.99219 35.9763 6.97917 37.0703 6.99218Z" fill="#3756BB"/>
<path opacity="0.983" fill-rule="evenodd" clip-rule="evenodd" d="M37.0703 6.99218C37.7219 6.97918 38.3729 6.9922 39.0234 7.03124C39.1927 7.09634 39.3099 7.21353 39.375 7.3828C39.4271 13.6068 39.4271 19.8307 39.375 26.0547C39.3137 26.1942 39.2226 26.3114 39.1016 26.4062C38.425 26.4453 37.7479 26.4583 37.0703 26.4453C37.0703 19.9609 37.0703 13.4766 37.0703 6.99218Z" fill="#373E9F"/>
<path opacity="0.945" fill-rule="evenodd" clip-rule="evenodd" d="M2.61708 7.30467C3.19059 7.29168 3.76351 7.3047 4.33583 7.34373C4.87628 7.7633 4.85023 8.15389 4.25771 8.51561C3.67849 8.58514 3.10558 8.55913 2.53896 8.43748C2.20962 8.02498 2.23567 7.64734 2.61708 7.30467Z" fill="#F9EDA4"/>
<path opacity="0.952" fill-rule="evenodd" clip-rule="evenodd" d="M19.1016 7.30467C19.6751 7.29168 20.248 7.3047 20.8204 7.34373C20.9636 7.3828 21.0547 7.47395 21.0938 7.61717C21.2285 8.02584 21.1113 8.32538 20.7422 8.51561C20.2214 8.56772 19.7006 8.56772 19.1797 8.51561C18.8107 8.32538 18.6935 8.02584 18.8282 7.61717C18.8821 7.47263 18.9732 7.36845 19.1016 7.30467Z" fill="#F9EDA4"/>
<path opacity="0.984" fill-rule="evenodd" clip-rule="evenodd" d="M4.10153 10.1953C4.10153 13.4506 4.10153 16.7057 4.10153 19.9609C3.00747 19.974 1.91372 19.9609 0.820279 19.9219C0.729133 19.8307 0.637987 19.7396 0.546841 19.6484C0.53382 18.1381 0.5208 16.6276 0.507779 15.1172C0.495624 13.5479 0.534686 11.9854 0.624966 10.4297C0.716458 10.3209 0.833646 10.2557 0.976529 10.2344C2.01787 10.1953 3.05954 10.1823 4.10153 10.1953Z" fill="#93E267"/>
<path opacity="0.991" fill-rule="evenodd" clip-rule="evenodd" d="M4.10156 10.1953C4.75313 10.1823 5.40416 10.1953 6.05469 10.2344C6.19422 10.2957 6.31141 10.3868 6.40625 10.5078C6.45834 13.5547 6.45834 16.6015 6.40625 19.6484C6.36719 19.7916 6.27604 19.8828 6.13281 19.9219C5.45623 19.9609 4.77915 19.9739 4.10156 19.9609C4.10156 16.7057 4.10156 13.4505 4.10156 10.1953Z" fill="#61CE5A"/>
<path opacity="0.99" fill-rule="evenodd" clip-rule="evenodd" d="M20.586 10.1953C20.586 19.1537 20.586 28.112 20.586 37.0703C19.5179 37.0834 18.4503 37.0703 17.3828 37.0313C17.2433 36.9699 17.1261 36.8788 17.0313 36.7578C16.9792 28.0338 16.9792 19.3099 17.0313 10.5859C17.1043 10.3827 17.2475 10.2655 17.461 10.2344C18.5023 10.1953 19.544 10.1823 20.586 10.1953Z" fill="#FF8A46"/>
<path opacity="0.987" fill-rule="evenodd" clip-rule="evenodd" d="M20.5859 10.1953C21.2955 10.163 21.9986 10.202 22.6953 10.3125C22.7891 10.383 22.8543 10.4741 22.8906 10.5859C22.9427 19.3099 22.9427 28.0338 22.8906 36.7578C22.7958 36.8788 22.6786 36.9699 22.5391 37.0312C21.8885 37.0703 21.2375 37.0833 20.5859 37.0703C20.5859 28.112 20.5859 19.1537 20.5859 10.1953Z" fill="#FF6533"/>
<path opacity="0.957" fill-rule="evenodd" clip-rule="evenodd" d="M2.69537 21.6797C3.24286 21.6667 3.78973 21.6797 4.33599 21.7187C4.85683 22.1094 4.85683 22.5 4.33599 22.8906C3.78912 22.9427 3.24224 22.9427 2.69537 22.8906C2.32632 22.7004 2.20913 22.4008 2.3438 21.9922C2.45293 21.8695 2.57012 21.7653 2.69537 21.6797Z" fill="#F9EDA3"/>
<path opacity="0.975" fill-rule="evenodd" clip-rule="evenodd" d="M27.539 24.8828C28.0669 24.8533 28.5877 24.8924 29.1015 25C29.5181 25.3646 29.5181 25.7291 29.1015 26.0937C28.5025 26.1458 27.9036 26.1458 27.3046 26.0937C26.9545 25.8043 26.9023 25.4658 27.1484 25.0781C27.2902 25.019 27.4203 24.9539 27.539 24.8828Z" fill="#F9EDA4"/>
<path opacity="0.941" fill-rule="evenodd" clip-rule="evenodd" d="M35.586 28.164C36.1595 28.1511 36.7324 28.164 37.3048 28.2031C37.5999 28.434 37.6909 28.7334 37.5782 29.1015C37.4834 29.2226 37.3662 29.3136 37.2267 29.375C36.7058 29.4271 36.185 29.4271 35.6642 29.375C35.0666 29.0044 35.0406 28.6008 35.586 28.164Z" fill="#F9EDA4"/>
<path opacity="0.946" fill-rule="evenodd" clip-rule="evenodd" d="M10.9765 31.3672C11.5563 31.3367 12.1292 31.3757 12.6953 31.4844C13.0296 31.8776 13.0036 32.2422 12.6172 32.5782C12.0182 32.6303 11.4193 32.6303 10.8203 32.5782C10.3822 32.1015 10.4343 31.6978 10.9765 31.3672Z" fill="#F9EDA4"/>
<path opacity="0.989" fill-rule="evenodd" clip-rule="evenodd" d="M20.8985 39.961C20.2735 39.961 19.6485 39.961 19.0235 39.961C18.7139 39.5833 18.7139 39.2056 19.0235 38.8281C19.6485 38.776 20.2735 38.776 20.8985 38.8281C21.2081 39.2056 21.2081 39.5833 20.8985 39.961Z" fill="#F9EDA3"/>
</g>
<defs>
<clipPath id="clip0_2030_7864">
<rect width="40" height="40" fill="white"/>
</clipPath>
</defs>
</svg>
