<svg width="42" height="41" viewBox="0 0 42 41" fill="none" xmlns="http://www.w3.org/2000/svg">
<g clip-path="url(#clip0_348_2148)">
<path opacity="0.996" fill-rule="evenodd" clip-rule="evenodd" d="M23.8167 2.20214C19.2334 6.65589 14.6995 11.167 10.2149 15.7353C8.61442 15.2885 7.48098 15.8223 6.81451 17.3369C6.5726 18.3853 6.82596 19.2929 7.57461 20.0596C7.51549 20.0491 7.46214 20.0624 7.41459 20.0996C5.47822 22.0509 3.53131 23.9862 1.57383 25.9053C1.52808 24.9402 1.43473 23.9792 1.29379 23.0225C1.03279 21.6239 0.779423 20.2359 0.533691 18.8584C0.533691 17.7907 0.533691 16.723 0.533691 15.6553C1.36124 9.26207 4.69501 4.71095 10.535 2.00195C15.0003 0.19639 19.4275 0.263122 23.8167 2.20214Z" fill="#61E0FB"/>
<path opacity="0.999" fill-rule="evenodd" clip-rule="evenodd" d="M23.8164 2.20215C24.2151 2.34833 24.5885 2.53519 24.9365 2.7627C24.8523 2.75072 24.7723 2.76407 24.6965 2.80273C20.1731 7.31657 15.6659 11.841 11.1747 16.376C10.8764 16.131 10.5564 15.9174 10.2146 15.7354C14.6991 11.167 19.2331 6.65589 23.8164 2.20215Z" fill="#5FDFFA"/>
<path opacity="0.999" fill-rule="evenodd" clip-rule="evenodd" d="M24.9365 2.76267C25.4272 2.9681 25.8805 3.23503 26.2966 3.56345C21.6788 8.26532 17.0115 12.9098 12.2948 17.497C12.031 17.2731 11.7776 17.0329 11.5347 16.7763C11.5028 16.7946 11.4895 16.8213 11.4947 16.8564C11.3593 16.7199 11.2527 16.5597 11.1747 16.3759C15.6658 11.841 20.1731 7.31654 24.6964 2.80271C24.7723 2.76405 24.8523 2.7507 24.9365 2.76267Z" fill="#5ADCFA"/>
<path opacity="0.999" fill-rule="evenodd" clip-rule="evenodd" d="M26.2967 3.56348C26.8625 3.95294 27.3959 4.38003 27.8969 4.84473C24.2632 8.36144 20.6627 11.9249 17.0955 15.5352C17.1688 15.5574 17.2221 15.5975 17.2556 15.6553C15.6713 15.3354 14.5911 15.9227 14.0151 17.417C13.9229 18.0783 13.9896 18.7189 14.2152 19.3389C13.8198 19.0503 13.4464 18.73 13.095 18.3779C12.8284 18.0843 12.5616 17.7907 12.2949 17.4971C17.0116 12.9099 21.6789 8.26534 26.2967 3.56348Z" fill="#55D8F9"/>
<path opacity="0.999" fill-rule="evenodd" clip-rule="evenodd" d="M27.8969 4.84473C28.4569 5.24512 28.937 5.72559 29.337 6.28613C25.8166 9.7829 22.2961 13.2796 18.7757 16.7764C18.7483 16.7093 18.695 16.6825 18.6157 16.6963C18.2633 16.2134 17.81 15.8664 17.2555 15.6553C17.222 15.5975 17.1687 15.5574 17.0955 15.5352C20.6626 11.9249 24.2631 8.36144 27.8969 4.84473Z" fill="#4DD3F9"/>
<path opacity="0.998" fill-rule="evenodd" clip-rule="evenodd" d="M29.3371 6.28613C29.7421 6.66481 30.0887 7.09189 30.3773 7.56738C26.9263 10.9813 23.4858 14.4113 20.0559 17.8574C20.0084 17.8946 19.955 17.908 19.8959 17.8975C19.4959 17.5505 19.1224 17.1768 18.7758 16.7764C22.2962 13.2796 25.8167 9.7829 29.3371 6.28613Z" fill="#47D0F9"/>
<path opacity="0.998" fill-rule="evenodd" clip-rule="evenodd" d="M30.3772 7.56738C30.8184 8.06387 31.1651 8.62441 31.4174 9.24902C29.2733 11.4351 27.113 13.6105 24.9365 15.7754C24.981 15.8061 25.0077 15.8461 25.0165 15.8955C23.3451 15.1911 22.105 15.6449 21.2961 17.2568C21.0786 18.0741 21.172 18.8481 21.5761 19.5791C21.2827 19.3122 20.9894 19.0452 20.696 18.7783C20.4293 18.4847 20.1625 18.1911 19.8959 17.8975C19.955 17.908 20.0084 17.8946 20.0559 17.8574C23.4858 14.4113 26.9262 10.9813 30.3772 7.56738Z" fill="#43CCF8"/>
<path opacity="0.997" fill-rule="evenodd" clip-rule="evenodd" d="M31.4174 9.24902C31.714 9.62915 31.9274 10.0563 32.0574 10.5303C29.975 12.5878 27.8947 14.6432 25.8166 16.6963C25.5766 16.4026 25.3099 16.1357 25.0165 15.8955C25.0077 15.8461 24.981 15.8061 24.9365 15.7754C27.113 13.6105 29.2732 11.4351 31.4174 9.24902Z" fill="#3CC8F8"/>
<path opacity="0.996" fill-rule="evenodd" clip-rule="evenodd" d="M32.0575 10.5303C32.5458 11.5162 32.8925 12.5572 33.0976 13.6533C33.0482 13.6444 33.0082 13.6178 32.9776 13.5732C31.2906 15.3018 29.5703 16.9834 27.8169 18.6182C27.233 18.0739 26.6596 17.5133 26.0967 16.9365C26.0596 16.9841 26.0462 17.0375 26.0567 17.0967C25.9577 16.9794 25.8777 16.8459 25.8167 16.6963C27.8948 14.6432 29.975 12.5878 32.0575 10.5303Z" fill="#35C4F7"/>
<path opacity="0.999" fill-rule="evenodd" clip-rule="evenodd" d="M33.0976 13.6533C33.1604 13.8034 33.2138 13.9635 33.2576 14.1338C33.2226 14.1286 33.1958 14.1419 33.1776 14.1738C33.282 14.7154 33.362 15.2627 33.4176 15.8154C33.3562 15.7543 33.3162 15.6743 33.2976 15.5752C31.8813 17.006 30.4544 18.4208 29.0171 19.8193C28.7148 19.5099 28.3947 19.2163 28.0569 18.9385C27.9769 18.8317 27.8969 18.7249 27.8169 18.6182C29.5703 16.9834 31.2905 15.3018 32.9776 13.5732C33.0082 13.6178 33.0482 13.6444 33.0976 13.6533Z" fill="#2EBFF6"/>
<path fill-rule="evenodd" clip-rule="evenodd" d="M33.2576 14.1338C33.8562 14.3665 34.4163 14.6601 34.9378 15.0146C35.0021 15.0886 35.0155 15.1686 34.9778 15.2549C34.495 15.7516 34.0016 16.2321 33.4977 16.6963C33.5038 16.3988 33.4772 16.1052 33.4176 15.8154C33.362 15.2626 33.282 14.7154 33.1776 14.1738C33.1959 14.1419 33.2226 14.1286 33.2576 14.1338Z" fill="#3DBF92"/>
<path fill-rule="evenodd" clip-rule="evenodd" d="M10.2146 15.7353C10.5565 15.9174 10.8765 16.131 11.1748 16.376C11.2528 16.5597 11.3594 16.7199 11.4948 16.8564C12.0717 18.2174 11.7783 19.3518 10.6147 20.2598C9.77755 20.6885 8.92408 20.7285 8.05437 20.3799C7.91796 20.2444 7.75794 20.1376 7.5743 20.0596C6.82565 19.2929 6.57229 18.3853 6.81421 17.3369C7.48068 15.8223 8.61412 15.2885 10.2146 15.7353Z" fill="#FEFEFE"/>
<path fill-rule="evenodd" clip-rule="evenodd" d="M17.2555 15.6553C17.81 15.8664 18.2634 16.2134 18.6157 16.6963C19.2695 18.0152 19.0562 19.1763 17.9756 20.1797C17.099 20.6803 16.1923 20.7471 15.2553 20.3799C14.8852 20.143 14.5651 19.8494 14.2952 19.499C14.3089 19.4196 14.2822 19.3662 14.2152 19.3389C13.9896 18.7189 13.9229 18.0783 14.0151 17.417C14.5911 15.9226 15.6713 15.3354 17.2555 15.6553Z" fill="#FEFEFE"/>
<path fill-rule="evenodd" clip-rule="evenodd" d="M25.0165 15.8956C25.3099 16.1358 25.5766 16.4027 25.8166 16.6963C25.8776 16.8459 25.9576 16.9794 26.0566 17.0967C26.4948 18.6615 25.9881 19.7959 24.5364 20.5C23.7844 20.7107 23.0643 20.644 22.3761 20.2999C22.0596 20.1166 21.7929 19.8764 21.576 19.5791C21.1719 18.8482 21.0785 18.0742 21.296 17.2569C22.1049 15.6449 23.3451 15.1911 25.0165 15.8956Z" fill="#FEFEFE"/>
<path fill-rule="evenodd" clip-rule="evenodd" d="M33.4177 15.8154C33.4772 16.1052 33.5038 16.3988 33.4977 16.6963C33.5169 17.1549 33.4902 17.6087 33.4177 18.0576C32.3803 19.0558 31.3536 20.0701 30.3373 21.1006C29.859 20.7154 29.419 20.2884 29.0171 19.8193C30.4545 18.4208 31.8814 17.006 33.2976 15.5752C33.3162 15.6743 33.3562 15.7543 33.4177 15.8154Z" fill="#29BCF5"/>
<path fill-rule="evenodd" clip-rule="evenodd" d="M34.9378 15.0146C35.3892 15.2406 35.8159 15.5075 36.218 15.8154C36.2873 15.9471 36.3273 16.0806 36.338 16.2158C35.3751 17.1929 34.4016 18.1539 33.4176 19.0986C33.4176 18.7517 33.4176 18.4046 33.4176 18.0576C33.4902 17.6087 33.5168 17.1549 33.4976 16.6963C34.0015 16.2321 34.4949 15.7516 34.9778 15.2549C35.0154 15.1686 35.002 15.0886 34.9378 15.0146Z" fill="#55CC9E"/>
<path fill-rule="evenodd" clip-rule="evenodd" d="M36.218 15.8154C36.5881 16.0523 36.9082 16.3459 37.1781 16.6963C35.8713 18.0848 34.5378 19.3928 33.1776 20.6201C33.2083 20.0949 33.2883 19.5877 33.4176 19.0986C34.4016 18.1539 35.3751 17.1929 36.338 16.2158C36.3273 16.0806 36.2873 15.9471 36.218 15.8154Z" fill="#64D4A6"/>
<path fill-rule="evenodd" clip-rule="evenodd" d="M37.1781 16.6963C37.4982 16.8564 37.7382 17.0967 37.8982 17.417C37.8913 17.4967 37.9181 17.5635 37.9782 17.6172C36.1713 19.4659 34.331 21.2676 32.4575 23.0225C32.6663 22.4489 32.8263 21.8616 32.9376 21.2607C32.9977 21.0408 33.0777 20.8273 33.1776 20.6201C34.5378 19.3928 35.8713 18.0848 37.1781 16.6963Z" fill="#70DBAC"/>
<path fill-rule="evenodd" clip-rule="evenodd" d="M27.8169 18.6182C27.8969 18.7249 27.9769 18.8317 28.0569 18.9385C26.9409 20.1889 25.7675 21.3901 24.5364 22.542C24.4298 22.4619 24.323 22.3818 24.2164 22.3018C23.7363 21.7679 23.2296 21.2607 22.6962 20.7803C22.5794 20.6231 22.446 20.4763 22.2961 20.3398C22.3144 20.3079 22.3411 20.2946 22.3762 20.2998C23.0643 20.644 23.7844 20.7107 24.5364 20.5C25.9881 19.7959 26.4948 18.6614 26.0566 17.0967C26.0461 17.0375 26.0595 16.9841 26.0966 16.9365C26.6595 17.5133 27.2329 18.0739 27.8169 18.6182Z" fill="#25B3F1"/>
<path fill-rule="evenodd" clip-rule="evenodd" d="M18.6157 16.6963C18.6951 16.6825 18.7483 16.7092 18.7757 16.7763C19.1224 17.1767 19.4958 17.5505 19.8959 17.8974C20.1625 18.1911 20.4293 18.4846 20.696 18.7783C20.6368 18.7678 20.5835 18.7812 20.5359 18.8183C19.4715 19.9638 18.378 21.0849 17.2555 22.1816C17.1797 22.2203 17.0996 22.2336 17.0155 22.2217C16.3475 21.6344 15.7608 21.0204 15.2552 20.3799C16.1923 20.7471 17.099 20.6803 17.9756 20.1797C19.0561 19.1763 19.2695 18.0151 18.6157 16.6963Z" fill="#30BAF2"/>
<path fill-rule="evenodd" clip-rule="evenodd" d="M33.4176 18.0576C33.4176 18.4046 33.4176 18.7517 33.4176 19.0986C33.2883 19.5877 33.2083 20.0949 33.1775 20.6201C33.0776 20.8273 32.9976 21.0408 32.9375 21.2607C32.948 21.2016 32.9346 21.1482 32.8975 21.1006C28.8407 25.1206 24.8534 29.1512 20.936 33.1924C20.936 33.219 20.936 33.2458 20.936 33.2725C20.5051 33.332 20.0784 33.4121 19.6558 33.5127C19.0466 33.6098 18.4332 33.6632 17.8156 33.6729C20.7599 30.686 23.7202 27.7098 26.6967 24.7441C26.2805 24.3141 25.8538 23.9004 25.4165 23.5029C25.1231 23.1826 24.8298 22.8623 24.5364 22.542C25.7675 21.3901 26.9409 20.1889 28.0569 18.9385C28.3947 19.2163 28.7147 19.5099 29.017 19.8193C29.4189 20.2884 29.859 20.7154 30.3372 21.1006C31.3535 20.0701 32.3802 19.0558 33.4176 18.0576Z" fill="#22B7F5"/>
<path fill-rule="evenodd" clip-rule="evenodd" d="M12.2949 17.4971C12.5616 17.7907 12.8284 18.0843 13.095 18.3779C11.9441 19.61 10.7439 20.7844 9.49456 21.9014C9.22789 21.6611 8.96113 21.4209 8.69446 21.1807C8.47078 20.9166 8.23075 20.663 7.97437 20.4199C7.99264 20.388 8.01932 20.3747 8.05438 20.3799C8.92409 20.7285 9.77756 20.6885 10.6147 20.2598C11.7783 19.3518 12.0717 18.2174 11.4948 16.8564C11.4896 16.8214 11.5029 16.7946 11.5348 16.7764C11.7777 17.0329 12.0311 17.2732 12.2949 17.4971Z" fill="#3BC0F3"/>
<path fill-rule="evenodd" clip-rule="evenodd" d="M37.8982 17.417C38.3085 17.8108 38.6819 18.2379 39.0183 18.6982C32.701 24.9809 26.4068 31.267 20.1359 37.5566C20.0883 37.5938 20.035 37.6072 19.9758 37.5967C19.711 37.438 19.471 37.2511 19.2557 37.0361C19.3615 37.0225 19.4549 37.0492 19.5358 37.1162C21.1493 35.5013 22.7628 33.8864 24.3764 32.2715C24.3169 32.1883 24.2369 32.1482 24.1364 32.1514C28.0472 30.1585 30.8209 27.1156 32.4575 23.0225C34.331 21.2676 36.1712 19.4659 37.9782 17.6172C37.918 17.5635 37.8913 17.4967 37.8982 17.417Z" fill="#7EE2B3"/>
<path fill-rule="evenodd" clip-rule="evenodd" d="M13.095 18.3779C13.4464 18.73 13.8197 19.0503 14.2151 19.3389C14.2822 19.3663 14.3089 19.4196 14.2951 19.499C14.2882 19.5788 14.315 19.6455 14.3751 19.6992C13.2081 20.9074 12.008 22.0686 10.7747 23.1826C10.5346 22.969 10.2946 22.7556 10.0546 22.542C9.86792 22.3284 9.68117 22.1149 9.49451 21.9014C10.7439 20.7844 11.944 19.61 13.095 18.3779Z" fill="#3BC4F4"/>
<path opacity="0.998" fill-rule="evenodd" clip-rule="evenodd" d="M39.0183 18.6982C39.2123 18.9456 39.3723 19.2125 39.4984 19.499C33.2081 25.6611 26.9673 31.8805 20.7759 38.1572C20.4782 38.0088 20.2115 37.8219 19.9758 37.5967C20.035 37.6072 20.0883 37.5938 20.1359 37.5566C26.4068 31.267 32.701 24.9809 39.0183 18.6982Z" fill="#85E6B6"/>
<path fill-rule="evenodd" clip-rule="evenodd" d="M20.696 18.7784C20.9894 19.0453 21.2827 19.3122 21.5761 19.5791C21.793 19.8764 22.0597 20.1166 22.3762 20.2998C22.3412 20.2946 22.3144 20.3079 22.2962 20.3399C22.446 20.4763 22.5794 20.6231 22.6962 20.7803C21.5656 21.952 20.4187 23.1132 19.2558 24.2637C19.2024 24.3171 19.1491 24.3171 19.0958 24.2637C18.9994 24.1535 18.8927 24.0602 18.7757 23.9834C18.4023 23.6365 18.029 23.2894 17.6556 22.9424C17.4422 22.7022 17.2289 22.462 17.0155 22.2217C17.0997 22.2337 17.1797 22.2204 17.2555 22.1817C18.378 21.085 19.4715 19.9639 20.536 18.8184C20.5835 18.7812 20.6369 18.7679 20.696 18.7784Z" fill="#30BFF5"/>
<path opacity="0.998" fill-rule="evenodd" clip-rule="evenodd" d="M14.2951 19.499C14.5651 19.8494 14.8851 20.143 15.2553 20.3799C15.7608 21.0204 16.3475 21.6344 17.0155 22.2217C17.2289 22.4619 17.4422 22.7021 17.6556 22.9424C17.6661 23.0016 17.6527 23.055 17.6156 23.1025C14.4391 26.2684 11.2787 29.4448 8.13435 32.6318C6.96086 32.6318 5.78738 32.6318 4.61389 32.6318C4.86524 32.5661 5.13194 32.5261 5.414 32.5117C7.84097 30.0827 10.268 27.6536 12.6949 25.2246C12.3346 24.7706 11.9345 24.3568 11.4948 23.9834C11.2548 23.7165 11.0147 23.4495 10.7747 23.1826C12.008 22.0686 13.2081 20.9074 14.3752 19.6992C14.315 19.6455 14.2883 19.5788 14.2951 19.499Z" fill="#41CBF8"/>
<path opacity="0.998" fill-rule="evenodd" clip-rule="evenodd" d="M7.57427 20.0596C7.75791 20.1377 7.91793 20.2444 8.05433 20.3799C8.01927 20.3747 7.99259 20.388 7.97432 20.42C8.2307 20.6631 8.47073 20.9167 8.69441 21.1807C6.37411 23.5564 4.02714 25.9053 1.6535 28.2276C1.6561 27.4522 1.62943 26.6781 1.57349 25.9053C3.53096 23.9862 5.47788 22.051 7.41425 20.0997C7.4618 20.0625 7.51515 20.0491 7.57427 20.0596Z" fill="#5ADCFA"/>
<path opacity="0.998" fill-rule="evenodd" clip-rule="evenodd" d="M22.6962 20.7803C23.2297 21.2607 23.7364 21.7679 24.2164 22.3018C20.6188 25.9425 17.0049 29.5728 13.375 33.1924C13.3379 33.2399 13.3246 33.2934 13.335 33.3525C12.4088 33.1511 11.4754 32.991 10.5347 32.8721C13.3456 30.0187 16.1726 27.176 19.0158 24.3438C18.8845 24.2533 18.8045 24.1332 18.7757 23.9834C18.8927 24.0601 18.9994 24.1535 19.0958 24.2637C19.1491 24.3171 19.2024 24.3171 19.2558 24.2637C20.4188 23.1131 21.5656 21.952 22.6962 20.7803Z" fill="#34C3F7"/>
<path fill-rule="evenodd" clip-rule="evenodd" d="M39.4984 19.499C40.0574 20.3732 40.5107 21.3075 40.8586 22.3018C40.7995 22.2913 40.7461 22.3046 40.6986 22.3418C35.0018 28.0568 29.2943 33.7557 23.5764 39.4385C22.5717 39.1625 21.6383 38.7355 20.776 38.1572C26.9674 31.8805 33.2082 25.6611 39.4984 19.499Z" fill="#8DEABB"/>
<path opacity="0.998" fill-rule="evenodd" clip-rule="evenodd" d="M8.69448 21.1807C8.96115 21.4209 9.22791 21.6611 9.49458 21.9014C9.68125 22.1149 9.86799 22.3284 10.0547 22.542C7.31042 25.3286 4.55006 28.1046 1.77358 30.8701C1.75831 31.0469 1.7183 31.2071 1.65356 31.3506C1.65356 30.3096 1.65356 29.2686 1.65356 28.2275C4.02721 25.9053 6.37418 23.5563 8.69448 21.1807Z" fill="#54D8F9"/>
<path fill-rule="evenodd" clip-rule="evenodd" d="M32.9376 21.2607C32.8263 21.8616 32.6663 22.4489 32.4575 23.0225C30.821 27.1156 28.0473 30.1585 24.1365 32.1514C23.1123 32.6265 22.0455 32.9735 20.936 33.1924C24.8535 29.1512 28.8407 25.1206 32.8976 21.1006C32.9347 21.1482 32.9481 21.2016 32.9376 21.2607Z" fill="#1CB4F4"/>
<path opacity="0.998" fill-rule="evenodd" clip-rule="evenodd" d="M24.2164 22.3018C24.3231 22.3818 24.4298 22.4619 24.5365 22.542C24.8299 22.8623 25.1232 23.1826 25.4166 23.5029C22.0028 26.8662 18.6157 30.2562 15.2552 33.6729C14.6058 33.6176 13.9657 33.5108 13.335 33.3525C13.3245 33.2934 13.3379 33.2399 13.375 33.1924C17.0049 29.5728 20.6187 25.9425 24.2164 22.3018Z" fill="#2EBFF7"/>
<path opacity="0.998" fill-rule="evenodd" clip-rule="evenodd" d="M40.8587 22.3018C41.0836 23.0685 41.2702 23.8427 41.4187 24.6241C36.1953 29.7185 31.0213 34.8701 25.8967 40.0791C25.0933 39.9517 24.3199 39.7382 23.5764 39.4385C29.2944 33.7558 35.0018 28.0569 40.6986 22.3418C40.7462 22.3047 40.7995 22.2913 40.8587 22.3018Z" fill="#8BE9B9"/>
<path opacity="0.997" fill-rule="evenodd" clip-rule="evenodd" d="M17.6556 22.9424C18.029 23.2894 18.4024 23.6364 18.7758 23.9834C18.8045 24.1332 18.8845 24.2533 19.0158 24.3438C16.1726 27.176 13.3456 30.0187 10.5347 32.8721C9.73565 32.7769 8.93554 32.6968 8.1344 32.6318C11.2787 29.4448 14.4391 26.2684 17.6156 23.1025C17.6528 23.055 17.6661 23.0016 17.6556 22.9424Z" fill="#3BC8F8"/>
<path opacity="0.998" fill-rule="evenodd" clip-rule="evenodd" d="M10.0547 22.542C10.2947 22.7556 10.5347 22.969 10.7748 23.1826C11.0148 23.4495 11.2548 23.7165 11.4948 23.9834C11.5053 24.0426 11.492 24.096 11.4548 24.1436C8.62503 26.9624 5.81132 29.7919 3.01374 32.6318C2.14384 32.6419 1.69044 32.2149 1.65356 31.3506C1.7183 31.2071 1.75831 31.0469 1.77358 30.8701C4.55006 28.1046 7.31042 25.3286 10.0547 22.542Z" fill="#4DD3F9"/>
<path opacity="0.998" fill-rule="evenodd" clip-rule="evenodd" d="M25.4166 23.5029C25.8538 23.9004 26.2805 24.3141 26.6967 24.7441C23.7203 27.7098 20.7599 30.686 17.8156 33.6729C17.367 33.7455 16.9136 33.7721 16.4554 33.7529C16.0532 33.7527 15.6531 33.726 15.2552 33.6729C18.6157 30.2562 22.0028 26.8662 25.4166 23.5029Z" fill="#28BCF5"/>
<path opacity="0.997" fill-rule="evenodd" clip-rule="evenodd" d="M11.4948 23.9834C11.9345 24.3568 12.3346 24.7706 12.6949 25.2246C10.268 27.6536 7.84096 30.0827 5.41398 32.5117C5.13193 32.5261 4.86522 32.5661 4.61388 32.6318C4.08047 32.6318 3.54708 32.6318 3.01367 32.6318C5.81125 29.7919 8.62496 26.9624 11.4548 24.1436C11.4919 24.096 11.5053 24.0426 11.4948 23.9834Z" fill="#47D0F8"/>
<path opacity="0.997" fill-rule="evenodd" clip-rule="evenodd" d="M41.4186 24.624C41.3945 24.8289 41.4212 25.0158 41.4986 25.1846C41.4986 25.4782 41.4986 25.7718 41.4986 26.0654C36.778 30.7366 32.084 35.4346 27.4168 40.1592C26.9082 40.1611 26.4015 40.1344 25.8966 40.0791C31.0212 34.8701 36.1951 29.7184 41.4186 24.624Z" fill="#88E8B6"/>
<path opacity="0.997" fill-rule="evenodd" clip-rule="evenodd" d="M41.4987 26.0654C41.4987 26.7061 41.4987 27.3467 41.4987 27.9873C41.4493 27.9784 41.4093 27.9518 41.3787 27.9072C37.2914 31.9578 33.2509 36.0418 29.2571 40.1592C28.64 40.2187 28.0265 40.2187 27.4169 40.1592C32.0841 35.4346 36.7781 30.7366 41.4987 26.0654Z" fill="#84E7B4"/>
<path opacity="0.995" fill-rule="evenodd" clip-rule="evenodd" d="M41.4987 27.9873C41.4987 28.0407 41.4987 28.094 41.4987 28.1475C41.24 29.4157 41 30.697 40.7786 31.9912C38.2716 34.447 35.7913 36.9294 33.3376 39.4385C31.9818 39.6908 30.6216 39.931 29.2571 40.1592C33.2509 36.0418 37.2914 31.9578 41.3787 27.9072C41.4093 27.9517 41.4493 27.9784 41.4987 27.9873Z" fill="#80E5B1"/>
<path opacity="0.999" fill-rule="evenodd" clip-rule="evenodd" d="M24.1364 32.1514C24.2369 32.1483 24.3169 32.1883 24.3764 32.2715C22.7629 33.8865 21.1494 35.5013 19.5358 37.1163C19.4549 37.0492 19.3615 37.0226 19.2558 37.0362C18.8322 36.7457 18.4588 36.3988 18.1356 35.9952C18.2434 36.0374 18.3501 36.0508 18.4557 36.0352C19.3624 35.1277 20.2693 34.2201 21.176 33.3125C21.1002 33.2739 21.0202 33.2606 20.936 33.2725C20.936 33.2458 20.936 33.2191 20.936 33.1924C22.0455 32.9736 23.1123 32.6265 24.1364 32.1514Z" fill="#76DEAF"/>
<path opacity="0.988" fill-rule="evenodd" clip-rule="evenodd" d="M40.7786 31.9912C40.6497 33.2955 40.5963 34.6034 40.6186 35.915C39.6281 37.0268 38.5879 38.1079 37.4982 39.1582C37.269 39.1729 37.0556 39.2129 36.8581 39.2783C35.6812 39.2657 34.5077 39.319 33.3376 39.4385C35.7913 36.9294 38.2716 34.447 40.7786 31.9912Z" fill="#7AE3AC"/>
<path fill-rule="evenodd" clip-rule="evenodd" d="M20.9361 33.2724C21.0202 33.2605 21.1002 33.2738 21.1761 33.3125C20.2693 34.22 19.3625 35.1276 18.4557 36.0351C18.3502 36.0507 18.2435 36.0374 18.1357 35.9951C17.9575 35.8264 17.7975 35.6395 17.6556 35.4345C17.7655 35.4471 17.8722 35.4337 17.9757 35.3945C18.5838 34.7997 19.1438 34.1725 19.6559 33.5127C20.0785 33.4121 20.5052 33.332 20.9361 33.2724Z" fill="#68D6A8"/>
<path fill-rule="evenodd" clip-rule="evenodd" d="M19.6559 33.5127C19.1438 34.1725 18.5837 34.7998 17.9756 35.3945C17.8722 35.4338 17.7655 35.4471 17.6556 35.4346C17.163 34.9414 16.7629 34.3808 16.4554 33.7529C16.9137 33.7721 17.3671 33.7455 17.8156 33.6729C18.4332 33.6632 19.0467 33.6098 19.6559 33.5127Z" fill="#5BCFA1"/>
<path opacity="0.95" fill-rule="evenodd" clip-rule="evenodd" d="M40.6185 35.915C40.6319 36.7963 40.6185 37.6772 40.5785 38.5576C40.4936 38.8028 40.347 39.003 40.1385 39.1582C39.0509 39.274 37.9574 39.314 36.858 39.2783C37.0556 39.2129 37.2689 39.1729 37.4981 39.1582C38.5879 38.1079 39.628 37.0268 40.6185 35.915Z" fill="#74E1A7"/>
</g>
<defs>
<clipPath id="clip0_348_2148">
<rect width="40.9653" height="41" fill="white" transform="translate(0.573364)"/>
</clipPath>
</defs>
</svg>
