<svg width="25" height="25" viewBox="0 0 25 25" fill="none" xmlns="http://www.w3.org/2000/svg">
<path d="M8.21094 8.30566C8.21094 9.68419 8.66287 11.0063 9.46732 11.981C10.2718 12.9558 11.3628 13.5034 12.5005 13.5034C13.6381 13.5034 14.7292 12.9558 15.5337 11.981C16.3381 11.0063 16.79 9.68419 16.79 8.30566C16.79 6.92713 16.3381 5.60506 15.5337 4.6303C14.7292 3.65553 13.6381 3.10791 12.5005 3.10791C11.3628 3.10791 10.2718 3.65553 9.46732 4.6303C8.66287 5.60506 8.21094 6.92713 8.21094 8.30566Z" fill="white"/>
<path d="M12.5005 14.0308C11.1943 14.0308 9.97363 13.4229 9.06055 12.3169C8.17187 11.2402 7.68359 9.8169 7.68359 8.30566C7.68359 6.79443 8.17187 5.37109 9.06055 4.29443C9.97363 3.18848 11.1943 2.58057 12.5005 2.58057C13.8066 2.58057 15.0273 3.18848 15.9404 4.29443C16.8291 5.37109 17.3174 6.79443 17.3174 8.30566C17.3174 9.8169 16.8291 11.2402 15.9404 12.3169C15.0273 13.4229 13.8066 14.0308 12.5005 14.0308ZM12.5005 3.6377C10.4253 3.6377 8.73828 5.73242 8.73828 8.30811C8.73828 10.8838 10.4253 12.9785 12.5005 12.9785C14.5757 12.9785 16.2627 10.8838 16.2627 8.30811C16.2627 5.73242 14.5757 3.6377 12.5005 3.6377Z" fill="#575757" fill-opacity="0.7"/>
<path d="M22.9468 19.1016C22.9468 20.7031 20.3198 21.8896 12.5 21.8896C6.64307 21.8896 2.05322 20.835 2.05322 19.4116C2.05322 16.9971 6.79932 15.0391 12.6563 15.0391H12.3413C18.1982 15.0391 22.9443 16.9971 22.9443 19.4116C22.9443 20.8374 18.3545 21.8896 12.4976 21.8896C4.68018 21.8896 2.05078 20.7031 2.05078 19.1016" fill="white"/>
<path d="M12.4995 22.417C8.76904 22.417 5.97363 22.1436 4.19141 21.6016C3.31738 21.3354 2.67529 21.0083 2.23096 20.603C1.76465 20.1758 1.52539 19.6704 1.52539 19.1016C1.52539 18.811 1.76221 18.5742 2.05273 18.5742C2.34326 18.5742 2.58008 18.811 2.58008 19.1016C2.58008 19.7046 3.22461 20.2051 4.49658 20.5908C6.17871 21.1035 8.87158 21.3623 12.4995 21.3623C12.79 21.3623 13.0269 21.5991 13.0269 21.8896C13.0269 22.1802 12.79 22.417 12.4995 22.417Z" fill="#575757" fill-opacity="0.7"/>
<path d="M2.63135 20.2539C3.77148 21.2402 6.71338 21.8896 12.4995 21.8896C12.6777 21.8896 12.8511 21.8896 13.0244 21.8872C8.09521 20.3687 5.87598 20.3198 4.12549 16.814C2.96094 17.4634 2.22363 18.2495 2.07959 19.1016H2.05273C2.05273 19.1504 2.05518 19.2017 2.06006 19.2505C2.05518 19.3042 2.05273 19.3555 2.05273 19.4092C2.05273 19.7095 2.25781 19.9927 2.63135 20.2539Z" fill="white"/>
<path d="M12.4995 22.417C9.61133 22.417 6.93311 22.1606 4.96045 21.6968C3.95703 21.46 3.16357 21.1768 2.59961 20.8545C1.88672 20.4468 1.52539 19.9585 1.52539 19.4092C1.52539 18.0151 2.74365 16.7432 4.95801 15.8301C6.94775 15.0098 9.56006 14.5435 12.3408 14.5117V14.5093H12.6558V14.5117C15.3804 14.5435 17.9512 14.9927 19.9263 15.7837C20.1973 15.8911 20.3267 16.1987 20.2192 16.4697C20.1118 16.7407 19.8042 16.8701 19.5332 16.7627C17.6411 16.0034 15.1484 15.5811 12.4971 15.564C9.79199 15.5811 7.26025 16.0205 5.3584 16.8042C3.59082 17.5317 2.58008 18.4814 2.58008 19.4092C2.58008 19.5874 3.05127 20.166 5.19971 20.6689C7.09912 21.1182 9.68945 21.3623 12.4995 21.3623C17.1016 21.3623 20.1655 20.9521 21.606 20.1416C22.4189 19.6851 22.4189 19.2456 22.4189 19.1016C22.4189 18.811 22.6558 18.5742 22.9463 18.5742C23.2368 18.5742 23.4736 18.811 23.4736 19.1016C23.4736 19.6484 23.2393 20.4321 22.1235 21.0596C20.5 21.9727 17.353 22.417 12.4995 22.417Z" fill="#575757" fill-opacity="0.7"/>
</svg>
