<svg width="50" height="50" viewBox="0 0 50 50" fill="none" xmlns="http://www.w3.org/2000/svg">
<path d="M24.9902 3.44727C13.0859 3.44727 3.4375 13.0957 3.4375 25C3.4375 25.3223 3.44727 25.6445 3.45703 25.9668C2.20703 26.1328 1.23047 27.1973 1.23047 28.4961C1.23047 29.9121 2.37305 31.0547 3.78906 31.0547H4.29687C6.91406 40.0098 15.1758 46.5527 24.9707 46.5527C36.8652 46.5527 46.5137 36.9043 46.5137 25.0098C46.5332 13.0957 36.8848 3.44727 24.9902 3.44727Z" fill="#EA4B98"/>
<path d="M46.5039 25.957C46.5137 25.6348 46.5234 25.3125 46.5234 24.9902C46.5234 19.2383 44.2676 14.0039 40.5859 10.1465C42.666 13.5156 43.8672 17.4902 43.8672 21.748C43.8672 33.9746 33.9551 43.8867 21.7285 43.8867C17.4707 43.8867 13.5059 42.6855 10.127 40.6055C13.9941 44.2871 19.2187 46.543 24.9707 46.543C34.7656 46.543 43.0371 40 45.6445 31.0449H46.1523C47.5684 31.0449 48.7109 29.9023 48.7109 28.4863C48.7305 27.1875 47.7637 26.123 46.5039 25.957Z" fill="#EA4B98"/>
<path d="M35.7129 18.4863C37.0215 18.4863 38.0762 19.541 38.0762 20.8496V26.1523C38.0762 27.4609 37.0215 27.8613 35.7129 27.8613C34.4043 27.8613 33.3496 27.4609 33.3496 26.1523V20.8496C33.3496 19.5508 34.4043 18.4863 35.7129 18.4863Z" fill="white"/>
<path d="M14.2676 18.4863C15.5762 18.4863 16.6309 19.541 16.6309 20.8496V26.1523C16.6309 27.4609 15.5762 27.8613 14.2676 27.8613C12.959 27.8613 11.9043 27.4609 11.9043 26.1523V20.8496C11.9043 19.5508 12.959 18.4863 14.2676 18.4863Z" fill="white"/>
<path d="M29.4824 36.2891H20.2539C19.5898 36.2891 19.0527 35.752 19.0527 35.0879C19.0527 34.4238 19.5898 33.8867 20.2539 33.8867H29.4824C30.1465 33.8867 30.6836 34.4238 30.6836 35.0879C30.6836 35.752 30.1367 36.2891 29.4824 36.2891Z" fill="white"/>
<path d="M16.416 27.9883H12.1094C11.6992 27.9883 11.3672 27.6563 11.3672 27.2461C11.3672 26.8359 11.6992 26.5039 12.1094 26.5039H16.416C16.8262 26.5039 17.1582 26.8359 17.1582 27.2461C17.1582 27.6563 16.8262 27.9883 16.416 27.9883Z" fill="#F2A74E"/>
<path d="M37.8125 27.9883H33.5059C33.0957 27.9883 32.7637 27.6563 32.7637 27.2461C32.7637 26.8359 33.0957 26.5039 33.5059 26.5039H37.8125C38.2227 26.5039 38.5547 26.8359 38.5547 27.2461C38.5547 27.6563 38.2227 27.9883 37.8125 27.9883Z" fill="#F2A74E"/>
</svg>
