<svg width="111.000000" height="111.000000" viewBox="0 0 111 111" fill="none" xmlns="http://www.w3.org/2000/svg" xmlns:xlink="http://www.w3.org/1999/xlink">
	<desc>
			Created with Pixso.
	</desc>
	<defs>
		<clipPath id="clip1351_207">
			<rect id="paper 1" width="111.000000" height="111.000000" fill="white" fill-opacity="0"/>
		</clipPath>
	</defs>
	<rect id="paper 1" width="111.000000" height="111.000000" fill="#FFFFFF" fill-opacity="0"/>
	<g clip-path="url(#clip1351_207)">
		<g opacity="0.989000">
			<path id="Vector" d="M21.78 6.82C36.31 6.82 50.83 6.82 65.36 6.82C65.26 13.99 65.37 21.14 65.68 28.29C66.33 31.24 67.85 33.63 70.24 35.44C71.83 33.88 73.38 32.29 74.9 30.67C73.41 29.79 72.5 28.49 72.19 26.77C72.04 20.7 72.04 14.63 72.19 8.56C76.59 12.45 80.93 16.43 85.2 20.48C89.57 16.11 93.94 11.74 98.31 7.37C100.2 6.45 101.9 6.7 103.41 8.12C104.13 9.57 104.13 11.02 103.41 12.46C73.09 42.78 42.78 73.09 12.46 103.41C11.02 104.13 9.57 104.13 8.12 103.41C6.7 101.9 6.45 100.2 7.37 98.31C8.88 96.79 10.4 95.28 11.92 93.76C11.99 68.03 12.06 42.31 12.14 16.58C13.37 11.34 16.58 8.09 21.78 6.82ZM36.09 33.92C42.88 33.89 49.68 33.92 56.47 34.03C58.29 34.88 58.97 36.29 58.53 38.26C58.02 39.5 57.11 40.25 55.82 40.54C49.46 40.68 43.1 40.68 36.74 40.54C33.89 39.49 33.2 37.65 34.68 35.01C35.19 34.67 35.66 34.31 36.09 33.92ZM37.18 51.92C40.08 51.83 42.97 51.94 45.85 52.24C47.66 53.09 48.35 54.5 47.91 56.47C47.34 57.89 46.3 58.65 44.76 58.75C41.86 58.94 38.97 58.87 36.09 58.53C34.28 57.68 33.59 56.27 34.03 54.3C34.64 52.9 35.69 52.1 37.18 51.92Z" fill="#DEDEDE" fill-opacity="1.000000" fill-rule="evenodd"/>
		</g>
		<g opacity="0.990000">
			<path id="Vector" d="M87.26 37.83C91.09 37.83 94.92 37.83 98.75 37.83C98.78 56.62 98.75 75.4 98.64 94.19C97.45 99.43 94.23 102.65 88.99 103.84C66.52 104.02 44.04 103.99 21.57 103.73C30.42 94.77 39.3 85.85 48.23 76.96C57.05 76.89 65.87 76.81 74.68 76.74C76.48 75.89 77.17 74.49 76.74 72.51C76.24 71.29 75.33 70.53 74.03 70.24C67.82 70.2 61.6 70.09 55.39 69.91C58.96 66.23 62.57 62.58 66.23 58.96C68.68 58.89 71.14 58.82 73.6 58.75C76.6 58.06 77.5 56.29 76.31 53.44C75.5 52.58 74.52 52.04 73.38 51.81C78.05 47.18 82.67 42.52 87.26 37.83Z" fill="#DEDEDE" fill-opacity="1.000000" fill-rule="evenodd"/>
		</g>
	</g>
</svg>
