<svg width="30" height="30" viewBox="0 0 30 30" fill="none" xmlns="http://www.w3.org/2000/svg">
<path d="M18.2656 7.44092V12.5756L20.0619 13.7053C20.1267 13.7196 20.1939 13.7196 20.2588 13.7053L27.9819 8.49842C27.9762 8.24571 27.8838 8.00265 27.7201 7.81008C27.5563 7.6175 27.3313 7.48715 27.0828 7.44092H18.2656Z" fill="#0072C6"/>
<path d="M18.2666 14.4911L19.9044 15.6161C19.9811 15.6628 20.0691 15.6875 20.1589 15.6875C20.2487 15.6875 20.3368 15.6628 20.4134 15.6161C20.1322 15.7858 27.9819 10.5742 27.9819 10.5742V20.0111C28.0023 20.2023 27.9808 20.3957 27.9187 20.5777C27.8566 20.7597 27.7555 20.926 27.6225 21.0649C27.4894 21.2037 27.3276 21.3118 27.1484 21.3816C26.9692 21.4514 26.7769 21.4812 26.585 21.4689H18.2656L18.2666 14.4911Z" fill="#0072C6"/>
<path d="M9.78636 12.1236C9.51423 12.1223 9.24681 12.1946 9.01245 12.3329C8.77809 12.4712 8.5855 12.6704 8.45511 12.9092C8.09896 13.5424 7.92808 14.2629 7.96198 14.9886C7.92497 15.7127 8.09609 16.4324 8.45511 17.0623C8.58496 17.2914 8.7728 17.4822 8.99976 17.6156C9.22672 17.749 9.48479 17.8204 9.74806 17.8225C10.0113 17.8246 10.2705 17.7573 10.4996 17.6275C10.7286 17.4977 10.9194 17.3099 11.0529 17.083C11.408 16.4559 11.5756 15.74 11.5357 15.0205C11.5764 14.2783 11.4144 13.5391 11.067 12.882C10.9428 12.651 10.7579 12.4582 10.5323 12.3245C10.3066 12.1909 10.0486 12.1214 9.78636 12.1236Z" fill="#0072C6"/>
<path d="M2.01953 4.83281V24.9206L17.3008 28.125V1.875L2.01953 4.83281ZM12.2458 18.2728C11.9599 18.6758 11.5798 19.0028 11.1386 19.2251C10.6974 19.4475 10.2085 19.5586 9.71453 19.5487C9.23298 19.5573 8.75649 19.4494 8.32558 19.2343C7.89467 19.0192 7.52209 18.7032 7.23953 18.3131C6.56939 17.3775 6.23416 16.2433 6.28797 15.0938C6.23096 13.8878 6.57225 12.6966 7.25922 11.7038C7.54869 11.2931 7.93475 10.9599 8.38337 10.7336C8.832 10.5073 9.32939 10.3949 9.83172 10.4062C10.3098 10.3967 10.7829 10.5046 11.2095 10.7205C11.6361 10.9364 12.0032 11.2538 12.2786 11.6447C12.942 12.6006 13.2716 13.7487 13.2161 14.9109C13.2745 16.1082 12.9332 17.2908 12.2458 18.2728Z" fill="#0072C6"/>
</svg>
