<svg width="34" height="38" viewBox="0 0 34 38" fill="none" xmlns="http://www.w3.org/2000/svg">
<g clip-path="url(#clip0_1562_88)">
<path opacity="0.999" fill-rule="evenodd" clip-rule="evenodd" d="M2.95508 -0.0366211C12.2962 -0.0366211 21.6373 -0.0366211 30.9785 -0.0366211C32.5723 0.400375 33.5684 1.49286 33.9668 3.24085C33.9668 13.486 33.9668 23.7311 33.9668 33.9762C33.5684 35.7242 32.5723 36.8167 30.9785 37.2537C21.6373 37.2537 12.2962 37.2537 2.95508 37.2537C1.36133 36.8167 0.365234 35.7242 -0.0332031 33.9762C-0.0332031 23.7311 -0.0332031 13.486 -0.0332031 3.24085C0.365234 1.49286 1.36133 0.400375 2.95508 -0.0366211Z" fill="#EA4B98"/>
<path fill-rule="evenodd" clip-rule="evenodd" d="M4.68164 13.1465C4.46827 13.124 4.26905 13.1482 4.08398 13.2194C4.04792 13.215 4.02579 13.1907 4.01758 13.1465C4.24866 13.0514 4.47002 13.0514 4.68164 13.1465Z" fill="white"/>
<path fill-rule="evenodd" clip-rule="evenodd" d="M16.834 13.1465C17.0415 13.0752 17.2628 13.0509 17.498 13.0737C17.5138 13.1677 17.4917 13.2406 17.4316 13.2922C17.2664 13.1547 17.0672 13.1061 16.834 13.1465Z" fill="white"/>
<path fill-rule="evenodd" clip-rule="evenodd" d="M4.68164 13.1461C5.38458 13.2218 5.88262 13.6102 6.17578 14.3114C6.68319 16.3433 7.17021 18.3826 7.63672 20.4294C8.10973 18.5887 8.57457 16.7435 9.03125 14.8941C9.43925 13.8508 10.1586 13.4259 11.1895 13.6195C11.6762 13.7102 12.0414 13.9894 12.2852 14.4571C12.4569 14.8038 12.5898 15.168 12.6836 15.5496C13.0719 17.1801 13.4703 18.8068 13.8789 20.4294C14.3826 18.3957 14.8696 16.3564 15.3398 14.3114C15.6448 13.6248 16.1429 13.2363 16.834 13.1461C17.0672 13.1057 17.2664 13.1543 17.4316 13.2918C16.5893 16.8796 15.726 20.4606 14.8418 24.0346C13.4999 24.2518 12.692 23.6327 12.418 22.1773C11.9619 20.1036 11.4749 18.0399 10.957 15.9866C10.8242 15.7923 10.6914 15.7923 10.5586 15.9866C10.0641 17.8891 9.62134 19.807 9.23047 21.7403C9.11346 22.24 8.95847 22.7256 8.76562 23.197C8.24341 23.9575 7.54614 24.2489 6.67383 24.071C5.78543 20.4618 4.92214 16.8445 4.08398 13.2189C4.26905 13.1478 4.46827 13.1235 4.68164 13.1461Z" fill="white"/>
<path fill-rule="evenodd" clip-rule="evenodd" d="M19.3574 13.1465C19.5345 13.1465 19.7115 13.1465 19.8886 13.1465C19.8886 13.3164 19.8886 13.4864 19.8886 13.6563C19.8882 13.9974 19.7775 14.2887 19.5566 14.5303C19.1158 14.8417 18.662 15.133 18.1953 15.4043C18.0029 14.5729 18.191 13.881 18.7597 13.3286C18.9464 13.2157 19.1457 13.1551 19.3574 13.1465Z" fill="white"/>
<path fill-rule="evenodd" clip-rule="evenodd" d="M21.6152 24.0714C21.3362 24.0945 21.0706 24.0702 20.8184 23.9986C21.8945 22.2088 22.9791 20.4244 24.0723 18.6454C22.9926 16.8055 21.8858 14.9847 20.752 13.183C21.5365 12.9811 22.267 13.1268 22.9434 13.6199C23.7141 14.6594 24.4335 15.7398 25.1016 16.861C25.2166 17.0141 25.3495 17.0384 25.5 16.9338C26.1908 15.7465 26.9545 14.6176 27.791 13.5471C28.3755 13.1139 29.0174 12.9682 29.7168 13.1101C29.8135 13.1409 29.8467 13.2016 29.8164 13.2922C28.7337 15.0744 27.638 16.8467 26.5293 18.609C27.6526 20.4173 28.7593 22.2381 29.8496 24.0714C29.1132 24.2328 28.4271 24.0992 27.791 23.6709C26.9827 22.6864 26.2633 21.6303 25.6328 20.5026C25.4336 20.2113 25.2344 20.2113 25.0352 20.5026C24.3925 21.6205 23.673 22.6765 22.877 23.6709C22.4909 23.9285 22.0703 24.062 21.6152 24.0714Z" fill="white"/>
<path fill-rule="evenodd" clip-rule="evenodd" d="M19.3574 13.1464C19.5425 13.0753 19.7417 13.051 19.9551 13.0736C19.9754 13.2837 19.9533 13.478 19.8887 13.6563C19.8887 13.4863 19.8887 13.3163 19.8887 13.1464C19.7116 13.1464 19.5345 13.1464 19.3574 13.1464Z" fill="white"/>
<path fill-rule="evenodd" clip-rule="evenodd" d="M19.8223 15.04C19.8886 17.5039 19.9107 19.9802 19.8887 22.469C19.987 23.4565 19.5885 24.0028 18.6934 24.1077C18.4989 24.1643 18.3107 24.1521 18.1289 24.0713C18.0846 21.5221 18.0846 18.973 18.1289 16.4239C18.1974 16.2025 18.3192 16.0204 18.4942 15.8776C18.9931 15.6895 19.4359 15.4102 19.8223 15.04Z" fill="white"/>
<path fill-rule="evenodd" clip-rule="evenodd" d="M19.8887 22.4686C19.9107 19.9799 19.8885 17.5036 19.8223 15.0397C19.8411 14.9822 19.8743 14.9337 19.9219 14.894C19.9771 17.4312 19.966 19.9561 19.8887 22.4686Z" fill="white"/>
<path fill-rule="evenodd" clip-rule="evenodd" d="M20.8184 23.9985C21.0706 24.0701 21.3362 24.0945 21.6152 24.0714C21.3375 24.1669 21.0497 24.1669 20.752 24.0714C20.7602 24.0272 20.7823 24.0029 20.8184 23.9985Z" fill="white"/>
<g clip-path="url(#clip1_1562_88)">
<path opacity="0.039" fill-rule="evenodd" clip-rule="evenodd" d="M3.56999 0.510013C12.4101 0.491125 21.2501 0.510013 30.09 0.566679C32.1321 0.682183 33.2467 1.75884 33.4333 3.79668C33.5089 12.6744 33.5089 21.5523 33.4333 30.43C33.3168 32.2083 32.3912 33.285 30.6567 33.66C21.4767 33.7356 12.2967 33.7356 3.11666 33.66C1.44481 33.3859 0.500365 32.4036 0.283325 30.7133C0.283325 21.6467 0.283325 12.58 0.283325 3.51335C0.651074 1.69027 1.74663 0.689151 3.56999 0.510013Z" fill="black"/>
<path fill-rule="evenodd" clip-rule="evenodd" d="M3.1167 1.52979C12.3344 1.52979 21.5523 1.52979 30.77 1.52979C30.8088 1.62478 30.8843 1.66257 30.9967 1.64312C31.0355 1.73811 31.1109 1.7759 31.2234 1.75645C31.2621 1.85145 31.3376 1.88923 31.45 1.86979C31.45 1.94534 31.4878 1.98312 31.5634 1.98312C31.5634 2.05868 31.6011 2.09645 31.6767 2.09645C31.6767 2.17201 31.7144 2.20979 31.79 2.20979C31.79 2.28534 31.8278 2.32312 31.9034 2.32312C31.9034 2.39868 31.9411 2.43645 32.0167 2.43645C31.9972 2.54883 32.0351 2.62439 32.13 2.66312C32.1105 2.7755 32.1484 2.85106 32.2434 2.88979C32.2239 3.00217 32.2617 3.07773 32.3567 3.11645C32.3567 12.3342 32.3567 21.552 32.3567 30.7698C32.2236 30.8847 32.1482 31.0358 32.13 31.2231C32.0351 31.2619 31.9972 31.3374 32.0167 31.4498C31.9411 31.4498 31.9034 31.4875 31.9034 31.5631C31.8278 31.5631 31.79 31.6009 31.79 31.6765C31.7144 31.6765 31.6767 31.7142 31.6767 31.7898C31.6011 31.7898 31.5634 31.8275 31.5634 31.9031C31.4878 31.9031 31.45 31.9409 31.45 32.0165C31.3376 31.997 31.2621 32.0348 31.2234 32.1298C31.036 32.1479 30.8849 32.2234 30.77 32.3565C21.5523 32.3565 12.3344 32.3565 3.1167 32.3565C3.00181 32.2234 2.8507 32.1479 2.66336 32.1298C2.57377 32.0277 2.46044 31.9521 2.32336 31.9031C2.32336 31.8275 2.28559 31.7898 2.21003 31.7898C2.21003 31.7142 2.17226 31.6765 2.0967 31.6765C2.0967 31.6009 2.05892 31.5631 1.98336 31.5631C1.93439 31.426 1.85884 31.3127 1.7567 31.2231C1.73861 31.0358 1.66305 30.8847 1.53003 30.7698C1.53003 21.552 1.53003 12.3342 1.53003 3.11645C1.66305 3.00157 1.73861 2.85046 1.7567 2.66312C1.85169 2.62439 1.88948 2.54883 1.87003 2.43645C1.94559 2.43645 1.98336 2.39868 1.98336 2.32312C2.05892 2.32312 2.0967 2.28534 2.0967 2.20979C2.17226 2.20979 2.21003 2.17201 2.21003 2.09645C2.28559 2.09645 2.32336 2.05868 2.32336 1.98312C2.39892 1.98312 2.4367 1.94534 2.4367 1.86979C2.54908 1.88923 2.62464 1.85145 2.66336 1.75645C2.77574 1.7759 2.8513 1.73811 2.89003 1.64312C3.00241 1.66257 3.07797 1.62478 3.1167 1.52979Z" fill="#EA4B98"/>
<path fill-rule="evenodd" clip-rule="evenodd" d="M10.9367 23.5166C10.9367 20.1922 10.9367 16.8677 10.9367 13.5433C9.84113 13.5433 8.74558 13.5433 7.65002 13.5433C8.09417 12.4471 8.58529 11.3704 9.12336 10.3133C10.8229 10.2566 12.5229 10.2377 14.2234 10.2566C14.2234 14.6766 14.2234 19.0966 14.2234 23.5166C13.1278 23.5166 12.0323 23.5166 10.9367 23.5166Z" fill="#FDFEFE"/>
<path fill-rule="evenodd" clip-rule="evenodd" d="M26.2367 10.4833C24.2959 14.8182 22.2937 19.1249 20.23 23.4033C19.0986 23.5355 17.9653 23.5543 16.83 23.46C18.4112 20.2094 19.9601 16.9415 21.4767 13.6567C19.4564 13.5437 17.4164 13.5059 15.3567 13.5433C15.3567 12.4856 15.3567 11.4278 15.3567 10.37C19.0027 10.3324 22.6294 10.3702 26.2367 10.4833Z" fill="#FDFDFE"/>
<path fill-rule="evenodd" clip-rule="evenodd" d="M26.2366 10.4835C22.6293 10.3704 19.0027 10.3326 15.3566 10.3702C15.3566 11.4279 15.3566 12.4858 15.3566 13.5435C17.4163 13.5061 19.4563 13.5438 21.4766 13.6568C19.3989 13.6568 17.321 13.6568 15.2433 13.6568C15.2433 12.5235 15.2433 11.3902 15.2433 10.2568C18.9462 10.2191 22.6485 10.2568 26.35 10.3702C26.3359 10.4389 26.2982 10.4767 26.2366 10.4835Z" fill="#A8B2CF"/>
<path fill-rule="evenodd" clip-rule="evenodd" d="M7.65002 13.5435C8.74558 13.5435 9.84113 13.5435 10.9367 13.5435C10.9367 16.8679 10.9367 20.1924 10.9367 23.5168C10.8236 20.2495 10.7858 16.9628 10.8234 13.6568C9.68039 13.6944 8.62261 13.6567 7.65002 13.5435Z" fill="#8594BC"/>
<path fill-rule="evenodd" clip-rule="evenodd" d="M25.2167 23.5167C25.2541 21.3814 25.2164 19.2659 25.1034 17.17C25.1355 17.0806 25.1921 17.005 25.2734 16.9434C25.3673 19.1538 25.3484 21.345 25.2167 23.5167Z" fill="#F4891E"/>
<path fill-rule="evenodd" clip-rule="evenodd" d="M25.1033 17.1699C25.2163 19.2658 25.254 21.3813 25.2166 23.5166C24.1959 23.5354 23.1759 23.5166 22.1566 23.4599C23.1719 21.377 24.1541 19.2803 25.1033 17.1699Z" fill="#F4891E"/>
</g>
</g>
<defs>
<clipPath id="clip0_1562_88">
<rect width="34" height="37.2903" fill="white"/>
</clipPath>
<clipPath id="clip1_1562_88">
<rect width="34" height="34" fill="white"/>
</clipPath>
</defs>
</svg>
