<svg width="25" height="25" viewBox="0 0 25 25" fill="none" xmlns="http://www.w3.org/2000/svg">
<g clip-path="url(#clip0_2603_3916)">
<path opacity="0.986" fill-rule="evenodd" clip-rule="evenodd" d="M17.6035 -0.0244141C18.1244 -0.0244141 18.6452 -0.0244141 19.166 -0.0244141C20.266 0.125333 21.2751 0.515957 22.1934 1.14746C19.6706 1.21256 17.1478 1.21256 14.625 1.14746C15.519 0.507627 16.5118 0.117004 17.6035 -0.0244141Z" fill="#FFEFF1"/>
<path opacity="0.995" fill-rule="evenodd" clip-rule="evenodd" d="M14.623 1.14746C17.1458 1.21256 19.6686 1.21256 22.1914 1.14746C22.5782 1.40394 22.92 1.71318 23.2168 2.0752C19.9861 2.12398 16.7472 2.14026 13.5 2.12402C13.8164 1.72592 14.1907 1.4004 14.623 1.14746Z" fill="#FFEBEE"/>
<path opacity="0.995" fill-rule="evenodd" clip-rule="evenodd" d="M23.2168 2.0752C23.3958 2.2135 23.5504 2.37626 23.6807 2.56348C23.7341 2.64052 23.7748 2.7219 23.8027 2.80762C20.1814 2.85641 16.5519 2.87269 12.9141 2.85645C13.0738 2.58292 13.2691 2.33878 13.5 2.12402C16.7472 2.14026 19.9861 2.12398 23.2168 2.0752Z" fill="#FFE8EC"/>
<path opacity="0.997" fill-rule="evenodd" clip-rule="evenodd" d="M23.8027 2.80762C24.1059 3.18581 24.3337 3.60898 24.4863 4.07715C20.401 4.07715 16.3158 4.07715 12.2305 4.07715C12.422 3.64485 12.6499 3.23795 12.9141 2.85645C16.5519 2.87269 20.1814 2.85641 23.8027 2.80762Z" fill="#FFE5E9"/>
<path opacity="0.959" fill-rule="evenodd" clip-rule="evenodd" d="M5.78711 4.76057C4.72071 4.77672 3.66277 4.76044 2.61328 4.71174C3.28406 4.08042 4.06531 3.90952 4.95703 4.19905C5.27075 4.33901 5.54741 4.52619 5.78711 4.76057Z" fill="#FFA48D"/>
<path opacity="0.997" fill-rule="evenodd" clip-rule="evenodd" d="M12.2305 4.07715C16.3158 4.07715 20.401 4.07715 24.4863 4.07715C24.6052 4.28708 24.6866 4.51494 24.7305 4.76074C20.4987 4.76074 16.2669 4.76074 12.0352 4.76074C12.0719 4.52456 12.137 4.29669 12.2305 4.07715Z" fill="#FFE1E6"/>
<path opacity="0.986" fill-rule="evenodd" clip-rule="evenodd" d="M2.61133 4.71191C3.66082 4.76061 4.71876 4.77689 5.78516 4.76074C6.07031 5.13599 6.33071 5.52661 6.56641 5.93262C4.84115 5.93262 3.11588 5.93262 1.39062 5.93262C1.78125 5.50942 2.18815 5.10254 2.61133 4.71191Z" fill="#FF9F8C"/>
<path opacity="0.997" fill-rule="evenodd" clip-rule="evenodd" d="M12.0356 4.76074C16.2674 4.76074 20.4992 4.76074 24.731 4.76074C24.8385 5.09687 24.9199 5.43867 24.9751 5.78613C24.9751 5.99771 24.9751 6.20933 24.9751 6.4209C23.9985 6.4209 23.022 6.4209 22.0454 6.4209C21.9388 6.04531 21.6865 5.85 21.2886 5.83496C20.9314 5.88696 20.6954 6.08228 20.5806 6.4209C20.0923 6.4209 19.604 6.4209 19.1157 6.4209C19.0091 6.04531 18.7568 5.85 18.3589 5.83496C17.9997 5.8876 17.7637 6.08291 17.6509 6.4209C17.1626 6.4209 16.6743 6.4209 16.186 6.4209C15.9033 5.81943 15.4801 5.69736 14.9165 6.05469C14.8191 6.16006 14.754 6.28213 14.7212 6.4209C13.7446 6.4209 12.7681 6.4209 11.7915 6.4209C11.7735 5.84658 11.8549 5.29321 12.0356 4.76074Z" fill="#FFDDE2"/>
<path opacity="0.992" fill-rule="evenodd" clip-rule="evenodd" d="M1.39062 5.93262C3.11588 5.93262 4.84115 5.93262 6.56641 5.93262C6.89917 6.36963 7.20845 6.82534 7.49414 7.2998C5.10156 7.2998 2.70898 7.2998 0.316406 7.2998C0.556816 6.75503 0.914893 6.29932 1.39062 5.93262Z" fill="#FF988C"/>
<path fill-rule="evenodd" clip-rule="evenodd" d="M16.1858 6.42094C16.1794 7.03779 15.8701 7.3226 15.2581 7.27544C14.8756 7.12129 14.6965 6.83642 14.7209 6.42094C14.7538 6.28217 14.8189 6.1601 14.9163 6.05473C15.4798 5.69741 15.903 5.81948 16.1858 6.42094Z" fill="#FF9A8D"/>
<path fill-rule="evenodd" clip-rule="evenodd" d="M19.1155 6.4209C19.125 7.0543 18.8158 7.33911 18.1877 7.27539C17.8053 7.12124 17.6262 6.83638 17.6506 6.4209C17.7634 6.08291 17.9994 5.8876 18.3586 5.83496C18.7565 5.85 19.0088 6.04531 19.1155 6.4209Z" fill="#FF9A8D"/>
<path fill-rule="evenodd" clip-rule="evenodd" d="M22.0452 6.4209C22.0547 7.0543 21.7455 7.33911 21.1174 7.27539C20.735 7.12124 20.5559 6.83638 20.5803 6.4209C20.6952 6.08228 20.9312 5.88696 21.2883 5.83496C21.6862 5.85 21.9385 6.04531 22.0452 6.4209Z" fill="#FF9A8D"/>
<path opacity="0.998" fill-rule="evenodd" clip-rule="evenodd" d="M11.791 6.4209C12.7675 6.4209 13.7441 6.4209 14.7206 6.4209C14.6962 6.83638 14.8753 7.12124 15.2578 7.27539C15.8698 7.32256 16.1791 7.03774 16.1855 6.4209C16.6738 6.4209 17.162 6.4209 17.6503 6.4209C17.6259 6.83638 17.805 7.12124 18.1874 7.27539C18.8155 7.33911 19.1247 7.0543 19.1152 6.4209C19.6035 6.4209 20.0917 6.4209 20.58 6.4209C20.5556 6.83638 20.7347 7.12124 21.1171 7.27539C21.7452 7.33911 22.0544 7.0543 22.0449 6.4209C23.0214 6.4209 23.998 6.4209 24.9745 6.4209C24.9745 6.73013 24.9745 7.0394 24.9745 7.34863C24.9212 7.58604 24.8724 7.83018 24.8281 8.08105C20.5277 8.09722 16.2308 8.08091 11.9374 8.03223C11.8074 7.49502 11.7585 6.95791 11.791 6.4209Z" fill="#FFD7DD"/>
<path opacity="0.996" fill-rule="evenodd" clip-rule="evenodd" d="M0.318359 7.2998C2.71094 7.2998 5.10352 7.2998 7.49609 7.2998C7.75908 7.66074 8.00322 8.03506 8.22852 8.42285C5.47788 8.42285 2.72721 8.42285 -0.0234375 8.42285C-0.0234375 8.37402 -0.0234375 8.3252 -0.0234375 8.27637C0.0513901 7.93799 0.165322 7.61245 0.318359 7.2998Z" fill="#FF928B"/>
<path opacity="0.997" fill-rule="evenodd" clip-rule="evenodd" d="M11.9375 8.03223C16.2309 8.08091 20.5278 8.09722 24.8281 8.08105C24.6932 8.69209 24.4653 9.26172 24.1445 9.79004C20.2919 9.72505 16.4345 9.72505 12.5723 9.79004C12.3026 9.22534 12.0911 8.6394 11.9375 8.03223Z" fill="#FFD1D8"/>
<path opacity="0.996" fill-rule="evenodd" clip-rule="evenodd" d="M-0.0234375 8.42285C2.72721 8.42285 5.47788 8.42285 8.22852 8.42285C8.55225 8.74473 8.74756 9.13535 8.81445 9.59473C5.88477 9.59473 2.95508 9.59473 0.0253906 9.59473C0.0253906 9.56216 0.0091146 9.5459 -0.0234375 9.5459C-0.0234375 9.17153 -0.0234375 8.79722 -0.0234375 8.42285Z" fill="#FE8C8B"/>
<path opacity="0.996" fill-rule="evenodd" clip-rule="evenodd" d="M0.0234375 9.59473C2.95312 9.59473 5.88281 9.59473 8.8125 9.59473C8.91514 10.0935 8.85 10.5655 8.61719 11.0107C8.61333 10.9409 8.62959 10.8758 8.66602 10.8154C5.85044 10.7666 3.03469 10.7503 0.21875 10.7666C0.104404 10.3904 0.0392998 9.99976 0.0234375 9.59473Z" fill="#FE868A"/>
<path opacity="0.997" fill-rule="evenodd" clip-rule="evenodd" d="M24.1445 9.78995C24.0509 10.0264 23.9207 10.238 23.7539 10.4247C19.9861 10.3759 16.2101 10.3596 12.4258 10.3759C12.4746 10.1806 12.5234 9.98527 12.5723 9.78995C16.4345 9.72496 20.2919 9.72496 24.1445 9.78995Z" fill="#FFCDD5"/>
<path opacity="0.996" fill-rule="evenodd" clip-rule="evenodd" d="M12.4277 10.3762C16.212 10.3599 19.988 10.3763 23.7559 10.425C23.415 10.9124 23.0081 11.3355 22.5352 11.6946C19.0278 11.6458 15.5122 11.6295 11.9883 11.6457C12.1167 11.2116 12.2631 10.7884 12.4277 10.3762Z" fill="#FFC9D2"/>
<path opacity="0.996" fill-rule="evenodd" clip-rule="evenodd" d="M0.21875 10.7668C3.03469 10.7506 5.85044 10.7668 8.66602 10.8157C8.62959 10.876 8.61333 10.9412 8.61719 11.011C8.58652 11.1374 8.52954 11.2514 8.44629 11.3528C8.18413 11.6231 7.91558 11.8835 7.64062 12.134C5.28062 12.134 2.92057 12.134 0.560547 12.134C0.416038 11.6862 0.302106 11.2305 0.21875 10.7668Z" fill="#FE808A"/>
<path opacity="0.997" fill-rule="evenodd" clip-rule="evenodd" d="M11.9883 11.6457C15.5121 11.6295 19.0278 11.6458 22.5351 11.6946C21.0852 12.8711 19.425 13.3513 17.5547 13.135C16.708 13.0101 15.9024 12.7578 15.1377 12.3782C14.2681 12.6599 13.3973 12.9366 12.5254 13.2082C11.9289 13.0914 11.693 12.7333 11.8174 12.134C11.87 11.9681 11.9269 11.8053 11.9883 11.6457Z" fill="#FFC5CE"/>
<path opacity="0.996" fill-rule="evenodd" clip-rule="evenodd" d="M0.5625 12.1338C2.92252 12.1338 5.28257 12.1338 7.64258 12.1338C7.49341 12.2828 7.36318 12.4456 7.25195 12.6221C7.30864 12.8326 7.35747 13.0442 7.39844 13.2568C5.27427 13.2406 3.15837 13.2569 1.05078 13.3057C0.860317 12.9304 0.697559 12.5398 0.5625 12.1338Z" fill="#FE7989"/>
<path opacity="0.995" fill-rule="evenodd" clip-rule="evenodd" d="M7.39844 13.257C7.54902 13.6562 7.72808 14.0468 7.93555 14.4289C5.80337 14.4289 3.67123 14.4289 1.53906 14.4289C1.35722 14.0623 1.19446 13.688 1.05078 13.3059C3.15837 13.2571 5.27427 13.2408 7.39844 13.257Z" fill="#FE7389"/>
<path opacity="0.994" fill-rule="evenodd" clip-rule="evenodd" d="M1.53906 14.4287C3.67123 14.4287 5.80337 14.4287 7.93555 14.4287C8.17554 14.7993 8.43594 15.1574 8.7168 15.5029C6.58174 15.5847 4.4333 15.6335 2.27148 15.6494C2.01577 15.2523 1.77163 14.8455 1.53906 14.4287Z" fill="#FE6D88"/>
<path opacity="0.993" fill-rule="evenodd" clip-rule="evenodd" d="M8.71484 15.5029C9.20728 16.0281 9.74438 16.5 10.3262 16.9189C7.95815 16.9677 5.58184 16.984 3.19727 16.9678C2.83263 16.5701 2.52338 16.1306 2.26953 15.6494C4.43134 15.6335 6.57978 15.5847 8.71484 15.5029Z" fill="#FE6688"/>
<path opacity="0.992" fill-rule="evenodd" clip-rule="evenodd" d="M18.5801 18.0906C13.7542 18.0744 8.93647 18.0907 4.12695 18.1394C3.78086 17.7772 3.47162 17.3866 3.19922 16.9676C5.58379 16.9838 7.96011 16.9675 10.3281 16.9187C10.9555 17.2745 11.6228 17.5349 12.3301 17.7C12.8081 17.2791 13.2801 16.8478 13.7461 16.4061C14.5032 16.004 15.2682 15.9877 16.041 16.3572C16.8991 16.9241 17.7454 17.5019 18.5801 18.0906Z" fill="#FE6087"/>
<path opacity="0.997" fill-rule="evenodd" clip-rule="evenodd" d="M18.5781 18.0911C19.1584 18.4275 19.7119 18.8019 20.2383 19.2141C15.2252 19.2467 10.2123 19.2792 5.19922 19.3118C4.79608 18.9602 4.438 18.5696 4.125 18.1399C8.93452 18.0911 13.7522 18.0748 18.5781 18.0911Z" fill="#FE5A86"/>
<path opacity="0.997" fill-rule="evenodd" clip-rule="evenodd" d="M20.2383 19.2139C20.5646 19.5571 20.7762 19.964 20.873 20.4346C16.0391 20.4346 11.2051 20.4346 6.37109 20.4346C5.94956 20.0945 5.55894 19.7201 5.19922 19.3115C10.2123 19.279 15.2252 19.2464 20.2383 19.2139Z" fill="#FD5486"/>
<path opacity="0.996" fill-rule="evenodd" clip-rule="evenodd" d="M6.37109 20.4346C11.2051 20.4346 16.0391 20.4346 20.873 20.4346C20.9267 20.9326 20.8453 21.4046 20.6289 21.8506C16.4412 21.7856 12.2583 21.7856 8.08008 21.8506C7.4665 21.4324 6.89683 20.9604 6.37109 20.4346Z" fill="#FD4E85"/>
<path opacity="0.995" fill-rule="evenodd" clip-rule="evenodd" d="M20.6309 21.8505C20.3417 22.27 19.9999 22.6443 19.6055 22.9735C16.334 22.9085 13.0625 22.9085 9.79102 22.9735C9.18145 22.6564 8.61182 22.282 8.08203 21.8505C12.2602 21.7855 16.4432 21.7855 20.6309 21.8505Z" fill="#FD4785"/>
<path opacity="0.992" fill-rule="evenodd" clip-rule="evenodd" d="M19.6035 22.9736C19.1725 23.4453 18.7167 23.893 18.2363 24.3164C17.7518 24.6322 17.231 24.8519 16.6738 24.9756C16.2506 24.9756 15.8275 24.9756 15.4043 24.9756C13.39 24.7057 11.5183 24.0383 9.78906 22.9736C13.0605 22.9085 16.332 22.9085 19.6035 22.9736Z" fill="#FD4084"/>
</g>
<defs>
<clipPath id="clip0_2603_3916">
<rect width="25" height="25" fill="white"/>
</clipPath>
</defs>
</svg>
