<svg width="90.000000" height="90.000000" viewBox="0 0 90 90" fill="none" xmlns="http://www.w3.org/2000/svg" xmlns:xlink="http://www.w3.org/1999/xlink">
	<desc>
			Created with Pixso.
	</desc>
	<defs>
		<clipPath id="clip1718_2033">
			<rect id="notice 1" width="90.000000" height="90.000000" fill="white" fill-opacity="0"/>
		</clipPath>
	</defs>
	<rect id="notice 1" width="90.000000" height="90.000000" fill="#FFFFFF" fill-opacity="0"/>
	<g clip-path="url(#clip1718_2033)">
		<g opacity="0.993000">
			<path id="Vector" d="M24.69 7.29C38.17 7.26 51.65 7.29 65.12 7.38C72.79 8.25 78.15 12.2 81.21 19.24C81.7 20.49 82.05 21.78 82.26 23.11C82.46 27.88 82.55 32.66 82.52 37.44C82.55 42.16 82.46 46.87 82.26 51.59C80.98 58.37 77.2 63.21 70.92 66.09C69.39 66.69 67.81 67.1 66.18 67.32C53.51 67.32 40.86 67.44 28.21 67.67C27.72 67.87 27.29 68.13 26.89 68.46C24.77 72.42 22.6 76.34 20.39 80.24C17.21 82.96 13.85 83.22 10.28 81.03C8.6 79.7 7.64 77.97 7.38 75.84C7.21 58.26 7.26 40.68 7.55 23.11C8.85 16.61 12.45 11.89 18.36 8.96C20.42 8.12 22.53 7.57 24.69 7.29ZM43.85 22.58C46.25 22.27 47.81 23.27 48.51 25.57C48.63 29.73 48.63 33.89 48.51 38.05C47.47 40.9 45.57 41.69 42.8 40.42C42.05 39.79 41.56 38.99 41.3 38.05C41.19 33.89 41.19 29.73 41.3 25.57C41.69 24.16 42.54 23.17 43.85 22.58ZM43.85 45.08C46.58 44.79 48.16 45.99 48.6 48.69C48.19 51.32 46.67 52.49 44.03 52.2C41.81 51.32 40.96 49.7 41.48 47.37C42.02 46.33 42.82 45.56 43.85 45.08Z" fill="#EA4B98" fill-opacity="1.000000" fill-rule="evenodd"/>
		</g>
	</g>
</svg>
