<svg width="50" height="50" viewBox="0 0 50 50" fill="none" xmlns="http://www.w3.org/2000/svg">
<g clip-path="url(#clip0_732_337)">
<path opacity="0.998" fill-rule="evenodd" clip-rule="evenodd" d="M20.0684 0.537029C23.5682 2.91457 25.1958 6.23488 24.9512 10.498C21.0934 10.4655 17.2522 10.4981 13.4277 10.5956C12.3156 10.8121 11.5832 11.4632 11.2305 12.5487C11.1817 13.0033 11.1654 13.459 11.1816 13.9159C10.2899 13.8162 9.44355 13.9465 8.64257 14.3066C8.6263 12.8413 8.64258 11.3765 8.6914 9.91203C9.14773 5.61561 11.3775 2.66965 15.3809 1.07414C16.9078 0.598235 18.4703 0.419199 20.0684 0.537029Z" fill="#BB5D4C"/>
<path fill-rule="evenodd" clip-rule="evenodd" d="M20.0684 0.536839C24.1172 0.388263 27.2585 1.98331 29.4922 5.322C30.2012 6.5701 30.6569 7.90474 30.8594 9.3259C30.9082 10.9858 30.9245 12.6459 30.9082 14.3064C30.1353 13.9613 29.3215 13.8311 28.4668 13.9157C28.5189 11.5266 27.3471 10.3872 24.9512 10.4978C25.1958 6.23469 23.5682 2.91438 20.0684 0.536839Z" fill="#A44F3E"/>
<path opacity="0.997" fill-rule="evenodd" clip-rule="evenodd" d="M44.3848 4.44324C47.5006 7.28826 48.1027 10.6086 46.1914 14.4042C44.0381 17.4771 41.1247 18.5676 37.4512 17.6757C37.0931 17.5292 36.735 17.3827 36.3769 17.2362C36.3177 17.2483 36.2851 17.2808 36.2793 17.3339C35.1731 16.1955 34.5058 14.8283 34.2773 13.2323C33.9288 9.35437 35.4751 6.53861 38.916 4.78504C40.703 4.08535 42.5259 3.97142 44.3848 4.44324Z" fill="#F07FB6"/>
<path fill-rule="evenodd" clip-rule="evenodd" d="M44.3848 4.44336C47.4412 5.51331 49.2967 7.6292 49.9512 10.791C49.9512 11.6374 49.9512 12.4837 49.9512 13.3301C49.198 16.7692 47.1147 18.9665 43.7012 19.9219C43.1937 20.8391 42.7381 21.783 42.334 22.7539C42.1444 22.8265 41.9654 22.8102 41.7969 22.7051C41.4217 21.7433 40.9822 20.8155 40.4785 19.9219C39.0646 19.4949 37.795 18.8113 36.6699 17.8711C36.4781 17.7294 36.3479 17.5504 36.2793 17.334C36.2852 17.281 36.3177 17.2484 36.377 17.2363C36.7351 17.3828 37.0931 17.5293 37.4512 17.6758C41.1247 18.5677 44.0381 17.4772 46.1914 14.4043C48.1027 10.6087 47.5006 7.28838 44.3848 4.44336Z" fill="#EA4B98"/>
<path fill-rule="evenodd" clip-rule="evenodd" d="M39.209 8.83781C39.6758 8.75391 40.0176 8.91667 40.2344 9.32609C40.2995 9.74926 40.2995 10.1725 40.2344 10.5956C39.8192 11.1965 39.3634 11.229 38.8672 10.6933C38.8021 10.205 38.8021 9.71672 38.8672 9.22843C39.0016 9.11075 39.1155 8.98054 39.209 8.83781Z" fill="#EA4B98"/>
<path fill-rule="evenodd" clip-rule="evenodd" d="M44.3848 8.83753C44.7682 8.79325 45.0774 8.92346 45.3125 9.22815C45.3777 9.71643 45.3777 10.2047 45.3125 10.693C44.8083 11.2362 44.3527 11.2036 43.9453 10.5953C43.8802 10.1722 43.8802 9.74898 43.9453 9.32581C44.0454 9.11224 44.1919 8.94948 44.3848 8.83753Z" fill="#EA4B98"/>
<path opacity="0.999" fill-rule="evenodd" clip-rule="evenodd" d="M13.4278 10.596C16.5855 10.5797 19.743 10.596 22.9004 10.6448C24.2979 11.2364 24.9164 12.2618 24.7559 13.721C24.3589 13.4357 23.9846 13.4682 23.6328 13.8186C23.5253 14.2143 23.4765 14.6213 23.4864 15.0393C23.4765 15.4574 23.5253 15.8643 23.6328 16.26C23.9846 16.6104 24.3589 16.6429 24.7559 16.3577C24.8693 17.8057 24.8856 19.2706 24.8047 20.7522C24.5991 22.9064 23.6063 24.5829 21.8262 25.7815C21.2875 25.7984 20.7667 25.8472 20.2637 25.928C19.7539 26.0145 19.4284 26.3075 19.2871 26.8069C18.1062 26.8531 16.9343 26.788 15.7715 26.6116C15.7715 27.458 15.7715 28.3043 15.7715 29.1506C15.7064 28.2872 15.6413 27.4083 15.5762 26.5139C15.4867 26.4527 15.389 26.4201 15.2832 26.4163C12.8682 25.3309 11.4685 23.4755 11.084 20.8499C11.054 18.5531 11.0867 16.2419 11.1817 13.9163C11.1655 13.4593 11.1818 13.0037 11.2305 12.5491C11.5832 11.4635 12.3157 10.8125 13.4278 10.596Z" fill="#FEDECE"/>
<path fill-rule="evenodd" clip-rule="evenodd" d="M13.4277 10.5961C17.2522 10.4986 21.0934 10.466 24.9512 10.4985C27.3471 10.3879 28.5189 11.5273 28.4668 13.9164C28.4668 16.2277 28.4668 18.5388 28.4668 20.85C28.2191 22.95 27.2426 24.6102 25.5371 25.8305C23.7839 25.9255 22.0261 25.9581 20.2637 25.9282C20.7667 25.8474 21.2875 25.7986 21.8262 25.7817C23.6062 24.583 24.599 22.9066 24.8047 20.7524C24.8855 19.2707 24.8692 17.8059 24.7559 16.3578C24.7835 16.2808 24.8323 16.2157 24.9023 16.1625C24.9675 15.4138 24.9675 14.6652 24.9023 13.9164C24.8323 13.8633 24.7835 13.7982 24.7559 13.7211C24.9164 12.2619 24.2979 11.2366 22.9004 10.645C19.743 10.5961 16.5854 10.5798 13.4277 10.5961Z" fill="#FECDBE"/>
<path fill-rule="evenodd" clip-rule="evenodd" d="M39.4044 12.4511C39.8712 12.3672 40.213 12.53 40.4298 12.9394C40.5722 14.4342 41.3697 15.0039 42.8224 14.6483C43.1316 14.4693 43.3758 14.2252 43.5548 13.9159C43.6435 13.5214 43.7412 13.1308 43.8477 12.7441C44.2639 12.3609 44.687 12.3609 45.1173 12.7441C45.2733 14.6065 44.4433 15.762 42.627 16.2108C40.5195 16.3495 39.315 15.373 39.0138 13.2812C38.9403 12.8941 39.0705 12.6174 39.4044 12.4511Z" fill="#EA4B98"/>
<path fill-rule="evenodd" clip-rule="evenodd" d="M14.9903 13.5254C15.2204 13.5095 15.4483 13.5257 15.6739 13.5743C15.8529 13.6231 15.9668 13.7371 16.0156 13.9161C16.0808 14.6648 16.0808 15.4134 16.0156 16.1622C15.7702 16.5247 15.4284 16.6385 14.9903 16.504C14.839 16.3854 14.7251 16.2389 14.6485 16.0645C14.5833 15.3809 14.5833 14.6973 14.6485 14.0137C14.7458 13.8357 14.8598 13.6729 14.9903 13.5254Z" fill="#FFB19F"/>
<path fill-rule="evenodd" clip-rule="evenodd" d="M24.7559 13.7204C24.7835 13.7974 24.8323 13.8625 24.9024 13.9157C24.9675 14.6644 24.9675 15.413 24.9024 16.1618C24.8323 16.2149 24.7835 16.28 24.7559 16.3571C24.3589 16.6423 23.9846 16.6098 23.6328 16.2594C23.5253 15.8637 23.4765 15.4568 23.4864 15.0387C23.4765 14.6207 23.5253 14.2137 23.6328 13.818C23.9846 13.4676 24.3589 13.4351 24.7559 13.7204Z" fill="#FFB19F"/>
<path opacity="0.988" fill-rule="evenodd" clip-rule="evenodd" d="M11.1817 13.9162C11.0867 16.2418 11.0541 18.553 11.0841 20.8498C8.51796 21.0662 7.21588 19.8943 7.17783 17.3342C7.06954 16.0211 7.55782 15.012 8.64267 14.3068C9.44365 13.9468 10.29 13.8165 11.1817 13.9162Z" fill="#FECDBE"/>
<path opacity="0.989" fill-rule="evenodd" clip-rule="evenodd" d="M28.4668 13.9156C29.3215 13.831 30.1353 13.9612 30.9082 14.3063C31.1887 14.4065 31.4328 14.5692 31.6406 14.7946C32.249 15.5456 32.5257 16.4082 32.4707 17.3824C32.3311 19.9145 30.9965 21.07 28.4668 20.8492C28.4668 18.538 28.4668 16.2269 28.4668 13.9156Z" fill="#FEAF9D"/>
<path fill-rule="evenodd" clip-rule="evenodd" d="M19.1894 14.6974C19.4842 14.6813 19.7771 14.6976 20.0684 14.7462C20.569 15.0209 20.6667 15.3952 20.3613 15.8693C20.1023 16.0726 19.8094 16.2028 19.4824 16.2599C19.222 16.5204 19.222 16.7807 19.4824 17.0412C19.908 17.0991 20.2498 17.2944 20.5078 17.6271C20.611 18.0554 20.4645 18.3647 20.0684 18.5548C18.4636 18.5772 17.7311 17.7796 17.8711 16.1623C18.0921 15.4696 18.5315 14.9813 19.1894 14.6974Z" fill="#FFB19F"/>
<path fill-rule="evenodd" clip-rule="evenodd" d="M16.2598 20.0683C16.7266 19.9844 17.0684 20.1472 17.2852 20.5566C17.2607 21.6388 17.7653 22.3386 18.7988 22.6562C19.4499 22.7213 20.1009 22.7213 20.752 22.6562C21.8229 22.3227 22.3601 21.5902 22.3633 20.4589C22.819 19.9381 23.2747 19.9381 23.7305 20.4589C23.7855 22.3196 22.9229 23.5078 21.1426 24.0233C20.1985 24.0885 19.2546 24.0885 18.3105 24.0233C16.5746 23.4602 15.7771 22.272 15.918 20.4589C15.9854 20.2782 16.0992 20.148 16.2598 20.0683Z" fill="#FFB09E"/>
<path fill-rule="evenodd" clip-rule="evenodd" d="M4.93164 30.9084C4.31315 30.9084 3.69466 30.9084 3.07617 30.9084C3.11783 29.568 3.069 28.2333 2.92969 26.9045C2.60673 26.2402 2.13473 25.7194 1.51367 25.342C3.29876 24.8919 4.42181 25.5755 4.88281 27.3928C4.93163 28.5642 4.9479 29.7361 4.93164 30.9084Z" fill="#FFB09E"/>
<path fill-rule="evenodd" clip-rule="evenodd" d="M25.5371 25.8301C32.2754 25.8301 39.0137 25.8301 45.752 25.8301C46.0435 26.0015 46.2876 26.2293 46.4844 26.5137C46.5495 33.7728 46.5495 41.0319 46.4844 48.291C46.2488 48.8035 45.8744 49.1615 45.3613 49.3652C36.6699 49.3652 27.9785 49.3652 19.2871 49.3652C19.2871 48.1608 19.2871 46.9563 19.2871 45.752C19.2871 41.2923 19.2871 36.8327 19.2871 32.373C19.2871 30.5176 19.2871 28.6621 19.2871 26.8066C19.4284 26.3072 19.7539 26.0143 20.2637 25.9277C22.0261 25.9577 23.7839 25.9251 25.5371 25.8301Z" fill="#EA4B98"/>
<path fill-rule="evenodd" clip-rule="evenodd" d="M45.752 25.8303C46.8592 25.814 47.966 25.8303 49.0723 25.8792C49.4653 25.9644 49.7583 26.1759 49.9512 26.5139C49.9512 33.773 49.9512 41.0322 49.9512 48.2913C49.7762 48.8078 49.4181 49.1496 48.877 49.3167C47.7056 49.3655 46.5337 49.3818 45.3613 49.3655C45.8744 49.1618 46.2488 48.8038 46.4844 48.2913C46.5495 41.0322 46.5495 33.773 46.4844 26.5139C46.2876 26.2296 46.0435 26.0017 45.752 25.8303Z" fill="#EA4B98"/>
<path opacity="0.997" fill-rule="evenodd" clip-rule="evenodd" d="M15.2831 26.416C15.3888 26.4198 15.4865 26.4524 15.5761 26.5137C15.6412 27.408 15.7062 28.2869 15.7714 29.1504C16.8161 30.1953 17.8903 31.2044 18.994 32.1777C17.2888 33.6385 15.5961 35.1196 13.9159 36.6211C13.5721 36.8582 13.2953 36.8094 13.0858 36.4746C13.0694 34.4071 13.0206 32.3563 12.9393 30.3223C12.8738 29.5101 12.9877 28.7288 13.2811 27.9785C13.9387 27.4337 14.6059 26.9129 15.2831 26.416Z" fill="#F4F7F8"/>
<path fill-rule="evenodd" clip-rule="evenodd" d="M19.2871 26.8066C19.2871 28.6621 19.2871 30.5176 19.2871 32.373C19.1895 32.3079 19.0918 32.2429 18.9941 32.1777C17.8904 31.2044 16.8162 30.1953 15.7715 29.1504C15.7715 28.304 15.7715 27.4577 15.7715 26.6113C16.9343 26.7878 18.1062 26.8528 19.2871 26.8066Z" fill="#FECEBF"/>
<path opacity="0.997" fill-rule="evenodd" clip-rule="evenodd" d="M12.9394 30.3223C13.0207 32.3563 13.0695 34.4071 13.0859 36.4746C13.2954 36.8094 13.5722 36.8582 13.916 36.6211C15.5962 35.1196 17.2889 33.6385 18.9941 32.1777C19.0918 32.2429 19.1894 32.3079 19.2871 32.373C19.2871 36.8327 19.2871 41.2923 19.2871 45.752C16.2596 45.7356 13.2322 45.752 10.2051 45.8008C9.69427 46.0188 9.35248 46.3931 9.17968 46.9238C9.13089 47.737 9.11461 48.5508 9.13086 49.3652C6.72178 49.3815 4.31293 49.3652 1.90429 49.3164C1.43229 49.1048 1.09049 48.763 0.878903 48.291C0.83008 46.4684 0.813805 44.6455 0.830075 42.8223C1.23553 43.1224 1.69127 43.3177 2.19726 43.4082C3.41731 43.5215 4.65428 43.5378 5.9082 43.457C6.98096 43.1639 7.42042 42.464 7.22656 41.3574C7.04753 40.8528 6.70573 40.511 6.20117 40.332C7.29383 39.7785 7.57052 38.9484 7.03125 37.8418C6.81012 37.5554 6.53343 37.3438 6.20117 37.207C7.33392 36.5967 7.57806 35.7341 6.93359 34.6191C6.74841 34.4209 6.53682 34.2581 6.29882 34.1309C7.08769 33.7201 7.41322 33.0691 7.27539 32.1777C9.17712 31.598 11.0651 30.9796 12.9394 30.3223Z" fill="#F07FB6"/>
<path fill-rule="evenodd" clip-rule="evenodd" d="M1.51367 25.3418C2.13472 25.7191 2.60673 26.2399 2.92968 26.9043C3.069 28.2331 3.11783 29.5678 3.07617 30.9082C3.69465 30.9082 4.31315 30.9082 4.93164 30.9082C5.7553 30.7759 6.45517 31.0037 7.03125 31.5918C7.14082 31.778 7.22219 31.9733 7.27539 32.1777C7.41322 33.0691 7.08769 33.7201 6.29882 34.1309C6.53682 34.2581 6.74841 34.4209 6.93359 34.6191C7.57806 35.7341 7.33392 36.5967 6.20117 37.207C6.53343 37.3438 6.81012 37.5554 7.03125 37.8418C7.57052 38.9484 7.29383 39.7785 6.20117 40.332C6.70573 40.511 7.04753 40.8528 7.22656 41.3574C7.42042 42.464 6.98096 43.1639 5.9082 43.457C4.65428 43.5378 3.41731 43.5215 2.19726 43.4082C3.21456 43.0255 3.88187 42.3093 4.19922 41.2598C4.26432 38.5579 4.26432 35.8562 4.19922 33.1543C3.89251 32.0336 3.17636 31.35 2.05078 31.1035C1.66166 31.1924 1.2873 31.3226 0.927731 31.4941C0.911461 29.7035 0.927737 27.9131 0.976559 26.123C1.03624 25.7744 1.21528 25.514 1.51367 25.3418Z" fill="#FECDBF"/>
<path opacity="0.998" fill-rule="evenodd" clip-rule="evenodd" d="M2.19727 43.4082C1.69127 43.3177 1.23554 43.1224 0.830078 42.8223C0.437251 42.4264 0.144282 41.9706 -0.0488281 41.4551C-0.0488281 38.623 -0.0488281 35.791 -0.0488281 32.959C0.153063 32.3937 0.478585 31.9054 0.927734 31.4941C1.2873 31.3226 1.66166 31.1924 2.05078 31.1035C3.17637 31.35 3.89251 32.0336 4.19922 33.1543C4.26433 35.8562 4.26433 38.5579 4.19922 41.2598C3.88188 42.3093 3.21456 43.0255 2.19727 43.4082Z" fill="#FEDECE"/>
<path fill-rule="evenodd" clip-rule="evenodd" d="M34.4238 35.7912C35.7841 36.3983 36.1259 37.3748 35.4491 38.7209C35.1779 39.0439 34.8361 39.2555 34.4238 39.3557C35.4649 39.4045 36.5066 39.4208 37.5488 39.4045C37.0126 39.4696 36.4592 39.5021 35.8886 39.5022C34.3585 39.4576 32.8285 39.4088 31.2988 39.3557C30.0655 38.7355 29.7562 37.8077 30.371 36.5725C30.6388 36.2194 30.9806 35.9752 31.3964 35.8401C32.405 35.7912 33.4141 35.775 34.4238 35.7912Z" fill="white"/>
<path fill-rule="evenodd" clip-rule="evenodd" d="M34.4238 35.7913C35.5636 35.775 36.7029 35.7913 37.8418 35.8401C39.0183 36.2887 39.4251 37.1188 39.0625 38.3303C38.7683 38.9897 38.2638 39.3478 37.5488 39.4046C36.5066 39.4209 35.4649 39.4046 34.4238 39.3557C34.8361 39.2555 35.1779 39.0439 35.4492 38.721C36.126 37.3749 35.7842 36.3983 34.4238 35.7913Z" fill="white"/>
<path opacity="0.991" fill-rule="evenodd" clip-rule="evenodd" d="M19.2871 45.7522C19.2871 46.9566 19.2871 48.1611 19.2871 49.3655C15.9016 49.3655 12.5163 49.3655 9.13084 49.3655C9.11459 48.551 9.13087 47.7373 9.17967 46.9241C9.35247 46.3933 9.69426 46.019 10.2051 45.801C13.2322 45.7522 16.2596 45.7359 19.2871 45.7522Z" fill="#465A61"/>
</g>
<defs>
<clipPath id="clip0_732_337">
<rect width="50" height="50" fill="white"/>
</clipPath>
</defs>
</svg>
