<svg width="24" height="24" viewBox="0 0 24 24" fill="none" xmlns="http://www.w3.org/2000/svg">
<g clip-path="url(#clip0_1718_1389)">
<path opacity="0.995" fill-rule="evenodd" clip-rule="evenodd" d="M8.69531 1.42969C10.8829 1.42187 13.0704 1.42969 15.2578 1.45313C16.1094 1.67969 16.6485 2.21875 16.875 3.07031C16.8984 3.46063 16.9062 3.85125 16.8984 4.24219C18.8672 4.23437 20.836 4.24219 22.8047 4.26563C21.8938 6.99839 20.9641 9.72497 20.0156 12.4453C19.9345 12.5445 19.8329 12.6149 19.7109 12.6563C18.3048 12.6797 16.8985 12.6875 15.4922 12.6797C15.505 12.3642 15.4816 12.0517 15.4219 11.7422C15.3516 11.5469 15.2188 11.4141 15.0234 11.3438C14.0097 11.2904 12.9941 11.2669 11.9766 11.2734C10.959 11.2669 9.94341 11.2904 8.92969 11.3438C8.73436 11.4141 8.60156 11.5469 8.53125 11.7422C8.47153 12.0517 8.44809 12.3642 8.46094 12.6797C7.05459 12.6875 5.64834 12.6797 4.24219 12.6563C4.1202 12.6149 4.01864 12.5445 3.9375 12.4453C2.98905 9.72497 2.05936 6.99839 1.14844 4.26563C3.11713 4.24219 5.08589 4.23437 7.05469 4.24219C6.85477 3.11243 7.22977 2.24524 8.17969 1.64063C8.35814 1.57367 8.53003 1.50336 8.69531 1.42969ZM9.16406 2.83594C11.119 2.81381 13.0722 2.83725 15.0234 2.90625C15.2188 2.97656 15.3516 3.10937 15.4219 3.30469C15.4816 3.61419 15.505 3.9267 15.4922 4.24219C13.1484 4.24219 10.8047 4.24219 8.46094 4.24219C8.44809 3.9267 8.47153 3.61419 8.53125 3.30469C8.67103 3.0471 8.88197 2.89085 9.16406 2.83594Z" fill="#C68E00"/>
<path opacity="0.996" fill-rule="evenodd" clip-rule="evenodd" d="M-0.0234375 5.03906C0.840506 7.56052 1.69207 10.0918 2.53125 12.6328C2.82027 13.3593 3.34371 13.8202 4.10156 14.0156C5.55342 14.0826 7.00655 14.106 8.46094 14.0859C8.44809 14.4014 8.47153 14.7139 8.53125 15.0234C8.60156 15.2188 8.73436 15.3516 8.92969 15.4219C9.94341 15.4753 10.959 15.4987 11.9766 15.4922C12.9941 15.4987 14.0097 15.4753 15.0234 15.4219C15.2188 15.3516 15.3516 15.2188 15.4219 15.0234C15.4816 14.7139 15.505 14.4014 15.4922 14.0859C16.9466 14.106 18.3997 14.0826 19.8516 14.0156C20.6094 13.8202 21.1328 13.3593 21.4219 12.6328C22.2611 10.0918 23.1126 7.56052 23.9766 5.03906C23.9766 10.3203 23.9766 15.6015 23.9766 20.8828C23.7351 21.7258 23.1882 22.2649 22.3359 22.5C15.4297 22.5313 8.52342 22.5313 1.61719 22.5C0.76492 22.2649 0.218046 21.7258 -0.0234375 20.8828C-0.0234375 15.6015 -0.0234375 10.3203 -0.0234375 5.03906Z" fill="#C68E00"/>
<path fill-rule="evenodd" clip-rule="evenodd" d="M9.86719 12.6797C11.2734 12.6797 12.6797 12.6797 14.0859 12.6797C14.0859 13.1484 14.0859 13.6172 14.0859 14.0859C12.6797 14.0859 11.2734 14.0859 9.86719 14.0859C9.86719 13.6172 9.86719 13.1484 9.86719 12.6797Z" fill="#C68E00"/>
</g>
<defs>
<clipPath id="clip0_1718_1389">
<rect width="24" height="24" fill="white"/>
</clipPath>
</defs>
</svg>
