<svg width="50" height="50" viewBox="0 0 50 50" fill="none" xmlns="http://www.w3.org/2000/svg">
<g clip-path="url(#clip0_2024_304)">
<path opacity="0.992" fill-rule="evenodd" clip-rule="evenodd" d="M24.6581 0.73246C25.1014 0.679423 25.4758 0.809631 25.7812 1.12309C26.2407 2.05844 26.7127 2.98617 27.1972 3.90629C28.2043 4.11212 29.2134 4.30743 30.2245 4.49223C30.4687 4.60616 30.6477 4.78519 30.7616 5.02934C30.8434 5.3999 30.8108 5.75798 30.664 6.10355C30.016 6.84929 29.3324 7.56543 28.6132 8.25199C28.6989 9.27644 28.8129 10.3018 28.955 11.3282C28.9164 12.2766 28.4281 12.6347 27.4901 12.4024C26.6591 11.938 25.8128 11.4986 24.9511 11.084C24.0894 11.4986 23.2431 11.938 22.412 12.4024C21.788 12.592 21.316 12.413 20.996 11.8653C21.0388 10.6551 21.1364 9.45064 21.289 8.25199C20.5697 7.56543 19.8861 6.84929 19.2382 6.10355C19.0913 5.75798 19.0588 5.3999 19.1405 5.02934C19.2545 4.78519 19.4335 4.60616 19.6776 4.49223C20.6888 4.30743 21.6979 4.11212 22.705 3.90629C23.1895 2.98617 23.6614 2.05844 24.121 1.12309C24.2675 0.930829 24.4465 0.80062 24.6581 0.73246Z" fill="#F9C82B"/>
<path opacity="0.992" fill-rule="evenodd" clip-rule="evenodd" d="M9.71674 7.373C10.1159 7.35283 10.4577 7.48305 10.7421 7.76362C11.2531 8.67156 11.725 9.5993 12.1581 10.5468C13.1603 10.7736 14.1695 10.9689 15.1855 11.1328C15.8515 11.5684 15.998 12.138 15.6249 12.8417C14.8797 13.5532 14.1799 14.3019 13.5253 15.0878C13.697 16.0941 13.8598 17.1032 14.0136 18.1152C13.8321 19.0033 13.3113 19.3126 12.4511 19.0429C11.621 18.6035 10.791 18.164 9.96088 17.7246C8.97289 18.2674 7.96378 18.7557 6.93354 19.1894C6.28574 19.095 5.94394 18.7207 5.90815 18.0664C6.05052 17.0496 6.21328 16.0404 6.39643 15.039C5.52261 14.2634 4.75764 13.4008 4.10151 12.4511C3.99646 11.9524 4.14294 11.5455 4.54096 11.2304C5.62189 11.007 6.69611 10.7628 7.76362 10.498C8.20307 9.61909 8.64252 8.74019 9.08198 7.86128C9.25824 7.63416 9.46983 7.47141 9.71674 7.373Z" fill="#F9C82B"/>
<path opacity="0.992" fill-rule="evenodd" clip-rule="evenodd" d="M39.6972 7.37307C40.1608 7.3375 40.5352 7.50025 40.8203 7.86135C41.2597 8.74026 41.6992 9.61917 42.1386 10.4981C43.1301 10.772 44.1392 10.9836 45.166 11.1328C45.8687 11.5555 46.0152 12.1252 45.6054 12.8418C44.9412 13.6038 44.2413 14.3363 43.5058 15.0391C43.7045 16.038 43.8672 17.0472 43.9941 18.0664C43.8434 18.988 43.3226 19.3135 42.4316 19.043C41.6092 18.5911 40.7792 18.1517 39.9414 17.7246C38.9833 18.3176 37.9742 18.8059 36.914 19.1895C36.2906 19.1031 35.9488 18.745 35.8886 18.1153C36.0425 17.1032 36.2052 16.0942 36.3769 15.0879C35.7223 14.302 35.0225 13.5532 34.2773 12.8418C33.9043 12.1381 34.0508 11.5685 34.7168 11.1328C35.7328 10.969 36.742 10.7737 37.7441 10.5469C38.1901 9.73633 38.5969 8.90626 38.9648 8.05667C39.1349 7.7397 39.3791 7.51184 39.6972 7.37307Z" fill="#F9C82B"/>
<path opacity="0.996" fill-rule="evenodd" clip-rule="evenodd" d="M24.9512 20.752C24.9512 24.6582 24.9512 28.5645 24.9512 32.4707C21.5521 32.5719 18.6225 33.7764 16.1621 36.084C13.3952 33.3496 10.6282 30.6152 7.86133 27.8809C12.5556 23.1758 18.2521 20.7994 24.9512 20.752Z" fill="#E99E31"/>
<path opacity="0.998" fill-rule="evenodd" clip-rule="evenodd" d="M24.9512 20.752C31.6502 20.7994 37.3468 23.1758 42.041 27.8809C39.2741 30.6152 36.5071 33.3496 33.7402 36.084C31.2799 33.7764 28.3502 32.5719 24.9512 32.4707C24.9512 28.5645 24.9512 24.6582 24.9512 20.752Z" fill="#F8C82B"/>
<path opacity="0.992" fill-rule="evenodd" clip-rule="evenodd" d="M7.86131 27.8809C10.6282 30.6152 13.3952 33.3496 16.1621 36.084C13.8096 38.5649 12.5889 41.5271 12.5 44.9707C12.4873 45.4042 12.2758 45.6809 11.8652 45.8008C10.1074 45.8171 8.34959 45.8333 6.59178 45.8496C4.76032 45.8647 2.9374 45.8159 1.12303 45.7031C0.971776 45.5846 0.857844 45.4381 0.781231 45.2637C0.726856 39.4042 2.51722 34.1959 6.15232 29.6387C6.67356 29.0035 7.24322 28.4176 7.86131 27.8809Z" fill="#D7342C"/>
<path opacity="0.992" fill-rule="evenodd" clip-rule="evenodd" d="M42.041 27.8809C45.6851 31.457 47.9475 35.7864 48.8281 40.8691C49.0716 42.3254 49.1692 43.7902 49.1211 45.2637C48.998 45.5496 48.7864 45.7286 48.4863 45.8008C45.0032 45.8659 41.5202 45.8659 38.0371 45.8008C37.7874 45.7339 37.6083 45.5874 37.5 45.3613C37.406 44.2154 37.2595 43.0761 37.0605 41.9434C39.0726 40.6436 41.1233 39.3903 43.2129 38.1836C43.6298 37.6963 43.5973 37.2406 43.1152 36.8164C42.9009 36.6823 42.6729 36.6498 42.4316 36.7187C40.2491 37.4848 38.0682 38.2497 35.8887 39.0137C35.2856 37.9549 34.5695 36.9783 33.7402 36.084C36.5071 33.3496 39.2741 30.6152 42.041 27.8809Z" fill="#2AA768"/>
<path opacity="0.99" fill-rule="evenodd" clip-rule="evenodd" d="M37.0605 41.9433C34.0947 43.6867 31.1 45.3794 28.0762 47.0215C28.6088 44.962 27.9252 43.4646 26.0254 42.5293C29.2847 41.2801 32.5725 40.1082 35.8887 39.0136C38.0682 38.2497 40.2491 37.4847 42.4316 36.7187C42.6729 36.6498 42.9009 36.6823 43.1152 36.8164C43.5973 37.2406 43.6298 37.6963 43.2129 38.1836C41.1233 39.3903 39.0726 40.6435 37.0605 41.9433Z" fill="#0A365D"/>
<path opacity="0.99" fill-rule="evenodd" clip-rule="evenodd" d="M26.0254 42.5293C27.9252 43.4647 28.6088 44.962 28.0762 47.0215C27.493 48.3833 26.4514 49.0995 24.9512 49.17C22.4234 48.8352 21.3329 47.403 21.6797 44.8731C22.4623 42.8783 23.9109 42.097 26.0254 42.5293Z" fill="#06283E"/>
</g>
<defs>
<clipPath id="clip0_2024_304">
<rect width="50" height="50" fill="white"/>
</clipPath>
</defs>
</svg>
