<svg width="50" height="50" viewBox="0 0 50 50" fill="none" xmlns="http://www.w3.org/2000/svg">
<g clip-path="url(#clip0_732_158)">
<path opacity="0.988" fill-rule="evenodd" clip-rule="evenodd" d="M22.4121 -0.0488281C26.7415 -0.0488281 31.071 -0.0488281 35.4004 -0.0488281C35.4004 0.992842 35.4004 2.0345 35.4004 3.07617C31.0614 3.20604 26.732 3.20604 22.4121 3.07617C22.4121 2.0345 22.4121 0.992842 22.4121 -0.0488281Z" fill="#EA4B98"/>
<path opacity="0.995" fill-rule="evenodd" clip-rule="evenodd" d="M22.4121 3.07617C26.732 3.20604 31.0614 3.20604 35.4004 3.07617C36.6374 3.07617 37.8743 3.07617 39.1113 3.07617C39.1113 7.66602 39.1113 12.2559 39.1113 16.8457C37.2569 17.838 35.3689 18.782 33.4473 19.6777C32.6979 19.9954 31.9655 20.3535 31.25 20.752C31.2012 22.4118 31.1849 24.072 31.2012 25.7324C27.8455 23.8597 24.5252 21.9392 21.2402 19.9707C21.143 14.3787 21.1104 8.77977 21.1426 3.17383C20.3613 3.17383 19.5801 3.17383 18.7988 3.17383C18.8312 8.30104 18.7987 13.4117 18.7012 18.5059C18.7012 13.3626 18.7012 8.2194 18.7012 3.07617C19.9382 3.07617 21.1751 3.07617 22.4121 3.07617Z" fill="#F07FB6"/>
<path fill-rule="evenodd" clip-rule="evenodd" d="M21.2402 19.9707C20.3938 19.5149 19.5476 19.0593 18.7012 18.6035C18.7012 18.571 18.7012 18.5384 18.7012 18.5059C18.7987 13.4117 18.8312 8.30104 18.7988 3.17383C19.5801 3.17383 20.3613 3.17383 21.1426 3.17383C21.1104 8.77977 21.143 14.3787 21.2402 19.9707Z" fill="#F07FB6"/>
<path fill-rule="evenodd" clip-rule="evenodd" d="M23.1934 6.39648C23.1934 7.37305 23.1934 8.34961 23.1934 9.32617C22.8353 9.32617 22.4772 9.32617 22.1191 9.32617C22.1191 8.34961 22.1191 7.37305 22.1191 6.39648C22.4772 6.39648 22.8353 6.39648 23.1934 6.39648Z" fill="#D3DDE6"/>
<path fill-rule="evenodd" clip-rule="evenodd" d="M23.1934 6.39648C24.4954 6.39648 25.7976 6.39648 27.0996 6.39648C27.0996 7.37305 27.0996 8.34961 27.0996 9.32617C25.7976 9.32617 24.4954 9.32617 23.1934 9.32617C23.1934 8.34961 23.1934 7.37305 23.1934 6.39648Z" fill="#E9F5FE"/>
<path fill-rule="evenodd" clip-rule="evenodd" d="M31.7871 6.39648C31.7871 7.37305 31.7871 8.34961 31.7871 9.32617C31.429 9.32617 31.071 9.32617 30.7129 9.32617C30.7129 8.34961 30.7129 7.37305 30.7129 6.39648C31.071 6.39648 31.429 6.39648 31.7871 6.39648Z" fill="#D3DDE6"/>
<path fill-rule="evenodd" clip-rule="evenodd" d="M31.7871 6.39648C33.0892 6.39648 34.3913 6.39648 35.6934 6.39648C35.6934 7.37305 35.6934 8.34961 35.6934 9.32617C34.3913 9.32617 33.0892 9.32617 31.7871 9.32617C31.7871 8.34961 31.7871 7.37305 31.7871 6.39648Z" fill="#E9F5FF"/>
<path fill-rule="evenodd" clip-rule="evenodd" d="M27.0996 12.1585C25.7976 12.1585 24.4954 12.1585 23.1934 12.1585C23.1934 13.1351 23.1934 14.1116 23.1934 15.0882C22.8353 15.0882 22.4772 15.0882 22.1191 15.0882C22.1191 14.0791 22.1191 13.0699 22.1191 12.0609C23.7964 12.0286 25.4565 12.0611 27.0996 12.1585Z" fill="#CBD6E1"/>
<path fill-rule="evenodd" clip-rule="evenodd" d="M27.0996 12.1582C27.0996 13.1348 27.0996 14.1113 27.0996 15.0879C25.7976 15.0879 24.4954 15.0879 23.1934 15.0879C23.1934 14.1113 23.1934 13.1348 23.1934 12.1582C24.4954 12.1582 25.7976 12.1582 27.0996 12.1582Z" fill="#E9F5FE"/>
<path fill-rule="evenodd" clip-rule="evenodd" d="M35.6934 12.1585C34.3913 12.1585 33.0892 12.1585 31.7871 12.1585C31.7871 13.1351 31.7871 14.1116 31.7871 15.0882C31.429 15.0882 31.071 15.0882 30.7129 15.0882C30.7129 14.0791 30.7129 13.0699 30.7129 12.0609C32.3901 12.0286 34.0503 12.0611 35.6934 12.1585Z" fill="#CAD6E1"/>
<path fill-rule="evenodd" clip-rule="evenodd" d="M35.6934 12.1582C35.6934 13.1348 35.6934 14.1113 35.6934 15.0879C34.3913 15.0879 33.0892 15.0879 31.7871 15.0879C31.7871 14.1113 31.7871 13.1348 31.7871 12.1582C33.0892 12.1582 34.3913 12.1582 35.6934 12.1582Z" fill="#E9F5FF"/>
<path opacity="0.998" fill-rule="evenodd" clip-rule="evenodd" d="M48.0957 49.9512C43.2129 49.9512 38.3301 49.9512 33.4473 49.9512C33.4473 43.9616 33.4473 37.972 33.4473 31.9824C34.7912 31.7777 35.5398 30.9965 35.6934 29.6387C35.8235 29.6387 35.9538 29.6387 36.084 29.6387C36.7351 29.6387 37.386 29.6387 38.0371 29.6387C38.0371 28.6946 38.0371 27.7507 38.0371 26.8066C37.386 26.8066 36.7351 26.8066 36.084 26.8066C35.791 26.8066 35.498 26.8066 35.2051 26.8066C35.2362 27.2815 35.2037 27.7373 35.1074 28.1738C34.5712 27.7592 34.0178 27.3686 33.4473 27.002C33.4473 24.5605 33.4473 22.1191 33.4473 19.6777C35.3689 18.782 37.2569 17.838 39.1113 16.8457C42.1189 15.4803 45.0975 14.0479 48.0469 12.5488C48.0957 25.0162 48.112 37.4837 48.0957 49.9512Z" fill="#F07FB6"/>
<path opacity="0.969" fill-rule="evenodd" clip-rule="evenodd" d="M11.9629 19.7754C10.498 19.6452 9.0332 19.6452 7.56836 19.7754C7.08008 19.7754 6.5918 19.7754 6.10352 19.7754C6.10352 18.9941 6.10352 18.2129 6.10352 17.4316C8.51237 17.4316 10.9212 17.4316 13.3301 17.4316C13.3301 18.2129 13.3301 18.9941 13.3301 19.7754C12.8743 19.7754 12.4187 19.7754 11.9629 19.7754Z" fill="#EA4B98"/>
<path opacity="0.998" fill-rule="evenodd" clip-rule="evenodd" d="M18.7012 18.6035C19.5476 19.0593 20.3938 19.5149 21.2402 19.9707C24.5252 21.9392 27.8455 23.8597 31.2012 25.7324C31.9243 26.1939 32.673 26.6171 33.4473 27.002C34.0178 27.3686 34.5712 27.7592 35.1074 28.1738C35.4907 28.5829 35.686 29.0712 35.6934 29.6387C35.5398 30.9965 34.7912 31.7777 33.4473 31.9824C33.1438 31.997 32.8509 31.9481 32.5684 31.8359C32.1232 31.5693 31.6675 31.3252 31.2012 31.1035C27.082 28.7021 22.9479 26.3258 18.7988 23.9746C15.3827 25.8453 11.9973 27.7659 8.64258 29.7363C8.64258 27.946 8.64258 26.1556 8.64258 24.3652C9.81445 23.8123 10.9212 23.1613 11.9629 22.4121C14.1958 21.1167 16.4419 19.8472 18.7012 18.6035Z" fill="#EA4B98"/>
<path opacity="0.998" fill-rule="evenodd" clip-rule="evenodd" d="M11.9629 19.7754C11.9629 20.6543 11.9629 21.5332 11.9629 22.4121C10.9212 23.1613 9.81445 23.8123 8.64258 24.3652C8.41455 24.5019 8.20296 24.6646 8.00781 24.8535C7.97526 24.821 7.94271 24.7884 7.91016 24.7558C7.84086 24.8997 7.72693 24.9648 7.56836 24.9511C7.56836 23.2259 7.56836 21.5007 7.56836 19.7754C9.0332 19.6452 10.498 19.6452 11.9629 19.7754Z" fill="#EA4B98"/>
<path fill-rule="evenodd" clip-rule="evenodd" d="M33.4473 19.6777C33.4473 22.1191 33.4473 24.5605 33.4473 27.002C32.6731 26.6171 31.9243 26.1939 31.2012 25.7324C31.1849 24.072 31.2012 22.4118 31.25 20.752C31.9655 20.3535 32.698 19.9954 33.4473 19.6777Z" fill="#EA4B98"/>
<path fill-rule="evenodd" clip-rule="evenodd" d="M36.084 21.1426C36.084 22.054 36.084 22.9655 36.084 23.877C36.7351 23.877 37.386 23.877 38.0371 23.877C37.1107 23.974 36.1668 24.0065 35.2051 23.9746C35.2051 23.0306 35.2051 22.0866 35.2051 21.1426C35.498 21.1426 35.791 21.1426 36.084 21.1426Z" fill="#CFDCE7"/>
<path fill-rule="evenodd" clip-rule="evenodd" d="M36.084 21.1426C36.7351 21.1426 37.386 21.1426 38.0371 21.1426C38.0371 22.054 38.0371 22.9655 38.0371 23.877C37.386 23.877 36.7351 23.877 36.084 23.877C36.084 22.9655 36.084 22.054 36.084 21.1426Z" fill="#E9F5FE"/>
<path fill-rule="evenodd" clip-rule="evenodd" d="M42.1387 21.1426C42.1387 22.054 42.1387 22.9655 42.1387 23.877C42.7897 23.877 43.4407 23.877 44.0918 23.877C43.1654 23.974 42.2215 24.0065 41.2598 23.9746C41.2598 23.0306 41.2598 22.0866 41.2598 21.1426C41.5527 21.1426 41.8457 21.1426 42.1387 21.1426Z" fill="#CFDCE7"/>
<path fill-rule="evenodd" clip-rule="evenodd" d="M42.1387 21.1426C42.7897 21.1426 43.4407 21.1426 44.0918 21.1426C44.0918 22.054 44.0918 22.9655 44.0918 23.877C43.4407 23.877 42.7897 23.877 42.1387 23.877C42.1387 22.9655 42.1387 22.054 42.1387 21.1426Z" fill="#E9F5FE"/>
<path fill-rule="evenodd" clip-rule="evenodd" d="M31.2012 31.1035C31.2012 37.386 31.2012 43.6687 31.2012 49.9512C28.4343 49.9512 25.6673 49.9512 22.9004 49.9512C22.9004 46.1426 22.9004 42.334 22.9004 38.5254C21.0124 38.5254 19.1243 38.5254 17.2363 38.5254C16.3574 38.5254 15.4785 38.5254 14.5996 38.5254C14.5996 42.334 14.5996 46.1426 14.5996 49.9512C12.614 49.9512 10.6282 49.9512 8.64258 49.9512C8.64258 43.2454 8.64258 36.5397 8.64258 29.834C8.64258 29.8015 8.64258 29.7688 8.64258 29.7363C11.9973 27.7659 15.3827 25.8453 18.7988 23.9746C22.9479 26.3258 27.082 28.7021 31.2012 31.1035Z" fill="#F07FB6"/>
<path fill-rule="evenodd" clip-rule="evenodd" d="M8.6427 24.3652C8.6427 26.1556 8.6427 27.946 8.6427 29.7363C8.6427 29.7688 8.6427 29.8015 8.6427 29.834C7.82863 30.2407 7.04738 30.6965 6.29895 31.2012C5.73118 31.5825 5.1127 31.8593 4.44348 32.0312C2.407 31.9812 1.54436 30.9558 1.85559 28.9551C2.00601 28.5724 2.21759 28.2306 2.49035 27.9297C4.1697 26.9111 5.86241 25.9183 7.56848 24.9512C7.72705 24.9648 7.84098 24.8997 7.91028 24.7559C7.94282 24.7884 7.97538 24.821 8.00793 24.8535C8.20308 24.6646 8.41467 24.502 8.6427 24.3652Z" fill="#EA4B98"/>
<path fill-rule="evenodd" clip-rule="evenodd" d="M36.084 26.8066C36.084 27.7507 36.084 28.6946 36.084 29.6387C35.9538 29.6387 35.8235 29.6387 35.6934 29.6387C35.686 29.0712 35.4907 28.5829 35.1074 28.1738C35.2037 27.7373 35.2362 27.2815 35.2051 26.8066C35.498 26.8066 35.791 26.8066 36.084 26.8066Z" fill="#D3DCE5"/>
<path fill-rule="evenodd" clip-rule="evenodd" d="M36.084 26.8066C36.7351 26.8066 37.386 26.8066 38.0371 26.8066C38.0371 27.7507 38.0371 28.6946 38.0371 29.6387C37.386 29.6387 36.7351 29.6387 36.084 29.6387C36.084 28.6946 36.084 27.7507 36.084 26.8066Z" fill="#E8F5FE"/>
<path fill-rule="evenodd" clip-rule="evenodd" d="M42.1387 26.8066C42.1387 27.7507 42.1387 28.6946 42.1387 29.6387C41.8457 29.6387 41.5527 29.6387 41.2598 29.6387C41.2598 28.6946 41.2598 27.7507 41.2598 26.8066C41.5527 26.8066 41.8457 26.8066 42.1387 26.8066Z" fill="#D3DDE6"/>
<path fill-rule="evenodd" clip-rule="evenodd" d="M42.1387 26.8066C42.7897 26.8066 43.4407 26.8066 44.0918 26.8066C44.0918 27.7507 44.0918 28.6946 44.0918 29.6387C43.4407 29.6387 42.7897 29.6387 42.1387 29.6387C42.1387 28.6946 42.1387 27.7507 42.1387 26.8066Z" fill="#E8F5FE"/>
<path fill-rule="evenodd" clip-rule="evenodd" d="M8.64258 29.834C8.64258 36.5397 8.64258 43.2454 8.64258 49.9512C7.86133 49.9512 7.08008 49.9512 6.29883 49.9512C6.29883 43.7012 6.29883 37.4512 6.29883 31.2012C7.04726 30.6965 7.82851 30.2407 8.64258 29.834Z" fill="#EA4B98"/>
<path fill-rule="evenodd" clip-rule="evenodd" d="M31.2012 31.1035C31.6675 31.3252 32.1232 31.5693 32.5684 31.8359C32.8509 31.9481 33.1438 31.997 33.4473 31.9824C33.4473 37.972 33.4473 43.9616 33.4473 49.9512C32.6985 49.9512 31.9499 49.9512 31.2012 49.9512C31.2012 43.6687 31.2012 37.386 31.2012 31.1035Z" fill="#EA4B98"/>
<path fill-rule="evenodd" clip-rule="evenodd" d="M36.084 32.5684C36.084 33.4798 36.084 34.3913 36.084 35.3027C36.7351 35.3027 37.386 35.3027 38.0371 35.3027C37.1107 35.3998 36.1668 35.4323 35.2051 35.4004C35.2051 34.4563 35.2051 33.5124 35.2051 32.5684C35.498 32.5684 35.791 32.5684 36.084 32.5684Z" fill="#D1DCE7"/>
<path fill-rule="evenodd" clip-rule="evenodd" d="M36.084 32.5684C36.7351 32.5684 37.386 32.5684 38.0371 32.5684C38.0371 33.4798 38.0371 34.3913 38.0371 35.3027C37.386 35.3027 36.7351 35.3027 36.084 35.3027C36.084 34.3913 36.084 33.4798 36.084 32.5684Z" fill="#E9F5FE"/>
<path fill-rule="evenodd" clip-rule="evenodd" d="M42.1387 32.5684C42.1387 33.4798 42.1387 34.3913 42.1387 35.3027C42.7897 35.3027 43.4407 35.3027 44.0918 35.3027C43.1654 35.3998 42.2215 35.4323 41.2598 35.4004C41.2598 34.4563 41.2598 33.5124 41.2598 32.5684C41.5527 32.5684 41.8457 32.5684 42.1387 32.5684Z" fill="#D1DCE7"/>
<path fill-rule="evenodd" clip-rule="evenodd" d="M42.1387 32.5684C42.7897 32.5684 43.4407 32.5684 44.0918 32.5684C44.0918 33.4798 44.0918 34.3913 44.0918 35.3027C43.4407 35.3027 42.7897 35.3027 42.1387 35.3027C42.1387 34.3913 42.1387 33.4798 42.1387 32.5684Z" fill="#E9F5FE"/>
<path fill-rule="evenodd" clip-rule="evenodd" d="M36.084 38.2324C36.084 39.1765 36.084 40.1204 36.084 41.0645C35.791 41.0645 35.498 41.0645 35.2051 41.0645C35.2051 40.1204 35.2051 39.1765 35.2051 38.2324C35.498 38.2324 35.791 38.2324 36.084 38.2324Z" fill="#D3DDE6"/>
<path fill-rule="evenodd" clip-rule="evenodd" d="M36.084 38.2324C36.7351 38.2324 37.386 38.2324 38.0371 38.2324C38.0371 39.1765 38.0371 40.1204 38.0371 41.0645C37.386 41.0645 36.7351 41.0645 36.084 41.0645C36.084 40.1204 36.084 39.1765 36.084 38.2324Z" fill="#E8F5FE"/>
<path fill-rule="evenodd" clip-rule="evenodd" d="M44.0918 38.3302C43.4407 38.3302 42.7897 38.3302 42.1387 38.3302C42.1387 39.2416 42.1387 40.1532 42.1387 41.0646C41.8457 41.0646 41.5527 41.0646 41.2598 41.0646C41.2598 40.1206 41.2598 39.1766 41.2598 38.2326C42.2215 38.2006 43.1654 38.2332 44.0918 38.3302Z" fill="#D2DDE7"/>
<path fill-rule="evenodd" clip-rule="evenodd" d="M44.0918 38.3301C44.0918 39.2415 44.0918 40.153 44.0918 41.0645C43.4407 41.0645 42.7897 41.0645 42.1387 41.0645C42.1387 40.153 42.1387 39.2415 42.1387 38.3301C42.7897 38.3301 43.4407 38.3301 44.0918 38.3301Z" fill="#E9F5FE"/>
<path fill-rule="evenodd" clip-rule="evenodd" d="M17.2363 38.5254C19.1243 38.5254 21.0124 38.5254 22.9004 38.5254C22.9004 42.334 22.9004 46.1426 22.9004 49.9512C21.0124 49.9512 19.1243 49.9512 17.2363 49.9512C17.2363 46.1426 17.2363 42.334 17.2363 38.5254Z" fill="#EA4B98"/>
<path fill-rule="evenodd" clip-rule="evenodd" d="M17.2363 38.5254C17.2363 42.334 17.2363 46.1426 17.2363 49.9512C16.3574 49.9512 15.4785 49.9512 14.5996 49.9512C14.5996 46.1426 14.5996 42.334 14.5996 38.5254C15.4785 38.5254 16.3574 38.5254 17.2363 38.5254Z" fill="#EA4B98"/>
<path fill-rule="evenodd" clip-rule="evenodd" d="M36.084 43.9941C36.084 44.9056 36.084 45.8171 36.084 46.7285C36.7351 46.7285 37.386 46.7285 38.0371 46.7285C37.1107 46.8256 36.1668 46.8581 35.2051 46.8262C35.2051 45.8821 35.2051 44.9382 35.2051 43.9941C35.498 43.9941 35.791 43.9941 36.084 43.9941Z" fill="#D1DDE7"/>
<path fill-rule="evenodd" clip-rule="evenodd" d="M36.084 43.9941C36.7351 43.9941 37.386 43.9941 38.0371 43.9941C38.0371 44.9056 38.0371 45.8171 38.0371 46.7285C37.386 46.7285 36.7351 46.7285 36.084 46.7285C36.084 45.8171 36.084 44.9056 36.084 43.9941Z" fill="#E9F5FE"/>
<path fill-rule="evenodd" clip-rule="evenodd" d="M42.1387 43.9941C42.1387 44.9056 42.1387 45.8171 42.1387 46.7285C42.7897 46.7285 43.4407 46.7285 44.0918 46.7285C43.1654 46.8256 42.2215 46.8581 41.2598 46.8262C41.2598 45.8821 41.2598 44.9382 41.2598 43.9941C41.5527 43.9941 41.8457 43.9941 42.1387 43.9941Z" fill="#D1DDE7"/>
<path fill-rule="evenodd" clip-rule="evenodd" d="M42.1387 43.9941C42.7897 43.9941 43.4407 43.9941 44.0918 43.9941C44.0918 44.9056 44.0918 45.8171 44.0918 46.7285C43.4407 46.7285 42.7897 46.7285 42.1387 46.7285C42.1387 45.8171 42.1387 44.9056 42.1387 43.9941Z" fill="#E9F5FE"/>
</g>
<defs>
<clipPath id="clip0_732_158">
<rect width="50" height="50" fill="white"/>
</clipPath>
</defs>
</svg>
