<svg width="24" height="24" viewBox="0 0 24 24" fill="none" xmlns="http://www.w3.org/2000/svg">
<path opacity="0.993" fill-rule="evenodd" clip-rule="evenodd" d="M21.9278 12.2026C20.1026 12.1279 18.2727 12.1171 16.4383 12.1703C16.3577 12.2668 16.3577 12.3637 16.4383 12.4609C17.3827 12.5035 18.3299 12.525 19.2799 12.5255C20.2281 12.5254 21.1538 12.4824 22.0569 12.3963C22.5533 13.4133 22.3596 14.2744 21.4757 14.9796C19.4567 14.9048 17.4332 14.8941 15.405 14.9473C15.2944 15.0205 15.2622 15.1174 15.3081 15.238C17.4133 15.324 19.5123 15.324 21.6049 15.238C22.0664 16.2901 21.8297 17.1512 20.8944 17.8212C18.6339 17.8105 16.3736 17.8212 14.1133 17.8535C14.017 17.9841 14.0385 18.0917 14.1779 18.1765C16.4812 18.2087 18.7847 18.2195 21.0882 18.2087C21.3484 19.0716 21.1546 19.8143 20.507 20.4368C20.3208 20.5407 20.1271 20.6268 19.9257 20.6952C16.4383 20.7275 12.9509 20.7382 9.46338 20.7275C9.52667 16.9613 9.54824 13.1941 9.52796 9.42555C10.5835 8.15502 11.3908 6.73421 11.9498 5.16312C11.992 4.25051 12.0996 3.34635 12.2727 2.45066C12.3888 1.86245 12.701 1.42109 13.2092 1.12672C13.7128 0.99924 14.1433 1.11762 14.5008 1.48193C15.6656 2.96545 16.0854 4.64459 15.7602 6.51935C15.6477 7.29194 15.4648 8.04536 15.2112 8.77973C17.2564 8.76894 19.3015 8.77973 21.3465 8.81202C22.2206 9.06227 22.6943 9.64352 22.7673 10.5557C22.7436 10.9113 22.6468 11.2449 22.4767 11.5568C22.2991 11.7873 22.1161 12.0026 21.9278 12.2026Z" fill="#FDD6AC"/>
<path opacity="0.991" fill-rule="evenodd" clip-rule="evenodd" d="M9.52789 9.42544C9.54817 13.1939 9.5266 16.9612 9.46331 20.7273C9.29617 21.3146 8.93025 21.7344 8.36541 21.9867C6.78689 22.3046 5.21535 22.6167 3.65091 22.9231C3.32799 22.9231 3.00508 22.9231 2.68217 22.9231C1.80312 22.5242 1.31876 21.8353 1.22907 20.8565C1.18601 16.9816 1.18601 13.1066 1.22907 9.23169C1.31206 8.25572 1.79643 7.57761 2.68217 7.19735C2.98358 7.15427 3.28492 7.15427 3.58632 7.19735C5.18538 7.47098 6.77837 7.77239 8.36541 8.1015C8.95363 8.37688 9.34112 8.81817 9.52789 9.42544Z" fill="#8669DB"/>
<path fill-rule="evenodd" clip-rule="evenodd" d="M4.93502 14.7149C6.62539 14.5864 7.43267 15.3614 7.35685 17.0398C6.98447 18.1359 6.22027 18.6202 5.06418 18.4929C3.9431 18.1031 3.45873 17.3174 3.61108 16.1357C3.82155 15.441 4.26284 14.9675 4.93502 14.7149Z" fill="#453671"/>
<path fill-rule="evenodd" clip-rule="evenodd" d="M5.00708 9.167C6.35639 9.02163 7.10981 9.61365 7.26746 10.943C7.05905 12.335 6.26256 12.8947 4.87791 12.6222C3.88418 12.1306 3.52898 11.3448 3.8123 10.2649C4.05985 9.72641 4.45813 9.36043 5.00708 9.167Z" fill="#614C9F"/>
<path fill-rule="evenodd" clip-rule="evenodd" d="M21.9203 12.1563C21.9784 12.2073 22.0215 12.2719 22.0494 12.35C21.1463 12.4361 20.2206 12.4791 19.2724 12.4792C18.3224 12.4787 17.3752 12.4572 16.4308 12.4146C16.3502 12.3174 16.3502 12.2205 16.4308 12.124C18.2652 12.0708 20.0951 12.0816 21.9203 12.1563Z" fill="#FDC29C"/>
<path fill-rule="evenodd" clip-rule="evenodd" d="M21.4681 14.9327C21.5391 15.0041 21.5822 15.0902 21.5973 15.191C19.5047 15.2771 17.4057 15.2771 15.3005 15.191C15.2546 15.0705 15.2869 14.9736 15.3974 14.9004C17.4256 14.8471 19.4491 14.8579 21.4681 14.9327Z" fill="#FDC39D"/>
<path fill-rule="evenodd" clip-rule="evenodd" d="M20.8868 17.7746C20.9514 17.9037 21.016 18.0329 21.0805 18.162C18.777 18.1728 16.4736 18.162 14.1702 18.1298C14.0309 18.045 14.0094 17.9374 14.1057 17.8068C16.3659 17.7746 18.6263 17.7638 20.8868 17.7746Z" fill="#FDC39C"/>
</svg>
