<svg width="24" height="24" viewBox="0 0 24 24" fill="none" xmlns="http://www.w3.org/2000/svg">
<g clip-path="url(#clip0_1718_1697)">
<path opacity="0.975" fill-rule="evenodd" clip-rule="evenodd" d="M12.4454 2.74229C12.4473 2.87938 12.4082 3.00438 12.3282 3.11729C12.1167 3.39887 11.8432 3.59419 11.5079 3.70323C11.2922 3.92686 11.2688 4.16905 11.4376 4.42979C11.615 4.57708 11.8103 4.69426 12.0235 4.78135C12.2201 4.95001 12.3764 5.14534 12.4923 5.36729C12.4213 5.62534 12.2495 5.76596 11.9767 5.78917C11.8622 5.76404 11.7528 5.72499 11.6485 5.67198C11.4982 5.4729 11.3653 5.26196 11.2501 5.03917C11.0606 4.83399 10.834 4.68556 10.5704 4.59385C10.3274 4.36195 10.2727 4.08851 10.4063 3.77354C10.5822 3.62688 10.7775 3.50969 10.9923 3.42198C11.0939 3.32041 11.1954 3.21885 11.297 3.11729C11.3847 2.90255 11.5019 2.70724 11.6485 2.53135C11.8302 2.46008 12.0177 2.44446 12.211 2.48448C12.3319 2.5349 12.4101 2.62084 12.4454 2.74229Z" fill="#FFA95F"/>
<path opacity="0.986" fill-rule="evenodd" clip-rule="evenodd" d="M12.4454 2.74219C12.5537 3.01178 12.7256 3.23835 12.961 3.42188C13.1758 3.50959 13.3711 3.62678 13.547 3.77344C13.6806 4.08841 13.6259 4.36185 13.3829 4.59375C12.9751 4.72842 12.6782 4.98623 12.4923 5.36719C12.3764 5.14523 12.2201 4.94991 12.0235 4.78125C11.8103 4.69416 11.615 4.57698 11.4376 4.42969C11.2688 4.16895 11.2922 3.92676 11.5079 3.70312C11.8432 3.59408 12.1167 3.39877 12.3282 3.11719C12.4082 3.00427 12.4473 2.87927 12.4454 2.74219Z" fill="#FFC168"/>
<path opacity="0.996" fill-rule="evenodd" clip-rule="evenodd" d="M2.08594 7.80467C1.65942 7.92669 1.40161 8.20794 1.3125 8.64842C1.28125 11.8359 1.28125 15.0234 1.3125 18.2109C1.4018 18.6516 1.65961 18.9328 2.08594 19.0547C1.61693 19.0625 1.14818 19.0547 0.679688 19.0312C0.34722 18.9252 0.112845 18.7142 -0.0234375 18.3984C-0.0234375 15.0859 -0.0234375 11.7734 -0.0234375 8.46092C0.111688 8.14639 0.346063 7.93546 0.679688 7.82811C1.14818 7.80467 1.61693 7.79689 2.08594 7.80467Z" fill="#FFA95F"/>
<path opacity="0.998" fill-rule="evenodd" clip-rule="evenodd" d="M2.08594 7.80469C2.77362 7.79687 3.46112 7.80469 4.14844 7.82813C4.5 7.92971 4.72655 8.15626 4.82813 8.50782C4.85156 8.88249 4.85935 9.25749 4.85156 9.63282C4.85156 12.336 4.85156 15.0391 4.85156 17.7422C4.95642 18.2968 4.76892 18.7109 4.28906 18.9844C3.55802 19.0525 2.82364 19.0759 2.08594 19.0547C1.65961 18.9329 1.4018 18.6516 1.3125 18.2109C1.28125 15.0234 1.28125 11.8359 1.3125 8.64844C1.40161 8.20796 1.65942 7.92671 2.08594 7.80469Z" fill="#FEC169"/>
<path opacity="0.996" fill-rule="evenodd" clip-rule="evenodd" d="M19.1015 9.1172C19.1015 11.5234 19.1015 13.9297 19.1015 16.3359C18.3046 16.3359 17.5077 16.3359 16.7108 16.3359C16.8063 15.9592 16.7673 15.5998 16.5936 15.2578C15.4827 14.0922 14.3499 12.9516 13.1952 11.8359C13.4962 11.7486 13.7931 11.647 14.0858 11.5313C14.285 11.3062 14.2694 11.1031 14.039 10.9219C13.9139 10.8906 13.789 10.8906 13.664 10.9219C13.3201 11.0319 12.992 11.1647 12.6796 11.3203C11.8748 11.5818 11.0779 11.8709 10.289 12.1875C9.67893 12.3005 9.24927 12.0739 8.9999 11.5078C8.89293 11.0705 8.99446 10.6955 9.30459 10.3828C9.83212 9.97126 10.3477 9.54939 10.8515 9.1172C11.3261 8.63537 11.873 8.25254 12.4921 7.96876C12.6758 7.90721 12.8633 7.86034 13.0546 7.82814C13.8671 7.79687 14.6796 7.79687 15.4921 7.82814C15.8197 7.90604 16.1166 8.04667 16.3827 8.25001C16.6935 8.60832 17.0685 8.87396 17.5077 9.04689C18.0364 9.11171 18.5676 9.13515 19.1015 9.1172Z" fill="#D29771"/>
<path opacity="0.995" fill-rule="evenodd" clip-rule="evenodd" d="M21.164 7.80467C20.8437 7.92266 20.6171 8.14142 20.4844 8.46092C20.4531 11.7578 20.4531 15.0547 20.4844 18.3515C20.6128 18.7316 20.8707 18.966 21.2578 19.0547C20.7732 19.0625 20.2888 19.0547 19.8047 19.0312C19.4531 18.9297 19.2266 18.7031 19.125 18.3515C19.1015 17.6799 19.0937 17.008 19.1015 16.3359C19.1015 13.9297 19.1015 11.5234 19.1015 9.11717C19.0164 8.66164 19.1414 8.27886 19.4765 7.96874C19.5805 7.90897 19.6899 7.8621 19.8047 7.82811C20.2575 7.80467 20.7107 7.79689 21.164 7.80467Z" fill="#78C2A3"/>
<path opacity="0.998" fill-rule="evenodd" clip-rule="evenodd" d="M21.1641 7.80469C21.8674 7.79687 22.5705 7.80469 23.2734 7.82813C23.6071 7.93548 23.8414 8.14641 23.9766 8.46094C23.9766 11.7735 23.9766 15.0859 23.9766 18.3984C23.8414 18.713 23.6071 18.9239 23.2734 19.0313C22.6018 19.0547 21.9299 19.0625 21.2578 19.0547C20.8707 18.966 20.6129 18.7316 20.4844 18.3516C20.4531 15.0547 20.4531 11.7578 20.4844 8.46094C20.6171 8.14144 20.8437 7.92268 21.1641 7.80469Z" fill="#94D5A4"/>
<path opacity="0.996" fill-rule="evenodd" clip-rule="evenodd" d="M10.8516 9.11766C10.3478 9.54985 9.83222 9.97173 9.30469 10.3833C8.99456 10.696 8.89303 11.071 9 11.5083C9.24938 12.0744 9.67903 12.3009 10.2891 12.188C11.078 11.8714 11.8749 11.5823 12.6797 11.3208C12.8672 11.477 13.0391 11.6489 13.1953 11.8364C14.35 12.952 15.4828 14.0926 16.5938 15.2583C16.7674 15.6002 16.8064 15.9596 16.7109 16.3364C16.5824 16.5744 16.3949 16.7463 16.1484 16.852C15.6761 16.3092 15.1761 15.7858 14.6484 15.2817C14.2013 15.1102 14.006 15.2586 14.0625 15.727C14.4405 16.0971 14.8076 16.4721 15.1641 16.852C15.4271 17.4885 15.2708 17.9885 14.6953 18.352C14.1579 17.8381 13.6267 17.3146 13.1016 16.7817C12.7054 16.6316 12.51 16.7645 12.5156 17.1802C12.8752 17.5944 13.258 17.9851 13.6641 18.352C13.912 19.0146 13.7401 19.5302 13.1484 19.8989C12.6267 19.3537 12.0954 18.8146 11.5547 18.2817C11.3724 18.1775 11.2084 18.201 11.0625 18.352C10.967 18.5318 10.9826 18.7036 11.1094 18.8677C11.4391 19.2053 11.7751 19.5334 12.1172 19.852C12.1172 19.8833 12.1328 19.8989 12.1641 19.8989C12.4188 20.6469 12.1844 21.1704 11.4609 21.4692C11.1308 21.5293 10.8183 21.4824 10.5234 21.3286C9.46092 20.2661 8.39845 19.2036 7.33594 18.1411C6.92738 17.8045 6.45863 17.6717 5.92969 17.7427C5.92969 15.0395 5.92969 12.3364 5.92969 9.63329C6.22697 9.64107 6.52383 9.63329 6.82031 9.60985C8.12381 9.14176 9.46758 8.9777 10.8516 9.11766Z" fill="#FECCBD"/>
<path opacity="0.995" fill-rule="evenodd" clip-rule="evenodd" d="M4.85156 9.63281C5.21095 9.63281 5.5703 9.63281 5.92969 9.63281C5.92969 12.336 5.92969 15.039 5.92969 17.7422C5.5703 17.7422 5.21095 17.7422 4.85156 17.7422C4.85156 15.039 4.85156 12.336 4.85156 9.63281Z" fill="#EAAD9D"/>
<path fill-rule="evenodd" clip-rule="evenodd" d="M13.1953 11.8359C13.0391 11.6484 12.8672 11.4766 12.6797 11.3203C12.9921 11.1647 13.3202 11.0319 13.6641 10.9219C13.7891 10.8906 13.914 10.8906 14.0391 10.9219C14.2695 11.1031 14.2851 11.3062 14.0859 11.5313C13.7932 11.647 13.4963 11.7486 13.1953 11.8359Z" fill="#BA7E5D"/>
<path opacity="0.992" fill-rule="evenodd" clip-rule="evenodd" d="M16.1484 16.8512C15.8265 16.9723 15.4984 16.9723 15.1641 16.8512C14.8076 16.4713 14.4404 16.0963 14.0625 15.7262C14.006 15.2578 14.2013 15.1093 14.6484 15.2809C15.1761 15.7849 15.6761 16.3084 16.1484 16.8512Z" fill="#EBAE9D"/>
<path opacity="0.996" fill-rule="evenodd" clip-rule="evenodd" d="M14.6954 18.3517C14.3567 18.5361 14.0129 18.5361 13.6642 18.3517C13.2581 17.9848 12.8754 17.5941 12.5157 17.1798C12.5102 16.7641 12.7055 16.6313 13.1017 16.7814C13.6268 17.3143 14.158 17.8377 14.6954 18.3517Z" fill="#EBAE9D"/>
<path opacity="0.992" fill-rule="evenodd" clip-rule="evenodd" d="M13.1485 19.8988C12.8218 20.0209 12.4937 20.0209 12.1641 19.8988C12.1328 19.8988 12.1172 19.8832 12.1172 19.8519C11.7751 19.5333 11.4392 19.2052 11.1094 18.8675C10.9826 18.7035 10.967 18.5316 11.0625 18.3519C11.2084 18.2008 11.3725 18.1774 11.5547 18.2816C12.0954 18.8145 12.6267 19.3535 13.1485 19.8988Z" fill="#EBAE9D"/>
</g>
<defs>
<clipPath id="clip0_1718_1697">
<rect width="24" height="24" fill="white"/>
</clipPath>
</defs>
</svg>
