<svg width="50" height="50" viewBox="0 0 50 50" fill="none" xmlns="http://www.w3.org/2000/svg">
<g clip-path="url(#clip0_732_527)">
<path fill-rule="evenodd" clip-rule="evenodd" d="M22.7051 -0.0488281C24.2024 -0.0488281 25.6999 -0.0488281 27.1973 -0.0488281C28.4185 0.0842066 29.6229 0.312071 30.8105 0.634766C24.7943 2.10968 19.9767 5.33233 16.3574 10.3027C16.2923 10.3027 16.2598 10.3353 16.2598 10.4004C15.4442 10.9058 14.663 11.4592 13.916 12.0605C13.4801 11.6735 13.0568 11.2666 12.6465 10.8398C12.1408 10.5904 11.7014 10.6718 11.3281 11.084C11.159 11.4612 11.0287 11.8519 10.9375 12.2559C10.8663 13.2351 10.8825 14.2116 10.9863 15.1855C7.22879 21.1245 6.98465 27.2117 10.2539 33.4473C10.6954 34.1364 11.1349 34.82 11.5723 35.498C10.659 36.3863 10.4475 37.4279 10.9375 38.623C11.8935 40.0779 13.1468 40.3872 14.6973 39.5508C14.9124 39.3191 15.1403 39.1075 15.3809 38.916C15.6716 39.1081 15.9646 39.3034 16.2598 39.502C19.8444 44.4068 24.5971 47.6458 30.5176 49.2188C30.5719 49.2562 30.6044 49.305 30.6152 49.3652C29.4729 49.6152 28.3336 49.8105 27.1973 49.9512C25.6999 49.9512 24.2024 49.9512 22.7051 49.9512C13.9508 48.8879 7.359 44.5585 2.92969 36.9629C1.29935 33.8895 0.306504 30.6344 -0.0488281 27.1973C-0.0488281 25.6999 -0.0488281 24.2024 -0.0488281 22.7051C1.0144 13.9509 5.34383 7.35911 12.9395 2.92969C16.0128 1.29935 19.268 0.306504 22.7051 -0.0488281Z" fill="#F07FB6"/>
<path opacity="0.996" fill-rule="evenodd" clip-rule="evenodd" d="M30.8105 0.634766C37.4587 2.28753 42.6182 5.99847 46.2891 11.7676C48.3225 15.1496 49.5432 18.7954 49.9512 22.7051C49.9512 24.2024 49.9512 25.6999 49.9512 27.1973C48.9448 35.6422 44.8433 42.1037 37.6465 46.582C35.4431 47.8627 33.0993 48.7904 30.6152 49.3652C30.6044 49.305 30.5719 49.2562 30.5176 49.2188C24.5971 47.6458 19.8444 44.4068 16.2598 39.502C21.2263 42.354 26.3695 42.6958 31.6895 40.5273C32.4434 40.1504 33.192 39.7761 33.9355 39.4043C35.3348 40.4208 36.6206 40.2906 37.793 39.0137C38.3577 38.0459 38.374 37.0693 37.8418 36.084C42.299 30.2761 43.0803 23.9936 40.1855 17.2363C40.8005 16.5725 41.4353 15.9214 42.0898 15.2832C42.3891 14.2799 42.0146 13.8404 40.9668 13.9648C40.3937 14.5543 39.8077 15.124 39.209 15.6738C38.8106 15.1066 38.3874 14.5532 37.9395 14.0137C38.3916 13.5126 38.8636 13.0243 39.3555 12.5488C39.6213 11.5771 39.247 11.1377 38.2324 11.2305C37.695 11.6866 37.1742 12.1586 36.6699 12.6465C36.2103 12.2549 35.7545 11.8643 35.3027 11.4746C35.8231 10.9378 36.3277 10.3844 36.8164 9.81445C36.9459 8.77202 36.5064 8.39767 35.498 8.69141C34.9249 9.28088 34.339 9.85059 33.7402 10.4004C27.9611 7.18324 22.1668 7.15069 16.3574 10.3027C19.9767 5.33233 24.7943 2.10968 30.8105 0.634766Z" fill="#EA4B98"/>
<path fill-rule="evenodd" clip-rule="evenodd" d="M33.7402 10.4004C32.3765 11.813 30.9931 13.2128 29.5898 14.5996C29.1099 15.169 28.7844 15.8199 28.6133 16.5528C28.5808 17.627 28.5481 18.7012 28.5156 19.7754C27.8607 20.5768 27.1283 21.293 26.3184 21.9239C25.8914 22.351 25.4356 22.7416 24.9512 23.0957C21.5007 19.7103 18.0827 16.2923 14.6973 12.8418C15.1935 12.0122 15.7143 11.1985 16.2598 10.4004C16.2598 10.3353 16.2923 10.3028 16.3574 10.3028C22.1668 7.15072 27.9611 7.18327 33.7402 10.4004Z" fill="#F07FB6"/>
<path fill-rule="evenodd" clip-rule="evenodd" d="M35.3027 11.4748C33.9715 12.7571 32.6531 14.0593 31.3477 15.381C31.1911 16.5268 31.6631 16.9338 32.7637 16.6017C34.0854 15.2963 35.3876 13.9779 36.6699 12.6467C37.1742 12.1588 37.695 11.6868 38.2324 11.2307C39.247 11.1379 39.6213 11.5773 39.3555 12.549C38.8636 13.0245 38.3916 13.5128 37.9395 14.0139C36.6408 15.2637 35.355 16.5332 34.082 17.8224C33.7109 18.749 34.0039 19.3023 34.9609 19.4826C35.2433 19.506 35.4874 19.4247 35.6934 19.2385C36.885 18.0632 38.0568 16.875 39.209 15.674C39.8077 15.1242 40.3937 14.5545 40.9668 13.965C42.0146 13.8406 42.3891 14.2801 42.0898 15.2834C41.4353 15.9216 40.8005 16.5726 40.1855 17.2365C38.8055 18.5677 37.4383 19.9186 36.084 21.2892C35.4686 21.7334 34.785 22.0264 34.0332 22.1682C32.9265 22.2007 31.8196 22.2333 30.7129 22.2658C30.0447 22.9177 29.3937 23.5849 28.7598 24.2678C27.8861 23.557 27.0724 22.7758 26.3184 21.924C27.1283 21.2932 27.8607 20.5769 28.5156 19.7756C28.5481 18.7014 28.5808 17.6271 28.6133 16.5529C28.7844 15.8201 29.1099 15.1691 29.5898 14.5998C30.9931 13.213 32.3765 11.8132 33.7402 10.4006C34.339 9.85077 34.9249 9.28106 35.498 8.69159C36.5064 8.39785 36.9459 8.7722 36.8164 9.81463C36.3277 10.3846 35.8231 10.938 35.3027 11.4748Z" fill="#FFFEFD"/>
<path fill-rule="evenodd" clip-rule="evenodd" d="M13.916 12.061C14.1439 12.3539 14.4043 12.6144 14.6973 12.8422C18.0827 16.2927 21.5007 19.7107 24.9512 23.0961C25.765 23.975 26.6113 24.8214 27.4903 25.6352C30.9435 29.1209 34.394 32.6039 37.8418 36.0844C38.374 37.0698 38.3577 38.0463 37.793 39.0141C36.6206 40.291 35.3348 40.4212 33.9356 39.4047C31.9207 37.3411 29.8862 35.2903 27.8321 33.2524C27.3898 32.7069 27.2271 32.0884 27.3438 31.3969C27.6552 30.8667 27.6552 30.3459 27.3438 29.8344C27.002 29.4926 26.6602 29.1508 26.3184 28.809C25.9074 28.5502 25.4843 28.5177 25.0488 28.7114C24.7291 29.0153 24.3711 29.2594 23.9746 29.4438C23.3787 29.5187 22.8253 29.4048 22.3145 29.102C21.7088 28.48 21.0904 27.8778 20.459 27.2953C18.3465 25.134 16.2144 22.9856 14.0625 20.85C13.4908 20.0947 12.9212 19.3459 12.3535 18.6039C11.759 17.5136 11.3032 16.3743 10.9863 15.186C10.8825 14.212 10.8663 13.2355 10.9375 12.2563C11.0287 11.8523 11.159 11.4617 11.3281 11.0844C11.7014 10.6722 12.1408 10.5909 12.6465 10.8403C13.0569 11.267 13.4801 11.674 13.916 12.061Z" fill="#FFFEFD"/>
<path fill-rule="evenodd" clip-rule="evenodd" d="M16.2598 10.4004C15.7143 11.1984 15.1935 12.0122 14.6973 12.8418C14.4043 12.614 14.1438 12.3535 13.916 12.0605C14.663 11.4592 15.4442 10.9058 16.2598 10.4004Z" fill="#EA4C98"/>
<path fill-rule="evenodd" clip-rule="evenodd" d="M35.3027 11.4746C35.7544 11.8643 36.2102 12.2549 36.6699 12.6465C35.3875 13.9777 34.0854 15.2961 32.7636 16.6016C31.663 16.9336 31.1911 16.5267 31.3476 15.3809C32.6531 14.0591 33.9714 12.7569 35.3027 11.4746Z" fill="#F07FB6"/>
<path fill-rule="evenodd" clip-rule="evenodd" d="M37.9395 14.0137C38.3874 14.5532 38.8107 15.1066 39.209 15.6738C38.0569 16.8748 36.885 18.063 35.6934 19.2383C35.4874 19.4245 35.2433 19.5059 34.961 19.4824C34.0039 19.3021 33.711 18.7488 34.082 17.8223C35.355 16.533 36.6408 15.2635 37.9395 14.0137Z" fill="#F07FB6"/>
<path fill-rule="evenodd" clip-rule="evenodd" d="M10.9864 15.1855C11.3033 16.3738 11.7591 17.5132 12.3536 18.6035C11.106 23.8038 11.399 28.9146 13.2325 33.9355C12.7018 34.4781 12.1484 34.9989 11.5723 35.498C11.1349 34.82 10.6955 34.1364 10.254 33.4473C6.98472 27.2117 7.22886 21.1245 10.9864 15.1855Z" fill="#EA4C98"/>
<path fill-rule="evenodd" clip-rule="evenodd" d="M40.1855 17.2363C43.0803 23.9936 42.299 30.2761 37.8418 36.084C34.3939 32.6035 30.9435 29.1205 27.4902 25.6348C27.9824 25.2403 28.4056 24.7846 28.7598 24.2676C29.3937 23.5848 30.0447 22.9175 30.7129 22.2656C31.8196 22.2331 32.9265 22.2005 34.0332 22.168C34.785 22.0262 35.4686 21.7332 36.084 21.2891C37.4383 19.9185 38.8055 18.5675 40.1855 17.2363Z" fill="#F07FB6"/>
<path fill-rule="evenodd" clip-rule="evenodd" d="M12.3534 18.6035C12.9211 19.3455 13.4907 20.0942 14.0624 20.8496C16.2143 22.9852 18.3464 25.1336 20.4589 27.2949C20.0058 27.6829 19.5826 28.1061 19.1894 28.5645C17.2221 30.3776 15.2364 32.1681 13.2323 33.9355C11.3988 28.9146 11.1059 23.8038 12.3534 18.6035Z" fill="#F07FB6"/>
<path fill-rule="evenodd" clip-rule="evenodd" d="M26.3184 21.9238C27.0724 22.7756 27.8861 23.5568 28.7598 24.2676C28.4056 24.7846 27.9824 25.2403 27.4902 25.6348C26.6113 24.821 25.7649 23.9746 24.9512 23.0957C25.4356 22.7416 25.8914 22.351 26.3184 21.9238Z" fill="#FAF0C3"/>
<path fill-rule="evenodd" clip-rule="evenodd" d="M20.459 27.2949C21.0903 27.8773 21.7088 28.4796 22.3145 29.1016C22.8253 29.4044 23.3787 29.5183 23.9746 29.4434C23.4895 30.0589 22.9686 30.6448 22.4121 31.2012C21.9982 30.961 21.575 30.7169 21.1426 30.4688C20.5044 29.8142 19.8533 29.1794 19.1895 28.5645C19.5827 28.1061 20.0059 27.6829 20.459 27.2949Z" fill="#FAF0C3"/>
<path fill-rule="evenodd" clip-rule="evenodd" d="M33.9355 39.4046C33.192 39.7764 32.4434 40.1507 31.6895 40.5277C26.3695 42.6961 21.2263 42.3543 16.2598 39.5023C15.9646 39.3037 15.6716 39.1084 15.3809 38.9163C17.7246 36.3448 20.0684 33.7731 22.4121 31.2015C22.9686 30.6451 23.4895 30.0592 23.9746 29.4437C24.3711 29.2593 24.7291 29.0152 25.0488 28.7113C25.4843 28.5176 25.9074 28.5501 26.3184 28.8089C26.6602 29.1507 27.002 29.4925 27.3438 29.8343C27.6552 30.3458 27.6552 30.8666 27.3438 31.3968C27.2271 32.0883 27.3897 32.7068 27.832 33.2523C29.8862 35.2902 31.9207 37.341 33.9355 39.4046Z" fill="#F07FB6"/>
<path fill-rule="evenodd" clip-rule="evenodd" d="M19.1896 28.5645C19.8534 29.1794 20.5045 29.8142 21.1427 30.4688C21.5751 30.7169 21.9984 30.961 22.4122 31.2012C20.0685 33.7728 17.7247 36.3444 15.381 38.916C15.1404 39.1075 14.9125 39.3191 14.6974 39.5508C13.1469 40.3872 11.8936 40.0779 10.9376 38.623C10.4476 37.4279 10.6591 36.3863 11.5724 35.498C12.1485 34.9989 12.7019 34.4781 13.2325 33.9355C15.2366 32.1681 17.2223 30.3776 19.1896 28.5645Z" fill="#FFFEFD"/>
</g>
<defs>
<clipPath id="clip0_732_527">
<rect width="50" height="50" fill="white"/>
</clipPath>
</defs>
</svg>
