<svg width="34" height="34" viewBox="0 0 34 34" fill="none" xmlns="http://www.w3.org/2000/svg">
<path fill-rule="evenodd" clip-rule="evenodd" d="M16.1994 7.19177C15.7796 10.1468 15.444 12.6347 14.8394 16.5092C16.4729 16.4738 20.1804 17.1242 20.9964 11.8291C21.6719 7.42385 18.6607 7.01585 16.1994 7.19177Z" fill="#EA4B98"/>
<path fill-rule="evenodd" clip-rule="evenodd" d="M30.3466 28.495C30.9822 29.9097 30.3421 31.6984 29.0161 32.4183C28.2548 32.8322 27.3856 33.2165 26.5179 33.4323C25.0853 33.7746 23.6206 33.9648 22.1482 34C19.7933 34 17.4325 32.6518 16.4155 31.011C16.1523 31.5771 15.2033 32.7154 13.5403 33.2505C12.4892 33.5905 11.2223 34 8.57774 33.997C6.20809 33.9956 4.85696 32.9209 4.14296 32.0191C3.0047 30.5852 2.83766 28.764 3.0594 27.5371L3.07122 27.4779C3.96557 22.9914 5.18809 14.8344 5.75131 10.747L5.75722 10.7071C5.91096 9.57325 6.06765 8.43943 6.16078 7.29821C6.20661 6.72317 6.23765 6.14517 6.24357 5.56865C6.24948 5.02317 6.19922 4.47917 6.20365 3.93369C6.20957 3.41926 6.29235 2.89891 6.53331 2.44361C6.92504 1.70891 7.642 1.12944 8.40035 0.876655C9.23261 0.598742 10.1018 0.487873 10.9666 0.387351C11.8508 0.281401 12.7369 0.192688 13.6245 0.121264C14.7068 0.041731 15.7915 0.00129892 16.8767 4.72146e-05C18.7334 -0.00143104 20.6019 0.0296124 22.432 0.406568C24.2961 0.790916 26.1794 1.52561 27.6502 2.81317C28.6584 3.69569 29.4581 4.80882 30.0598 6.02691C30.5861 7.10012 30.8004 8.22951 30.9275 9.09282C31.1537 10.6422 31.0941 12.2199 30.7516 13.7479C30.4811 14.8619 30.0249 15.9223 29.402 16.8847C28.7013 17.9727 27.8025 18.9602 26.6568 19.9004C27.3546 21.9256 29.1728 25.8814 30.3466 28.495ZM9.49426 4.13917C9.53861 4.89013 9.54452 5.647 9.512 6.40091C9.47948 7.17108 9.41295 7.9383 9.32721 8.70403C9.24295 9.46682 9.14095 10.2266 9.03748 10.9865L9.00348 11.2348C8.67826 13.6104 8.3353 15.983 7.97609 18.3512C7.59765 20.8405 7.17339 23.3166 6.74913 25.7957C6.55252 26.9517 6.11052 28.4329 6.71513 29.5357C7.25322 30.5202 8.63391 30.6399 9.59626 30.5409C13.1012 30.1831 13.6585 29.4041 13.6585 29.4041C12.9593 28.6295 13.5669 25.0994 14.2705 20.3542H16.7614L19.369 28.2407C19.369 28.2407 20.1377 30.6843 22.2738 30.566C25.0101 30.4152 27.0235 29.7899 27.3132 29.4425C26.4706 28.9724 24.061 22.9471 22.7483 18.5226C23.384 18.1353 24.0004 17.714 24.5814 17.2425C25.3752 16.595 26.1114 15.8485 26.6746 14.9719C27.0796 14.3421 27.3886 13.6488 27.566 12.9126C27.6591 12.5239 27.7108 12.1173 27.7434 11.7197C27.8025 11.019 27.7803 10.3094 27.6783 9.61464C27.5808 8.94647 27.4344 8.2029 27.1358 7.59977C26.5814 6.47186 25.7965 5.48734 24.7262 4.85761C22.9198 3.79622 20.8384 3.59369 18.8088 3.48282C16.6075 3.36043 14.3998 3.43265 12.2113 3.69865C11.9659 3.72822 9.48391 3.947 9.49426 4.13917Z" fill="#EA4B98"/>
</svg>
