<svg width="300" height="247" viewBox="0 0 300 247" fill="none" xmlns="http://www.w3.org/2000/svg">
<g clip-path="url(#clip0_4386_7366)">
<mask id="mask0_4386_7366" style="mask-type:luminance" maskUnits="userSpaceOnUse" x="0" y="41" width="300" height="165">
<path d="M0 41.1914H300V205.594H0V41.1914Z" fill="white"/>
</mask>
<g mask="url(#mask0_4386_7366)">
<path d="M279.919 115.612V61.7494C279.919 61.0757 279.878 60.4046 279.797 59.736C279.716 59.0649 279.594 58.4015 279.434 57.7407C279.272 57.0798 279.075 56.4293 278.838 55.7839C278.597 55.141 278.322 54.5085 278.009 53.8862C277.697 53.2639 277.347 52.6571 276.959 52.0631C276.575 51.4691 276.153 50.8931 275.7 50.3326C275.244 49.7746 274.756 49.2346 274.238 48.7152C273.719 48.1932 273.172 47.6969 272.594 47.2187C272.013 46.743 271.409 46.293 270.775 45.8661C270.144 45.4393 269.488 45.0382 268.809 44.6627C268.128 44.2899 267.428 43.9428 266.706 43.6265C265.984 43.3076 265.247 43.0196 264.491 42.7625C263.734 42.5054 262.966 42.2791 262.184 42.0811C261.4 41.8857 260.609 41.7237 259.806 41.59C259.003 41.4588 258.197 41.3585 257.381 41.2917C256.569 41.2248 255.753 41.1914 254.934 41.1914H45.0656C44.2469 41.1914 43.4313 41.2248 42.6188 41.2917C41.8031 41.3585 40.9969 41.4588 40.1938 41.59C39.3906 41.7237 38.6 41.8857 37.8156 42.0811C37.0344 42.2791 36.2656 42.5054 35.5094 42.7625C34.7531 43.0196 34.0156 43.3076 33.2938 43.6265C32.5719 43.9428 31.8719 44.2899 31.1906 44.6627C30.5125 45.0382 29.8563 45.4393 29.225 45.8661C28.5906 46.293 27.9875 46.743 27.4063 47.2187C26.8281 47.6969 26.2813 48.1932 25.7625 48.7152C25.2438 49.2346 24.7563 49.7746 24.3 50.3326C23.8469 50.8931 23.425 51.4691 23.0406 52.0631C22.6531 52.6571 22.3031 53.2639 21.9906 53.8862C21.6781 54.5085 21.4031 55.141 21.1625 55.7839C20.925 56.4293 20.7281 57.0798 20.5656 57.7407C20.4063 58.4015 20.2844 59.0649 20.2031 59.736C20.1219 60.4046 20.0813 61.0757 20.0813 61.7494V115.612C19.3813 115.73 18.6906 115.871 18.0094 116.039C17.325 116.206 16.65 116.396 15.9875 116.609C15.3219 116.825 14.6719 117.062 14.0313 117.322C13.3938 117.581 12.7688 117.864 12.1594 118.168C11.5469 118.471 10.9563 118.798 10.3781 119.142C9.80313 119.487 9.24375 119.852 8.70625 120.238C8.16875 120.623 7.65 121.024 7.15625 121.446C6.65937 121.868 6.18438 122.305 5.73438 122.76C5.28438 123.215 4.85625 123.686 4.45312 124.169C4.05312 124.653 3.675 125.151 3.325 125.663C2.975 126.172 2.65 126.697 2.35625 127.229C2.05938 127.764 1.79062 128.306 1.55 128.859C1.3125 129.412 1.1 129.973 0.91875 130.538C0.7375 131.107 0.584375 131.68 0.4625 132.256C0.340624 132.835 0.25 133.416 0.1875 134.002C0.125 134.586 0.09375 135.172 0.09375 135.758V201.544C0.09375 201.814 0.125 202.081 0.190624 202.346C0.253124 202.611 0.35 202.868 0.475 203.118C0.6 203.367 0.753124 203.604 0.934375 203.827C1.11875 204.054 1.325 204.259 1.55625 204.452C1.79062 204.642 2.04062 204.812 2.31562 204.964C2.5875 205.113 2.875 205.239 3.17812 205.342C3.48125 205.445 3.79375 205.524 4.11562 205.576C4.4375 205.63 4.7625 205.655 5.09062 205.655C5.41875 205.655 5.74375 205.63 6.06562 205.576C6.3875 205.524 6.7 205.445 7.00312 205.342C7.30625 205.239 7.59375 205.113 7.86562 204.961C8.14062 204.812 8.39062 204.642 8.625 204.452C8.85625 204.259 9.0625 204.054 9.24687 203.827C9.42812 203.604 9.58125 203.367 9.70625 203.118C9.83125 202.868 9.92813 202.611 9.99063 202.346C10.0562 202.081 10.0875 201.814 10.0875 201.544V189.209H289.913V201.544C289.913 201.814 289.944 202.081 290.009 202.346C290.072 202.611 290.169 202.868 290.294 203.118C290.419 203.367 290.572 203.604 290.753 203.827C290.938 204.054 291.144 204.259 291.375 204.452C291.609 204.642 291.859 204.812 292.134 204.964C292.406 205.113 292.694 205.239 292.997 205.342C293.3 205.445 293.613 205.524 293.934 205.576C294.256 205.63 294.581 205.655 294.909 205.655C295.238 205.655 295.563 205.63 295.884 205.576C296.206 205.524 296.519 205.445 296.822 205.342C297.125 205.239 297.413 205.113 297.684 204.961C297.959 204.812 298.209 204.642 298.444 204.452C298.675 204.259 298.881 204.054 299.066 203.827C299.247 203.604 299.4 203.367 299.525 203.118C299.65 202.868 299.747 202.611 299.809 202.346C299.875 202.081 299.906 201.814 299.906 201.544V135.758C299.906 135.172 299.875 134.586 299.813 134.002C299.75 133.416 299.659 132.835 299.538 132.256C299.416 131.68 299.263 131.107 299.081 130.538C298.9 129.973 298.688 129.412 298.45 128.859C298.209 128.306 297.941 127.764 297.644 127.229C297.35 126.697 297.025 126.172 296.675 125.663C296.325 125.151 295.947 124.653 295.547 124.169C295.144 123.686 294.716 123.215 294.266 122.76C293.816 122.305 293.341 121.868 292.844 121.446C292.35 121.024 291.831 120.623 291.294 120.238C290.753 119.852 290.197 119.487 289.622 119.142C289.044 118.795 288.453 118.471 287.841 118.168C287.231 117.864 286.606 117.581 285.969 117.322C285.328 117.062 284.678 116.825 284.013 116.609C283.35 116.396 282.675 116.206 281.991 116.039C281.309 115.871 280.619 115.73 279.919 115.612ZM30.075 61.7494C30.075 61.3457 30.1 60.942 30.1469 60.5409C30.1938 60.1372 30.2688 59.7386 30.3625 59.3426C30.4594 58.9466 30.5781 58.5558 30.7219 58.1701C30.8625 57.7818 31.0281 57.4012 31.2156 57.0284C31.4031 56.6556 31.6125 56.2904 31.8438 55.9356C32.075 55.5782 32.3281 55.2336 32.6 54.8967C32.875 54.5599 33.1656 54.2359 33.4781 53.9248C33.7906 53.6111 34.1188 53.3128 34.4656 53.0274C34.8125 52.7419 35.175 52.472 35.5563 52.2148C35.9344 51.9577 36.3281 51.7185 36.7375 51.4923C37.1469 51.2686 37.5656 51.0603 38 50.87C38.4313 50.6797 38.875 50.5074 39.3281 50.3532C39.7813 50.1989 40.2438 50.0626 40.7156 49.9469C41.1844 49.8286 41.6594 49.7309 42.1406 49.6512C42.6219 49.574 43.1063 49.5123 43.5969 49.4738C44.0844 49.4352 44.575 49.4146 45.0656 49.4146H254.934C255.425 49.4146 255.916 49.4352 256.403 49.4738C256.894 49.5123 257.378 49.574 257.859 49.6512C258.341 49.7309 258.816 49.8286 259.284 49.9469C259.756 50.0626 260.219 50.1989 260.672 50.3532C261.125 50.5074 261.569 50.6797 262 50.87C262.434 51.0603 262.853 51.2686 263.263 51.4923C263.672 51.7185 264.066 51.9577 264.444 52.2148C264.825 52.472 265.188 52.7419 265.534 53.0274C265.881 53.3128 266.209 53.6111 266.522 53.9248C266.834 54.2359 267.125 54.5599 267.4 54.8967C267.672 55.2336 267.925 55.5782 268.156 55.9356C268.388 56.2904 268.597 56.6556 268.784 57.0284C268.972 57.4012 269.138 57.7818 269.278 58.1701C269.422 58.5558 269.541 58.9466 269.638 59.3426C269.731 59.7386 269.803 60.1372 269.853 60.5409C269.9 60.942 269.925 61.3457 269.925 61.7494V115.2H254.934V90.5306C254.934 89.9932 254.903 89.4558 254.838 88.9184C254.775 88.3835 254.678 87.8513 254.55 87.3216C254.422 86.7944 254.263 86.2725 254.075 85.7556C253.884 85.2413 253.663 84.7348 253.413 84.2359C253.163 83.7397 252.884 83.2537 252.575 82.778C252.266 82.3023 251.928 81.842 251.566 81.3946C251.203 80.9446 250.813 80.5126 250.397 80.0961C249.981 79.6795 249.544 79.2809 249.081 78.9004C248.619 78.5198 248.134 78.1598 247.628 77.8178C247.122 77.4758 246.597 77.1544 246.05 76.8561C245.506 76.5579 244.947 76.2802 244.369 76.0256C243.791 75.771 243.2 75.5422 242.597 75.3365C241.991 75.1308 241.375 74.9482 240.75 74.7913C240.122 74.6371 239.488 74.5059 238.847 74.4005C238.203 74.2951 237.556 74.2154 236.906 74.1639C236.253 74.1099 235.6 74.0842 234.947 74.0842H174.984C174.331 74.0842 173.678 74.1099 173.025 74.1639C172.375 74.2154 171.728 74.2951 171.084 74.4005C170.444 74.5059 169.809 74.6371 169.181 74.7913C168.556 74.9482 167.941 75.1308 167.334 75.3365C166.731 75.5422 166.141 75.771 165.563 76.0256C164.984 76.2802 164.425 76.5579 163.881 76.8561C163.334 77.1544 162.809 77.4758 162.303 77.8178C161.797 78.1598 161.313 78.5198 160.85 78.9004C160.388 79.2809 159.95 79.6795 159.534 80.0961C159.119 80.5126 158.728 80.9446 158.366 81.3946C158.003 81.842 157.666 82.3023 157.356 82.778C157.047 83.2537 156.769 83.7397 156.519 84.2359C156.269 84.7348 156.047 85.2413 155.856 85.7556C155.669 86.2725 155.509 86.7944 155.381 87.3216C155.253 87.8513 155.156 88.3835 155.094 88.9184C155.028 89.4558 154.997 89.9932 154.997 90.5306V115.2H145.003V90.5306C145.003 89.9932 144.972 89.4558 144.906 88.9184C144.844 88.3835 144.747 87.8513 144.619 87.3216C144.491 86.7944 144.331 86.2725 144.144 85.7556C143.953 85.2413 143.731 84.7348 143.481 84.2359C143.231 83.7397 142.953 83.2537 142.644 82.778C142.334 82.3023 141.997 81.842 141.634 81.3946C141.272 80.9446 140.881 80.5126 140.466 80.0961C140.05 79.6795 139.613 79.2809 139.15 78.9004C138.688 78.5198 138.203 78.1598 137.697 77.8178C137.191 77.4758 136.666 77.1544 136.119 76.8561C135.575 76.5579 135.016 76.2802 134.438 76.0256C133.859 75.771 133.269 75.5422 132.666 75.3365C132.059 75.1308 131.444 74.9482 130.819 74.7913C130.191 74.6371 129.556 74.5059 128.916 74.4005C128.272 74.2951 127.625 74.2154 126.975 74.1639C126.322 74.1099 125.669 74.0842 125.016 74.0842H65.0531C64.4 74.0842 63.7469 74.1099 63.0938 74.1639C62.4438 74.2154 61.7969 74.2951 61.1531 74.4005C60.5125 74.5059 59.8781 74.6371 59.25 74.7913C58.625 74.9482 58.0094 75.1308 57.4031 75.3365C56.8 75.5422 56.2094 75.771 55.6313 76.0256C55.0531 76.2802 54.4938 76.5579 53.95 76.8561C53.4031 77.1544 52.8781 77.4758 52.3719 77.8178C51.8656 78.1598 51.3813 78.5198 50.9188 78.9004C50.4563 79.2809 50.0188 79.6795 49.6031 80.0961C49.1875 80.5126 48.7969 80.9446 48.4344 81.3946C48.0719 81.842 47.7344 82.3023 47.425 82.778C47.1156 83.2537 46.8375 83.7397 46.5875 84.2359C46.3375 84.7348 46.1156 85.2413 45.925 85.7556C45.7375 86.2725 45.5781 86.7944 45.45 87.3216C45.3219 87.8513 45.225 88.3835 45.1625 88.9184C45.0969 89.4558 45.0656 89.9932 45.0656 90.5306V115.2H30.075V61.7494ZM244.941 115.2H164.991V90.5306C164.991 89.9906 165.053 89.4558 165.181 88.9261C165.309 88.3964 165.5 87.8821 165.75 87.3833C166.003 86.8844 166.309 86.4113 166.675 85.9613C167.041 85.5139 167.453 85.0974 167.919 84.7168C168.381 84.3337 168.888 83.9942 169.431 83.6934C169.978 83.3925 170.553 83.1405 171.159 82.9323C171.766 82.7266 172.391 82.5697 173.034 82.4643C173.678 82.3589 174.328 82.3074 174.984 82.3074H234.947C235.603 82.3074 236.253 82.3589 236.897 82.4643C237.541 82.5697 238.166 82.7266 238.772 82.9323C239.378 83.1405 239.953 83.3925 240.5 83.6934C241.044 83.9942 241.55 84.3337 242.013 84.7168C242.478 85.0974 242.891 85.5139 243.256 85.9613C243.622 86.4113 243.928 86.8844 244.181 87.3833C244.431 87.8821 244.622 88.3964 244.75 88.9261C244.878 89.4558 244.941 89.9906 244.941 90.5306V115.2ZM135.009 115.2H55.0594V90.5306C55.0594 89.9906 55.1219 89.4558 55.25 88.9261C55.3781 88.3964 55.5688 87.8821 55.8188 87.3833C56.0719 86.8844 56.3781 86.4113 56.7438 85.9613C57.1094 85.5139 57.5219 85.0974 57.9875 84.7168C58.45 84.3337 58.9563 83.9942 59.5 83.6934C60.0469 83.3925 60.6219 83.1405 61.2281 82.9323C61.8344 82.7266 62.4594 82.5697 63.1031 82.4643C63.7469 82.3589 64.3969 82.3074 65.0531 82.3074H125.016C125.672 82.3074 126.322 82.3589 126.966 82.4643C127.609 82.5697 128.234 82.7266 128.841 82.9323C129.447 83.1405 130.022 83.3925 130.569 83.6934C131.113 83.9942 131.619 84.3337 132.081 84.7168C132.547 85.0974 132.959 85.5139 133.325 85.9613C133.691 86.4113 133.997 86.8844 134.25 87.3833C134.5 87.8821 134.691 88.3964 134.819 88.9261C134.947 89.4558 135.009 89.9906 135.009 90.5306V115.2ZM25.0781 123.423H274.922C275.413 123.423 275.903 123.444 276.391 123.483C276.881 123.521 277.366 123.583 277.847 123.66C278.328 123.74 278.803 123.837 279.272 123.956C279.744 124.071 280.206 124.208 280.659 124.362C281.113 124.516 281.556 124.689 281.988 124.879C282.422 125.069 282.841 125.277 283.25 125.501C283.659 125.727 284.053 125.967 284.431 126.224C284.813 126.481 285.175 126.751 285.522 127.036C285.869 127.322 286.197 127.62 286.509 127.934C286.822 128.245 287.113 128.569 287.388 128.906C287.659 129.242 287.913 129.587 288.144 129.944C288.375 130.299 288.584 130.664 288.772 131.037C288.959 131.41 289.125 131.791 289.266 132.176C289.409 132.565 289.528 132.955 289.625 133.351C289.719 133.747 289.791 134.146 289.841 134.55C289.888 134.951 289.913 135.355 289.913 135.758V164.539H10.0875V135.758C10.0875 135.355 10.1125 134.951 10.1594 134.55C10.2062 134.146 10.2812 133.747 10.375 133.351C10.4719 132.955 10.5906 132.565 10.7344 132.179C10.875 131.791 11.0406 131.41 11.2281 131.037C11.4156 130.664 11.625 130.299 11.8562 129.944C12.0875 129.587 12.3406 129.242 12.6125 128.906C12.8875 128.569 13.1781 128.245 13.4906 127.934C13.8031 127.62 14.1313 127.322 14.4781 127.036C14.825 126.751 15.1875 126.481 15.5688 126.224C15.9469 125.967 16.3406 125.727 16.75 125.501C17.1594 125.277 17.5781 125.069 18.0125 124.879C18.4438 124.689 18.8875 124.516 19.3406 124.362C19.7938 124.208 20.2563 124.071 20.7281 123.956C21.1969 123.837 21.6719 123.74 22.1531 123.66C22.6344 123.583 23.1188 123.521 23.6094 123.483C24.0969 123.444 24.5875 123.423 25.0781 123.423ZM10.0875 172.763H289.913V180.986H10.0875V172.763Z" fill="#5C5C5C"/>
</g>
</g>
<defs>
<clipPath id="clip0_4386_7366">
<rect width="300" height="246.85" fill="white"/>
</clipPath>
</defs>
</svg>
