<svg width="20" height="20" viewBox="0 0 20 20" fill="none" xmlns="http://www.w3.org/2000/svg">
<path d="M14.7253 2.74038L14.7349 2.73558H14.7397L10.0001 0L5.26289 2.73558H5.25811L5.27485 2.74279L1.37939 5V15L10.0001 20L18.6208 15V5L14.7253 2.74038ZM9.29943 17.9712L5.87746 15.9856V12.6298L2.77831 10.8606V6.65625L9.29943 10.4375V17.9712ZM3.45266 5.42067L6.67377 3.55048L9.9953 5.46635L13.3216 3.54567L16.5547 5.42067L10.0049 9.21875L3.45266 5.42067ZM17.2219 10.8726L14.1418 12.6298V15.9736L10.7007 17.9687V10.4423L17.2219 6.66106V10.8726Z" fill="#EA4B98"/>
</svg>
