<svg width="15" height="15" viewBox="0 0 15 15" fill="none" xmlns="http://www.w3.org/2000/svg">
<g clip-path="url(#clip0_4373_5278)">
<path d="M7.5 0C3.36328 0 0 3.36328 0 7.5C0 11.6367 3.36328 15 7.5 15C11.6367 15 15 11.6367 15 7.5C15 3.36328 11.6367 0 7.5 0ZM12.0938 6.02344L6.14062 12.082C5.85938 12.375 5.40234 12.375 5.12109 12.082L2.42578 9.33984C1.99219 8.89453 1.99219 8.17969 2.42578 7.73438C2.84766 7.30078 3.53906 7.30078 3.96094 7.73438L5.63672 9.43359L10.5586 4.41797C10.9805 3.98438 11.6719 3.98438 12.0938 4.41797C12.5273 4.86328 12.5273 5.58984 12.0938 6.02344Z" fill="#EA4B98"/>
<path d="M7.26656 8.46625H7.26281L7.26031 8.45812H7.24844L7.24531 8.46625H7.24219L7.25219 8.4375H7.25656L7.26656 8.46625ZM7.25406 8.44125L7.24906 8.45562H7.25969L7.25469 8.44125H7.25406Z" fill="#EA4B98"/>
<path d="M7.27828 8.46617C7.27656 8.46617 7.27484 8.4657 7.27328 8.46492C7.27203 8.46414 7.27094 8.46289 7.27016 8.46117C7.26969 8.45961 7.26953 8.45742 7.26953 8.45492C7.26953 8.45242 7.26984 8.45039 7.27078 8.44867C7.27156 8.44711 7.27266 8.44586 7.27391 8.44492C7.27516 8.44414 7.27656 8.44367 7.27828 8.44367C7.27984 8.44367 7.28109 8.44398 7.28203 8.4443C7.28328 8.44477 7.28422 8.44555 7.28516 8.4468H7.28578V8.43555H7.28891V8.46555H7.28578V8.46242H7.28516C7.28469 8.46336 7.28391 8.46414 7.28266 8.46492C7.28141 8.4657 7.27984 8.46617 7.27828 8.46617ZM7.27891 8.46305C7.28094 8.46305 7.28266 8.46242 7.28391 8.46117C7.28516 8.45961 7.28578 8.45742 7.28578 8.45492C7.28578 8.45211 7.28516 8.44992 7.28391 8.44867C7.28266 8.44711 7.28094 8.44617 7.27891 8.44617C7.27719 8.44617 7.27578 8.44711 7.27453 8.44867C7.27328 8.44992 7.27266 8.45211 7.27266 8.45492C7.27266 8.46039 7.27469 8.46305 7.27891 8.46305Z" fill="#EA4B98"/>
<path d="M7.30563 8.46617C7.30391 8.46617 7.30219 8.4657 7.30062 8.46492C7.29937 8.46414 7.29828 8.46289 7.2975 8.46117C7.29703 8.45961 7.29688 8.45742 7.29688 8.45492C7.29688 8.45242 7.29719 8.45039 7.29812 8.44867C7.29891 8.44711 7.3 8.44586 7.30125 8.44492C7.3025 8.44414 7.30391 8.44367 7.30563 8.44367C7.30719 8.44367 7.30844 8.44398 7.30937 8.4443C7.31062 8.44477 7.31156 8.44555 7.3125 8.4468H7.31312V8.43555H7.31625V8.46555H7.31312V8.46242H7.3125C7.31203 8.46336 7.31125 8.46414 7.31 8.46492C7.30875 8.4657 7.30719 8.46617 7.30563 8.46617ZM7.30625 8.46305C7.30828 8.46305 7.31 8.46242 7.31125 8.46117C7.3125 8.45961 7.31312 8.45742 7.31312 8.45492C7.31312 8.45211 7.3125 8.44992 7.31125 8.44867C7.31 8.44711 7.30828 8.44617 7.30625 8.44617C7.30453 8.44617 7.30312 8.44711 7.30187 8.44867C7.30062 8.44992 7.3 8.45211 7.3 8.45492C7.3 8.46039 7.30203 8.46305 7.30625 8.46305Z" fill="#EA4B98"/>
<path d="M7.33891 8.46586C7.33672 8.46586 7.33516 8.46523 7.33391 8.46398C7.33266 8.46273 7.33203 8.46117 7.33203 8.45898C7.33203 8.45773 7.33219 8.4568 7.33266 8.45586C7.33344 8.45508 7.33422 8.45445 7.33516 8.45398C7.33641 8.4532 7.33797 8.45273 7.34016 8.45273C7.34141 8.45242 7.34234 8.45211 7.34328 8.45211C7.34406 8.4518 7.34469 8.45133 7.34516 8.45086C7.34547 8.45055 7.34578 8.44992 7.34578 8.44898C7.34578 8.4482 7.34531 8.44758 7.34453 8.44711C7.34359 8.44633 7.34266 8.44586 7.34141 8.44586C7.33969 8.44586 7.33844 8.44633 7.33766 8.44711C7.33672 8.44758 7.33594 8.4482 7.33516 8.44898H7.33453L7.33328 8.44711C7.33406 8.44586 7.33516 8.44508 7.33641 8.44461C7.33766 8.44383 7.33922 8.44336 7.34141 8.44336C7.34391 8.44336 7.34578 8.44398 7.34703 8.44523C7.34828 8.44617 7.34891 8.44758 7.34891 8.44961V8.46086C7.34891 8.46211 7.34922 8.46273 7.35016 8.46273C7.35047 8.46273 7.35094 8.46273 7.35141 8.46273L7.35203 8.46461C7.35156 8.46508 7.35109 8.46523 7.35078 8.46523C7.35031 8.46523 7.34984 8.46523 7.34953 8.46523C7.34828 8.46523 7.34734 8.46508 7.34703 8.46461C7.34656 8.4643 7.34609 8.46336 7.34578 8.46211H7.34516C7.34469 8.46336 7.34391 8.46445 7.34266 8.46523C7.34172 8.46555 7.34047 8.46586 7.33891 8.46586ZM7.33953 8.46336C7.34078 8.46336 7.34172 8.4632 7.34266 8.46273C7.34344 8.46195 7.34406 8.46117 7.34453 8.46023C7.34531 8.45898 7.34578 8.45773 7.34578 8.45648V8.45398L7.34516 8.45336C7.34469 8.45383 7.34406 8.4543 7.34328 8.45461C7.34281 8.45461 7.34203 8.45492 7.34078 8.45523C7.33953 8.45523 7.33844 8.45555 7.33766 8.45586C7.33672 8.45633 7.33609 8.4568 7.33578 8.45711C7.33578 8.45758 7.33578 8.4582 7.33578 8.45898C7.33578 8.46023 7.33594 8.46133 7.33641 8.46211C7.33719 8.46305 7.33828 8.46336 7.33953 8.46336Z" fill="#EA4B98"/>
<path d="M7.36828 8.46617C7.36656 8.46617 7.36531 8.4657 7.36453 8.46492C7.36359 8.46367 7.36328 8.46227 7.36328 8.46055V8.43555H7.36641V8.46055C7.36641 8.46148 7.36656 8.46211 7.36703 8.46242C7.36734 8.46289 7.36781 8.46305 7.36828 8.46305C7.36859 8.46305 7.36922 8.46305 7.37016 8.46305L7.37078 8.46555C7.37031 8.46555 7.36984 8.46555 7.36953 8.46555C7.36906 8.46586 7.36859 8.46617 7.36828 8.46617Z" fill="#EA4B98"/>
<path d="M7.3775 8.43992C7.37656 8.43992 7.37594 8.43977 7.37562 8.4393C7.37516 8.43898 7.375 8.43836 7.375 8.43742C7.375 8.43711 7.37516 8.43664 7.37562 8.43617C7.37594 8.43586 7.37656 8.43555 7.3775 8.43555C7.37781 8.43555 7.37828 8.43586 7.37875 8.43617C7.37906 8.43664 7.37938 8.43711 7.37938 8.43742C7.37938 8.43836 7.37906 8.43898 7.37875 8.4393C7.37828 8.43977 7.37781 8.43992 7.3775 8.43992ZM7.37562 8.46555V8.4443H7.37875V8.46555H7.37562Z" fill="#EA4B98"/>
<path d="M7.39594 8.4632L7.39719 8.46508C7.39672 8.46555 7.39609 8.46602 7.39531 8.46633C7.39437 8.46664 7.39344 8.46695 7.39219 8.46695C7.38844 8.46695 7.38656 8.46492 7.38656 8.4607V8.44758H7.38281V8.44445H7.38656V8.44008L7.38969 8.43945V8.44445H7.39656V8.44758H7.38969V8.46008C7.38969 8.46258 7.39062 8.46383 7.39281 8.46383C7.39406 8.46383 7.395 8.46367 7.39594 8.4632Z" fill="#EA4B98"/>
<path d="M7.41547 8.4632L7.41672 8.46508C7.41625 8.46555 7.41562 8.46602 7.41484 8.46633C7.41391 8.46664 7.41297 8.46695 7.41172 8.46695C7.40797 8.46695 7.40609 8.46492 7.40609 8.4607V8.44758H7.40234V8.44445H7.40609V8.44008L7.40922 8.43945V8.44445H7.41609V8.44758H7.40922V8.46008C7.40922 8.46258 7.41016 8.46383 7.41234 8.46383C7.41359 8.46383 7.41453 8.46367 7.41547 8.4632Z" fill="#EA4B98"/>
<path d="M7.42687 8.46617C7.42516 8.46617 7.42391 8.4657 7.42312 8.46492C7.42219 8.46367 7.42188 8.46227 7.42188 8.46055V8.43555H7.425V8.46055C7.425 8.46148 7.42516 8.46211 7.42562 8.46242C7.42594 8.46289 7.42641 8.46305 7.42687 8.46305C7.42719 8.46305 7.42781 8.46305 7.42875 8.46305L7.42937 8.46555C7.42891 8.46555 7.42844 8.46555 7.42812 8.46555C7.42766 8.46586 7.42719 8.46617 7.42687 8.46617Z" fill="#EA4B98"/>
<path d="M7.44781 8.45523H7.43281C7.43281 8.45773 7.43344 8.45961 7.43469 8.46086C7.43594 8.46211 7.4375 8.46273 7.43969 8.46273C7.44125 8.46273 7.4425 8.46258 7.44344 8.46211C7.44422 8.46133 7.44484 8.46055 7.44531 8.45961H7.44594L7.44781 8.46086C7.44734 8.46211 7.44625 8.46336 7.44469 8.46461C7.44344 8.46539 7.44172 8.46586 7.43969 8.46586C7.4375 8.46586 7.43563 8.46539 7.43406 8.46461C7.43281 8.46383 7.43172 8.46258 7.43094 8.46086C7.43 8.4593 7.42969 8.45711 7.42969 8.45461C7.42969 8.45211 7.43 8.45008 7.43094 8.44836C7.43172 8.4468 7.43281 8.44555 7.43406 8.44461C7.43563 8.44383 7.4375 8.44336 7.43969 8.44336C7.44219 8.44336 7.44422 8.4443 7.44594 8.44586C7.4475 8.44711 7.44844 8.44945 7.44844 8.45273C7.44844 8.45398 7.44844 8.45492 7.44844 8.45523H7.44781ZM7.44531 8.45273C7.44484 8.45023 7.44422 8.44867 7.44344 8.44773C7.4425 8.44648 7.44125 8.44586 7.43969 8.44586C7.4375 8.44586 7.43594 8.44648 7.43469 8.44773C7.43375 8.44867 7.43313 8.45023 7.43281 8.45273H7.44531Z" fill="#EA4B98"/>
<path d="M7.47547 8.46617C7.47375 8.46617 7.47234 8.46586 7.47109 8.46555C7.46984 8.46477 7.46891 8.46367 7.46859 8.46242H7.46797V8.46555H7.46484V8.43555H7.46797V8.44742H7.46859C7.47016 8.44492 7.4725 8.44367 7.47547 8.44367C7.47703 8.44367 7.47859 8.44414 7.47984 8.44492C7.48141 8.44586 7.4825 8.44711 7.48297 8.44867C7.48375 8.45039 7.48422 8.45242 7.48422 8.45492C7.48422 8.45742 7.48375 8.45961 7.48297 8.46117C7.4825 8.46289 7.48141 8.46414 7.47984 8.46492C7.47859 8.4657 7.47703 8.46617 7.47547 8.46617ZM7.47484 8.46305C7.47891 8.46305 7.48109 8.46039 7.48109 8.45492C7.48109 8.45211 7.48047 8.44992 7.47922 8.44867C7.47828 8.44711 7.47687 8.44617 7.47484 8.44617C7.47266 8.44617 7.47109 8.44711 7.46984 8.44867C7.46859 8.44992 7.46797 8.45211 7.46797 8.45492C7.46797 8.45742 7.46859 8.45961 7.46984 8.46117C7.47109 8.46242 7.47266 8.46305 7.47484 8.46305Z" fill="#EA4B98"/>
<path d="M7.49078 8.43992C7.48984 8.43992 7.48922 8.43977 7.48891 8.4393C7.48844 8.43898 7.48828 8.43836 7.48828 8.43742C7.48828 8.43711 7.48844 8.43664 7.48891 8.43617C7.48922 8.43586 7.48984 8.43555 7.49078 8.43555C7.49109 8.43555 7.49156 8.43586 7.49203 8.43617C7.49234 8.43664 7.49266 8.43711 7.49266 8.43742C7.49266 8.43836 7.49234 8.43898 7.49203 8.4393C7.49156 8.43977 7.49109 8.43992 7.49078 8.43992ZM7.48891 8.46555V8.4443H7.49203V8.46555H7.48891Z" fill="#EA4B98"/>
<path d="M7.51312 8.4632L7.51437 8.46508C7.51391 8.46555 7.51328 8.46602 7.5125 8.46633C7.51156 8.46664 7.51063 8.46695 7.50937 8.46695C7.50562 8.46695 7.50375 8.46492 7.50375 8.4607V8.44758H7.5V8.44445H7.50375V8.44008L7.50687 8.43945V8.44445H7.51375V8.44758H7.50687V8.46008C7.50687 8.46258 7.50781 8.46383 7.51 8.46383C7.51125 8.46383 7.51219 8.46367 7.51312 8.4632Z" fill="#EA4B98"/>
<path d="M7.53734 8.46586C7.53516 8.46586 7.53328 8.46539 7.53172 8.46461C7.53047 8.46383 7.52937 8.46258 7.52859 8.46086C7.52766 8.45883 7.52734 8.4568 7.52734 8.45461C7.52734 8.45211 7.52766 8.45008 7.52859 8.44836C7.52937 8.4468 7.53047 8.44555 7.53172 8.44461C7.53328 8.44383 7.53516 8.44336 7.53734 8.44336C7.53937 8.44336 7.54109 8.44383 7.54234 8.44461C7.54391 8.44555 7.54516 8.4468 7.54609 8.44836C7.54687 8.45008 7.54734 8.45211 7.54734 8.45461C7.54734 8.4568 7.54687 8.45883 7.54609 8.46086C7.54516 8.46258 7.54391 8.46383 7.54234 8.46461C7.54109 8.46539 7.53937 8.46586 7.53734 8.46586ZM7.53734 8.46273C7.53937 8.46273 7.54078 8.46211 7.54172 8.46086C7.54297 8.45961 7.54359 8.45758 7.54359 8.45461C7.54359 8.4518 7.54297 8.44961 7.54172 8.44836C7.54078 8.4468 7.53937 8.44586 7.53734 8.44586C7.53516 8.44586 7.53359 8.4468 7.53234 8.44836C7.53109 8.44961 7.53047 8.4518 7.53047 8.45461C7.53047 8.45758 7.53109 8.45961 7.53234 8.46086C7.53359 8.46211 7.53516 8.46273 7.53734 8.46273Z" fill="#EA4B98"/>
<path d="M7.55453 8.46617V8.44742H7.55078V8.4443H7.55453C7.55406 8.44352 7.55391 8.44273 7.55391 8.4418C7.55391 8.44055 7.55406 8.43961 7.55453 8.43867C7.55531 8.43742 7.55609 8.43664 7.55703 8.43617C7.55828 8.43586 7.55953 8.43555 7.56078 8.43555C7.56328 8.43555 7.56484 8.43602 7.56578 8.4368L7.56453 8.4393C7.56359 8.43852 7.56234 8.43805 7.56078 8.43805C7.55953 8.43805 7.55844 8.43852 7.55766 8.4393C7.55719 8.43977 7.55703 8.44055 7.55703 8.4418C7.55703 8.44273 7.55719 8.44352 7.55766 8.4443H7.56453V8.44742H7.55766V8.46617H7.55453Z" fill="#EA4B98"/>
<path d="M7.58875 8.46617C7.58703 8.46617 7.58562 8.46586 7.58437 8.46555C7.58312 8.46477 7.58219 8.46367 7.58187 8.46242H7.58125V8.46555H7.57812V8.43555H7.58125V8.44742H7.58187C7.58344 8.44492 7.58578 8.44367 7.58875 8.44367C7.59031 8.44367 7.59187 8.44414 7.59312 8.44492C7.59469 8.44586 7.59578 8.44711 7.59625 8.44867C7.59703 8.45039 7.5975 8.45242 7.5975 8.45492C7.5975 8.45742 7.59703 8.45961 7.59625 8.46117C7.59578 8.46289 7.59469 8.46414 7.59312 8.46492C7.59187 8.4657 7.59031 8.46617 7.58875 8.46617ZM7.58812 8.46305C7.59219 8.46305 7.59437 8.46039 7.59437 8.45492C7.59437 8.45211 7.59375 8.44992 7.5925 8.44867C7.59156 8.44711 7.59016 8.44617 7.58812 8.44617C7.58594 8.44617 7.58437 8.44711 7.58312 8.44867C7.58187 8.44992 7.58125 8.45211 7.58125 8.45492C7.58125 8.45742 7.58187 8.45961 7.58312 8.46117C7.58437 8.46242 7.58594 8.46305 7.58812 8.46305Z" fill="#EA4B98"/>
<path d="M7.61156 8.46586C7.60937 8.46586 7.6075 8.46539 7.60594 8.46461C7.60469 8.46383 7.60359 8.46258 7.60281 8.46086C7.60187 8.45883 7.60156 8.4568 7.60156 8.45461C7.60156 8.45211 7.60187 8.45008 7.60281 8.44836C7.60359 8.4468 7.60469 8.44555 7.60594 8.44461C7.6075 8.44383 7.60937 8.44336 7.61156 8.44336C7.61359 8.44336 7.61531 8.44383 7.61656 8.44461C7.61812 8.44555 7.61937 8.4468 7.62031 8.44836C7.62109 8.45008 7.62156 8.45211 7.62156 8.45461C7.62156 8.4568 7.62109 8.45883 7.62031 8.46086C7.61937 8.46258 7.61812 8.46383 7.61656 8.46461C7.61531 8.46539 7.61359 8.46586 7.61156 8.46586ZM7.61156 8.46273C7.61359 8.46273 7.615 8.46211 7.61594 8.46086C7.61719 8.45961 7.61781 8.45758 7.61781 8.45461C7.61781 8.4518 7.61719 8.44961 7.61594 8.44836C7.615 8.4468 7.61359 8.44586 7.61156 8.44586C7.60937 8.44586 7.60781 8.4468 7.60656 8.44836C7.60531 8.44961 7.60469 8.4518 7.60469 8.45461C7.60469 8.45758 7.60531 8.45961 7.60656 8.46086C7.60781 8.46211 7.60937 8.46273 7.61156 8.46273Z" fill="#EA4B98"/>
<path d="M7.63375 8.46617C7.63203 8.46617 7.63031 8.4657 7.62875 8.46492C7.6275 8.46414 7.62641 8.46289 7.62562 8.46117C7.62516 8.45961 7.625 8.45742 7.625 8.45492C7.625 8.45242 7.62531 8.45039 7.62625 8.44867C7.62703 8.44711 7.62812 8.44586 7.62938 8.44492C7.63062 8.44414 7.63203 8.44367 7.63375 8.44367C7.63531 8.44367 7.63656 8.44398 7.6375 8.4443C7.63875 8.44477 7.63969 8.44555 7.64062 8.4468H7.64125V8.43555H7.64438V8.46555H7.64125V8.46242H7.64062C7.64016 8.46336 7.63937 8.46414 7.63812 8.46492C7.63687 8.4657 7.63531 8.46617 7.63375 8.46617ZM7.63437 8.46305C7.63641 8.46305 7.63812 8.46242 7.63937 8.46117C7.64062 8.45961 7.64125 8.45742 7.64125 8.45492C7.64125 8.45211 7.64062 8.44992 7.63937 8.44867C7.63812 8.44711 7.63641 8.44617 7.63437 8.44617C7.63266 8.44617 7.63125 8.44711 7.63 8.44867C7.62875 8.44992 7.62812 8.45211 7.62812 8.45492C7.62812 8.46039 7.63016 8.46305 7.63437 8.46305Z" fill="#EA4B98"/>
<path d="M7.65219 8.47594C7.65125 8.47594 7.65047 8.47562 7.64969 8.47531C7.64922 8.47531 7.64875 8.47531 7.64844 8.47531L7.64906 8.47219H7.64969C7.64969 8.4725 7.64984 8.47281 7.65031 8.47281C7.65109 8.47281 7.65172 8.47281 7.65219 8.47281C7.65297 8.47281 7.65359 8.4725 7.65406 8.47219C7.65484 8.47219 7.65547 8.47172 7.65594 8.47094C7.65625 8.47047 7.65656 8.46984 7.65656 8.46906L7.65781 8.46719L7.64906 8.44531H7.65219L7.65906 8.46281H7.65969L7.66594 8.44531H7.66906L7.65969 8.46969C7.65922 8.47125 7.65859 8.4725 7.65781 8.47344C7.65687 8.47422 7.65609 8.47484 7.65531 8.47531C7.65437 8.47562 7.65344 8.47594 7.65219 8.47594Z" fill="#EA4B98"/>
<path d="M7.69672 8.4632L7.69797 8.46508C7.6975 8.46555 7.69687 8.46602 7.69609 8.46633C7.69516 8.46664 7.69422 8.46695 7.69297 8.46695C7.68922 8.46695 7.68734 8.46492 7.68734 8.4607V8.44758H7.68359V8.44445H7.68734V8.44008L7.69047 8.43945V8.44445H7.69734V8.44758H7.69047V8.46008C7.69047 8.46258 7.69141 8.46383 7.69359 8.46383C7.69484 8.46383 7.69578 8.46367 7.69672 8.4632Z" fill="#EA4B98"/>
<path d="M7.71734 8.45523H7.70234C7.70234 8.45773 7.70297 8.45961 7.70422 8.46086C7.70547 8.46211 7.70703 8.46273 7.70922 8.46273C7.71078 8.46273 7.71203 8.46258 7.71297 8.46211C7.71375 8.46133 7.71437 8.46055 7.71484 8.45961H7.71547L7.71734 8.46086C7.71687 8.46211 7.71578 8.46336 7.71422 8.46461C7.71297 8.46539 7.71125 8.46586 7.70922 8.46586C7.70703 8.46586 7.70516 8.46539 7.70359 8.46461C7.70234 8.46383 7.70125 8.46258 7.70047 8.46086C7.69953 8.4593 7.69922 8.45711 7.69922 8.45461C7.69922 8.45211 7.69953 8.45008 7.70047 8.44836C7.70125 8.4468 7.70234 8.44555 7.70359 8.44461C7.70516 8.44383 7.70703 8.44336 7.70922 8.44336C7.71172 8.44336 7.71375 8.4443 7.71547 8.44586C7.71703 8.44711 7.71797 8.44945 7.71797 8.45273C7.71797 8.45398 7.71797 8.45492 7.71797 8.45523H7.71734ZM7.71484 8.45273C7.71437 8.45023 7.71375 8.44867 7.71297 8.44773C7.71203 8.44648 7.71078 8.44586 7.70922 8.44586C7.70703 8.44586 7.70547 8.44648 7.70422 8.44773C7.70328 8.44867 7.70266 8.45023 7.70234 8.45273H7.71484Z" fill="#EA4B98"/>
<path d="M7.72578 8.46656H7.72266L7.72891 8.45531L7.72266 8.44531H7.72641L7.73141 8.45344H7.73203L7.73703 8.44531H7.74016L7.73391 8.45531L7.74078 8.46656H7.73703L7.73141 8.45719L7.72578 8.46656Z" fill="#EA4B98"/>
<path d="M7.75531 8.4632L7.75656 8.46508C7.75609 8.46555 7.75547 8.46602 7.75469 8.46633C7.75375 8.46664 7.75281 8.46695 7.75156 8.46695C7.74781 8.46695 7.74594 8.46492 7.74594 8.4607V8.44758H7.74219V8.44445H7.74594V8.44008L7.74906 8.43945V8.44445H7.75594V8.44758H7.74906V8.46008C7.74906 8.46258 7.75 8.46383 7.75219 8.46383C7.75344 8.46383 7.75438 8.46367 7.75531 8.4632Z" fill="#EA4B98"/>
</g>
<defs>
<clipPath id="clip0_4373_5278">
<rect width="15" height="15" fill="white"/>
</clipPath>
</defs>
</svg>
