<svg width="30" height="30" viewBox="0 0 30 30" fill="none" xmlns="http://www.w3.org/2000/svg">
<g clip-path="url(#clip0_3398_1634)">
<path opacity="0.936" fill-rule="evenodd" clip-rule="evenodd" d="M14.5606 -0.0292969C15.8302 -0.0292969 17.0997 -0.0292969 18.3692 -0.0292969C18.8476 0.126493 19.1893 0.438993 19.3946 0.908203C19.4692 1.62675 19.5083 2.34941 19.5118 3.07617C19.5381 3.19447 19.587 3.30189 19.6583 3.39844C20.1708 3.60186 20.6787 3.8167 21.1817 4.04297C21.3184 4.08203 21.4552 4.08203 21.5919 4.04297C22.0624 3.55287 22.5506 3.08412 23.0567 2.63672C23.6231 2.28516 24.1895 2.28516 24.7559 2.63672C25.4803 3.38064 26.2225 4.1033 26.9825 4.80469C27.6445 5.5048 27.7129 6.25676 27.1876 7.06055C26.7365 7.49203 26.3068 7.94121 25.8985 8.4082C25.8594 8.52539 25.8594 8.64258 25.8985 8.75977C26.1233 9.27832 26.348 9.79594 26.5723 10.3125C26.6653 10.363 26.763 10.4021 26.8653 10.4297C27.592 10.4332 28.3147 10.4723 29.0333 10.5469C29.5025 10.7521 29.815 11.0939 29.9708 11.5723C29.9708 12.8418 29.9708 14.1113 29.9708 15.3809C29.7803 15.952 29.3897 16.3133 28.7989 16.4648C28.1153 16.4844 27.4317 16.5039 26.7481 16.5234C26.5793 16.5967 26.4719 16.7237 26.4258 16.9043C26.2396 17.3938 26.054 17.8821 25.8692 18.3691C25.8737 18.4746 25.903 18.5722 25.9571 18.6621C26.3673 19.0723 26.7774 19.4824 27.1876 19.8926C27.6481 20.5285 27.6676 21.173 27.2462 21.8262C26.4356 22.6367 25.625 23.4473 24.8145 24.2578C24.0879 24.6527 23.4043 24.5941 22.7637 24.082C22.2266 23.5449 21.6895 23.0078 21.1524 22.4707C20.8921 21.9816 21.0288 21.6691 21.5626 21.5332C21.6505 21.5625 21.7383 21.5918 21.8262 21.6211C22.3927 22.1875 22.959 22.7539 23.5255 23.3203C23.7258 23.4871 23.9406 23.5066 24.17 23.3789C24.9219 22.627 25.6739 21.875 26.4258 21.123C26.4721 20.9394 26.4526 20.7636 26.3673 20.5957C25.9571 20.1855 25.5469 19.7754 25.1368 19.3652C24.8355 18.9424 24.7379 18.4737 24.8438 17.959C25.1139 17.3603 25.3678 16.7548 25.6055 16.1426C25.7872 15.832 26.0508 15.627 26.3965 15.5273C27.1355 15.4539 27.8776 15.4148 28.6231 15.4102C28.7501 15.3613 28.838 15.2735 28.8868 15.1465C28.9259 14.0137 28.9259 12.8808 28.8868 11.748C28.8156 11.6573 28.7278 11.589 28.6231 11.543C27.8781 11.537 27.136 11.4979 26.3965 11.4258C25.961 11.2831 25.6582 10.9999 25.4883 10.5762C25.2897 10.0421 25.0748 9.5148 24.8438 8.99414C24.7538 8.51367 24.8319 8.06449 25.0782 7.64648C25.5079 7.21682 25.9376 6.78709 26.3673 6.35742C26.4526 6.18949 26.4721 6.01371 26.4258 5.83008C25.6543 5.05859 24.8829 4.28711 24.1114 3.51563C23.9278 3.46933 23.752 3.48886 23.584 3.57422C23.1544 4.0039 22.7247 4.4336 22.295 4.86328C21.8132 5.13769 21.3053 5.19629 20.7715 5.03906C20.2343 4.78187 19.6874 4.54749 19.1309 4.33594C18.7511 4.0749 18.5265 3.71357 18.4571 3.25195C18.4376 2.60742 18.418 1.96289 18.3985 1.31836C18.3525 1.21371 18.2842 1.12582 18.1934 1.05469C17.0606 1.01562 15.9278 1.01562 14.795 1.05469C14.668 1.10351 14.5801 1.1914 14.5313 1.31836C14.5267 2.06382 14.4876 2.80601 14.4141 3.54492C14.3145 3.8906 14.1094 4.15427 13.7989 4.33594C13.1867 4.57368 12.5812 4.82759 11.9825 5.09766C11.4678 5.20362 10.999 5.10596 10.5762 4.80469C10.1661 4.39453 9.75592 3.98438 9.34577 3.57422C9.17784 3.48886 9.00206 3.46933 8.81842 3.51563C8.06649 4.26758 7.3145 5.01953 6.56256 5.77148C6.43483 6.00082 6.4544 6.21568 6.62116 6.41602C7.18758 6.98244 7.75395 7.54881 8.32038 8.11524C8.47231 8.55188 8.31604 8.82533 7.85163 8.93555C7.68815 8.90074 7.54167 8.83236 7.41217 8.73047C6.89461 8.21291 6.377 7.69529 5.85944 7.17773C5.34739 6.53719 5.2888 5.85357 5.68366 5.12695C6.55635 4.21509 7.46456 3.34595 8.40827 2.51953C8.91112 2.33288 9.39938 2.37194 9.87311 2.63672C10.3809 3.10547 10.8887 3.57422 11.3965 4.04297C11.5778 4.08116 11.7536 4.06163 11.9239 3.98438C12.3663 3.77295 12.8155 3.57763 13.2715 3.39844C13.3419 3.34556 13.3908 3.2772 13.418 3.19336C13.4375 2.50976 13.4571 1.82617 13.4766 1.14258C13.6282 0.551768 13.9895 0.161143 14.5606 -0.0292969Z" fill="#5C5C5C"/>
<path opacity="0.928" fill-rule="evenodd" clip-rule="evenodd" d="M15.9078 6.94404C18.9624 6.87391 21.1597 8.20199 22.4996 10.9284C23.3894 13.3618 23.0574 15.6079 21.5035 17.6667C21.316 17.8739 21.1109 18.0595 20.8883 18.2233C20.3902 18.2721 20.1656 18.0476 20.2145 17.5495C20.5494 17.156 20.8619 16.7458 21.152 16.319C22.1386 14.5337 22.1972 12.7173 21.3277 10.8698C19.9807 8.66201 18.0178 7.73424 15.4391 8.08662C14.7915 8.21776 14.186 8.45213 13.6227 8.78975C13.1959 9.07979 12.7857 9.39227 12.3922 9.72725C11.8302 9.74694 11.6251 9.48326 11.777 8.93623C12.9162 7.77578 14.2931 7.11168 15.9078 6.94404Z" fill="#5C5C5C"/>
<path opacity="0.936" fill-rule="evenodd" clip-rule="evenodd" d="M11.3965 29.971C10.459 29.971 9.52148 29.971 8.58398 29.971C7.66096 29.6109 7.2801 28.9273 7.44141 27.9202C7.41187 27.714 7.30447 27.5675 7.11914 27.4808C6.90979 27.4004 6.70471 27.3125 6.50391 27.2171C6.42193 27.2597 6.33404 27.289 6.24023 27.305C5.95225 27.6634 5.60071 27.9368 5.18555 28.1253C4.5742 28.3045 4.02732 28.1873 3.54492 27.7737C3.08594 27.3148 2.62695 26.8557 2.16797 26.3968C1.70739 25.8516 1.60973 25.2461 1.875 24.5804C2.08513 24.2528 2.33904 23.9598 2.63672 23.7015C2.6827 23.3429 2.60457 23.0109 2.40234 22.7054C2.29689 22.5989 2.16994 22.5305 2.02148 22.5003C1.01443 22.6616 0.33084 22.2807 -0.0292969 21.3577C-0.0292969 20.4202 -0.0292969 19.4827 -0.0292969 18.5452C0.17457 17.9244 0.60426 17.5631 1.25977 17.4612C1.57226 17.4417 1.88477 17.4221 2.19727 17.4026C2.31752 17.3481 2.40541 17.2603 2.46094 17.139C2.5491 16.9134 2.63699 16.6888 2.72461 16.4651C2.54879 16.1129 2.30465 15.8102 1.99219 15.5569C1.61105 14.8864 1.65011 14.2419 2.10938 13.6233C2.60742 13.1253 3.10547 12.6272 3.60352 12.1292C4.23879 11.6681 4.90285 11.629 5.5957 12.012C5.81251 12.2484 6.04688 12.4633 6.29883 12.6565C6.65396 12.6555 6.98602 12.5579 7.29492 12.3636C7.37478 12.2496 7.42365 12.1226 7.44141 11.9827C7.30072 11.0625 7.6425 10.4082 8.4668 10.0198C9.36252 9.92701 10.261 9.90744 11.1621 9.96123C11.7108 10.0353 12.1112 10.3185 12.3633 10.8108C12.4645 11.297 12.5427 11.7853 12.5977 12.2757C12.9303 12.5852 13.3112 12.6926 13.7402 12.5979C14.4016 11.7197 15.2219 11.5244 16.2012 12.012C16.7773 12.5882 17.3535 13.1644 17.9297 13.7405C18.2041 14.2223 18.2627 14.7302 18.1055 15.264C17.8768 15.649 17.6034 16.0006 17.2852 16.3186C17.2783 16.6307 17.3564 16.9236 17.5195 17.1976C17.5907 17.2883 17.6786 17.3566 17.7832 17.4026C19.5615 17.3459 20.3037 18.2053 20.0098 19.9808C20.0147 20.4817 19.9854 20.9798 19.9219 21.4749C19.5335 22.2992 18.8792 22.641 17.959 22.5003C17.8191 22.518 17.6921 22.5669 17.5781 22.6468C17.3838 22.9557 17.2862 23.2877 17.2852 23.6429C17.4588 23.8752 17.6541 24.0901 17.8711 24.2874C18.3132 24.9848 18.2937 25.6685 17.8125 26.3382C17.3145 26.8362 16.8164 27.3343 16.3184 27.8323C15.7021 28.2913 15.0575 28.3304 14.3848 27.9495C14.168 27.7131 13.9336 27.4982 13.6816 27.305C13.2258 27.2646 12.845 27.4111 12.5391 27.7444C12.5196 28.0569 12.5 28.3694 12.4805 28.6819C12.3786 29.3374 12.0173 29.7671 11.3965 29.971ZM8.93555 10.9866C9.7016 10.9607 10.4633 10.99 11.2207 11.0745C11.3371 11.1518 11.4055 11.2592 11.4258 11.3968C11.2901 12.2218 11.5538 12.876 12.2168 13.3597C12.7234 13.6719 13.2703 13.7891 13.8574 13.7112C14.0401 13.6492 14.2159 13.5711 14.3848 13.4769C14.6016 13.2404 14.8359 13.0256 15.0879 12.8323C15.2521 12.7881 15.4084 12.8076 15.5566 12.8909C16.0955 13.4102 16.6131 13.9474 17.1094 14.5022C17.1485 14.6194 17.1485 14.7366 17.1094 14.8538C16.9161 15.1058 16.7013 15.3401 16.4648 15.5569C16.0263 16.5679 16.2118 17.4565 17.0215 18.2229C17.1904 18.3172 17.3661 18.3953 17.5488 18.4573C17.9441 18.4644 18.3347 18.5035 18.7207 18.5745C18.8371 18.6518 18.9055 18.7592 18.9258 18.8968C18.9649 19.5999 18.9649 20.303 18.9258 21.0061C18.902 21.1816 18.8141 21.3086 18.6621 21.387C17.3265 21.2396 16.516 21.8159 16.2305 23.1155C16.1343 23.6094 16.2319 24.0586 16.5234 24.4632C16.7404 24.6605 16.9357 24.8753 17.1094 25.1077C17.1643 25.3058 17.1253 25.4815 16.9922 25.6351C16.5332 26.094 16.0742 26.553 15.6152 27.012C15.4296 27.1663 15.2343 27.1859 15.0293 27.0706C14.1792 26.0566 13.2026 25.9199 12.0996 26.6604C11.786 26.8867 11.5809 27.1894 11.4844 27.5686C11.4649 27.8811 11.4453 28.1937 11.4258 28.5061C11.402 28.6816 11.3141 28.8085 11.1621 28.887C10.3613 28.9261 9.56057 28.9261 8.75977 28.887C8.69139 28.8186 8.62307 28.7503 8.55469 28.6819C8.71002 27.3984 8.17289 26.5878 6.94336 26.2503C6.14086 26.0883 5.4963 26.3423 5.00977 27.012C4.82412 27.1663 4.62881 27.1859 4.42383 27.0706C3.90625 26.553 3.38867 26.0354 2.87109 25.5179C2.75586 25.3129 2.77539 25.1176 2.92969 24.9319C3.87219 24.1397 4.00891 23.2218 3.33984 22.178C3.16725 21.8883 2.92311 21.6832 2.60742 21.5628C2.16596 21.4517 1.71674 21.3931 1.25977 21.387C1.1914 21.3186 1.12305 21.2503 1.05469 21.1819C0.998139 20.3366 1.01767 19.4968 1.11328 18.6624C1.20983 18.5911 1.31725 18.5423 1.43555 18.5159C2.66089 18.6378 3.41285 18.1008 3.69141 16.9046C3.79898 16.4557 3.74038 16.026 3.51562 15.6155C3.28125 15.3421 3.04688 15.0687 2.8125 14.7952C2.7623 14.6164 2.80137 14.4602 2.92969 14.3265C3.42948 13.8071 3.94706 13.309 4.48242 12.8323C4.64668 12.7881 4.80292 12.8076 4.95117 12.8909C5.77801 13.8669 6.73506 14.0036 7.82227 13.3011C8.05553 13.1189 8.24109 12.8943 8.37891 12.6272C8.49 12.1858 8.54859 11.7366 8.55469 11.2796C8.64627 11.1318 8.77324 11.0341 8.93555 10.9866ZM9.63867 16.4944C11.2907 16.4586 12.4724 17.1812 13.1836 18.6624C13.7423 20.3241 13.3419 21.7011 11.9824 22.7933C10.2957 23.7876 8.74295 23.602 7.32422 22.2366C6.2226 20.767 6.20303 19.2826 7.26562 17.7835C7.89826 17.0523 8.68928 16.6226 9.63867 16.4944Z" fill="#5C5C5C"/>
<path opacity="0.936" fill-rule="evenodd" clip-rule="evenodd" d="M9.52148 15.4399C12.081 15.4128 13.7119 16.6237 14.4141 19.0727C14.7169 22.3342 13.2423 24.1506 9.99023 24.5219C7.19707 24.2678 5.67362 22.7444 5.41992 19.9516C5.64931 17.3986 7.01648 15.8946 9.52148 15.4399ZM9.63867 16.4946C8.68928 16.6228 7.89826 17.0525 7.26563 17.7836C6.20303 19.2828 6.2226 20.7671 7.32422 22.2368C8.74295 23.6022 10.2957 23.7878 11.9824 22.7934C13.3419 21.7012 13.7423 20.3243 13.1836 18.6626C12.4724 17.1814 11.2907 16.4587 9.63867 16.4946Z" fill="#5C5C5C"/>
<circle cx="10" cy="20" r="4" fill="#F4F4FB"/>
</g>
<defs>
<clipPath id="clip0_3398_1634">
<rect width="30" height="30" fill="white"/>
</clipPath>
</defs>
</svg>
