<svg width="34" height="34" viewBox="0 0 34 34" fill="none" xmlns="http://www.w3.org/2000/svg">
<g clip-path="url(#clip0_572_307)">
<path opacity="0.039" fill-rule="evenodd" clip-rule="evenodd" d="M3.56999 0.510013C12.4101 0.491125 21.2501 0.510013 30.09 0.566679C32.1321 0.682183 33.2467 1.75884 33.4333 3.79668C33.5089 12.6744 33.5089 21.5523 33.4333 30.43C33.3168 32.2083 32.3912 33.285 30.6567 33.66C21.4767 33.7356 12.2967 33.7356 3.11666 33.66C1.44481 33.3859 0.500365 32.4036 0.283325 30.7133C0.283325 21.6467 0.283325 12.58 0.283325 3.51335C0.651074 1.69027 1.74663 0.689151 3.56999 0.510013Z" fill="black"/>
<path fill-rule="evenodd" clip-rule="evenodd" d="M3.1167 1.53003C12.3344 1.53003 21.5523 1.53003 30.77 1.53003C30.8088 1.62503 30.8843 1.66281 30.9967 1.64336C31.0355 1.73836 31.1109 1.77614 31.2234 1.7567C31.2621 1.85169 31.3376 1.88948 31.45 1.87003C31.45 1.94559 31.4878 1.98336 31.5634 1.98336C31.5634 2.05892 31.6011 2.0967 31.6767 2.0967C31.6767 2.17226 31.7144 2.21003 31.79 2.21003C31.79 2.28559 31.8278 2.32336 31.9034 2.32336C31.9034 2.39892 31.9411 2.4367 32.0167 2.4367C31.9972 2.54908 32.0351 2.62464 32.13 2.66336C32.1105 2.77574 32.1484 2.8513 32.2434 2.89003C32.2239 3.00241 32.2617 3.07797 32.3567 3.1167C32.3567 12.3344 32.3567 21.5523 32.3567 30.77C32.2236 30.8849 32.1482 31.036 32.13 31.2234C32.0351 31.2621 31.9972 31.3376 32.0167 31.45C31.9411 31.45 31.9034 31.4878 31.9034 31.5634C31.8278 31.5634 31.79 31.6011 31.79 31.6767C31.7144 31.6767 31.6767 31.7144 31.6767 31.79C31.6011 31.79 31.5634 31.8278 31.5634 31.9034C31.4878 31.9034 31.45 31.9411 31.45 32.0167C31.3376 31.9972 31.2621 32.0351 31.2234 32.13C31.036 32.1482 30.8849 32.2236 30.77 32.3567C21.5523 32.3567 12.3344 32.3567 3.1167 32.3567C3.00181 32.2236 2.8507 32.1482 2.66336 32.13C2.57377 32.0279 2.46044 31.9523 2.32336 31.9034C2.32336 31.8278 2.28559 31.79 2.21003 31.79C2.21003 31.7144 2.17226 31.6767 2.0967 31.6767C2.0967 31.6011 2.05892 31.5634 1.98336 31.5634C1.93439 31.4262 1.85884 31.3129 1.7567 31.2234C1.73861 31.036 1.66305 30.8849 1.53003 30.77C1.53003 21.5523 1.53003 12.3344 1.53003 3.1167C1.66305 3.00181 1.73861 2.8507 1.7567 2.66336C1.85169 2.62464 1.88948 2.54908 1.87003 2.4367C1.94559 2.4367 1.98336 2.39892 1.98336 2.32336C2.05892 2.32336 2.0967 2.28559 2.0967 2.21003C2.17226 2.21003 2.21003 2.17226 2.21003 2.0967C2.28559 2.0967 2.32336 2.05892 2.32336 1.98336C2.39892 1.98336 2.4367 1.94559 2.4367 1.87003C2.54908 1.88948 2.62464 1.85169 2.66336 1.7567C2.77574 1.77614 2.8513 1.73836 2.89003 1.64336C3.00241 1.66281 3.07797 1.62503 3.1167 1.53003Z" fill="#EA4B98"/>
<path fill-rule="evenodd" clip-rule="evenodd" d="M10.9367 23.5167C10.9367 20.1922 10.9367 16.8677 10.9367 13.5433C9.84113 13.5433 8.74558 13.5433 7.65002 13.5433C8.09417 12.4472 8.58529 11.3705 9.12336 10.3133C10.8229 10.2567 12.5229 10.2378 14.2234 10.2567C14.2234 14.6767 14.2234 19.0967 14.2234 23.5167C13.1278 23.5167 12.0323 23.5167 10.9367 23.5167Z" fill="#FDFEFE"/>
<path fill-rule="evenodd" clip-rule="evenodd" d="M26.2367 10.4833C24.2959 14.8182 22.2937 19.1249 20.23 23.4033C19.0986 23.5355 17.9653 23.5543 16.83 23.46C18.4112 20.2094 19.9601 16.9415 21.4767 13.6567C19.4564 13.5437 17.4164 13.5059 15.3567 13.5433C15.3567 12.4856 15.3567 11.4278 15.3567 10.37C19.0027 10.3324 22.6294 10.3702 26.2367 10.4833Z" fill="#FDFDFE"/>
<path fill-rule="evenodd" clip-rule="evenodd" d="M26.2366 10.4833C22.6293 10.3702 19.0027 10.3324 15.3566 10.37C15.3566 11.4277 15.3566 12.4856 15.3566 13.5433C17.4163 13.5059 19.4563 13.5437 21.4766 13.6567C19.3989 13.6567 17.321 13.6567 15.2433 13.6567C15.2433 12.5233 15.2433 11.39 15.2433 10.2567C18.9462 10.2189 22.6485 10.2567 26.35 10.37C26.3359 10.4387 26.2982 10.4765 26.2366 10.4833Z" fill="#A8B2CF"/>
<path fill-rule="evenodd" clip-rule="evenodd" d="M7.65002 13.5433C8.74558 13.5433 9.84113 13.5433 10.9367 13.5433C10.9367 16.8677 10.9367 20.1923 10.9367 23.5167C10.8236 20.2494 10.7858 16.9627 10.8234 13.6567C9.68039 13.6943 8.62261 13.6566 7.65002 13.5433Z" fill="#8594BC"/>
<path fill-rule="evenodd" clip-rule="evenodd" d="M25.2167 23.5167C25.2541 21.3814 25.2163 19.2659 25.1033 17.17C25.1354 17.0806 25.1921 17.005 25.2733 16.9434C25.3673 19.1538 25.3484 21.345 25.2167 23.5167Z" fill="#F4891E"/>
<path fill-rule="evenodd" clip-rule="evenodd" d="M25.1033 17.17C25.2163 19.2659 25.2541 21.3813 25.2167 23.5166C24.196 23.5355 23.176 23.5166 22.1567 23.46C23.1719 21.377 24.1542 19.2804 25.1033 17.17Z" fill="#F4891E"/>
</g>
<defs>
<clipPath id="clip0_572_307">
<rect width="34" height="34" fill="white"/>
</clipPath>
</defs>
</svg>
