<svg width="34" height="34" viewBox="0 0 34 34" fill="none" xmlns="http://www.w3.org/2000/svg">
<rect x="0.5" y="0.5" width="33" height="33" rx="5.5" fill="white" stroke="#EA4B98"/>
<g clip-path="url(#clip0_572_298)">
<path fill-rule="evenodd" clip-rule="evenodd" d="M21.3797 9.43654C21.7295 9.78564 22.126 10.181 22.126 10.181C22.126 10.181 23.7584 10.3024 23.8354 10.3091C23.9131 10.3158 24.0067 10.3752 24.0213 10.4826C24.0359 10.59 26.3401 26.2474 26.3401 26.2474L20.6859 27.4765L21.3797 9.43654ZM20.5123 8.84348C20.469 8.84909 20.4314 8.85764 20.4053 8.86541C20.3913 8.86941 20.1577 8.94214 19.7706 9.06222C19.3916 7.96676 18.7231 6.96003 17.5474 6.96003C17.5148 6.96003 17.481 6.96137 17.4478 6.96337C17.1132 6.51904 16.699 6.32556 16.3412 6.32556C13.6014 6.32556 12.2923 9.76807 11.882 11.5167C10.8172 11.8482 10.0611 12.0837 9.96482 12.1144C9.37001 12.3019 9.35142 12.3206 9.27375 12.883C9.21467 13.3093 7.65991 25.3934 7.65991 25.3934L19.7753 27.6744L19.7882 27.6716L20.5123 8.84348ZM17.3582 9.69335C17.3582 9.73538 17.3575 9.77407 17.3575 9.81277C16.6903 10.0203 15.9661 10.2457 15.2398 10.4719C15.6474 8.89076 16.4115 8.12686 17.08 7.83865C17.248 8.26296 17.3582 8.87209 17.3582 9.69335ZM16.2655 7.06411C16.3843 7.06411 16.5031 7.1048 16.6173 7.18353C15.739 7.59849 14.7984 8.64458 14.4007 10.7328C13.8198 10.9136 13.2522 11.0904 12.7271 11.2538C13.1925 9.66065 14.2978 7.06411 16.2655 7.06411ZM16.7375 16.3742C16.7375 16.3742 16.0285 15.9939 15.1595 15.9939C13.8849 15.9939 13.8205 16.7978 13.8205 17C13.8205 18.1054 16.687 18.5291 16.687 21.1176C16.687 23.1538 15.4018 24.4654 13.6685 24.4654C11.5886 24.4654 10.5251 23.1644 10.5251 23.1644L11.0821 21.3158C11.0821 21.3158 12.1755 22.2591 13.0982 22.2591C13.7003 22.2591 13.946 21.7821 13.946 21.4339C13.946 19.9922 11.5939 19.9274 11.5939 17.5584C11.5939 15.5649 13.0179 13.6355 15.8924 13.6355C16.9997 13.6355 17.5474 13.9544 17.5474 13.9544L16.7375 16.3742ZM18.0758 9.58927C18.0758 9.51655 18.0765 9.44516 18.0765 9.3671C18.0765 8.68661 17.9822 8.13821 17.8315 7.7039C18.4376 7.77995 18.8412 8.47311 19.1008 9.27035C18.7968 9.36509 18.4509 9.47252 18.0758 9.58927Z" fill="#EA4B98"/>
</g>
<defs>
<clipPath id="clip0_572_298">
<rect width="21.3488" height="21.3488" fill="white" transform="translate(6.32556 6.32556)"/>
</clipPath>
</defs>
</svg>
