<svg width="30" height="30" viewBox="0 0 30 30" fill="none" xmlns="http://www.w3.org/2000/svg">
<rect x="0.5" y="0.5" width="29" height="29" rx="5.5" stroke="white"/>
<g clip-path="url(#clip0_3507_120)">
<path fill-rule="evenodd" clip-rule="evenodd" d="M18.864 8.32592C19.1727 8.63394 19.5225 8.98282 19.5225 8.98282C19.5225 8.98282 20.9629 9.08994 21.0308 9.09583C21.0993 9.10172 21.1819 9.15411 21.1948 9.24889C21.2077 9.34366 23.2409 23.159 23.2409 23.159L18.2518 24.2435L18.864 8.32592ZM18.0987 7.80262C18.0604 7.80757 18.0273 7.81512 18.0042 7.82198C17.9919 7.82551 17.7857 7.88967 17.4442 7.99563C17.1098 7.02905 16.5199 6.14076 15.4825 6.14076C15.4538 6.14076 15.424 6.14194 15.3947 6.1437C15.0994 5.75165 14.7339 5.58093 14.4182 5.58093C12.0008 5.58093 10.8457 8.61844 10.4837 10.1613C9.54415 10.4539 8.87698 10.6617 8.79205 10.6888C8.26721 10.8542 8.25081 10.8707 8.18227 11.3669C8.13014 11.7431 6.7583 22.4055 6.7583 22.4055L17.4483 24.4181L17.4597 24.4157L18.0987 7.80262ZM15.3156 8.55251C15.3156 8.5896 15.315 8.62374 15.315 8.65788C14.7263 8.84095 14.0873 9.03992 13.4465 9.23948C13.8061 7.84434 14.4803 7.17031 15.0702 6.91601C15.2184 7.2904 15.3156 7.82787 15.3156 8.55251ZM14.3514 6.23259C14.4563 6.23259 14.5611 6.2685 14.6619 6.33796C13.8869 6.70411 13.0569 7.62712 12.7061 9.46964C12.1935 9.62917 11.6927 9.78516 11.2294 9.92939C11.64 8.52366 12.6153 6.23259 14.3514 6.23259ZM14.7679 14.4474C14.7679 14.4474 14.1423 14.1118 13.3756 14.1118C12.2509 14.1118 12.1941 14.8212 12.1941 14.9995C12.1941 15.975 14.7234 16.3488 14.7234 18.6328C14.7234 20.4294 13.5894 21.5867 12.06 21.5867C10.2248 21.5867 9.28642 20.4388 9.28642 20.4388L9.77787 18.8076C9.77787 18.8076 10.7426 19.64 11.5568 19.64C12.0881 19.64 12.3048 19.2191 12.3048 18.9118C12.3048 17.6397 10.2295 17.5826 10.2295 15.4922C10.2295 13.7333 11.4859 12.0309 14.0222 12.0309C14.9993 12.0309 15.4825 12.3123 15.4825 12.3123L14.7679 14.4474ZM15.9488 8.46068C15.9488 8.39651 15.9494 8.33352 15.9494 8.26465C15.9494 7.66421 15.8662 7.18033 15.7332 6.79711C16.268 6.86422 16.6242 7.47583 16.8532 8.17928C16.5849 8.26287 16.2797 8.35766 15.9488 8.46068Z" fill="white"/>
</g>
<defs>
<clipPath id="clip0_3507_120">
<rect width="18.8372" height="18.8372" fill="white" transform="translate(5.58105 5.58093)"/>
</clipPath>
</defs>
</svg>
