<svg width="50" height="50" viewBox="0 0 50 50" fill="none" xmlns="http://www.w3.org/2000/svg">
<g clip-path="url(#clip0_1242_31)">
<path opacity="0.964" fill-rule="evenodd" clip-rule="evenodd" d="M17.8223 6.29909C16.542 6.24361 15.2724 6.325 14.0137 6.54323C13.2436 6.78951 12.5764 7.19642 12.0117 7.76394C11.1196 6.93432 10.0616 6.46232 8.83788 6.34792C7.92645 6.28281 7.01493 6.28281 6.1035 6.34792C5.11073 6.65627 4.73631 7.32359 4.98046 8.34987C5.15702 8.78683 5.4662 9.09607 5.90819 9.27761C6.81962 9.31016 7.73114 9.34272 8.64256 9.37526C9.63544 9.58686 10.2376 10.189 10.4492 11.1819C10.5143 20.3616 10.5143 29.5413 10.4492 38.721C10.2376 39.7138 9.63544 40.316 8.64256 40.5276C7.73114 40.5601 6.81962 40.5927 5.90819 40.6253C5.03778 41.0201 4.7285 41.6874 4.98046 42.6272C5.17645 43.1485 5.55087 43.4577 6.1035 43.555C7.24667 43.6362 8.38592 43.6037 9.52147 43.4573C10.4835 43.2568 11.3136 42.8174 12.0117 42.1389C12.8697 42.9666 13.8951 43.4385 15.0879 43.555C15.9993 43.6201 16.9108 43.6201 17.8223 43.555C18.7272 43.2916 19.1342 42.6893 19.043 41.7483C18.9118 41.1737 18.57 40.7994 18.0176 40.6253C16.9702 40.6158 15.9286 40.5508 14.8926 40.43C14.216 40.1766 13.7765 39.7047 13.5742 39.0139C13.5091 29.6389 13.5091 20.2639 13.5742 10.8889C13.7765 10.1982 14.216 9.7262 14.8926 9.47292C15.9286 9.35216 16.9702 9.28705 18.0176 9.27761C18.9491 8.861 19.2583 8.16112 18.9453 7.178C18.6785 6.7295 18.3042 6.43653 17.8223 6.29909Z" fill="white"/>
<path opacity="0.99" fill-rule="evenodd" clip-rule="evenodd" d="M50.0488 31.6897C50.0488 27.1975 50.0488 22.7053 50.0488 18.2131C49.5901 16.6968 48.581 15.7691 47.0215 15.4299C36.8002 15.3811 26.5788 15.3648 16.3574 15.3811C16.3574 21.7613 16.3574 28.1416 16.3574 34.5217C26.5788 34.5381 36.8002 34.5217 47.0215 34.4729C48.5835 34.1311 49.5926 33.2034 50.0488 31.6897ZM43.3105 20.5569C40.9015 20.5406 38.4926 20.5569 36.084 20.6057C34.865 20.9115 34.4907 21.6439 34.9609 22.803C35.2555 23.1538 35.6298 23.3653 36.084 23.4378C38.6596 23.5309 41.2312 23.4984 43.7988 23.3401C44.561 22.9709 44.8377 22.3687 44.6289 21.5335C44.3672 20.9562 43.9277 20.6306 43.3105 20.5569ZM30.3223 20.5569C27.7465 20.5125 25.1748 20.5613 22.6074 20.7034C21.6351 21.3052 21.4723 22.0865 22.1191 23.0471C22.4 23.2851 22.7256 23.4153 23.0957 23.4378C25.5046 23.5029 27.9134 23.5029 30.3223 23.4378C31.5412 23.132 31.9155 22.3996 31.4453 21.2405C31.1537 20.8579 30.7794 20.6299 30.3223 20.5569ZM43.3105 26.4163C36.5722 26.4 29.8339 26.4163 23.0957 26.4651C21.7258 26.8131 21.384 27.6105 22.0703 28.8577C22.359 29.124 22.7008 29.2705 23.0957 29.2971C29.834 29.3623 36.5723 29.3623 43.3105 29.2971C44.608 28.997 44.9824 28.2321 44.4336 27.0022C44.1106 26.6863 43.7362 26.491 43.3105 26.4163Z" fill="white"/>
<path opacity="0.981" fill-rule="evenodd" clip-rule="evenodd" d="M0.0488281 18.2131C0.0488281 22.7053 0.0488281 27.1975 0.0488281 31.6897C0.507617 33.206 1.5167 34.1338 3.07617 34.4729C4.60576 34.5217 6.13574 34.5381 7.66602 34.5217C7.66602 28.1416 7.66602 21.7613 7.66602 15.3811C6.13574 15.3648 4.60576 15.3811 3.07617 15.4299C1.5167 15.7691 0.507617 16.6968 0.0488281 18.2131Z" fill="white"/>
</g>
<defs>
<clipPath id="clip0_1242_31">
<rect width="50" height="50" fill="white" transform="matrix(-1 0 0 1 50 0)"/>
</clipPath>
</defs>
</svg>
