<svg width="20" height="20" viewBox="0 0 20 20" fill="none" xmlns="http://www.w3.org/2000/svg">
<g clip-path="url(#clip0_1487_24)">
<path opacity="0.974" fill-rule="evenodd" clip-rule="evenodd" d="M9.83213 1C10.3724 1.02266 10.8885 1.14754 11.3806 1.37464C13.6011 2.35999 15.8157 3.35905 18.0243 4.37178C18.2281 4.50685 18.4113 4.66505 18.5738 4.84632C17.3824 5.40035 16.1835 5.94148 14.9772 6.46977C14.8773 6.50309 14.7774 6.50309 14.6775 6.46977C11.8348 5.1358 8.99577 3.79543 6.16063 2.44862C6.13111 2.39949 6.1478 2.36619 6.21059 2.34871C7.04849 1.96721 7.88938 1.59257 8.73318 1.22479C9.09693 1.10094 9.46328 1.02601 9.83213 1Z" fill="#EA4B98"/>
<path opacity="0.969" fill-rule="evenodd" clip-rule="evenodd" d="M4.13753 3.24805C7.08601 4.58072 10.0166 5.95441 12.9291 7.36911C12.1857 7.71583 11.4365 8.04886 10.6813 8.36815C10.2191 8.50822 9.75291 8.52485 9.28261 8.41811C6.59603 7.27885 3.92358 6.10497 1.26527 4.89647C1.20246 4.87899 1.18581 4.84567 1.21532 4.79657C1.38558 4.64906 1.56041 4.50749 1.73982 4.37197C2.54205 3.99144 3.34129 3.61679 4.13753 3.24805Z" fill="#EA4B98"/>
<path opacity="0.993" fill-rule="evenodd" clip-rule="evenodd" d="M0.113597 6C3.10997 7.14745 6.1013 8.3099 9.08768 9.48746C9.38376 9.58867 9.68667 9.66394 9.99644 9.71326C10.0059 13.1422 9.99644 16.5711 9.96804 20C7.18523 18.9255 4.41156 17.8299 1.64714 16.7133C0.767853 16.1864 0.228272 15.4588 0.0284004 14.5305C-0.0094668 11.7873 -0.0094668 9.04422 0.0284004 6.30108C0.0463088 6.1964 0.0747078 6.09604 0.113597 6Z" fill="#EA4B98"/>
<path opacity="0.991" fill-rule="evenodd" clip-rule="evenodd" d="M18.7728 6.00216C18.8329 5.99363 18.8859 6.01034 18.9318 6.05233C18.947 6.13597 18.9621 6.21955 18.9773 6.30319C19.0076 9.04591 19.0076 11.7886 18.9773 14.5313C18.8174 15.4595 18.3857 16.187 17.6823 16.7138C15.4707 17.8302 13.2518 18.9257 11.0256 20C11.0028 16.5716 10.9953 13.1433 11.0028 9.71485C11.2507 9.66553 11.493 9.59027 11.7299 9.48908C12.4853 9.10793 13.2425 8.73164 14.0018 8.36022C14.0267 9.09889 14.0646 9.83471 14.1154 10.5678C14.3885 11.1041 14.7596 11.2045 15.2286 10.8688C15.325 10.7709 15.3932 10.6538 15.4331 10.5176C15.4482 9.56434 15.4634 8.61108 15.4785 7.65782C16.5827 7.11075 17.6808 6.55886 18.7728 6.00216Z" fill="#EA4B98"/>
</g>
<defs>
<clipPath id="clip0_1487_24">
<rect width="20" height="20" fill="white"/>
</clipPath>
</defs>
</svg>
