<svg width="235" height="35" viewBox="0 0 235 35" fill="none" xmlns="http://www.w3.org/2000/svg">
<g clip-path="url(#clip0_2694_1137)">
<path opacity="0.998" fill-rule="evenodd" clip-rule="evenodd" d="M16.8517 0.243819C23.6886 0.21632 28.9174 2.9861 32.5383 8.55315C35.1429 13.1121 35.5909 17.8678 33.882 22.8203C31.6517 28.3456 27.5895 31.8864 21.6955 33.4427C15.1194 34.7712 9.48924 33.1225 4.80509 28.4966C0.916137 24.1539 -0.468109 19.1399 0.652355 13.4549C2.13023 7.6911 5.68727 3.66732 11.3235 1.38344C13.1157 0.725602 14.9585 0.345728 16.8517 0.243819Z" fill="#4BAE4F"/>
<path fill-rule="evenodd" clip-rule="evenodd" d="M16.5026 7.95003C20.399 7.707 23.4297 9.14392 25.5948 12.2608C27.5031 15.6451 27.3927 18.9664 25.2637 22.2247C22.6847 25.4351 19.333 26.6239 15.2087 25.7909C14.6059 25.6031 14.0118 25.3975 13.4264 25.1742C12.0624 25.528 10.6979 25.882 9.33312 26.236C8.51872 26.3555 8.18562 26.0151 8.33377 25.2146C8.71556 23.9395 9.05857 22.6529 9.36273 21.3548C7.52962 17.5575 7.99177 14.0563 10.7491 10.8513C12.3341 9.26029 14.2519 8.29324 16.5026 7.95003Z" fill="#FCFEFD"/>
<path fill-rule="evenodd" clip-rule="evenodd" d="M16.3765 9.47835C20.4119 9.15418 23.2618 10.7697 24.926 14.3247C25.93 17.4053 25.3022 20.1219 23.0424 22.4747C20.7826 24.4093 18.1896 25.0054 15.2634 24.263C14.7902 24.104 14.3329 23.9084 13.8915 23.6763C13.7661 23.6662 13.6407 23.6561 13.5153 23.646C12.3801 23.8842 11.2543 24.1587 10.1379 24.4697C10.4096 23.3895 10.6974 22.3136 11.001 21.2421C10.7679 20.6776 10.5242 20.1151 10.2698 19.5545C9.2326 16.1999 10.0647 13.3709 12.766 11.0676C13.8548 10.2834 15.0583 9.75365 16.3765 9.47835Z" fill="#4BAE4F"/>
<path fill-rule="evenodd" clip-rule="evenodd" d="M14.4899 12.9466C14.7642 12.9334 15.0377 12.9423 15.3105 12.9733C15.3908 13.0501 15.4712 13.1269 15.5516 13.2038C15.8068 13.7773 16.062 14.3508 16.3172 14.9243C16.3697 15.1419 16.3257 15.3415 16.1852 15.523C15.9781 15.7604 15.7863 16.0054 15.61 16.2581C16.3223 17.6124 17.4234 18.5333 18.9133 19.021C18.9588 19.0096 19.0042 18.9982 19.0497 18.9867C19.3579 18.6604 19.64 18.315 19.896 17.9507C19.9453 17.9132 20.002 17.8906 20.0664 17.8829C20.8263 18.1289 21.5466 18.4552 22.2275 18.8619C22.3464 19.8616 21.9073 20.5181 20.9101 20.8314C20.0827 21.0269 19.2845 20.9447 18.5155 20.5848C16.3225 19.6523 14.6813 18.149 13.5919 16.0749C13.0742 14.7952 13.3735 13.7524 14.4899 12.9466Z" fill="#FDFEFD"/>
</g>
<g clip-path="url(#clip1_2694_1137)">
<path opacity="0.996" fill-rule="evenodd" clip-rule="evenodd" d="M66.9141 -0.0332031C67.4609 -0.0332031 68.0078 -0.0332031 68.5547 -0.0332031C72.8732 1.4107 76.7925 3.52464 80.3125 6.30859C81.4396 7.23762 82.5334 8.20051 83.5938 9.19727C83.8375 9.64066 84.0425 10.1055 84.209 10.5918C79.4745 5.4907 73.7095 1.94903 66.9141 -0.0332031Z" fill="#FF5E73"/>
<path opacity="0.993" fill-rule="evenodd" clip-rule="evenodd" d="M66.0957 -0.0332031C66.3691 -0.0332031 66.6426 -0.0332031 66.916 -0.0332031C73.7115 1.94903 79.4764 5.4907 84.2109 10.5918C84.3521 10.9368 84.4661 11.2911 84.5527 11.6543C83.2944 10.3099 81.95 8.99287 80.5195 7.70313C76.1184 4.0488 71.1054 1.49216 65.4805 0.0332031C65.7001 0.0537892 65.9052 0.0316538 66.0957 -0.0332031Z" fill="#FF577A"/>
<path opacity="0.991" fill-rule="evenodd" clip-rule="evenodd" d="M68.5547 -0.0332031C68.8281 -0.0332031 69.1016 -0.0332031 69.375 -0.0332031C69.7864 0.0244859 70.1965 0.0908922 70.6055 0.166016C73.9604 1.5515 77.0821 3.31126 79.9707 5.44531C80.9204 6.24663 81.8774 7.03242 82.8418 7.80274C83.1107 8.25888 83.3614 8.72372 83.5938 9.19727C82.5334 8.20051 81.4396 7.23762 80.3125 6.30859C76.7925 3.52464 72.8732 1.4107 68.5547 -0.0332031Z" fill="#FF646D"/>
<path opacity="0.996" fill-rule="evenodd" clip-rule="evenodd" d="M65.4805 0.0332031C71.1054 1.49216 76.1184 4.0488 80.5195 7.70313C81.95 8.99287 83.2944 10.3099 84.5527 11.6543C84.685 11.9912 84.7761 12.3453 84.8262 12.7168C82.7575 10.2987 80.4105 8.1183 77.7852 6.17578C73.6811 3.33006 69.1693 1.34894 64.25 0.232422C64.6625 0.16582 65.0727 0.0994135 65.4805 0.0332031Z" fill="#FE527F"/>
<path opacity="0.985" fill-rule="evenodd" clip-rule="evenodd" d="M70.6055 0.166016C71.1048 0.191322 71.5833 0.279864 72.041 0.431641C75.5897 2.02273 78.8595 4.08132 81.8506 6.60742C81.8823 6.56795 81.8937 6.52368 81.8848 6.47461C82.2281 6.89742 82.5472 7.34015 82.8418 7.80273C81.8774 7.03242 80.9204 6.24663 79.9707 5.44531C77.0821 3.31126 73.9604 1.5515 70.6055 0.166016Z" fill="#FF6868"/>
<path opacity="0.998" fill-rule="evenodd" clip-rule="evenodd" d="M64.25 0.232422C69.1693 1.34894 73.6811 3.33006 77.7852 6.17578C80.4105 8.1183 82.7575 10.2987 84.8262 12.7168C84.9824 13.2067 85.0736 13.7158 85.0996 14.2441C83.0239 11.5965 80.6086 9.21699 77.8535 7.10547C73.2388 3.7393 68.0662 1.60323 62.3359 0.697266C62.9561 0.502389 63.5941 0.347441 64.25 0.232422Z" fill="#FA5085"/>
<path opacity="0.998" fill-rule="evenodd" clip-rule="evenodd" d="M62.334 0.697266C68.0643 1.60323 73.2368 3.7393 77.8516 7.10547C80.6067 9.21699 83.022 11.5965 85.0977 14.2441C85.1433 14.4655 85.1888 14.6869 85.2344 14.9082C85.2344 15.1738 85.2344 15.4395 85.2344 15.7051C85.1372 15.42 84.9892 15.1544 84.79 14.9082C78.9516 7.16145 71.1245 2.53512 61.3086 1.0293C61.631 0.880633 61.9728 0.769954 62.334 0.697266Z" fill="#F54E8C"/>
<path opacity="0.948" fill-rule="evenodd" clip-rule="evenodd" d="M72.043 0.431641C76.082 1.30733 79.3632 3.32166 81.8867 6.47461C81.8957 6.52368 81.8843 6.56795 81.8525 6.60742C78.8615 4.08132 75.5916 2.02273 72.043 0.431641Z" fill="#FF6E62"/>
<path opacity="0.998" fill-rule="evenodd" clip-rule="evenodd" d="M61.3105 1.0293C71.1264 2.53512 78.9536 7.16145 84.792 14.9082C84.9911 15.1544 85.1392 15.42 85.2363 15.7051C85.2363 15.9928 85.2363 16.2806 85.2363 16.5684C79.3061 7.86217 70.9662 2.85958 60.2168 1.56055C60.0793 1.5831 59.9425 1.60523 59.8066 1.62695C60.2815 1.37694 60.7829 1.17772 61.3105 1.0293Z" fill="#F14D92"/>
<path opacity="0.998" fill-rule="evenodd" clip-rule="evenodd" d="M85.2344 16.5684C85.2344 16.9225 85.2344 17.2767 85.2344 17.6309C85.1731 17.7038 85.1161 17.7038 85.0635 17.6309C79.9805 9.62247 72.6774 4.63094 63.1543 2.65625C61.717 2.40711 60.2814 2.21896 58.8477 2.0918C59.145 1.90313 59.464 1.74818 59.8047 1.62695C59.9406 1.60523 60.0773 1.5831 60.2148 1.56055C70.9643 2.85958 79.3041 7.86217 85.2344 16.5684Z" fill="#EC4B99"/>
<path opacity="0.998" fill-rule="evenodd" clip-rule="evenodd" d="M58.8496 2.0918C60.2834 2.21896 61.7189 2.40711 63.1562 2.65625C72.6794 4.63094 79.9825 9.62246 85.0654 17.6309C85.1181 17.7038 85.175 17.7038 85.2363 17.6309C85.2363 17.7416 85.2363 17.8522 85.2363 17.9629C85.1713 18.0571 85.1486 18.1678 85.168 18.2949C80.7796 11.0576 74.4449 6.17673 66.1641 3.65234C63.6142 2.94069 61.0165 2.50905 58.3711 2.35742C58.517 2.2531 58.6765 2.16456 58.8496 2.0918Z" fill="#E84A9D"/>
<path opacity="0.998" fill-rule="evenodd" clip-rule="evenodd" d="M58.3691 2.35742C61.0146 2.50905 63.6122 2.94069 66.1621 3.65234C74.443 6.17673 80.7776 11.0576 85.166 18.2949C85.1521 18.4953 85.1293 18.6946 85.0977 18.8926C81.5625 12.7034 76.4583 8.15455 69.7852 5.24609C65.9793 3.65758 62.0145 2.78323 57.8906 2.62305C58.039 2.51771 58.1985 2.42917 58.3691 2.35742Z" fill="#E64AA0"/>
<path opacity="0.998" fill-rule="evenodd" clip-rule="evenodd" d="M57.8926 2.62305C62.0164 2.78323 65.9813 3.65758 69.7871 5.24609C76.4603 8.15455 81.5645 12.7034 85.0996 18.8926C85.0477 19.2014 85.0021 19.5113 84.9629 19.8223C80.8079 12.2358 74.496 7.13363 66.0273 4.51563C63.0852 3.65355 60.0774 3.22191 57.0039 3.2207C57.2857 3.00595 57.5819 2.80673 57.8926 2.62305Z" fill="#E248A5"/>
<path opacity="0.998" fill-rule="evenodd" clip-rule="evenodd" d="M57.0039 3.2207C60.0774 3.22191 63.0852 3.65355 66.0273 4.51563C74.496 7.13363 80.8079 12.2358 84.9629 19.8223C84.9032 20.0678 84.8349 20.3113 84.7578 20.5527C83.1134 17.4273 80.9943 14.6383 78.4004 12.1855C78.2727 11.7076 77.9537 11.4419 77.4434 11.3887C73.0347 7.55444 67.8849 5.15273 61.9941 4.18359C60.1144 3.89677 58.2231 3.75289 56.3203 3.75195C56.5268 3.55166 56.7546 3.37457 57.0039 3.2207Z" fill="#DE47AB"/>
<path opacity="0.999" fill-rule="evenodd" clip-rule="evenodd" d="M56.3184 3.75195C58.2211 3.75289 60.1124 3.89677 61.9922 4.18359C67.8829 5.15273 73.0327 7.55444 77.4414 11.3887C77.2201 11.4709 77.015 11.5815 76.8262 11.7207C71.1245 6.95506 64.4823 4.52013 56.8994 4.41602C56.5915 4.43375 56.2838 4.45588 55.9766 4.48242C55.8089 4.47983 55.6722 4.43556 55.5664 4.34961C55.7955 4.12727 56.0462 3.92805 56.3184 3.75195Z" fill="#D945B2"/>
<path fill-rule="evenodd" clip-rule="evenodd" d="M55.5664 4.34961C55.6722 4.43556 55.8089 4.47983 55.9766 4.48242C56.2838 4.45588 56.5915 4.43375 56.8994 4.41602C64.4823 4.52013 71.1245 6.95506 76.8262 11.7207C76.6873 11.855 76.5278 11.9657 76.3477 12.0527C70.1524 6.96243 62.9746 4.63822 54.8145 5.08008C55.0423 4.81445 55.293 4.57096 55.5664 4.34961Z" fill="#D544B7"/>
<path opacity="0.999" fill-rule="evenodd" clip-rule="evenodd" d="M76.3477 12.0529C76.1851 12.2109 76.0028 12.3437 75.8008 12.4514C75.7527 12.3042 75.6616 12.1825 75.5273 12.0861C69.3354 7.28337 62.2716 5.12516 54.3359 5.61153C54.4465 5.39343 54.606 5.21635 54.8145 5.08028C62.9746 4.63843 70.1524 6.96263 76.3477 12.0529Z" fill="#D042BE"/>
<path opacity="0.998" fill-rule="evenodd" clip-rule="evenodd" d="M54.3379 5.61152C62.2735 5.12515 69.3373 7.28336 75.5293 12.0861C75.6636 12.1825 75.7547 12.3042 75.8027 12.4514C75.694 12.593 75.5573 12.7036 75.3926 12.7834C70.0754 8.43027 63.9116 6.21671 56.9014 6.14277C55.8358 6.14728 54.7762 6.21368 53.7227 6.34199C53.9023 6.07884 54.1074 5.83535 54.3379 5.61152Z" fill="#CB41C4"/>
<path opacity="0.998" fill-rule="evenodd" clip-rule="evenodd" d="M75.3926 12.7832C75.2313 12.9395 75.0489 13.0723 74.8457 13.1816C69.2947 8.72405 62.8918 6.61013 55.6367 6.83984C54.8099 6.86926 53.9896 6.94676 53.1758 7.07227C53.3057 6.79123 53.488 6.54774 53.7227 6.3418C54.7762 6.21349 55.8358 6.14709 56.9014 6.14258C63.9116 6.21651 70.0754 8.43007 75.3926 12.7832Z" fill="#C63FCB"/>
<path opacity="0.999" fill-rule="evenodd" clip-rule="evenodd" d="M74.8457 13.1814C74.6844 13.3377 74.5021 13.4705 74.2988 13.5799C74.2508 13.4327 74.1596 13.311 74.0254 13.2146C67.7555 8.49853 60.6689 6.65025 52.7656 7.66972C52.8517 7.43564 52.9884 7.23642 53.1758 7.07206C53.9896 6.94655 54.8099 6.86906 55.6367 6.83964C62.8918 6.60993 69.2947 8.72385 74.8457 13.1814Z" fill="#C23ED1"/>
<path opacity="0.999" fill-rule="evenodd" clip-rule="evenodd" d="M74.2988 13.5799C74.1648 13.6899 74.0281 13.8006 73.8887 13.9119C70.2349 10.9537 66.0422 9.08335 61.3105 8.30062C58.3218 7.80556 55.3368 7.81665 52.3555 8.33382C52.458 8.08991 52.5947 7.86858 52.7656 7.66976C60.6689 6.65029 67.7555 8.49858 74.0254 13.2147C74.1596 13.311 74.2508 13.4328 74.2988 13.5799Z" fill="#BD3CD7"/>
<path opacity="0.999" fill-rule="evenodd" clip-rule="evenodd" d="M73.8877 13.912C73.7402 14.039 73.5807 14.1497 73.4091 14.244C67.5036 9.68245 60.7816 7.85628 53.2431 8.76551C52.8366 8.8183 52.4378 8.8958 52.0468 8.99793C52.0196 8.98279 52.0082 8.96061 52.0127 8.93153C52.0997 8.71504 52.2137 8.51582 52.3545 8.33387C55.3357 7.8167 58.3208 7.80561 61.3095 8.30067C66.0412 9.0834 70.2339 10.9538 73.8877 13.912Z" fill="#B93BDD"/>
<path opacity="0.999" fill-rule="evenodd" clip-rule="evenodd" d="M73.4082 14.2442C73.2182 14.4145 73.0131 14.5694 72.793 14.7091C72.7684 14.5848 72.7001 14.4852 72.5879 14.4103C66.3187 9.84995 59.3232 8.2894 51.6016 9.72862C51.7261 9.45224 51.8628 9.18661 52.0117 8.93175C52.0072 8.96083 52.0186 8.98301 52.0459 8.99815C52.4369 8.89602 52.8357 8.81852 53.2422 8.76573C60.7807 7.8565 67.5026 9.68267 73.4082 14.2442Z" fill="#B439E4"/>
<path opacity="0.999" fill-rule="evenodd" clip-rule="evenodd" d="M72.7949 14.7088C72.6475 14.8358 72.4879 14.9465 72.3164 15.0408C72.1506 14.8247 71.9455 14.6365 71.7012 14.4764C65.5646 10.2537 58.797 8.87016 51.3984 10.326C51.4474 10.1203 51.5158 9.92104 51.6035 9.72833C59.3252 8.28911 66.3207 9.84965 72.5898 14.41C72.702 14.4849 72.7704 14.5846 72.7949 14.7088Z" fill="#AF38EA"/>
<path opacity="0.999" fill-rule="evenodd" clip-rule="evenodd" d="M72.3164 15.0408C72.1763 15.1767 72.0168 15.2874 71.8379 15.3728C68.3445 12.6593 64.3568 11.0324 59.875 10.492C56.9257 10.1475 54.0091 10.3135 51.125 10.99C51.1774 10.7477 51.2686 10.5264 51.3984 10.326C58.797 8.87013 65.5646 10.2536 71.7012 14.4763C71.9455 14.6365 72.1506 14.8246 72.3164 15.0408Z" fill="#AA36F0"/>
<path opacity="0.999" fill-rule="evenodd" clip-rule="evenodd" d="M71.8359 15.3731C71.5012 15.7785 71.0682 15.9224 70.5371 15.8047C69.0368 14.7679 67.5556 13.7054 66.0938 12.6172C65.5484 12.2921 64.9559 12.1482 64.3164 12.1856C64.345 12.1376 64.3905 12.1044 64.4531 12.086C59.9895 10.6816 55.4777 10.5155 50.918 11.5879C50.9729 11.3835 51.0413 11.1843 51.123 10.9903C54.0071 10.3137 56.9238 10.1477 59.873 10.4922C64.3549 11.0326 68.3426 12.6596 71.8359 15.3731Z" fill="#A636F7"/>
<path fill-rule="evenodd" clip-rule="evenodd" d="M77.4414 11.3887C77.9517 11.4419 78.2707 11.7076 78.3984 12.1855C78.3268 12.4355 78.2357 12.679 78.125 12.916C77.9868 13.0509 77.8728 13.2059 77.7832 13.3809C77.6702 13.5556 77.5563 13.7326 77.4414 13.9121C77.3332 14.0557 77.2421 14.2107 77.168 14.377C76.9813 14.5394 76.8446 14.7386 76.7578 14.9746C76.6151 15.0965 76.524 15.2515 76.4844 15.4395C76.3462 15.5743 76.2322 15.7293 76.1426 15.9043C76.0286 16.0814 75.9147 16.2584 75.8008 16.4355C75.6663 16.6332 75.5296 16.8325 75.3906 17.0332C75.2995 17.1881 75.2083 17.3431 75.1172 17.498C75.0042 17.6728 74.8903 17.8498 74.7754 18.0293C74.6327 18.1512 74.5415 18.3061 74.502 18.4941C74.0635 19.0577 73.6762 19.6553 73.3398 20.2871C73.1469 20.4847 72.9874 20.706 72.8613 20.9512C72.6121 21.105 72.3842 21.2821 72.1777 21.4824C71.8823 21.5707 71.5861 21.6593 71.2891 21.748C70.8231 21.777 70.3673 21.7327 69.9219 21.6152C69.735 21.5352 69.5527 21.4356 69.375 21.3164C67.9131 20.2283 66.432 19.1658 64.9316 18.1289C64.3644 18.0175 63.9086 18.1835 63.5645 18.627C63.2769 18.7554 63.0263 18.9326 62.8125 19.1582C62.512 19.3259 62.2386 19.5251 61.9922 19.7559C61.6382 19.9831 61.2964 20.2266 60.9668 20.4863C60.6706 20.7077 60.3743 20.9291 60.0781 21.1504C59.7803 21.3738 59.484 21.5952 59.1895 21.8145C58.8574 22.053 58.5156 22.2743 58.1641 22.4785C57.4973 22.5732 57.1327 22.2855 57.0703 21.6152C57.3893 21.0619 57.7083 20.5084 58.0273 19.9551C58.4478 19.4047 58.8351 18.8292 59.1895 18.2285C59.3651 17.9987 59.5246 17.7552 59.668 17.498C59.8628 17.2524 60.0223 16.9868 60.1465 16.7012C60.3676 16.4274 60.5726 16.1397 60.7617 15.8379C60.9042 15.5832 61.0637 15.3396 61.2402 15.1074C61.3997 14.8418 61.5593 14.5762 61.7188 14.3105C61.9256 14.0645 62.1079 13.7989 62.2656 13.5137C62.718 12.7401 63.4016 12.2974 64.3164 12.1855C64.9559 12.1482 65.5484 12.2921 66.0938 12.6172C67.5556 13.7053 69.0368 14.7678 70.5371 15.8047C71.0682 15.9224 71.5012 15.7785 71.8359 15.373C72.0148 15.2876 72.1743 15.1769 72.3145 15.041C72.486 14.9467 72.6455 14.836 72.793 14.709C73.0131 14.5693 73.2182 14.4144 73.4082 14.2441C73.5797 14.1498 73.7393 14.0391 73.8867 13.9121C74.0262 13.8007 74.1629 13.69 74.2969 13.5801C74.5001 13.4707 74.6824 13.3379 74.8438 13.1816C75.047 13.0723 75.2293 12.9395 75.3906 12.7832C75.5553 12.7034 75.692 12.5928 75.8008 12.4512C76.0028 12.3435 76.1851 12.2106 76.3477 12.0527C76.5278 11.9657 76.6873 11.855 76.8262 11.7207C77.015 11.5815 77.2201 11.4709 77.4414 11.3887Z" fill="#FEFEFE"/>
<path opacity="0.997" fill-rule="evenodd" clip-rule="evenodd" d="M64.3164 12.1857C63.4016 12.2976 62.718 12.7403 62.2656 13.5139C58.2697 12.623 54.3049 12.7337 50.3711 13.8459C50.5102 13.0838 50.6925 12.3312 50.918 11.5881C55.4777 10.5157 59.9895 10.6817 64.4531 12.0861C64.3905 12.1046 64.345 12.1378 64.3164 12.1857Z" fill="#9B36FE"/>
<path opacity="0.998" fill-rule="evenodd" clip-rule="evenodd" d="M78.3984 12.1855C80.9923 14.6383 83.1115 17.4273 84.7559 20.5527C84.6921 20.8933 84.601 21.2253 84.4824 21.5488C82.9007 18.2992 80.7816 15.4215 78.125 12.916C78.2357 12.679 78.3268 12.4355 78.3984 12.1855Z" fill="#D945B2"/>
<path opacity="0.998" fill-rule="evenodd" clip-rule="evenodd" d="M62.2676 13.5138C62.1098 13.799 61.9276 14.0646 61.7207 14.3106C57.873 13.4237 54.0677 13.5786 50.3047 14.7755C50.3162 14.4646 50.339 14.1547 50.373 13.8458C54.3069 12.7336 58.2717 12.6229 62.2676 13.5138Z" fill="#923BFF"/>
<path opacity="0.997" fill-rule="evenodd" clip-rule="evenodd" d="M78.127 12.916C80.7835 15.4215 82.9027 18.2992 84.4844 21.5488C84.4186 21.8075 84.3274 22.0509 84.2109 22.2793C82.9669 19.6886 81.4059 17.298 79.5283 15.1074C78.9811 14.4983 78.4 13.9229 77.7852 13.3809C77.8748 13.2059 77.9887 13.0509 78.127 12.916Z" fill="#D444B9"/>
<path opacity="0.996" fill-rule="evenodd" clip-rule="evenodd" d="M77.7832 13.3809C78.3981 13.9229 78.9792 14.4983 79.5264 15.1074C81.404 17.298 82.9649 19.6886 84.209 22.2793C84.1471 22.5716 84.0332 22.8372 83.8672 23.0762C82.3918 19.6214 80.2955 16.5778 77.5781 13.9453C77.5375 13.9145 77.4919 13.9034 77.4414 13.9121C77.5563 13.7326 77.6702 13.5556 77.7832 13.3809Z" fill="#D042BE"/>
<path opacity="0.998" fill-rule="evenodd" clip-rule="evenodd" d="M77.4414 13.912C77.4919 13.9033 77.5375 13.9144 77.5781 13.9453C80.2955 16.5777 82.3918 19.6213 83.8672 23.0761C83.8073 23.3472 83.6933 23.5907 83.5254 23.8066C82.0886 20.2152 79.9695 17.072 77.168 14.3769C77.2421 14.2106 77.3332 14.0557 77.4414 13.912Z" fill="#CB41C4"/>
<path opacity="0.997" fill-rule="evenodd" clip-rule="evenodd" d="M61.7188 14.3104C61.5593 14.576 61.3997 14.8417 61.2402 15.1073C57.5156 14.2583 53.847 14.4576 50.2344 15.7049C50.2344 15.4393 50.2344 15.1737 50.2344 14.9081C50.2917 14.8854 50.3145 14.8411 50.3027 14.7753C54.0657 13.5784 57.8711 13.4235 61.7188 14.3104Z" fill="#8C3FFF"/>
<path opacity="0.999" fill-rule="evenodd" clip-rule="evenodd" d="M61.2402 15.1075C61.0637 15.3397 60.9042 15.5832 60.7617 15.838C57.1848 15.1215 53.6757 15.3649 50.2344 16.5684C50.2344 16.2807 50.2344 15.9929 50.2344 15.7051C53.847 14.4578 57.5156 14.2585 61.2402 15.1075Z" fill="#8643FF"/>
<path opacity="0.999" fill-rule="evenodd" clip-rule="evenodd" d="M77.168 14.377C79.9695 17.0721 82.0886 20.2153 83.5254 23.8066C83.4462 24.0491 83.3322 24.2705 83.1836 24.4707C83.0981 24.4656 83.0412 24.4213 83.0127 24.3379C81.7202 21.0718 79.8745 18.1499 77.4756 15.5723C77.2638 15.3327 77.0246 15.1335 76.7578 14.9746C76.8446 14.7386 76.9813 14.5394 77.168 14.377Z" fill="#C63FCB"/>
<path opacity="0.997" fill-rule="evenodd" clip-rule="evenodd" d="M76.7578 14.9746C77.0246 15.1335 77.2638 15.3327 77.4756 15.5723C79.8745 18.1499 81.7202 21.0718 83.0127 24.3379C83.0412 24.4213 83.0981 24.4656 83.1836 24.4707C83.0584 24.7586 82.8989 25.0243 82.7051 25.2676C81.393 21.5205 79.3194 18.2445 76.4844 15.4395C76.524 15.2515 76.6151 15.0965 76.7578 14.9746Z" fill="#C23ED1"/>
<path opacity="0.999" fill-rule="evenodd" clip-rule="evenodd" d="M60.7617 15.8381C60.5726 16.1399 60.3676 16.4276 60.1465 16.7014C56.7848 16.1237 53.5149 16.4336 50.3369 17.631C50.3108 17.5941 50.2766 17.572 50.2344 17.5646C50.2344 17.2326 50.2344 16.9006 50.2344 16.5685C53.6757 15.3651 57.1848 15.1216 60.7617 15.8381Z" fill="#8047FF"/>
<path opacity="0.998" fill-rule="evenodd" clip-rule="evenodd" d="M76.4863 15.4395C79.3214 18.2445 81.3949 21.5205 82.707 25.2676C82.6203 25.5036 82.4836 25.7028 82.2969 25.8652C81.0462 22.0603 78.9954 18.74 76.1445 15.9043C76.2342 15.7293 76.3481 15.5743 76.4863 15.4395Z" fill="#BD3CD7"/>
<path opacity="0.998" fill-rule="evenodd" clip-rule="evenodd" d="M76.1426 15.9043C78.9934 18.74 81.0442 22.0603 82.2949 25.8652C82.2053 26.0402 82.0913 26.1952 81.9531 26.3301C80.9141 23.4259 79.4444 20.7475 77.5439 18.2949C77.0198 17.6973 76.4958 17.0996 75.9717 16.502C75.9258 16.452 75.8689 16.4298 75.8008 16.4355C75.9147 16.2584 76.0286 16.0814 76.1426 15.9043Z" fill="#B93BDD"/>
<path opacity="0.997" fill-rule="evenodd" clip-rule="evenodd" d="M75.8008 16.4354C75.8689 16.4297 75.9258 16.4519 75.9717 16.5019C76.4958 17.0995 77.0198 17.6972 77.5439 18.2948C79.4444 20.7474 80.9141 23.4258 81.9531 26.33C81.7947 26.5721 81.6124 26.7935 81.4062 26.994C80.2964 23.474 78.5077 20.3308 76.04 17.5644C75.851 17.3467 75.6345 17.1697 75.3906 17.0331C75.5296 16.8324 75.6663 16.6331 75.8008 16.4354Z" fill="#B439E4"/>
<path opacity="0.997" fill-rule="evenodd" clip-rule="evenodd" d="M60.1465 16.7014C60.0223 16.987 59.8628 17.2526 59.668 17.4983C56.4401 16.9884 53.3183 17.3425 50.3027 18.5608C50.3237 18.3692 50.3009 18.1921 50.2344 18.0295C50.2344 17.8746 50.2344 17.7196 50.2344 17.5647C50.2766 17.5721 50.3108 17.5942 50.3369 17.6311C53.5149 16.4337 56.7848 16.1237 60.1465 16.7014Z" fill="#794BFF"/>
<path opacity="0.998" fill-rule="evenodd" clip-rule="evenodd" d="M75.3906 17.0332C75.6345 17.1698 75.851 17.3468 76.04 17.5645C78.5077 20.3309 80.2964 23.4741 81.4062 26.9941C81.3187 27.1898 81.182 27.3448 80.9961 27.459C80.0512 24.5385 78.6498 21.838 76.792 19.3574C76.2809 18.6956 75.7226 18.0757 75.1172 17.498C75.2083 17.3431 75.2995 17.1881 75.3906 17.0332Z" fill="#AF38EA"/>
<path opacity="0.998" fill-rule="evenodd" clip-rule="evenodd" d="M59.6699 17.4982C59.5266 17.7553 59.367 17.9988 59.1914 18.2286C56.2191 17.931 53.348 18.3183 50.5781 19.3907C50.5267 19.4353 50.5039 19.4906 50.5098 19.5568C50.4356 19.232 50.3673 18.9 50.3047 18.5607C53.3203 17.3424 56.442 16.9882 59.6699 17.4982Z" fill="#734FFF"/>
<path opacity="0.997" fill-rule="evenodd" clip-rule="evenodd" d="M75.1191 17.498C75.7245 18.0757 76.2828 18.6956 76.7939 19.3574C78.6517 21.838 80.0531 24.5385 80.998 27.459C80.8613 27.6361 80.7018 27.791 80.5195 27.9238C79.4231 24.3051 77.6116 21.0734 75.085 18.2285C75.0078 18.1195 74.9052 18.0531 74.7773 18.0293C74.8923 17.8498 75.0061 17.6728 75.1191 17.498Z" fill="#AA36F0"/>
<path opacity="0.998" fill-rule="evenodd" clip-rule="evenodd" d="M74.7773 18.0293C74.9052 18.0531 75.0078 18.1195 75.085 18.2285C77.6116 21.0734 79.4231 24.3051 80.5195 27.9238C80.36 28.123 80.1777 28.3002 79.9727 28.4551C78.9916 24.6765 77.1687 21.3562 74.5039 18.4941C74.5435 18.3061 74.6346 18.1512 74.7773 18.0293Z" fill="#A635F6"/>
<path opacity="0.998" fill-rule="evenodd" clip-rule="evenodd" d="M69.9238 21.6151C69.8733 21.6064 69.8277 21.6175 69.7871 21.6483C72.5719 24.436 74.2353 27.7673 74.7773 31.6425C74.5077 31.8061 74.2115 31.9167 73.8887 31.9745C73.5795 28.9161 72.4516 26.1712 70.5049 23.7401C68.6706 21.4167 66.3578 19.7122 63.5664 18.6268C63.9106 18.1834 64.3663 18.0174 64.9336 18.1288C66.4339 19.1656 67.9151 20.2281 69.377 21.3163C69.5546 21.4355 69.7369 21.5351 69.9238 21.6151Z" fill="#7A4CFF"/>
<path opacity="0.999" fill-rule="evenodd" clip-rule="evenodd" d="M63.5645 18.627C66.3558 19.7124 68.6686 21.4168 70.5029 23.7402C72.4496 26.1714 73.5775 28.9162 73.8867 31.9746C73.6327 32.1011 73.3593 32.1897 73.0664 32.2402C72.3296 27.0472 69.6864 23.0739 65.1367 20.3203C64.3639 19.9126 63.5892 19.5253 62.8125 19.1582C63.0263 18.9326 63.2769 18.7554 63.5645 18.627Z" fill="#734FFF"/>
<path opacity="0.998" fill-rule="evenodd" clip-rule="evenodd" d="M59.1904 18.2283C58.836 18.829 58.4487 19.4045 58.0282 19.9549C55.5457 19.8034 53.1759 20.224 50.9189 21.2166C50.7088 20.6877 50.572 20.1343 50.5087 19.5565C50.5028 19.4903 50.5256 19.435 50.5771 19.3905C53.347 18.3181 56.2181 17.9307 59.1904 18.2283Z" fill="#6955FF"/>
<path opacity="0.998" fill-rule="evenodd" clip-rule="evenodd" d="M62.8125 19.1582C63.5892 19.5253 64.3639 19.9126 65.1367 20.3203C69.6864 23.0739 72.3296 27.0472 73.0664 32.2402C72.8011 32.3334 72.5277 32.3998 72.2461 32.4395C71.5575 27.2792 68.9143 23.3945 64.3164 20.7852C63.5436 20.4206 62.7689 20.0775 61.9922 19.7559C62.2386 19.5251 62.512 19.3259 62.8125 19.1582Z" fill="#6D53FF"/>
<path opacity="0.996" fill-rule="evenodd" clip-rule="evenodd" d="M74.502 18.4941C77.1667 21.3562 78.9897 24.6765 79.9707 28.4551C79.4539 29.0153 78.8615 29.4802 78.1934 29.8496C77.408 26.2432 75.7901 23.0557 73.3398 20.2871C73.6762 19.6553 74.0635 19.0577 74.502 18.4941Z" fill="#9B36FE"/>
<path opacity="0.999" fill-rule="evenodd" clip-rule="evenodd" d="M61.9941 19.7559C62.7708 20.0775 63.5456 20.4206 64.3184 20.7852C68.9163 23.3945 71.5595 27.2792 72.248 32.4395C71.9458 32.5458 71.6268 32.6122 71.291 32.6387C70.533 27.2229 67.6164 23.3603 62.541 21.0508C62.0102 20.8585 61.4862 20.6703 60.9688 20.4863C61.2984 20.2266 61.6402 19.9831 61.9941 19.7559Z" fill="#6657FF"/>
<path opacity="0.998" fill-rule="evenodd" clip-rule="evenodd" d="M73.3418 20.2871C75.7921 23.0557 77.4099 26.2432 78.1953 29.8496C77.9459 30.0595 77.6725 30.2366 77.375 30.3809C76.7149 26.8413 75.2109 23.6981 72.8633 20.9512C72.9893 20.706 73.1488 20.4847 73.3418 20.2871Z" fill="#923BFF"/>
<path opacity="0.999" fill-rule="evenodd" clip-rule="evenodd" d="M60.9668 20.4863C61.4842 20.6703 62.0083 20.8585 62.5391 21.0508C67.6144 23.3603 70.531 27.2229 71.2891 32.6387C71.0094 32.7313 70.7132 32.7756 70.4004 32.7715C69.7258 27.7279 67.037 24.1088 62.334 21.9141C61.5867 21.6242 60.8347 21.3697 60.0781 21.1504C60.3743 20.9291 60.6706 20.7077 60.9668 20.4863Z" fill="#605BFF"/>
<path opacity="0.997" fill-rule="evenodd" clip-rule="evenodd" d="M58.0273 19.9549C57.7083 20.5083 57.3893 21.0617 57.0703 21.6151C55.1125 21.6323 53.244 22.0308 51.4648 22.8104C51.2145 22.302 51.0322 21.7708 50.918 21.2166C53.175 20.224 55.5448 19.8034 58.0273 19.9549Z" fill="#5C5EFF"/>
<path opacity="0.997" fill-rule="evenodd" clip-rule="evenodd" d="M72.8633 20.9512C75.2109 23.6981 76.7149 26.8413 77.375 30.3809C77.1245 30.5691 76.8511 30.724 76.5547 30.8457C75.9634 27.3294 74.5051 24.2083 72.1797 21.4824C72.3861 21.2821 72.614 21.105 72.8633 20.9512Z" fill="#8C3FFF"/>
<path opacity="0.999" fill-rule="evenodd" clip-rule="evenodd" d="M60.0801 21.1504C60.8367 21.3697 61.5886 21.6242 62.3359 21.9141C67.039 24.1088 69.7278 27.7279 70.4023 32.7715C70.1194 32.8421 69.8232 32.8864 69.5137 32.9043C69.0565 28.7047 66.9829 25.5062 63.293 23.3086C61.9975 22.6009 60.6303 22.1029 59.1914 21.8145C59.486 21.5952 59.7822 21.3738 60.0801 21.1504Z" fill="#5A5FFF"/>
<path opacity="0.997" fill-rule="evenodd" clip-rule="evenodd" d="M72.1777 21.4824C74.5031 24.2083 75.9614 27.3294 76.5527 30.8457C76.301 31.0123 76.0276 31.1451 75.7324 31.2441C75.1916 27.649 73.7105 24.4836 71.2891 21.748C71.5861 21.6593 71.8823 21.5707 72.1777 21.4824Z" fill="#8643FF"/>
<path opacity="0.998" fill-rule="evenodd" clip-rule="evenodd" d="M69.9219 21.6152C70.3673 21.7326 70.8231 21.7769 71.2891 21.748C73.7105 24.4835 75.1916 27.6489 75.7324 31.2441C75.4346 31.4146 75.1157 31.5474 74.7754 31.6425C74.2333 27.7674 72.5699 24.436 69.7852 21.6484C69.8258 21.6176 69.8714 21.6065 69.9219 21.6152Z" fill="#8047FF"/>
<path opacity="0.999" fill-rule="evenodd" clip-rule="evenodd" d="M59.1914 21.8145C60.6303 22.1029 61.9975 22.6009 63.293 23.3086C66.9829 25.5062 69.0565 28.7047 69.5137 32.9043C69.2389 32.914 68.9655 32.9361 68.6934 32.9707C68.0401 28.1698 65.3969 24.8827 60.7637 23.1094C59.8981 22.8598 59.0323 22.6494 58.166 22.4785C58.5176 22.2743 58.8594 22.053 59.1914 21.8145Z" fill="#5563FF"/>
<path opacity="0.997" fill-rule="evenodd" clip-rule="evenodd" d="M57.0703 21.6152C57.1327 22.2855 57.4973 22.5732 58.1641 22.4785C59.0303 22.6494 59.8962 22.8598 60.7617 23.1094C65.3949 24.8827 68.0382 28.1698 68.6914 32.9707C68.3496 32.9707 68.0078 32.9707 67.666 32.9707C66.9856 28.3167 64.3423 25.2731 59.7363 23.8398C57.2582 23.2189 54.8429 23.396 52.4902 24.3711C52.3895 24.4182 52.344 24.4957 52.3535 24.6035C52.0039 24.0347 51.7076 23.4371 51.4648 22.8105C53.244 22.0309 55.1125 21.6325 57.0703 21.6152Z" fill="#4F66FF"/>
<path opacity="0.997" fill-rule="evenodd" clip-rule="evenodd" d="M67.6673 32.9707C67.3938 32.9707 67.1204 32.9707 66.8469 32.9707C66.1444 28.8267 63.7518 26.0708 59.6692 24.7032C57.2836 24.0842 54.9594 24.2502 52.6966 25.2012C52.5653 25.0127 52.4514 24.8135 52.3548 24.6036C52.3452 24.4957 52.3908 24.4183 52.4915 24.3711C54.8441 23.396 57.2595 23.219 59.7376 23.8399C64.3436 25.2731 66.9868 28.3167 67.6673 32.9707Z" fill="#476BFF"/>
<path opacity="0.997" fill-rule="evenodd" clip-rule="evenodd" d="M66.8457 32.9705C66.5723 32.9484 66.2988 32.9262 66.0254 32.9041C65.4574 29.3752 63.475 26.9293 60.0781 25.5662C57.7217 24.7649 55.3975 24.8424 53.1055 25.7987C52.9527 25.6133 52.816 25.4141 52.6953 25.201C54.9581 24.25 57.2824 24.084 59.668 24.703C63.7506 26.0706 66.1432 28.8265 66.8457 32.9705Z" fill="#426EFF"/>
<path opacity="0.997" fill-rule="evenodd" clip-rule="evenodd" d="M66.0254 32.9045C65.6771 32.8871 65.3353 32.8429 65 32.7717C64.3315 29.477 62.3491 27.3188 59.0527 26.2971C57.3689 25.863 55.7055 25.9295 54.0625 26.4963C53.9554 26.5367 53.8643 26.5921 53.7891 26.6623C53.5123 26.413 53.2845 26.1253 53.1055 25.799C55.3975 24.8427 57.7217 24.7652 60.0781 25.5666C63.475 26.9297 65.4574 29.3756 66.0254 32.9045Z" fill="#3C72FF"/>
<path opacity="0.997" fill-rule="evenodd" clip-rule="evenodd" d="M65 32.7716C64.6342 32.7359 64.2696 32.6916 63.9062 32.6388C63.3272 30.0503 61.7549 28.2905 59.1895 27.3595C57.5908 26.8695 55.9958 26.8805 54.4043 27.3927C54.1754 27.1702 53.9703 26.9266 53.7891 26.6622C53.8643 26.592 53.9554 26.5366 54.0625 26.4962C55.7055 25.9294 57.3689 25.8629 59.0527 26.297C62.3491 27.3187 64.3315 29.4769 65 32.7716Z" fill="#3477FF"/>
<path opacity="0.996" fill-rule="evenodd" clip-rule="evenodd" d="M63.9062 32.6387C63.5789 32.5579 63.2599 32.4693 62.9492 32.3731C62.1385 29.8042 60.3611 28.31 57.6172 27.8907C56.8321 27.8189 56.0574 27.8743 55.293 28.0567C55.21 28.0731 55.1645 28.1174 55.1562 28.1895C54.9075 27.9256 54.6569 27.66 54.4043 27.3926C55.9958 26.8804 57.5908 26.8694 59.1895 27.3594C61.7549 28.2904 63.3272 30.0502 63.9062 32.6387Z" fill="#2E7BFF"/>
<path opacity="0.993" fill-rule="evenodd" clip-rule="evenodd" d="M62.9492 32.3731C62.6093 32.3119 62.2675 32.3009 61.9238 32.3399C61.7011 32.4374 61.4732 32.5148 61.2402 32.5724C60.3051 30.391 58.6189 29.395 56.1816 29.5841C56.0291 28.9924 55.6873 28.5276 55.1562 28.1895C55.1645 28.1174 55.21 28.0731 55.293 28.0567C56.0574 27.8743 56.8321 27.819 57.6172 27.8907C60.3611 28.3101 62.1385 29.8042 62.9492 32.3731Z" fill="#2780FF"/>
<path opacity="0.99" fill-rule="evenodd" clip-rule="evenodd" d="M61.2422 32.5724C60.9402 32.7519 60.6212 32.9069 60.2852 33.0373C59.5789 31.2098 58.2117 30.3909 56.1836 30.5803C56.1836 30.2482 56.1836 29.9162 56.1836 29.5842C58.6209 29.395 60.307 30.3911 61.2422 32.5724Z" fill="#1C87FF"/>
<path opacity="0.992" fill-rule="evenodd" clip-rule="evenodd" d="M56.1836 30.5799C58.2117 30.3905 59.5789 31.2095 60.2852 33.0369C59.7386 33.2581 59.1917 33.4795 58.6445 33.701C58.3732 32.583 57.644 32.1071 56.457 32.2733C56.3869 32.3073 56.3185 32.3405 56.252 32.3729C56.2519 31.7742 56.2291 31.1766 56.1836 30.5799Z" fill="#148CFF"/>
<path opacity="0.977" fill-rule="evenodd" clip-rule="evenodd" d="M58.6431 33.7012C58.4836 33.7897 58.3241 33.8783 58.1646 33.9668C57.8684 33.9668 57.5721 33.9668 57.2759 33.9668C56.557 33.6791 56.2152 33.1478 56.2505 32.3731C56.3171 32.3407 56.3854 32.3075 56.4556 32.2735C57.6426 32.1073 58.3718 32.5832 58.6431 33.7012Z" fill="#0993FF"/>
</g>
<g clip-path="url(#clip2_2694_1137)">
<path opacity="0.085" fill-rule="evenodd" clip-rule="evenodd" d="M100.236 20.8154C100.236 20.223 100.236 19.6306 100.236 19.0381C100.258 19.0381 100.281 19.0381 100.303 19.0381C100.282 19.2802 100.304 19.5081 100.369 19.7217C100.365 20.0345 100.409 20.3307 100.502 20.6103C100.505 20.8549 100.549 21.0828 100.635 21.2939C100.685 21.7727 100.795 22.2284 100.967 22.6611C101.111 23.3123 101.332 23.9276 101.631 24.5068C103.424 28.7223 106.368 31.7529 110.463 33.5986C111.026 33.9059 111.623 34.1337 112.256 34.2822C112.676 34.4588 113.119 34.5727 113.584 34.624C113.789 34.7118 114.01 34.7574 114.248 34.7607C114.675 34.8789 115.118 34.9473 115.576 34.9658C115.643 34.9658 115.709 34.9658 115.775 34.9658C115.775 34.9886 115.775 35.0114 115.775 35.0342C115.2 35.0342 114.624 35.0342 114.049 35.0342C107.746 33.6388 103.396 29.8563 101 23.6865C100.681 22.7383 100.427 21.7813 100.236 20.8154Z" fill="#FFFEFC"/>
<path opacity="0.999" fill-rule="evenodd" clip-rule="evenodd" d="M100.303 19.0381C100.281 19.0381 100.258 19.0381 100.236 19.0381C100.236 18.6963 100.236 18.3545 100.236 18.0127C105.77 23.6638 111.282 29.3376 116.771 35.0342C116.439 35.0342 116.107 35.0342 115.775 35.0342C115.775 35.0114 115.775 34.9886 115.775 34.9658C115.954 34.977 116.131 34.9656 116.307 34.9316C110.983 29.4515 105.66 23.9714 100.336 18.4912C100.303 18.6721 100.292 18.8544 100.303 19.0381Z" fill="#FCC232"/>
<path fill-rule="evenodd" clip-rule="evenodd" d="M100.236 18.0127C100.236 17.7393 100.236 17.4658 100.236 17.1924C106.03 23.0542 111.797 28.9559 117.535 34.8975C117.566 34.9381 117.577 34.9837 117.568 35.0342C117.303 35.0342 117.037 35.0342 116.771 35.0342C111.282 29.3376 105.77 23.6638 100.236 18.0127Z" fill="#FCBE35"/>
<path opacity="0.074" fill-rule="evenodd" clip-rule="evenodd" d="M100.236 16.0303C100.236 15.5745 100.236 15.1188 100.236 14.6631C100.567 12.7991 101.187 11.0446 102.096 9.39941C102.051 9.53613 102.007 9.67285 101.963 9.80957C101.844 9.94123 101.777 10.1007 101.764 10.2881C101.623 10.465 101.534 10.6701 101.498 10.9033C101.381 11.06 101.314 11.2422 101.299 11.4502C101.181 11.6069 101.115 11.7891 101.1 11.9971C100.993 12.2056 100.927 12.4335 100.9 12.6807C100.796 12.9136 100.729 13.1642 100.701 13.4326C100.649 13.5607 100.605 13.6974 100.568 13.8428C100.533 14.1179 100.488 14.3913 100.436 14.6631C100.391 14.9593 100.347 15.2556 100.303 15.5518C100.323 15.7267 100.301 15.8862 100.236 16.0303Z" fill="#FFFCFB"/>
<path fill-rule="evenodd" clip-rule="evenodd" d="M100.369 19.7219C100.304 19.5083 100.282 19.2804 100.302 19.0383C100.292 18.8546 100.303 18.6723 100.336 18.4914C105.659 23.9716 110.983 29.4517 116.306 34.9319C116.131 34.9659 115.954 34.9773 115.775 34.966C115.709 34.966 115.642 34.966 115.576 34.966C110.511 29.7863 105.453 24.591 100.402 19.3801C100.369 19.4918 100.358 19.6058 100.369 19.7219Z" fill="#FCC530"/>
<path fill-rule="evenodd" clip-rule="evenodd" d="M100.236 17.1924C100.236 16.9189 100.236 16.6455 100.236 16.3721C100.277 16.3645 100.311 16.3417 100.336 16.3037C106.368 22.513 112.4 28.7223 118.432 34.9316C118.395 34.9578 118.373 34.992 118.365 35.0342C118.1 35.0342 117.834 35.0342 117.568 35.0342C117.577 34.9837 117.566 34.9381 117.535 34.8975C111.797 28.9559 106.03 23.0542 100.236 17.1924Z" fill="#FCB839"/>
<path fill-rule="evenodd" clip-rule="evenodd" d="M100.236 16.3721C100.236 16.2581 100.236 16.1442 100.236 16.0303C100.301 15.8862 100.323 15.7267 100.303 15.5518C100.351 15.5232 100.384 15.4777 100.402 15.415C103.175 18.3033 105.975 21.1516 108.803 23.96C109.29 24.9626 110.02 25.7145 110.994 26.2158C113.722 29.1268 116.489 32.0093 119.295 34.8633C119.234 34.8823 119.19 34.9165 119.162 34.9658C118.992 34.9452 118.837 34.968 118.697 35.0342C118.587 35.0342 118.476 35.0342 118.365 35.0342C118.373 34.992 118.395 34.9578 118.432 34.9316C112.4 28.7223 106.368 22.513 100.336 16.3037C100.311 16.3417 100.277 16.3645 100.236 16.3721Z" fill="#FCB140"/>
<path fill-rule="evenodd" clip-rule="evenodd" d="M100.369 19.7217C100.359 19.6055 100.37 19.4916 100.402 19.3799C105.453 24.5908 110.511 29.7861 115.576 34.9658C115.118 34.9473 114.675 34.8789 114.248 34.7607C114.339 34.7715 114.428 34.7601 114.514 34.7266C109.854 29.93 105.195 25.1335 100.535 20.3369C100.503 20.4253 100.492 20.5165 100.502 20.6103C100.409 20.3307 100.365 20.0345 100.369 19.7217Z" fill="#FBC92D"/>
<path fill-rule="evenodd" clip-rule="evenodd" d="M100.303 15.5518C100.347 15.2556 100.391 14.9593 100.436 14.6631C103.042 17.4604 105.698 20.2176 108.404 22.9346C108.519 23.2841 108.652 23.6259 108.803 23.96C105.975 21.1516 103.175 18.3033 100.402 15.415C100.384 15.4777 100.351 15.5232 100.303 15.5518Z" fill="#FDAB44"/>
<path fill-rule="evenodd" clip-rule="evenodd" d="M100.502 20.6104C100.491 20.5165 100.502 20.4253 100.535 20.3369C105.195 25.1335 109.854 29.93 114.514 34.7266C114.428 34.7601 114.339 34.7715 114.248 34.7608C114.01 34.7574 113.789 34.7118 113.584 34.624C113.654 34.6343 113.72 34.6229 113.783 34.5899C109.411 30.0895 105.04 25.5892 100.668 21.0889C100.636 21.1537 100.625 21.222 100.635 21.294C100.549 21.0828 100.505 20.855 100.502 20.6104Z" fill="#FBCC2A"/>
<path fill-rule="evenodd" clip-rule="evenodd" d="M100.436 14.6631C100.488 14.3913 100.533 14.1179 100.568 13.8428C100.621 13.9186 100.654 14.0097 100.668 14.1162C103.194 16.7276 105.728 19.3253 108.271 21.9092C108.294 22.2543 108.338 22.5961 108.404 22.9346C105.698 20.2176 103.042 17.4604 100.436 14.6631Z" fill="#FDA649"/>
<path fill-rule="evenodd" clip-rule="evenodd" d="M100.634 21.2937C100.624 21.2218 100.636 21.1535 100.668 21.0887C105.039 25.589 109.411 30.0893 113.783 34.5896C113.72 34.6226 113.653 34.634 113.584 34.6238C113.119 34.5725 112.676 34.4586 112.255 34.282C112.325 34.2922 112.392 34.2808 112.455 34.2478C108.636 30.3172 104.818 26.3865 101 22.4558C100.968 22.5207 100.956 22.589 100.966 22.6609C100.795 22.2282 100.684 21.7725 100.634 21.2937Z" fill="#FBD127"/>
<path fill-rule="evenodd" clip-rule="evenodd" d="M100.568 13.8428C100.605 13.6974 100.649 13.5607 100.701 13.4326C100.75 13.4237 100.795 13.4351 100.834 13.4668C103.304 16.0212 105.784 18.562 108.271 21.0889C108.271 21.3623 108.271 21.6357 108.271 21.9092C105.728 19.3253 103.194 16.7276 100.668 14.1162C100.654 14.0097 100.621 13.9186 100.568 13.8428Z" fill="#FE9F4D"/>
<path fill-rule="evenodd" clip-rule="evenodd" d="M100.701 13.4326C100.729 13.1642 100.796 12.9136 100.9 12.6807C103.335 15.2327 105.792 17.762 108.271 20.2686C108.271 20.542 108.271 20.8154 108.271 21.0889C105.784 18.562 103.304 16.0212 100.834 13.4668C100.795 13.4351 100.75 13.4237 100.701 13.4326Z" fill="#FE9853"/>
<path fill-rule="evenodd" clip-rule="evenodd" d="M100.9 12.6807C100.927 12.4335 100.993 12.2056 101.1 11.9971C103.443 14.523 105.833 17.0067 108.271 19.4482C108.271 19.7217 108.271 19.9951 108.271 20.2686C105.792 17.762 103.335 15.2327 100.9 12.6807Z" fill="#FE9356"/>
<path fill-rule="evenodd" clip-rule="evenodd" d="M100.966 22.6609C100.956 22.589 100.968 22.5207 101 22.4558C104.818 26.3865 108.636 30.3172 112.455 34.2478C112.392 34.2808 112.325 34.2922 112.255 34.282C111.623 34.1335 111.025 33.9057 110.463 33.5984C110.512 33.6074 110.556 33.596 110.595 33.5642C107.618 30.4995 104.641 27.4347 101.664 24.3699C101.633 24.4105 101.622 24.4561 101.63 24.5066C101.332 23.9274 101.111 23.3121 100.966 22.6609Z" fill="#FBD723"/>
<path fill-rule="evenodd" clip-rule="evenodd" d="M101.1 11.9971C101.115 11.7891 101.181 11.6069 101.299 11.4502C103.623 13.82 105.947 16.1898 108.271 18.5596C108.271 18.8558 108.271 19.152 108.271 19.4482C105.833 17.0067 103.443 14.523 101.1 11.9971Z" fill="#FE8C5C"/>
<path fill-rule="evenodd" clip-rule="evenodd" d="M101.299 11.4502C101.314 11.2422 101.381 11.06 101.498 10.9033C103.734 13.2503 105.992 15.5745 108.271 17.876C108.271 18.1038 108.271 18.3317 108.271 18.5596C105.947 16.1898 103.623 13.82 101.299 11.4502Z" fill="#FF8660"/>
<path fill-rule="evenodd" clip-rule="evenodd" d="M101.498 10.9033C101.534 10.6701 101.623 10.465 101.764 10.2881C103.885 12.5861 106.055 14.842 108.271 17.0557C108.271 17.3291 108.271 17.6025 108.271 17.876C105.992 15.5745 103.734 13.2503 101.498 10.9033Z" fill="#FF7F63"/>
<path fill-rule="evenodd" clip-rule="evenodd" d="M101.632 24.5068C101.623 24.4563 101.634 24.4107 101.665 24.3701C104.642 27.4348 107.619 30.4997 110.597 33.5644C110.557 33.5962 110.513 33.6076 110.464 33.5986C106.369 31.7529 103.425 28.7223 101.632 24.5068Z" fill="#FADE1F"/>
<path fill-rule="evenodd" clip-rule="evenodd" d="M101.764 10.2881C101.777 10.1007 101.844 9.94123 101.963 9.80957C104.044 11.9971 106.146 14.1618 108.271 16.3037C108.271 16.5544 108.271 16.805 108.271 17.0557C106.055 14.842 103.885 12.5861 101.764 10.2881Z" fill="#FF7966"/>
<path fill-rule="evenodd" clip-rule="evenodd" d="M101.963 9.80957C102.007 9.67285 102.051 9.53613 102.096 9.39941C102.106 9.28642 102.151 9.19529 102.229 9.12598C102.218 9.26454 102.229 9.40126 102.262 9.53613C104.256 11.6007 106.259 13.6515 108.271 15.6885C108.271 15.8936 108.271 16.0986 108.271 16.3037C106.146 14.1618 104.044 11.9971 101.963 9.80957Z" fill="#FF7468"/>
<path fill-rule="evenodd" clip-rule="evenodd" d="M102.229 9.12598C102.31 9.07088 102.377 9.00252 102.428 8.9209C104.354 10.9489 106.302 12.9541 108.272 14.9365C108.272 15.1872 108.272 15.4378 108.272 15.6885C106.26 13.6515 104.256 11.6007 102.262 9.53613C102.229 9.40126 102.218 9.26454 102.229 9.12598Z" fill="#FF6D6A"/>
<path opacity="0.024" fill-rule="evenodd" clip-rule="evenodd" d="M102.229 9.12598C102.245 8.97736 102.312 8.86341 102.428 8.78418C102.428 8.82978 102.428 8.8753 102.428 8.9209C102.376 9.00252 102.31 9.07088 102.229 9.12598Z" fill="#FFF8F8"/>
<path fill-rule="evenodd" clip-rule="evenodd" d="M102.429 8.9209C102.429 8.8753 102.429 8.82978 102.429 8.78418C102.417 8.71637 102.439 8.67084 102.495 8.64746C102.588 8.61513 102.633 8.54677 102.628 8.44238C102.684 8.28153 102.772 8.14481 102.894 8.03223C102.978 8.1202 102.956 8.18856 102.827 8.2373C102.772 8.30231 102.761 8.37067 102.794 8.44238C104.611 10.3247 106.437 12.1931 108.272 14.0479C108.272 14.3441 108.272 14.6403 108.272 14.9365C106.302 12.9541 104.354 10.9489 102.429 8.9209Z" fill="#FF686E"/>
<path opacity="0.027" fill-rule="evenodd" clip-rule="evenodd" d="M102.494 8.64746C102.49 8.54308 102.534 8.47472 102.627 8.44238C102.632 8.54677 102.588 8.61513 102.494 8.64746Z" fill="#FFF7F7"/>
<path fill-rule="evenodd" clip-rule="evenodd" d="M102.893 8.03223C102.997 7.76617 103.152 7.53833 103.358 7.34863C103.323 7.44071 103.312 7.5319 103.325 7.62207C104.969 9.34835 106.64 11.0345 108.339 12.6807C108.277 13.1325 108.255 13.5882 108.272 14.0479C106.437 12.1931 104.611 10.3247 102.794 8.44238C102.761 8.37067 102.772 8.30231 102.827 8.2373C102.955 8.18856 102.978 8.1202 102.893 8.03223Z" fill="#FF5F71"/>
<path fill-rule="evenodd" clip-rule="evenodd" d="M103.357 7.34863C103.42 7.19298 103.508 7.05626 103.622 6.93848C103.612 7.03233 103.623 7.12353 103.656 7.21191C105.233 8.86983 106.838 10.4876 108.47 12.0654C108.415 12.2678 108.371 12.4729 108.337 12.6807C106.638 11.0345 104.967 9.34835 103.324 7.62207C103.311 7.5319 103.322 7.44071 103.357 7.34863Z" fill="#FF5575"/>
<path fill-rule="evenodd" clip-rule="evenodd" d="M103.623 6.93848C103.734 6.79902 103.845 6.6623 103.955 6.52832C103.945 6.60023 103.956 6.66859 103.988 6.7334C105.516 8.30566 107.043 9.87793 108.57 11.4502C108.596 11.4122 108.629 11.3894 108.67 11.3818C108.603 11.6097 108.537 11.8376 108.471 12.0654C106.838 10.4876 105.233 8.86983 103.656 7.21191C103.624 7.12353 103.613 7.03233 103.623 6.93848Z" fill="#FF4E77"/>
<path fill-rule="evenodd" clip-rule="evenodd" d="M103.955 6.52832C104.123 6.27184 104.323 6.04399 104.552 5.84473C104.542 5.91664 104.553 5.985 104.586 6.0498C106.071 7.59028 107.565 9.11695 109.068 10.6299C108.931 10.8834 108.798 11.134 108.67 11.3818C108.629 11.3894 108.595 11.4122 108.57 11.4502C107.043 9.87793 105.515 8.30566 103.988 6.7334C103.956 6.66859 103.945 6.60023 103.955 6.52832Z" fill="#FF447B"/>
<path opacity="0.999" fill-rule="evenodd" clip-rule="evenodd" d="M104.552 5.84473C104.62 5.75094 104.686 5.65981 104.752 5.57129C104.821 5.5611 104.888 5.57245 104.951 5.60547C106.425 7.13453 107.908 8.64985 109.4 10.1514C109.305 10.3255 109.194 10.485 109.068 10.6299C107.565 9.11695 106.071 7.59028 104.586 6.04981C104.553 5.985 104.542 5.91664 104.552 5.84473Z" fill="#FF3B7E"/>
<path fill-rule="evenodd" clip-rule="evenodd" d="M104.752 5.57129C105.022 5.22525 105.331 4.92905 105.682 4.68262C105.652 4.74811 105.607 4.80512 105.549 4.85352C107.071 6.386 108.554 7.94685 109.998 9.53613C109.814 9.75447 109.615 9.95955 109.4 10.1514C107.909 8.64985 106.425 7.13453 104.951 5.60547C104.888 5.57245 104.822 5.5611 104.752 5.57129Z" fill="#FE3481"/>
<path fill-rule="evenodd" clip-rule="evenodd" d="M105.682 4.68262C105.954 4.3102 106.287 4.01399 106.678 3.79395C107.493 4.51944 108.268 5.29416 109.002 6.11816C108.531 5.85067 108.066 5.56582 107.607 5.26367C107.481 5.17474 107.348 5.12914 107.209 5.12695C108.44 6.38258 109.657 7.64723 110.861 8.9209C110.564 9.10827 110.277 9.31335 109.998 9.53613C108.554 7.94685 107.071 6.386 105.549 4.85352C105.607 4.80512 105.652 4.74811 105.682 4.68262Z" fill="#F62F84"/>
<path opacity="0.993" fill-rule="evenodd" clip-rule="evenodd" d="M106.678 3.79395C106.878 3.58777 107.1 3.40546 107.342 3.24707C109.024 4.93329 110.684 6.64228 112.322 8.37402C112.3 8.37402 112.278 8.37402 112.256 8.37402C111.159 7.63882 110.075 6.88687 109.002 6.11816C108.268 5.29416 107.493 4.51944 106.678 3.79395Z" fill="#E91C81"/>
<path opacity="0.997" fill-rule="evenodd" clip-rule="evenodd" d="M107.342 3.24707C107.527 3.09429 107.726 2.95757 107.939 2.83691C109.732 4.63702 111.503 6.45996 113.252 8.30566C112.94 8.3084 112.63 8.33116 112.322 8.37402C110.684 6.64228 109.024 4.93329 107.342 3.24707Z" fill="#E31C85"/>
<path fill-rule="evenodd" clip-rule="evenodd" d="M109.002 6.11816C110.075 6.88686 111.159 7.63882 112.256 8.37402C111.776 8.50083 111.312 8.68308 110.861 8.9209C109.657 7.64723 108.44 6.38258 107.209 5.12695C107.348 5.12914 107.481 5.17474 107.607 5.26367C108.066 5.56582 108.531 5.85067 109.002 6.11816Z" fill="#F0328B"/>
<path fill-rule="evenodd" clip-rule="evenodd" d="M108.271 21.9093C108.271 21.6359 108.271 21.3625 108.271 21.089C108.271 20.8156 108.271 20.5421 108.271 20.2687C108.271 19.9953 108.271 19.7218 108.271 19.4484C108.271 19.1522 108.271 18.8559 108.271 18.5597C108.271 18.3319 108.271 18.104 108.271 17.8761C108.271 17.6027 108.271 17.3293 108.271 17.0558C108.271 16.8051 108.271 16.5545 108.271 16.3039C108.271 16.0988 108.271 15.8937 108.271 15.6886C108.271 15.438 108.271 15.1874 108.271 14.9367C108.271 14.6405 108.271 14.3442 108.271 14.048C108.254 13.5884 108.276 13.1326 108.338 12.6808C108.371 12.4731 108.416 12.268 108.47 12.0656C108.537 11.8377 108.603 11.6098 108.67 11.382C108.798 11.1342 108.931 10.8835 109.068 10.63C109.194 10.4852 109.305 10.3256 109.4 10.1515C109.614 9.95971 109.814 9.75463 109.998 9.53629C110.276 9.31351 110.564 9.10843 110.861 8.92106C111.311 8.68324 111.776 8.50099 112.256 8.37418C112.278 8.37418 112.3 8.37418 112.322 8.37418C112.63 8.33132 112.94 8.30856 113.252 8.30582C113.562 8.30582 113.871 8.30582 114.181 8.30582C114.513 8.30582 114.845 8.30582 115.177 8.30582C115.509 8.30582 115.841 8.30582 116.174 8.30582C116.55 8.30582 116.926 8.30582 117.302 8.30582C117.634 8.30582 117.966 8.30582 118.299 8.30582C118.631 8.30582 118.963 8.30582 119.295 8.30582C119.627 8.30582 119.959 8.30582 120.291 8.30582C120.667 8.30582 121.043 8.30582 121.42 8.30582C121.8 8.34937 122.177 8.41773 122.549 8.5109C123.358 8.74517 124.067 9.15532 124.674 9.74137C124.696 9.74137 124.718 9.74137 124.74 9.74137C125.331 10.41 125.751 11.1847 126.002 12.0656C126.092 12.4485 126.159 12.8359 126.201 13.2277C126.201 13.6151 126.201 14.0024 126.201 14.3898C126.201 14.7316 126.201 15.0734 126.201 15.4152C126.201 15.757 126.201 16.0988 126.201 16.4406C126.201 16.7824 126.201 17.1242 126.201 17.466C126.201 17.8534 126.201 18.2407 126.201 18.6281C126.201 18.9699 126.201 19.3117 126.201 19.6535C126.201 19.9953 126.201 20.3371 126.201 20.6789C126.201 20.9979 126.201 21.3169 126.201 21.6359C126.19 21.9559 126.168 22.2749 126.134 22.5929C126.134 22.6157 126.134 22.6385 126.134 22.6613C126.011 23.1568 125.834 23.6353 125.603 24.0968C125.421 24.4024 125.222 24.6987 125.006 24.9855C124.784 25.1678 124.585 25.3729 124.408 25.6007C124.239 25.6988 124.084 25.8127 123.943 25.9425C123.687 26.063 123.443 26.1997 123.213 26.3527C122.991 26.4211 122.77 26.4894 122.549 26.5578C122.352 26.614 122.153 26.6596 121.951 26.6945C121.511 26.7513 121.068 26.7741 120.623 26.7629C120.335 26.7629 120.047 26.7629 119.759 26.7629C119.516 26.7629 119.272 26.7629 119.029 26.7629C118.83 26.7629 118.631 26.7629 118.431 26.7629C118.188 26.7629 117.944 26.7629 117.701 26.7629C117.435 26.7629 117.17 26.7629 116.904 26.7629C116.683 26.7629 116.461 26.7629 116.24 26.7629C115.952 26.7629 115.664 26.7629 115.377 26.7629C115.111 26.7629 114.845 26.7629 114.58 26.7629C114.314 26.7629 114.049 26.7629 113.783 26.7629C113.517 26.7629 113.252 26.7629 112.986 26.7629C112.651 26.7395 112.319 26.6939 111.99 26.6261C111.65 26.5083 111.318 26.3716 110.994 26.216C110.02 25.7147 109.289 24.9627 108.802 23.9601C108.651 23.626 108.518 23.2842 108.404 22.9347C108.338 22.5962 108.294 22.2544 108.271 21.9093Z" fill="#FEFCFD"/>
<path opacity="0.998" fill-rule="evenodd" clip-rule="evenodd" d="M107.939 2.83691C108.125 2.68413 108.324 2.54741 108.537 2.42676C110.419 4.38642 112.3 6.34601 114.182 8.30566C113.872 8.30566 113.562 8.30566 113.252 8.30566C111.503 6.45996 109.732 4.63702 107.939 2.83691Z" fill="#DC1C89"/>
<path opacity="0.997" fill-rule="evenodd" clip-rule="evenodd" d="M108.537 2.42676C108.74 2.27691 108.961 2.16303 109.201 2.08496C111.193 4.15851 113.186 6.23212 115.178 8.30566C114.846 8.30566 114.514 8.30566 114.182 8.30566C112.3 6.34601 110.419 4.38642 108.537 2.42676Z" fill="#D71B8C"/>
<path opacity="0.998" fill-rule="evenodd" clip-rule="evenodd" d="M109.201 2.08496C109.401 1.93635 109.623 1.82239 109.865 1.74316C111.968 3.93066 114.071 6.11816 116.174 8.30566C115.842 8.30566 115.51 8.30566 115.178 8.30566C113.186 6.23212 111.193 4.15851 109.201 2.08496Z" fill="#D11B90"/>
<path fill-rule="evenodd" clip-rule="evenodd" d="M109.865 21.1572C109.865 20.861 109.865 20.5648 109.865 20.2686C111.459 21.8636 113.031 23.4814 114.58 25.1221C114.292 25.1221 114.005 25.1221 113.717 25.1221C112.455 23.7776 111.171 22.4561 109.865 21.1572Z" fill="#FE8C5C"/>
<path fill-rule="evenodd" clip-rule="evenodd" d="M109.865 20.2686C109.865 20.0407 109.865 19.8128 109.865 19.585C111.68 21.4079 113.473 23.2536 115.244 25.1221C115.023 25.1221 114.801 25.1221 114.58 25.1221C113.031 23.4814 111.459 21.8636 109.865 20.2686Z" fill="#FF8660"/>
<path fill-rule="evenodd" clip-rule="evenodd" d="M109.865 19.585C109.865 19.3115 109.865 19.0381 109.865 18.7646C111.946 20.861 114.005 22.9802 116.041 25.1221C115.775 25.1221 115.51 25.1221 115.244 25.1221C113.473 23.2536 111.68 21.4079 109.865 19.585Z" fill="#FF7F63"/>
<path fill-rule="evenodd" clip-rule="evenodd" d="M109.865 18.7646C109.865 18.514 109.865 18.2634 109.865 18.0127C112.189 20.3597 114.492 22.7295 116.771 25.1221C116.528 25.1221 116.285 25.1221 116.041 25.1221C114.005 22.9802 111.946 20.861 109.865 18.7646Z" fill="#FF7966"/>
<path fill-rule="evenodd" clip-rule="evenodd" d="M109.865 18.0127C109.865 17.8076 109.865 17.6025 109.865 17.3975C112.389 19.9495 114.89 22.5244 117.369 25.1221C117.17 25.1221 116.971 25.1221 116.771 25.1221C114.492 22.7295 112.189 20.3597 109.865 18.0127Z" fill="#FF7367"/>
<path fill-rule="evenodd" clip-rule="evenodd" d="M109.865 17.3975C109.865 17.1468 109.865 16.8962 109.865 16.6455C110.992 17.771 112.11 18.9104 113.219 20.0635C113.245 20.0479 113.256 20.0251 113.252 19.9951C113.695 20.5876 114.204 21.1116 114.779 21.5674C114.75 21.5629 114.728 21.5743 114.713 21.6016C115.855 22.7661 116.984 23.9395 118.1 25.1221C117.856 25.1221 117.613 25.1221 117.369 25.1221C114.89 22.5244 112.389 19.9495 109.865 17.3975Z" fill="#FF6E6B"/>
<path fill-rule="evenodd" clip-rule="evenodd" d="M109.865 16.6455C109.865 16.3493 109.865 16.053 109.865 15.7568C110.817 16.7139 111.769 17.6709 112.721 18.6279C112.86 19.0981 113.038 19.5538 113.252 19.9951C113.256 20.0251 113.245 20.0479 113.219 20.0635C112.11 18.9104 110.992 17.771 109.865 16.6455Z" fill="#FF676D"/>
<path fill-rule="evenodd" clip-rule="evenodd" d="M109.865 15.7568C109.865 15.3011 109.865 14.8454 109.865 14.3896C110.77 15.2873 111.667 16.1988 112.555 17.124C112.57 17.0395 112.603 16.9711 112.654 16.9189C112.558 17.4936 112.58 18.0632 112.721 18.6279C111.769 17.6709 110.817 16.7139 109.865 15.7568Z" fill="#FF5E70"/>
<path fill-rule="evenodd" clip-rule="evenodd" d="M109.865 14.3896C109.844 14.1024 109.866 13.829 109.932 13.5693C110.813 14.5912 111.743 15.571 112.721 16.5088C112.698 16.6455 112.676 16.7822 112.654 16.9189C112.603 16.9711 112.57 17.0395 112.555 17.124C111.667 16.1988 110.77 15.2873 109.865 14.3896Z" fill="#FF5574"/>
<path opacity="0.996" fill-rule="evenodd" clip-rule="evenodd" d="M109.865 1.74316C110.11 1.57158 110.376 1.43486 110.662 1.33301C110.653 1.38352 110.664 1.42912 110.695 1.46973C112.911 3.73933 115.114 6.01802 117.303 8.30566C116.926 8.30566 116.55 8.30566 116.174 8.30566C114.071 6.11816 111.968 3.93066 109.865 1.74316Z" fill="#CB1C94"/>
<path fill-rule="evenodd" clip-rule="evenodd" d="M109.865 21.1572C111.171 22.4561 112.455 23.7776 113.717 25.1221C111.435 24.824 110.151 23.5024 109.865 21.1572Z" fill="#FE9458"/>
<path fill-rule="evenodd" clip-rule="evenodd" d="M109.932 13.5693C109.963 13.1322 110.073 12.722 110.264 12.3389C110.254 12.4108 110.265 12.4791 110.297 12.5439C111.21 13.5184 112.151 14.4527 113.119 15.3467C112.96 15.7248 112.827 16.1122 112.721 16.5088C111.743 15.571 110.814 14.5912 109.932 13.5693Z" fill="#FF4A79"/>
<path fill-rule="evenodd" clip-rule="evenodd" d="M110.263 12.3389C110.391 12.0078 110.568 11.7115 110.795 11.4502C110.899 11.7627 111.098 11.9906 111.392 12.1338C111.216 13.2515 111.681 13.7529 112.787 13.6377C113.052 13.9567 113.34 14.2529 113.65 14.5264C113.472 14.8023 113.295 15.0758 113.119 15.3467C112.15 14.4527 111.21 13.5184 110.296 12.5439C110.264 12.4791 110.253 12.4108 110.263 12.3389Z" fill="#FF437E"/>
<path opacity="0.998" fill-rule="evenodd" clip-rule="evenodd" d="M110.663 1.33301C110.856 1.24523 111.055 1.17687 111.261 1.12793C113.648 3.47149 115.994 5.86407 118.3 8.30566C117.968 8.30566 117.636 8.30566 117.304 8.30566C115.115 6.01802 112.912 3.73933 110.696 1.46973C110.665 1.42912 110.654 1.38352 110.663 1.33301Z" fill="#C41B99"/>
<path fill-rule="evenodd" clip-rule="evenodd" d="M110.994 26.2158C111.319 26.3715 111.651 26.5082 111.99 26.626C114.626 29.385 117.282 32.1194 119.959 34.8291C119.695 34.881 119.429 34.9265 119.162 34.9658C119.19 34.9165 119.234 34.8823 119.295 34.8633C116.489 32.0093 113.722 29.1268 110.994 26.2158Z" fill="#FDAB44"/>
<path fill-rule="evenodd" clip-rule="evenodd" d="M111.392 12.1338C111.876 11.3641 112.484 11.2501 113.218 11.792C113.708 12.5689 113.564 13.1841 112.786 13.6377C111.681 13.7529 111.216 13.2515 111.392 12.1338Z" fill="#FFFCFD"/>
<path fill-rule="evenodd" clip-rule="evenodd" d="M110.795 11.4502C111.21 10.9315 111.719 10.5441 112.322 10.2881C113.313 11.2049 114.276 12.162 115.211 13.1592C115.242 13.1998 115.253 13.2454 115.244 13.2959C114.657 13.6272 114.125 14.0373 113.65 14.5264C113.34 14.2529 113.053 13.9567 112.787 13.6377C113.565 13.1841 113.708 12.5689 113.219 11.792C112.485 11.2502 111.877 11.3641 111.393 12.1338C111.098 11.9906 110.899 11.7627 110.795 11.4502Z" fill="#F83687"/>
<path opacity="0.998" fill-rule="evenodd" clip-rule="evenodd" d="M111.26 1.12793C111.538 1.00194 111.825 0.887988 112.123 0.786133C112.114 0.83665 112.125 0.882246 112.156 0.922852C114.549 3.37477 116.929 5.8357 119.295 8.30566C118.963 8.30566 118.631 8.30566 118.299 8.30566C115.993 5.86407 113.647 3.47149 111.26 1.12793Z" fill="#BE1C9D"/>
<path fill-rule="evenodd" clip-rule="evenodd" d="M111.99 26.626C112.319 26.6938 112.651 26.7393 112.986 26.7627C115.496 29.3808 118.02 31.9898 120.557 34.5898C120.66 34.6042 120.749 34.6384 120.822 34.6924C120.535 34.738 120.247 34.7835 119.959 34.8291C117.282 32.1194 114.626 29.385 111.99 26.626Z" fill="#FDA649"/>
<path opacity="0.998" fill-rule="evenodd" clip-rule="evenodd" d="M112.124 0.786133C112.365 0.707109 112.608 0.63875 112.854 0.581055C115.334 3.15595 117.813 5.73077 120.292 8.30566C119.96 8.30566 119.628 8.30566 119.296 8.30566C116.93 5.8357 114.55 3.37477 112.157 0.922852C112.126 0.882246 112.115 0.83665 112.124 0.786133Z" fill="#B81BA0"/>
<path fill-rule="evenodd" clip-rule="evenodd" d="M112.322 10.2881C112.588 10.1438 112.876 10.0527 113.186 10.0146C114.091 10.9807 115.009 11.9377 115.941 12.8857C115.972 12.9263 115.983 12.9719 115.975 13.0225C115.724 13.0948 115.48 13.1859 115.244 13.2959C115.253 13.2454 115.242 13.1998 115.211 13.1592C114.276 12.162 113.313 11.2049 112.322 10.2881Z" fill="#F0338B"/>
<path fill-rule="evenodd" clip-rule="evenodd" d="M112.655 16.9189C112.677 16.7822 112.699 16.6454 112.721 16.5087C112.827 16.1121 112.96 15.7247 113.12 15.3466C113.296 15.0757 113.473 14.8023 113.651 14.5263C114.126 14.0373 114.657 13.6271 115.245 13.2958C115.481 13.1858 115.724 13.0947 115.975 13.0224C116.454 12.9074 116.941 12.8619 117.436 12.8857C117.863 12.9171 118.283 12.9855 118.698 13.0908C120.092 13.6604 121.066 14.663 121.62 16.0986C121.694 16.4385 121.761 16.7803 121.819 17.124C121.842 17.701 121.798 18.2707 121.686 18.8329C121.562 19.1235 121.452 19.4197 121.354 19.7216C121.139 20.0034 120.94 20.2996 120.756 20.6103C120.557 20.7698 120.38 20.9521 120.225 21.1572C119.915 21.3624 119.605 21.5675 119.295 21.7724C118.94 21.8866 118.586 22.0005 118.233 22.1142C118.007 22.1382 117.785 22.1838 117.569 22.2509C117.146 22.2573 116.726 22.2345 116.307 22.1826C115.789 22.0195 115.28 21.8144 114.78 21.5673C114.204 21.1116 113.695 20.5875 113.252 19.9951C113.038 19.5537 112.861 19.098 112.721 18.6279C112.58 18.0631 112.558 17.4935 112.655 16.9189Z" fill="#FFFDFD"/>
<path opacity="0.997" fill-rule="evenodd" clip-rule="evenodd" d="M112.854 0.581055C113.159 0.491162 113.469 0.422803 113.783 0.375977C116.329 3.01923 118.874 5.66241 121.42 8.30566C121.044 8.30566 120.667 8.30566 120.291 8.30566C117.812 5.73077 115.333 3.15595 112.854 0.581055Z" fill="#B11BA4"/>
<path fill-rule="evenodd" clip-rule="evenodd" d="M112.986 26.7627C113.252 26.7627 113.518 26.7627 113.783 26.7627C116.238 29.3238 118.706 31.8759 121.187 34.4189C121.218 34.4596 121.229 34.5052 121.221 34.5557C121.096 34.6093 120.963 34.6549 120.822 34.6924C120.749 34.6384 120.66 34.6042 120.557 34.5898C118.02 31.9898 115.496 29.3808 112.986 26.7627Z" fill="#FE9F4D"/>
<path fill-rule="evenodd" clip-rule="evenodd" d="M113.186 10.0146C113.505 9.94718 113.837 9.92435 114.182 9.94629C115.304 10.8778 116.388 11.8576 117.436 12.8857C116.941 12.862 116.454 12.9075 115.975 13.0225C115.983 12.9719 115.972 12.9263 115.941 12.8857C115.009 11.9377 114.091 10.9807 113.186 10.0146Z" fill="#EA348F"/>
<path fill-rule="evenodd" clip-rule="evenodd" d="M113.783 26.7627C114.049 26.7627 114.314 26.7627 114.58 26.7627C117.015 29.3148 119.472 31.8441 121.951 34.3506C121.725 34.4582 121.481 34.5266 121.221 34.5557C121.229 34.5052 121.218 34.4596 121.187 34.4189C118.706 31.8759 116.238 29.3238 113.783 26.7627Z" fill="#FE9853"/>
<path opacity="0.998" fill-rule="evenodd" clip-rule="evenodd" d="M113.783 0.375978C114.04 0.286837 114.305 0.241241 114.58 0.239259C117.284 2.95422 119.94 5.71136 122.549 8.51074C122.177 8.41757 121.8 8.34921 121.42 8.30566C118.874 5.66241 116.329 3.01923 113.783 0.375978Z" fill="#AB1CA9"/>
<path fill-rule="evenodd" clip-rule="evenodd" d="M114.248 17.2607C115.333 18.4001 116.417 19.5394 117.502 20.6787C115.537 20.6583 114.43 19.6443 114.182 17.6367C114.182 17.4977 114.204 17.3724 114.248 17.2607Z" fill="#FF5278"/>
<path fill-rule="evenodd" clip-rule="evenodd" d="M114.248 17.2607C114.245 16.9081 114.333 16.5891 114.514 16.3037C115.829 17.6229 117.134 18.9559 118.432 20.3027C118.471 20.3345 118.515 20.3459 118.565 20.3369C118.243 20.5341 117.889 20.6479 117.502 20.6787C116.417 19.5394 115.333 18.4001 114.248 17.2607Z" fill="#FF447B"/>
<path fill-rule="evenodd" clip-rule="evenodd" d="M114.58 26.7627C114.846 26.7627 115.111 26.7627 115.377 26.7627C117.749 29.2726 120.161 31.7335 122.615 34.1455C122.413 34.2549 122.191 34.3233 121.951 34.3506C119.472 31.8441 117.015 29.3148 114.58 26.7627Z" fill="#FE9356"/>
<path fill-rule="evenodd" clip-rule="evenodd" d="M114.514 16.3037C114.574 16.065 114.685 15.8599 114.846 15.6885C116.193 17.1889 117.587 18.6473 119.029 20.0635C118.907 20.2062 118.752 20.2973 118.564 20.3369C118.515 20.3458 118.471 20.3344 118.432 20.3027C117.134 18.9559 115.828 17.6229 114.514 16.3037Z" fill="#FF3C7E"/>
<path opacity="0.997" fill-rule="evenodd" clip-rule="evenodd" d="M114.58 0.239257C114.854 0.15661 115.141 0.111014 115.443 0.102538C118.496 3.27886 121.561 6.44622 124.641 9.60449C124.671 9.6451 124.683 9.69069 124.674 9.74121C124.067 9.15517 123.359 8.74501 122.549 8.51074C119.94 5.71136 117.284 2.95422 114.58 0.239257Z" fill="#A51DAC"/>
<path fill-rule="evenodd" clip-rule="evenodd" d="M114.779 21.5674C115.279 21.8145 115.788 22.0196 116.307 22.1826C116.258 22.1737 116.213 22.1851 116.174 22.2168C117.117 23.1762 118.047 24.1446 118.963 25.1221C118.675 25.1221 118.387 25.1221 118.1 25.1221C116.984 23.9395 115.855 22.7661 114.713 21.6016C114.728 21.5743 114.75 21.5629 114.779 21.5674Z" fill="#FF676D"/>
<path fill-rule="evenodd" clip-rule="evenodd" d="M114.846 15.6885C115.023 15.4606 115.222 15.2556 115.443 15.0732C116.886 16.4894 118.28 17.9478 119.627 19.4482C119.494 19.7217 119.295 19.9268 119.029 20.0635C117.587 18.6473 116.193 17.189 114.846 15.6885Z" fill="#FE3482"/>
<path fill-rule="evenodd" clip-rule="evenodd" d="M114.182 9.94627C114.735 9.94627 115.288 9.94627 115.842 9.94627C116.824 10.9921 117.821 12.0288 118.83 13.0566C118.791 13.0883 118.746 13.0998 118.697 13.0908C118.283 12.9855 117.862 12.9172 117.436 12.8857C116.388 11.8576 115.304 10.8778 114.182 9.94627Z" fill="#DF1E89"/>
<path fill-rule="evenodd" clip-rule="evenodd" d="M115.377 26.7627C115.665 26.7627 115.952 26.7627 116.24 26.7627C118.542 29.1553 120.844 31.5479 123.146 33.9404C122.994 34.0612 122.817 34.1296 122.615 34.1455C120.161 31.7335 117.749 29.2726 115.377 26.7627Z" fill="#FE8C5C"/>
<path opacity="0.998" fill-rule="evenodd" clip-rule="evenodd" d="M115.443 0.102539C115.55 0.120859 115.638 0.0980282 115.709 0.0341797C115.93 0.0341797 116.152 0.0341797 116.373 0.0341796C122.305 6.18652 128.26 12.3161 134.236 18.4229C134.236 18.6507 134.236 18.8786 134.236 19.1064C134.174 19.1795 134.152 19.2706 134.17 19.3799C131.027 16.167 127.883 12.9541 124.74 9.74121C124.718 9.74121 124.696 9.74121 124.674 9.74121C124.683 9.69069 124.671 9.6451 124.641 9.60449C121.561 6.44622 118.496 3.27886 115.443 0.102539Z" fill="#9F1BB0"/>
<path fill-rule="evenodd" clip-rule="evenodd" d="M115.443 15.0732C115.729 14.8236 116.061 14.664 116.439 14.5947C117.632 15.857 118.839 17.1103 120.059 18.3545C120.091 18.4193 120.102 18.4877 120.092 18.5596C120.022 18.9079 119.867 19.2041 119.627 19.4482C118.28 17.9478 116.886 16.4894 115.443 15.0732Z" fill="#F73386"/>
<path fill-rule="evenodd" clip-rule="evenodd" d="M115.842 9.94629C116.174 9.94629 116.506 9.94629 116.838 9.94629C119.406 12.6351 121.995 15.3011 124.607 17.9443C124.607 18.2861 124.607 18.6279 124.607 18.9697C123.614 17.9809 122.629 16.9783 121.652 15.9619C121.622 16.0025 121.61 16.0481 121.619 16.0986C121.066 14.6631 120.092 13.6605 118.697 13.0908C118.746 13.0998 118.791 13.0884 118.83 13.0566C117.821 12.0289 116.824 10.9921 115.842 9.94629Z" fill="#D71E8D"/>
<path fill-rule="evenodd" clip-rule="evenodd" d="M116.307 22.1826C116.725 22.2346 117.146 22.2573 117.568 22.251C118.476 23.208 119.383 24.165 120.291 25.1221C119.848 25.1221 119.406 25.1221 118.963 25.1221C118.047 24.1446 117.117 23.1762 116.174 22.2168C116.213 22.1851 116.258 22.1737 116.307 22.1826Z" fill="#FF5E70"/>
<path fill-rule="evenodd" clip-rule="evenodd" d="M116.24 26.7627C116.462 26.7627 116.683 26.7627 116.904 26.7627C119.14 29.1097 121.398 31.4339 123.678 33.7354C123.526 33.8561 123.348 33.9245 123.146 33.9404C120.844 31.5479 118.542 29.1553 116.24 26.7627Z" fill="#FF8660"/>
<path opacity="0.999" fill-rule="evenodd" clip-rule="evenodd" d="M116.373 0.0341816C116.749 0.0341816 117.126 0.0341816 117.502 0.0341815C123.058 5.79913 128.636 11.5413 134.236 17.2607C134.236 17.6481 134.236 18.0355 134.236 18.4229C128.26 12.3161 122.305 6.18652 116.373 0.0341816Z" fill="#991BB4"/>
<path fill-rule="evenodd" clip-rule="evenodd" d="M116.439 14.5947C116.64 14.4909 116.862 14.4454 117.104 14.458C117.271 14.4582 117.426 14.481 117.568 14.5264C118.429 15.4468 119.304 16.3583 120.191 17.2607C120.225 17.5104 120.236 17.761 120.225 18.0127C120.238 18.2174 120.194 18.3997 120.092 18.5596C120.102 18.4877 120.091 18.4193 120.059 18.3545C118.839 17.1103 117.632 15.857 116.439 14.5947Z" fill="#F0338B"/>
<path fill-rule="evenodd" clip-rule="evenodd" d="M116.838 9.94629C117.17 9.94629 117.502 9.94629 117.834 9.94629C120.07 12.2933 122.327 14.6175 124.607 16.9189C124.607 17.2607 124.607 17.6025 124.607 17.9443C121.995 15.3011 119.406 12.6351 116.838 9.94629Z" fill="#D11B90"/>
<path fill-rule="evenodd" clip-rule="evenodd" d="M116.904 26.7627C117.17 26.7627 117.436 26.7627 117.701 26.7627C119.852 29.0448 122.043 31.2778 124.275 33.4619C124.104 33.6049 123.904 33.6961 123.678 33.7354C121.398 31.4339 119.14 29.1097 116.904 26.7627Z" fill="#FF7F63"/>
<path opacity="0.998" fill-rule="evenodd" clip-rule="evenodd" d="M117.502 0.0341778C117.834 0.0341778 118.166 0.0341778 118.498 0.0341777C123.703 5.46068 128.949 10.8383 134.236 16.167C134.236 16.5316 134.236 16.8962 134.236 17.2607C128.636 11.5413 123.058 5.79913 117.502 0.0341778Z" fill="#921BB8"/>
<path fill-rule="evenodd" clip-rule="evenodd" d="M117.568 22.2509C117.785 22.1837 118.006 22.1381 118.232 22.1142C119.101 23.1109 120.008 24.0793 120.955 25.0194C120.995 25.0511 121.039 25.0626 121.088 25.0536C120.836 25.1208 120.57 25.1436 120.291 25.122C119.383 24.1649 118.476 23.2079 117.568 22.2509Z" fill="#FF5575"/>
<path fill-rule="evenodd" clip-rule="evenodd" d="M117.568 14.5264C119.279 14.7855 120.187 15.8109 120.291 17.6025C120.291 17.7527 120.269 17.8894 120.225 18.0127C120.236 17.761 120.225 17.5104 120.191 17.2607C119.304 16.3583 118.429 15.4468 117.568 14.5264Z" fill="#EB3A91"/>
<path fill-rule="evenodd" clip-rule="evenodd" d="M117.701 26.7627C117.945 26.7627 118.188 26.7627 118.432 26.7627C120.512 28.9502 122.615 31.1149 124.74 33.2568C124.612 33.3794 124.457 33.4477 124.275 33.4619C122.043 31.2778 119.852 29.0448 117.701 26.7627Z" fill="#FF7966"/>
<path fill-rule="evenodd" clip-rule="evenodd" d="M117.834 9.94629C118.21 9.94629 118.587 9.94629 118.963 9.94629C120.822 11.9059 122.704 13.8428 124.607 15.7568C124.607 16.1442 124.607 16.5316 124.607 16.9189C122.327 14.6175 120.07 12.2933 117.834 9.94629Z" fill="#CB1B94"/>
<path fill-rule="evenodd" clip-rule="evenodd" d="M118.432 26.7627C118.631 26.7627 118.83 26.7627 119.029 26.7627C121.008 28.8339 123 30.8961 125.006 32.9492C125.137 32.9831 125.27 32.9945 125.404 32.9834C125.293 33.0864 125.16 33.1548 125.006 33.1885C124.917 33.2113 124.829 33.2341 124.74 33.2568C122.615 31.1149 120.512 28.9502 118.432 26.7627Z" fill="#FF7569"/>
<path opacity="0.074" fill-rule="evenodd" clip-rule="evenodd" d="M118.697 35.0342C118.837 34.968 118.992 34.9452 119.162 34.9658C119.429 34.9265 119.695 34.881 119.959 34.8291C120.247 34.7835 120.535 34.738 120.822 34.6924C120.963 34.6549 121.096 34.6093 121.221 34.5557C121.481 34.5266 121.725 34.4582 121.951 34.3506C122.191 34.3233 122.413 34.2549 122.615 34.1455C122.817 34.1296 122.994 34.0612 123.146 33.9404C123.348 33.9245 123.526 33.8561 123.678 33.7354C123.904 33.6961 124.104 33.6049 124.275 33.4619C124.457 33.4477 124.612 33.3794 124.74 33.2568C124.829 33.2341 124.917 33.2113 125.006 33.1885C124.257 33.6535 123.46 34.0295 122.615 34.3164C121.752 34.5897 120.889 34.829 120.025 35.0342C119.583 35.0342 119.14 35.0342 118.697 35.0342Z" fill="#FFFCFB"/>
<path fill-rule="evenodd" clip-rule="evenodd" d="M118.232 22.1142C118.586 22.0006 118.94 21.8867 119.295 21.7724C120.211 22.7499 121.141 23.7183 122.084 24.6777C122.147 24.7107 122.213 24.7221 122.283 24.7119C121.911 24.9077 121.513 25.0217 121.088 25.0537C121.039 25.0626 120.995 25.0512 120.955 25.0195C120.008 24.0794 119.101 23.111 118.232 22.1142Z" fill="#FF4A79"/>
<path opacity="0.997" fill-rule="evenodd" clip-rule="evenodd" d="M118.498 0.0341816C118.587 0.0341816 118.675 0.0341816 118.764 0.0341816C119.04 0.0990543 119.327 0.144649 119.627 0.1709C124.406 5.12456 129.198 10.0693 134.004 15.0049C134.029 14.9669 134.063 14.9441 134.104 14.9365C134.12 15.2916 134.164 15.6334 134.236 15.9619C134.236 16.0303 134.236 16.0986 134.236 16.167C128.949 10.8383 123.703 5.46068 118.498 0.0341816Z" fill="#8C1BBC"/>
<path fill-rule="evenodd" clip-rule="evenodd" d="M118.963 9.94629C119.295 9.94629 119.627 9.94629 119.959 9.94629C121.486 11.5642 123.036 13.1592 124.607 14.7314C124.607 15.0732 124.607 15.415 124.607 15.7568C122.704 13.8428 120.822 11.9059 118.963 9.94629Z" fill="#C41B98"/>
<path fill-rule="evenodd" clip-rule="evenodd" d="M119.029 26.7625C119.273 26.7625 119.516 26.7625 119.76 26.7625C121.672 28.7653 123.598 30.7592 125.537 32.7439C125.6 32.777 125.666 32.7883 125.736 32.7781C125.714 32.8354 125.669 32.8582 125.604 32.8465C125.502 32.8415 125.436 32.8871 125.404 32.9832C125.27 32.9943 125.137 32.9829 125.006 32.949C123 30.8959 121.008 28.8337 119.029 26.7625Z" fill="#FF6D6B"/>
<path opacity="0.996" fill-rule="evenodd" clip-rule="evenodd" d="M119.627 0.170898C120.049 0.231875 120.469 0.300235 120.889 0.375977C125.155 4.87061 129.461 9.33673 133.805 13.7744C133.831 13.7588 133.842 13.736 133.838 13.7061C133.951 14.103 134.039 14.5132 134.104 14.9365C134.063 14.9441 134.029 14.9669 134.004 15.0049C129.198 10.0693 124.406 5.12456 119.627 0.170898Z" fill="#861CC0"/>
<path fill-rule="evenodd" clip-rule="evenodd" d="M119.76 26.7625C120.048 26.7625 120.335 26.7625 120.623 26.7625C122.425 28.6514 124.24 30.5313 126.068 32.4021C126.206 32.428 126.305 32.3711 126.367 32.2312C126.393 32.2692 126.426 32.292 126.467 32.2996C126.258 32.5101 126.014 32.6696 125.736 32.7781C125.666 32.7883 125.6 32.7769 125.537 32.7439C123.598 30.7591 121.672 28.7653 119.76 26.7625Z" fill="#FF686E"/>
<path fill-rule="evenodd" clip-rule="evenodd" d="M119.295 21.7723C119.604 21.5674 119.914 21.3623 120.225 21.157C120.217 21.1992 120.195 21.2334 120.158 21.2596C121.088 22.2166 122.018 23.1736 122.947 24.1307C123.01 24.1637 123.077 24.175 123.146 24.1648C122.893 24.3984 122.605 24.5806 122.283 24.7117C122.213 24.7219 122.147 24.7106 122.084 24.6775C121.141 23.7181 120.211 22.7497 119.295 21.7723Z" fill="#FF3F7D"/>
<path fill-rule="evenodd" clip-rule="evenodd" d="M120.225 21.157C120.38 20.952 120.557 20.7696 120.756 20.6102C121.746 21.527 122.709 22.484 123.645 23.4813C123.675 23.5219 123.686 23.5675 123.678 23.618C123.523 23.823 123.346 24.0054 123.146 24.1648C123.077 24.175 123.01 24.1637 122.947 24.1307C122.018 23.1736 121.088 22.2166 120.158 21.2596C120.195 21.2334 120.217 21.1992 120.225 21.157Z" fill="#FE3482"/>
<path fill-rule="evenodd" clip-rule="evenodd" d="M119.959 9.94629C120.392 9.92421 120.813 9.94697 121.221 10.0146C121.151 10.0045 121.084 10.0158 121.021 10.0488C122.208 11.2817 123.403 12.5007 124.607 13.7061C124.607 14.0479 124.607 14.3896 124.607 14.7314C123.036 13.1592 121.486 11.5642 119.959 9.94629Z" fill="#BE1C9D"/>
<path fill-rule="evenodd" clip-rule="evenodd" d="M120.623 26.7625C121.068 26.7737 121.511 26.7509 121.951 26.6941C123.55 28.4429 125.188 30.1633 126.865 31.8553C126.953 31.8686 127.041 31.8572 127.131 31.8211C126.947 32.0333 126.725 32.1928 126.467 32.2996C126.426 32.292 126.393 32.2692 126.367 32.2312C126.305 32.3711 126.206 32.428 126.068 32.4021C124.24 30.5313 122.425 28.6514 120.623 26.7625Z" fill="#FF5F71"/>
<path opacity="0.996" fill-rule="evenodd" clip-rule="evenodd" d="M120.889 0.375977C121.413 0.504834 121.922 0.664316 122.416 0.854492C126.049 4.6632 129.724 8.42297 133.439 12.1338C133.624 12.6425 133.757 13.1666 133.838 13.7061C133.842 13.736 133.831 13.7588 133.805 13.7744C129.461 9.33673 125.155 4.87061 120.889 0.375977Z" fill="#801BC4"/>
<path fill-rule="evenodd" clip-rule="evenodd" d="M120.756 20.6104C120.94 20.2997 121.139 20.0035 121.354 19.7217C122.353 20.6822 123.305 21.6848 124.209 22.7295C124.082 23.0606 123.905 23.3568 123.678 23.6182C123.686 23.5676 123.675 23.5221 123.645 23.4814C122.709 22.4842 121.746 21.5272 120.756 20.6104Z" fill="#F73386"/>
<path fill-rule="evenodd" clip-rule="evenodd" d="M121.221 10.0146C123.167 10.4461 124.296 11.6765 124.607 13.7061C123.403 12.5007 122.208 11.2817 121.021 10.0488C121.084 10.0158 121.151 10.0045 121.221 10.0146Z" fill="#B922A2"/>
<path fill-rule="evenodd" clip-rule="evenodd" d="M121.354 19.7217C121.451 19.4197 121.562 19.1235 121.686 18.833C122.637 19.79 123.589 20.7471 124.541 21.7041C124.495 22.0743 124.384 22.4161 124.209 22.7295C123.305 21.6848 122.353 20.6822 121.354 19.7217Z" fill="#F0338B"/>
<path fill-rule="evenodd" clip-rule="evenodd" d="M121.686 18.833C121.797 18.2708 121.841 17.701 121.818 17.124C121.872 17.2233 121.905 17.3372 121.918 17.4658C122.83 18.5298 123.727 19.6008 124.607 20.6787C124.629 21.0338 124.607 21.3756 124.541 21.7041C123.589 20.7471 122.637 19.79 121.686 18.833Z" fill="#EA338F"/>
<path fill-rule="evenodd" clip-rule="evenodd" d="M121.62 16.0986C121.611 16.0481 121.622 16.0025 121.653 15.9619C122.629 16.9783 123.615 17.9809 124.608 18.9697C124.608 19.5394 124.608 20.1091 124.608 20.6787C123.728 19.6008 122.831 18.5298 121.919 17.4658C121.906 17.3372 121.873 17.2233 121.819 17.124C121.761 16.7804 121.695 16.4386 121.62 16.0986Z" fill="#DE1D88"/>
<path fill-rule="evenodd" clip-rule="evenodd" d="M121.951 26.6943C122.153 26.6595 122.352 26.6139 122.549 26.5576C124.117 28.2859 125.733 29.9721 127.396 31.6162C127.334 31.717 127.246 31.7853 127.131 31.8213C127.041 31.8574 126.953 31.8688 126.865 31.8554C125.188 30.1635 123.55 28.4431 121.951 26.6943Z" fill="#FF5574"/>
<path opacity="0.999" fill-rule="evenodd" clip-rule="evenodd" d="M122.549 26.5576C122.77 26.4893 122.992 26.4209 123.213 26.3525C123.206 26.3947 123.183 26.4289 123.146 26.4551C124.709 28.0525 126.259 29.6589 127.795 31.2744C127.703 31.4378 127.57 31.5517 127.396 31.6162C125.733 29.9722 124.117 28.286 122.549 26.5576Z" fill="#FF4E77"/>
<path opacity="0.993" fill-rule="evenodd" clip-rule="evenodd" d="M122.416 0.854492C122.982 0.980273 123.514 1.18535 124.01 1.46973C126.932 4.52313 129.876 7.55371 132.842 10.5615C133.105 11.0534 133.304 11.5775 133.439 12.1338C129.724 8.42297 126.049 4.6632 122.416 0.854492Z" fill="#791BC8"/>
<path fill-rule="evenodd" clip-rule="evenodd" d="M123.213 26.3525C123.443 26.1996 123.687 26.0628 123.943 25.9424C125.413 27.4895 126.896 29.0276 128.393 30.5566C128.456 30.5896 128.522 30.601 128.592 30.5908C128.351 30.8511 128.086 31.079 127.795 31.2744C126.259 29.6589 124.709 28.0525 123.146 26.4551C123.183 26.4289 123.206 26.3947 123.213 26.3525Z" fill="#FF447B"/>
<path fill-rule="evenodd" clip-rule="evenodd" d="M123.943 25.9422C124.084 25.8123 124.239 25.6984 124.408 25.6004C125.867 27.1361 127.339 28.6628 128.824 30.1805C128.856 30.2453 128.867 30.3136 128.857 30.3855C128.771 30.4531 128.683 30.5215 128.592 30.5906C128.522 30.6008 128.456 30.5894 128.393 30.5564C126.896 29.0274 125.413 27.4893 123.943 25.9422Z" fill="#FF3B7E"/>
<path opacity="0.988" fill-rule="evenodd" clip-rule="evenodd" d="M124.01 1.46973C124.678 1.73373 125.32 2.05276 125.936 2.42676C127.845 4.49456 129.792 6.53399 131.779 8.54492C131.819 8.57664 131.863 8.58806 131.912 8.5791C132.275 9.2132 132.585 9.87403 132.842 10.5615C129.876 7.55371 126.932 4.52314 124.01 1.46973Z" fill="#731BCC"/>
<path fill-rule="evenodd" clip-rule="evenodd" d="M124.408 25.6006C124.585 25.3727 124.785 25.1677 125.006 24.9854C126.55 26.472 128.066 27.9986 129.555 29.5654C129.599 29.514 129.655 29.4912 129.721 29.4971C129.455 29.8161 129.167 30.1123 128.857 30.3857C128.867 30.3138 128.856 30.2455 128.824 30.1807C127.339 28.663 125.867 27.1363 124.408 25.6006Z" fill="#FE3481"/>
<path opacity="0.997" fill-rule="evenodd" clip-rule="evenodd" d="M124.74 9.74121C127.883 12.9541 131.027 16.167 134.17 19.3799C134.141 19.6297 134.118 19.8803 134.104 20.1318C134.063 20.1394 134.029 20.1622 134.004 20.2002C131.364 17.4487 128.697 14.7371 126.002 12.0654C125.752 11.1846 125.331 10.4098 124.74 9.74121Z" fill="#A51DAC"/>
<path fill-rule="evenodd" clip-rule="evenodd" d="M125.006 24.9854C125.222 24.6985 125.421 24.4022 125.604 24.0967C126.841 25.3362 128.069 26.5894 129.289 27.8564C129.287 27.713 129.243 27.5763 129.156 27.4463C128.863 26.9743 128.586 26.4958 128.326 26.0107C129.101 26.7855 129.876 27.5602 130.65 28.335C130.388 28.7601 130.078 29.1475 129.721 29.4971C129.655 29.4912 129.599 29.514 129.555 29.5654C128.066 27.9986 126.55 26.472 125.006 24.9854Z" fill="#F62F84"/>
<path opacity="0.027" fill-rule="evenodd" clip-rule="evenodd" d="M125.404 32.9835C125.436 32.8874 125.502 32.8418 125.604 32.8468C125.572 32.9429 125.506 32.9885 125.404 32.9835Z" fill="#FFF6F6"/>
<path fill-rule="evenodd" clip-rule="evenodd" d="M125.604 24.0967C125.834 23.6351 126.011 23.1566 126.135 22.6611C126.849 23.79 127.579 24.9066 128.326 26.0107C128.586 26.4958 128.863 26.9743 129.156 27.4463C129.243 27.5763 129.287 27.713 129.289 27.8564C128.069 26.5894 126.841 25.3362 125.604 24.0967Z" fill="#F0328B"/>
<path opacity="0.997" fill-rule="evenodd" clip-rule="evenodd" d="M126.002 12.0654C128.697 14.737 131.364 17.4487 134.004 20.2002C134.029 20.1622 134.063 20.1394 134.104 20.1318C134.051 20.4554 133.985 20.7744 133.904 21.0889C131.337 18.4684 128.769 15.848 126.201 13.2275C126.159 12.8358 126.092 12.4484 126.002 12.0654Z" fill="#AB1CA9"/>
<path opacity="0.997" fill-rule="evenodd" clip-rule="evenodd" d="M126.135 22.5928C126.168 22.2748 126.19 21.9557 126.201 21.6357C127.959 23.4107 129.707 25.1995 131.447 27.002C131.487 27.0337 131.531 27.0451 131.58 27.0361C131.424 27.2666 131.269 27.4944 131.115 27.7197C129.477 25.988 127.817 24.279 126.135 22.5928Z" fill="#E31C85"/>
<path opacity="0.998" fill-rule="evenodd" clip-rule="evenodd" d="M126.201 21.6357C126.201 21.3167 126.201 20.9977 126.201 20.6787C128.13 22.5962 130.012 24.5558 131.846 26.5576C131.774 26.7282 131.685 26.8878 131.58 27.0361C131.531 27.0451 131.487 27.0336 131.447 27.0019C129.707 25.1994 127.959 23.4107 126.201 21.6357Z" fill="#DC1B89"/>
<path opacity="0.997" fill-rule="evenodd" clip-rule="evenodd" d="M126.201 20.6787C126.201 20.3369 126.201 19.9951 126.201 19.6533C128.215 21.7041 130.23 23.7549 132.244 25.8057C132.162 26.0897 132.029 26.3404 131.846 26.5576C130.012 24.5558 128.13 22.5962 126.201 20.6787Z" fill="#D71C8C"/>
<path opacity="0.996" fill-rule="evenodd" clip-rule="evenodd" d="M126.201 19.6533C126.201 19.3115 126.201 18.9697 126.201 18.6279C128.326 20.7927 130.451 22.9573 132.576 25.1221C132.499 25.3717 132.389 25.5996 132.244 25.8057C130.23 23.7549 128.215 21.7041 126.201 19.6533Z" fill="#D11B90"/>
<path opacity="0.997" fill-rule="evenodd" clip-rule="evenodd" d="M126.201 18.6279C126.201 18.2405 126.201 17.8532 126.201 17.4658C128.423 19.7193 130.637 21.9866 132.842 24.2676C132.881 24.2993 132.926 24.3107 132.975 24.3018C132.876 24.5966 132.743 24.87 132.576 25.1221C130.451 22.9573 128.326 20.7927 126.201 18.6279Z" fill="#CB1B94"/>
<path opacity="0.997" fill-rule="evenodd" clip-rule="evenodd" d="M126.201 17.4658C126.201 17.124 126.201 16.7822 126.201 16.4404C128.573 18.8136 130.897 21.2289 133.174 23.6865C133.126 23.8983 133.06 24.1034 132.975 24.3017C132.926 24.3107 132.881 24.2993 132.842 24.2676C130.637 21.9865 128.423 19.7193 126.201 17.4658Z" fill="#C41B98"/>
<path opacity="0.996" fill-rule="evenodd" clip-rule="evenodd" d="M126.201 16.4404C126.201 16.0986 126.201 15.7568 126.201 15.415C128.601 17.8508 130.991 20.3003 133.373 22.7637C133.412 22.7954 133.457 22.8068 133.506 22.7979C133.407 23.1042 133.296 23.4005 133.174 23.6865C130.897 21.2289 128.573 18.8136 126.201 16.4404Z" fill="#BE1C9D"/>
<path opacity="0.998" fill-rule="evenodd" clip-rule="evenodd" d="M126.201 15.415C126.201 15.0732 126.201 14.7314 126.201 14.3896C128.702 16.9417 131.204 19.4938 133.705 22.0459C133.649 22.2996 133.583 22.5502 133.506 22.7978C133.457 22.8068 133.412 22.7954 133.373 22.7636C130.991 20.3003 128.601 17.8508 126.201 15.415Z" fill="#B81BA0"/>
<path opacity="0.997" fill-rule="evenodd" clip-rule="evenodd" d="M126.201 14.3896C126.201 14.0023 126.201 13.6149 126.201 13.2275C128.769 15.848 131.337 18.4684 133.904 21.0889C133.859 21.4128 133.792 21.7318 133.705 22.0459C131.204 19.4938 128.702 16.9417 126.201 14.3896Z" fill="#B11CA4"/>
<path opacity="0.939" fill-rule="evenodd" clip-rule="evenodd" d="M125.936 2.42674C128.437 3.9534 130.429 6.00419 131.912 8.57908C131.863 8.58803 131.819 8.57662 131.779 8.5449C129.792 6.53397 127.845 4.49454 125.936 2.42674Z" fill="#6E1BCF"/>
<path opacity="0.995" fill-rule="evenodd" clip-rule="evenodd" d="M126.135 22.6611C126.135 22.6384 126.135 22.6155 126.135 22.5928C127.817 24.279 129.477 25.988 131.115 27.7197C130.984 27.946 130.829 28.1511 130.65 28.335C129.876 27.5602 129.101 26.7855 128.326 26.0107C127.579 24.9066 126.849 23.79 126.135 22.6611Z" fill="#E91C81"/>
</g>
<g clip-path="url(#clip3_2694_1137)">
<path opacity="0.998" fill-rule="evenodd" clip-rule="evenodd" d="M166.12 0.0996094C172.957 0.126384 178.163 2.93758 181.74 8.5332C184.308 13.1126 184.718 17.8718 182.97 22.8105C180.696 28.3179 176.606 31.8265 170.7 33.3359C164.113 34.6122 158.497 32.9188 153.849 28.2559C149.995 23.8824 148.651 18.8576 149.816 13.1816C151.34 7.4298 154.929 3.43438 160.583 1.19531C162.38 0.55172 164.226 0.186486 166.12 0.0996094Z" fill="#4BAE4F"/>
<path fill-rule="evenodd" clip-rule="evenodd" d="M165.71 7.80288C169.608 7.59078 172.627 9.05172 174.767 12.1857C176.649 15.585 176.512 18.9053 174.357 22.1466C171.753 25.3365 168.392 26.4986 164.274 25.633C163.673 25.4403 163.081 25.23 162.497 25.0021C161.13 25.3451 159.763 25.6882 158.395 26.0314C157.58 26.1444 157.25 25.8014 157.404 25.0021C157.796 23.73 158.149 22.4462 158.464 21.1505C156.661 17.3388 157.151 13.8414 159.933 10.6584C161.531 9.08001 163.456 8.12821 165.71 7.80288Z" fill="#FCFEFD"/>
<path fill-rule="evenodd" clip-rule="evenodd" d="M165.574 9.33003C169.612 9.03791 172.449 10.676 174.084 14.2441C175.064 17.3326 174.415 20.0442 172.136 22.3789C169.861 24.2955 167.264 24.871 164.343 24.1054C163.871 23.9427 163.416 23.7434 162.976 23.5078C162.851 23.4967 162.725 23.4857 162.6 23.4746C161.463 23.7037 160.335 23.9693 159.216 24.2714C159.497 23.1933 159.793 22.1198 160.105 21.0507C159.876 20.4844 159.637 19.92 159.387 19.3574C158.377 15.9946 159.231 13.1724 161.951 10.8906C163.046 10.1151 164.253 9.59486 165.574 9.33003Z" fill="#4BAE4F"/>
<path fill-rule="evenodd" clip-rule="evenodd" d="M163.66 12.7834C163.934 12.7724 164.208 12.7835 164.48 12.8166C164.56 12.8941 164.64 12.9715 164.719 13.049C164.97 13.6246 165.221 14.2001 165.471 14.7756C165.522 14.9936 165.477 15.1928 165.335 15.3733C165.126 15.6089 164.932 15.8525 164.754 16.1037C165.455 17.4636 166.549 18.3933 168.035 18.8928C168.08 18.8817 168.126 18.8707 168.172 18.8596C168.482 18.5357 168.767 18.1926 169.026 17.8303C169.076 17.7932 169.133 17.7711 169.197 17.7639C169.955 18.0158 170.673 18.3479 171.35 18.76C171.461 19.7606 171.017 20.4136 170.017 20.719C169.188 20.9079 168.391 20.8194 167.625 20.4533C165.439 19.5035 163.81 17.9872 162.737 15.9045C162.229 14.6207 162.537 13.5804 163.66 12.7834Z" fill="#FDFEFD"/>
<g clip-path="url(#clip4_2694_1137)">
<path opacity="0.998" fill-rule="evenodd" clip-rule="evenodd" d="M165.162 -0.0332031C166.21 -0.0332031 167.258 -0.0332031 168.307 -0.0332031C174.435 0.689821 179.049 3.63384 182.149 8.79883C183.291 10.8887 183.986 13.1022 184.234 15.4395C184.234 16.4577 184.234 17.4759 184.234 18.4941C183.49 24.4471 180.46 28.9295 175.143 31.9414C172.991 33.0501 170.713 33.7251 168.307 33.9668C167.258 33.9668 166.21 33.9668 165.162 33.9668C159.034 33.2438 154.42 30.2998 151.319 25.1348C150.178 23.0449 149.483 20.8314 149.234 18.4941C149.234 17.4759 149.234 16.4577 149.234 15.4395C149.979 9.4866 153.009 5.0042 158.326 1.99219C160.478 0.883555 162.756 0.208423 165.162 -0.0332031Z" fill="#2AA81A"/>
<path fill-rule="evenodd" clip-rule="evenodd" d="M165.846 8.46679C170.613 8.37336 173.724 10.5205 175.177 14.9082C175.827 18.1703 174.927 20.9483 172.477 23.2422C169.5 25.5205 166.264 25.93 162.77 24.4707C161.265 24.8141 159.761 25.135 158.258 25.4336C158.131 25.3551 158.063 25.2444 158.053 25.1016C158.385 23.6547 158.704 22.2048 159.01 20.7519C157.486 17.5741 157.771 14.5637 159.864 11.7207C161.414 9.8667 163.408 8.78209 165.846 8.46679Z" fill="#FDFEFD"/>
<path fill-rule="evenodd" clip-rule="evenodd" d="M165.642 10.3263C169.095 10.0605 171.568 11.4329 173.059 14.4435C174.043 17.3599 173.394 19.8722 171.111 21.9806C169.009 23.5367 166.708 23.8908 164.206 23.0431C163.842 22.8493 163.466 22.6833 163.079 22.545C162.208 22.7593 161.33 22.9364 160.447 23.0763C160.588 22.2329 160.748 21.3918 160.925 20.5528C160.914 20.4643 160.902 20.3757 160.891 20.2872C159.242 17.1056 159.732 14.2833 162.361 11.8204C163.342 11.0859 164.436 10.5879 165.642 10.3263Z" fill="#2BA81B"/>
<path fill-rule="evenodd" clip-rule="evenodd" d="M163.658 12.8495C163.953 12.8028 164.192 12.8914 164.376 13.1151C164.627 13.6464 164.878 14.1776 165.128 14.7089C165.174 14.9081 165.174 15.1073 165.128 15.3065C164.969 15.5058 164.809 15.705 164.65 15.9042C164.594 16.1342 164.617 16.3556 164.718 16.5683C165.183 17.1745 165.718 17.7168 166.325 18.1952C166.711 18.4938 167.121 18.7594 167.555 18.9921C167.747 19.0422 167.929 19.0201 168.102 18.9257C168.357 18.5987 168.676 18.3663 169.059 18.2284C169.748 18.3958 170.432 18.584 171.11 18.7929C171.358 18.9954 171.438 19.2499 171.349 19.5565C170.74 20.7101 169.772 21.186 168.444 20.9843C167.413 20.7604 166.479 20.3398 165.641 19.7226C164.426 18.8524 163.457 17.7789 162.736 16.5019C162.436 15.8213 162.322 15.1129 162.394 14.3769C162.683 13.7543 163.104 13.2452 163.658 12.8495Z" fill="#FDFEFD"/>
<ellipse cx="166.77" cy="17" rx="17.5" ry="17" fill="#EA4B98"/>
<path opacity="0.965" fill-rule="evenodd" clip-rule="evenodd" d="M165.992 8.14876C169.854 8.00649 172.771 9.53014 174.745 12.7197C175.921 14.9113 176.161 17.1968 175.462 19.5762C174.459 22.5137 172.445 24.4699 169.421 25.4448C165.866 26.3554 162.776 25.5742 160.15 23.1012C157.835 20.5752 157.131 17.6699 158.036 14.3854C159.04 11.4479 161.054 9.49164 164.078 8.51676C164.711 8.34085 165.349 8.21818 165.992 8.14876ZM166.59 9.15592C167.194 9.17481 167.692 9.40723 168.085 9.85319C168.741 10.6694 169.213 11.5797 169.501 12.5841C168.579 12.6588 167.655 12.6911 166.729 12.681C165.817 12.6914 164.906 12.6591 163.998 12.5841C164.254 11.7332 164.633 10.9391 165.134 10.2018C165.425 9.82865 165.778 9.52521 166.191 9.2915C166.33 9.24879 166.463 9.2036 166.59 9.15592ZM164.237 9.54329C164.278 9.55866 164.285 9.58448 164.257 9.62077C163.651 10.5021 163.205 11.4576 162.921 12.4873C162.067 12.4647 161.217 12.3808 160.369 12.2355C161.378 10.9579 162.667 10.0605 164.237 9.54329ZM169.182 9.58203C170.787 10.0407 172.103 10.9252 173.13 12.2355C172.282 12.3808 171.432 12.4647 170.578 12.4873C170.324 11.6203 169.972 10.7939 169.521 10.0081C169.426 9.84943 169.313 9.7074 169.182 9.58203ZM159.731 13.1846C160.711 13.3326 161.694 13.4617 162.682 13.5719C162.477 14.5296 162.37 15.498 162.363 16.4772C161.153 16.4772 159.944 16.4772 158.734 16.4772C158.801 15.3014 159.133 14.2039 159.731 13.1846ZM173.728 13.1846C173.87 13.3435 173.983 13.5243 174.067 13.7269C174.468 14.6033 174.701 15.5201 174.765 16.4772C173.555 16.4772 172.345 16.4772 171.136 16.4772C171.132 15.4976 171.026 14.5292 170.817 13.5719C171.796 13.4706 172.767 13.3415 173.728 13.1846ZM163.759 13.6107C165.739 13.7646 167.72 13.7646 169.7 13.6107C169.724 13.6188 169.744 13.6317 169.76 13.6494C169.95 14.5834 170.063 15.5259 170.099 16.4772C167.866 16.4772 165.633 16.4772 163.4 16.4772C163.432 15.5096 163.552 14.5542 163.759 13.6107ZM158.734 17.4844C159.944 17.4844 161.153 17.4844 162.363 17.4844C162.367 18.464 162.473 19.4324 162.682 20.3896C161.701 20.4983 160.724 20.6274 159.751 20.777C159.135 19.7627 158.796 18.6652 158.734 17.4844ZM163.4 17.4844C165.633 17.4844 167.866 17.4844 170.099 17.4844C170.063 18.4357 169.95 19.3783 169.76 20.3122C169.744 20.3299 169.724 20.3428 169.7 20.3509C167.733 20.1965 165.766 20.1965 163.799 20.3509C163.775 20.3428 163.755 20.3299 163.739 20.3122C163.549 19.3783 163.436 18.4357 163.4 17.4844ZM171.136 17.4844C172.345 17.4844 173.555 17.4844 174.765 17.4844C174.703 18.6652 174.364 19.7627 173.748 20.777C172.776 20.6212 171.799 20.492 170.817 20.3896C171.022 19.432 171.129 18.4636 171.136 17.4844ZM165.154 21.2806C166.231 21.2741 167.308 21.2806 168.384 21.3C168.758 21.3086 169.13 21.3345 169.501 21.3774C169.245 22.2284 168.866 23.0225 168.364 23.7598C168.058 24.1608 167.679 24.4772 167.228 24.7088C166.811 24.8552 166.413 24.8165 166.032 24.5926C165.543 24.2601 165.151 23.8404 164.855 23.3337C164.487 22.7154 164.201 22.0633 163.998 21.3774C164.389 21.3404 164.775 21.3082 165.154 21.2806ZM162.642 21.4355C162.739 21.4236 162.832 21.4366 162.921 21.4743C163.146 22.239 163.445 22.975 163.819 23.6823C163.96 23.9379 164.126 24.1768 164.317 24.3989C162.707 23.9202 161.391 23.0293 160.369 21.7261C161.13 21.6132 161.888 21.5163 162.642 21.4355ZM170.578 21.4355C171.432 21.497 172.283 21.5938 173.13 21.7261C172.106 22.9889 170.81 23.8863 169.242 24.4183C169.552 23.8939 169.844 23.3516 170.119 22.7913C170.308 22.3504 170.461 21.8985 170.578 21.4355Z" fill="white"/>
</g>
</g>
<circle cx="217" cy="17.5" r="17.5" fill="white"/>
<path d="M204.389 13.857C204.389 10.7181 204.389 9.14868 205 7.9498C205.537 6.89523 206.394 6.03784 207.449 5.50051C208.648 4.88965 210.217 4.88965 213.356 4.88965H220.642C223.781 4.88965 225.35 4.88965 226.549 5.50051C227.604 6.03784 228.461 6.89523 228.998 7.9498C229.609 9.14868 229.609 10.7181 229.609 13.857V21.1429C229.609 24.2818 229.609 25.8512 228.998 27.0501C228.461 28.1047 227.604 28.9621 226.549 29.4994C225.35 30.1102 223.781 30.1102 220.642 30.1102H213.356C210.217 30.1102 208.648 30.1102 207.449 29.4994C206.394 28.9621 205.537 28.1047 205 27.0501C204.389 25.8512 204.389 24.2818 204.389 21.1429V13.857Z" fill="white"/>
<path d="M222.45 10.7651L217.057 14.9738L211.541 10.7651V10.7663L211.548 10.772V16.6652L216.995 20.9647L222.45 16.8312V10.7651Z" fill="#EA4335"/>
<path d="M223.865 9.74159L222.449 10.7653V16.8314L226.906 13.4099V11.3488C226.906 11.3488 226.365 8.40507 223.865 9.74159Z" fill="#FBBC05"/>
<path d="M222.449 16.8311V24.6989H225.865C225.865 24.6989 226.837 24.5989 226.907 23.491V13.4097L222.449 16.8311Z" fill="#34A853"/>
<path d="M211.547 24.7061V16.6653L211.541 16.6597L211.547 24.7061Z" fill="#C5221F"/>
<path d="M211.542 10.7661L210.133 9.74804C207.634 8.41152 207.092 11.3541 207.092 11.3541V13.4152L211.542 16.6593V10.7661Z" fill="#C5221F"/>
<path d="M211.541 10.7666V16.6598L211.547 16.6655V10.7723L211.541 10.7666Z" fill="#C5221F"/>
<path d="M207.092 13.417V23.4983C207.161 24.6074 208.134 24.7064 208.134 24.7064H211.549L211.542 16.6599L207.092 13.417Z" fill="#4285F4"/>
<defs>
<clipPath id="clip0_2694_1137">
<rect width="35" height="34" fill="white" transform="translate(0 0.277832) rotate(-0.454835)"/>
</clipPath>
<clipPath id="clip1_2694_1137">
<rect width="35" height="34" fill="white" transform="translate(50.2695)"/>
</clipPath>
<clipPath id="clip2_2694_1137">
<rect width="35" height="34" fill="white" transform="translate(100.27 35) rotate(-90)"/>
</clipPath>
<clipPath id="clip3_2694_1137">
<rect width="35" height="34" fill="white" transform="translate(149.27)"/>
</clipPath>
<clipPath id="clip4_2694_1137">
<rect width="35" height="34" fill="white" transform="translate(149.27)"/>
</clipPath>
</defs>
</svg>
