<svg width="23" height="23" viewBox="0 0 23 23" fill="none" xmlns="http://www.w3.org/2000/svg">
<path d="M22.0058 20.3322L20.9163 16.8102C22.0214 14.656 22.3788 12.1969 21.9327 9.81821C21.4866 7.43951 20.2622 5.27558 18.4512 3.66545C16.6401 2.05532 14.3449 1.08995 11.9251 0.92058C9.50524 0.751214 7.09748 1.38742 5.07902 2.72953C3.06057 4.07164 1.54545 6.04382 0.771043 8.3371C-0.00336318 10.6304 0.00670003 13.1152 0.799641 15.4023C1.59258 17.6893 3.12361 19.6494 5.15287 20.9754C7.18212 22.3015 9.59495 22.9186 12.0134 22.73C14.3724 22.5984 16.6145 21.6624 18.3644 20.0787L22.0058 20.3322Z" fill="#FAFAFA"/>
<path d="M22.0059 20.3322L21.7644 20.3102L21.0623 20.2509L18.365 20.0342C17.0119 21.2526 15.3535 22.0831 13.5657 22.4379C13.0137 22.5532 12.4536 22.626 11.8903 22.6555L10.9996 22.6796C10.7007 22.6759 10.3927 22.6373 10.0845 22.6177C7.29821 22.3314 4.72938 20.9858 2.91114 18.8602C1.88625 17.6793 1.13152 16.2898 0.699444 14.7884C0.257587 13.1844 0.184499 11.5015 0.485643 9.86534C0.560674 9.44469 0.663449 9.02944 0.793292 8.62229C0.852254 8.41597 0.923738 8.21342 1.00735 8.01577C1.08931 7.81372 1.16172 7.61156 1.24999 7.41277C1.61397 6.61031 2.07146 5.85344 2.61299 5.1578C2.88289 4.81103 3.17473 4.48184 3.48675 4.17224C3.63825 4.01428 3.79936 3.86578 3.96916 3.72759C4.13306 3.58682 4.29075 3.43328 4.46403 3.30531L4.99019 2.92465L5.25322 2.73749L5.53503 2.57593L6.08896 2.2654C6.27783 2.163 6.47593 2.08609 6.66786 1.99324C8.1376 1.32104 9.73977 0.986264 11.3564 1.01355C12.973 1.04084 14.563 1.42951 16.0092 2.15093C18.5152 3.38918 20.4469 5.54291 21.4029 8.16473C21.4552 8.31129 21.5043 8.45782 21.5534 8.60118C21.6092 8.74272 21.6532 8.88863 21.6849 9.0374C21.7545 9.33012 21.8209 9.61962 21.8875 9.90278C21.9773 10.4571 22.0363 11.016 22.0643 11.5768C22.1136 13.3905 21.7092 15.1879 20.8879 16.8067L21.7085 19.4117L21.9261 20.0869C21.9752 20.2398 22.0028 20.3194 22.0028 20.3194C22.0028 20.3194 21.9846 20.2462 21.9387 20.0966L21.7433 19.428L20.958 16.7885L20.9577 16.8139C21.8005 15.1923 22.2205 13.3853 22.179 11.5592C22.1561 10.9921 22.1003 10.4269 22.0119 9.86621C21.9454 9.57988 21.8758 9.28717 21.8095 8.99133C21.7775 8.84093 21.7346 8.69304 21.6813 8.5488C21.629 8.40223 21.5799 8.2557 21.5276 8.10596C21.0138 6.67658 20.2082 5.36916 19.1617 4.26647C18.1152 3.16378 16.8505 2.28983 15.4479 1.69995C14.0453 1.11007 12.5352 0.817115 11.0133 0.839622C9.49131 0.862129 7.99063 1.19961 6.60623 1.8307C6.41115 1.92034 6.20984 2.00038 6.01775 2.10592L5.45409 2.43219L5.17225 2.59692L4.9028 2.78717L4.37026 3.17093C4.19372 3.3052 4.03285 3.4587 3.86578 3.59944C3.69458 3.7406 3.53138 3.89113 3.37692 4.05035C3.06055 4.3663 2.7644 4.70177 2.49021 5.05479C1.93831 5.75433 1.47115 6.51643 1.09841 7.32527C1.0101 7.52724 0.9376 7.73574 0.855648 7.93779C0.768846 8.14356 0.69513 8.35459 0.634925 8.56961C0.504125 8.98404 0.401254 9.40674 0.327006 9.83487C0.0196358 11.4953 0.0946154 13.2037 0.546279 14.831C0.979404 16.3608 1.74262 17.7777 2.78246 18.9823C4.62852 21.1282 7.23076 22.4841 10.0508 22.7696C10.3688 22.7734 10.6862 22.8217 10.9788 22.8253L11.8791 22.7981C12.4478 22.7653 13.0132 22.6895 13.5704 22.5712C15.3651 22.2019 17.0247 21.351 18.3705 20.1104L18.345 20.1101L21.0683 20.2859L21.7611 20.326C21.9295 20.3312 22.0059 20.3322 22.0059 20.3322Z" fill="#007C00"/>
<path d="M17.3875 11.4979L15.6035 9.91858L12.526 12.9935L5.78699 7.25205L4.32173 9.02356L12.9608 16.2188L17.3875 11.4979Z" fill="#006600"/>
</svg>
