<svg width="31" height="34" viewBox="0 0 31 34" fill="none" xmlns="http://www.w3.org/2000/svg">
<g clip-path="url(#clip0_3535_12)">
<path fill-rule="evenodd" clip-rule="evenodd" d="M1.05957 -0.0332031C10.6664 -0.0332031 20.2731 -0.0332031 29.8799 -0.0332031C30.3844 0.210287 30.7477 0.608724 30.9697 1.16211C30.9697 11.6986 30.9697 22.235 30.9697 32.7715C30.7477 33.3248 30.3844 33.7233 29.8799 33.9668C20.2731 33.9668 10.6664 33.9668 1.05957 33.9668C0.555013 33.7233 0.191732 33.3248 -0.0302734 32.7715C-0.0302734 22.235 -0.0302734 11.6986 -0.0302734 1.16211C0.191732 0.608724 0.555013 0.210287 1.05957 -0.0332031Z" fill="white"/>
<path fill-rule="evenodd" clip-rule="evenodd" d="M16.6807 9.13081C17.9368 8.98106 18.9964 9.40161 19.8595 10.3925C20.1247 11.2256 19.8624 11.7125 19.0723 11.8535C18.9069 11.8458 18.7556 11.7905 18.6182 11.6874C18.1169 11.128 17.5114 10.9288 16.8018 11.0898C16.6404 11.1783 16.4789 11.2669 16.3175 11.3554C14.38 13.4804 12.4425 15.6054 10.505 17.7304C9.98481 18.0294 9.55087 17.9298 9.20321 17.4316C9.0677 17.0654 9.08786 16.7111 9.26375 16.3691C11.2065 14.2384 13.154 12.1024 15.1065 9.96089C15.5876 9.57526 16.1123 9.29855 16.6807 9.13081Z" fill="black"/>
<path fill-rule="evenodd" clip-rule="evenodd" d="M12.4423 9.2637C12.774 9.255 13.0969 9.31032 13.4111 9.42972C13.6195 9.53716 13.8012 9.68107 13.956 9.86136C12.1387 11.8656 10.3324 13.8799 8.53704 15.9043C8.01852 17.0977 8.27082 18.0384 9.29388 18.7266C9.88681 18.9765 10.4519 18.9101 10.9892 18.5274C12.9501 16.3767 14.9078 14.2295 16.8622 12.086C17.4457 11.8249 17.8594 12.0131 18.1034 12.6504C18.1404 12.8985 18.1202 13.142 18.0429 13.3809C16.0517 15.6311 14.0435 17.8557 12.0185 20.0547C10.9781 20.7926 9.8681 20.9476 8.68841 20.5196C6.79371 19.4288 6.15797 17.7575 6.78118 15.5059C6.91711 15.1409 7.09875 14.8088 7.3261 14.5098C8.79267 12.9235 10.2357 11.3186 11.6552 9.69534C11.9063 9.51339 12.1686 9.36949 12.4423 9.2637Z" fill="black"/>
<path fill-rule="evenodd" clip-rule="evenodd" d="M20.2529 13.1816C22.7097 13.0221 24.1023 14.2727 24.4307 16.9336C24.3937 17.8608 24.1213 18.6908 23.6133 19.4238C22.1483 21.0083 20.7053 22.6132 19.2842 24.2383C18.5012 24.846 17.7444 24.8128 17.0137 24.1387C16.9733 24.0944 16.9733 24.0501 17.0137 24.0059C18.7291 22.1244 20.4447 20.2428 22.1602 18.3613C22.7428 17.6028 22.8235 16.7838 22.4023 15.9043C21.7136 14.9887 20.8962 14.8227 19.9502 15.4062C18.0127 17.5312 16.0752 19.6562 14.1377 21.7812C13.2398 22.1359 12.7857 21.7928 12.7754 20.7519C12.8359 20.6191 12.8965 20.4863 12.957 20.3535C14.8659 18.3484 16.7327 16.3009 18.5576 14.2109C19.0641 13.7452 19.6292 13.4021 20.2529 13.1816Z" fill="black"/>
<path fill-rule="evenodd" clip-rule="evenodd" d="M20.6161 16.0372C21.6343 16.0136 21.9673 16.5228 21.6151 17.5645C19.6606 19.7827 17.6727 21.963 15.6513 24.1055C14.0487 25.1585 12.5451 25.0146 11.1405 23.6739C10.7708 23.0271 10.8818 22.5069 11.4735 22.1133C11.7214 22.0624 11.9636 22.0845 12.2001 22.1797C12.9164 22.9508 13.7237 23.0836 14.622 22.5782C16.6137 20.3826 18.6117 18.2023 20.6161 16.0372Z" fill="black"/>
</g>
<defs>
<clipPath id="clip0_3535_12">
<rect width="31" height="34" fill="white"/>
</clipPath>
</defs>
</svg>
