<svg width="34" height="34" viewBox="0 0 34 34" fill="none" xmlns="http://www.w3.org/2000/svg">
<g clip-path="url(#clip0_1562_76)">
<path fill-rule="evenodd" clip-rule="evenodd" d="M1.16211 -0.0332031C11.6986 -0.0332031 22.235 -0.0332031 32.7715 -0.0332031C33.3248 0.210287 33.7233 0.608724 33.9668 1.16211C33.9668 11.6986 33.9668 22.235 33.9668 32.7715C33.7233 33.3248 33.3248 33.7233 32.7715 33.9668C22.235 33.9668 11.6986 33.9668 1.16211 33.9668C0.608724 33.7233 0.210287 33.3248 -0.0332031 32.7715C-0.0332031 22.235 -0.0332031 11.6986 -0.0332031 1.16211C0.210287 0.608724 0.608724 0.210287 1.16211 -0.0332031Z" fill="#EA4B98"/>
<path fill-rule="evenodd" clip-rule="evenodd" d="M18.295 9.13105C19.6726 8.98131 20.8347 9.40186 21.7813 10.3928C22.0723 11.2258 21.7845 11.7128 20.9181 11.8537C20.7366 11.8461 20.5706 11.7908 20.42 11.6877C19.8701 11.1282 19.206 10.929 18.4278 11.09C18.2507 11.1786 18.0737 11.2671 17.8966 11.3557C15.7716 13.4807 13.6466 15.6057 11.5216 17.7307C10.9511 18.0296 10.4752 17.93 10.0938 17.4318C9.94523 17.0656 9.96734 16.7114 10.1603 16.3693C12.291 14.2386 14.427 12.1026 16.5685 9.96113C17.0961 9.57551 17.6715 9.29879 18.295 9.13105Z" fill="#FBFBFB"/>
<path fill-rule="evenodd" clip-rule="evenodd" d="M13.6466 9.26358C14.0104 9.25488 14.3645 9.3102 14.7091 9.4296C14.9377 9.53704 15.1369 9.68095 15.3067 9.86124C13.3136 11.8654 11.3325 13.8797 9.36339 15.9042C8.79468 17.0976 9.0714 18.0383 10.1935 18.7265C10.8438 18.9764 11.4636 18.91 12.0528 18.5273C14.2035 16.3766 16.3507 14.2294 18.4942 12.0858C19.1342 11.8247 19.588 12.0129 19.8556 12.6503C19.8961 12.8984 19.874 13.1419 19.7892 13.3808C17.6053 15.631 15.4028 17.8556 13.1817 20.0546C12.0407 20.7924 10.8233 20.9474 9.5294 20.5194C7.45135 19.4287 6.75409 17.7574 7.43761 15.5058C7.58669 15.1407 7.78591 14.8087 8.03526 14.5097C9.64375 12.9234 11.2265 11.3185 12.7833 9.69522C13.0587 9.51327 13.3464 9.36937 13.6466 9.26358Z" fill="#FCFCFC"/>
<path fill-rule="evenodd" clip-rule="evenodd" d="M22.2129 13.1815C24.9075 13.0219 26.4348 14.2726 26.7949 16.9335C26.7544 17.8606 26.4556 18.6907 25.8984 19.4237C24.2917 21.0082 22.7091 22.6131 21.1504 24.2382C20.2917 24.8459 19.4616 24.8127 18.6602 24.1385C18.6159 24.0942 18.6159 24.05 18.6602 24.0057C20.5416 22.1242 22.4232 20.2427 24.3047 18.3612C24.9437 17.6026 25.0322 16.7837 24.5703 15.9042C23.8149 14.9886 22.9185 14.8225 21.8809 15.4061C19.7559 17.5311 17.6309 19.6561 15.5059 21.7811C14.5211 22.1358 14.023 21.7927 14.0117 20.7518C14.0781 20.619 14.1445 20.4862 14.2109 20.3534C16.3045 18.3483 18.352 16.3008 20.3535 14.2108C20.909 13.745 21.5288 13.402 22.2129 13.1815Z" fill="#FCFCFC"/>
<path fill-rule="evenodd" clip-rule="evenodd" d="M22.6114 16.0369C23.728 16.0134 24.0933 16.5225 23.7071 17.5643C21.5634 19.7824 19.3831 21.9627 17.166 24.1053C15.4083 25.1582 13.7593 25.0144 12.2188 23.6736C11.8132 23.0268 11.935 22.5067 12.584 22.1131C12.8559 22.0621 13.1215 22.0843 13.3809 22.1795C14.1665 22.9505 15.0519 23.0833 16.0371 22.5779C18.2216 20.3824 20.413 18.2021 22.6114 16.0369Z" fill="#FBFBFB"/>
</g>
<defs>
<clipPath id="clip0_1562_76">
<rect width="34" height="34" fill="white"/>
</clipPath>
</defs>
</svg>
