<svg width="34" height="34" viewBox="0 0 34 34" fill="none" xmlns="http://www.w3.org/2000/svg">
<path fill-rule="evenodd" clip-rule="evenodd" d="M1.41669 6.41668C1.41669 3.65526 3.65526 1.41669 6.41669 1.41669H27.5834C30.3448 1.41669 32.5834 3.65526 32.5834 6.41669V27.5834C32.5834 30.3448 30.3448 32.5834 27.5834 32.5834H6.41668C3.65526 32.5834 1.41669 30.3448 1.41669 27.5834V6.41668ZM15.7528 13.0179C15.7528 12.1638 16.4536 11.8354 17.6142 11.8354C18.2305 11.8354 18.9068 11.9044 19.5986 12.037C21.2239 12.3483 23.0451 11.2287 23.0451 9.57394C23.0451 8.67845 22.5029 7.8573 21.6406 7.61581C20.2986 7.23999 18.9624 7.08335 17.6142 7.08335C13.1688 7.08335 10.2125 9.40461 10.2125 13.2807C10.2125 19.3247 18.534 18.3612 18.534 20.9671C18.534 21.9744 17.658 22.3029 16.4317 22.3029C15.6621 22.3029 14.8022 22.1694 13.9267 21.939C12.2945 21.5094 10.4534 22.6124 10.4534 24.3002C10.4534 25.1878 10.9776 26.0044 11.8223 26.277C13.4029 26.7869 14.97 27.0111 16.4317 27.0111C20.9866 27.0111 24.1181 24.7556 24.1181 20.8357C24.0962 14.3099 15.7528 15.4705 15.7528 13.0179Z" fill="#EA4B98"/>
</svg>
