<svg width="50" height="50" viewBox="0 0 50 50" fill="none" xmlns="http://www.w3.org/2000/svg">
<path opacity="0.99" fill-rule="evenodd" clip-rule="evenodd" d="M0 31.1845C0 26.7282 0 22.2718 0 17.8155C0.458741 16.3113 1.46785 15.391 3.02734 15.0545C13.2486 15.0061 23.47 14.9899 33.6914 15.0061C33.6914 21.3353 33.6914 27.6647 33.6914 33.9939C23.47 34.0101 13.2486 33.9939 3.02734 33.9455C1.46535 33.6064 0.456234 32.6861 0 31.1845ZM6.73828 20.1405C9.14735 20.1244 11.5563 20.1405 13.9648 20.189C15.1838 20.4923 15.5581 21.2189 15.0879 22.3687C14.7934 22.7167 14.419 22.9265 13.9648 22.9984C11.3893 23.0908 8.81761 23.0586 6.25 22.9015C5.48782 22.5352 5.21113 21.9379 5.41992 21.1093C5.68166 20.5367 6.12111 20.2137 6.73828 20.1405ZM19.7266 20.1405C22.3023 20.0965 24.874 20.1449 27.4414 20.2859C28.4138 20.8829 28.5766 21.6579 27.9297 22.6109C27.6488 22.847 27.3232 22.9761 26.9531 22.9984C24.5442 23.063 22.1354 23.063 19.7266 22.9984C18.5076 22.6951 18.1333 21.9685 18.6035 20.8187C18.8951 20.4391 19.2694 20.213 19.7266 20.1405ZM6.73828 25.9532C13.4767 25.937 20.2149 25.9532 26.9531 26.0016C28.323 26.3468 28.6648 27.1379 27.9785 28.3751C27.6898 28.6393 27.348 28.7846 26.9531 28.811C20.2148 28.8756 13.4766 28.8756 6.73828 28.811C5.44082 28.5133 5.06646 27.7545 5.61523 26.5344C5.93825 26.221 6.31261 26.0273 6.73828 25.9532Z" fill="#EA4B98"/>
<path opacity="0.981" fill-rule="evenodd" clip-rule="evenodd" d="M49.6172 17.8155C49.6172 22.2718 49.6172 26.7282 49.6172 31.1845C49.1584 32.6887 48.1493 33.609 46.5898 33.9455C45.0603 33.9939 43.5303 34.0101 42 33.9939C42 27.6647 42 21.3353 42 15.0061C43.5303 14.9899 45.0603 15.0061 46.5898 15.0545C48.1493 15.391 49.1584 16.3113 49.6172 17.8155Z" fill="#EA4B98"/>
<rect x="33" y="15" width="10" height="19" fill="#EA4B98"/>
<path opacity="0.964" d="M19.1978 4.0178L19.0802 4.0229L18.9669 4.05521C18.2285 4.26577 17.6499 4.72678 17.2587 5.38452L17.2 5.48311L17.1652 5.59241C16.9607 6.23465 16.9173 6.92118 17.2006 7.56217C17.4846 8.20511 18.0225 8.63319 18.6376 8.90825L18.8281 8.99346L19.0368 8.99534C20.0034 9.00406 20.9646 9.06184 21.9208 9.16865C22.2041 9.29701 22.3817 9.48548 22.4903 9.77067C22.5539 19.0364 22.5539 28.3021 22.4903 37.5677C22.3817 37.8529 22.204 38.0414 21.9207 38.1698C20.9646 38.2766 20.0034 38.3343 19.0368 38.3431L18.8875 38.3444L18.7452 38.3893C17.8469 38.6724 17.254 39.3302 17.0455 40.2436L17.0313 40.3059L17.0251 40.3696C16.9639 41.001 17.0601 41.638 17.4286 42.1834C17.7974 42.7292 18.3526 43.0556 18.9617 43.2329L19.0638 43.2626L19.1698 43.2702C20.1287 43.3387 21.0879 43.3387 22.0468 43.2702L22.0597 43.2693L22.0726 43.268C23.1815 43.1598 24.1802 42.7878 25.0517 42.1583C25.7299 42.6454 26.4948 42.9783 27.3379 43.154L27.3757 43.1619L27.4141 43.1669C28.6156 43.3218 29.8214 43.3562 31.0308 43.2702L31.0823 43.2665L31.1332 43.2576C32.0306 43.0996 32.6973 42.5525 33.019 41.6969L33.0362 41.6512L33.0488 41.6039C33.2157 40.9814 33.2284 40.3257 32.9473 39.7192C32.6649 39.1099 32.155 38.6985 31.5683 38.4324L31.3883 38.3507L31.1909 38.3437L29.8237 38.2948L28.5518 38.2494C28.2525 38.1744 28.061 38.0573 27.9316 37.9279C27.8041 37.8004 27.6885 37.6125 27.6134 37.3205C27.5493 28.2196 27.5493 19.1188 27.6134 10.0179C27.6885 9.72586 27.8041 9.53798 27.9316 9.41048C28.061 9.28114 28.2524 9.16398 28.5518 9.089L29.8237 9.04357L31.1909 8.99475L31.3697 8.98836L31.5351 8.92039C32.2224 8.63811 32.7311 8.13268 33.0101 7.44229L33.0383 7.37241L33.0558 7.29908C33.2138 6.63487 33.2075 5.93221 32.8574 5.30818C32.5058 4.6814 31.908 4.31306 31.2565 4.1107L31.1463 4.07646L31.0311 4.06824C30.0723 3.99974 29.1131 3.99974 28.1543 4.06824L28.1433 4.06902L28.1324 4.07004C26.9972 4.17616 25.9712 4.54819 25.071 5.18094C24.5546 4.80031 23.981 4.50897 23.3544 4.30854L23.2886 4.2875L23.2205 4.2757C21.8909 4.04518 20.5496 3.95923 19.1978 4.0178Z" fill="#EA4B98" stroke="white" stroke-width="2"/>
</svg>
