<svg width="56" height="50" viewBox="0 0 56 50" fill="none" xmlns="http://www.w3.org/2000/svg">
<g clip-path="url(#clip0_736_1903)">
<path opacity="0.99" fill-rule="evenodd" clip-rule="evenodd" d="M55.4763 31.3987C55.4763 26.9065 55.4763 22.4143 55.4763 17.9221C55.0176 16.4058 54.0085 15.4781 52.449 15.1389C42.2277 15.0901 32.0063 15.0738 21.7849 15.0901C21.7849 21.4703 21.7849 27.8506 21.7849 34.2307C32.0063 34.247 42.2277 34.2307 52.449 34.1819C54.011 33.8401 55.0201 32.9124 55.4763 31.3987ZM48.738 20.2659C46.329 20.2496 43.9201 20.2659 41.5115 20.3147C40.2925 20.6205 39.9182 21.3529 40.3884 22.512C40.683 22.8628 41.0573 23.0743 41.5115 23.1467C44.0871 23.2399 46.6587 23.2074 49.2263 23.0491C49.9885 22.6798 50.2652 22.0777 50.0564 21.2424C49.7947 20.6652 49.3552 20.3396 48.738 20.2659ZM35.7498 20.2659C33.174 20.2214 30.6023 20.2703 28.0349 20.4124C27.0625 21.0142 26.8998 21.7955 27.5466 22.7561C27.8275 22.9941 28.1531 23.1243 28.5232 23.1467C30.9321 23.2119 33.3409 23.2119 35.7498 23.1467C36.9687 22.841 37.343 22.1086 36.8728 20.9495C36.5812 20.5669 36.2069 20.3389 35.7498 20.2659ZM48.738 26.1253C41.9997 26.1089 35.2614 26.1253 28.5232 26.1741C27.1533 26.522 26.8115 27.3195 27.4978 28.5667C27.7865 28.833 28.1283 28.9795 28.5232 29.0061C35.2615 29.0713 41.9998 29.0713 48.738 29.0061C50.0355 28.706 50.4099 27.9411 49.8611 26.7112C49.5381 26.3953 49.1637 26.2 48.738 26.1253Z" fill="white"/>
<path opacity="0.964" fill-rule="evenodd" clip-rule="evenodd" d="M20.5438 6.01687C19.2635 5.96139 17.994 6.04277 16.7352 6.26101C15.9652 6.50729 15.2979 6.91419 14.7332 7.48171C13.8411 6.65209 12.7831 6.18009 11.5594 6.06569C10.648 6.00059 9.73645 6.00059 8.82503 6.06569C7.83226 6.37404 7.45784 7.04137 7.70198 8.06765C7.87854 8.5046 8.18773 8.81384 8.62972 8.99538C9.54114 9.02793 10.4527 9.06049 11.3641 9.09304C12.357 9.30463 12.9591 9.90681 13.1707 10.8997C13.2359 20.0794 13.2359 29.2591 13.1707 38.4387C12.9591 39.4316 12.357 40.0338 11.3641 40.2454C10.4527 40.2779 9.54114 40.3105 8.62972 40.343C7.75931 40.7379 7.45003 41.4051 7.70198 42.345C7.89798 42.8663 8.27239 43.1755 8.82503 43.2727C9.96819 43.354 11.1075 43.3215 12.243 43.1751C13.205 42.9746 14.0351 42.5351 14.7332 41.8567C15.5912 42.6843 16.6166 43.1563 17.8094 43.2727C18.7208 43.3379 19.6324 43.3379 20.5438 43.2727C21.4488 43.0093 21.8557 42.4071 21.7645 41.4661C21.6333 40.8915 21.2915 40.5172 20.7391 40.343C19.6917 40.3336 18.6501 40.2685 17.6141 40.1477C16.9375 39.8944 16.4981 39.4224 16.2957 38.7317C16.2306 29.3567 16.2306 19.9817 16.2957 10.6067C16.4981 9.91599 16.9375 9.44398 17.6141 9.19069C18.6501 9.06993 19.6917 9.00483 20.7391 8.99538C21.6706 8.57877 21.9798 7.8789 21.6668 6.89577C21.4 6.44728 21.0257 6.15431 20.5438 6.01687Z" fill="white"/>
<path opacity="0.981" fill-rule="evenodd" clip-rule="evenodd" d="M-6.10352e-05 17.9221C-6.10352e-05 22.4143 -6.10352e-05 26.9065 -6.10352e-05 31.3987C0.458728 32.915 1.46781 33.8427 3.02728 34.1819C4.55687 34.2307 6.08685 34.247 7.61713 34.2307C7.61713 27.8506 7.61713 21.4703 7.61713 15.0901C6.08685 15.0738 4.55687 15.0901 3.02728 15.1389C1.46781 15.4781 0.458728 16.4058 -6.10352e-05 17.9221Z" fill="white"/>
</g>
<defs>
<clipPath id="clip0_736_1903">
<rect width="55.4764" height="49.3216" fill="white" transform="matrix(-1 0 0 1 55.4763 0)"/>
</clipPath>
</defs>
</svg>
