<svg width="29" height="29" viewBox="0 0 29 29" fill="none" xmlns="http://www.w3.org/2000/svg">
<path opacity="0.981" fill-rule="evenodd" clip-rule="evenodd" d="M22.9678 1.78479C23.8742 1.77535 24.7805 1.78479 25.6865 1.81311C26.2448 1.97602 26.5752 2.34418 26.6777 2.9176C26.7155 10.6207 26.7155 18.3239 26.6777 26.027C26.5752 26.6004 26.2448 26.9686 25.6865 27.1315C24.7803 27.1692 23.874 27.1692 22.9678 27.1315C22.4147 26.937 22.0843 26.5499 21.9766 25.9703C21.9388 18.305 21.9388 10.6396 21.9766 2.97424C22.0954 2.39357 22.4257 1.99709 22.9678 1.78479Z" fill="#1EAF5A"/>
<path opacity="0.981" fill-rule="evenodd" clip-rule="evenodd" d="M16.4541 7.16566C17.3228 7.1562 18.1913 7.16566 19.0596 7.19398C19.6468 7.36583 19.9961 7.75291 20.1074 8.35511C20.1452 14.2457 20.1452 20.1364 20.1074 26.027C20.0049 26.6004 19.6745 26.9686 19.1162 27.1315C18.21 27.1693 17.3037 27.1693 16.3975 27.1315C15.8444 26.937 15.514 26.5499 15.4063 25.9703C15.3685 20.0986 15.3685 14.2269 15.4063 8.35511C15.5291 7.75126 15.8784 7.35478 16.4541 7.16566Z" fill="#1EAF5A"/>
<path opacity="0.98" fill-rule="evenodd" clip-rule="evenodd" d="M9.8838 13.0563C10.7525 13.0468 11.621 13.0563 12.4893 13.0846C13.0765 13.2565 13.4258 13.6435 13.5371 14.2457C13.5749 18.1539 13.5749 22.0621 13.5371 25.9703C13.4294 26.5499 13.099 26.937 12.5459 27.1315C11.6397 27.1693 10.7334 27.1693 9.82716 27.1315C9.26948 26.9708 8.93904 26.6026 8.83595 26.027C8.79817 22.0999 8.79817 18.1728 8.83595 14.2457C8.95807 13.6426 9.30737 13.2461 9.8838 13.0563Z" fill="#1EAF5A"/>
<path opacity="0.978" fill-rule="evenodd" clip-rule="evenodd" d="M3.36977 18.4364C4.26041 18.4116 5.14777 18.44 6.03188 18.5214C6.47555 18.663 6.76821 18.9556 6.90981 19.3993C7.00281 21.5867 7.02173 23.7769 6.96645 25.9696C6.85872 26.5491 6.52834 26.9362 5.97524 27.1307C5.06899 27.1685 4.16274 27.1685 3.25649 27.1307C2.77918 27.0121 2.46766 26.7195 2.32192 26.2528C2.22888 24.0465 2.21 21.8375 2.26528 19.6258C2.39251 18.9985 2.76068 18.602 3.36977 18.4364Z" fill="#1EAF5A"/>
</svg>
