<svg width="50" height="50" viewBox="0 0 50 50" fill="none" xmlns="http://www.w3.org/2000/svg">
<g clip-path="url(#clip0_503_44)">
<path opacity="0.998" fill-rule="evenodd" clip-rule="evenodd" d="M22.7052 -0.0488281C22.7703 -0.0488281 22.8353 -0.0488281 22.9005 -0.0488281C15.3565 7.64162 7.75564 15.2914 0.0977289 22.9004C0.0523829 22.8424 0.0361068 22.7772 0.0489008 22.7051C7.63354 15.1855 15.1856 7.63347 22.7052 0.0488281C22.7052 0.0162761 22.7052 -0.0162761 22.7052 -0.0488281Z" fill="#00E79D"/>
<path opacity="0.998" fill-rule="evenodd" clip-rule="evenodd" d="M22.9004 -0.0488281C24.1048 -0.0488281 25.3093 -0.0488281 26.5137 -0.0488281C26.5545 0.0216386 26.6195 0.0704667 26.709 0.0976562C17.8026 9.02031 8.88334 17.9233 -0.0488281 26.8066C-0.0488281 25.4395 -0.0488281 24.0723 -0.0488281 22.7051C-0.0162761 22.7051 0.0162761 22.7051 0.0488281 22.7051C0.0360341 22.7772 0.0523102 22.8424 0.0976562 22.9004C7.75557 15.2914 15.3564 7.64162 22.9004 -0.0488281Z" fill="#00E59F"/>
<path opacity="0.998" fill-rule="evenodd" clip-rule="evenodd" d="M26.5137 -0.0488281C26.7415 -0.0488281 26.9694 -0.0488281 27.1973 -0.0488281C27.7535 0.0296221 28.3069 0.127278 28.8574 0.244141C19.3522 9.81445 9.81445 19.3522 0.244141 28.8574C0.127278 28.3069 0.0296221 27.7535 -0.0488281 27.1973C-0.0488281 27.0671 -0.0488281 26.9368 -0.0488281 26.8066C8.88334 17.9233 17.8026 9.02031 26.709 0.0976562C26.6195 0.0704667 26.5545 0.0216386 26.5137 -0.0488281Z" fill="#00E1A4"/>
<path opacity="0.996" fill-rule="evenodd" clip-rule="evenodd" d="M22.7051 0.0488281C15.1855 7.63347 7.63347 15.1855 0.0488281 22.7051C0.164642 20.7263 0.555267 18.8057 1.2207 16.9434C6.49414 11.7351 11.7351 6.49414 16.9434 1.2207C18.8057 0.555267 20.7263 0.164642 22.7051 0.0488281Z" fill="#00EA99"/>
<path opacity="0.998" fill-rule="evenodd" clip-rule="evenodd" d="M28.8574 0.244141C29.3493 0.283937 29.8376 0.349041 30.3223 0.439453C24.7212 5.94289 19.1873 11.5093 13.7207 17.1387C13.3688 17.3477 13.0107 17.5593 12.6465 17.7734C12.7008 17.8108 12.7333 17.8597 12.7441 17.9199C8.63992 22.0566 4.53836 26.1908 0.439453 30.3223C0.349041 29.8376 0.283937 29.3493 0.244141 28.8574C9.81445 19.3522 19.3522 9.81445 28.8574 0.244141Z" fill="#00DFA7"/>
<path opacity="0.998" fill-rule="evenodd" clip-rule="evenodd" d="M30.3223 0.439453C31.2146 0.654387 32.0935 0.914804 32.959 1.2207C32.9698 1.281 33.0023 1.32982 33.0566 1.36719C29.3183 5.15451 25.5423 8.88173 21.7285 12.5488C19.0593 14.0788 16.3899 15.6087 13.7207 17.1387C19.1873 11.5093 24.7212 5.94289 30.3223 0.439453Z" fill="#02DCAB"/>
<path opacity="0.997" fill-rule="evenodd" clip-rule="evenodd" d="M16.9434 1.2207C11.7351 6.49414 6.49414 11.7351 1.2207 16.9434C1.31836 16.6179 1.41602 16.2923 1.51367 15.9668C1.57396 15.9776 1.62279 16.0102 1.66016 16.0645C6.46159 11.263 11.263 6.46159 16.0645 1.66016C16.0102 1.62279 15.9776 1.57396 15.9668 1.51367C16.2923 1.41602 16.6179 1.31836 16.9434 1.2207Z" fill="#00ED95"/>
<path opacity="0.998" fill-rule="evenodd" clip-rule="evenodd" d="M32.959 1.2207C33.1448 1.2496 33.3076 1.3147 33.4473 1.41602C29.5492 5.16751 25.6918 8.9761 21.875 12.8418C21.8297 12.7838 21.8134 12.7187 21.8262 12.6465C21.8262 12.5813 21.7937 12.5488 21.7285 12.5488C25.5423 8.88173 29.3183 5.15451 33.0566 1.36719C33.0023 1.32982 32.9698 1.281 32.959 1.2207Z" fill="#01DAAE"/>
<path opacity="0.999" fill-rule="evenodd" clip-rule="evenodd" d="M33.4473 1.41602C34.4954 1.74376 35.5045 2.16694 36.4746 2.68555C36.4874 2.75771 36.4711 2.82281 36.4258 2.88086C32.093 7.19739 27.7798 11.5269 23.4863 15.8691C22.5896 15.9011 21.7107 15.8685 20.8496 15.7715C21.1192 14.7027 21.4447 13.661 21.8262 12.6465C21.8134 12.7187 21.8297 12.7838 21.875 12.8418C25.6918 8.9761 29.5492 5.16751 33.4473 1.41602Z" fill="#01D7B2"/>
<path opacity="0.981" fill-rule="evenodd" clip-rule="evenodd" d="M15.9668 1.51367C15.9776 1.57396 16.0102 1.62279 16.0645 1.66016C11.263 6.46159 6.46159 11.263 1.66016 16.0645C1.62279 16.0102 1.57396 15.9776 1.51367 15.9668C4.2806 9.09831 9.09831 4.2806 15.9668 1.51367Z" fill="#00EF92"/>
<path opacity="0.999" fill-rule="evenodd" clip-rule="evenodd" d="M36.4746 2.68555C36.657 2.76008 36.8198 2.85773 36.9629 2.97852C32.5731 7.20546 28.2438 11.5023 23.9746 15.8691C23.8118 15.8691 23.6491 15.8691 23.4863 15.8691C27.7798 11.5269 32.093 7.19739 36.4258 2.88086C36.4711 2.82281 36.4874 2.75771 36.4746 2.68555Z" fill="#00D4B5"/>
<path opacity="0.998" fill-rule="evenodd" clip-rule="evenodd" d="M36.9629 2.97852C37.6964 3.32858 38.38 3.75177 39.0137 4.24805C35.0098 8.31706 30.9733 12.3535 26.9043 16.3574C26.932 16.1704 26.8995 16.0077 26.8066 15.8691C25.8626 15.8691 24.9187 15.8691 23.9746 15.8691C28.2438 11.5023 32.5731 7.20546 36.9629 2.97852Z" fill="#00D2B8"/>
<path opacity="0.998" fill-rule="evenodd" clip-rule="evenodd" d="M39.0137 4.24805C39.427 4.43361 39.7851 4.69403 40.0879 5.0293C35.6934 9.39128 31.2988 13.7532 26.9043 18.1152C26.9043 17.5293 26.9043 16.9434 26.9043 16.3574C30.9733 12.3535 35.0098 8.31706 39.0137 4.24805Z" fill="#00CFBC"/>
<path opacity="0.998" fill-rule="evenodd" clip-rule="evenodd" d="M40.0879 5.0293C40.5343 5.24781 40.9249 5.54078 41.2597 5.9082C36.5105 10.7063 31.7417 15.4914 26.9531 20.2637C26.9043 19.5482 26.8881 18.8321 26.9043 18.1152C31.2988 13.7532 35.6933 9.39128 40.0879 5.0293Z" fill="#00CDBF"/>
<path opacity="0.999" fill-rule="evenodd" clip-rule="evenodd" d="M41.2598 5.9082C42.0431 6.4962 42.7267 7.17979 43.3105 7.95898C37.8093 13.4277 32.3079 18.8965 26.8066 24.3652C26.8066 21.5657 26.8066 18.7663 26.8066 15.9668C26.8066 15.9343 26.8066 15.9017 26.8066 15.8691C26.8995 16.0077 26.932 16.1704 26.9043 16.3574C26.9043 16.9434 26.9043 17.5293 26.9043 18.1152C26.8881 18.8321 26.9043 19.5482 26.9531 20.2637C31.7417 15.4914 36.5105 10.7063 41.2598 5.9082Z" fill="#01C9C4"/>
<path opacity="0.999" fill-rule="evenodd" clip-rule="evenodd" d="M43.3106 7.95898C44.1339 8.71694 44.8501 9.5633 45.459 10.498C45.3869 10.4853 45.3217 10.5016 45.2637 10.5469C39.7427 16.0841 34.209 21.6017 28.6622 27.0996C28.478 27.0155 28.2989 26.9179 28.1251 26.8066C28.1601 27.0617 28.209 27.3222 28.2716 27.5879C27.8193 27.9912 27.3799 28.4144 26.9532 28.8574C26.9045 29.312 26.8882 29.7677 26.9044 30.2246C26.807 28.2885 26.7745 26.3354 26.8067 24.3652C32.308 18.8965 37.8093 13.4277 43.3106 7.95898Z" fill="#01C4CB"/>
<path opacity="0.999" fill-rule="evenodd" clip-rule="evenodd" d="M45.459 10.4979C45.5664 10.6058 45.6315 10.736 45.6543 10.8885C40.1204 16.3572 34.6191 21.8585 29.1504 27.3924C28.968 27.3179 28.8052 27.2202 28.6621 27.0994C34.2089 21.6015 39.7427 16.0839 45.2637 10.5467C45.3217 10.5014 45.3868 10.4851 45.459 10.4979Z" fill="#00C2CF"/>
<path opacity="0.999" fill-rule="evenodd" clip-rule="evenodd" d="M45.6543 10.8887C46.1179 11.4569 46.5085 12.0754 46.8262 12.7441C46.8407 12.8469 46.8245 12.9445 46.7773 13.0371C41.6179 18.1966 36.4583 23.3562 31.2988 28.5156C31.3531 28.553 31.3856 28.6019 31.3965 28.6621C30.6312 28.2633 29.8825 27.8401 29.1504 27.3926C34.6191 21.8587 40.1204 16.3574 45.6543 10.8887Z" fill="#00BFD2"/>
<path fill-rule="evenodd" clip-rule="evenodd" d="M21.7285 12.5488C21.7937 12.5488 21.8262 12.5813 21.8262 12.6465C21.4447 13.661 21.1192 14.7027 20.8496 15.7715C20.7966 15.7773 20.7641 15.8099 20.752 15.8691C22.7691 15.9668 24.7874 15.9993 26.8066 15.9668C26.8066 18.7663 26.8066 21.5657 26.8066 24.3652C26.7744 26.3354 26.8069 28.2885 26.9043 30.2246C27.6537 30.2408 28.4024 30.2246 29.1504 30.1758C28.8645 29.3016 28.5715 28.439 28.2715 27.5879C28.2089 27.3222 28.1601 27.0617 28.125 26.8066C28.2988 26.9179 28.4779 27.0155 28.6621 27.0996C28.8052 27.2204 28.968 27.3181 29.1504 27.3926C29.8825 27.8401 30.6312 28.2633 31.3965 28.6621C31.7543 28.939 32.1449 29.1668 32.5684 29.3457C32.9234 29.6214 33.3141 29.8492 33.7402 30.0293C34.4529 30.4511 35.169 30.8742 35.8887 31.2988C35.9966 31.4062 36.1268 31.4714 36.2793 31.4941C36.5877 31.7191 36.9132 31.9307 37.2559 32.1289C35.8177 32.9123 34.418 33.7424 33.0566 34.6191C32.5684 34.8305 32.1126 35.0909 31.6895 35.4004C30.496 36.0067 29.3241 36.6578 28.1738 37.3535C28.1413 37.321 28.1087 37.2884 28.0762 37.2559C28.3313 36.6211 28.5266 35.97 28.6621 35.3027C28.8481 34.9399 28.9783 34.5493 29.0527 34.1309C29.1058 34.125 29.1383 34.0925 29.1504 34.0332C27.1332 33.9355 25.1149 33.903 23.0957 33.9355C23.0957 32.0149 23.0957 30.0944 23.0957 28.1738C23.128 25.3251 23.0955 22.4931 22.998 19.6777C22.2486 19.6615 21.4999 19.6777 20.752 19.7266C21.1555 20.839 21.4973 21.962 21.7773 23.0957C21.4567 22.8622 21.1149 22.6669 20.752 22.5098C20.0393 22.088 19.3231 21.6648 18.6035 21.2402C18.4733 21.1751 18.3431 21.1101 18.2129 21.0449C17.2688 20.4425 16.2923 19.8891 15.2832 19.3848C15.2498 19.3029 15.1848 19.2703 15.0879 19.2871C14.3395 18.7824 13.5582 18.3267 12.7441 17.9199C12.7333 17.8597 12.7008 17.8108 12.6465 17.7734C13.0107 17.5593 13.3688 17.3477 13.7207 17.1387C16.3899 15.6087 19.0593 14.0788 21.7285 12.5488Z" fill="#FEFEFE"/>
<path opacity="0.999" fill-rule="evenodd" clip-rule="evenodd" d="M46.8262 12.7441C47.1361 13.234 47.3966 13.7548 47.6074 14.3066C42.5618 19.2871 37.5488 24.3001 32.5684 29.3457C32.1449 29.1668 31.7543 28.939 31.3965 28.6621C31.3856 28.6019 31.3531 28.553 31.2988 28.5156C36.4583 23.3562 41.6179 18.1966 46.7773 13.0371C46.8245 12.9445 46.8407 12.8469 46.8262 12.7441Z" fill="#00BCD6"/>
<path opacity="0.998" fill-rule="evenodd" clip-rule="evenodd" d="M47.6074 14.3066C47.8389 14.7057 48.0342 15.1288 48.1934 15.5762C43.3431 20.3613 38.5254 25.179 33.7402 30.0293C33.3141 29.8492 32.9234 29.6214 32.5684 29.3457C37.5488 24.3001 42.5618 19.2871 47.6074 14.3066Z" fill="#00BAD9"/>
<path opacity="0.998" fill-rule="evenodd" clip-rule="evenodd" d="M48.1934 15.5762C48.5056 16.3825 48.7985 17.1963 49.0723 18.0176C44.6804 22.442 40.2858 26.8691 35.8887 31.2988C35.169 30.8742 34.4529 30.4511 33.7402 30.0293C38.5254 25.179 43.3431 20.3613 48.1934 15.5762Z" fill="#00B7DD"/>
<path fill-rule="evenodd" clip-rule="evenodd" d="M20.8496 15.7715C21.7107 15.8685 22.5896 15.9011 23.4863 15.8691C23.6491 15.8691 23.8118 15.8691 23.9746 15.8691C24.9187 15.8691 25.8626 15.8691 26.8066 15.8691C26.8066 15.9017 26.8066 15.9343 26.8066 15.9668C24.7874 15.9993 22.7691 15.9668 20.752 15.8691C20.7641 15.8099 20.7966 15.7773 20.8496 15.7715Z" fill="#89EBDD"/>
<path opacity="0.998" fill-rule="evenodd" clip-rule="evenodd" d="M12.7441 17.9199C13.5582 18.3267 14.3395 18.7824 15.0879 19.2871C10.534 23.8898 5.96042 28.4797 1.36719 33.0566C1.32982 33.0023 1.281 32.9698 1.2207 32.959C0.914804 32.0935 0.654387 31.2146 0.439453 30.3223C4.53836 26.1908 8.63992 22.0566 12.7441 17.9199Z" fill="#01DCAB"/>
<path opacity="0.998" fill-rule="evenodd" clip-rule="evenodd" d="M49.0723 18.0176C49.1048 18.2129 49.1374 18.4082 49.1699 18.6035C44.8405 22.8679 40.5437 27.1647 36.2793 31.4941C36.1268 31.4714 35.9966 31.4062 35.8887 31.2988C40.2858 26.8691 44.6804 22.442 49.0723 18.0176Z" fill="#00B5E0"/>
<path opacity="0.998" fill-rule="evenodd" clip-rule="evenodd" d="M49.1699 18.6035C49.5449 19.8769 49.7728 21.1789 49.8535 22.5098C40.7063 31.5918 31.5918 40.7063 22.5098 49.8535C21.1787 49.7728 19.8767 49.5449 18.6035 49.1699C23.4212 44.3196 28.239 39.4694 33.0566 34.6191C34.418 33.7424 35.8177 32.9123 37.2559 32.1289C36.9132 31.9307 36.5877 31.7191 36.2793 31.4941C40.5437 27.1647 44.8405 22.8679 49.1699 18.6035Z" fill="#00B2E3"/>
<path opacity="0.996" fill-rule="evenodd" clip-rule="evenodd" d="M15.0879 19.287C15.1848 19.2702 15.2498 19.3028 15.2832 19.3847C10.6968 24.0199 6.09063 28.6424 1.46484 33.2518C1.4195 33.3098 1.40322 33.375 1.41602 33.4472C1.3147 33.3075 1.2496 33.1447 1.2207 32.9589C1.281 32.9697 1.32982 33.0022 1.36719 33.0565C5.96042 28.4796 10.534 23.8897 15.0879 19.287Z" fill="#00DAAE"/>
<path opacity="0.998" fill-rule="evenodd" clip-rule="evenodd" d="M15.2833 19.3848C16.2924 19.8891 17.2689 20.4425 18.213 21.0449C13.1056 26.2011 7.97872 31.3442 2.8321 36.4746C2.79474 36.4203 2.74591 36.3878 2.68562 36.377C2.14995 35.4551 1.72678 34.4785 1.41609 33.4473C1.40329 33.3751 1.41957 33.31 1.46492 33.252C6.09071 28.6425 10.6968 24.02 15.2833 19.3848Z" fill="#00D7B2"/>
<path opacity="0.997" fill-rule="evenodd" clip-rule="evenodd" d="M18.2129 21.0449C18.3431 21.1101 18.4733 21.1751 18.6035 21.2402C13.3279 26.4182 8.11959 31.6591 2.97852 36.9629C2.8313 36.7987 2.73364 36.6034 2.68555 36.377C2.74584 36.3878 2.79467 36.4203 2.83203 36.4746C7.97865 31.3442 13.1056 26.2011 18.2129 21.0449Z" fill="#00D5B6"/>
<path opacity="0.999" fill-rule="evenodd" clip-rule="evenodd" d="M18.6035 21.2402C19.3231 21.6648 20.0393 22.088 20.752 22.5098C15.2832 28.0437 9.78193 33.5449 4.24805 39.0137C3.75177 38.38 3.32858 37.6964 2.97852 36.9629C8.11959 31.6591 13.3279 26.4182 18.6035 21.2402Z" fill="#01D2B8"/>
<path opacity="0.999" fill-rule="evenodd" clip-rule="evenodd" d="M22.998 22.1191C23.0143 22.836 22.998 23.5521 22.9492 24.2676C17.2817 29.9513 11.6015 35.6153 5.9082 41.2598C5.56797 40.9049 5.275 40.5143 5.0293 40.0879C10.9863 34.0657 16.9759 28.0762 22.998 22.1191Z" fill="#00CDBF"/>
<path opacity="0.999" fill-rule="evenodd" clip-rule="evenodd" d="M49.8535 22.5098C49.8367 22.6066 49.8693 22.6717 49.9512 22.7051C49.9512 22.8679 49.9512 23.0306 49.9512 23.1934C41.1896 32.1016 32.368 40.972 23.4863 49.8047C23.5758 49.8318 23.6408 49.8807 23.6816 49.9512C23.3562 49.9512 23.0306 49.9512 22.7051 49.9512C22.6717 49.8693 22.6066 49.8367 22.5098 49.8535C31.5918 40.7063 40.7063 31.5918 49.8535 22.5098Z" fill="#00AFE8"/>
<path opacity="0.998" fill-rule="evenodd" clip-rule="evenodd" d="M22.998 19.678C22.998 20.4917 22.998 21.3056 22.998 22.1194C16.9759 28.0764 10.9863 34.0659 5.0293 40.0881C4.69403 39.7853 4.43361 39.4272 4.24805 39.0139C9.78193 33.5451 15.2832 28.0439 20.752 22.51C21.1149 22.6671 21.4567 22.8624 21.7773 23.0959C21.4973 21.9622 21.1555 20.8392 20.752 19.7268C21.4999 19.678 22.2486 19.6617 22.998 19.678Z" fill="#02CFBC"/>
<path opacity="0.999" fill-rule="evenodd" clip-rule="evenodd" d="M49.9512 23.1934C49.9512 24.4304 49.9512 25.6673 49.9512 26.9043C49.874 26.796 49.8252 26.6658 49.8047 26.5137C41.9888 34.3133 34.1926 42.1258 26.416 49.9512C25.5046 49.9512 24.5931 49.9512 23.6816 49.9512C23.6408 49.8807 23.5758 49.8318 23.4863 49.8047C32.368 40.972 41.1896 32.1016 49.9512 23.1934Z" fill="#00ACEB"/>
<path opacity="0.999" fill-rule="evenodd" clip-rule="evenodd" d="M22.998 19.6777C23.0955 22.4931 23.128 25.3251 23.0957 28.1738C18.0176 33.1868 12.972 38.2324 7.95898 43.3105C7.17979 42.7267 6.4962 42.0431 5.9082 41.2598C11.6015 35.6153 17.2817 29.9513 22.9492 24.2676C22.998 23.5521 23.0143 22.836 22.998 22.1191C22.998 21.3054 22.998 20.4915 22.998 19.6777Z" fill="#01CAC4"/>
<path opacity="0.997" fill-rule="evenodd" clip-rule="evenodd" d="M49.9512 26.9043C49.9512 27.002 49.9512 27.0996 49.9512 27.1973C49.854 27.7738 49.7563 28.3598 49.6582 28.9551C42.722 35.8588 35.7884 42.7598 28.8574 49.6582C28.3051 49.763 27.7517 49.8606 27.1973 49.9512C26.9368 49.9512 26.6765 49.9512 26.416 49.9512C34.1926 42.1258 41.9888 34.3133 49.8047 26.5137C49.8252 26.6658 49.874 26.796 49.9512 26.9043Z" fill="#00A9EF"/>
<path fill-rule="evenodd" clip-rule="evenodd" d="M28.2714 27.5879C28.5714 28.439 28.8644 29.3016 29.1503 30.1758C28.4024 30.2246 27.6537 30.2408 26.9043 30.2246C26.888 29.7677 26.9044 29.312 26.9531 28.8574C27.3797 28.4144 27.8192 27.9912 28.2714 27.5879Z" fill="#0FC1D1"/>
<path opacity="0.999" fill-rule="evenodd" clip-rule="evenodd" d="M23.0957 28.1738C23.0957 30.0944 23.0957 32.0149 23.0957 33.9355C23.0957 33.9681 23.0957 34.0007 23.0957 34.0332C23.0028 33.8946 22.9703 33.7319 22.998 33.5449C23.014 33.3147 22.9978 33.0869 22.9492 32.8613C18.8313 36.9792 14.7136 41.097 10.5957 45.2148C10.5031 45.262 10.4055 45.2782 10.3027 45.2637C9.43349 44.7201 8.65224 44.069 7.95898 43.3105C12.972 38.2324 18.0176 33.1868 23.0957 28.1738Z" fill="#01C5CA"/>
<path opacity="0.997" fill-rule="evenodd" clip-rule="evenodd" d="M49.6582 28.9551C49.578 29.6489 49.4479 30.3325 49.2676 31.0059C43.1478 37.0605 37.0605 43.1478 31.0059 49.2676C30.3018 49.4604 29.5856 49.5906 28.8574 49.6582C35.7884 42.7598 42.722 35.8588 49.6582 28.9551Z" fill="#00A7F2"/>
<path opacity="0.993" fill-rule="evenodd" clip-rule="evenodd" d="M49.2676 31.0059C48.7163 33.3777 47.8049 35.5912 46.5332 37.6465C46.546 37.5743 46.5297 37.5092 46.4844 37.4512C43.3556 40.5307 40.3119 43.623 37.3535 46.7285C35.3674 47.8793 33.2515 48.7257 31.0059 49.2676C37.0605 43.1478 43.1478 37.0605 49.2676 31.0059Z" fill="#00A4F6"/>
<path opacity="0.998" fill-rule="evenodd" clip-rule="evenodd" d="M22.998 33.5449C18.9813 37.5129 14.9773 41.5005 10.9863 45.5078C10.8938 45.555 10.7961 45.5712 10.6934 45.5566C10.5244 45.5053 10.3941 45.4076 10.3027 45.2637C10.4055 45.2782 10.5031 45.262 10.5957 45.2148C14.7136 41.097 18.8313 36.9792 22.9492 32.8613C22.9978 33.0869 23.014 33.3147 22.998 33.5449Z" fill="#00C2CF"/>
<path opacity="0.998" fill-rule="evenodd" clip-rule="evenodd" d="M22.998 33.5449C22.9703 33.7319 23.0028 33.8946 23.0957 34.0332C23.9746 34.0332 24.8535 34.0332 25.7324 34.0332C21.4681 38.3301 17.2038 42.627 12.9395 46.9238C12.1411 46.5413 11.3925 46.0856 10.6934 45.5566C10.7961 45.5712 10.8937 45.555 10.9863 45.5078C14.9773 41.5005 18.9812 37.5129 22.998 33.5449Z" fill="#00BFD2"/>
<path fill-rule="evenodd" clip-rule="evenodd" d="M23.0957 34.0332C23.0957 34.0007 23.0957 33.9681 23.0957 33.9355C25.1149 33.903 27.1332 33.9355 29.1504 34.0332C29.1383 34.0925 29.1058 34.125 29.0527 34.1308C28.649 34.0347 28.2258 34.0021 27.7832 34.0332C27.0996 34.0332 26.416 34.0332 25.7324 34.0332C24.8535 34.0332 23.9746 34.0332 23.0957 34.0332Z" fill="#89E0EB"/>
<path opacity="0.999" fill-rule="evenodd" clip-rule="evenodd" d="M25.7324 34.0332C26.416 34.0332 27.0996 34.0332 27.7832 34.0332C23.291 38.5579 18.7988 43.0827 14.3066 47.6074C13.8199 47.4291 13.3642 47.2013 12.9395 46.9238C17.2038 42.627 21.4681 38.3301 25.7324 34.0332Z" fill="#00BCD6"/>
<path opacity="0.999" fill-rule="evenodd" clip-rule="evenodd" d="M27.7832 34.0333C28.2258 34.0023 28.649 34.0348 29.0527 34.131C28.9783 34.5495 28.8481 34.9401 28.6621 35.3029C28.6749 35.2307 28.6586 35.1656 28.6133 35.1076C24.2479 39.4567 19.9022 43.8186 15.5762 48.1935C15.1288 48.0343 14.7057 47.839 14.3066 47.6076C18.7988 43.0829 23.291 38.5581 27.7832 34.0333Z" fill="#00BAD9"/>
<path opacity="0.997" fill-rule="evenodd" clip-rule="evenodd" d="M33.0566 34.6191C28.239 39.4694 23.4212 44.3196 18.6035 49.1699C18.3528 49.1483 18.1249 49.0832 17.9199 48.9746C18.0227 48.9892 18.1203 48.9729 18.2129 48.9258C22.7247 44.4302 27.2169 39.9218 31.6895 35.4004C32.1126 35.0909 32.5684 34.8305 33.0566 34.6191Z" fill="#02B5E0"/>
<path opacity="0.998" fill-rule="evenodd" clip-rule="evenodd" d="M28.6621 35.3027C28.5266 35.97 28.3313 36.6211 28.0762 37.2559C28.1087 37.2884 28.1413 37.321 28.1738 37.3535C29.3241 36.6578 30.496 36.0067 31.6895 35.4004C27.2169 39.9218 22.7247 44.4302 18.2129 48.9258C18.1203 48.9729 18.0227 48.9892 17.9199 48.9746C17.1177 48.7723 16.3364 48.5119 15.5762 48.1934C19.9022 43.8185 24.2479 39.4565 28.6133 35.1074C28.6586 35.1654 28.6749 35.2306 28.6621 35.3027Z" fill="#02B7DD"/>
<path opacity="0.941" fill-rule="evenodd" clip-rule="evenodd" d="M46.5332 37.6465C44.3168 41.5229 41.2569 44.5503 37.3535 46.7285C40.3119 43.623 43.3556 40.5307 46.4844 37.4512C46.5297 37.5092 46.546 37.5743 46.5332 37.6465Z" fill="#01A2FA"/>
</g>
<defs>
<clipPath id="clip0_503_44">
<rect width="50" height="50" fill="white"/>
</clipPath>
</defs>
</svg>
