<svg width="50" height="50" viewBox="0 0 50 50" fill="none" xmlns="http://www.w3.org/2000/svg">
<g clip-path="url(#clip0_732_495)">
<path opacity="0.999" fill-rule="evenodd" clip-rule="evenodd" d="M34.3262 17.1387C34.3262 21.3054 34.3262 25.472 34.3262 29.6387C29.7688 29.6387 25.2116 29.6387 20.6543 29.6387C20.2962 29.6387 19.9382 29.6387 19.5801 29.6387C16.1621 29.6387 12.7441 29.6387 9.32617 29.6387C8.57194 29.668 7.82325 29.6355 7.08008 29.541C6.26794 29.087 5.99125 28.4034 6.25 27.4903C6.42903 27.0508 6.73828 26.7415 7.17773 26.5625C7.89314 26.5137 8.60929 26.4975 9.32617 26.5137C9.32617 25.472 9.32617 24.4304 9.32617 23.3887C7.56806 23.405 5.81024 23.3887 4.05273 23.3399C3.37041 23.0657 3.04489 22.5613 3.07617 21.8262C3.04489 21.0911 3.37041 20.5866 4.05273 20.3125C5.81024 20.2637 7.56806 20.2474 9.32617 20.2637C9.32617 19.222 9.32617 18.1804 9.32617 17.1387C6.5265 17.155 3.72702 17.1387 0.927734 17.0899C0.486332 16.8924 0.160811 16.5831 -0.0488281 16.1621C-0.0488281 15.7715 -0.0488281 15.3809 -0.0488281 14.9903C0.160811 14.5693 0.486332 14.26 0.927734 14.0625C3.72702 14.0137 6.5265 13.9974 9.32617 14.0137C9.30993 13.2968 9.3262 12.5807 9.375 11.8653C9.55403 11.4258 9.86328 11.1165 10.3027 10.9375C17.9851 10.8724 25.6673 10.8724 33.3496 10.9375C33.7891 11.1165 34.0983 11.4258 34.2773 11.8653C34.3262 13.6228 34.3425 15.3806 34.3262 17.1387Z" fill="#F07FB6"/>
<path opacity="0.997" fill-rule="evenodd" clip-rule="evenodd" d="M34.3262 17.1389C37.6467 17.1226 40.967 17.1389 44.2871 17.1878C44.5861 17.2914 44.8303 17.4704 45.0195 17.7249C46.6414 20.4816 48.2853 23.216 49.9512 25.928C49.9512 28.9228 49.9512 31.9175 49.9512 34.9124C49.7415 35.3334 49.416 35.6426 48.9746 35.8401C48.1614 35.8889 47.3477 35.9051 46.5332 35.8889C47.2125 33.5156 46.5289 31.6439 44.4824 30.2737C41.9737 29.1021 39.8741 29.6066 38.1836 31.7874C37.401 33.0885 37.2545 34.4557 37.7441 35.8889C33.3821 35.8889 29.0202 35.8889 24.6582 35.8889C25.3771 32.4761 24.0426 30.3928 20.6543 29.6389C25.2116 29.6389 29.7688 29.6389 34.3262 29.6389C34.3262 25.4722 34.3262 21.3056 34.3262 17.1389Z" fill="#EA4B98"/>
<path fill-rule="evenodd" clip-rule="evenodd" d="M37.4512 20.2639C39.2418 20.2476 41.0322 20.2639 42.8223 20.3128C44.0593 22.3635 45.2962 24.4143 46.5332 26.4651C43.5061 26.5139 40.4787 26.5302 37.4512 26.5139C37.4512 24.4306 37.4512 22.3472 37.4512 20.2639Z" fill="#FAF9F9"/>
<path fill-rule="evenodd" clip-rule="evenodd" d="M9.32617 29.6387C12.7441 29.6387 16.1621 29.6387 19.5801 29.6387C16.389 30.5512 15.1519 32.6345 15.8691 35.8887C14.0134 35.905 12.1579 35.8887 10.3027 35.8398C9.86328 35.6608 9.55403 35.3516 9.375 34.9121C9.32618 33.1546 9.3099 31.3968 9.32617 29.6387Z" fill="#EA4B98"/>
<path opacity="0.99" fill-rule="evenodd" clip-rule="evenodd" d="M19.58 29.6387C19.9381 29.6387 20.2961 29.6387 20.6542 29.6387C24.0425 30.3926 25.377 32.4759 24.6581 35.8887C23.9046 37.9093 22.4397 38.951 20.2636 39.0137C18.0874 38.951 16.6226 37.9093 15.869 35.8887C15.1518 32.6345 16.3889 30.5512 19.58 29.6387Z" fill="#F07FB6"/>
<path opacity="0.99" fill-rule="evenodd" clip-rule="evenodd" d="M46.5332 35.8886C45.7796 37.9092 44.3148 38.9509 42.1386 39.0136C39.9625 38.9509 38.4976 37.9092 37.7441 35.8886C37.2544 34.4554 37.4009 33.0882 38.1836 31.787C39.8741 29.6063 41.9737 29.1018 44.4824 30.2734C46.5289 31.6436 47.2125 33.5153 46.5332 35.8886Z" fill="#F07FB6"/>
<path fill-rule="evenodd" clip-rule="evenodd" d="M19.8731 32.7637C21.5378 32.8164 22.1074 33.6302 21.5821 35.2051C20.7032 36.1165 19.8243 36.1165 18.9454 35.2051C18.459 34.075 18.7683 33.2612 19.8731 32.7637Z" fill="#F6F6F7"/>
<path fill-rule="evenodd" clip-rule="evenodd" d="M41.7482 32.7637C43.276 32.7772 43.8782 33.5259 43.5548 35.0098C42.9819 35.8949 42.2169 36.1065 41.2599 35.6445C40.5459 35.0283 40.3994 34.2959 40.8204 33.4473C41.0674 33.1167 41.3767 32.8889 41.7482 32.7637Z" fill="#F6F7F7"/>
</g>
<defs>
<clipPath id="clip0_732_495">
<rect width="50" height="50" fill="white"/>
</clipPath>
</defs>
</svg>
