<svg width="50" height="50" viewBox="0 0 50 50" fill="none" xmlns="http://www.w3.org/2000/svg">
<path opacity="0.994" fill-rule="evenodd" clip-rule="evenodd" d="M19.0918 2.97862C19.1764 3.31146 19.2903 3.63698 19.4336 3.95518C19.4824 7.01491 19.4987 10.0748 19.4824 13.1349C19.4824 14.7299 19.4824 16.325 19.4824 17.92C19.4824 19.4825 19.4824 21.045 19.4824 22.6075C18.9616 22.6075 18.4407 22.6075 17.9199 22.6075C17.9199 21.045 17.9199 19.4825 17.9199 17.92C17.9199 15.8367 17.9199 13.7533 17.9199 11.67C17.9362 9.16331 17.9199 6.6568 17.8711 4.1505C17.8012 3.84375 17.6222 3.64844 17.334 3.56456C17.212 3.40478 17.0492 3.29085 16.8457 3.22276C15.7404 3.00933 15.0893 3.44878 14.8926 4.54112C14.7624 5.90831 14.7624 7.2755 14.8926 8.64268C14.7951 11.7185 14.7625 14.8108 14.7949 17.92C14.7949 19.4825 14.7949 21.045 14.7949 22.6075C14.2741 22.6075 13.7532 22.6075 13.2324 22.6075C13.2324 21.045 13.2324 19.4825 13.2324 17.92C13.2324 14.2742 13.2324 10.6283 13.2324 6.98253C13.2324 6.49425 13.2324 6.00597 13.2324 5.51768C13.0195 2.68698 14.3217 1.36862 17.1386 1.56261C17.9719 1.79517 18.623 2.26718 19.0918 2.97862ZM17.334 3.56456C16.5092 3.86305 15.6954 4.18856 14.8926 4.54112C15.0893 3.44878 15.7404 3.00933 16.8457 3.22276C17.0492 3.29085 17.212 3.40478 17.334 3.56456Z" fill="#6D6D6D"/>
<path fill-rule="evenodd" clip-rule="evenodd" d="M31.1035 3.07641C30.272 3.35565 29.5721 3.84393 29.0039 4.54126C28.9952 4.69882 29.0767 4.81275 29.248 4.88305C33.4636 7.43016 37.6628 10.0018 41.8457 12.5979C42.0907 12.7284 42.3512 12.8098 42.627 12.842C43.0951 12.7732 43.5184 12.6104 43.8965 12.3538C45.1622 14.332 46.1388 16.4479 46.8262 18.7014C42.7469 18.6499 39.2313 17.2339 36.2793 14.4534C35.6608 13.8349 35.0423 13.2164 34.4238 12.5979C33.9155 12.3345 33.3946 12.3019 32.8613 12.5002C31.5891 13.6864 30.4172 13.5887 29.3457 12.2073C27.456 10.9809 25.568 10.9809 23.6816 12.2073C22.5133 13.5791 21.1135 13.8882 19.4824 13.135C19.4987 10.0749 19.4824 7.01505 19.4336 3.95532C19.2903 3.63712 19.1765 3.3116 19.0918 2.97876C23.1051 2.03942 27.109 2.07197 31.1035 3.07641Z" fill="#EA4B98"/>
<path opacity="0.985" fill-rule="evenodd" clip-rule="evenodd" d="M43.8964 12.3535C43.5183 12.6102 43.095 12.773 42.6268 12.8418C42.3511 12.8096 42.0906 12.7281 41.8456 12.5977C37.6627 10.0016 33.4635 7.42992 29.2479 4.88282C29.0766 4.81251 28.9951 4.69858 29.0038 4.54102C29.572 3.84369 30.2719 3.35541 31.1034 3.07617C31.6644 3.04796 32.2179 3.09679 32.7636 3.22266C33.5705 3.65042 34.3681 4.08988 35.1561 4.54102C36.6433 3.82187 38.1244 3.08945 39.5995 2.34375C39.6972 2.27865 39.7948 2.27865 39.8925 2.34375C40.1041 2.55534 40.3156 2.76693 40.5272 2.97852C40.5924 3.07617 40.5924 3.17383 40.5272 3.27149C39.783 4.22299 39.0506 5.18327 38.33 6.15235C39.8263 7.22616 41.3562 8.25155 42.9198 9.22852C43.6947 8.75182 44.4597 8.26354 45.2147 7.76367C45.7978 8.23275 46.335 8.75358 46.8261 9.32617C45.8475 10.3373 44.8709 11.3464 43.8964 12.3535Z" fill="#DEDEDE"/>
<path fill-rule="evenodd" clip-rule="evenodd" d="M17.334 3.56445C17.6222 3.64833 17.8012 3.84364 17.8711 4.15039C17.9199 6.65669 17.9362 9.1632 17.9199 11.6699C16.8782 10.6934 15.8691 9.68425 14.8926 8.64258C14.7624 7.27539 14.7624 5.9082 14.8926 4.54102C15.6954 4.18846 16.5092 3.86294 17.334 3.56445Z" fill="#EA4B98"/>
<path fill-rule="evenodd" clip-rule="evenodd" d="M13.2324 5.51758C13.2324 6.00586 13.2324 6.49414 13.2324 6.98242C12.9069 6.722 12.614 6.42903 12.3535 6.10352C12.5924 5.83685 12.8854 5.64153 13.2324 5.51758Z" fill="#EA4B98"/>
<path opacity="0.992" fill-rule="evenodd" clip-rule="evenodd" d="M12.3534 6.10352C12.6139 6.42903 12.9068 6.722 13.2323 6.98242C13.2323 10.6282 13.2323 14.2741 13.2323 17.9199C11.9624 17.9036 10.6929 17.9199 9.42372 17.9688C8.17047 18.3105 7.37294 19.1081 7.03114 20.3613C6.98231 26.5136 6.96603 32.6659 6.98231 38.8184C2.57032 32.8554 1.25196 26.2473 3.02724 18.9941C4.58644 13.5495 7.69517 9.25263 12.3534 6.10352Z" fill="#F07FB6"/>
<path fill-rule="evenodd" clip-rule="evenodd" d="M14.8925 8.64258C15.8691 9.68425 16.8781 10.6934 17.9198 11.6699C17.9198 13.7532 17.9198 15.8366 17.9198 17.9199C16.8781 17.9199 15.8365 17.9199 14.7948 17.9199C14.7624 14.8107 14.795 11.7184 14.8925 8.64258Z" fill="#F07FB6"/>
<path opacity="0.999" fill-rule="evenodd" clip-rule="evenodd" d="M46.8262 18.701C47.4881 21.197 47.7484 23.7361 47.6074 26.3182C42.8876 24.17 38.2001 21.9402 33.5449 19.6288C32.4282 19.2756 31.6796 19.65 31.2988 20.7518C29.4434 24.5279 27.5879 28.3039 25.7324 32.0799C25.7487 28.1736 25.7324 24.2673 25.6836 20.3612C25.3906 19.2219 24.6907 18.457 23.584 18.0663C22.2218 17.9287 20.8546 17.8798 19.4824 17.9198C19.4824 16.3248 19.4824 14.7296 19.4824 13.1346C21.1135 13.8878 22.5133 13.5787 23.6816 12.2069C25.568 10.9805 27.456 10.9805 29.3457 12.2069C30.4172 13.5883 31.5891 13.686 32.8613 12.4999C33.3946 12.3015 33.9155 12.3341 34.4238 12.5975C35.0423 13.216 35.6608 13.8345 36.2793 14.453C39.2313 17.2335 42.7469 18.6496 46.8262 18.701Z" fill="#F07FB6"/>
<path fill-rule="evenodd" clip-rule="evenodd" d="M13.2324 17.9197C13.2324 19.4822 13.2324 21.0447 13.2324 22.6072C13.7532 22.6072 14.2741 22.6072 14.7949 22.6072C14.7949 21.0447 14.7949 19.4822 14.7949 17.9197C15.8366 17.9197 16.8782 17.9197 17.9199 17.9197C17.9199 19.4822 17.9199 21.0447 17.9199 22.6072C18.4407 22.6072 18.9616 22.6072 19.4824 22.6072C19.4824 21.0447 19.4824 19.4822 19.4824 17.9197C20.8546 17.8798 22.2218 17.9286 23.584 18.0662C24.6907 18.4569 25.3906 19.2219 25.6836 20.3611C25.7324 24.2673 25.7487 28.1735 25.7324 32.0799C24.7426 34.2386 23.766 36.4032 22.8027 38.574C22.8489 39.1222 23.0768 39.5778 23.4863 39.9412C24.244 40.32 24.9927 40.6944 25.7324 41.0643C25.6385 43.3716 24.4341 44.5109 22.1191 44.4822C21.8587 44.4822 21.5983 44.4822 21.3379 44.4822C18.7012 44.4822 16.0645 44.4822 13.4277 44.4822C12.7767 44.4822 12.1257 44.4822 11.4746 44.4822C11.084 44.4822 10.6934 44.4822 10.3027 44.4822C8.62474 44.5123 7.53425 43.7311 7.03125 42.1385C6.98243 41.0322 6.96616 39.9254 6.98242 38.8182C6.96614 32.6657 6.98242 26.5134 7.03125 20.3611C7.37305 19.1079 8.17058 18.3104 9.42383 17.9686C10.693 17.9197 11.9625 17.9034 13.2324 17.9197Z" fill="#EA4B98"/>
<path fill-rule="evenodd" clip-rule="evenodd" d="M47.6074 26.318C47.6074 26.4157 47.6074 26.5133 47.6074 26.611C47.0829 27.3996 46.6597 28.2458 46.3378 29.15C46.2038 29.1654 46.0735 29.1491 45.9472 29.1012C41.3042 26.8286 36.6493 24.5825 31.9824 22.3629C31.468 21.9517 31.2402 21.4146 31.2988 20.7516C31.6795 19.6498 32.4282 19.2754 33.5449 19.6286C38.2001 21.94 42.8876 24.1698 47.6074 26.318Z" fill="#BEBEBD"/>
<path opacity="0.999" fill-rule="evenodd" clip-rule="evenodd" d="M31.2988 20.752C31.2402 21.4149 31.4681 21.9521 31.9824 22.3633C36.6493 24.5828 41.3042 26.8289 45.9473 29.1016C46.0735 29.1494 46.2038 29.1657 46.3379 29.1504C44.3258 33.2722 42.3401 37.4062 40.3809 41.5527C39.5483 43.2992 38.702 45.0407 37.8418 46.7773C37.7441 46.8425 37.6465 46.8425 37.5488 46.7773C36.6065 46.3279 35.6626 45.8885 34.7168 45.459C34.2663 45.1355 33.778 44.8588 33.252 44.6289C30.7434 43.4396 28.2368 42.2515 25.7324 41.0645C24.9927 40.6946 24.244 40.3202 23.4863 39.9414C23.0768 39.578 22.8489 39.1224 22.8027 38.5742C23.766 36.4034 24.7426 34.2388 25.7324 32.0801C27.5879 28.304 29.4434 24.528 31.2988 20.752Z" fill="#ECECEC"/>
<path fill-rule="evenodd" clip-rule="evenodd" d="M10.8887 24.1699C11.4095 24.1699 11.9304 24.1699 12.4512 24.1699C12.4512 30.1595 12.4512 36.1491 12.4512 42.1387C11.9304 42.1387 11.4095 42.1387 10.8887 42.1387C10.8887 36.1491 10.8887 30.1595 10.8887 24.1699Z" fill="#F07FB6"/>
<path fill-rule="evenodd" clip-rule="evenodd" d="M15.5762 24.1699C16.097 24.1699 16.6179 24.1699 17.1387 24.1699C17.1387 30.1595 17.1387 36.1491 17.1387 42.1387C16.6179 42.1387 16.097 42.1387 15.5762 42.1387C15.5762 36.1491 15.5762 30.1595 15.5762 24.1699Z" fill="#F07FB6"/>
<path fill-rule="evenodd" clip-rule="evenodd" d="M20.2637 24.1699C20.7845 24.1699 21.3054 24.1699 21.8262 24.1699C21.8262 30.1595 21.8262 36.1491 21.8262 42.1387C21.3054 42.1387 20.7845 42.1387 20.2637 42.1387C20.2637 36.1491 20.2637 30.1595 20.2637 24.1699Z" fill="#F07FB6"/>
<path opacity="0.966" fill-rule="evenodd" clip-rule="evenodd" d="M47.6074 26.6113C47.0988 32.5432 44.6899 37.5236 40.3809 41.5527C42.3401 37.4062 44.3258 33.2722 46.3379 29.1504C46.6598 28.2462 47.0829 27.3999 47.6074 26.6113Z" fill="#F07FB6"/>
<path fill-rule="evenodd" clip-rule="evenodd" d="M36.1817 27.9786C35.1394 28.8256 34.1954 29.7695 33.3496 30.8106C32.7194 30.5443 32.1008 30.2514 31.4942 29.9317C31.4162 29.8871 31.3837 29.822 31.3965 29.7364C32.6291 28.186 34.2242 27.6001 36.1817 27.9786Z" fill="#BEBEBE"/>
<path fill-rule="evenodd" clip-rule="evenodd" d="M36.1816 27.9785C36.8947 28.0911 37.5133 28.3841 38.0371 28.8574C37.9657 29.8524 37.8843 30.8615 37.793 31.8848C37.6372 32.2254 37.5884 32.5672 37.6465 32.9102C38.3119 33.1941 38.963 33.5033 39.5996 33.8379C39.5006 34.3938 39.2727 34.882 38.916 35.3027C38.2538 34.9227 37.5702 34.5646 36.8652 34.2285C36.0981 35.3374 35.1542 36.2651 34.0332 37.0117C34.0875 37.0491 34.12 37.0979 34.1309 37.1582C33.3942 36.9853 32.7432 36.6597 32.1777 36.1816C32.2587 35.4177 32.3075 34.6364 32.3242 33.8379C32.392 33.3388 32.506 32.8505 32.666 32.373C32.0579 31.8897 31.3743 31.5317 30.6152 31.2988C30.7226 30.6935 30.983 30.1727 31.3965 29.7363C31.3837 29.8219 31.4162 29.887 31.4941 29.9316C32.1008 30.2513 32.7193 30.5442 33.3496 30.8105C34.1954 29.7694 35.1394 28.8255 36.1816 27.9785Z" fill="#DEDEDE"/>
<path fill-rule="evenodd" clip-rule="evenodd" d="M38.0371 28.8574C39.5759 30.1865 40.0967 31.8467 39.5996 33.8379C38.963 33.5033 38.3119 33.1941 37.6465 32.9102C37.5884 32.5672 37.6372 32.2254 37.793 31.8848C37.8843 30.8615 37.9657 29.8524 38.0371 28.8574Z" fill="#BEBEBE"/>
<path fill-rule="evenodd" clip-rule="evenodd" d="M36.2793 29.9316C36.3914 30.3692 36.4077 30.825 36.3281 31.2988C36.2937 31.5956 36.1797 31.856 35.9863 32.0801C35.5843 31.9128 35.2263 31.7013 34.9121 31.4453C35.284 30.862 35.7397 30.3574 36.2793 29.9316Z" fill="#BFBFBF"/>
<path fill-rule="evenodd" clip-rule="evenodd" d="M30.6152 31.2988C31.3743 31.5317 32.0579 31.8897 32.666 32.373C32.5059 32.8505 32.392 33.3388 32.3242 33.8379C32.3075 34.6364 32.2587 35.4177 32.1777 36.1816C30.697 34.8644 30.1762 33.2367 30.6152 31.2988Z" fill="#BEBEBE"/>
<path fill-rule="evenodd" clip-rule="evenodd" d="M34.1307 32.959C34.579 33.118 35.0021 33.3296 35.4003 33.5938C35.0282 34.21 34.5399 34.7146 33.9354 35.1074C33.809 34.3754 33.874 33.6593 34.1307 32.959Z" fill="#BFBFBF"/>
<path fill-rule="evenodd" clip-rule="evenodd" d="M38.916 35.3027C37.6817 36.8214 36.0867 37.4399 34.1309 37.1582C34.12 37.0979 34.0875 37.0491 34.0332 37.0117C35.1542 36.2651 36.0981 35.3374 36.8652 34.2285C37.5702 34.5646 38.2538 34.9227 38.916 35.3027Z" fill="#BFBFBF"/>
<path fill-rule="evenodd" clip-rule="evenodd" d="M28.1738 37.9395C30.5055 38.9749 32.8166 40.0654 35.1074 41.2109C35.1521 41.2514 35.1847 41.3002 35.2051 41.3574C35.0098 41.748 34.8145 42.1387 34.6191 42.5293C34.5347 42.6351 34.437 42.6513 34.3262 42.5781C32.0476 41.4714 29.7688 40.3646 27.4902 39.2578C27.7318 38.8234 27.9597 38.384 28.1738 37.9395Z" fill="#BEBEBE"/>
<path opacity="0.991" fill-rule="evenodd" clip-rule="evenodd" d="M25.7324 41.0645C28.2368 42.2515 30.7434 43.4396 33.252 44.6289C33.778 44.8588 34.2663 45.1355 34.7168 45.459C30.8422 47.2712 26.7731 47.9548 22.5098 47.5098C23.2265 47.0574 23.5032 46.4064 23.3398 45.5566C23.0921 44.9985 22.6852 44.6404 22.1191 44.4824C24.4341 44.5111 25.6385 43.3718 25.7324 41.0645Z" fill="#F07FB6"/>
<path opacity="0.957" fill-rule="evenodd" clip-rule="evenodd" d="M10.3028 44.4824C10.6934 44.4824 11.0841 44.4824 11.4747 44.4824C12.3387 44.9422 12.6479 45.6584 12.4024 46.6309C12.1283 47.3132 11.6238 47.6387 10.8888 47.6074C9.59723 47.47 9.09268 46.7538 9.37508 45.459C9.57257 45.0176 9.88182 44.6921 10.3028 44.4824Z" fill="#6D6D6D"/>
<path opacity="0.975" fill-rule="evenodd" clip-rule="evenodd" d="M13.4277 44.4824C16.0645 44.4824 18.7012 44.4824 21.3379 44.4824C20.1441 45.1765 19.9488 46.0879 20.752 47.2168C18.1289 46.7669 15.6875 45.8554 13.4277 44.4824Z" fill="#F07FB6"/>
<path opacity="0.994" fill-rule="evenodd" clip-rule="evenodd" d="M21.3378 44.4824C21.5982 44.4824 21.8586 44.4824 22.119 44.4824C22.6851 44.6404 23.092 44.9985 23.3397 45.5566C23.5031 46.4064 23.2264 47.0574 22.5097 47.5098C22.0949 47.6174 21.6718 47.6336 21.2401 47.5586C21.0366 47.4905 20.8738 47.3766 20.7518 47.2168C19.9487 46.0879 20.144 45.1765 21.3378 44.4824Z" fill="#706E6E"/>
</svg>
