<svg width="93" height="76" viewBox="0 0 93 76" fill="none" xmlns="http://www.w3.org/2000/svg">
<path opacity="0.987" fill-rule="evenodd" clip-rule="evenodd" d="M56.849 4.28592C57.2458 4.22688 57.5479 4.37726 57.7549 4.73706C50.7519 17.0981 53.1681 27.2486 65.0026 35.1887C68.8995 37.6108 73.1276 38.889 77.686 39.0234C85.1148 43.1492 88.0591 49.4649 86.519 57.971C84.6278 64.0654 80.6262 68.0503 74.5151 69.9261C66.3828 70.5717 58.2292 70.7973 50.0543 70.6028C49.9035 64.1295 50.0548 57.6634 50.5073 51.204C52.4469 52.0251 54.4097 52.7767 56.396 53.4597C58.8443 52.4961 59.5238 50.8418 58.4344 48.4972C54.7349 45.1137 51.0359 41.7302 47.3364 38.3466C45.8493 38.0115 44.4904 38.3123 43.2596 39.2489C40.1643 42.3317 37.0689 45.4146 33.9736 48.4972C32.718 50.8093 33.3219 52.4636 35.7855 53.4597C37.7969 52.6463 39.8353 51.8947 41.9007 51.204C42.4997 57.6237 42.4997 64.0145 41.9007 70.3773C34.653 70.6782 27.4054 70.6782 20.1578 70.3773C9.79412 68.173 4.88688 61.7818 5.43598 51.204C6.60665 45.4164 9.85301 41.206 15.175 38.5722C15.6374 26.3045 21.9791 20.6653 34.2001 21.6546C34.9254 21.778 35.6048 22.0035 36.2385 22.3313C38.9464 11.5886 45.8167 5.57346 56.849 4.28592Z" fill="#EA4B98"/>
<path opacity="0.999" fill-rule="evenodd" clip-rule="evenodd" d="M56.8487 4.28436C66.4423 3.43911 73.9164 7.04819 79.2711 15.1116C81.1614 19.2843 81.7656 23.6453 81.083 28.1945C80.3564 31.9431 79.224 35.5521 77.6857 39.0218C73.1273 38.8874 68.8993 37.6092 65.0023 35.1871C53.1678 27.2471 50.7516 17.0965 57.7546 4.73549C57.5476 4.37569 57.2455 4.22531 56.8487 4.28436Z" fill="#EA4B98"/>
</svg>
