<svg width="27" height="35" viewBox="0 0 27 35" fill="none" xmlns="http://www.w3.org/2000/svg">
<rect width="27" height="35" fill="#C1C0C0"/>
<g id="Desktop - AI_2c" clip-path="url(#clip0_0_1)">
<rect width="1440" height="775" transform="translate(-130 -112)" fill="#F4F4FB"/>
<path id="Rectangle 40601" d="M-29.1768 23.0068C-29.1768 14.9987 -22.6849 8.50684 -14.6768 8.50684H1195.32C1203.33 8.50684 1209.82 14.9987 1209.82 23.0068V507.007C1209.82 517.776 1201.09 526.507 1190.32 526.507H-9.67678C-20.4463 526.507 -29.1768 517.776 -29.1768 507.007V23.0068Z" fill="white" stroke="#C7CED8"/>
<path id="Rectangle 40607" d="M-30 3C-30 -5.28427 -23.2843 -12 -15 -12H1195C1203.28 -12 1210 -5.28427 1210 3V49H-30V3Z" fill="#EA4B98"/>
<g id="Group">
<path id="Vector" fill-rule="evenodd" clip-rule="evenodd" d="M13.6523 12.7568C13.6523 13.3103 13.6523 13.8636 13.6523 14.417C13.5263 14.4401 13.4286 14.4076 13.3594 14.3193C13.5199 13.8223 13.6176 13.3015 13.6523 12.7568Z" fill="#AA8A6C"/>
</g>
<g id="Group 1171276222">
<g id="Group 1171276195">
<g id="Group_2">
<path id="Vector_2" fill-rule="evenodd" clip-rule="evenodd" d="M9.20508 20.541C10.1809 21.6314 11.3155 22.5229 12.6089 23.2155C13.5441 23.5884 14.4472 23.519 15.3181 23.0071C16.1988 22.4852 17.0093 21.8715 17.7494 21.1662C17.7494 21.7219 17.7494 22.2777 17.7494 22.8334C16.1445 24.3005 14.3153 24.6595 12.2616 23.9101C11.5007 23.5197 10.8175 23.0219 10.2123 22.4166C9.85945 21.9836 9.52365 21.5436 9.20508 21.0967C9.20508 20.9115 9.20508 20.7263 9.20508 20.541Z" fill="#E8AC6C"/>
</g>
<g id="Group 1171276176">
<g id="Group_3">
<path id="Vector_3" opacity="0.995" fill-rule="evenodd" clip-rule="evenodd" d="M22.0559 11.5781C21.4811 11.6078 21.1222 11.9088 20.9791 12.4812C20.9284 11.4214 20.6506 10.4256 20.1455 9.4941C20.0332 9.3369 19.9059 9.19797 19.7635 9.07731C19.7387 9.46472 19.6693 9.83518 19.5551 10.1888C18.7154 10.0596 17.9629 9.73543 17.2974 9.21624C17.3743 9.62491 17.5479 9.99544 17.8184 10.3277C15.3838 10.7494 13.1609 10.2515 11.1497 8.83418C10.4769 8.264 9.90962 7.60407 9.44774 6.85439C9.34639 7.4825 9.1612 8.08456 8.89201 8.66051C8.42888 9.30884 7.96582 9.95724 7.50269 10.6056C7.45913 10.3241 7.35493 10.0694 7.19009 9.84144C7.13 9.7662 7.06054 9.75467 6.98169 9.8067C6.915 9.90527 6.85714 10.0095 6.80803 10.1193C6.78489 10.9298 6.76169 11.7402 6.73856 12.5506C6.40901 11.8639 5.86488 11.5861 5.1061 11.717C4.9498 9.93466 4.9382 8.15167 5.07137 6.36812C5.17237 5.48631 5.42711 4.65272 5.8355 3.86734C6.31155 3.17157 6.97148 2.76635 7.81529 2.65168C8.89618 1.17269 10.355 0.315941 12.1917 0.0814302C15.2065 -0.235812 17.9619 0.458847 20.4581 2.16542C21.2948 2.77092 21.8621 3.56978 22.1601 4.562C22.5477 6.07107 22.6403 7.59934 22.4379 9.14677C22.3405 9.96279 22.2131 10.7732 22.0559 11.5781Z" fill="#240703"/>
</g>
<g id="Group_4">
<path id="Vector_4" opacity="0.998" fill-rule="evenodd" clip-rule="evenodd" d="M19.555 10.1879C19.6043 10.2507 19.6737 10.2738 19.7634 10.2574C19.7634 9.8637 19.7634 9.4701 19.7634 9.07643C19.9058 9.1971 20.0332 9.33603 20.1455 9.49323C20.6505 10.4248 20.9284 11.4205 20.9791 12.4803C21.1221 11.9079 21.4811 11.607 22.0558 11.5772C23.0374 11.9657 23.3963 12.6835 23.1325 13.7307C22.8556 14.7245 22.2883 15.5002 21.4306 16.0578C21.2503 16.1367 21.065 16.1946 20.8749 16.2315C20.2 18.115 19.158 19.759 17.7489 21.1636C17.0087 21.8688 16.1983 22.4825 15.3176 23.0044C14.4467 23.5163 13.5436 23.5858 12.6084 23.2128C11.3149 22.5202 10.1804 21.6287 9.20456 20.5384C8.05656 19.3094 7.18824 17.8969 6.59958 16.3009C5.2668 15.6529 4.49114 14.5878 4.27246 13.1055C4.30483 12.4834 4.5827 12.0203 5.10606 11.7162C5.86484 11.5852 6.40896 11.8631 6.73851 12.5497C6.76164 11.7393 6.78485 10.9289 6.80798 10.1184C6.85709 10.0086 6.91496 9.9044 6.98164 9.80583C7.06049 9.7538 7.12995 9.76533 7.19004 9.84056C7.35489 10.0686 7.45909 10.3232 7.50264 10.6047C7.96577 9.95636 8.42883 9.30797 8.89197 8.65964C9.16115 8.08369 9.34634 7.48163 9.4477 6.85352C9.90958 7.6032 10.4768 8.26312 11.1496 8.8333C13.1609 10.2506 15.3838 10.7485 17.8184 10.3268C17.5479 9.99457 17.3742 9.62404 17.2974 9.21537C17.9629 9.73456 18.7154 10.0588 19.555 10.1879Z" fill="#F8D6A9"/>
</g>
<g id="Group_5">
<path id="Vector_5" opacity="0.997" fill-rule="evenodd" clip-rule="evenodd" d="M9.20508 21.0967C9.52365 21.5436 9.85945 21.9835 10.2123 22.4165C10.8175 23.0218 11.5007 23.5197 12.2616 23.9101C14.3153 24.6594 16.1445 24.3005 17.7494 22.8333C17.7494 23.7364 17.7494 24.6395 17.7494 25.5425C17.7487 25.6479 17.7024 25.729 17.6105 25.7856C16.2585 26.9291 14.927 28.0985 13.6162 29.2937C12.1718 27.9987 10.7014 26.7483 9.20508 25.5425C9.20508 24.0606 9.20508 22.5786 9.20508 21.0967Z" fill="#F9D6A9"/>
</g>
<g id="Group_6">
<path id="Vector_6" opacity="0.992" fill-rule="evenodd" clip-rule="evenodd" d="M9.20441 25.5415C10.7007 26.7473 12.1711 27.9976 13.6155 29.2926C14.9263 28.0974 16.2578 26.9281 17.6098 25.7846C17.7017 25.7279 17.748 25.6468 17.7488 25.5415C18.9531 25.5299 20.1572 25.5415 21.361 25.5762C22.8091 25.5904 24.1058 26.0303 25.2511 26.8961C26.4131 28.0181 26.9804 29.3959 26.953 31.0293C26.9974 31.7483 26.9858 32.4661 26.9183 33.1827C22.5464 34.1086 18.1238 34.5486 13.6503 34.5026C9.17746 34.5423 4.75476 34.1023 0.382204 33.1827C0.26482 31.9015 0.322706 30.6279 0.555869 29.3621C1.17006 27.2895 2.54781 26.0738 4.68911 25.7151C5.1032 25.6459 5.52 25.5996 5.9395 25.5762C7.02755 25.5415 8.11588 25.5299 9.20441 25.5415Z" fill="white"/>
</g>
</g>
</g>
</g>
</g>
<defs>
<clipPath id="clip0_0_1">
<rect width="1440" height="775" fill="white" transform="translate(-130 -112)"/>
</clipPath>
</defs>
</svg>
