<svg width="44" height="44" viewBox="0 0 44 44" fill="none" xmlns="http://www.w3.org/2000/svg">
<g clip-path="url(#clip0_3653_125)">
<path opacity="0.912" fill-rule="evenodd" clip-rule="evenodd" d="M29.6914 -0.0429688C29.8919 -0.0429688 30.0925 -0.0429688 30.293 -0.0429688C30.293 4.54036 30.293 9.12373 30.293 13.707C30.0948 13.6647 29.8943 13.636 29.6914 13.6211C29.6914 9.06641 29.6914 4.51172 29.6914 -0.0429688Z" fill="white"/>
<path opacity="0.799" fill-rule="evenodd" clip-rule="evenodd" d="M17.6602 1.33203C17.8894 1.33203 18.1185 1.33203 18.3477 1.33203C18.3477 6.86067 18.3477 12.3894 18.3477 17.918C18.1185 17.918 17.8894 17.918 17.6602 17.918C17.6602 12.3894 17.6602 6.86067 17.6602 1.33203Z" fill="white"/>
<path opacity="0.792" fill-rule="evenodd" clip-rule="evenodd" d="M28.4023 4.16797C28.6315 4.16797 28.8606 4.16797 29.0898 4.16797C29.0898 6.86067 29.0898 9.55341 29.0898 12.2461C28.8606 12.2461 28.6315 12.2461 28.4023 12.2461C28.4023 9.55341 28.4023 6.86067 28.4023 4.16797Z" fill="white"/>
<path opacity="0.905" fill-rule="evenodd" clip-rule="evenodd" d="M30.8945 4.16797C31.095 4.16797 31.2956 4.16797 31.4961 4.16797C31.4961 6.86067 31.4961 9.55341 31.4961 12.2461C31.2956 12.2461 31.095 12.2461 30.8945 12.2461C30.8945 9.55341 30.8945 6.86067 30.8945 4.16797Z" fill="white"/>
<path opacity="0.915" fill-rule="evenodd" clip-rule="evenodd" d="M16.457 5.62891C16.6575 5.62891 16.8581 5.62891 17.0586 5.62891C17.0586 8.29297 17.0586 10.957 17.0586 13.6211C16.8581 13.6211 16.6575 13.6211 16.457 13.6211C16.457 10.957 16.457 8.29297 16.457 5.62891Z" fill="white"/>
<path opacity="0.915" fill-rule="evenodd" clip-rule="evenodd" d="M18.9492 5.62891C19.1497 5.62891 19.3503 5.62891 19.5508 5.62891C19.5508 8.29297 19.5508 10.957 19.5508 13.6211C19.3503 13.6211 19.1497 13.6211 18.9492 13.6211C18.9492 10.957 18.9492 8.29297 18.9492 5.62891Z" fill="white"/>
<path opacity="0.796" fill-rule="evenodd" clip-rule="evenodd" d="M6.74609 12.0742C6.97526 12.0742 7.20442 12.0742 7.43359 12.0742C7.43359 17.6315 7.43359 23.1888 7.43359 28.7461C7.20442 28.7461 6.97526 28.7461 6.74609 28.7461C6.74609 23.1888 6.74609 17.6315 6.74609 12.0742Z" fill="white"/>
<path opacity="0.984" fill-rule="evenodd" clip-rule="evenodd" d="M27.2851 14.1375C30.7779 14.0946 33.0552 15.7274 34.1172 19.036C34.7001 22.4966 33.4254 25.0031 30.2929 26.5555C27.1386 27.5662 24.5461 26.7784 22.5156 24.1922C20.9434 21.4391 21.1153 18.8036 23.0312 16.286C24.1934 15.0533 25.6113 14.3371 27.2851 14.1375Z" fill="white"/>
<path opacity="0.905" fill-rule="evenodd" clip-rule="evenodd" d="M5.54297 16.3711C5.74349 16.3711 5.94401 16.3711 6.14453 16.3711C6.14453 19.0638 6.14453 21.7565 6.14453 24.4492C5.94401 24.4492 5.74349 24.4492 5.54297 24.4492C5.54297 21.7565 5.54297 19.0638 5.54297 16.3711Z" fill="white"/>
<path opacity="0.905" fill-rule="evenodd" clip-rule="evenodd" d="M8.03516 16.3711C8.23567 16.3711 8.4362 16.3711 8.63672 16.3711C8.63672 19.0638 8.63672 21.7565 8.63672 24.4492C8.4362 24.4492 8.23567 24.4492 8.03516 24.4492C8.03516 21.7565 8.03516 19.0638 8.03516 16.3711Z" fill="white"/>
<path opacity="0.977" fill-rule="evenodd" clip-rule="evenodd" d="M28.2305 43.9565C27.7148 43.9565 27.1992 43.9565 26.6836 43.9565C25.8261 43.6868 25.153 43.1712 24.6641 42.4096C24.0681 40.6932 23.4809 38.9745 22.9023 37.2533C21.0558 39.1142 19.2224 40.9906 17.4023 42.8822C16.8387 43.2515 16.2228 43.4664 15.5547 43.5268C13.8018 43.5462 12.0974 43.2454 10.4414 42.6244C8.62039 41.6922 7.70371 40.1883 7.69141 38.1127C7.79553 34.5693 8.58329 31.1891 10.0547 27.9721C10.6413 26.7987 11.2715 25.6528 11.9453 24.5346C13.9636 21.7516 16.6134 20.8779 19.8945 21.9135C20.274 22.1208 20.6034 22.3928 20.8828 22.7299C21.9625 24.6179 21.9625 26.5085 20.8828 28.4018C20.3967 27.1729 19.9097 25.9411 19.4219 24.7065C18.5446 23.4305 17.3845 23.0724 15.9414 23.6322C14.556 24.5231 14.1693 25.7405 14.7813 27.2846C15.7839 29.9486 16.7864 32.6127 17.7891 35.2768C18.2913 36.0369 18.9931 36.4809 19.8945 36.6088C23.1844 36.9236 26.4787 37.167 29.7773 37.3393C30.0228 38.2621 30.2949 39.1787 30.5938 40.0893C30.852 42.039 30.0642 43.3281 28.2305 43.9565Z" fill="white"/>
<path opacity="0.8" fill-rule="evenodd" clip-rule="evenodd" d="M36.4805 22.9023C36.7097 22.9023 36.9388 22.9023 37.168 22.9023C37.168 28.431 37.168 33.9597 37.168 39.4883C36.9388 39.4883 36.7097 39.4883 36.4805 39.4883C36.4805 33.9597 36.4805 28.431 36.4805 22.9023Z" fill="white"/>
<path opacity="0.972" fill-rule="evenodd" clip-rule="evenodd" d="M17.0585 23.9336C17.73 23.9519 18.2886 24.2097 18.7343 24.707C19.7243 27.1184 20.6554 29.5533 21.5273 32.0117C24.2789 32.2744 27.0289 32.5466 29.7773 32.8281C30.7677 33.3047 31.1831 34.0925 31.0234 35.1914C30.7023 36.2544 29.9862 36.77 28.875 36.7383C25.6708 36.5199 22.4767 36.2191 19.2929 35.8359C18.7015 35.6139 18.3148 35.1985 18.1328 34.5898C17.1129 31.8455 16.1103 29.0955 15.125 26.3398C15.0608 24.9581 15.7054 24.1561 17.0585 23.9336Z" fill="white"/>
<path opacity="0.905" fill-rule="evenodd" clip-rule="evenodd" d="M35.2773 27.1133C35.4778 27.1133 35.6784 27.1133 35.8789 27.1133C35.8789 29.806 35.8789 32.4987 35.8789 35.1914C35.6784 35.1914 35.4778 35.1914 35.2773 35.1914C35.2773 32.4987 35.2773 29.806 35.2773 27.1133Z" fill="white"/>
<path opacity="0.905" fill-rule="evenodd" clip-rule="evenodd" d="M37.7695 27.1133C37.97 27.1133 38.1706 27.1133 38.3711 27.1133C38.3711 29.806 38.3711 32.4987 38.3711 35.1914C38.1706 35.1914 37.97 35.1914 37.7695 35.1914C37.7695 32.4987 37.7695 29.806 37.7695 27.1133Z" fill="white"/>
<path opacity="0.957" fill-rule="evenodd" clip-rule="evenodd" d="M23.8477 27.8003C25.3919 27.7055 26.5234 28.3358 27.2422 29.6909C27.5123 30.4581 27.7558 31.2315 27.9727 32.0112C25.964 31.8417 23.9588 31.6411 21.957 31.4097C21.6964 30.785 21.4815 30.1548 21.3125 29.5191C21.9427 28.6147 22.7877 28.0419 23.8477 27.8003Z" fill="white"/>
</g>
<defs>
<clipPath id="clip0_3653_125">
<rect width="44" height="44" fill="white"/>
</clipPath>
</defs>
</svg>
