<svg width="249" height="249" viewBox="0 0 249 249" fill="none" xmlns="http://www.w3.org/2000/svg">
<path opacity="0.987" fill-rule="evenodd" clip-rule="evenodd" d="M124.743 30.8828C143.685 31.7995 157.059 40.8776 164.865 58.1172C170.885 74.684 168.777 90.084 158.543 104.318C144.213 120.119 127.111 124.091 107.235 116.233C88.4228 105.599 80.3983 89.4688 83.1621 67.8438C87.0114 49.4051 97.9538 37.4902 115.989 32.0986C118.979 31.6913 121.897 31.286 124.743 30.8828Z" fill="#C7CED8"/>
<path opacity="0.976" fill-rule="evenodd" clip-rule="evenodd" d="M54.712 50.3342C60.9744 49.9188 66.9723 50.9727 72.7061 53.4953C72.9283 53.6966 73.0908 53.9398 73.1924 54.2248C63.8666 69.6419 63.6234 85.2044 72.4629 100.912C74.6966 103.919 77.0475 106.837 79.5147 109.666C76.9527 112.411 73.8723 114.438 70.2745 115.745C50.6472 121.048 36.6248 114.482 28.2071 96.049C23.2283 79.0494 27.8484 65.351 42.0674 54.9543C46.0783 52.6734 50.2932 51.1337 54.712 50.3342Z" fill="#C7CED8"/>
<path opacity="0.976" fill-rule="evenodd" clip-rule="evenodd" d="M187.966 50.3359C210.328 50.5699 222.486 61.8361 224.44 84.1357C223.041 104.582 212.18 115.849 191.856 117.936C183.807 117.742 176.836 114.985 170.944 109.668C183.355 96.826 187.164 81.7498 182.373 64.4395C181.123 60.7229 179.421 57.2374 177.267 53.9834C180.709 52.2151 184.275 50.9993 187.966 50.3359Z" fill="#C7CED8"/>
<path opacity="0.971" fill-rule="evenodd" clip-rule="evenodd" d="M56.1709 129.12C64.454 128.748 72.5597 129.721 80.4873 132.038C73.136 135.144 66.3274 139.115 60.0615 143.953C50.8553 151.423 45.8298 161.069 44.9853 172.89C45.3048 182.53 49.0335 190.555 56.1709 196.963C43.1347 197.838 31.1386 194.758 20.1826 187.723C9.20443 179.432 5.88121 168.814 10.2129 155.868C13.9695 147.897 19.7244 141.818 27.4775 137.631C36.5432 132.895 46.1076 130.058 56.1709 129.12Z" fill="#C7CED8"/>
<path opacity="0.971" fill-rule="evenodd" clip-rule="evenodd" d="M184.075 129.121C199.93 128.221 214.52 132.031 227.845 140.55C234.12 144.922 238.578 150.677 241.219 157.814C244.195 169.473 241.034 179.118 231.735 186.751C220.674 194.543 208.354 197.947 194.774 196.964C206.706 184.756 208.733 171.058 200.854 155.869C196.72 149.142 191.289 143.711 184.562 139.577C179.97 136.633 175.106 134.201 169.972 132.282C171.144 131.512 172.441 131.026 173.862 130.823C177.319 130.139 180.723 129.571 184.075 129.121Z" fill="#C7CED8"/>
<path opacity="0.989" fill-rule="evenodd" clip-rule="evenodd" d="M119.394 131.551C138.657 130.358 156.327 134.978 172.403 145.411C190.133 159.325 193.294 175.94 181.887 195.26C172.641 205.939 161.05 212.828 147.114 215.929C125.063 221.075 103.989 218.481 83.8916 208.147C75.1416 203.126 68.5761 196.074 64.1953 186.992C59.4468 171.862 62.9318 158.974 74.6513 148.329C87.8727 138.233 102.787 132.641 119.394 131.551Z" fill="#C7CED8"/>
</svg>
