<svg width="30" height="30" viewBox="0 0 30 30" fill="none" xmlns="http://www.w3.org/2000/svg">
<g clip-path="url(#clip0_3398_1657)">
<path opacity="0.951" fill-rule="evenodd" clip-rule="evenodd" d="M-0.0292969 26.9817C-0.0292969 26.0051 -0.0292969 25.0286 -0.0292969 24.052C0.658506 19.9159 2.92413 16.996 6.76758 15.2922C7.29299 15.0846 7.82033 14.8893 8.34961 14.7063C5.65625 12.8781 4.68946 10.3683 5.44922 7.177C6.39258 4.45678 8.29688 2.92358 11.1621 2.57739C14.2184 2.47902 16.4157 3.79737 17.7539 6.53247C18.7864 9.40385 18.2102 11.8941 16.0254 14.0032C15.7096 14.2603 15.3776 14.4947 15.0293 14.7063C18.2406 15.6343 20.6722 17.5386 22.3242 20.4192C23.3891 22.5608 23.7211 24.807 23.3203 27.1575C22.9688 27.4699 22.6172 27.4699 22.2656 27.1575C22.2151 27.0645 22.176 26.9668 22.1484 26.8645C22.4134 21.464 20.0013 17.88 14.9121 16.1125C11.4089 15.1675 8.16674 15.7143 5.18555 17.7532C2.9642 19.392 1.6849 21.5892 1.34766 24.345C1.34389 25.2465 1.30483 26.145 1.23047 27.0403C0.79002 27.513 0.3701 27.4934 -0.0292969 26.9817ZM11.4551 3.89575C14.5307 4.03208 16.3373 5.61411 16.875 8.64184C16.9617 10.8421 16.073 12.512 14.209 13.6516C11.7996 14.7589 9.66088 14.378 7.79297 12.509C6.34236 10.6452 6.14707 8.65297 7.20703 6.53247C8.18519 4.94492 9.60117 4.06601 11.4551 3.89575Z" fill="#5C5C5C"/>
<path opacity="0.95" fill-rule="evenodd" clip-rule="evenodd" d="M29.9704 21.944C29.9704 22.7643 29.9704 23.5846 29.9704 24.4049C29.7461 24.736 29.4337 24.8434 29.0329 24.7272C28.7973 24.6177 28.6704 24.4322 28.652 24.1705C28.8979 20.3979 27.3061 17.7514 23.8766 16.2311C22.7962 15.8459 21.6829 15.6311 20.5368 15.5865C20.2041 15.3735 20.0967 15.0707 20.2145 14.6783C20.2829 14.5319 20.3903 14.4245 20.5368 14.3561C22.7325 14.2608 24.1094 13.1573 24.6676 11.0455C24.8423 8.78587 23.8559 7.3113 21.7087 6.62171C21.3788 6.5651 21.0468 6.52602 20.7126 6.50452C20.2433 6.34585 20.0773 6.02358 20.2145 5.53772C20.2829 5.39124 20.3903 5.28382 20.5368 5.21546C23.2357 5.18297 25.0228 6.4427 25.8981 8.99475C26.4167 11.3556 25.7233 13.2696 23.818 14.7369C27.2819 15.9468 29.3327 18.3492 29.9704 21.944Z" fill="#5C5C5C"/>
</g>
<defs>
<clipPath id="clip0_3398_1657">
<rect width="30" height="30" fill="white"/>
</clipPath>
</defs>
</svg>
