<svg width="16" height="16" viewBox="0 0 16 16" fill="none" xmlns="http://www.w3.org/2000/svg">
<path d="M8.00065 6.66634C9.47341 6.66634 10.6673 5.47243 10.6673 3.99967C10.6673 2.52691 9.47341 1.33301 8.00065 1.33301C6.52789 1.33301 5.33398 2.52691 5.33398 3.99967C5.33398 5.47243 6.52789 6.66634 8.00065 6.66634Z" stroke="#626262"/>
<path d="M13.331 12.0003C13.3327 11.8909 13.3327 11.7797 13.3327 11.667C13.3327 10.0101 10.9449 8.66699 7.99935 8.66699C5.05383 8.66699 2.66602 10.0101 2.66602 11.667C2.66602 13.3239 2.66602 14.667 7.99935 14.667C9.48668 14.667 10.5592 14.5625 11.3327 14.3759" stroke="#626262" stroke-linecap="round"/>
</svg>
