<svg width="50" height="50" viewBox="0 0 50 50" fill="none" xmlns="http://www.w3.org/2000/svg">
<g clip-path="url(#clip0_503_25)">
<path opacity="0.998" fill-rule="evenodd" clip-rule="evenodd" d="M24.9512 6.98218C24.9512 9.06551 24.9512 11.1489 24.9512 13.2322C19.6451 13.2159 14.3391 13.2322 9.0332 13.281C7.8353 13.7393 7.52605 14.5369 8.10547 15.6736C8.34058 15.9134 8.61728 16.0924 8.93555 16.2107C14.274 16.2595 19.6125 16.2758 24.9512 16.2595C24.9512 25.1462 24.9512 34.033 24.9512 42.9197C17.8873 42.936 10.8235 42.9197 3.75977 42.8708C1.77758 42.4346 0.508043 41.2464 -0.0488281 39.3064C-0.0488281 29.7361 -0.0488281 20.1658 -0.0488281 10.5955C0.508043 8.65538 1.77758 7.46723 3.75977 7.03101C10.8235 6.98218 17.8873 6.9659 24.9512 6.98218Z" fill="#F9DBA8"/>
<path fill-rule="evenodd" clip-rule="evenodd" d="M24.9512 6.98218C32.015 6.9659 39.0788 6.98218 46.1426 7.03101C48.1236 7.46671 49.3932 8.65486 49.9512 10.5955C49.9512 20.1658 49.9512 29.7361 49.9512 39.3064C49.3932 41.247 48.1236 42.4351 46.1426 42.8708C39.0788 42.9197 32.015 42.936 24.9512 42.9197C24.9512 34.033 24.9512 25.1462 24.9512 16.2595C30.3062 16.2919 35.6448 16.2594 40.9668 16.1619C41.689 15.9737 42.0796 15.5016 42.1387 14.7459C42.0736 13.9486 41.6505 13.4766 40.8691 13.3298C35.5797 13.2323 30.2737 13.1998 24.9512 13.2322C24.9512 11.1489 24.9512 9.06551 24.9512 6.98218Z" fill="#FEC759"/>
<path fill-rule="evenodd" clip-rule="evenodd" d="M24.9511 13.2324C30.2736 13.1999 35.5796 13.2325 40.869 13.33C35.5631 13.33 30.257 13.33 24.9511 13.33C24.9511 14.2741 24.9511 15.218 24.9511 16.162C30.2896 16.162 35.6281 16.162 40.9667 16.162C35.6447 16.2596 30.3061 16.2921 24.9511 16.2597C19.6124 16.276 14.2739 16.2597 8.93544 16.2109C8.61717 16.0926 8.34047 15.9136 8.10536 15.6738C7.52594 14.537 7.83519 13.7395 9.03309 13.2812C14.339 13.2324 19.645 13.216 24.9511 13.2324Z" fill="#3A3230"/>
<path fill-rule="evenodd" clip-rule="evenodd" d="M40.8691 13.3301C41.6505 13.4769 42.0736 13.9488 42.1387 14.7461C42.0796 15.5019 41.689 15.9739 40.9668 16.1621C35.6282 16.1621 30.2897 16.1621 24.9512 16.1621C24.9512 15.2181 24.9512 14.2741 24.9512 13.3301C30.2571 13.3301 35.5632 13.3301 40.8691 13.3301Z" fill="#0A0400"/>
<path fill-rule="evenodd" clip-rule="evenodd" d="M16.162 27.3926C15.6737 27.3926 15.1855 27.3926 14.6972 27.3926C12.3915 26.5932 11.3986 24.9655 11.7187 22.5098C12.663 20.0763 14.4045 19.1811 16.9433 19.8242C19.1649 20.9318 19.8974 22.6734 19.1405 25.0488C18.5027 26.2897 17.5099 27.0709 16.162 27.3926Z" fill="#FE9355"/>
<path fill-rule="evenodd" clip-rule="evenodd" d="M29.2482 21.1423C33.1545 21.126 37.0608 21.1423 40.9669 21.1912C41.9085 21.4953 42.2503 22.13 41.9923 23.0955C41.7931 23.6205 41.4188 23.9298 40.8693 24.0232C36.9955 24.0883 33.1219 24.0883 29.2482 24.0232C28.155 23.4627 27.9272 22.6651 28.5646 21.6306C28.7818 21.4418 29.0097 21.279 29.2482 21.1423Z" fill="#0C0500"/>
<path fill-rule="evenodd" clip-rule="evenodd" d="M14.6973 27.3926C15.1855 27.3926 15.6738 27.3926 16.1621 27.3926C20.0946 27.9886 22.4547 30.2347 23.2422 34.1309C23.3746 34.8254 23.277 35.4765 22.9492 36.084C22.7586 36.3178 22.5145 36.4643 22.2168 36.5234C17.7246 36.5886 13.2324 36.5886 8.74023 36.5234C8.21896 36.3274 7.90973 35.953 7.8125 35.4004C7.87987 31.7665 9.58886 29.2437 12.9395 27.832C13.5159 27.6419 14.1019 27.4954 14.6973 27.3926Z" fill="#48B658"/>
<path fill-rule="evenodd" clip-rule="evenodd" d="M29.248 27.3923C33.1218 27.376 36.9955 27.3923 40.8691 27.4412C42.0101 27.8008 42.3519 28.5333 41.8944 29.6384C41.6635 29.9674 41.3542 30.1791 40.9667 30.2732C37.093 30.3383 33.2193 30.3383 29.3456 30.2732C28.2754 29.8622 27.9662 29.1298 28.4179 28.0759C28.6563 27.7875 28.933 27.5596 29.248 27.3923Z" fill="#0D0600"/>
<path fill-rule="evenodd" clip-rule="evenodd" d="M29.0528 33.74C32.0152 33.7237 34.9774 33.74 37.9395 33.7888C38.7739 34.1064 39.0832 34.7087 38.8673 35.5955C38.7533 36.1001 38.4441 36.4092 37.9395 36.5232C35.0099 36.5883 32.0802 36.5883 29.1505 36.5232C28.322 36.0867 28.0453 35.4194 28.3204 34.5213C28.5184 34.2095 28.7626 33.9491 29.0528 33.74Z" fill="#0B0400"/>
</g>
<defs>
<clipPath id="clip0_503_25">
<rect width="50" height="50" fill="white"/>
</clipPath>
</defs>
</svg>
