<svg width="20" height="20" viewBox="0 0 20 20" fill="none" xmlns="http://www.w3.org/2000/svg">
<g clip-path="url(#clip0_1487_34)">
<path opacity="0.967" fill-rule="evenodd" clip-rule="evenodd" d="M9.08203 -0.0195312C9.66797 -0.0195312 10.2539 -0.0195312 10.8398 -0.0195312C12.7547 0.178144 14.48 0.855227 16.0156 2.01172C16.0273 1.7772 16.0209 1.54283 15.9961 1.30859C16.4636 1.25545 16.9323 1.21638 17.4023 1.19141C17.5025 2.10138 17.5741 3.01284 17.6172 3.92578C17.5456 4.17969 17.3828 4.34246 17.1289 4.41406C16.2436 4.43359 15.3582 4.44012 14.4727 4.43359C14.4727 3.96484 14.4727 3.49609 14.4727 3.02734C14.6944 3.03383 14.9157 3.02732 15.1367 3.00781C12.4576 1.13892 9.59301 0.800383 6.54297 1.99219C3.20873 3.59919 1.45092 6.26195 1.26953 9.98047C1.29248 11.3092 1.59196 12.5722 2.16797 13.7695C1.77769 13.9647 1.38707 14.16 0.996094 14.3555C0.704207 13.8126 0.476344 13.2397 0.3125 12.6367C0.167377 12.0517 0.0566996 11.4658 -0.0195312 10.8789C-0.0195312 10.293 -0.0195312 9.70703 -0.0195312 9.12109C0.49968 5.2102 2.54395 2.41724 6.11328 0.742188C7.07316 0.352507 8.06273 0.0986004 9.08203 -0.0195312Z" fill="white"/>
<path opacity="0.98" fill-rule="evenodd" clip-rule="evenodd" d="M9.86328 3.61328C10.039 3.64885 10.2083 3.70744 10.3711 3.78906C11.999 4.57699 13.6266 5.36477 15.2539 6.15234C13.4956 7.14875 11.7248 8.12531 9.94141 9.08203C8.18359 8.11199 6.42578 7.14191 4.66797 6.17188C6.40211 5.31781 8.13387 4.46496 9.86328 3.61328Z" fill="white"/>
<path opacity="0.966" fill-rule="evenodd" clip-rule="evenodd" d="M19.9805 9.08203C19.9805 9.66797 19.9805 10.2539 19.9805 10.8398C19.4613 14.7507 17.417 17.5437 13.8477 19.2188C12.8878 19.6084 11.8982 19.8623 10.8789 19.9805C10.293 19.9805 9.70703 19.9805 9.12109 19.9805C7.20617 19.7828 5.4809 19.1057 3.94531 17.9492C3.93359 18.1838 3.94008 18.4181 3.96484 18.6523C3.49704 18.7017 3.02829 18.7408 2.55859 18.7695C2.46222 17.8592 2.3906 16.9478 2.34375 16.0352C2.39983 15.7863 2.54957 15.6236 2.79297 15.5469C3.70434 15.5273 4.61578 15.5208 5.52734 15.5273C5.52734 15.9961 5.52734 16.4648 5.52734 16.9336C5.29262 16.9271 5.05824 16.9336 4.82422 16.9531C7.50375 18.8221 10.3683 19.1606 13.418 17.9688C16.7527 16.3604 18.5105 13.6976 18.6914 9.98047C18.6713 8.65637 18.3718 7.39988 17.793 6.21094C18.1775 5.99914 18.5681 5.7973 18.9648 5.60547C19.2567 6.14832 19.4846 6.72125 19.6484 7.32422C19.7936 7.90922 19.9042 8.49516 19.9805 9.08203Z" fill="white"/>
<path opacity="0.986" fill-rule="evenodd" clip-rule="evenodd" d="M3.72998 7.48047C5.53557 8.43543 7.33244 9.41199 9.12061 10.4102C9.17268 12.2852 9.17268 14.1602 9.12061 16.0352C7.32725 15.1678 5.5369 14.2954 3.74951 13.418C3.72998 11.4388 3.72347 9.45969 3.72998 7.48047Z" fill="white"/>
<path opacity="0.983" fill-rule="evenodd" clip-rule="evenodd" d="M16.1131 7.48047C16.1652 8.4632 16.1912 9.4593 16.1912 10.4688C16.1782 11.4648 16.1652 12.4609 16.1522 13.457C14.3553 14.3164 12.5584 15.1758 10.7616 16.0352C10.716 14.1733 10.7095 12.3113 10.742 10.4492C12.5317 9.45359 14.322 8.46402 16.1131 7.48047Z" fill="white"/>
</g>
<defs>
<clipPath id="clip0_1487_34">
<rect width="20" height="20" fill="white"/>
</clipPath>
</defs>
</svg>
