<svg width="25" height="25" viewBox="0 0 25 25" fill="none" xmlns="http://www.w3.org/2000/svg">
<g clip-path="url(#clip0_386_33)">
<path opacity="0.959" fill-rule="evenodd" clip-rule="evenodd" d="M24.4348 6.74853C24.4348 7.18773 24.4348 7.62699 24.4348 8.06619C24.1088 9.74452 23.1633 10.9524 21.5982 11.6898C21.5823 14.5134 21.5664 17.3369 21.5505 20.1605C21.3197 21.0158 20.7714 21.557 19.9057 21.7841C13.8352 21.8154 7.76457 21.8154 1.69401 21.7841C0.826783 21.5476 0.270579 21.0064 0.0253906 20.1605C0.0253906 16.4271 0.0253906 12.6937 0.0253906 8.96032C0.270994 8.11401 0.827198 7.57282 1.69401 7.33677C3.66856 7.29028 5.63913 7.30595 7.60567 7.38383C7.80657 7.58148 7.84633 7.80897 7.72486 8.06619C7.66698 8.13909 7.59547 8.19396 7.51032 8.2309C5.73048 8.24657 3.95061 8.26229 2.17075 8.27796C2.03386 8.28351 1.90673 8.31486 1.78935 8.37208C4.61805 11.1643 7.44677 13.9565 10.2755 16.7487C10.582 16.9478 10.8999 16.9635 11.2289 16.7957C13.1445 14.9127 15.0515 13.0225 16.9499 11.1251C16.0098 10.3915 15.4059 9.4424 15.1383 8.27796C13.8829 8.26229 12.6274 8.24657 11.372 8.2309C11.0686 8.02666 11.0129 7.76784 11.2051 7.45442C11.2482 7.3979 11.3037 7.35865 11.372 7.33677C12.6114 7.31324 13.851 7.30538 15.0906 7.31324C15.2019 5.32799 16.1712 3.92404 17.9988 3.10141C20.045 2.41023 21.8169 2.82593 23.3145 4.34849C23.8953 5.0557 24.2687 5.85571 24.4348 6.74853ZM19.715 3.73671C21.3272 3.81406 22.4793 4.56701 23.1715 5.99557C23.7943 7.85297 23.3096 9.35101 21.7174 10.4898C20.2538 11.2755 18.8395 11.1971 17.4743 10.2545C15.9733 8.8703 15.6952 7.27813 16.64 5.47792C17.37 4.39208 18.395 3.81168 19.715 3.73671ZM1.07423 9.1015C2.93255 10.9044 4.77597 12.7241 6.6045 14.5604C4.77697 16.3957 2.93355 18.2154 1.07423 20.0193C1.03542 19.9127 1.01158 19.8028 1.00272 19.6899C0.970937 16.2702 0.970937 12.8506 1.00272 9.43092C1.01657 9.31704 1.0404 9.2072 1.07423 9.1015ZM17.9034 11.6427C18.7745 12.0063 19.6803 12.116 20.6209 11.9721C20.6288 14.5448 20.6209 17.1173 20.597 19.6899C20.5904 19.8096 20.5586 19.9194 20.5017 20.0193C18.6576 18.2069 16.8221 16.3873 14.9952 14.5604C15.9657 13.5869 16.935 12.6143 17.9034 11.6427ZM7.31962 15.3134C8.11808 16.0308 8.89675 16.7759 9.65568 17.5487C10.3752 18.0007 11.1062 18.0164 11.8487 17.5958C12.6506 16.8435 13.4451 16.0827 14.2325 15.3134C16.0832 17.1167 17.9266 18.9285 19.7627 20.7487C19.6615 20.8049 19.5502 20.8363 19.429 20.8429C13.6762 20.8743 7.92352 20.8743 2.17075 20.8429C2.05631 20.8341 1.94507 20.8106 1.83703 20.7723C3.66556 18.9516 5.49311 17.132 7.31962 15.3134Z" fill="#EA4B98"/>
<path opacity="0.942" fill-rule="evenodd" clip-rule="evenodd" d="M19.1428 5.14854C19.5117 5.13178 19.8773 5.15531 20.2393 5.21913C20.3901 5.28877 20.4775 5.40642 20.5016 5.57207C20.5334 6.87407 20.5334 8.17602 20.5016 9.47802C20.4148 9.84508 20.1844 9.9784 19.8103 9.87802C19.6911 9.8231 19.6037 9.73684 19.5481 9.61919C19.5242 8.45852 19.5163 7.2977 19.5242 6.13679C18.9265 6.24441 18.6643 6.00911 18.7376 5.43089C18.8302 5.27193 18.9653 5.17781 19.1428 5.14854Z" fill="#EA4B98"/>
<path opacity="0.897" fill-rule="evenodd" clip-rule="evenodd" d="M9.22646 7.31329C9.75041 7.24233 9.98087 7.46191 9.91775 7.97213C9.76152 8.23608 9.53111 8.32234 9.22646 8.23095C8.84769 7.92521 8.84769 7.61932 9.22646 7.31329Z" fill="#EA4B98"/>
</g>
<defs>
<clipPath id="clip0_386_33">
<rect width="24.4094" height="24.0945" fill="white" transform="translate(0.0493164 0.277832)"/>
</clipPath>
</defs>
</svg>
