<svg width="48" height="48" viewBox="0 0 48 48" fill="none" xmlns="http://www.w3.org/2000/svg">
<circle cx="24" cy="24" r="24" fill="#EA4B98"/>
<path opacity="0.965" fill-rule="evenodd" clip-rule="evenodd" d="M22.9335 11.5039C28.23 11.303 32.2313 13.4541 34.9374 17.957C36.5511 21.0511 36.8793 24.2776 35.9218 27.6367C34.5455 31.7838 31.7838 34.5455 27.6367 35.9219C22.7612 37.2073 18.5229 36.1045 14.9218 32.6133C11.7472 29.0471 10.7811 24.9455 12.0234 20.3086C13.3997 16.1615 16.1614 13.3997 20.3085 12.0234C21.1765 11.7751 22.0515 11.6019 22.9335 11.5039ZM23.7538 12.9258C24.5819 12.9524 25.2655 13.2806 25.8046 13.9101C26.7043 15.0625 27.3515 16.3476 27.746 17.7656C26.4819 17.871 25.2149 17.9166 23.9452 17.9023C22.6938 17.917 21.445 17.8715 20.1992 17.7656C20.5507 16.5643 21.0703 15.4432 21.7577 14.4023C22.1567 13.8755 22.6399 13.4471 23.207 13.1172C23.3973 13.0569 23.5795 12.9931 23.7538 12.9258ZM20.5273 13.4726C20.5833 13.4943 20.5925 13.5308 20.5546 13.582C19.723 14.8263 19.1123 16.1752 18.7226 17.6289C17.5513 17.597 16.3846 17.4786 15.2226 17.2734C16.6059 15.4697 18.3741 14.2028 20.5273 13.4726ZM27.3085 13.5273C29.5104 14.1748 31.3151 15.4235 32.7226 17.2734C31.5605 17.4786 30.3938 17.597 29.2226 17.6289C28.8748 16.4048 28.3917 15.2382 27.7734 14.1289C27.6438 13.9048 27.4888 13.7043 27.3085 13.5273ZM14.3476 18.6133C15.6909 18.8222 17.0399 19.0045 18.3945 19.1601C18.1126 20.5121 17.9668 21.8793 17.957 23.2617C16.2981 23.2617 14.6393 23.2617 12.9804 23.2617C13.072 21.6018 13.5278 20.0523 14.3476 18.6133ZM33.5429 18.6133C33.7376 18.8377 33.8926 19.0929 34.0077 19.3789C34.5586 20.6163 34.8776 21.9105 34.9648 23.2617C33.3059 23.2617 31.647 23.2617 29.9882 23.2617C29.983 21.8787 29.8372 20.5115 29.5507 19.1601C30.894 19.0171 32.2248 18.8349 33.5429 18.6133ZM19.871 19.2148C22.5872 19.4322 25.3034 19.4322 28.0195 19.2148C28.0515 19.2263 28.0789 19.2445 28.1015 19.2695C28.3624 20.588 28.5174 21.9187 28.5663 23.2617C25.5038 23.2617 22.4413 23.2617 19.3788 23.2617C19.4232 21.8957 19.5873 20.5468 19.871 19.2148ZM12.9804 24.6836C14.6393 24.6836 16.2981 24.6836 17.957 24.6836C17.9622 26.0666 18.108 27.4338 18.3945 28.7851C17.0487 28.9385 15.7088 29.1208 14.3749 29.332C13.5301 27.9 13.0652 26.3506 12.9804 24.6836ZM19.3788 24.6836C22.4413 24.6836 25.5038 24.6836 28.5663 24.6836C28.5174 26.0266 28.3624 27.3573 28.1015 28.6758C28.0789 28.7008 28.0515 28.719 28.0195 28.7305C25.3215 28.5124 22.6236 28.5124 19.9257 28.7305C19.8937 28.719 19.8663 28.7008 19.8437 28.6758C19.5828 27.3573 19.4278 26.0266 19.3788 24.6836ZM29.9882 24.6836C31.647 24.6836 33.3059 24.6836 34.9648 24.6836C34.88 26.3506 34.4151 27.9 33.5702 29.332C32.2375 29.112 30.8977 28.9297 29.5507 28.7851C29.8326 27.4332 29.9784 26.066 29.9882 24.6836ZM21.7851 30.043C23.2618 30.0338 24.7383 30.043 26.2148 30.0703C26.7272 30.0826 27.2376 30.119 27.746 30.1797C27.3944 31.381 26.8749 32.5021 26.1874 33.543C25.7673 34.1091 25.2478 34.5558 24.6288 34.8828C24.0577 35.0895 23.5108 35.0348 22.9882 34.7187C22.3184 34.2493 21.7806 33.6568 21.3749 32.9414C20.8702 32.0686 20.4782 31.148 20.1992 30.1797C20.7355 30.1274 21.2641 30.0819 21.7851 30.043ZM18.3398 30.2617C18.4723 30.2449 18.5999 30.2631 18.7226 30.3164C19.0308 31.396 19.441 32.4351 19.9531 33.4336C20.1471 33.7945 20.3749 34.1317 20.6367 34.4453C18.4289 33.7695 16.6242 32.5117 15.2226 30.6719C16.2666 30.5124 17.3057 30.3757 18.3398 30.2617ZM29.2226 30.2617C30.3949 30.3484 31.5616 30.4852 32.7226 30.6719C31.3188 32.4546 29.5415 33.7216 27.3906 34.4726C27.8156 33.7323 28.2167 32.9667 28.5937 32.1758C28.8528 31.5533 29.0625 30.9153 29.2226 30.2617Z" fill="white"/>
</svg>
