<svg width="34" height="34" viewBox="0 0 34 34" fill="none" xmlns="http://www.w3.org/2000/svg">
<circle cx="17" cy="17" r="17" fill="#EA4B98"/>
<path opacity="0.965" fill-rule="evenodd" clip-rule="evenodd" d="M16.2448 8.14876C19.9965 8.00649 22.8307 9.53014 24.7475 12.7197C25.8906 14.9113 26.123 17.1968 25.4448 19.5762C24.4699 22.5137 22.5137 24.4699 19.5762 25.4448C16.1227 26.3554 13.1206 25.5742 10.5698 23.1012C8.32116 20.5752 7.6368 17.6699 8.51675 14.3854C9.49163 11.4479 11.4479 9.49164 14.3854 8.51676C15.0002 8.34085 15.62 8.21818 16.2448 8.14876ZM16.8258 9.15592C17.4124 9.17481 17.8966 9.40723 18.2785 9.85319C18.9158 10.6694 19.3742 11.5797 19.6536 12.5841C18.7582 12.6588 17.8608 12.6911 16.9614 12.681C16.075 12.6914 15.1904 12.6591 14.3079 12.5841C14.557 11.7332 14.925 10.9391 15.4119 10.2018C15.6946 9.82865 16.0368 9.52521 16.4385 9.2915C16.5733 9.24879 16.7024 9.2036 16.8258 9.15592ZM14.5403 9.54329C14.5801 9.55866 14.5865 9.58448 14.5597 9.62077C13.9707 10.5021 13.5381 11.4576 13.262 12.4873C12.4324 12.4647 11.606 12.3808 10.7829 12.2355C11.7627 10.9579 13.0152 10.0605 14.5403 9.54329ZM19.3437 9.58203C20.9034 10.0407 22.1817 10.9252 23.1787 12.2355C22.3556 12.3808 21.5292 12.4647 20.6995 12.4873C20.4532 11.6203 20.111 10.7939 19.673 10.0081C19.5812 9.84943 19.4714 9.7074 19.3437 9.58203ZM10.1631 13.1846C11.1146 13.3326 12.0701 13.4617 13.0296 13.5719C12.83 14.5296 12.7266 15.498 12.7197 16.4772C11.5447 16.4772 10.3697 16.4772 9.19464 16.4772C9.25954 15.3014 9.58235 14.2039 10.1631 13.1846ZM23.7597 13.1846C23.8977 13.3435 24.0074 13.5243 24.089 13.7269C24.4792 14.6033 24.7052 15.5201 24.7669 16.4772C23.5919 16.4772 22.4169 16.4772 21.2418 16.4772C21.2382 15.4976 21.1349 14.5292 20.9319 13.5719C21.8834 13.4706 22.8261 13.3415 23.7597 13.1846ZM14.0755 13.6107C15.9995 13.7646 17.9234 13.7646 19.8473 13.6107C19.87 13.6188 19.8894 13.6317 19.9054 13.6494C20.0902 14.5834 20.2 15.5259 20.2347 16.4772C18.0654 16.4772 15.8961 16.4772 13.7269 16.4772C13.7583 15.5096 13.8745 14.5542 14.0755 13.6107ZM9.19464 17.4844C10.3697 17.4844 11.5447 17.4844 12.7197 17.4844C12.7234 18.464 12.8267 19.4324 13.0296 20.3896C12.0763 20.4983 11.1273 20.6274 10.1824 20.777C9.584 19.7627 9.25474 18.6652 9.19464 17.4844ZM13.7269 17.4844C15.8961 17.4844 18.0654 17.4844 20.2347 17.4844C20.2 18.4357 20.0902 19.3783 19.9054 20.3122C19.8894 20.3299 19.87 20.3428 19.8473 20.3509C17.9363 20.1965 16.0253 20.1965 14.1142 20.3509C14.0915 20.3428 14.0722 20.3299 14.0561 20.3122C13.8713 19.3783 13.7615 18.4357 13.7269 17.4844ZM21.2418 17.4844C22.4169 17.4844 23.5919 17.4844 24.7669 17.4844C24.7068 18.6652 24.3776 19.7627 23.7791 20.777C22.8351 20.6212 21.886 20.492 20.9319 20.3896C21.1316 19.432 21.2349 18.4636 21.2418 17.4844ZM15.4313 21.2806C16.4773 21.2741 17.5232 21.2806 18.569 21.3C18.932 21.3086 19.2935 21.3345 19.6536 21.3774C19.4046 22.2284 19.0366 23.0225 18.5496 23.7598C18.252 24.1608 17.884 24.4772 17.4456 24.7088C17.0411 24.8552 16.6537 24.8165 16.2835 24.5926C15.8091 24.2601 15.4281 23.8404 15.1408 23.3337C14.7832 22.7154 14.5056 22.0633 14.3079 21.3774C14.6878 21.3404 15.0623 21.3082 15.4313 21.2806ZM12.9909 21.4355C13.0848 21.4236 13.1751 21.4366 13.262 21.4743C13.4803 22.239 13.7709 22.975 14.1336 23.6823C14.271 23.9379 14.4324 24.1768 14.6178 24.3989C13.054 23.9202 11.7757 23.0293 10.7829 21.7261C11.5224 21.6132 12.2584 21.5163 12.9909 21.4355ZM20.6995 21.4355C21.5299 21.497 22.3563 21.5938 23.1787 21.7261C22.1844 22.9889 20.9254 23.8863 19.4018 24.4183C19.7029 23.8939 19.987 23.3516 20.2541 22.7913C20.4376 22.3504 20.5861 21.8985 20.6995 21.4355Z" fill="white"/>
</svg>
