<svg width="24" height="24" viewBox="0 0 24 24" fill="none" xmlns="http://www.w3.org/2000/svg">
<g clip-path="url(#clip0_2600_3428)">
<path opacity="0.998" fill-rule="evenodd" clip-rule="evenodd" d="M11.5538 0.0703125C16.2419 0.0892125 19.8122 2.07359 22.2647 6.02344C24.0259 9.25598 24.3071 12.6154 23.1084 16.1016C21.549 19.9891 18.7443 22.4657 14.6944 23.5312C10.178 24.4321 6.32639 23.2368 3.13969 19.9453C0.496697 16.8582 -0.425177 13.3113 0.374062 9.30469C1.41881 5.24456 3.87975 2.42427 7.75688 0.84375C8.98941 0.38945 10.255 0.131637 11.5538 0.0703125Z" fill="#4BAE4F"/>
<path fill-rule="evenodd" clip-rule="evenodd" d="M11.2734 5.50789C13.9464 5.35817 16.0167 6.38942 17.4843 8.60164C18.7744 11.0012 18.6806 13.3449 17.2031 15.6329C15.4172 17.8846 13.1125 18.7049 10.289 18.0938C9.87672 17.9578 9.47046 17.8094 9.07024 17.6485C8.13302 17.8906 7.19552 18.1328 6.25774 18.3751C5.69866 18.4549 5.47211 18.2127 5.57805 17.6485C5.84678 16.7506 6.08899 15.8443 6.30461 14.9298C5.06833 12.2391 5.40428 9.77037 7.31242 7.52351C8.40789 6.40939 9.72817 5.73753 11.2734 5.50789Z" fill="#FCFEFD"/>
<path fill-rule="evenodd" clip-rule="evenodd" d="M11.18 6.58591C13.9489 6.3797 15.8942 7.53597 17.016 10.0547C17.6876 12.2348 17.2423 14.1488 15.68 15.7968C14.12 17.1497 12.3387 17.556 10.3363 17.0156C10.0127 16.9007 9.7002 16.7601 9.39879 16.5937C9.31287 16.5859 9.2269 16.5781 9.14098 16.5703C8.3613 16.732 7.58787 16.9195 6.82066 17.1328C7.01285 16.3718 7.21601 15.614 7.43004 14.8593C7.27329 14.4596 7.10923 14.0612 6.93785 13.664C6.2449 11.2903 6.83084 9.29814 8.69566 7.68747C9.44651 7.14006 10.2746 6.77284 11.18 6.58591Z" fill="#4BAE4F"/>
<path fill-rule="evenodd" clip-rule="evenodd" d="M9.86758 9.02342C10.0557 9.01564 10.2432 9.02346 10.4301 9.04686C10.4848 9.10156 10.5394 9.15621 10.5941 9.21092C10.766 9.61718 10.9379 10.0234 11.1098 10.4297C11.1446 10.5836 11.1133 10.7242 11.016 10.8515C10.8727 11.0179 10.7399 11.1898 10.6176 11.3672C11.0987 12.3271 11.8487 12.9833 12.8676 13.3359C12.8988 13.3281 12.9301 13.3203 12.9613 13.3125C13.1744 13.0839 13.3698 12.8417 13.5473 12.5859C13.5813 12.5597 13.6203 12.5441 13.6645 12.539C14.1842 12.7169 14.6763 12.9513 15.141 13.2422C15.2171 13.9485 14.9124 14.4094 14.227 14.625C13.6585 14.7583 13.1117 14.6959 12.5863 14.4375C11.0877 13.767 9.97047 12.6967 9.23477 11.2265C8.88677 10.3204 9.0977 9.58596 9.86758 9.02342Z" fill="#FDFEFD"/>
<g clip-path="url(#clip1_2600_3428)">
<path opacity="0.998" fill-rule="evenodd" clip-rule="evenodd" d="M10.8984 -0.0234375C11.6172 -0.0234375 12.336 -0.0234375 13.0547 -0.0234375C17.2568 0.486933 20.4208 2.56506 22.5469 6.21094C23.3295 7.68614 23.806 9.24862 23.9766 10.8984C23.9766 11.6172 23.9766 12.336 23.9766 13.0547C23.4662 17.2568 21.3881 20.4208 17.7422 22.5469C16.267 23.3295 14.7045 23.806 13.0547 23.9766C12.336 23.9766 11.6172 23.9766 10.8984 23.9766C6.69637 23.4662 3.53232 21.3881 1.40625 17.7422C0.623686 16.267 0.147122 14.7045 -0.0234375 13.0547C-0.0234375 12.336 -0.0234375 11.6172 -0.0234375 10.8984C0.486914 6.69642 2.56504 3.53237 6.21094 1.40625C7.68614 0.623686 9.24862 0.147122 10.8984 -0.0234375Z" fill="#2AA81A"/>
<path fill-rule="evenodd" clip-rule="evenodd" d="M11.3673 5.97667C14.6366 5.91072 16.7694 7.42633 17.7658 10.5235C18.2117 12.8262 17.5945 14.7872 15.9142 16.4064C13.8732 18.0146 11.6545 18.3036 9.25797 17.2735C8.22644 17.5159 7.19519 17.7425 6.16422 17.9532C6.07718 17.8978 6.0303 17.8197 6.0236 17.7189C6.25132 16.6975 6.47004 15.6741 6.67985 14.6485C5.63486 12.4054 5.83019 10.2804 7.26579 8.27355C8.32844 6.96484 9.69564 6.19923 11.3673 5.97667Z" fill="#FDFEFD"/>
<path fill-rule="evenodd" clip-rule="evenodd" d="M11.2261 7.28894C13.5941 7.10135 15.2895 8.07006 16.312 10.1952C16.9869 12.2538 16.5415 14.0273 14.9761 15.5155C13.5348 16.6139 11.9567 16.8639 10.2417 16.2655C9.9917 16.1287 9.73388 16.0115 9.46829 15.9139C8.8712 16.0652 8.26965 16.1902 7.6636 16.2889C7.76078 15.6936 7.87013 15.0999 7.99173 14.5077C7.9839 14.4452 7.97612 14.3827 7.96829 14.3202C6.83753 12.0743 7.17343 10.0821 8.9761 8.34363C9.64909 7.82514 10.3991 7.47358 11.2261 7.28894Z" fill="#2BA81B"/>
<path fill-rule="evenodd" clip-rule="evenodd" d="M9.86778 9.07007C10.0695 9.03707 10.2335 9.0996 10.36 9.25757C10.5319 9.63257 10.7037 10.0076 10.8756 10.3826C10.9069 10.5232 10.9069 10.6638 10.8756 10.8044C10.7662 10.9451 10.6568 11.0857 10.5475 11.2263C10.5092 11.3887 10.5248 11.545 10.5943 11.6951C10.9129 12.123 11.2801 12.5058 11.6959 12.8435C11.961 13.0543 12.2423 13.2418 12.5397 13.406C12.671 13.4414 12.7961 13.4258 12.9147 13.3591C13.0898 13.1283 13.3085 12.9643 13.5709 12.8669C14.0435 12.9851 14.5123 13.1179 14.9772 13.2654C15.1473 13.4084 15.202 13.588 15.1412 13.8044C14.7237 14.6187 14.0596 14.9547 13.149 14.8123C12.4424 14.6542 11.8018 14.3573 11.2272 13.9216C10.3939 13.3074 9.72983 12.5496 9.23497 11.6482C9.02952 11.1678 8.95138 10.6678 9.00059 10.1482C9.19864 9.70875 9.48772 9.34935 9.86778 9.07007Z" fill="#FDFEFD"/>
<circle cx="12" cy="12" r="12" fill="#EA4B98"/>
<g clip-path="url(#clip2_2600_3428)">
<path opacity="0.965" fill-rule="evenodd" clip-rule="evenodd" d="M11.4671 5.75204C14.1154 5.65161 16.116 6.72713 17.4691 8.9786C18.2759 10.5256 18.44 12.1389 17.9613 13.8184C17.2731 15.892 15.8923 17.2729 13.8187 17.961C11.381 18.6038 9.26183 18.0524 7.46127 16.3067C5.87399 14.5236 5.39091 12.4729 6.01205 10.1544C6.7002 8.08082 8.08107 6.69996 10.1546 6.0118C10.5886 5.88763 11.0261 5.80104 11.4671 5.75204ZM11.8773 6.46298C12.2913 6.47631 12.6331 6.64037 12.9027 6.95516C13.3525 7.53132 13.6761 8.1739 13.8734 8.8829C13.2413 8.93562 12.6078 8.95839 11.973 8.95126C11.3473 8.95861 10.7229 8.93583 10.0999 8.8829C10.2757 8.28224 10.5355 7.72168 10.8792 7.20126C11.0787 6.93784 11.3203 6.72365 11.6038 6.55868C11.699 6.52853 11.7901 6.49663 11.8773 6.46298ZM10.264 6.73641C10.292 6.74726 10.2966 6.76548 10.2777 6.7911C9.86189 7.41322 9.55654 8.08769 9.36166 8.81454C8.77601 8.7986 8.19269 8.73937 7.61166 8.6368C8.30332 7.73495 9.18743 7.1015 10.264 6.73641ZM13.6546 6.76376C14.7556 7.08751 15.6579 7.71186 16.3617 8.6368C15.7806 8.73937 15.1973 8.7986 14.6117 8.81454C14.4378 8.2025 14.1962 7.61917 13.8871 7.06454C13.8222 6.95251 13.7448 6.85225 13.6546 6.76376ZM7.17416 9.30673C7.8458 9.41121 8.52029 9.50234 9.1976 9.58016C9.05667 10.2561 8.98374 10.9397 8.97885 11.6309C8.14943 11.6309 7.31999 11.6309 6.49057 11.6309C6.53638 10.801 6.76424 10.0262 7.17416 9.30673ZM16.7718 9.30673C16.8692 9.41892 16.9467 9.54653 17.0042 9.68954C17.2797 10.3082 17.4392 10.9554 17.4828 11.6309C16.6533 11.6309 15.8239 11.6309 14.9945 11.6309C14.9919 10.9394 14.9189 10.2559 14.7757 9.58016C15.4474 9.50866 16.1128 9.41752 16.7718 9.30673ZM9.93588 9.60751C11.294 9.71617 12.652 9.71617 14.0101 9.60751C14.0261 9.61322 14.0398 9.62235 14.0511 9.63485C14.1816 10.2941 14.2591 10.9595 14.2835 11.6309C12.7523 11.6309 11.221 11.6309 9.68978 11.6309C9.71199 10.948 9.79402 10.2735 9.93588 9.60751ZM6.49057 12.3419C7.31999 12.3419 8.14943 12.3419 8.97885 12.3419C8.98145 13.0334 9.05437 13.717 9.1976 14.3927C8.5247 14.4694 7.85477 14.5605 7.18783 14.6661C6.76541 13.9501 6.53299 13.1754 6.49057 12.3419ZM9.68978 12.3419C11.221 12.3419 12.7523 12.3419 14.2835 12.3419C14.2591 13.0134 14.1816 13.6787 14.0511 14.338C14.0398 14.3505 14.0261 14.3596 14.0101 14.3653C12.6611 14.2563 11.3122 14.2563 9.96322 14.3653C9.9472 14.3596 9.93353 14.3505 9.92221 14.338C9.79175 13.6787 9.71426 13.0134 9.68978 12.3419ZM14.9945 12.3419C15.8239 12.3419 16.6533 12.3419 17.4828 12.3419C17.4403 13.1754 17.2079 13.9501 16.7855 14.6661C16.1191 14.5561 15.4492 14.4649 14.7757 14.3927C14.9167 13.7167 14.9896 13.0331 14.9945 12.3419ZM10.8929 15.0216C11.6312 15.017 12.3695 15.0216 13.1078 15.0352C13.364 15.0414 13.6192 15.0596 13.8734 15.0899C13.6976 15.6906 13.4378 16.2511 13.0941 16.7716C12.884 17.0547 12.6243 17.278 12.3148 17.4415C12.0292 17.5448 11.7558 17.5175 11.4945 17.3595C11.1596 17.1247 10.8907 16.8285 10.6878 16.4708C10.4354 16.0344 10.2395 15.5741 10.0999 15.0899C10.3681 15.0638 10.6324 15.041 10.8929 15.0216ZM9.17025 15.1309C9.23654 15.1225 9.30033 15.1317 9.36166 15.1583C9.51577 15.6981 9.72085 16.2176 9.97689 16.7169C10.0739 16.8973 10.1878 17.0659 10.3187 17.2227C9.21482 16.8848 8.31248 16.2559 7.61166 15.336C8.13368 15.2563 8.65321 15.188 9.17025 15.1309ZM14.6117 15.1309C15.1978 15.1743 15.7812 15.2427 16.3617 15.336C15.6598 16.2274 14.7711 16.8609 13.6956 17.2364C13.9082 16.8662 14.1087 16.4834 14.2972 16.088C14.4268 15.7767 14.5316 15.4577 14.6117 15.1309Z" fill="white"/>
</g>
</g>
</g>
<defs>
<clipPath id="clip0_2600_3428">
<rect width="24" height="24" fill="white"/>
</clipPath>
<clipPath id="clip1_2600_3428">
<rect width="24" height="24" fill="white"/>
</clipPath>
<clipPath id="clip2_2600_3428">
<rect width="14" height="14" fill="white" transform="translate(5 5)"/>
</clipPath>
</defs>
</svg>
