<svg width="48" height="48" viewBox="0 0 48 48" fill="none" xmlns="http://www.w3.org/2000/svg">
<g clip-path="url(#clip0_386_124)">
<path opacity="0.998" fill-rule="evenodd" clip-rule="evenodd" d="M21.7969 -0.046875C23.2343 -0.046875 24.6719 -0.046875 26.1094 -0.046875C34.5135 0.973866 40.8416 5.13012 45.0938 12.4219C46.6589 15.3723 47.612 18.4972 47.9531 21.7969C47.9531 23.2343 47.9531 24.6719 47.9531 26.1094C46.9324 34.5135 42.7762 40.8416 35.4844 45.0938C32.534 46.6589 29.409 47.612 26.1094 47.9531C24.6719 47.9531 23.2343 47.9531 21.7969 47.9531C13.3927 46.9324 7.06464 42.7762 2.8125 35.4844C1.24737 32.534 0.294244 29.409 -0.046875 26.1094C-0.046875 24.6719 -0.046875 23.2343 -0.046875 21.7969C0.973828 13.3928 5.13008 7.06475 12.4219 2.8125C15.3723 1.24737 18.4972 0.294244 21.7969 -0.046875Z" fill="#2AA81A"/>
<path fill-rule="evenodd" clip-rule="evenodd" d="M22.7343 11.9531C29.2728 11.8212 33.5385 14.8524 35.5312 21.0469C36.423 25.6522 35.1885 29.5741 31.8281 32.8125C27.746 36.0289 23.3085 36.607 18.5156 34.5469C16.4525 35.0316 14.39 35.4847 12.3281 35.9062C12.154 35.7954 12.0602 35.6391 12.0468 35.4375C12.5023 33.3948 12.9397 31.348 13.3593 29.2969C11.2694 24.8105 11.66 20.5606 14.5312 16.5469C16.6565 13.9294 19.3909 12.3982 22.7343 11.9531Z" fill="#FDFEFD"/>
<path fill-rule="evenodd" clip-rule="evenodd" d="M22.4532 14.5781C27.1892 14.2029 30.5799 16.1404 32.6251 20.3906C33.9747 24.5079 33.0841 28.0548 29.9532 31.0312C27.0707 33.2281 23.9145 33.7281 20.4844 32.5312C19.9844 32.2577 19.4687 32.0233 18.9376 31.8281C17.7434 32.1307 16.5403 32.3807 15.3282 32.5781C15.5225 31.3875 15.7412 30.2 15.9844 29.0156C15.9688 28.8907 15.9532 28.7656 15.9376 28.6406C13.676 24.1489 14.3478 20.1645 17.9532 16.6875C19.2992 15.6505 20.7992 14.9474 22.4532 14.5781Z" fill="#2BA81B"/>
<path fill-rule="evenodd" clip-rule="evenodd" d="M19.7343 18.1406C20.1377 18.0746 20.4659 18.1997 20.7187 18.5156C21.0625 19.2656 21.4062 20.0156 21.75 20.7656C21.8125 21.0469 21.8125 21.3281 21.75 21.6094C21.5312 21.8906 21.3124 22.1719 21.0937 22.4531C21.0171 22.7779 21.0484 23.0904 21.1875 23.3906C21.8245 24.2465 22.5589 25.0121 23.3906 25.6875C23.9208 26.109 24.4833 26.484 25.0781 26.8125C25.3409 26.8833 25.5909 26.8521 25.8281 26.7188C26.1783 26.2571 26.6159 25.929 27.1406 25.7344C28.0859 25.9707 29.0234 26.2363 29.9531 26.5313C30.2934 26.8172 30.4028 27.1765 30.2812 27.6094C29.4461 29.2379 28.1179 29.9098 26.2968 29.625C24.8837 29.3089 23.6024 28.7152 22.4531 27.8438C20.7866 26.6154 19.4584 25.0997 18.4687 23.2969C18.0578 22.336 17.9015 21.336 18 20.2969C18.3961 19.418 18.9742 18.6992 19.7343 18.1406Z" fill="#FDFEFD"/>
</g>
<defs>
<clipPath id="clip0_386_124">
<rect width="48" height="48" fill="white"/>
</clipPath>
</defs>
</svg>
