<svg width="58" height="57" viewBox="0 0 58 57" fill="none" xmlns="http://www.w3.org/2000/svg">
<g clip-path="url(#clip0_2024_305)" filter="url(#filter0_d_2024_305)">
<path opacity="0.995" fill-rule="evenodd" clip-rule="evenodd" d="M42.2324 1.51362C42.2324 5.19201 42.2324 8.87039 42.2324 12.5488C42.2324 12.5813 42.2324 12.6139 42.2324 12.6464C41.7461 13.1 41.2578 13.5558 40.7676 14.0136C40.0661 13.3284 39.35 12.6611 38.6192 12.0117C37.4311 11.5478 36.6824 11.9384 36.3731 13.1835C36.3951 13.4777 36.4765 13.7543 36.6172 14.0136C37.8114 15.2732 39.0647 16.4613 40.377 17.5781C40.7908 17.6584 41.1815 17.5933 41.5488 17.3828C41.7315 17.1835 41.9268 17.0045 42.1348 16.8457C42.2322 19.5307 42.2648 22.2326 42.2324 24.9511C37.1908 24.7409 33.5939 22.3645 31.4414 17.8222C30.8203 16.3556 30.5111 14.8256 30.5137 13.2324C30.5642 9.41485 32.0616 6.30613 35.0059 3.9062C37.1411 2.30241 39.55 1.50488 42.2324 1.51362Z" fill="#32D636"/>
<path fill-rule="evenodd" clip-rule="evenodd" d="M42.2324 1.51367C47.7157 1.74092 51.443 4.41019 53.4141 9.52148C53.6387 10.2729 53.8178 11.0215 53.9512 11.7676C53.9512 12.7441 53.9512 13.7207 53.9512 14.6973C53.5802 17.0989 52.6036 19.2148 51.0215 21.0449C48.6732 23.609 45.7436 24.911 42.2324 24.9512C42.2647 22.2326 42.2322 19.5308 42.1348 16.8457C42.1348 16.7806 42.1673 16.748 42.2324 16.748C44.0845 14.9448 45.9237 13.1219 47.75 11.2793C48.3064 10.3735 48.16 9.60855 47.3105 8.98438C46.8548 8.78906 46.3991 8.78906 45.9434 8.98438C44.6896 10.1568 43.4525 11.345 42.2324 12.5488C42.2324 8.87044 42.2324 5.19206 42.2324 1.51367Z" fill="#10BB66"/>
<path fill-rule="evenodd" clip-rule="evenodd" d="M42.2324 16.748C42.2324 15.3809 42.2324 14.0137 42.2324 12.6465C42.2324 12.614 42.2324 12.5813 42.2324 12.5488C43.4525 11.345 44.6896 10.1568 45.9434 8.98438C46.3991 8.78906 46.8548 8.78906 47.3105 8.98438C48.16 9.60855 48.3064 10.3735 47.75 11.2793C45.9237 13.1219 44.0845 14.9448 42.2324 16.748Z" fill="#A2D8F3"/>
<path fill-rule="evenodd" clip-rule="evenodd" d="M42.2324 12.6465C42.2324 14.0137 42.2324 15.3809 42.2324 16.7481C42.1673 16.7481 42.1348 16.7806 42.1348 16.8457C41.9268 17.0046 41.7314 17.1836 41.5488 17.3828C41.1814 17.5934 40.7908 17.6585 40.377 17.5781C39.0646 16.4613 37.8114 15.2733 36.6172 14.0137C36.4765 13.7544 36.3951 13.4778 36.373 13.1836C36.6824 11.9385 37.4311 11.5479 38.6191 12.0117C39.35 12.6612 40.0661 13.3284 40.7676 14.0137C41.2578 13.5559 41.7461 13.1001 42.2324 12.6465Z" fill="#B6DFF4"/>
<path opacity="0.999" fill-rule="evenodd" clip-rule="evenodd" d="M27.584 13.2324C27.584 24.9512 27.584 36.6699 27.584 48.3887C20.8456 48.405 14.1073 48.3887 7.36914 48.3399C5.59358 47.85 4.45426 46.727 3.95117 44.9707C3.95117 35.5306 3.95117 26.0905 3.95117 16.6504C4.45426 14.8942 5.59358 13.7711 7.36914 13.2813C14.1073 13.2324 20.8456 13.2161 27.584 13.2324Z" fill="#E4E4E5"/>
<path fill-rule="evenodd" clip-rule="evenodd" d="M27.584 13.2324C28.5605 13.2324 29.5371 13.2324 30.5137 13.2324C30.511 14.8257 30.8203 16.3557 31.4414 17.8223C33.5938 22.3646 37.1908 24.7409 42.2324 24.9512C45.7436 24.911 48.6732 23.609 51.0215 21.0449C51.0378 29.0202 51.0215 36.9955 50.9727 44.9707C50.5007 46.7448 49.3776 47.8679 47.6035 48.3398C40.9304 48.3887 34.2572 48.405 27.584 48.3887C27.584 36.6699 27.584 24.9512 27.584 13.2324Z" fill="#C7C5CC"/>
<path fill-rule="evenodd" clip-rule="evenodd" d="M31.5879 27.8808C32.8262 27.8335 33.4285 28.4194 33.3946 29.6386C32.9835 30.7089 32.2511 31.018 31.1973 30.5664C30.193 29.5074 30.3232 28.6123 31.5879 27.8808Z" fill="#8B8892"/>
<path fill-rule="evenodd" clip-rule="evenodd" d="M37.4473 27.8808C38.6856 27.8335 39.2878 28.4194 39.2539 29.6386C38.8429 30.7089 38.1105 31.018 37.0567 30.5664C36.0524 29.5074 36.1826 28.6123 37.4473 27.8808Z" fill="#8B8892"/>
<path fill-rule="evenodd" clip-rule="evenodd" d="M43.3067 27.8808C44.545 27.8335 45.1472 28.4194 45.1133 29.6386C44.7023 30.7089 43.9699 31.018 42.9161 30.5664C41.9118 29.5074 42.0419 28.6123 43.3067 27.8808Z" fill="#8B8892"/>
<path fill-rule="evenodd" clip-rule="evenodd" d="M31.5879 33.7402C35.7547 33.7239 39.9214 33.7402 44.0879 33.7891C45.0917 34.25 45.3684 34.9824 44.918 35.9863C44.6992 36.2697 44.4226 36.4814 44.0879 36.6211C39.9212 36.6862 35.7546 36.6862 31.5879 36.6211C30.4963 36.0649 30.2685 35.2674 30.9043 34.2285C31.1215 34.0397 31.3494 33.8769 31.5879 33.7402Z" fill="#8B8892"/>
<path fill-rule="evenodd" clip-rule="evenodd" d="M15.6699 24.9512C15.6699 30.8105 15.6699 36.6699 15.6699 42.5293C13.9703 42.574 12.2777 42.5252 10.5917 42.3828C9.86906 41.8354 9.60865 41.1029 9.81048 40.1855C9.84726 37.2295 11.2144 35.1624 13.912 33.9844C14.3983 33.8942 14.8866 33.8129 15.3769 33.7402C12.7769 33.3209 11.4098 31.7909 11.2753 29.1504C11.6276 26.5846 13.0924 25.1848 15.6699 24.9512Z" fill="#23AAF6"/>
<path fill-rule="evenodd" clip-rule="evenodd" d="M15.6699 24.9512C17.9456 25.0942 19.3941 26.2661 20.0156 28.4668C20.2604 30.695 19.3978 32.3389 17.4277 33.3984C17.0138 33.5364 16.5906 33.6341 16.1582 33.6914C20.2702 34.6499 22.0443 37.2378 21.4805 41.4551C21.3818 41.8792 21.1377 42.1885 20.748 42.3828C19.0621 42.5252 17.3694 42.574 15.6699 42.5293C15.6699 36.6699 15.6699 30.8105 15.6699 24.9512Z" fill="#1789FB"/>
<path fill-rule="evenodd" clip-rule="evenodd" d="M31.5879 39.5996C35.7547 39.5833 39.9214 39.5996 44.0879 39.6485C45.0917 40.1094 45.3684 40.8418 44.918 41.8457C44.6992 42.1291 44.4226 42.3407 44.0879 42.4805C39.9212 42.5456 35.7546 42.5456 31.5879 42.4805C30.4963 41.9242 30.2685 41.1268 30.9043 40.0879C31.1215 39.899 31.3494 39.7362 31.5879 39.5996Z" fill="#8B8892"/>
<path fill-rule="evenodd" clip-rule="evenodd" d="M42.1836 25.8179C48.6961 25.8179 53.9756 20.5384 53.9756 14.0259C53.9756 7.51334 48.6961 2.23389 42.1836 2.23389C35.6711 2.23389 30.3916 7.51334 30.3916 14.0259C30.3916 16.1408 30.9484 18.1256 31.9233 19.8419L30.3916 25.8179L36.5528 24.3892C38.226 25.3002 40.1443 25.8179 42.1836 25.8179ZM42.1836 24.0038C47.6942 24.0038 52.1615 19.5365 52.1615 14.0259C52.1615 8.51531 47.6942 4.04804 42.1836 4.04804C36.673 4.04804 32.2058 8.51531 32.2058 14.0259C32.2058 16.1536 32.8717 18.1257 34.0066 19.7452L33.1128 23.0966L36.5234 22.244C38.1317 23.3539 40.0818 24.0038 42.1836 24.0038Z" fill="#BFC8D0"/>
<path d="M52.291 13.1836C52.291 18.7658 47.7658 23.291 42.1836 23.291C40.0545 23.291 38.0791 22.6327 36.4499 21.5085L32.995 22.3722L33.9004 18.9772C32.7508 17.3366 32.0762 15.3389 32.0762 13.1836C32.0762 7.60142 36.6014 3.07617 42.1836 3.07617C47.7658 3.07617 52.291 7.60142 52.291 13.1836Z" fill="url(#paint0_linear_2024_305)"/>
<path fill-rule="evenodd" clip-rule="evenodd" d="M42.1836 24.9756C48.6961 24.9756 53.9756 19.6961 53.9756 13.1836C53.9756 6.67105 48.6961 1.3916 42.1836 1.3916C35.6711 1.3916 30.3916 6.67105 30.3916 13.1836C30.3916 15.2985 30.9484 17.2833 31.9233 18.9996L30.3916 24.9756L36.5528 23.5469C38.226 24.4579 40.1443 24.9756 42.1836 24.9756ZM42.1836 23.1615C47.6942 23.1615 52.1615 18.6942 52.1615 13.1836C52.1615 7.67299 47.6942 3.20576 42.1836 3.20576C36.673 3.20576 32.2058 7.67299 32.2058 13.1836C32.2058 15.3113 32.8717 17.2834 34.0066 18.9029L33.1128 22.2543L36.5234 21.4017C38.1317 22.5116 40.0818 23.1615 42.1836 23.1615Z" fill="white"/>
<path d="M39.2355 7.70862C38.9552 7.14549 38.5251 7.19534 38.0906 7.19534C37.3141 7.19534 36.1033 8.12546 36.1033 9.85654C36.1033 11.2752 36.7284 12.8281 38.8349 15.1512C40.8679 17.3932 43.5391 18.553 45.7567 18.5135C47.9742 18.474 48.4305 16.5657 48.4305 15.9212C48.4305 15.6356 48.2532 15.4931 48.1311 15.4544C47.3754 15.0917 45.9816 14.4159 45.6645 14.289C45.3474 14.1621 45.1818 14.3338 45.0789 14.4272C44.7913 14.7012 44.2213 15.5089 44.026 15.6906C43.8309 15.8723 43.5398 15.7803 43.4187 15.7117C42.9731 15.5329 41.7648 14.9954 40.8017 14.0617C39.6106 12.9071 39.5407 12.5098 39.3163 12.1562C39.1368 11.8733 39.2685 11.6998 39.3342 11.6239C39.5909 11.3278 39.9452 10.8707 40.1042 10.6435C40.263 10.4162 40.1369 10.0713 40.0612 9.85654C39.7357 8.93256 39.4598 8.15908 39.2355 7.70862Z" fill="white"/>
</g>
<defs>
<filter id="filter0_d_2024_305" x="0" y="0" width="58" height="58" filterUnits="userSpaceOnUse" color-interpolation-filters="sRGB">
<feFlood flood-opacity="0" result="BackgroundImageFix"/>
<feColorMatrix in="SourceAlpha" type="matrix" values="0 0 0 0 0 0 0 0 0 0 0 0 0 0 0 0 0 0 127 0" result="hardAlpha"/>
<feOffset dy="4"/>
<feGaussianBlur stdDeviation="2"/>
<feComposite in2="hardAlpha" operator="out"/>
<feColorMatrix type="matrix" values="0 0 0 0 0 0 0 0 0 0 0 0 0 0 0 0 0 0 0.25 0"/>
<feBlend mode="normal" in2="BackgroundImageFix" result="effect1_dropShadow_2024_305"/>
<feBlend mode="normal" in="SourceGraphic" in2="effect1_dropShadow_2024_305" result="shape"/>
</filter>
<linearGradient id="paint0_linear_2024_305" x1="51.0276" y1="5.60303" x2="32.0762" y2="23.291" gradientUnits="userSpaceOnUse">
<stop stop-color="#5BD066"/>
<stop offset="1" stop-color="#27B43E"/>
</linearGradient>
<clipPath id="clip0_2024_305">
<rect width="50" height="50" fill="white" transform="translate(4)"/>
</clipPath>
</defs>
</svg>
