<svg width="31" height="34" viewBox="0 0 31 34" fill="none" xmlns="http://www.w3.org/2000/svg">
<g clip-path="url(#clip0_3535_34)">
<path opacity="0.999" fill-rule="evenodd" clip-rule="evenodd" d="M2.72461 0C11.2416 0 19.7584 0 28.2754 0C29.7285 0.398438 30.6367 1.39453 31 2.98828C31 12.3294 31 21.6706 31 31.0117C30.6367 32.6055 29.7285 33.6016 28.2754 34C19.7584 34 11.2416 34 2.72461 34C1.27148 33.6016 0.363281 32.6055 0 31.0117C0 21.6706 0 12.3294 0 2.98828C0.363281 1.39453 1.27148 0.398438 2.72461 0Z" fill="white"/>
<path fill-rule="evenodd" clip-rule="evenodd" d="M4.26855 11.9863C4.07401 11.9657 3.89237 11.9878 3.72363 12.0527C3.69075 12.0487 3.67057 12.0266 3.66309 11.9863C3.87378 11.8996 4.0756 11.8996 4.26855 11.9863Z" fill="white"/>
<path fill-rule="evenodd" clip-rule="evenodd" d="M15.3486 11.9863C15.5378 11.9213 15.7396 11.8991 15.9541 11.9199C15.9685 12.0056 15.9483 12.072 15.8936 12.1191C15.7429 11.9937 15.5613 11.9494 15.3486 11.9863Z" fill="white"/>
<path fill-rule="evenodd" clip-rule="evenodd" d="M4.29883 12.0195C4.93974 12.0885 5.39384 12.4427 5.66113 13.082C6.12377 14.9346 6.56782 16.794 6.99316 18.6601C7.42444 16.9819 7.84827 15.2995 8.26465 13.6133C8.63665 12.662 9.29255 12.2746 10.2324 12.4512C10.6762 12.5338 11.0092 12.7884 11.2314 13.2148C11.3881 13.531 11.5092 13.863 11.5947 14.2109C11.9487 15.6976 12.312 17.1807 12.6846 18.6601C13.1438 16.8059 13.5878 14.9466 14.0166 13.082C14.2947 12.4559 14.7488 12.1018 15.3789 12.0195C15.5915 11.9827 15.7732 12.027 15.9238 12.1523C15.1558 15.4236 14.3687 18.6886 13.5625 21.9472C12.339 22.1453 11.6024 21.5808 11.3525 20.2539C10.9367 18.3631 10.4927 16.4815 10.0205 14.6094C9.89941 14.4323 9.77832 14.4323 9.65723 14.6094C9.20633 16.344 8.80267 18.0927 8.44629 19.8555C8.33961 20.311 8.19829 20.7537 8.02246 21.1836C7.54632 21.877 6.91058 22.1426 6.11523 21.9805C5.30522 18.6898 4.51811 15.3916 3.75391 12.0859C3.92264 12.021 4.10428 11.9989 4.29883 12.0195Z" fill="#030203"/>
<path fill-rule="evenodd" clip-rule="evenodd" d="M17.6495 11.9863C17.811 11.9863 17.9724 11.9863 18.1339 11.9863C18.1339 12.1413 18.1339 12.2962 18.1339 12.4512C18.1335 12.7622 18.0325 13.0278 17.8312 13.248C17.4292 13.5319 17.0155 13.7976 16.5899 14.0449C16.4145 13.2869 16.5861 12.656 17.1046 12.1523C17.2749 12.0495 17.4565 11.9942 17.6495 11.9863Z" fill="#030203"/>
<path fill-rule="evenodd" clip-rule="evenodd" d="M19.708 21.9473C19.4536 21.9683 19.2114 21.9462 18.9814 21.8809C19.9626 20.249 20.9515 18.6221 21.9482 17C20.9638 15.3225 19.9547 13.6623 18.9209 12.0196C19.6363 11.8355 20.3023 11.9684 20.9189 12.418C21.6217 13.3657 22.2776 14.3508 22.8867 15.3731C22.9916 15.5127 23.1127 15.5348 23.25 15.4395C23.8799 14.3569 24.5762 13.3276 25.3389 12.3516C25.8717 11.9566 26.457 11.8238 27.0947 11.9531C27.1829 11.9812 27.2132 12.0366 27.1855 12.1192C26.1984 13.7441 25.1994 15.36 24.1885 16.9668C25.2126 18.6156 26.2217 20.2757 27.2158 21.9473C26.5444 22.0944 25.9188 21.9726 25.3389 21.5821C24.6019 20.6844 23.9459 19.7215 23.3711 18.6934C23.1895 18.4278 23.0078 18.4278 22.8262 18.6934C22.2402 19.7126 21.5842 20.6755 20.8584 21.5821C20.5064 21.817 20.1229 21.9387 19.708 21.9473Z" fill="#030203"/>
<path fill-rule="evenodd" clip-rule="evenodd" d="M17.6494 11.9863C17.8182 11.9214 17.9998 11.8993 18.1943 11.9199C18.2129 12.1115 18.1927 12.2886 18.1338 12.4512C18.1338 12.2962 18.1338 12.1413 18.1338 11.9863C17.9723 11.9863 17.8109 11.9863 17.6494 11.9863Z" fill="white"/>
<path fill-rule="evenodd" clip-rule="evenodd" d="M18.0733 13.7129C18.1337 15.9593 18.1539 18.2172 18.1338 20.4863C18.2234 21.3867 17.8601 21.8848 17.044 21.9805C16.8666 22.0321 16.695 22.021 16.5293 21.9473C16.4889 19.623 16.4889 17.2988 16.5293 14.9746C16.5917 14.7728 16.7028 14.6068 16.8623 14.4766C17.3173 14.305 17.7209 14.0504 18.0733 13.7129Z" fill="#030203"/>
<path fill-rule="evenodd" clip-rule="evenodd" d="M18.1338 20.4863C18.1539 18.2172 18.1337 15.9593 18.0732 13.7129C18.0904 13.6605 18.1207 13.6162 18.1641 13.5801C18.2144 15.8934 18.2043 18.1954 18.1338 20.4863Z" fill="#030203"/>
<path fill-rule="evenodd" clip-rule="evenodd" d="M18.9814 21.8809C19.2114 21.9461 19.4536 21.9683 19.708 21.9473C19.4547 22.0343 19.1924 22.0343 18.9209 21.9473C18.9284 21.907 18.9486 21.8848 18.9814 21.8809Z" fill="white"/>
</g>
<defs>
<clipPath id="clip0_3535_34">
<rect width="31" height="34" fill="white"/>
</clipPath>
</defs>
</svg>
