<svg width="34" height="38" viewBox="0 0 34 38" fill="none" xmlns="http://www.w3.org/2000/svg">
<g clip-path="url(#clip0_1633_24)">
<path opacity="0.999" fill-rule="evenodd" clip-rule="evenodd" d="M2.95508 -0.0366211C12.2962 -0.0366211 21.6373 -0.0366211 30.9785 -0.0366211C32.5723 0.400375 33.5684 1.49286 33.9668 3.24085C33.9668 13.486 33.9668 23.7311 33.9668 33.9762C33.5684 35.7242 32.5723 36.8167 30.9785 37.2537C21.6373 37.2537 12.2962 37.2537 2.95508 37.2537C1.36133 36.8167 0.365234 35.7242 -0.0332031 33.9762C-0.0332031 23.7311 -0.0332031 13.486 -0.0332031 3.24085C0.365234 1.49286 1.36133 0.400375 2.95508 -0.0366211Z" fill="#EA4B98"/>
<path fill-rule="evenodd" clip-rule="evenodd" d="M4.68164 13.1465C4.46827 13.124 4.26905 13.1482 4.08398 13.2194C4.04792 13.215 4.02579 13.1907 4.01758 13.1465C4.24866 13.0514 4.47002 13.0514 4.68164 13.1465Z" fill="white"/>
<path fill-rule="evenodd" clip-rule="evenodd" d="M16.834 13.1465C17.0415 13.0752 17.2628 13.0509 17.498 13.0737C17.5138 13.1677 17.4917 13.2406 17.4316 13.2922C17.2664 13.1547 17.0672 13.1061 16.834 13.1465Z" fill="white"/>
<path fill-rule="evenodd" clip-rule="evenodd" d="M4.68164 13.1461C5.38458 13.2218 5.88262 13.6102 6.17578 14.3114C6.68319 16.3433 7.17021 18.3826 7.63672 20.4294C8.10973 18.5887 8.57457 16.7435 9.03125 14.8941C9.43925 13.8508 10.1586 13.4259 11.1895 13.6195C11.6762 13.7102 12.0414 13.9894 12.2852 14.4571C12.4569 14.8038 12.5898 15.168 12.6836 15.5496C13.0719 17.1801 13.4703 18.8068 13.8789 20.4294C14.3826 18.3957 14.8696 16.3564 15.3398 14.3114C15.6448 13.6248 16.1429 13.2363 16.834 13.1461C17.0672 13.1057 17.2664 13.1543 17.4316 13.2918C16.5893 16.8796 15.726 20.4606 14.8418 24.0346C13.4999 24.2518 12.692 23.6327 12.418 22.1773C11.9619 20.1036 11.4749 18.0399 10.957 15.9866C10.8242 15.7923 10.6914 15.7923 10.5586 15.9866C10.0641 17.8891 9.62134 19.807 9.23047 21.7403C9.11346 22.24 8.95847 22.7256 8.76562 23.197C8.24341 23.9575 7.54614 24.2489 6.67383 24.071C5.78543 20.4618 4.92214 16.8445 4.08398 13.2189C4.26905 13.1478 4.46827 13.1235 4.68164 13.1461Z" fill="white"/>
<path fill-rule="evenodd" clip-rule="evenodd" d="M19.3574 13.1465C19.5345 13.1465 19.7115 13.1465 19.8886 13.1465C19.8886 13.3164 19.8886 13.4864 19.8886 13.6563C19.8882 13.9974 19.7775 14.2887 19.5566 14.5303C19.1158 14.8417 18.662 15.133 18.1953 15.4043C18.0029 14.5729 18.191 13.881 18.7597 13.3286C18.9464 13.2157 19.1457 13.1551 19.3574 13.1465Z" fill="white"/>
<path fill-rule="evenodd" clip-rule="evenodd" d="M21.6152 24.0714C21.3362 24.0945 21.0706 24.0702 20.8184 23.9986C21.8945 22.2088 22.9791 20.4244 24.0723 18.6454C22.9926 16.8055 21.8858 14.9847 20.752 13.183C21.5365 12.9811 22.267 13.1268 22.9434 13.6199C23.7141 14.6594 24.4335 15.7398 25.1016 16.861C25.2166 17.0141 25.3495 17.0384 25.5 16.9338C26.1908 15.7465 26.9545 14.6176 27.791 13.5471C28.3755 13.1139 29.0174 12.9682 29.7168 13.1101C29.8135 13.1409 29.8467 13.2016 29.8164 13.2922C28.7337 15.0744 27.638 16.8467 26.5293 18.609C27.6526 20.4173 28.7593 22.2381 29.8496 24.0714C29.1132 24.2328 28.4271 24.0992 27.791 23.6709C26.9827 22.6864 26.2633 21.6303 25.6328 20.5026C25.4336 20.2113 25.2344 20.2113 25.0352 20.5026C24.3925 21.6205 23.673 22.6765 22.877 23.6709C22.4909 23.9285 22.0703 24.062 21.6152 24.0714Z" fill="white"/>
<path fill-rule="evenodd" clip-rule="evenodd" d="M19.3574 13.1464C19.5425 13.0753 19.7417 13.051 19.9551 13.0736C19.9754 13.2837 19.9533 13.478 19.8887 13.6563C19.8887 13.4863 19.8887 13.3163 19.8887 13.1464C19.7116 13.1464 19.5345 13.1464 19.3574 13.1464Z" fill="white"/>
<path fill-rule="evenodd" clip-rule="evenodd" d="M19.8223 15.04C19.8886 17.5039 19.9107 19.9802 19.8887 22.469C19.987 23.4565 19.5885 24.0028 18.6934 24.1077C18.4989 24.1643 18.3107 24.1521 18.1289 24.0713C18.0846 21.5221 18.0846 18.973 18.1289 16.4239C18.1974 16.2025 18.3192 16.0204 18.4942 15.8776C18.9931 15.6895 19.4359 15.4102 19.8223 15.04Z" fill="white"/>
<path fill-rule="evenodd" clip-rule="evenodd" d="M19.8887 22.4686C19.9107 19.9799 19.8885 17.5036 19.8223 15.0397C19.8411 14.9822 19.8743 14.9337 19.9219 14.894C19.9771 17.4312 19.966 19.9561 19.8887 22.4686Z" fill="white"/>
<path fill-rule="evenodd" clip-rule="evenodd" d="M20.8184 23.9985C21.0706 24.0701 21.3362 24.0945 21.6152 24.0714C21.3375 24.1669 21.0497 24.1669 20.752 24.0714C20.7602 24.0272 20.7823 24.0029 20.8184 23.9985Z" fill="white"/>
</g>
<defs>
<clipPath id="clip0_1633_24">
<rect width="34" height="37.2903" fill="white"/>
</clipPath>
</defs>
</svg>
