<svg width="34" height="34" viewBox="0 0 34 34" fill="none" xmlns="http://www.w3.org/2000/svg">
<path fill-rule="evenodd" clip-rule="evenodd" d="M30.8308 6.83984H3.15554C1.40412 6.83984 -0.013699 8.27156 9.98749e-05 10.0091V20.5732C9.98749e-05 22.3246 1.41802 23.7424 3.16944 23.7424H16.2773L22.2683 27.0785L20.9061 23.7424H30.8308C32.5822 23.7424 34 22.3246 34 20.5732V10.0091C34 8.25766 32.5822 6.83984 30.8308 6.83984ZM2.5718 9.28627C2.18259 9.31407 1.89068 9.45308 1.69608 9.71717C1.50148 9.96738 1.43198 10.2871 1.47368 10.6485C2.29379 15.8611 3.0583 19.3778 3.76721 21.1987C4.04522 21.8659 4.36492 22.1857 4.74022 22.1579C5.32402 22.1161 6.01903 21.3099 6.83915 19.7392C7.27005 18.8496 7.93726 17.5152 8.84078 15.7359C9.59135 18.3631 10.62 20.3369 11.9127 21.6574C12.2742 22.0327 12.6494 22.1995 13.0108 22.1717C13.3306 22.1439 13.5807 21.9771 13.7475 21.6713C13.8865 21.4072 13.9421 21.1014 13.9143 20.7539C13.8309 19.489 13.9561 17.7237 14.3036 15.4579C14.6649 13.1227 15.1097 11.4408 15.6519 10.44C15.7631 10.2315 15.8047 10.023 15.7909 9.77278C15.7631 9.45307 15.624 9.18897 15.36 8.98047C15.0959 8.77197 14.8039 8.67467 14.4842 8.70246C14.0811 8.73026 13.7753 8.92486 13.5668 9.31407C12.7051 10.8848 12.0934 13.4285 11.7321 16.9592C11.2038 15.6248 10.759 14.054 10.4115 12.2053C10.2586 11.3852 9.88332 10.996 9.27166 11.0377C8.85467 11.0655 8.50717 11.3435 8.22917 11.8717L5.18503 17.6681C4.68462 15.6525 4.21201 13.1922 3.78111 10.2871C3.68381 9.56428 3.2807 9.23066 2.5718 9.28627ZM29.3574 10.2871C30.3444 10.4956 31.0811 11.0238 31.5814 11.8995C32.0263 12.6502 32.2486 13.5537 32.2486 14.6379C32.2486 16.0696 31.8873 17.3762 31.1644 18.5716C30.3304 19.9617 29.2462 20.6566 27.8979 20.6566C27.6616 20.6566 27.4114 20.6288 27.1473 20.5732C26.1604 20.3647 25.4237 19.8366 24.9232 18.9609C24.4785 18.1963 24.2561 17.2789 24.2561 16.2086C24.2561 14.7769 24.6175 13.4703 25.3403 12.2888C26.1882 10.8987 27.2724 10.2037 28.6068 10.2037C28.8431 10.2037 29.0933 10.2315 29.3574 10.2871ZM28.7737 17.8071C29.288 17.3484 29.6354 16.6673 29.8301 15.7499C29.8857 15.4302 29.9273 15.0827 29.9273 14.7213C29.9273 14.3182 29.8439 13.8873 29.6771 13.4564C29.4686 12.9143 29.1906 12.6224 28.857 12.5529C28.3566 12.4556 27.8701 12.7336 27.4114 13.4147C27.0361 13.9429 26.7998 14.4989 26.6747 15.0688C26.6052 15.3885 26.5773 15.736 26.5773 16.0835C26.5773 16.4866 26.6608 16.9175 26.8276 17.3484C27.0361 17.8905 27.3141 18.1824 27.6477 18.2519C27.9952 18.3214 28.3705 18.1685 28.7737 17.8071ZM22.866 11.8995C22.3656 11.0238 21.615 10.4956 20.642 10.2871C20.3778 10.2315 20.1277 10.2037 19.8913 10.2037C18.557 10.2037 17.4728 10.8987 16.6248 12.2888C15.902 13.4703 15.5406 14.7769 15.5406 16.2086C15.5406 17.2789 15.7631 18.1963 16.2078 18.9609C16.7083 19.8366 17.445 20.3647 18.4318 20.5732C18.6959 20.6288 18.9461 20.6566 19.1825 20.6566C20.5308 20.6566 21.615 19.9617 22.449 18.5716C23.1719 17.3762 23.5332 16.0696 23.5332 14.6379C23.5332 13.5537 23.3108 12.6502 22.866 11.8995ZM21.1146 15.7499C20.92 16.6673 20.5725 17.3484 20.0581 17.8071C19.6551 18.1685 19.2798 18.3214 18.9323 18.2519C18.5986 18.1824 18.3206 17.8905 18.1122 17.3484C17.9453 16.9175 17.8619 16.4866 17.8619 16.0835C17.8619 15.736 17.8897 15.3885 17.9593 15.0688C18.0843 14.4989 18.3206 13.9429 18.6959 13.4147C19.1547 12.7336 19.6412 12.4556 20.1416 12.5529C20.4752 12.6224 20.7532 12.9143 20.9617 13.4564C21.1285 13.8873 21.2119 14.3182 21.2119 14.7213C21.2119 15.0827 21.1841 15.4302 21.1146 15.7499Z" fill="#EA4B98"/>
</svg>
