<svg width="31" height="34" viewBox="0 0 31 34" fill="none" xmlns="http://www.w3.org/2000/svg">
<path fill-rule="evenodd" clip-rule="evenodd" d="M28.1104 6.83984H2.87711C1.28023 6.83984 -0.0124902 8.27156 9.10624e-05 10.0091V20.5732C9.10624e-05 22.3246 1.2929 23.7424 2.88979 23.7424H14.841L20.3035 27.0785L19.0614 23.7424H28.1104C29.7073 23.7424 31 22.3246 31 20.5732V10.0091C31 8.25766 29.7073 6.83984 28.1104 6.83984ZM2.34487 9.28627C1.99001 9.31407 1.72386 9.45308 1.54643 9.71717C1.369 9.96738 1.30563 10.2871 1.34365 10.6485C2.0914 15.8611 2.78845 19.3778 3.43481 21.1987C3.68828 21.8659 3.97978 22.1857 4.32197 22.1579C4.85426 22.1161 5.48794 21.3099 6.23569 19.7392C6.62857 18.8496 7.23692 17.5152 8.06071 15.7359C8.74505 18.3631 9.6829 20.3369 10.8616 21.6574C11.1911 22.0327 11.5333 22.1995 11.8628 22.1717C12.1543 22.1439 12.3824 21.9771 12.5345 21.6713C12.6612 21.4072 12.7119 21.1014 12.6866 20.7539C12.6105 19.489 12.7247 17.7237 13.0415 15.4579C13.3709 13.1227 13.7765 11.4408 14.2708 10.44C14.3722 10.2315 14.4102 10.023 14.3976 9.77278C14.3722 9.45307 14.2455 9.18897 14.0047 8.98047C13.7639 8.77197 13.4977 8.67467 13.2062 8.70246C12.8387 8.73026 12.5598 8.92486 12.3698 9.31407C11.584 10.8848 11.0263 13.4285 10.6969 16.9592C10.2152 15.6248 9.80964 14.054 9.49282 12.2053C9.35344 11.3852 9.01126 10.996 8.45357 11.0377C8.07337 11.0655 7.75654 11.3435 7.50306 11.8717L4.72753 17.6681C4.27127 15.6525 3.84036 13.1922 3.44748 10.2871C3.35877 9.56428 2.99123 9.23066 2.34487 9.28627ZM26.7671 10.2871C27.6669 10.4956 28.3386 11.0238 28.7948 11.8995C29.2004 12.6502 29.4032 13.5537 29.4032 14.6379C29.4032 16.0696 29.0737 17.3762 28.4146 18.5716C27.6542 19.9617 26.6657 20.6566 25.4363 20.6566C25.2209 20.6566 24.9928 20.6288 24.7519 20.5732C23.8521 20.3647 23.1804 19.8366 22.7241 18.9609C22.3186 18.1963 22.1158 17.2789 22.1158 16.2086C22.1158 14.7769 22.4454 13.4703 23.1044 12.2888C23.8775 10.8987 24.866 10.2037 26.0827 10.2037C26.2981 10.2037 26.5263 10.2315 26.7671 10.2871ZM26.2348 17.8071C26.7037 17.3484 27.0206 16.6673 27.198 15.7499C27.2487 15.4302 27.2867 15.0827 27.2867 14.7213C27.2867 14.3182 27.2106 13.8873 27.0585 13.4564C26.8685 12.9143 26.615 12.6224 26.3108 12.5529C25.8546 12.4556 25.411 12.7336 24.9928 13.4147C24.6506 13.9429 24.4351 14.4989 24.3211 15.0688C24.2576 15.3885 24.2323 15.736 24.2323 16.0835C24.2323 16.4866 24.3083 16.9175 24.4604 17.3484C24.6506 17.8905 24.904 18.1824 25.2082 18.2519C25.525 18.3214 25.8672 18.1685 26.2348 17.8071ZM20.8484 11.8995C20.3921 11.0238 19.7078 10.4956 18.8206 10.2871C18.5798 10.2315 18.3517 10.2037 18.1362 10.2037C16.9196 10.2037 15.9311 10.8987 15.158 12.2888C14.4989 13.4703 14.1694 14.7769 14.1694 16.2086C14.1694 17.2789 14.3722 18.1963 14.7777 18.9609C15.234 19.8366 15.9057 20.3647 16.8055 20.5732C17.0463 20.6288 17.2744 20.6566 17.4899 20.6566C18.7192 20.6566 19.7078 19.9617 20.4682 18.5716C21.1273 17.3762 21.4567 16.0696 21.4567 14.6379C21.4567 13.5537 21.2539 12.6502 20.8484 11.8995ZM19.2515 15.7499C19.0741 16.6673 18.7572 17.3484 18.2883 17.8071C17.9208 18.1685 17.5786 18.3214 17.2618 18.2519C16.9576 18.1824 16.7041 17.8905 16.514 17.3484C16.3619 16.9175 16.2859 16.4866 16.2859 16.0835C16.2859 15.736 16.3112 15.3885 16.3746 15.0688C16.4887 14.4989 16.7041 13.9429 17.0463 13.4147C17.4646 12.7336 17.9082 12.4556 18.3644 12.5529C18.6686 12.6224 18.922 12.9143 19.1121 13.4564C19.2642 13.8873 19.3403 14.3182 19.3403 14.7213C19.3403 15.0827 19.3149 15.4302 19.2515 15.7499Z" fill="white"/>
</svg>
