<svg width="125" height="125" viewBox="0 0 125 125" fill="none" xmlns="http://www.w3.org/2000/svg">
<g clip-path="url(#clip0_5127_3604)">
<path opacity="0.991" fill-rule="evenodd" clip-rule="evenodd" d="M56.7627 -0.12207C60.5061 -0.12207 64.2498 -0.12207 67.9932 -0.12207C92.3516 3.0394 109.726 15.7347 120.117 37.9639C122.592 44.0378 124.179 50.3042 124.878 56.7627C124.878 60.5061 124.878 64.2498 124.878 67.9932C121.717 92.3513 109.021 109.726 86.792 120.117C80.7185 122.592 74.4524 124.178 67.9932 124.878C64.3311 124.878 60.6689 124.878 57.0068 124.878C48.5232 123.937 40.426 121.576 32.7148 117.798C24.218 120.298 15.7138 122.658 7.20215 124.878C5.98145 124.878 4.76074 124.878 3.54004 124.878C1.91243 124.064 0.691731 122.844 -0.12207 121.216C-0.12207 120.076 -0.12207 118.937 -0.12207 117.798C3.12107 110.658 6.37629 103.497 9.64355 96.3135C4.19404 87.6143 0.938835 78.1741 -0.12207 67.9932C-0.12207 64.2498 -0.12207 60.5061 -0.12207 56.7627C3.03921 32.4045 15.7345 15.0298 37.9639 4.63867C44.0378 2.16404 50.3042 0.577129 56.7627 -0.12207ZM59.6924 10.8643C80.696 10.7788 96.6057 19.6492 107.422 37.4756C115.363 52.6689 115.932 68.1313 109.131 83.8623C99.4358 102.836 83.8921 112.846 62.5 113.892C52.9155 113.789 44.0044 111.307 35.7666 106.445C35.0505 106.227 34.3181 106.105 33.5693 106.079C27.6389 107.49 21.7388 109.037 15.8691 110.718C15.7471 110.636 15.625 110.555 15.5029 110.474C17.4154 106.323 19.3278 102.173 21.2402 98.0225C21.7285 96.4763 21.7285 94.9299 21.2402 93.3838C9.75823 76.9377 7.88647 59.4409 15.625 40.8936C24.7937 22.8184 39.4827 12.8086 59.6924 10.8643Z" fill="#23D364"/>
<path opacity="0.991" fill-rule="evenodd" clip-rule="evenodd" d="M40.6495 33.8136C42.7081 33.5348 44.5796 33.9826 46.2647 35.1564C51.056 39.6847 52.9686 45.1779 52.002 51.6359C50.9002 53.3508 49.6795 54.9784 48.3399 56.5187C48.1146 56.8932 47.9925 57.3002 47.9737 57.7394C52.1963 65.9897 58.544 72.0524 67.0167 75.9279C67.9974 76.3981 69.0147 76.7643 70.0684 77.0265C70.99 76.8398 71.7225 76.3515 72.2657 75.5617C73.0794 74.2597 73.8934 72.9574 74.7071 71.6554C76.8824 69.155 79.5272 68.5446 82.6417 69.8244C86.6451 70.8244 89.941 72.8996 92.5293 76.05C94.0357 78.852 93.9544 81.6188 92.2852 84.3507C89.3985 89.152 85.126 91.4306 79.4678 91.1867C73.3941 90.8307 67.6976 89.1623 62.378 86.1818C52.7706 80.808 44.6734 73.6872 38.086 64.8195C35.3445 60.9638 33.3914 56.7319 32.2266 52.1242C30.6849 45.9089 32.1905 40.5783 36.7432 36.133C37.9556 35.1623 39.2579 34.3893 40.6495 33.8136Z" fill="#23D364"/>
</g>
<defs>
<clipPath id="clip0_5127_3604">
<rect width="125" height="125" fill="white"/>
</clipPath>
</defs>
</svg>
