<svg width="265" height="265" viewBox="0 0 265 265" fill="none" xmlns="http://www.w3.org/2000/svg">
<path opacity="0.3" d="M218.656 183.439C190.781 227.531 134.034 239.268 92.6936 229.06C81.4079 226.274 58.6936 220.666 43.4572 200.778C14.1929 162.588 30.4829 95.2177 69.9843 60.3655C75.0715 55.8769 110.098 25.9584 155.919 33.8048C189.466 39.5498 209.997 62.3248 212.484 65.1505C215.627 68.7219 222.475 77.1048 227.865 89.5248C240.529 118.707 236.071 155.886 218.656 183.439Z" fill="url(#paint0_linear_819_197)"/>
<path d="M230.277 90.2616C229.944 89.928 229.499 89.4352 229.201 89.6987C224.382 93.953 212.731 106.667 214.916 128.67C217.653 156.276 211.329 166.419 203.641 172.643C205.306 172.753 208.463 172.794 212.003 171.613C239.429 162.462 237.42 97.3959 230.277 90.2616Z" fill="url(#paint1_linear_819_197)"/>
<g style="mix-blend-mode:soft-light">
<path d="M226.454 98.9282C225.778 102.011 225.168 105.102 224.672 108.206C224.162 111.308 223.751 114.418 223.439 117.535C223.141 120.652 222.904 123.77 222.806 126.892C222.694 130.012 222.722 133.127 222.761 136.25C222.782 139.376 222.822 142.524 222.524 145.698C222.227 148.872 221.535 152.064 220.253 155.069C219.932 155.818 219.597 156.565 219.218 157.287C218.854 158.015 218.457 158.73 218.046 159.437C217.214 160.859 216.284 162.221 215.264 163.514C213.205 166.105 210.745 168.41 208.05 170.367C207.917 170.467 207.752 170.512 207.587 170.492C207.422 170.473 207.271 170.391 207.164 170.264C207.117 170.201 207.083 170.129 207.063 170.053C207.044 169.976 207.04 169.897 207.052 169.819C207.064 169.741 207.091 169.666 207.132 169.599C207.173 169.531 207.227 169.473 207.291 169.427C207.934 168.933 208.567 168.434 209.178 167.91C209.488 167.653 209.785 167.383 210.088 167.119C210.379 166.845 210.683 166.58 210.966 166.298C212.114 165.191 213.183 164.005 214.166 162.749C216.13 160.257 217.725 157.486 218.956 154.617C219.553 153.183 220.04 151.706 220.411 150.197C220.773 148.693 221.031 147.166 221.182 145.626C221.497 142.545 221.484 139.428 221.487 136.301C221.489 133.174 221.522 130.03 221.687 126.887C221.765 125.316 221.872 123.745 222.009 122.173C222.073 121.387 222.152 120.602 222.231 119.82C222.309 119.039 222.407 118.254 222.504 117.472C222.899 114.342 223.394 111.223 223.989 108.115C224.601 105.012 225.299 101.923 226.119 98.861C226.131 98.818 226.159 98.7813 226.198 98.7583C226.236 98.7354 226.282 98.7279 226.326 98.7375C226.347 98.7407 226.368 98.7484 226.386 98.7599C226.404 98.7715 226.42 98.7868 226.432 98.8047C226.444 98.8226 226.452 98.8429 226.456 98.8641C226.459 98.8854 226.459 98.9072 226.454 98.9282Z" fill="white"/>
</g>
<path d="M197.844 174.071C197.012 175.142 195.301 174.697 195.084 173.357C192.701 158.626 184.299 99.9279 194.631 60.9158C195.369 58.1301 198.908 57.2787 200.809 59.4437C212.828 73.1287 242.554 116.629 197.844 174.071Z" fill="url(#paint2_linear_819_197)"/>
<path d="M200.469 78.9583C201.04 80.839 201.485 82.7533 201.893 84.6726C202.301 86.5919 202.647 88.5297 202.948 90.4683C203.559 94.3483 203.989 98.254 204.293 102.174C204.597 106.094 204.759 110.02 204.81 113.95C204.861 117.881 204.768 121.813 204.596 125.74L204.443 128.685L204.239 131.627L204.134 133.098L204 134.571L203.734 137.508C203.315 141.418 202.861 145.327 202.254 149.213C201.084 156.993 199.562 164.711 197.689 172.367C197.664 172.469 197.619 172.565 197.557 172.65C197.495 172.734 197.417 172.806 197.327 172.861C197.238 172.915 197.138 172.952 197.034 172.968C196.93 172.984 196.825 172.979 196.723 172.954C196.621 172.929 196.524 172.885 196.44 172.823C196.355 172.761 196.283 172.683 196.229 172.593C196.174 172.503 196.138 172.404 196.122 172.3C196.106 172.196 196.11 172.09 196.135 171.988V171.975C198.109 164.404 199.746 156.753 201.046 149.023C201.712 145.165 202.226 141.283 202.706 137.398L203.019 134.478L203.173 133.018L203.301 131.555L203.551 128.626L203.751 125.698C203.986 121.789 204.141 117.874 204.154 113.956C204.166 110.038 204.066 106.12 203.827 102.209C203.589 98.2976 203.221 94.3933 202.674 90.5119C202.405 88.5704 202.085 86.6368 201.714 84.7111C201.338 82.7883 200.928 80.8676 200.384 78.9854C200.381 78.975 200.382 78.9638 200.387 78.9542C200.393 78.9446 200.401 78.9375 200.412 78.9343C200.422 78.9312 200.433 78.9324 200.443 78.9375C200.453 78.9427 200.46 78.9514 200.463 78.9618L200.469 78.9583Z" fill="#E54687"/>
<path d="M42.7065 216.614C42.7095 217.479 43.0547 218.308 43.6668 218.92C44.2788 219.531 45.1079 219.875 45.9729 219.877H222.609C223.474 219.875 224.303 219.531 224.915 218.92C225.527 218.308 225.872 217.479 225.875 216.614L227.344 115.107C227.344 113.312 225.23 109.808 221.355 110.071L48.7265 105.604C47.6117 105.575 46.5025 105.772 45.4663 106.185C44.4301 106.597 43.4885 107.216 42.6987 108.003C41.9088 108.79 41.2872 109.73 40.8716 110.765C40.4559 111.8 40.2549 112.908 40.2808 114.023L42.7065 216.614Z" fill="url(#paint3_linear_819_197)"/>
<path d="M45.9286 213.484C45.9318 214.303 46.2588 215.087 46.8383 215.665C47.4178 216.244 48.2027 216.569 49.0214 216.571H218.349C219.167 216.569 219.952 216.243 220.531 215.664C221.11 215.085 221.437 214.3 221.439 213.481L222.826 121.331C222.663 115.786 217.801 113.792 214.854 113.91L49.4057 109.475C48.622 109.454 47.8423 109.593 47.114 109.883C46.3857 110.173 45.7239 110.608 45.1689 111.162C44.6138 111.716 44.1771 112.376 43.8852 113.104C43.5933 113.832 43.4523 114.611 43.4707 115.395L45.9286 213.484Z" fill="url(#paint4_linear_819_197)"/>
<path d="M219.609 169.706H219.602C219.543 169.706 219.484 169.693 219.429 169.669C219.375 169.646 219.325 169.612 219.284 169.569C219.242 169.526 219.21 169.476 219.188 169.42C219.166 169.365 219.155 169.306 219.156 169.246L219.266 161.774C219.267 161.655 219.316 161.541 219.401 161.458C219.485 161.374 219.6 161.327 219.719 161.327H219.725C219.785 161.328 219.843 161.341 219.898 161.364C219.953 161.388 220.002 161.422 220.044 161.465C220.085 161.507 220.118 161.558 220.14 161.613C220.162 161.668 220.172 161.728 220.171 161.787L220.061 169.26C220.06 169.379 220.012 169.492 219.927 169.576C219.842 169.66 219.728 169.706 219.609 169.706Z" fill="white"/>
<path d="M219.879 151.393H219.872C219.751 151.391 219.637 151.342 219.553 151.256C219.47 151.169 219.424 151.054 219.425 150.933L219.846 122.311C219.838 120.611 219.322 119.253 218.312 118.286C216.426 116.479 213.433 116.571 213.307 116.577L160.429 115.159C160.369 115.158 160.311 115.144 160.256 115.12C160.202 115.096 160.153 115.061 160.112 115.018C160.071 114.975 160.039 114.924 160.018 114.868C159.996 114.813 159.986 114.754 159.988 114.694C159.987 114.634 159.998 114.574 160.022 114.518C160.045 114.463 160.079 114.413 160.123 114.371C160.167 114.33 160.219 114.298 160.276 114.278C160.332 114.258 160.393 114.25 160.453 114.254L213.302 115.672C213.632 115.653 216.819 115.601 218.941 117.631C220.135 118.774 220.745 120.352 220.754 122.316L220.334 150.947C220.332 151.066 220.283 151.18 220.198 151.264C220.113 151.347 219.998 151.394 219.879 151.393Z" fill="white"/>
<path d="M28.7808 228.304L236.22 228.304C236.443 228.304 236.624 228.123 236.624 227.9V219.789C236.624 219.566 236.443 219.385 236.22 219.385L28.7808 219.385C28.5579 219.385 28.3772 219.566 28.3772 219.789V227.9C28.3772 228.123 28.5579 228.304 28.7808 228.304Z" fill="url(#paint5_linear_819_197)"/>
<g opacity="0.64">
<path d="M42.9686 89.4508C42.8615 89.4367 42.7619 89.3882 42.6847 89.3128C42.6074 89.2373 42.5567 89.1389 42.54 89.0322C42.4972 88.7636 42.4579 88.4939 42.4221 88.2229C42.405 88.0909 42.441 87.9574 42.5223 87.852C42.6035 87.7465 42.7233 87.6776 42.8554 87.6604C42.9874 87.6433 43.1208 87.6793 43.2263 87.7605C43.3318 87.8418 43.4007 87.9616 43.4179 88.0937C43.4521 88.3546 43.49 88.6144 43.5314 88.8729C43.5443 88.9501 43.5389 89.0292 43.5156 89.1039C43.4924 89.1785 43.4519 89.2467 43.3975 89.3029C43.3431 89.3591 43.2763 89.4018 43.2024 89.4275C43.1286 89.4531 43.0497 89.4611 42.9722 89.4508H42.9686Z" fill="white"/>
<path d="M42.6343 86.0002C42.516 85.9854 42.4069 85.9289 42.3266 85.8407C42.2463 85.7526 42.2002 85.6387 42.1965 85.5195C42.1779 84.9652 42.175 84.4038 42.1893 83.8502C42.1926 83.7171 42.2487 83.5908 42.3451 83.4991C42.4416 83.4073 42.5705 83.3576 42.7036 83.3609C42.8367 83.3642 42.963 83.4203 43.0548 83.5167C43.1465 83.6132 43.1962 83.7421 43.1929 83.8752C43.1793 84.4095 43.1822 84.9509 43.2 85.4852C43.2025 85.5511 43.1919 85.6169 43.1689 85.6787C43.1459 85.7405 43.1108 85.7971 43.0658 85.8453C43.0208 85.8935 42.9667 85.9323 42.9066 85.9595C42.8465 85.9867 42.7817 86.0018 42.7158 86.0038C42.6886 86.0051 42.6613 86.0039 42.6343 86.0002ZM42.8215 81.7045C42.7562 81.6965 42.6932 81.6756 42.6359 81.6432C42.5787 81.6108 42.5285 81.5673 42.4881 81.5155C42.4477 81.4636 42.4179 81.4042 42.4005 81.3408C42.383 81.2774 42.3783 81.2112 42.3865 81.1459L42.4086 80.9659C42.4708 80.4788 42.5465 79.9845 42.6343 79.4959C42.6579 79.3648 42.7326 79.2485 42.842 79.1725C42.9514 79.0964 43.0865 79.067 43.2175 79.0906C43.3486 79.1142 43.465 79.1888 43.541 79.2982C43.617 79.4076 43.6465 79.5427 43.6229 79.6738C43.5379 80.1452 43.4643 80.6224 43.4043 81.0924L43.3829 81.2666C43.3752 81.3321 43.3546 81.3954 43.3224 81.4529C43.2902 81.5103 43.2469 81.5609 43.195 81.6016C43.1432 81.6423 43.0838 81.6723 43.0203 81.69C42.9568 81.7076 42.8905 81.7126 42.825 81.7045H42.8215ZM43.66 77.4902C43.6359 77.4872 43.612 77.4824 43.5886 77.4759C43.525 77.4584 43.4654 77.4285 43.4134 77.3879C43.3614 77.3473 43.3179 77.2968 43.2855 77.2392C43.2531 77.1817 43.2324 77.1184 43.2246 77.0528C43.2168 76.9873 43.222 76.9209 43.24 76.8574C43.3886 76.3224 43.5558 75.7859 43.735 75.2638C43.7565 75.2014 43.79 75.144 43.8336 75.0946C43.8773 75.0452 43.9302 75.0049 43.9895 74.976C44.0487 74.947 44.1131 74.9301 44.1788 74.926C44.2446 74.922 44.3106 74.9309 44.3729 74.9523C44.4352 74.9738 44.4927 75.0073 44.5421 75.0509C44.5915 75.0946 44.6318 75.1475 44.6607 75.2068C44.6896 75.266 44.7066 75.3304 44.7107 75.3961C44.7147 75.4619 44.7058 75.5279 44.6843 75.5902C44.5115 76.0945 44.3508 76.6109 44.2065 77.1274C44.1743 77.2434 44.1013 77.3439 44.0009 77.4105C43.9005 77.477 43.7795 77.5051 43.66 77.4895V77.4902ZM45.1293 73.4509C45.0799 73.4442 45.0318 73.4302 44.9865 73.4095C44.9263 73.3824 44.8722 73.3437 44.827 73.2956C44.7819 73.2475 44.7468 73.191 44.7236 73.1292C44.7004 73.0675 44.6897 73.0018 44.692 72.9359C44.6944 72.87 44.7097 72.8052 44.7372 72.7452C44.9658 72.2452 45.2129 71.7373 45.4715 71.2452C45.5023 71.187 45.5443 71.1355 45.595 71.0936C45.6457 71.0517 45.7042 71.0201 45.7671 71.0008C45.83 70.9815 45.8961 70.9747 45.9616 70.9809C46.0272 70.9871 46.0908 71.0062 46.149 71.037C46.2071 71.0678 46.2586 71.1098 46.3006 71.1605C46.3425 71.2112 46.3741 71.2697 46.3934 71.3326C46.4127 71.3955 46.4195 71.4616 46.4133 71.5272C46.4071 71.5927 46.388 71.6563 46.3572 71.7145C46.1072 72.1888 45.8686 72.6745 45.6486 73.1602C45.6045 73.2578 45.5303 73.3386 45.4368 73.3908C45.3433 73.443 45.2355 73.4638 45.1293 73.4502V73.4509ZM47.2008 69.6859C47.1243 69.6762 47.0511 69.6493 46.9865 69.6073C46.9312 69.5712 46.8836 69.5246 46.8464 69.47C46.8093 69.4154 46.7833 69.3539 46.7701 69.2893C46.7568 69.2246 46.7564 69.1579 46.7691 69.0931C46.7817 69.0283 46.807 68.9666 46.8436 68.9116C47.1479 68.4488 47.4708 67.9881 47.8022 67.5431C47.8818 67.4363 48.0005 67.3655 48.1322 67.3463C48.264 67.3271 48.3979 67.361 48.5047 67.4406C48.6114 67.5201 48.6822 67.6388 48.7014 67.7706C48.7207 67.9023 48.6868 68.0363 48.6072 68.1431C48.2872 68.5716 47.9765 69.0166 47.6829 69.4631C47.6314 69.5408 47.5593 69.6027 47.4747 69.6419C47.3901 69.6811 47.2962 69.6961 47.2036 69.6852L47.2008 69.6859ZM49.8372 66.2859C49.7459 66.2749 49.6595 66.2389 49.5873 66.1819C49.5152 66.125 49.4601 66.0492 49.4282 65.963C49.3963 65.8768 49.3888 65.7834 49.4065 65.6932C49.4242 65.603 49.4665 65.5194 49.5286 65.4516C49.9015 65.0395 50.2908 64.6345 50.6858 64.2474C50.7805 64.1541 50.9083 64.1024 51.0412 64.1035C51.1741 64.1045 51.3011 64.1583 51.3943 64.2531C51.4875 64.3478 51.5393 64.4756 51.5382 64.6085C51.5372 64.7414 51.4833 64.8684 51.3886 64.9616C51.0079 65.3352 50.6322 65.7259 50.2729 66.1231C50.2189 66.1835 50.151 66.2299 50.0751 66.2582C49.9992 66.2866 49.9176 66.2961 49.8372 66.2859ZM52.9608 63.3295C52.8627 63.318 52.7703 63.2776 52.6951 63.2136C52.6199 63.1496 52.5654 63.0648 52.5383 62.9699C52.5113 62.8749 52.5129 62.7741 52.5431 62.6801C52.5733 62.5861 52.6306 62.5031 52.7079 62.4416C53.1365 62.0923 53.585 61.7516 54.035 61.4295C54.1431 61.3519 54.2776 61.3204 54.4089 61.342C54.5401 61.3636 54.6575 61.4364 54.735 61.5445C54.8126 61.6526 54.8441 61.787 54.8225 61.9183C54.801 62.0496 54.7281 62.1669 54.62 62.2445C54.1865 62.5559 53.7558 62.8873 53.34 63.2216C53.2872 63.2639 53.2264 63.295 53.1612 63.313C53.096 63.3311 53.0278 63.3357 52.9608 63.3266V63.3295ZM56.5 60.8831C56.3951 60.8712 56.2965 60.8264 56.2185 60.7551C56.1406 60.6838 56.0872 60.5896 56.0661 60.4861C56.045 60.3825 56.0573 60.275 56.1011 60.1788C56.1449 60.0827 56.2181 60.0029 56.31 59.9509C56.7886 59.6723 57.2815 59.4031 57.7743 59.1531C57.893 59.0927 58.0308 59.082 58.1574 59.1233C58.284 59.1645 58.389 59.2544 58.4493 59.3731C58.5097 59.4917 58.5204 59.6295 58.4791 59.7561C58.4379 59.8827 58.348 59.9877 58.2293 60.0481C57.7536 60.2895 57.2779 60.5481 56.8158 60.8181C56.7205 60.8737 56.6096 60.8966 56.5 60.8831ZM60.3679 59.0073C60.2559 58.9953 60.1513 58.9457 60.071 58.8667C59.9907 58.7878 59.9394 58.684 59.9254 58.5723C59.9115 58.4605 59.9356 58.3473 59.994 58.251C60.0524 58.1547 60.1416 58.0809 60.2472 58.0416C60.7622 57.8395 61.29 57.6495 61.8186 57.4773C61.8811 57.4571 61.9469 57.4493 62.0124 57.4545C62.0779 57.4597 62.1417 57.4777 62.2002 57.5076C62.2587 57.5374 62.3107 57.5785 62.3534 57.6285C62.396 57.6784 62.4284 57.7363 62.4486 57.7988C62.4689 57.8612 62.4766 57.9271 62.4714 57.9926C62.4663 58.058 62.4482 58.1218 62.4184 58.1803C62.3885 58.2388 62.3475 58.2909 62.2975 58.3335C62.2475 58.3761 62.1897 58.4085 62.1272 58.4288C61.6193 58.5945 61.11 58.7781 60.6136 58.9731C60.5355 59.0052 60.4504 59.017 60.3665 59.0073H60.3679ZM86.555 62.0923C86.4749 62.082 86.3984 62.0523 86.3322 62.0059C85.8936 61.7002 85.4408 61.4038 84.985 61.1245C84.9288 61.0901 84.8798 61.0449 84.841 60.9916C84.8022 60.9382 84.7742 60.8777 84.7588 60.8136C84.7433 60.7495 84.7407 60.6829 84.7509 60.6177C84.7612 60.5526 84.7842 60.4901 84.8186 60.4338C84.853 60.3775 84.8982 60.3285 84.9516 60.2897C85.0049 60.2509 85.0654 60.223 85.1295 60.2075C85.1936 60.1921 85.2602 60.1894 85.3254 60.1997C85.3905 60.2099 85.453 60.2329 85.5093 60.2673C85.9822 60.5531 86.4522 60.8645 86.9065 61.1809C87.0007 61.2441 87.0707 61.3375 87.1049 61.4457C87.1391 61.5539 87.1355 61.6705 87.0946 61.7764C87.0537 61.8823 86.978 61.9711 86.8799 62.0283C86.7819 62.0854 86.6673 62.1075 86.555 62.0909V62.0923ZM64.4765 57.7466C64.3573 57.7345 64.2465 57.6799 64.1642 57.5929C64.0819 57.506 64.0335 57.3923 64.0279 57.2727C64.0222 57.1531 64.0597 57.0354 64.1336 56.9411C64.2074 56.8468 64.3126 56.7821 64.43 56.7588C64.97 56.6373 65.52 56.5316 66.0658 56.4423C66.1309 56.4317 66.1974 56.4341 66.2616 56.4492C66.3258 56.4643 66.3864 56.4919 66.4399 56.5305C66.4934 56.569 66.5389 56.6177 66.5736 56.6738C66.6083 56.7299 66.6316 56.7923 66.6422 56.8573C66.6528 56.9224 66.6505 56.989 66.6353 57.0532C66.6202 57.1174 66.5926 57.178 66.5541 57.2315C66.5155 57.285 66.4668 57.3305 66.4107 57.3652C66.3547 57.3999 66.2923 57.4232 66.2272 57.4338C65.7015 57.5195 65.1708 57.6216 64.6493 57.7388C64.5921 57.7515 64.5332 57.7541 64.475 57.7466H64.4765ZM82.8486 59.9131C82.7941 59.9058 82.741 59.8899 82.6915 59.8659C82.2115 59.6316 81.7179 59.4088 81.2243 59.2031C81.1634 59.1777 81.108 59.1406 81.0614 59.0938C81.0147 59.047 80.9778 58.9915 80.9526 58.9305C80.9274 58.8694 80.9145 58.804 80.9147 58.7379C80.9148 58.6719 80.9279 58.6065 80.9533 58.5456C80.9786 58.4846 81.0158 58.4292 81.0625 58.3826C81.1093 58.336 81.1648 58.299 81.2259 58.2739C81.2869 58.2487 81.3523 58.2358 81.4184 58.2359C81.4844 58.236 81.5498 58.2491 81.6108 58.2745C82.1222 58.4888 82.6336 58.7188 83.1322 58.9616C83.2427 59.0115 83.3313 59.0998 83.3815 59.2102C83.4318 59.3205 83.4402 59.4454 83.4053 59.5615C83.3703 59.6776 83.2944 59.777 83.1916 59.8413C83.0888 59.9056 82.9661 59.9303 82.8465 59.9109L82.8486 59.9131ZM68.7279 57.1345C68.5953 57.1303 68.4698 57.0736 68.379 56.9769C68.2881 56.8802 68.2394 56.7514 68.2436 56.6188C68.2478 56.4862 68.3045 56.3607 68.4012 56.2698C68.4979 56.179 68.6267 56.1303 68.7593 56.1345C69.3129 56.0988 69.8736 56.0788 70.4265 56.0752C70.5596 56.0744 70.6875 56.1264 70.7822 56.2199C70.8769 56.3134 70.9306 56.4407 70.9315 56.5738C70.9323 56.7069 70.8803 56.8348 70.7868 56.9295C70.6933 57.0242 70.566 57.0779 70.4329 57.0788C69.9 57.0788 69.3615 57.1016 68.825 57.1366C68.7922 57.1392 68.7592 57.1385 68.7265 57.1345H68.7279ZM78.85 58.3316C78.8212 58.3283 78.7927 58.322 78.765 58.3131C78.2543 58.1559 77.7322 58.0109 77.2129 57.8845C77.0837 57.8527 76.9724 57.7708 76.9036 57.657C76.8347 57.5431 76.8139 57.4065 76.8458 57.2773C76.8776 57.1482 76.9594 57.0369 77.0733 56.968C77.1872 56.8992 77.3237 56.8784 77.4529 56.9102C77.9908 57.0423 78.5315 57.1923 79.0608 57.3552C79.1904 57.3831 79.3037 57.4615 79.3756 57.5729C79.4476 57.6844 79.4723 57.8198 79.4443 57.9495C79.4164 58.0792 79.3381 58.1924 79.2266 58.2644C79.1152 58.3363 78.9797 58.361 78.85 58.3331V58.3316ZM73.0272 57.1888C72.8946 57.1745 72.7731 57.1081 72.6894 57.0042C72.6058 56.9003 72.5668 56.7675 72.5811 56.6349C72.5954 56.5022 72.6618 56.3807 72.7657 56.2971C72.8696 56.2134 73.0024 56.1745 73.135 56.1888C73.6843 56.2381 74.2408 56.3038 74.7922 56.3852C74.9239 56.4047 75.0426 56.4758 75.1219 56.5827C75.2013 56.6897 75.2349 56.8238 75.2154 56.9556C75.1959 57.0873 75.1248 57.2059 75.0179 57.2853C74.9109 57.3647 74.7768 57.3983 74.645 57.3788C74.1122 57.2995 73.5736 57.2359 73.0458 57.1888H73.0272Z" fill="white"/>
<path d="M89.2814 64.2614C89.1798 64.2486 89.0846 64.205 89.0086 64.1364C88.8143 63.9607 88.6169 63.7876 88.4164 63.6171C88.315 63.5308 88.252 63.4077 88.2413 63.275C88.2305 63.1422 88.273 63.0107 88.3593 62.9092C88.4456 62.8078 88.5686 62.7448 88.7014 62.7341C88.8341 62.7233 88.9657 62.7658 89.0671 62.8521C89.2748 63.0292 89.4795 63.209 89.6814 63.3914C89.762 63.4625 89.8175 63.5577 89.8397 63.6628C89.8619 63.7679 89.8496 63.8774 89.8048 63.975C89.7599 64.0726 89.6847 64.1532 89.5905 64.2048C89.4962 64.2564 89.3878 64.2762 89.2814 64.2614Z" fill="white"/>
</g>
<g opacity="0.64">
<path d="M98.5 83.7554C98.3826 83.7407 98.2743 83.6848 98.1942 83.5977C98.1142 83.5106 98.0676 83.3979 98.0628 83.2797C98.0509 83.0169 98.0352 82.755 98.0157 82.494C98.011 82.4284 98.0193 82.3624 98.0401 82.3C98.0609 82.2375 98.0938 82.1798 98.1369 82.13C98.18 82.0803 98.2325 82.0395 98.2913 82.01C98.3502 81.9806 98.4143 81.963 98.48 81.9583C98.5456 81.9536 98.6116 81.9619 98.674 81.9827C98.7365 82.0035 98.7942 82.0364 98.844 82.0795C98.9444 82.1666 99.0062 82.29 99.0157 82.4226C99.0357 82.694 99.0519 82.9662 99.0643 83.239C99.0678 83.3122 99.0553 83.3854 99.0274 83.4532C98.9996 83.521 98.9572 83.5819 98.9032 83.6315C98.8492 83.6812 98.785 83.7183 98.7151 83.7403C98.6451 83.7624 98.5712 83.7687 98.4985 83.759L98.5 83.7554Z" fill="white"/>
<path d="M66.5578 112.687H66.5486C66.0671 112.616 65.5821 112.533 65.1057 112.439L64.9307 112.404C64.8661 112.39 64.8048 112.365 64.7502 112.328C64.6956 112.291 64.6488 112.243 64.6125 112.188C64.5391 112.077 64.5129 111.942 64.5396 111.811C64.5663 111.681 64.6438 111.566 64.7549 111.493C64.866 111.42 65.0017 111.393 65.1321 111.42L65.3007 111.454C65.7607 111.545 66.2293 111.626 66.6936 111.694C66.7588 111.703 66.8217 111.724 66.8786 111.757C66.9355 111.791 66.9854 111.835 67.0252 111.887C67.0651 111.94 67.0942 111.999 67.111 112.063C67.1277 112.127 67.1318 112.193 67.1228 112.259C67.1139 112.324 67.0923 112.387 67.059 112.444C67.0258 112.501 66.9817 112.55 66.9293 112.59C66.8768 112.63 66.817 112.659 66.7533 112.676C66.6895 112.693 66.6231 112.697 66.5578 112.688V112.687ZM69.165 112.945C69.0324 112.933 68.9099 112.869 68.8246 112.767C68.7393 112.665 68.6981 112.533 68.71 112.4C68.7219 112.267 68.786 112.145 68.8883 112.06C68.9905 111.974 69.1224 111.933 69.255 111.945C69.7807 111.972 70.3128 111.984 70.8386 111.981C70.9717 111.98 71.0998 112.032 71.1946 112.126C71.2893 112.219 71.3431 112.347 71.3439 112.48C71.3448 112.613 71.2927 112.741 71.1991 112.836C71.1055 112.93 70.9782 112.984 70.845 112.985C70.3 112.985 69.7478 112.976 69.2021 112.947L69.165 112.945ZM62.4286 111.766C62.4005 111.762 62.3728 111.756 62.3457 111.748C61.8228 111.589 61.2986 111.414 60.7878 111.226C60.726 111.203 60.6692 111.168 60.6208 111.124C60.5723 111.079 60.5331 111.025 60.5055 110.965C60.4778 110.905 60.4622 110.841 60.4596 110.775C60.4569 110.709 60.4672 110.643 60.49 110.581C60.5127 110.52 60.5474 110.463 60.5921 110.414C60.6368 110.366 60.6906 110.327 60.7504 110.299C60.8103 110.271 60.875 110.256 60.9408 110.253C61.0067 110.251 61.0724 110.261 61.1343 110.284C61.6271 110.464 62.1343 110.634 62.6343 110.784C62.764 110.811 62.8775 110.889 62.9497 111.001C63.0219 111.112 63.0469 111.247 63.0193 111.377C62.9916 111.507 62.9135 111.62 62.8022 111.693C62.6909 111.765 62.5555 111.79 62.4257 111.762L62.4286 111.766ZM73.3957 112.841C73.33 112.841 73.2652 112.827 73.2049 112.801C73.1446 112.775 73.0899 112.737 73.0441 112.69C72.9516 112.595 72.9007 112.467 72.9025 112.335C72.9043 112.202 72.9587 112.076 73.0537 111.983C73.1488 111.891 73.2767 111.84 73.4093 111.841C73.9328 111.789 74.4607 111.72 74.9807 111.636C75.0458 111.626 75.1123 111.628 75.1765 111.644C75.2406 111.659 75.3011 111.687 75.3545 111.725C75.408 111.764 75.4533 111.813 75.4879 111.869C75.5224 111.925 75.5456 111.987 75.5561 112.053C75.5665 112.118 75.5641 112.184 75.5488 112.248C75.5336 112.312 75.5058 112.373 75.4672 112.426C75.4286 112.48 75.3798 112.525 75.3236 112.56C75.2675 112.594 75.2051 112.617 75.14 112.628C74.6021 112.714 74.0543 112.786 73.5114 112.842C73.4725 112.846 73.4332 112.846 73.3943 112.841H73.3957ZM58.4828 110.234C58.4296 110.227 58.3777 110.211 58.3293 110.188C57.8378 109.952 57.3464 109.699 56.8686 109.436C56.8109 109.404 56.76 109.361 56.7189 109.309C56.6778 109.258 56.6473 109.199 56.6291 109.135C56.6108 109.072 56.6052 109.006 56.6126 108.94C56.62 108.875 56.6402 108.811 56.6721 108.754C56.704 108.696 56.747 108.645 56.7985 108.604C56.85 108.563 56.9092 108.532 56.9725 108.514C57.0359 108.496 57.1022 108.49 57.1677 108.498C57.2332 108.505 57.2966 108.525 57.3543 108.557C57.815 108.811 58.2886 109.057 58.7628 109.282C58.8741 109.331 58.9637 109.419 59.0149 109.529C59.0661 109.639 59.0754 109.764 59.0411 109.881C59.0068 109.998 58.9312 110.098 58.8285 110.163C58.7257 110.227 58.6029 110.253 58.4828 110.234ZM77.5614 112.096C77.4437 112.084 77.3341 112.03 77.2521 111.945C77.17 111.86 77.1209 111.748 77.1133 111.63C77.1058 111.512 77.1404 111.395 77.2109 111.3C77.2814 111.205 77.3834 111.138 77.4986 111.111C78.0064 110.98 78.5178 110.832 79.0178 110.671C79.1446 110.631 79.2823 110.642 79.4008 110.703C79.5193 110.763 79.6088 110.869 79.6496 110.995C79.6905 111.122 79.6793 111.26 79.6185 111.378C79.5578 111.497 79.4524 111.586 79.3257 111.627C78.8071 111.794 78.2771 111.947 77.75 112.084C77.688 112.1 77.6235 112.104 77.56 112.096H77.5614ZM54.8164 108.12C54.7377 108.11 54.6626 108.081 54.5971 108.036C54.1464 107.729 53.6993 107.404 53.2678 107.071C53.1624 106.989 53.0936 106.869 53.0766 106.737C53.0596 106.605 53.0958 106.472 53.1771 106.366C53.2585 106.261 53.3784 106.192 53.5105 106.175C53.6426 106.158 53.776 106.194 53.8814 106.276C54.2971 106.597 54.7286 106.91 55.1636 107.204C55.2589 107.267 55.33 107.36 55.3652 107.468C55.4003 107.577 55.3974 107.694 55.3569 107.8C55.3164 107.907 55.2407 107.996 55.1424 108.054C55.0442 108.112 54.9291 108.134 54.8164 108.117V108.12ZM81.5628 110.729C81.4525 110.716 81.3494 110.668 81.2698 110.59C81.1901 110.513 81.1385 110.411 81.1231 110.301C81.1076 110.191 81.1291 110.079 81.1843 109.983C81.2395 109.887 81.3252 109.812 81.4278 109.769C81.9121 109.561 82.3957 109.341 82.865 109.104C82.924 109.074 82.9882 109.057 83.054 109.052C83.1197 109.048 83.1858 109.056 83.2483 109.077C83.3108 109.098 83.3686 109.131 83.4183 109.174C83.4681 109.217 83.5088 109.27 83.5382 109.329C83.5676 109.388 83.5851 109.452 83.5897 109.518C83.5943 109.584 83.5859 109.65 83.5649 109.712C83.544 109.775 83.511 109.833 83.4677 109.882C83.4245 109.932 83.3718 109.973 83.3128 110.002C82.8264 110.245 82.325 110.477 81.8236 110.692C81.741 110.728 81.6505 110.74 81.5614 110.729H81.5628ZM85.3143 108.774C85.2108 108.762 85.1136 108.718 85.0363 108.648C84.9591 108.578 84.9056 108.485 84.8834 108.383C84.8612 108.282 84.8714 108.175 84.9126 108.08C84.9537 107.984 85.0237 107.903 85.1128 107.849C85.56 107.571 86.0043 107.278 86.4343 106.975C86.4882 106.937 86.549 106.91 86.6133 106.896C86.6776 106.881 86.7441 106.88 86.809 106.891C86.8739 106.903 86.9359 106.926 86.9915 106.962C87.0472 106.997 87.0953 107.043 87.1332 107.097C87.1711 107.151 87.198 107.212 87.2124 107.276C87.2268 107.34 87.2284 107.407 87.2171 107.472C87.2058 107.536 87.1818 107.598 87.1465 107.654C87.1112 107.71 87.0653 107.758 87.0114 107.796C86.5664 108.109 86.1057 108.414 85.6428 108.702C85.5442 108.763 85.4278 108.788 85.3128 108.774H85.3143ZM88.7307 106.277C88.6337 106.266 88.5421 106.226 88.4673 106.163C88.3925 106.101 88.3377 106.017 88.3097 105.924C88.2818 105.83 88.2818 105.73 88.3099 105.637C88.338 105.543 88.3929 105.46 88.4678 105.397C88.8678 105.056 89.2636 104.699 89.6436 104.334C89.6911 104.289 89.7472 104.253 89.8086 104.229C89.87 104.205 89.9355 104.193 90.0014 104.195C90.0673 104.196 90.1323 104.21 90.1926 104.237C90.253 104.263 90.3076 104.301 90.3532 104.349C90.3988 104.397 90.4347 104.453 90.4586 104.514C90.4826 104.575 90.4942 104.641 90.4929 104.707C90.4915 104.773 90.4772 104.838 90.4507 104.898C90.4242 104.958 90.3861 105.013 90.3386 105.059C89.9443 105.436 89.5343 105.807 89.12 106.161C89.0667 106.207 89.0044 106.241 88.937 106.261C88.8697 106.281 88.7989 106.286 88.7293 106.277H88.7307ZM91.7307 103.295C91.6403 103.284 91.5545 103.249 91.4826 103.193C91.4108 103.137 91.3556 103.062 91.323 102.977C91.2904 102.892 91.2817 102.8 91.2978 102.71C91.3139 102.621 91.3542 102.537 91.4143 102.469C91.7586 102.071 92.0957 101.657 92.4143 101.239C92.4955 101.134 92.6153 101.065 92.7473 101.047C92.8794 101.03 93.013 101.066 93.1186 101.147C93.2242 101.228 93.2932 101.348 93.3105 101.48C93.3278 101.612 93.2919 101.746 93.2107 101.851C92.8778 102.284 92.5286 102.713 92.1714 103.125C92.1177 103.187 92.0495 103.236 91.9727 103.265C91.896 103.295 91.8131 103.305 91.7314 103.295H91.7307ZM94.2478 99.8922C94.1758 99.8836 94.1065 99.8592 94.045 99.8208C93.9889 99.7859 93.9403 99.7403 93.9019 99.6866C93.8636 99.6329 93.8362 99.5721 93.8215 99.5077C93.8068 99.4434 93.8049 99.3768 93.816 99.3117C93.8272 99.2466 93.8511 99.1844 93.8864 99.1286C94.1664 98.6829 94.4371 98.2229 94.6914 97.7615C94.7232 97.7038 94.766 97.6528 94.8174 97.6116C94.8688 97.5705 94.9279 97.5398 94.9912 97.5214C95.0544 97.5031 95.1207 97.4973 95.1862 97.5046C95.2517 97.5118 95.3151 97.5319 95.3728 97.5636C95.4306 97.5954 95.4815 97.6382 95.5227 97.6896C95.5639 97.7411 95.5945 97.8001 95.6129 97.8634C95.6313 97.9266 95.637 97.9929 95.6298 98.0584C95.6225 98.1239 95.6025 98.1873 95.5707 98.2451C95.3078 98.7236 95.0271 99.2008 94.7371 99.6629C94.6862 99.7439 94.613 99.8085 94.5264 99.8491C94.4398 99.8898 94.3434 99.9047 94.2486 99.8922H94.2478ZM96.22 96.1458C96.1425 96.1364 96.0684 96.109 96.0034 96.0659C95.9384 96.0227 95.8845 95.965 95.8458 95.8972C95.8071 95.8295 95.7849 95.7536 95.7808 95.6757C95.7766 95.5978 95.7908 95.5201 95.8221 95.4486C96.0307 94.9658 96.2278 94.4708 96.4086 93.9772C96.4542 93.8522 96.5477 93.7504 96.6684 93.6943C96.7891 93.6381 96.9271 93.6323 97.0521 93.6779C97.1772 93.7236 97.2789 93.817 97.3351 93.9377C97.3912 94.0584 97.3971 94.1965 97.3514 94.3215C97.1643 94.8336 96.96 95.3465 96.7436 95.8472C96.7002 95.9465 96.6258 96.029 96.5315 96.0823C96.4372 96.1357 96.3281 96.1569 96.2207 96.1429L96.22 96.1458ZM97.5993 92.1458C97.5776 92.1428 97.5561 92.1385 97.535 92.1329C97.4712 92.1163 97.4113 92.0873 97.3588 92.0474C97.3063 92.0076 97.2621 91.9577 97.2289 91.9008C97.1957 91.8438 97.1741 91.7809 97.1654 91.7155C97.1566 91.6502 97.1608 91.5838 97.1778 91.5201C97.3107 91.0115 97.4314 90.4922 97.535 89.9765C97.5614 89.846 97.6386 89.7313 97.7496 89.6577C97.8606 89.5841 97.9963 89.5576 98.1268 89.584C98.2573 89.6104 98.372 89.6876 98.4456 89.7986C98.5192 89.9096 98.5457 90.0452 98.5193 90.1758C98.4107 90.7101 98.2864 91.2472 98.1478 91.7743C98.1178 91.8927 98.0455 91.9959 97.9446 92.0646C97.8436 92.1333 97.7211 92.1626 97.6 92.1472L97.5993 92.1458ZM98.3643 87.9836C98.2337 87.9675 98.1148 87.9006 98.0332 87.7974C97.9516 87.6942 97.914 87.563 97.9286 87.4322C97.985 86.9093 98.0271 86.3779 98.0528 85.8529C98.0561 85.7872 98.0722 85.7229 98.1003 85.6634C98.1285 85.604 98.168 85.5507 98.2167 85.5066C98.2654 85.4624 98.3224 85.4283 98.3843 85.4062C98.4462 85.384 98.5118 85.3743 98.5775 85.3776C98.6431 85.3808 98.7075 85.3969 98.767 85.425C98.8264 85.4532 98.8797 85.4927 98.9238 85.5414C98.968 85.5901 99.0021 85.6471 99.0242 85.709C99.0464 85.7709 99.0561 85.8365 99.0528 85.9022C99.0257 86.4472 98.9814 86.9979 98.9243 87.5401C98.9174 87.6057 98.8977 87.6693 98.8661 87.7272C98.8346 87.7852 98.7919 87.8363 98.7405 87.8777C98.6891 87.919 98.63 87.9498 98.5667 87.9682C98.5033 87.9867 98.437 87.9924 98.3714 87.9851L98.3643 87.9836Z" fill="white"/>
<path d="M51.5 105.462C51.3954 105.449 51.2976 105.403 51.2207 105.33C51.0221 105.145 50.8259 104.956 50.6321 104.764C50.5374 104.67 50.4838 104.543 50.4832 104.409C50.4825 104.276 50.5348 104.148 50.6286 104.053C50.7223 103.959 50.8499 103.905 50.9832 103.904C51.1165 103.904 51.2446 103.956 51.3393 104.05C51.5255 104.234 51.716 104.416 51.9107 104.596C51.9896 104.668 52.0433 104.764 52.064 104.868C52.0848 104.973 52.0714 105.082 52.0259 105.178C51.9803 105.275 51.9051 105.355 51.8111 105.405C51.7171 105.456 51.6093 105.475 51.5036 105.46L51.5 105.462Z" fill="white"/>
</g>
<path d="M53.7371 97.7737C53.7739 97.8325 53.828 97.8784 53.892 97.9052C53.9559 97.9319 54.0266 97.9381 54.0943 97.923L58.0736 97.0087C59.4443 98.3721 61.0282 99.5029 62.7628 100.357L63.1914 104.414C63.1986 104.484 63.2273 104.549 63.2736 104.602C63.3198 104.654 63.3813 104.69 63.4493 104.706L68.22 105.811C68.2877 105.826 68.3583 105.82 68.4222 105.793C68.4862 105.766 68.5403 105.72 68.5771 105.662L70.7429 102.204C72.6762 102.199 74.5956 101.878 76.4257 101.254L79.5986 103.826C79.6528 103.87 79.7193 103.896 79.789 103.9C79.8586 103.904 79.9279 103.887 79.9871 103.85L84.1414 101.257C84.2002 101.221 84.2461 101.166 84.2729 101.102C84.2996 101.038 84.3058 100.968 84.2907 100.9L83.3764 96.9209C84.7408 95.5509 85.8726 93.9675 86.7271 92.233L90.785 91.8044C90.8544 91.7971 90.9197 91.7684 90.972 91.7222C91.0242 91.6759 91.0607 91.6146 91.0764 91.5466L92.1814 86.7759C92.1964 86.7082 92.1902 86.6376 92.1634 86.5736C92.1367 86.5097 92.0908 86.4556 92.0321 86.4187L88.575 84.253C88.5696 82.3197 88.2487 80.4001 87.625 78.5701L90.1964 75.3973C90.2403 75.3431 90.2663 75.2765 90.2706 75.2069C90.275 75.1372 90.2575 75.068 90.2207 75.0087L87.6271 70.8566C87.5904 70.7978 87.5363 70.7519 87.4723 70.7251C87.4083 70.6984 87.3377 70.6922 87.27 70.7073L83.2907 71.6216C81.9209 70.2569 80.3375 69.1251 78.6028 68.2709L78.1743 64.213C78.167 64.1435 78.1383 64.0781 78.0921 64.0257C78.0458 63.9733 77.9844 63.9367 77.9164 63.9209L73.1457 62.8166C73.0781 62.8016 73.0076 62.8078 72.9436 62.8344C72.8797 62.861 72.8256 62.9066 72.7886 62.9651L70.6228 66.423C68.6896 66.4285 66.7701 66.7491 64.94 67.3723L61.7671 64.8009C61.713 64.7567 61.6464 64.7307 61.5767 64.7263C61.5071 64.722 61.4378 64.7395 61.3786 64.7766L57.2243 67.3694C57.1655 67.4062 57.1196 67.4603 57.0928 67.5243C57.0661 67.5882 57.0599 67.6589 57.075 67.7266L57.9893 71.7059C56.625 73.0757 55.4933 74.6589 54.6386 76.393L50.5807 76.8216C50.5113 76.8287 50.4458 76.8573 50.3935 76.9036C50.3412 76.9499 50.3048 77.0114 50.2893 77.0794L49.1843 81.8501C49.1694 81.9177 49.1757 81.9882 49.2023 82.0521C49.2288 82.116 49.2744 82.1702 49.3328 82.2073L52.7857 84.3751C52.7912 86.3084 53.1118 88.2279 53.735 90.058L51.1636 93.2309C51.1196 93.2851 51.0937 93.3516 51.0893 93.4213C51.085 93.4909 51.1024 93.5602 51.1393 93.6194L53.7371 97.7737Z" fill="url(#paint6_linear_819_197)"/>
<path d="M70.0715 89.0259C68.8503 88.8701 67.737 88.2469 66.9656 87.2873C66.1943 86.3278 65.825 85.1065 65.9354 83.8803C66.0459 82.6541 66.6273 81.5185 67.5577 80.7121C68.488 79.9058 69.6948 79.4915 70.9242 79.5564C72.1536 79.6213 73.31 80.1603 74.1503 81.0602C74.9906 81.96 75.4493 83.1506 75.43 84.3816C75.4107 85.6126 74.9149 86.7881 74.0468 87.6612C73.1787 88.5342 72.006 89.0367 70.7751 89.063C70.54 89.0679 70.3048 89.0555 70.0715 89.0259ZM71.1815 80.3994C70.9897 80.3748 70.7963 80.3645 70.603 80.3687C69.5824 80.3896 68.6096 80.8055 67.8894 81.5288C67.1691 82.2522 66.7573 83.2266 66.7407 84.2473C66.7241 85.268 67.1039 86.2553 67.8003 87.0017C68.4967 87.7481 69.4553 88.1954 70.4747 88.2495C71.4941 88.3036 72.4947 87.9603 73.2662 87.2919C74.0377 86.6234 74.5199 85.6818 74.6114 84.6651C74.703 83.6484 74.3967 82.6359 73.7571 81.8403C73.1174 81.0448 72.1942 80.5283 71.1815 80.3994Z" fill="white"/>
<path d="M69.2579 96.1744C68.2477 96.0461 67.2577 95.7908 66.3114 95.4145L66.2972 95.4087L66.2257 95.3787L66.2157 95.3745H66.2064L66.1707 95.3602H66.165L66.1507 95.3545H66.1464C66.11 95.3402 66.075 95.3252 66.0393 95.3095L66 95.2852C65.9229 95.2516 65.8457 95.218 65.77 95.183L65.6386 95.1223C65.6002 95.1042 65.5685 95.0744 65.5481 95.0372C65.5277 95 65.5196 94.9573 65.525 94.9152C65.528 94.8945 65.5337 94.8743 65.5422 94.8552C65.5651 94.807 65.6061 94.7699 65.6562 94.7518C65.7064 94.7337 65.7617 94.7362 65.81 94.7587C66.5567 95.1112 67.3387 95.3834 68.1429 95.5709C71.1442 96.2656 74.2985 95.7396 76.912 94.1088C79.5256 92.4779 81.3843 89.8757 82.0793 86.8745C82.1681 86.4901 82.2375 86.1015 82.2872 85.7102C83.0293 79.8744 79.2343 74.2923 73.3829 72.938C71.3814 72.475 69.293 72.5509 67.3305 73.158C65.3679 73.7652 63.6015 74.8818 62.2112 76.3942C60.8209 77.9065 59.8564 79.7605 59.4162 81.7671C58.9759 83.7737 59.0756 85.8611 59.705 87.8166C59.7214 87.8673 59.717 87.9224 59.6927 87.9698C59.6685 88.0172 59.6264 88.0531 59.5757 88.0694C59.5251 88.0858 59.47 88.0814 59.4225 88.0572C59.3751 88.0329 59.3393 87.9908 59.3229 87.9402C58.6715 85.9171 58.5683 83.7575 59.0236 81.6815C59.479 79.6055 60.4767 77.6873 61.915 76.1226C63.3533 74.5579 65.1808 73.4025 67.2112 72.7743C69.2416 72.1461 71.4022 72.0675 73.4729 72.5466C79.5272 73.948 83.4529 79.723 82.6872 85.7609C82.6361 86.1657 82.5646 86.5676 82.4729 86.9652C81.0714 93.0159 75.295 96.9423 69.2579 96.1744Z" fill="white"/>
<g opacity="0.64">
<path d="M128.981 76.3484C129.037 76.3944 129.077 76.4575 129.095 76.5282C129.113 76.5988 129.107 76.6733 129.079 76.7405C128.969 77.0043 128.852 77.2662 128.73 77.5262C128.713 77.5683 128.687 77.6064 128.654 77.6383C128.622 77.6701 128.583 77.695 128.54 77.7115C128.498 77.728 128.453 77.7357 128.407 77.7341C128.362 77.7326 128.317 77.7218 128.276 77.7025C128.234 77.6832 128.197 77.6557 128.167 77.6217C128.137 77.5877 128.114 77.5479 128.099 77.5047C128.085 77.4616 128.079 77.4159 128.082 77.3705C128.086 77.3251 128.099 77.2808 128.12 77.2405C128.238 76.9896 128.35 76.7372 128.456 76.4834C128.491 76.4008 128.557 76.3354 128.64 76.3015C128.723 76.2676 128.816 76.268 128.899 76.3027C128.928 76.3141 128.956 76.3295 128.981 76.3484Z" fill="white"/>
<path d="M127.866 78.5994C127.928 78.6498 127.97 78.7206 127.984 78.7991C127.999 78.8776 127.985 78.9587 127.945 79.0279C127.664 79.5165 127.359 79.9994 127.038 80.4629C127.013 80.4994 126.981 80.5305 126.943 80.5545C126.906 80.5786 126.865 80.595 126.821 80.603C126.777 80.6109 126.733 80.6102 126.689 80.6009C126.646 80.5916 126.605 80.5738 126.569 80.5487C126.532 80.5235 126.501 80.4913 126.477 80.4541C126.453 80.4169 126.437 80.3753 126.429 80.3318C126.421 80.2882 126.421 80.2435 126.431 80.2002C126.44 80.1569 126.458 80.1158 126.483 80.0794C126.793 79.6308 127.088 79.1637 127.36 78.6915C127.384 78.6489 127.417 78.6121 127.457 78.5837C127.497 78.5554 127.543 78.5361 127.591 78.5272C127.639 78.5184 127.689 78.5202 127.736 78.5325C127.784 78.5449 127.828 78.5674 127.866 78.5986V78.5994ZM125.969 81.3437C126.038 81.4003 126.082 81.4821 126.091 81.571C126.1 81.66 126.073 81.7488 126.016 81.8179C125.724 82.1751 125.417 82.5251 125.104 82.8594C125.032 82.9351 124.961 83.0108 124.889 83.0858C124.859 83.1176 124.822 83.1431 124.781 83.1608C124.741 83.1784 124.697 83.1879 124.653 83.1886C124.563 83.1902 124.477 83.1561 124.413 83.094C124.348 83.0319 124.311 82.9467 124.31 82.8573C124.308 82.7679 124.342 82.6815 124.404 82.6172C124.476 82.5458 124.544 82.4744 124.613 82.3972C124.916 82.0744 125.213 81.7358 125.496 81.3908C125.553 81.322 125.634 81.2785 125.723 81.2697C125.812 81.2609 125.9 81.2874 125.969 81.3437ZM123.653 83.7437C123.667 83.7554 123.681 83.7683 123.694 83.7822C123.753 83.8495 123.783 83.9375 123.777 84.0268C123.771 84.1161 123.73 84.1995 123.663 84.2586C123.234 84.6329 122.794 84.9922 122.345 85.3301C122.273 85.3805 122.184 85.4008 122.097 85.3867C122.011 85.3726 121.933 85.3253 121.88 85.2547C121.828 85.1842 121.805 85.0959 121.816 85.0088C121.828 84.9216 121.873 84.8424 121.942 84.7879C122.376 84.4651 122.806 84.1172 123.217 83.7551C123.277 83.7019 123.353 83.6716 123.433 83.6695C123.513 83.6674 123.591 83.6937 123.653 83.7437ZM120.979 85.7358C121.007 85.7592 121.031 85.7872 121.05 85.8186C121.097 85.8945 121.113 85.9861 121.093 86.0733C121.073 86.1605 121.019 86.2361 120.943 86.2836C120.464 86.5822 119.968 86.8644 119.467 87.1215C119.388 87.1624 119.295 87.1701 119.21 87.1427C119.125 87.1154 119.054 87.0554 119.013 86.9758C118.972 86.8962 118.964 86.8037 118.992 86.7185C119.019 86.6333 119.079 86.5624 119.159 86.5215C119.643 86.2722 120.123 86.0001 120.587 85.7115C120.647 85.6742 120.717 85.6565 120.787 85.6609C120.857 85.6652 120.924 85.6914 120.979 85.7358ZM118.011 87.2615C118.056 87.2984 118.091 87.3463 118.112 87.4006C118.133 87.4548 118.139 87.5135 118.131 87.571C118.122 87.6285 118.099 87.6829 118.063 87.7288C118.028 87.7746 117.981 87.8105 117.927 87.8329C117.407 88.0472 116.871 88.2451 116.334 88.4172C116.291 88.4307 116.247 88.4358 116.203 88.4321C116.159 88.4284 116.116 88.4161 116.076 88.3958C116.037 88.3755 116.002 88.3477 115.973 88.3138C115.945 88.28 115.923 88.2409 115.909 88.1987C115.896 88.1564 115.891 88.112 115.894 88.0678C115.898 88.0237 115.91 87.9806 115.931 87.9412C115.951 87.9018 115.979 87.8668 116.013 87.8382C116.047 87.8096 116.086 87.7879 116.128 87.7744C116.647 87.6079 117.166 87.4172 117.669 87.2094C117.726 87.1865 117.787 87.1792 117.848 87.1884C117.908 87.1976 117.964 87.2228 118.011 87.2615ZM114.834 88.2794C114.883 88.3192 114.92 88.372 114.94 88.4317C114.961 88.4914 114.964 88.5557 114.95 88.6172C114.936 88.6786 114.904 88.7349 114.86 88.7795C114.815 88.824 114.759 88.8552 114.697 88.8694C114.15 88.9965 113.589 89.1029 113.029 89.1851C112.941 89.1981 112.851 89.1753 112.779 89.1219C112.707 89.0684 112.659 88.9886 112.646 88.9001C112.633 88.8115 112.656 88.7214 112.71 88.6496C112.763 88.5778 112.843 88.5302 112.931 88.5172C113.472 88.4379 114.015 88.3351 114.545 88.2122C114.595 88.2006 114.647 88.2006 114.697 88.2122C114.748 88.2239 114.794 88.2468 114.834 88.2794ZM111.534 88.7651C111.587 88.808 111.625 88.8657 111.644 88.9307C111.664 88.9957 111.663 89.0649 111.642 89.1295C111.622 89.194 111.582 89.2509 111.529 89.2926C111.475 89.3344 111.411 89.3591 111.343 89.3636C110.779 89.4001 110.209 89.4137 109.646 89.4037C109.56 89.3985 109.478 89.3599 109.419 89.296C109.36 89.2321 109.327 89.1478 109.329 89.0607C109.33 88.9736 109.365 88.8904 109.427 88.8286C109.488 88.7667 109.571 88.7309 109.658 88.7286C110.201 88.7379 110.754 88.7287 111.301 88.6901C111.385 88.6848 111.469 88.7116 111.534 88.7651ZM108.199 88.7079C108.255 88.7536 108.295 88.8162 108.314 88.8866C108.332 88.957 108.326 89.0313 108.299 89.0985C108.271 89.1657 108.223 89.2222 108.16 89.2596C108.098 89.2969 108.025 89.3131 107.953 89.3058C107.391 89.2508 106.826 89.1708 106.273 89.0701C106.187 89.0513 106.113 89.0001 106.064 88.9272C106.016 88.8543 105.997 88.7654 106.013 88.6793C106.029 88.5932 106.077 88.5166 106.148 88.4655C106.22 88.4145 106.308 88.3931 106.394 88.4058C106.93 88.5044 107.476 88.5808 108.019 88.6344C108.085 88.6407 108.147 88.6663 108.199 88.7079ZM91.51 76.4801C91.552 76.5146 91.585 76.5587 91.6065 76.6087C91.8208 77.1087 92.0593 77.6086 92.3143 78.0901C92.3562 78.1692 92.3649 78.2617 92.3386 78.3472C92.3123 78.4327 92.2531 78.5043 92.174 78.5462C92.0949 78.588 92.0024 78.5967 91.9169 78.5704C91.8313 78.5441 91.7598 78.4849 91.7179 78.4058C91.4543 77.9058 91.2079 77.3922 90.9865 76.8744C90.9564 76.8049 90.9506 76.7274 90.9699 76.6543C90.9893 76.5812 91.0326 76.5167 91.0931 76.4711C91.1535 76.4256 91.2275 76.4018 91.3031 76.4034C91.3787 76.405 91.4516 76.432 91.51 76.4801ZM104.919 88.1101C104.979 88.1588 105.02 88.2267 105.036 88.3023C105.052 88.3779 105.041 88.4567 105.006 88.5255C104.971 88.5943 104.913 88.6489 104.842 88.6802C104.772 88.7114 104.692 88.7174 104.618 88.6972C104.073 88.5544 103.529 88.3808 102.999 88.1901C102.958 88.1751 102.919 88.1521 102.886 88.1223C102.854 88.0925 102.827 88.0566 102.808 88.0165C102.789 87.9765 102.778 87.9331 102.776 87.8888C102.774 87.8446 102.781 87.8003 102.796 87.7586C102.811 87.717 102.834 87.6786 102.864 87.6458C102.893 87.613 102.929 87.5864 102.969 87.5675C103.009 87.5486 103.053 87.5378 103.097 87.5356C103.141 87.5335 103.185 87.5401 103.227 87.5551C103.739 87.7394 104.266 87.9044 104.793 88.0458C104.839 88.0581 104.882 88.0801 104.919 88.1101ZM93.0715 79.4286C93.0993 79.4515 93.1233 79.4785 93.1429 79.5086C93.4358 79.9665 93.7529 80.4194 94.0843 80.8529C94.1386 80.9241 94.1624 81.0139 94.1505 81.1025C94.1386 81.1912 94.0919 81.2715 94.0208 81.3258C93.9496 81.3801 93.8598 81.4039 93.7712 81.3919C93.6825 81.38 93.6022 81.3334 93.5479 81.2622C93.2058 80.8137 92.8779 80.3465 92.5743 79.8722C92.5286 79.8045 92.5091 79.7224 92.5194 79.6414C92.5296 79.5603 92.569 79.4857 92.6301 79.4315C92.6912 79.3773 92.77 79.3471 92.8517 79.3466C92.9334 79.346 93.0125 79.3752 93.0743 79.4286H93.0715ZM101.781 86.9837C101.849 87.0341 101.895 87.108 101.911 87.1907C101.926 87.2734 101.911 87.359 101.866 87.4307C101.822 87.5023 101.753 87.5548 101.672 87.5779C101.591 87.6009 101.504 87.5927 101.429 87.5551C100.916 87.3222 100.407 87.0644 99.9143 86.7887C99.8403 86.7429 99.7869 86.6703 99.765 86.5861C99.7432 86.5019 99.7547 86.4125 99.7971 86.3365C99.8396 86.2606 99.9097 86.2039 99.9929 86.1784C100.076 86.1528 100.166 86.1603 100.244 86.1994C100.721 86.4665 101.213 86.7158 101.708 86.9408C101.734 86.9518 101.759 86.966 101.781 86.9829V86.9837ZM95.0965 82.0794C95.1095 82.0905 95.1219 82.1025 95.1336 82.1151C95.4986 82.5194 95.885 82.9137 96.2836 83.2887C96.3467 83.3506 96.3829 83.4348 96.3846 83.5232C96.3863 83.6116 96.3533 83.6972 96.2926 83.7615C96.2319 83.8258 96.1485 83.8638 96.0601 83.8672C95.9718 83.8707 95.8856 83.8394 95.82 83.7801C95.4093 83.3922 95.0093 82.9844 94.6329 82.5658C94.5763 82.5026 94.5455 82.4204 94.5467 82.3355C94.5479 82.2506 94.581 82.1693 94.6394 82.1078C94.6978 82.0462 94.7773 82.0089 94.862 82.0032C94.9467 81.9976 95.0304 82.024 95.0965 82.0772V82.0794ZM98.8707 85.3551C98.9365 85.4105 98.9787 85.4889 98.9886 85.5744C98.9985 85.6598 98.9755 85.7458 98.9242 85.8149C98.8729 85.8839 98.7973 85.9308 98.7126 85.946C98.6279 85.9611 98.5407 85.9435 98.4686 85.8965C98.0029 85.5829 97.54 85.2451 97.1015 84.8922C97.0319 84.8361 96.9874 84.7545 96.9779 84.6656C96.9684 84.5766 96.9946 84.4876 97.0507 84.4179C97.1069 84.3483 97.1884 84.3039 97.2774 84.2943C97.3663 84.2848 97.4554 84.3111 97.525 84.3672C97.9536 84.7087 98.3972 85.0351 98.8479 85.3386L98.8707 85.3551Z" fill="white"/>
<path d="M90.6601 74.093C90.7134 74.1366 90.7521 74.1954 90.7708 74.2616C90.8465 74.5264 90.9282 74.7902 91.0158 75.053C91.0442 75.1383 91.0376 75.2313 90.9974 75.3117C90.9572 75.3921 90.8868 75.4532 90.8015 75.4816C90.7163 75.51 90.6232 75.5034 90.5429 75.4632C90.4625 75.423 90.4014 75.3526 90.3729 75.2673C90.2825 74.9954 90.198 74.7223 90.1194 74.448C90.099 74.3788 90.1013 74.3048 90.126 74.237C90.1506 74.1691 90.1964 74.111 90.2566 74.071C90.3167 74.0311 90.3881 74.0115 90.4602 74.0151C90.5323 74.0186 90.6013 74.0452 90.6572 74.0909L90.6601 74.093Z" fill="white"/>
</g>
<g opacity="0.64">
<path d="M92.595 58.2707C92.6566 58.3213 92.6983 58.3922 92.7126 58.4706C92.727 58.549 92.7132 58.63 92.6736 58.6992C92.5346 58.9373 92.401 59.1792 92.2729 59.425C92.2523 59.4642 92.2242 59.4989 92.1902 59.5273C92.1561 59.5556 92.1169 59.577 92.0746 59.5902C92.0323 59.6033 91.9878 59.608 91.9437 59.604C91.8996 59.6 91.8567 59.5873 91.8175 59.5667C91.7783 59.5461 91.7436 59.518 91.7152 59.484C91.6869 59.45 91.6655 59.4107 91.6523 59.3684C91.6392 59.3261 91.6345 59.2817 91.6385 59.2376C91.6425 59.1935 91.6552 59.1506 91.6757 59.1114C91.8076 58.8595 91.9455 58.6092 92.0893 58.3607C92.1343 58.2832 92.2081 58.2268 92.2946 58.2038C92.3811 58.1807 92.4732 58.193 92.5507 58.2378C92.5664 58.2475 92.5812 58.2585 92.595 58.2707Z" fill="white"/>
<path d="M123.042 52.6559C123.298 52.8666 123.542 53.0716 123.785 53.2902C123.844 53.3515 123.878 53.4331 123.88 53.5185C123.881 53.6039 123.85 53.6867 123.793 53.7501C123.736 53.8136 123.657 53.853 123.572 53.8605C123.487 53.8679 123.402 53.8428 123.335 53.7902C123.099 53.5759 122.858 53.3616 122.616 53.1766C122.442 53.0337 122.267 52.8956 122.089 52.7623C122.023 52.7067 121.98 52.6274 121.97 52.541C121.96 52.4547 121.984 52.3678 122.036 52.2985C122.089 52.2293 122.166 52.1829 122.252 52.1691C122.338 52.1553 122.426 52.1751 122.497 52.2244C122.681 52.3659 122.863 52.5097 123.042 52.6559ZM121.159 51.2952C121.227 51.3491 121.272 51.4273 121.284 51.5134C121.296 51.5995 121.274 51.6868 121.223 51.7572C121.172 51.8276 121.096 51.8757 121.011 51.8912C120.925 51.9068 120.837 51.8888 120.764 51.8409C120.313 51.5552 119.844 51.2787 119.37 51.0273C119.291 50.9854 119.232 50.9139 119.205 50.8283C119.179 50.7428 119.188 50.6503 119.23 50.5712C119.272 50.4921 119.343 50.4329 119.429 50.4066C119.514 50.3803 119.607 50.389 119.686 50.4309C120.176 50.6909 120.661 50.9737 121.128 51.2723C121.139 51.2793 121.149 51.287 121.159 51.2952ZM124.954 54.4223C124.965 54.4312 124.975 54.4408 124.985 54.4509C125.367 54.8516 125.739 55.2737 126.089 55.7044C126.145 55.7739 126.172 55.863 126.163 55.9523C126.155 56.0416 126.111 56.1237 126.041 56.1805C125.972 56.2373 125.882 56.2643 125.793 56.2554C125.704 56.2465 125.622 56.2024 125.565 56.133C125.226 55.7159 124.866 55.3073 124.494 54.9187C124.433 54.8569 124.399 54.7744 124.398 54.6881C124.397 54.6018 124.429 54.5184 124.487 54.4549C124.546 54.3915 124.626 54.3529 124.712 54.3471C124.799 54.3413 124.884 54.3687 124.95 54.4237L124.954 54.4223ZM118.26 49.758C118.324 49.8093 118.366 49.8818 118.38 49.9622C118.394 50.0426 118.379 50.1254 118.337 50.1952C118.294 50.2649 118.228 50.317 118.15 50.3417C118.073 50.3664 117.988 50.362 117.914 50.3294C117.421 50.1152 116.914 49.9237 116.406 49.7523C116.322 49.7231 116.253 49.6621 116.214 49.5824C116.175 49.5028 116.169 49.4109 116.197 49.3267C116.225 49.2425 116.285 49.1729 116.364 49.1329C116.444 49.0929 116.536 49.0857 116.62 49.113C117.146 49.2902 117.67 49.4909 118.179 49.7094C118.208 49.7218 118.235 49.7382 118.26 49.758ZM127.022 56.9723C127.047 56.9931 127.069 57.0171 127.088 57.0437C127.401 57.5016 127.699 57.978 127.974 58.4587C128.019 58.5364 128.03 58.6285 128.007 58.7149C127.983 58.8012 127.927 58.8747 127.849 58.9191C127.771 58.9635 127.679 58.9753 127.593 58.9517C127.506 58.9282 127.433 58.8714 127.389 58.7937C127.123 58.3287 126.834 57.8652 126.531 57.4244C126.485 57.3575 126.465 57.2762 126.474 57.1954C126.483 57.1145 126.521 57.0397 126.581 56.9846C126.64 56.9296 126.718 56.898 126.799 56.8957C126.881 56.8935 126.96 56.9207 127.023 56.9723H127.022ZM115.151 48.7137C115.211 48.762 115.253 48.8293 115.269 48.9044C115.286 48.9795 115.276 49.058 115.241 49.1268C115.207 49.1956 115.15 49.2505 115.08 49.2826C115.01 49.3147 114.932 49.3219 114.857 49.303C114.337 49.173 113.806 49.0637 113.276 48.9759C113.232 48.9686 113.19 48.9529 113.153 48.9295C113.115 48.9061 113.082 48.8755 113.056 48.8395C113.031 48.8035 113.012 48.7627 113.002 48.7196C112.992 48.6764 112.991 48.6317 112.998 48.588C113.005 48.5443 113.021 48.5024 113.044 48.4648C113.068 48.4272 113.098 48.3946 113.134 48.3688C113.17 48.343 113.211 48.3245 113.254 48.3144C113.297 48.3044 113.342 48.3029 113.386 48.3102C113.933 48.4002 114.483 48.5144 115.021 48.648C115.069 48.6598 115.113 48.6823 115.151 48.7137ZM128.651 59.8259C128.691 59.8578 128.722 59.8984 128.744 59.9444C128.979 60.4444 129.196 60.9644 129.386 61.4844C129.402 61.5259 129.409 61.5701 129.407 61.6144C129.406 61.6586 129.396 61.7022 129.377 61.7425C129.359 61.7828 129.333 61.819 129.3 61.8492C129.268 61.8794 129.23 61.9029 129.188 61.9184C129.147 61.9338 129.103 61.941 129.058 61.9394C129.014 61.9378 128.971 61.9275 128.93 61.9091C128.89 61.8907 128.854 61.8646 128.823 61.8321C128.793 61.7997 128.77 61.7617 128.754 61.7202C128.567 61.2202 128.356 60.7152 128.13 60.2302C128.098 60.161 128.09 60.0828 128.107 60.0084C128.125 59.9341 128.168 59.868 128.228 59.821C128.288 59.774 128.363 59.7489 128.439 59.7498C128.516 59.7507 128.589 59.7775 128.649 59.8259H128.651ZM111.914 48.183C111.97 48.2284 112.01 48.2906 112.028 48.3604C112.046 48.4302 112.042 48.504 112.015 48.5708C111.988 48.6377 111.94 48.6942 111.879 48.732C111.817 48.7698 111.745 48.787 111.674 48.7809C111.14 48.7366 110.597 48.7094 110.06 48.7094C109.971 48.7094 109.885 48.6739 109.822 48.6107C109.758 48.5475 109.723 48.4617 109.723 48.3723C109.723 48.2829 109.758 48.1971 109.822 48.1339C109.885 48.0707 109.971 48.0352 110.06 48.0352C110.616 48.0352 111.176 48.0602 111.728 48.1066C111.795 48.1111 111.86 48.1358 111.914 48.1773L111.914 48.183ZM108.633 48.1744C108.685 48.2171 108.723 48.2744 108.743 48.3391C108.762 48.4037 108.762 48.4726 108.742 48.537C108.722 48.6014 108.683 48.6583 108.63 48.7004C108.577 48.7424 108.513 48.7677 108.446 48.773C107.912 48.8137 107.374 48.8773 106.841 48.9623C106.798 48.9693 106.753 48.9676 106.71 48.9573C106.667 48.947 106.626 48.9283 106.59 48.9023C106.554 48.8763 106.524 48.8435 106.501 48.8058C106.478 48.768 106.462 48.7261 106.455 48.6823C106.448 48.6385 106.45 48.5938 106.46 48.5507C106.47 48.5076 106.489 48.467 106.515 48.4311C106.541 48.3952 106.574 48.3648 106.612 48.3416C106.649 48.3184 106.691 48.3029 106.735 48.2959C107.284 48.2087 107.841 48.1423 108.394 48.1002C108.479 48.0917 108.564 48.1162 108.632 48.1687L108.633 48.1744ZM105.391 48.6916C105.44 48.7313 105.477 48.7838 105.497 48.8432C105.518 48.9027 105.521 48.9666 105.507 49.0279C105.493 49.0892 105.463 49.1454 105.418 49.1901C105.374 49.2348 105.318 49.2662 105.257 49.2809C104.736 49.4073 104.214 49.5566 103.704 49.7252C103.662 49.7392 103.618 49.7448 103.573 49.7417C103.529 49.7385 103.485 49.7267 103.446 49.7068C103.406 49.6869 103.37 49.6593 103.341 49.6257C103.312 49.5921 103.29 49.5531 103.276 49.5109C103.262 49.4687 103.256 49.4241 103.259 49.3797C103.262 49.3353 103.274 49.292 103.294 49.2522C103.314 49.2124 103.342 49.1769 103.375 49.1478C103.409 49.1186 103.448 49.0964 103.49 49.0823C104.016 48.908 104.556 48.7537 105.095 48.623C105.146 48.6097 105.199 48.6085 105.25 48.6194C105.302 48.6303 105.35 48.6531 105.391 48.6859L105.391 48.6916ZM102.274 49.7137C102.319 49.7504 102.354 49.7981 102.375 49.8523C102.396 49.9064 102.403 49.9652 102.394 50.0227C102.386 50.0803 102.363 50.1347 102.328 50.1807C102.292 50.2267 102.245 50.2627 102.191 50.2852C101.696 50.4952 101.204 50.7273 100.73 50.9752C100.691 50.9956 100.648 51.0082 100.604 51.0121C100.56 51.016 100.515 51.0112 100.473 50.998C100.431 50.9847 100.391 50.9632 100.358 50.9348C100.324 50.9064 100.296 50.8716 100.275 50.8323C100.255 50.793 100.242 50.7501 100.238 50.706C100.234 50.6619 100.239 50.6175 100.252 50.5752C100.265 50.533 100.287 50.4937 100.315 50.4598C100.344 50.4258 100.379 50.3978 100.418 50.3773C100.908 50.1209 101.418 49.8773 101.929 49.663C101.985 49.6394 102.047 49.6316 102.108 49.6405C102.169 49.6495 102.226 49.6748 102.274 49.7137ZM99.3643 51.2337C99.3923 51.2572 99.4164 51.2849 99.4357 51.3159C99.4593 51.3533 99.4753 51.3951 99.4828 51.4387C99.4902 51.4824 99.489 51.5271 99.4792 51.5703C99.4694 51.6134 99.4512 51.6543 99.4256 51.6904C99.4 51.7265 99.3675 51.7573 99.33 51.7809C98.8772 52.0666 98.43 52.3752 98.0007 52.698C97.9289 52.7469 97.8409 52.7662 97.7552 52.752C97.6695 52.7377 97.5925 52.6909 97.5404 52.6214C97.4882 52.5519 97.4649 52.4649 97.4752 52.3786C97.4855 52.2923 97.5287 52.2133 97.5957 52.158C98.0393 51.8252 98.5014 51.5059 98.97 51.2102C99.0303 51.1728 99.1007 51.1553 99.1714 51.16C99.2421 51.1648 99.3096 51.1916 99.3643 51.2366V51.2337ZM96.74 53.2044C96.754 53.2161 96.7671 53.2288 96.7793 53.2423C96.8386 53.3093 96.8689 53.3971 96.8635 53.4864C96.8582 53.5757 96.8176 53.6593 96.7507 53.7187C96.3493 54.0759 95.9572 54.4509 95.5857 54.8373C95.5237 54.9018 95.4386 54.939 95.3491 54.9408C95.2596 54.9425 95.1731 54.9086 95.1086 54.8466C95.0441 54.7845 95.0069 54.6994 95.0051 54.6099C95.0034 54.5205 95.0373 54.4339 95.0993 54.3694C95.4836 53.9702 95.885 53.5837 96.3029 53.2137C96.3632 53.161 96.4402 53.1315 96.5203 53.1303C96.6003 53.1291 96.6782 53.1564 96.74 53.2073V53.2044ZM94.4643 55.5709C94.5337 55.6275 94.5778 55.7093 94.5869 55.7983C94.596 55.8874 94.5694 55.9764 94.5129 56.0459L94.4736 56.093C94.1479 56.4937 93.8307 56.9116 93.5393 57.3359C93.4884 57.4094 93.4103 57.4596 93.3223 57.4756C93.2343 57.4915 93.1435 57.4718 93.07 57.4209C92.9965 57.3699 92.9463 57.2918 92.9303 57.2038C92.9144 57.1158 92.9341 57.0251 92.985 56.9516C93.2893 56.513 93.6136 56.0809 93.9507 55.6659L93.9893 55.618C94.0461 55.5488 94.128 55.505 94.2171 55.4962C94.3061 55.4874 94.395 55.5142 94.4643 55.5709Z" fill="white"/>
<path d="M129.802 62.919C129.856 62.9626 129.895 63.0221 129.914 63.089C129.992 63.3647 130.063 63.6411 130.128 63.9183C130.138 63.9614 130.14 64.0061 130.133 64.0498C130.126 64.0935 130.11 64.1354 130.087 64.1732C130.064 64.2109 130.033 64.2436 129.997 64.2696C129.961 64.2955 129.921 64.3141 129.878 64.3243C129.834 64.3346 129.79 64.3362 129.746 64.3291C129.702 64.3221 129.66 64.3065 129.623 64.2833C129.585 64.26 129.552 64.2296 129.526 64.1937C129.5 64.1577 129.482 64.1171 129.471 64.074C129.407 63.8054 129.338 63.538 129.263 63.2718C129.243 63.2028 129.246 63.1293 129.271 63.0621C129.296 62.9949 129.342 62.9374 129.402 62.898C129.462 62.8587 129.533 62.8395 129.605 62.8432C129.677 62.847 129.745 62.8735 129.801 62.919H129.802Z" fill="white"/>
</g>
<path d="M125.547 67.0375C125.547 66.9866 125.531 66.937 125.501 66.8956C125.471 66.8542 125.43 66.8232 125.382 66.8068L122.572 65.8403C122.25 64.4696 121.707 63.1606 120.964 61.9646L122.262 59.2932C122.284 59.2474 122.292 59.1958 122.283 59.1457C122.275 59.0955 122.251 59.0492 122.215 59.0132L119.692 56.4939C119.655 56.4581 119.609 56.4343 119.559 56.426C119.509 56.4177 119.457 56.4252 119.412 56.4475L116.742 57.751C115.545 57.0104 114.235 56.4697 112.864 56.1503L111.892 53.341C111.875 53.293 111.844 53.2514 111.803 53.222C111.761 53.1925 111.712 53.1767 111.661 53.1768H108.095C108.044 53.1768 107.995 53.1928 107.953 53.2223C107.912 53.2519 107.881 53.2937 107.864 53.3418L106.898 56.1525C105.528 56.4743 104.219 57.0174 103.023 57.7603L100.351 56.4618C100.305 56.4395 100.254 56.4321 100.204 56.4406C100.154 56.449 100.107 56.4729 100.072 56.5089L97.5522 59.0325C97.5164 59.0686 97.4927 59.1149 97.4844 59.1651C97.476 59.2152 97.4835 59.2668 97.5058 59.3125L98.8094 61.9818C98.0687 63.1791 97.5281 64.4891 97.2087 65.8603L94.3994 66.8318C94.3514 66.8485 94.3098 66.8798 94.2803 66.9213C94.2509 66.9627 94.2351 67.0123 94.2351 67.0632V70.6289C94.2354 70.6797 94.2514 70.7292 94.281 70.7705C94.3105 70.8118 94.3521 70.8429 94.4001 70.8596L97.2115 71.826C97.5334 73.1965 98.0764 74.5053 98.8194 75.701L97.5208 78.3732C97.4986 78.4188 97.4912 78.4703 97.4996 78.5204C97.5081 78.5705 97.532 78.6166 97.568 78.6525L100.092 81.1718C100.128 81.2076 100.174 81.2313 100.224 81.2397C100.274 81.248 100.326 81.2405 100.372 81.2182L103.041 79.9146C104.238 80.6552 105.548 81.1958 106.919 81.5153L107.891 84.3246C107.907 84.3727 107.938 84.4144 107.98 84.4439C108.021 84.4733 108.071 84.4891 108.122 84.4889H111.687C111.738 84.4887 111.788 84.4727 111.829 84.4432C111.87 84.4136 111.901 84.3719 111.918 84.3239L112.884 81.5125C114.255 81.1907 115.564 80.6476 116.76 79.9046L119.432 81.2032C119.477 81.2254 119.529 81.2328 119.579 81.2243C119.629 81.2159 119.676 81.192 119.712 81.156L122.231 78.6325C122.267 78.5964 122.29 78.5501 122.299 78.4999C122.307 78.4497 122.3 78.3982 122.277 78.3525L120.974 75.6832C121.714 74.486 122.255 73.1763 122.574 71.8053L125.384 70.8332C125.432 70.8167 125.473 70.7855 125.503 70.7442C125.532 70.7028 125.548 70.6533 125.548 70.6025L125.547 67.0375Z" fill="url(#paint7_linear_819_197)"/>
<path opacity="0.56" d="M112.106 66.12C112.808 66.6927 113.261 67.5152 113.369 68.4148C113.477 69.3143 113.232 70.2206 112.686 70.9432C112.139 71.6658 111.334 72.1484 110.439 72.2894C109.544 72.4304 108.629 72.2189 107.887 71.6994C107.145 71.1798 106.633 70.3927 106.459 69.5036C106.285 68.6144 106.463 67.6925 106.955 66.9317C107.447 66.1709 108.215 65.6305 109.097 65.4241C109.979 65.2177 110.907 65.3614 111.685 65.825C111.832 65.913 111.973 66.0116 112.106 66.12ZM108.106 71.0271C108.408 71.2724 108.757 71.4529 109.131 71.5574C109.506 71.6619 109.897 71.6881 110.282 71.6344C110.667 71.5806 111.037 71.4482 111.369 71.2452C111.7 71.0422 111.986 70.7731 112.209 70.4547C112.432 70.1362 112.587 69.7753 112.664 69.3943C112.741 69.0134 112.739 68.6206 112.657 68.2405C112.576 67.8605 112.417 67.5013 112.191 67.1853C111.964 66.8694 111.675 66.6035 111.341 66.4043C110.728 66.0379 109.998 65.9174 109.299 66.0671C108.6 66.2168 107.984 66.6255 107.574 67.2112C107.164 67.7968 106.991 68.5159 107.09 69.2238C107.189 69.9318 107.552 70.576 108.106 71.0271Z" fill="white"/>
<path opacity="0.56" d="M115.451 61.8966C115.689 62.0894 115.916 62.2946 116.133 62.5123C116.221 62.5994 116.306 62.6887 116.389 62.7787C116.683 63.0958 116.952 63.4338 117.196 63.7901L117.221 63.8258L117.282 63.9173L117.331 63.9887C117.37 64.0487 117.389 64.1193 117.385 64.1905C117.381 64.2617 117.354 64.3298 117.309 64.3851C117.287 64.4131 117.261 64.4372 117.231 64.4566C117.194 64.4807 117.152 64.4973 117.108 64.5054C117.065 64.5134 117.02 64.5128 116.977 64.5035C116.933 64.4942 116.892 64.4765 116.856 64.4512C116.819 64.426 116.788 64.3938 116.764 64.3566C115.837 62.9192 114.487 61.8047 112.9 61.1667C111.313 60.5287 109.567 60.3986 107.903 60.7943C106.239 61.19 104.739 62.0921 103.609 63.3762C102.479 64.6603 101.775 66.2632 101.595 67.964C101.414 69.6649 101.765 71.3799 102.6 72.8728C103.435 74.3657 104.712 75.563 106.255 76.2996C107.799 77.0363 109.533 77.276 111.219 76.9858C112.905 76.6957 114.459 75.8898 115.667 74.6794C115.866 74.4804 116.053 74.2725 116.23 74.0558C116.995 73.1175 117.544 72.022 117.836 70.8473C117.849 70.7992 117.872 70.7544 117.903 70.7158C117.951 70.6563 118.019 70.615 118.094 70.5988C118.169 70.5827 118.247 70.5927 118.316 70.627C118.384 70.6614 118.439 70.7182 118.471 70.788C118.503 70.8578 118.51 70.9364 118.491 71.0108C118.166 72.3094 117.554 73.5184 116.699 74.5486C115.845 75.5789 114.77 76.4041 113.554 76.9635C112.337 77.5229 111.011 77.8021 109.673 77.7805C108.334 77.7589 107.018 77.4372 105.82 76.8389C104.623 76.2407 103.575 75.3812 102.754 74.324C101.933 73.2667 101.36 72.0386 101.077 70.7303C100.794 69.422 100.808 68.0668 101.119 66.7648C101.429 65.4627 102.028 64.247 102.871 63.2073C103.062 62.9692 103.267 62.7416 103.488 62.5244C105.051 60.9585 107.139 60.0277 109.349 59.9117C111.558 59.7958 113.732 60.5029 115.451 61.8966Z" fill="white"/>
<path d="M193.519 69.2202C193.028 68.7146 192.44 68.3127 191.791 68.0384C191.141 67.7641 190.444 67.6228 189.739 67.623L81.8379 67.6866C81.1329 67.687 80.4351 67.8289 79.7859 68.1039C79.1367 68.3789 78.5494 68.7815 78.0587 69.2878C77.568 69.7941 77.184 70.3937 76.9294 71.0512C76.6748 71.7086 76.5548 72.4105 76.5765 73.1152L80.8572 210.949C80.945 213.793 83.2765 215.992 86.1222 215.992H185.694C188.543 215.992 190.876 213.788 190.959 210.94L195.009 73.0116C195.028 72.3119 194.907 71.6154 194.651 70.9639C194.395 70.3124 194.01 69.7193 193.519 69.2202Z" fill="url(#paint8_linear_819_197)"/>
<path opacity="0.6" d="M188.745 75.5648C188.296 75.1027 187.759 74.7355 187.165 74.4848C186.572 74.2341 185.934 74.1052 185.289 74.1055L86.6679 74.1633C86.0234 74.1637 85.3854 74.2935 84.792 74.545C84.1985 74.7965 83.6616 75.1646 83.2131 75.6276C82.7646 76.0905 82.4136 76.6387 82.1809 77.2398C81.9482 77.8409 81.8387 78.4827 81.8586 79.1269L85.7679 205.088C85.8486 207.688 87.9822 209.691 90.5801 209.691H181.591C184.195 209.691 186.327 207.683 186.404 205.08L190.104 79.0298C190.123 78.3904 190.012 77.7538 189.779 77.1583C189.545 76.5628 189.194 76.0208 188.745 75.5648Z" fill="white"/>
<path d="M143.083 120.17C147.249 116.004 147.249 109.25 143.083 105.084C138.917 100.918 132.163 100.918 127.996 105.084C123.83 109.25 123.83 116.004 127.996 120.17C132.162 124.336 138.917 124.336 143.083 120.17Z" fill="url(#paint9_linear_819_197)"/>
<path d="M142.801 119.635C146.671 115.764 146.671 109.488 142.801 105.617C138.93 101.746 132.654 101.746 128.783 105.617C124.912 109.488 124.912 115.764 128.783 119.635C132.654 123.506 138.93 123.506 142.801 119.635Z" fill="url(#paint10_linear_819_197)"/>
<path d="M180.191 148.455C180.191 149.348 180.015 150.233 179.673 151.059C179.331 151.884 178.83 152.634 178.198 153.266C177.566 153.898 176.816 154.399 175.99 154.741C175.165 155.083 174.28 155.259 173.386 155.259H164.566C163.673 155.259 162.788 155.083 161.963 154.741C161.137 154.399 160.387 153.898 159.755 153.266C159.123 152.634 158.622 151.884 158.28 151.059C157.938 150.233 157.762 149.348 157.762 148.455C157.762 147.561 157.938 146.676 158.28 145.851C158.622 145.025 159.123 144.275 159.755 143.643C160.387 143.011 161.137 142.51 161.963 142.168C162.788 141.826 163.673 141.65 164.566 141.65H173.386C175.191 141.65 176.922 142.367 178.198 143.643C179.474 144.919 180.191 146.65 180.191 148.455Z" fill="url(#paint11_linear_819_197)"/>
<path d="M179.262 148.455C179.268 149.281 179.11 150.099 178.798 150.863C178.486 151.628 178.025 152.323 177.444 152.908C176.862 153.494 176.17 153.959 175.407 154.276C174.645 154.593 173.828 154.756 173.002 154.755H164.816C163.99 154.756 163.173 154.593 162.411 154.276C161.648 153.959 160.956 153.494 160.374 152.908C159.793 152.323 159.332 151.628 159.02 150.863C158.708 150.099 158.55 149.281 158.556 148.455C158.55 147.63 158.708 146.811 159.02 146.047C159.333 145.283 159.793 144.588 160.375 144.002C160.957 143.417 161.648 142.952 162.411 142.635C163.173 142.318 163.99 142.155 164.816 142.155H173C173.826 142.155 174.643 142.318 175.405 142.635C176.167 142.952 176.859 143.417 177.441 144.002C178.023 144.588 178.483 145.283 178.795 146.047C179.108 146.811 179.266 147.63 179.26 148.455H179.262Z" fill="url(#paint12_linear_819_197)"/>
<path d="M147.682 148.455C147.682 150.259 146.965 151.99 145.69 153.266C144.414 154.542 142.683 155.259 140.879 155.259H132.058C131.164 155.259 130.28 155.083 129.454 154.741C128.629 154.399 127.879 153.898 127.247 153.266C126.615 152.634 126.114 151.884 125.772 151.059C125.43 150.233 125.254 149.348 125.254 148.455C125.254 147.561 125.43 146.676 125.772 145.851C126.114 145.025 126.615 144.275 127.247 143.643C127.879 143.012 128.629 142.51 129.454 142.168C130.28 141.826 131.164 141.65 132.058 141.65H140.879C142.683 141.651 144.414 142.368 145.69 143.644C146.965 144.92 147.682 146.65 147.682 148.455Z" fill="url(#paint13_linear_819_197)"/>
<path d="M146.754 148.455C146.759 149.281 146.601 150.099 146.289 150.863C145.977 151.628 145.517 152.323 144.935 152.908C144.353 153.494 143.661 153.959 142.899 154.276C142.137 154.593 141.319 154.756 140.494 154.755H132.307C131.482 154.756 130.664 154.593 129.902 154.276C129.14 153.959 128.448 153.494 127.866 152.908C127.284 152.323 126.824 151.628 126.512 150.863C126.2 150.099 126.042 149.281 126.047 148.455C126.042 147.63 126.2 146.811 126.512 146.047C126.824 145.283 127.284 144.588 127.866 144.002C128.448 143.417 129.14 142.952 129.902 142.635C130.664 142.318 131.482 142.155 132.307 142.155H140.494C141.319 142.155 142.137 142.318 142.899 142.635C143.661 142.952 144.353 143.417 144.935 144.002C145.517 144.588 145.977 145.283 146.289 146.047C146.601 146.811 146.759 147.63 146.754 148.455Z" fill="url(#paint14_linear_819_197)"/>
<path d="M114.418 148.455C114.418 149.348 114.242 150.233 113.9 151.059C113.558 151.884 113.057 152.634 112.425 153.266C111.793 153.898 111.043 154.399 110.217 154.741C109.392 155.083 108.507 155.259 107.614 155.259H98.7936C97.9 155.259 97.0153 155.083 96.1898 154.741C95.3643 154.399 94.6142 153.898 93.9825 153.266C93.3507 152.634 92.8495 151.884 92.5077 151.059C92.1658 150.233 91.9899 149.348 91.99 148.455C91.9899 147.561 92.1658 146.676 92.5077 145.851C92.8495 145.025 93.3507 144.275 93.9825 143.643C94.6142 143.012 95.3643 142.51 96.1898 142.168C97.0153 141.826 97.9 141.65 98.7936 141.65H107.614C109.418 141.65 111.149 142.367 112.425 143.643C113.701 144.919 114.418 146.65 114.418 148.455Z" fill="url(#paint15_linear_819_197)"/>
<path d="M113.489 148.455C113.495 149.281 113.337 150.099 113.025 150.863C112.713 151.628 112.252 152.323 111.671 152.908C111.089 153.494 110.397 153.959 109.634 154.276C108.872 154.593 108.055 154.756 107.229 154.755H99.0429C98.2173 154.756 97.3999 154.593 96.6376 154.276C95.8754 153.959 95.1834 153.494 94.6015 152.908C94.0197 152.323 93.5594 151.628 93.2473 150.863C92.9351 150.099 92.7773 149.281 92.7829 148.455C92.7774 147.63 92.9353 146.811 93.2475 146.047C93.5596 145.283 94.0199 144.588 94.6017 144.002C95.1836 143.417 95.8756 142.952 96.6378 142.635C97.4 142.318 98.2174 142.155 99.0429 142.155H107.229C108.055 142.155 108.872 142.318 109.634 142.635C110.397 142.952 111.089 143.417 111.67 144.002C112.252 144.588 112.713 145.283 113.025 146.047C113.337 146.811 113.495 147.63 113.489 148.455Z" fill="url(#paint16_linear_819_197)"/>
<path d="M180.191 178.947C180.191 180.752 179.474 182.482 178.198 183.758C176.922 185.035 175.191 185.751 173.386 185.751H164.566C163.673 185.751 162.788 185.575 161.963 185.233C161.137 184.892 160.387 184.39 159.755 183.758C159.123 183.127 158.622 182.377 158.28 181.551C157.938 180.725 157.762 179.841 157.762 178.947C157.762 177.143 158.479 175.412 159.755 174.136C161.031 172.86 162.762 172.144 164.566 172.144H173.386C175.191 172.144 176.922 172.86 178.198 174.136C179.474 175.412 180.191 177.143 180.191 178.947Z" fill="url(#paint17_linear_819_197)"/>
<path d="M179.262 178.946C179.268 179.772 179.11 180.591 178.798 181.355C178.486 182.119 178.025 182.814 177.444 183.4C176.862 183.985 176.17 184.45 175.407 184.767C174.645 185.084 173.828 185.247 173.002 185.247H164.816C163.99 185.247 163.173 185.084 162.411 184.767C161.648 184.45 160.956 183.985 160.374 183.4C159.793 182.814 159.332 182.119 159.02 181.355C158.708 180.591 158.55 179.772 158.556 178.946C158.55 178.121 158.708 177.303 159.02 176.538C159.333 175.774 159.793 175.079 160.375 174.494C160.957 173.908 161.648 173.443 162.411 173.126C163.173 172.809 163.99 172.646 164.816 172.646H173C173.826 172.646 174.643 172.809 175.405 173.126C176.167 173.443 176.859 173.908 177.441 174.494C178.023 175.079 178.483 175.774 178.795 176.538C179.108 177.303 179.266 178.121 179.26 178.946H179.262Z" fill="url(#paint18_linear_819_197)"/>
<path d="M147.682 178.947C147.682 180.752 146.965 182.482 145.69 183.758C144.414 185.034 142.683 185.751 140.879 185.751H132.058C131.164 185.751 130.28 185.575 129.454 185.233C128.629 184.891 127.879 184.39 127.247 183.758C126.615 183.127 126.114 182.376 125.772 181.551C125.43 180.725 125.254 179.841 125.254 178.947C125.254 177.143 125.971 175.412 127.247 174.136C128.523 172.86 130.254 172.144 132.058 172.144H140.879C142.683 172.144 144.413 172.861 145.689 174.136C146.965 175.412 147.682 177.143 147.682 178.947Z" fill="url(#paint19_linear_819_197)"/>
<path d="M146.754 178.946C146.759 179.772 146.601 180.591 146.289 181.355C145.977 182.119 145.517 182.814 144.935 183.4C144.353 183.985 143.661 184.45 142.899 184.767C142.137 185.084 141.319 185.247 140.494 185.247H132.307C131.482 185.247 130.664 185.084 129.902 184.767C129.14 184.45 128.448 183.985 127.866 183.4C127.284 182.814 126.824 182.119 126.512 181.355C126.2 180.591 126.042 179.772 126.047 178.946C126.042 178.121 126.2 177.303 126.512 176.538C126.824 175.774 127.284 175.079 127.866 174.494C128.448 173.908 129.14 173.443 129.902 173.126C130.664 172.809 131.482 172.646 132.307 172.646H140.494C141.319 172.646 142.137 172.809 142.899 173.126C143.661 173.443 144.353 173.908 144.935 174.494C145.517 175.079 145.977 175.774 146.289 176.538C146.601 177.303 146.759 178.121 146.754 178.946Z" fill="url(#paint20_linear_819_197)"/>
<path d="M114.418 178.947C114.418 180.752 113.701 182.482 112.425 183.758C111.149 185.035 109.418 185.751 107.614 185.751H98.7936C97.9 185.751 97.0153 185.575 96.1898 185.233C95.3643 184.891 94.6142 184.39 93.9825 183.758C93.3507 183.127 92.8495 182.376 92.5077 181.551C92.1658 180.725 91.9899 179.841 91.99 178.947C91.99 177.143 92.7068 175.412 93.9827 174.136C95.2586 172.86 96.9891 172.144 98.7936 172.144H107.614C109.418 172.144 111.149 172.86 112.425 174.136C113.701 175.412 114.418 177.143 114.418 178.947Z" fill="url(#paint21_linear_819_197)"/>
<path d="M113.489 178.946C113.495 179.772 113.337 180.591 113.025 181.355C112.713 182.119 112.253 182.814 111.671 183.4C111.089 183.985 110.397 184.45 109.635 184.767C108.872 185.084 108.055 185.247 107.229 185.247H99.0429C98.2173 185.247 97.3998 185.084 96.6376 184.767C95.8753 184.45 95.1834 183.985 94.6015 183.4C94.0196 182.814 93.5594 182.119 93.2472 181.355C92.9351 180.591 92.7773 179.772 92.7829 178.946C92.7774 178.121 92.9353 177.303 93.2475 176.538C93.5596 175.774 94.0199 175.079 94.6017 174.494C95.1836 173.908 95.8756 173.443 96.6378 173.126C97.4 172.809 98.2174 172.646 99.0429 172.646H107.229C108.055 172.646 108.872 172.809 109.634 173.126C110.397 173.443 111.089 173.908 111.67 174.494C112.252 175.079 112.713 175.774 113.025 176.538C113.337 177.303 113.495 178.121 113.489 178.946Z" fill="url(#paint22_linear_819_197)"/>
<path d="M136.105 168.886L135.089 168.897V158.386L136.105 158.38V168.886Z" fill="white"/>
<path d="M103.178 169.275L102.128 169.287V166.582C102.128 165.125 103.37 163.929 104.895 163.915L127.666 163.706C128.589 163.697 129.341 162.965 129.341 162.073V158.424L130.362 158.418V162.064C130.362 163.501 129.154 164.681 127.666 164.695L104.895 164.915C103.949 164.924 103.181 165.667 103.181 166.571L103.178 169.275Z" fill="white"/>
<path d="M167.969 168.508L166.985 168.52V165.901C166.984 165.692 166.941 165.485 166.858 165.292C166.776 165.099 166.657 164.925 166.507 164.779C166.357 164.633 166.18 164.518 165.985 164.441C165.79 164.364 165.582 164.326 165.373 164.33L143.465 164.544C141.999 164.558 140.804 163.408 140.804 161.979V158.351L141.814 158.345V161.97C141.814 162.857 142.555 163.571 143.465 163.563L165.373 163.362C166.805 163.349 167.969 164.484 167.969 165.893V168.508Z" fill="white"/>
<path d="M136.145 135.694L135.129 135.707V125.196L136.145 125.189V135.694Z" fill="white"/>
<path d="M103.219 136.084L102.169 136.097V133.391C102.169 131.934 103.411 130.738 104.935 130.724L127.706 130.515C128.63 130.507 129.381 129.774 129.381 128.882V125.234L130.403 125.227V128.874C130.403 130.31 129.194 131.49 127.706 131.504L104.935 131.724C103.989 131.734 103.221 132.476 103.221 133.38L103.219 136.084Z" fill="white"/>
<path d="M168.009 135.318L167.026 135.329V132.714C167.024 132.504 166.981 132.297 166.899 132.105C166.817 131.912 166.698 131.738 166.548 131.591C166.398 131.445 166.22 131.33 166.026 131.253C165.831 131.176 165.623 131.138 165.414 131.142L143.505 131.357C142.039 131.371 140.844 130.22 140.844 128.792V125.164L141.854 125.157V128.783C141.854 129.669 142.595 130.384 143.505 130.375L165.414 130.174C166.846 130.162 168.009 131.297 168.009 132.705V135.318Z" fill="white"/>
<path d="M194.699 83.4381L195.007 72.9831C195.028 72.2854 194.906 71.5908 194.651 70.9413C194.395 70.2919 194.01 69.701 193.519 69.2045C193.028 68.7 192.44 68.2994 191.79 68.0264C191.141 67.7534 190.443 67.6136 189.739 67.6152L81.8379 67.6824C81.1327 67.6833 80.4348 67.8256 79.7856 68.1009C79.1363 68.3762 78.5488 68.7789 78.0579 69.2853C77.5677 69.7859 77.1838 70.3804 76.9292 71.0332C76.6746 71.686 76.5547 72.3835 76.5765 73.0838L76.8986 83.4367L194.699 83.4381Z" fill="url(#paint23_linear_819_197)"/>
<path opacity="0.6" d="M85.4379 77.8103C86.9223 77.8103 88.1257 76.6069 88.1257 75.1224C88.1257 73.638 86.9223 72.4346 85.4379 72.4346C83.9534 72.4346 82.75 73.638 82.75 75.1224C82.75 76.6069 83.9534 77.8103 85.4379 77.8103Z" fill="white"/>
<path opacity="0.6" d="M95.1174 77.7582C96.4888 77.1901 97.1401 75.6178 96.572 74.2464C96.0039 72.8749 94.4316 72.2236 93.0602 72.7917C91.6887 73.3598 91.0374 74.9321 91.6055 76.3036C92.1736 77.675 93.7459 78.3263 95.1174 77.7582Z" fill="white"/>
<path opacity="0.6" d="M102.448 77.8103C103.932 77.8103 105.136 76.6069 105.136 75.1224C105.136 73.638 103.932 72.4346 102.448 72.4346C100.963 72.4346 99.76 73.638 99.76 75.1224C99.76 76.6069 100.963 77.8103 102.448 77.8103Z" fill="white"/>
<path opacity="0.67" d="M180.849 191.206H91.0801C90.7475 191.206 90.4779 191.476 90.4779 191.808V194.977C90.4779 195.309 90.7475 195.579 91.0801 195.579H180.849C181.181 195.579 181.451 195.309 181.451 194.977V191.808C181.451 191.476 181.181 191.206 180.849 191.206Z" fill="white"/>
<path opacity="0.67" d="M157.954 91.4131H86.04C85.7075 91.4131 85.4379 91.6827 85.4379 92.0152V95.1838C85.4379 95.5163 85.7075 95.7859 86.04 95.7859H157.954C158.286 95.7859 158.556 95.5163 158.556 95.1838V92.0152C158.556 91.6827 158.286 91.4131 157.954 91.4131Z" fill="white"/>
<path opacity="0.67" d="M186.224 91.4131H168.571C168.238 91.4131 167.969 91.6827 167.969 92.0152V95.1838C167.969 95.5163 168.238 95.7859 168.571 95.7859H186.224C186.557 95.7859 186.826 95.5163 186.826 95.1838V92.0152C186.826 91.6827 186.557 91.4131 186.224 91.4131Z" fill="white"/>
<path opacity="0.67" d="M180.481 198.263H90.7122C90.3797 198.263 90.1101 198.532 90.1101 198.865V202.033C90.1101 202.366 90.3797 202.636 90.7122 202.636H180.481C180.813 202.636 181.083 202.366 181.083 202.033V198.865C181.083 198.532 180.813 198.263 180.481 198.263Z" fill="white"/>
<defs>
<linearGradient id="paint0_linear_819_197" x1="224.606" y1="277.439" x2="102.777" y2="94.5854" gradientUnits="userSpaceOnUse">
<stop stop-color="#B37CFF"/>
<stop offset="1" stop-color="#F895E7"/>
</linearGradient>
<linearGradient id="paint1_linear_819_197" x1="242.128" y1="121.468" x2="190.085" y2="142.173" gradientUnits="userSpaceOnUse">
<stop stop-color="#A737D5"/>
<stop offset="1" stop-color="#EF497A"/>
</linearGradient>
<linearGradient id="paint2_linear_819_197" x1="207.841" y1="52.7089" x2="202.679" y2="192.485" gradientUnits="userSpaceOnUse">
<stop stop-color="#CE1567"/>
<stop offset="1" stop-color="#7A1DBC"/>
</linearGradient>
<linearGradient id="paint3_linear_819_197" x1="150.424" y1="212.074" x2="108.707" y2="86.9209" gradientUnits="userSpaceOnUse">
<stop stop-color="#2B3582"/>
<stop offset="1" stop-color="#150E42"/>
</linearGradient>
<linearGradient id="paint4_linear_819_197" x1="49.595" y1="207.643" x2="505.136" y2="-34.7182" gradientUnits="userSpaceOnUse">
<stop stop-color="#FDF53F"/>
<stop offset="0.66" stop-color="#E57A58"/>
<stop offset="1" stop-color="#D93C65"/>
</linearGradient>
<linearGradient id="paint5_linear_819_197" x1="53.3194" y1="204.584" x2="239.169" y2="249.791" gradientUnits="userSpaceOnUse">
<stop stop-color="#2B3582"/>
<stop offset="1" stop-color="#150E42"/>
</linearGradient>
<linearGradient id="paint6_linear_819_197" x1="61.4269" y1="61.742" x2="112.09" y2="185.299" gradientUnits="userSpaceOnUse">
<stop stop-color="#CB236D"/>
<stop offset="1" stop-color="#4C246D"/>
</linearGradient>
<linearGradient id="paint7_linear_819_197" x1="89.9596" y1="55.8512" x2="154.739" y2="96.3862" gradientUnits="userSpaceOnUse">
<stop stop-color="#CB236D"/>
<stop offset="0.07" stop-color="#C2236D"/>
<stop offset="1" stop-color="#4C246D"/>
</linearGradient>
<linearGradient id="paint8_linear_819_197" x1="172.071" y1="71.7716" x2="26.9186" y2="337.382" gradientUnits="userSpaceOnUse">
<stop stop-color="#53D8FF"/>
<stop offset="1" stop-color="#3840F7"/>
</linearGradient>
<linearGradient id="paint9_linear_819_197" x1="109.296" y1="78.5105" x2="131.976" y2="107.995" gradientUnits="userSpaceOnUse">
<stop stop-color="#53D8FF"/>
<stop offset="1" stop-color="#3840F7"/>
</linearGradient>
<linearGradient id="paint10_linear_819_197" x1="135.261" y1="104.662" x2="136.52" y2="123.562" gradientUnits="userSpaceOnUse">
<stop stop-color="#53D8FF"/>
<stop offset="1" stop-color="#3840F7"/>
</linearGradient>
<linearGradient id="paint11_linear_819_197" x1="152.745" y1="129.693" x2="159.213" y2="137.17" gradientUnits="userSpaceOnUse">
<stop stop-color="#53D8FF"/>
<stop offset="1" stop-color="#3840F7"/>
</linearGradient>
<linearGradient id="paint12_linear_819_197" x1="168.909" y1="160.552" x2="168.909" y2="141.903" gradientUnits="userSpaceOnUse">
<stop stop-color="#233894"/>
<stop offset="1" stop-color="#DD397A"/>
</linearGradient>
<linearGradient id="paint13_linear_819_197" x1="120.237" y1="129.693" x2="126.705" y2="137.17" gradientUnits="userSpaceOnUse">
<stop stop-color="#53D8FF"/>
<stop offset="1" stop-color="#3840F7"/>
</linearGradient>
<linearGradient id="paint14_linear_819_197" x1="136.4" y1="160.552" x2="136.4" y2="141.903" gradientUnits="userSpaceOnUse">
<stop stop-color="#233894"/>
<stop offset="1" stop-color="#DD397A"/>
</linearGradient>
<linearGradient id="paint15_linear_819_197" x1="86.9721" y1="129.693" x2="93.44" y2="137.17" gradientUnits="userSpaceOnUse">
<stop stop-color="#53D8FF"/>
<stop offset="1" stop-color="#3840F7"/>
</linearGradient>
<linearGradient id="paint16_linear_819_197" x1="103.136" y1="160.552" x2="103.136" y2="141.903" gradientUnits="userSpaceOnUse">
<stop stop-color="#233894"/>
<stop offset="1" stop-color="#DD397A"/>
</linearGradient>
<linearGradient id="paint17_linear_819_197" x1="152.745" y1="160.186" x2="159.213" y2="167.662" gradientUnits="userSpaceOnUse">
<stop stop-color="#53D8FF"/>
<stop offset="1" stop-color="#3840F7"/>
</linearGradient>
<linearGradient id="paint18_linear_819_197" x1="168.909" y1="191.043" x2="168.909" y2="172.395" gradientUnits="userSpaceOnUse">
<stop stop-color="#233894"/>
<stop offset="1" stop-color="#DD397A"/>
</linearGradient>
<linearGradient id="paint19_linear_819_197" x1="120.237" y1="160.186" x2="126.705" y2="167.662" gradientUnits="userSpaceOnUse">
<stop stop-color="#53D8FF"/>
<stop offset="1" stop-color="#3840F7"/>
</linearGradient>
<linearGradient id="paint20_linear_819_197" x1="136.4" y1="191.043" x2="136.4" y2="172.395" gradientUnits="userSpaceOnUse">
<stop stop-color="#233894"/>
<stop offset="1" stop-color="#DD397A"/>
</linearGradient>
<linearGradient id="paint21_linear_819_197" x1="86.9721" y1="160.186" x2="93.44" y2="167.662" gradientUnits="userSpaceOnUse">
<stop stop-color="#53D8FF"/>
<stop offset="1" stop-color="#3840F7"/>
</linearGradient>
<linearGradient id="paint22_linear_819_197" x1="103.136" y1="191.043" x2="103.136" y2="172.395" gradientUnits="userSpaceOnUse">
<stop stop-color="#233894"/>
<stop offset="1" stop-color="#DD397A"/>
</linearGradient>
<linearGradient id="paint23_linear_819_197" x1="150.24" y1="50.796" x2="95.2458" y2="151.428" gradientUnits="userSpaceOnUse">
<stop stop-color="#53D8FF"/>
<stop offset="1" stop-color="#3840F7"/>
</linearGradient>
</defs>
</svg>
